<svg xmlns="http://www.w3.org/2000/svg" xmlns:xlink="http://www.w3.org/1999/xlink" width="432" height="80" viewBox="0 0 432 80">
  <defs>
    <filter id="Rectangle_363" x="0" y="0" width="432" height="80" filterUnits="userSpaceOnUse">
      <feOffset dy="-2" input="SourceAlpha"/>
      <feGaussianBlur stdDeviation="3" result="blur"/>
      <feFlood flood-opacity="0.161"/>
      <feComposite operator="in" in2="blur"/>
      <feComposite in="SourceGraphic"/>
    </filter>
  </defs>
  <g id="Group_3183" data-name="Group 3183" transform="translate(55 3276)">
    <g transform="matrix(1, 0, 0, 1, -55, -3276)" filter="url(#Rectangle_363)">
      <rect id="Rectangle_363-2" data-name="Rectangle 363" width="414" height="62" transform="translate(9 11)" fill="#f0f5f7"/>
    </g>
    <g id="Group_2682" data-name="Group 2682" transform="translate(6.679 -3260.43)">
      <path id="Path_37" data-name="Path 37" d="M-28.2,28.611c-.261-.469-.5-.873-.714-1.286a18.105,18.105,0,0,1-1.9-5.146,7.339,7.339,0,0,1,5.956-8.638,7.3,7.3,0,0,1,8.49,6.613,10.022,10.022,0,0,1-.836,4.557c-.455,1.1-1.024,2.163-1.547,3.239-.09.186-.2.361-.337.595.486,0,.921.015,1.355,0a1.31,1.31,0,0,1,1.08.471q3.8,4.124,7.618,8.233c.328.353.577.73.364,1.2a1.12,1.12,0,0,1-1.172.6q-13.857-.014-27.713-.007c-.592,0-.966-.223-1.086-.655a.991.991,0,0,1,.264-.992q2.488-2.683,4.971-5.371c.916-.991,1.84-1.975,2.744-2.977a1.226,1.226,0,0,1,1-.435C-29.191,28.619-28.722,28.611-28.2,28.611Zm16.415,8.494a1.492,1.492,0,0,0-.09-.127q-2.934-3.149-5.874-6.292a.559.559,0,0,0-.362-.148c-.629-.015-1.26,0-1.889-.012a.534.534,0,0,0-.5.248c-.794,1.066-1.594,2.127-2.414,3.173a.909.909,0,0,1-1.4.074,3.213,3.213,0,0,1-.358-.4c-.723-.956-1.446-1.913-2.156-2.878a.451.451,0,0,0-.42-.212c-.62.011-1.24.014-1.859,0-.222-.005-4.317,4.311-6.218,6.352-.058.062-.107.131-.185.227Zm-11.874-5.3c.066-.072.1-.105.131-.143a39.456,39.456,0,0,0,3.176-4.723,17.376,17.376,0,0,0,1.9-4.609,5.423,5.423,0,0,0-1.319-5.283,5.065,5.065,0,0,0-5.06-1.531A5.229,5.229,0,0,0-28.8,19.29a6.2,6.2,0,0,0,.176,3.773A29.7,29.7,0,0,0-23.655,31.806Z" fill="#0b1131" stroke="#fff" stroke-width="0.2"/>
      <path id="Path_38" data-name="Path 38" d="M151.07,70.138a4.154,4.154,0,1,1-4.138-4.167A4.144,4.144,0,0,1,151.07,70.138Zm-1.921.008a2.176,2.176,0,0,0-2.179-2.255,2.24,2.24,0,1,0-.065,4.48A2.181,2.181,0,0,0,149.149,70.146Z" transform="translate(-170.554 -49.388)" fill="#0b1131" stroke="#fff" stroke-width="0.2"/>
    </g>
    <rect id="Rectangle_364" data-name="Rectangle 364" width="59" height="62" transform="translate(250 -3265)" fill="#fff"/>
    <g id="Group_2684" data-name="Group 2684" transform="translate(-1515 -5356)">
      <g id="Rectangle_59" data-name="Rectangle 59" transform="translate(1605 2124)" fill="none" stroke="#0b1131" stroke-width="1.6">
        <rect width="9" height="9" rx="2" stroke="none"/>
        <rect x="0.8" y="0.8" width="7.4" height="7.4" rx="1.2" fill="none"/>
      </g>
      <g id="Group_246" data-name="Group 246">
        <g id="Group_235" data-name="Group 235" transform="translate(0 4)">
          <g id="Rectangle_58" data-name="Rectangle 58" transform="translate(1605 2108)" fill="none" stroke="#0b1131" stroke-width="1.6">
            <rect width="9" height="9" rx="2" stroke="none"/>
            <rect x="0.8" y="0.8" width="7.4" height="7.4" rx="1.2" fill="none"/>
          </g>
          <g id="Group_233" data-name="Group 233" transform="translate(0 0.5)">
            <line id="Line_17" data-name="Line 17" x2="5" transform="translate(1616.5 2112.5)" fill="none" stroke="#0b1131" stroke-linecap="round" stroke-width="1.5"/>
            <line id="Line_18" data-name="Line 18" x2="11" transform="translate(1616.5 2115.5)" fill="none" stroke="#0b1131" stroke-linecap="round" stroke-width="1.5"/>
          </g>
        </g>
        <g id="Group_234" data-name="Group 234" transform="translate(0 16.5)">
          <line id="Line_17-2" data-name="Line 17" x2="5" transform="translate(1616.5 2112.5)" fill="none" stroke="#0b1131" stroke-linecap="round" stroke-width="1.5"/>
          <line id="Line_18-2" data-name="Line 18" x2="11" transform="translate(1616.5 2115.5)" fill="none" stroke="#0b1131" stroke-linecap="round" stroke-width="1.5"/>
        </g>
      </g>
    </g>
    <g id="Group_2685" data-name="Group 2685" transform="translate(-407 -3630.959)">
      <path id="Path_41" data-name="Path 41" d="M579.567,401.594a3.612,3.612,0,0,0-3.352-1.924,3.427,3.427,0,0,0-2.131.719c-.144.111-.355.187-.383.126s-.126-.111-.194-.164c-.438-.342-.878-.681-1.313-1.027-.171-.136-.167-.143-.085-.343a4.624,4.624,0,0,0,.4-2.172c-.009-.1-.013-.193-.018-.288.68-.217,1.348-.431,2.018-.641a.142.142,0,0,1,.114.033c.1.093.2.2.3.292a2.782,2.782,0,0,0,1.844.887,3.086,3.086,0,0,0,1.269-.136,3.015,3.015,0,0,0,1.91-3.589,2.981,2.981,0,0,0-3.8-2.1,2.939,2.939,0,0,0-1.942,1.9,3.315,3.315,0,0,0-.142,1.186.123.123,0,0,1-.106.145c-.237.063-.472.131-.706.2-.264.08-.857.275-1.221.393a4.055,4.055,0,0,0-1.545-1.784,5.418,5.418,0,0,0-1.763-.71c-.078-.016-.106-.046-.109-.127-.023-.67-.036-1.341-.083-2.009a.485.485,0,0,1,.282-.523,2.176,2.176,0,0,0,1.11-2.2,2.237,2.237,0,0,0-3.058-1.829,2.107,2.107,0,0,0-1.393,1.834,2.221,2.221,0,0,0,1.265,2.26.434.434,0,0,1,.289.422q.022,1.048.044,2.1a.133.133,0,0,1,0,.033c-.239.084-.474.154-.7.249a5.783,5.783,0,0,0-.655.331c-.088.052-.173.107-.258.165-1.093-1.1-2.5-2.5-3.574-3.583-.086-.087-.22-.167-.238-.268s.083-.221.126-.335a2.894,2.894,0,0,0-.5-3.115,2.829,2.829,0,0,0-2.727-1,2.929,2.929,0,0,0-2.4,2.121,5.462,5.462,0,0,0-.125.558v.54c.022.12.043.24.067.359a3.022,3.022,0,0,0,3.1,2.373,2.8,2.8,0,0,0,1.216-.338.14.14,0,0,1,.2.03q1.813,1.82,3.633,3.633a.147.147,0,0,1,.034.208c-.132.249-.25.505-.377.756a4.573,4.573,0,0,0,.142,3.764c.091.164.171.334.249.5a.139.139,0,0,1-.015.124c-.378.385-.761.765-1.151,1.154-.106-.061-.212-.12-.316-.181a4.421,4.421,0,0,0-2.571-.61,4.517,4.517,0,0,0-4.036,3.257c-.077.278-.107.568-.159.853-.006.035-.013.07-.02.106v.564c.032.2.056.411.1.614a4.5,4.5,0,0,0,3.808,3.56c.1.014.209.03.314.046h.589a.855.855,0,0,1,.106-.022,4.411,4.411,0,0,0,1.213-.282,4.485,4.485,0,0,0,2.281-6.415c-.081-.142-.163-.282-.237-.411l1.224-1.222c.148.084.3.181.467.266a4.377,4.377,0,0,0,4.206.067,7.606,7.606,0,0,0,.857-.566.219.219,0,0,1,.3,0c.5.391,1,.772,1.507,1.158.17.13.168.13.09.333a3.851,3.851,0,0,0-.219,2.176,3.736,3.736,0,0,0,5.929,2.264A3.654,3.654,0,0,0,579.567,401.594Zm-2.533-8.972a1.519,1.519,0,0,1,1.484,1.5,1.486,1.486,0,0,1-1.471,1.5,1.514,1.514,0,0,1-1.5-1.466A1.544,1.544,0,0,1,577.034,392.623Zm-18.026-2.775a1.938,1.938,0,1,1,1.938-1.938A1.938,1.938,0,0,1,559.008,389.847Zm1.479,17.714a3,3,0,0,1-2.98-3.034,3,3,0,0,1,6,.083A3.016,3.016,0,0,1,560.487,407.561Zm5.926-19.651a1.243,1.243,0,1,1,1.243,1.243A1.243,1.243,0,0,1,566.413,387.91Zm-1.31,5.633.007,0Zm2.919,6.319a2.881,2.881,0,1,1,2.881-2.881A2.881,2.881,0,0,1,568.022,399.861ZM576.3,405.6a2.22,2.22,0,1,1,2.22-2.22A2.22,2.22,0,0,1,576.3,405.6Z" fill="#0b1131" stroke="#0b1131" stroke-width="0.1"/>
    </g>
    <g id="Group_2686" data-name="Group 2686" transform="translate(-947.599 -4234.091)">
      <g id="Group_240" data-name="Group 240" transform="translate(1156.599 989.091)">
        <path id="Path_42" data-name="Path 42" d="M1172.934,1003a9.259,9.259,0,0,0-2.3-12.338,8.96,8.96,0,0,0-12.494,12.413,9.278,9.278,0,0,0,12.412,2.408l.2.19.055.051q2.8,2.8,5.6,5.6a1.762,1.762,0,0,0,3.088-.556c.293-.821-.128-1.317-.74-1.933q-1.889-1.9-3.788-3.791l-1.846-1.847C1173.052,1003.129,1172.992,1003.061,1172.934,1003Zm-13.778-4.952a6.391,6.391,0,1,1,6.412,6.37A6.377,6.377,0,0,1,1159.156,998.047Z" transform="translate(-1156.599 -989.091)" fill="#0b1131" stroke="#fff" stroke-width="0.8"/>
        <path id="Path_43" data-name="Path 43" d="M1211.685,1048.995a1.118,1.118,0,0,0,.931,1.076.991.991,0,0,0,1.134-.73,3.135,3.135,0,0,1,2.374-2.37.992.992,0,0,0,.709-1.124.973.973,0,0,0-1.009-.857,2.554,2.554,0,0,0-.874.2,5.819,5.819,0,0,0-2.934,2.8A7.166,7.166,0,0,0,1211.685,1048.995Z" transform="translate(-1207.648 -1040.891)" fill="#0b1131" stroke="#fff" stroke-width="0.8"/>
      </g>
    </g>
    <g id="Group_2687" data-name="Group 2687" transform="translate(-52 -3922)">
      <g id="Group_242" data-name="Group 242" transform="translate(318 675)">
        <path id="Path_44" data-name="Path 44" d="M831.752-104.64v-.2q0-2.3,0-4.6a.3.3,0,0,0-.139-.276,9.6,9.6,0,0,1-3.425-4.3,8.617,8.617,0,0,1,.988-8.389,10.291,10.291,0,0,1,5.21-3.952,12.243,12.243,0,0,1,10.867,1.04,9.451,9.451,0,0,1,4.139,4.894,8.616,8.616,0,0,1-1.295,8.572,10.866,10.866,0,0,1-6.1,3.982,12.548,12.548,0,0,1-5.189.27.453.453,0,0,0-.28.057q-2.3,1.393-4.6,2.8C831.883-104.711,831.83-104.683,831.752-104.64Zm1.345-2.492c.069-.039.118-.063.164-.091,1-.6,2-1.207,3-1.8a.433.433,0,0,1,.279-.05,11.239,11.239,0,0,0,4.908-.1,9.748,9.748,0,0,0,5.454-3.4,7.425,7.425,0,0,0,.759-8.291,8.832,8.832,0,0,0-4.035-3.759,10.983,10.983,0,0,0-7.82-.713,9.392,9.392,0,0,0-5.1,3.235,7.279,7.279,0,0,0-1.229,7.525,8.351,8.351,0,0,0,3.506,4.1.285.285,0,0,1,.154.282c-.018.954-.027,1.908-.039,2.862C833.1-107.278,833.1-107.218,833.1-107.132Z" transform="translate(-827.528 127.161)" fill="#03a9f5" stroke="#03a9f5" stroke-width="0.2"/>
        <path id="Path_45" data-name="Path 45" d="M1161.225,132.054c.641-.017,1.274-.036,1.906-.048a.338.338,0,0,1,.182.063,6.88,6.88,0,0,0,5.186,1.175,8.133,8.133,0,0,0,.813-.131.327.327,0,0,1,.278.063q1.058.748,2.122,1.488c.054.038.11.073.2.134v-.211c0-.763,0-1.526,0-2.289a.273.273,0,0,1,.147-.268,7.036,7.036,0,0,0,3.223-4.253,6.536,6.536,0,0,0-1.213-5.8.493.493,0,0,1-.085-.287c.012-.593.037-1.187.058-1.78,0-.026,0-.051.008-.1.051.04.086.063.117.092a8.205,8.205,0,0,1,2.715,5.175,7.931,7.931,0,0,1-1.662,5.9,8.519,8.519,0,0,1-1.737,1.7.3.3,0,0,0-.14.277c0,1.313,0,2.626,0,3.939v.169c-.07-.042-.12-.069-.168-.1q-1.85-1.2-3.7-2.4a.435.435,0,0,0-.328-.076,9.824,9.824,0,0,1-6.033-.935,5.849,5.849,0,0,1-1.788-1.388C1161.291,132.13,1161.256,132.088,1161.225,132.054Z" transform="translate(-1149.989 -111.494)" fill="#03a9f5" stroke="#03a9f5" stroke-width="0.2"/>
        <path id="Path_46" data-name="Path 46" d="M1000.264,104.521q-2.423,0-4.846,0a.7.7,0,1,1-.085-1.407c.045,0,.09,0,.135,0q4.8,0,9.608,0a.762.762,0,0,1,.621.238.7.7,0,0,1-.436,1.164,1.684,1.684,0,0,1-.235.008Z" transform="translate(-989.032 -95.357)" fill="#03a9f5" stroke="#03a9f5" stroke-width="0.2"/>
        <path id="Path_47" data-name="Path 47" d="M1040.393,229.917q-1.733,0-3.466,0a.686.686,0,0,1-.719-.557.7.7,0,0,1,.55-.829,1.136,1.136,0,0,1,.2-.015q3.441,0,6.882,0a.7.7,0,0,1,.706.417.692.692,0,0,1-.638.984c-.886.008-1.772,0-2.658,0Z" transform="translate(-1029.166 -216.537)" fill="#03a9f5" stroke="#03a9f5" stroke-width="0.2"/>
      </g>
    </g>
    <g id="Group_2688" data-name="Group 2688" transform="translate(-592.39 -3429.61)">
      <g id="Group_244" data-name="Group 244" transform="translate(927.939 189.765)">
        <path id="Path_48" data-name="Path 48" d="M970.578,212.773v-1.16h1.642v1.16a2.362,2.362,0,0,1,2.153,2.559v.329h-1.9v-.434c0-.748-.365-1.033-1-1.033s-1,.284-1,1.033.365,1.272,1.715,2.155c1.642,1.078,2.207,1.9,2.207,3.1a2.39,2.39,0,0,1-2.171,2.574V224.2h-1.642v-1.145a2.377,2.377,0,0,1-2.171-2.574v-.719h1.9v.823c0,.748.4,1.018,1.04,1.018s1.04-.269,1.04-1.018-.365-1.287-1.715-2.155c-1.642-1.063-2.207-1.9-2.207-3.1A2.364,2.364,0,0,1,970.578,212.773Z" transform="translate(-968.407 -211.613)"/>
      </g>
      <path id="Path_49" data-name="Path 49" d="M950.88,191.027l-1.153,2.8-1.153,2.807-2.089-2.2-2.087-2.2,2.312-.431a9.541,9.541,0,0,0-17.33.542H927.34a11.449,11.449,0,0,1,21.308-.9Z" transform="translate(-7.241 0)"/>
      <path id="Path_50" data-name="Path 50" d="M941.762,247.175a11.448,11.448,0,0,1-21.165,1.218l-2.207.512,1.031-2.852,1.031-2.852,2.182,2.108,2.18,2.108-2.3.535a9.54,9.54,0,0,0,17.209-.775Z" transform="translate(0 -47.404)"/>
    </g>
  </g>
</svg>
