<svg xmlns="http://www.w3.org/2000/svg" xmlns:xlink="http://www.w3.org/1999/xlink" width="420" height="366.472" viewBox="0 0 420 366.472">
  <defs>
    <filter id="Rectangle_1223" x="0" y="75.472" width="420" height="291" filterUnits="userSpaceOnUse">
      <feOffset dx="18" dy="24" input="SourceAlpha"/>
      <feGaussianBlur stdDeviation="30" result="blur"/>
      <feFlood flood-color="#1a3253" flood-opacity="0.071"/>
      <feComposite operator="in" in2="blur"/>
      <feComposite in="SourceGraphic"/>
    </filter>
  </defs>
  <g id="Group_7364" data-name="Group 7364" transform="translate(9 -91.528)">
    <g id="Group_7362" data-name="Group 7362" transform="translate(-2 -140)">
      <rect id="Rectangle_1222" data-name="Rectangle 1222" width="240" height="111" rx="22" transform="translate(114 309)" fill="rgba(26,50,83,0.05)"/>
      <rect id="Rectangle_1226" data-name="Rectangle 1226" width="180" height="10" rx="5" transform="translate(137 338)" fill="#d5d5d5"/>
    </g>
    <g id="Group_7363" data-name="Group 7363" transform="translate(-2 -140)">
      <g transform="matrix(1, 0, 0, 1, -7, 231.53)" filter="url(#Rectangle_1223)">
        <rect id="Rectangle_1223-2" data-name="Rectangle 1223" width="240" height="111" rx="22" transform="translate(72 141.47)" fill="#fff"/>
      </g>
      <rect id="Rectangle_1224" data-name="Rectangle 1224" width="180" height="10" rx="5" transform="translate(95 424)" fill="#e9e9e9"/>
      <rect id="Rectangle_1225" data-name="Rectangle 1225" width="137" height="10" rx="5" transform="translate(97 441)" fill="#f6f6f6"/>
      <path id="Path_391" data-name="Path 391" d="M441.852,358.914a6.169,6.169,0,0,1-1.253,2.009,7.433,7.433,0,0,1-1.9,1.456,8.417,8.417,0,0,1-2.378.848l.037,5.678h-4.092l-1.549.037v-7.005a1.935,1.935,0,0,1,.424-1.327,3.161,3.161,0,0,1,1.069-.774,9.192,9.192,0,0,1,1.383-.5,8,8,0,0,0,1.383-.516,3.244,3.244,0,0,0,1.069-.811,2.068,2.068,0,0,0,.424-1.383,2.223,2.223,0,0,0-.9-1.936,3.5,3.5,0,0,0-2.083-.645,4.84,4.84,0,0,0-2.323.553,5.481,5.481,0,0,0-1.77,1.512l-.037.037a6.494,6.494,0,0,1-.774.848,1.638,1.638,0,0,1-1.143.369,2.016,2.016,0,0,1-1.678-.774,2.787,2.787,0,0,1-.608-1.77,3.62,3.62,0,0,1,.461-1.788,6.7,6.7,0,0,1,1.124-1.493,7.408,7.408,0,0,1,1.475-1.143,9.946,9.946,0,0,1,1.677-.793,11.118,11.118,0,0,1,1.77-.479,9.5,9.5,0,0,1,1.715-.166,11.9,11.9,0,0,1,3.3.461,8.742,8.742,0,0,1,2.857,1.4,7.174,7.174,0,0,1,2.009,2.323,6.705,6.705,0,0,1,.756,3.263A6.886,6.886,0,0,1,441.852,358.914Zm-8.369,11.43a3.168,3.168,0,0,1,2.3.922,3.248,3.248,0,0,1,0,4.572,3.123,3.123,0,0,1-2.267.922,3.186,3.186,0,0,1-2.286-.922,3,3,0,0,1-.959-2.249,3.21,3.21,0,0,1,3.208-3.208Z" transform="translate(-347.295 -35.759)" fill="#6f8ba5"/>
      <path id="Path_8816" data-name="Path 8816" d="M453.179,365.665a10.354,10.354,0,0,1-2.1,3.372,12.472,12.472,0,0,1-3.187,2.444A14.127,14.127,0,0,1,443.9,372.9l.062,9.529h-6.868l-2.6.062V370.739a3.248,3.248,0,0,1,.711-2.228,5.3,5.3,0,0,1,1.794-1.3,15.41,15.41,0,0,1,2.32-.835,13.435,13.435,0,0,0,2.32-.866,5.444,5.444,0,0,0,1.794-1.361,3.47,3.47,0,0,0,.712-2.32,3.731,3.731,0,0,0-1.516-3.248,5.865,5.865,0,0,0-3.5-1.083,8.122,8.122,0,0,0-3.9.928,9.2,9.2,0,0,0-2.97,2.537l-.062.062a10.9,10.9,0,0,1-1.3,1.423,2.748,2.748,0,0,1-1.918.619,3.383,3.383,0,0,1-2.816-1.3,4.678,4.678,0,0,1-1.021-2.97,6.075,6.075,0,0,1,.774-3,11.246,11.246,0,0,1,1.887-2.506,12.43,12.43,0,0,1,2.476-1.918,16.694,16.694,0,0,1,2.815-1.33,18.661,18.661,0,0,1,2.97-.8,15.955,15.955,0,0,1,2.878-.278,19.965,19.965,0,0,1,5.538.773,14.672,14.672,0,0,1,4.8,2.351,12.04,12.04,0,0,1,3.372,3.9,11.252,11.252,0,0,1,1.269,5.476A11.556,11.556,0,0,1,453.179,365.665Zm-14.045,19.181A5.317,5.317,0,0,1,443,386.393a5.451,5.451,0,0,1,0,7.672,5.241,5.241,0,0,1-3.805,1.547,5.346,5.346,0,0,1-3.836-1.547,5.033,5.033,0,0,1-1.609-3.774,5.387,5.387,0,0,1,5.383-5.383Z" transform="translate(-252.535 -117.431)" fill="#6f8ba5"/>
      <path id="Path_8815" data-name="Path 8815" d="M434.669,354.632a3.517,3.517,0,0,1-.714,1.145,4.237,4.237,0,0,1-1.082.83,4.8,4.8,0,0,1-1.355.483l.021,3.236h-2.332l-.883.021v-3.992a1.1,1.1,0,0,1,.242-.757,1.8,1.8,0,0,1,.609-.441,5.238,5.238,0,0,1,.788-.284,4.56,4.56,0,0,0,.788-.294,1.848,1.848,0,0,0,.609-.462,1.178,1.178,0,0,0,.242-.788,1.267,1.267,0,0,0-.515-1.1,1.992,1.992,0,0,0-1.187-.368,2.758,2.758,0,0,0-1.324.315,3.123,3.123,0,0,0-1.009.862l-.021.021a3.7,3.7,0,0,1-.441.483.933.933,0,0,1-.651.21,1.149,1.149,0,0,1-.956-.441,1.588,1.588,0,0,1-.347-1.008,2.063,2.063,0,0,1,.263-1.019,3.82,3.82,0,0,1,.641-.851,4.222,4.222,0,0,1,.841-.651,5.666,5.666,0,0,1,.956-.452,6.335,6.335,0,0,1,1.009-.273,5.415,5.415,0,0,1,.977-.094,6.78,6.78,0,0,1,1.881.263,4.982,4.982,0,0,1,1.628.8,4.088,4.088,0,0,1,1.145,1.324,3.821,3.821,0,0,1,.431,1.86A3.925,3.925,0,0,1,434.669,354.632Zm-4.77,6.514a1.805,1.805,0,0,1,1.313.525,1.851,1.851,0,0,1,0,2.606,1.78,1.78,0,0,1-1.292.525,1.815,1.815,0,0,1-1.3-.525,1.709,1.709,0,0,1-.546-1.282,1.829,1.829,0,0,1,1.828-1.828Z" transform="translate(-102.503 -52.78)" fill="#6f8ba5"/>
      <path id="Path_8817" data-name="Path 8817" d="M442.667,359.4a6.471,6.471,0,0,1-1.315,2.108,7.8,7.8,0,0,1-1.992,1.527,8.826,8.826,0,0,1-2.494.889l.039,5.955h-4.292l-1.624.039v-7.347a2.03,2.03,0,0,1,.445-1.392,3.315,3.315,0,0,1,1.121-.812,9.642,9.642,0,0,1,1.45-.522,8.394,8.394,0,0,0,1.45-.541,3.4,3.4,0,0,0,1.121-.851,2.169,2.169,0,0,0,.445-1.45,2.332,2.332,0,0,0-.948-2.03,3.665,3.665,0,0,0-2.185-.677,5.076,5.076,0,0,0-2.436.58,5.747,5.747,0,0,0-1.856,1.586l-.039.039a6.81,6.81,0,0,1-.812.889,1.718,1.718,0,0,1-1.2.387,2.114,2.114,0,0,1-1.76-.812,2.923,2.923,0,0,1-.638-1.856,3.8,3.8,0,0,1,.484-1.875,7.031,7.031,0,0,1,1.179-1.566,7.767,7.767,0,0,1,1.547-1.2,10.425,10.425,0,0,1,1.759-.831,11.658,11.658,0,0,1,1.856-.5,9.965,9.965,0,0,1,1.8-.174,12.478,12.478,0,0,1,3.461.483,9.17,9.17,0,0,1,3,1.469,7.524,7.524,0,0,1,2.107,2.436,7.032,7.032,0,0,1,.793,3.422A7.223,7.223,0,0,1,442.667,359.4Zm-8.778,11.987a3.323,3.323,0,0,1,2.417.967,3.407,3.407,0,0,1,0,4.8,3.275,3.275,0,0,1-2.378.967,3.341,3.341,0,0,1-2.4-.967,3.146,3.146,0,0,1-1.005-2.359,3.367,3.367,0,0,1,3.364-3.364Z" transform="translate(-110.713 61.385)" fill="#6f8ba5"/>
    </g>
  </g>
</svg>
