<svg xmlns="http://www.w3.org/2000/svg" width="24.446" height="26.017" viewBox="0 0 24.446 26.017">
  <g id="Group_344" data-name="Group 344" transform="translate(0 0)">
    <g id="Group_343" data-name="Group 343" transform="translate(0 0)">
      <g id="Group_342" data-name="Group 342" transform="translate(0 0)">
        <g id="Group_341" data-name="Group 341">
          <path id="Path_93" data-name="Path 93" d="M595.4,91.822c0,2.465.025,4.93-.008,7.394a3.153,3.153,0,0,0,3.162,3.182c2.772.014,5.544,0,8.316.005,1.554,0,3.108.017,4.662-.006a3.13,3.13,0,0,0,2.623-1.39,2.807,2.807,0,0,0,.516-1.574c.005-.2,0-.4,0-.6.015-2.3.036-4.6.043-6.9.007-2.592,0-5.184,0-7.776a.987.987,0,0,0-1.194-1.026.96.96,0,0,0-.786.971c0,.85,0,1.7,0,2.551q0,5.332,0,10.664c0,.61.029,1.22.044,1.83,0,.112,0,.224-.006.336a1.052,1.052,0,0,1-1.152,1.111c-.983.008-1.967,0-2.95,0l-7.964-.024c-.662,0-1.325,0-1.987,0a2.715,2.715,0,0,1-.335-.019,1,1,0,0,1-.988-1.1c-.01-.759,0-1.518-.005-2.276q0-4.583,0-9.166,0-1.528,0-3.055c0-.285,0-.57-.008-.855a.988.988,0,0,0-1.975.007c-.008.743-.008,1.487-.008,2.23q0,2.742,0,5.485Z" transform="translate(-592.824 -76.393)" fill="#285078"/>
          <path id="Path_94" data-name="Path 94" d="M550.41-78.022v-.184c0-.514-.016-1.029,0-1.543a1.755,1.755,0,0,0-1.645-1.951,9.348,9.348,0,0,0-1.813-.085q-2.79,0-5.58,0a4.007,4.007,0,0,0-1.559.253,1.6,1.6,0,0,0-1.053,1.585c-.006.575,0,1.151-.005,1.726v.2h-.2q-2.583,0-5.167,0a.972.972,0,0,0-1,.718.981.981,0,0,0,.978,1.264c1.284,0,2.568,0,3.852,0h10.394q4.082,0,8.163,0a.964.964,0,0,0,1-.806.967.967,0,0,0-.6-1.1,1.31,1.31,0,0,0-.448-.072q-2.545-.007-5.09,0Zm-9.857,0c0-.408.013-.789,0-1.17a.821.821,0,0,1,.9-.9c2.032.026,4.065.025,6.1.035a2.427,2.427,0,0,1,.35.017.75.75,0,0,1,.678.786q0,.519.005,1.039c0,.2,0,.2-.2.2h-7.83Z" transform="translate(-532.358 81.789)" fill="#285078"/>
          <path id="Path_95" data-name="Path 95" d="M809.19,173.357q0-2.5,0-5.009a.943.943,0,1,0-1.886-.03c-.006.779,0,1.558,0,2.337q0,3.856,0,7.712a.952.952,0,0,0,.58.938.94.94,0,0,0,1.306-.893c.005-1.161,0-2.321,0-3.482q0-.786,0-1.573Z" transform="translate(-796.095 -157.204)" fill="#285078"/>
          <path id="Path_96" data-name="Path 96" d="M703.464,173.242q0,2.5,0,5.009a.941.941,0,0,0,1.876.146c.005-.061.008-.122.008-.183q0-4.978,0-9.957a.972.972,0,0,0-.343-.813.9.9,0,0,0-.989-.132.878.878,0,0,0-.55.83c-.01.763,0,1.527-.005,2.291q0,1.4,0,2.81Z" transform="translate(-696.487 -157.071)" fill="#285078"/>
          <path id="Path_97" data-name="Path 97" d="M913.139,173.361q0-2.5,0-4.994a.941.941,0,1,0-1.88-.078c-.01.6,0,1.2,0,1.8q0,4.146,0,8.292a.942.942,0,0,0,1.878.14c.006-.076.006-.153.006-.229Q913.139,175.827,913.139,173.361Z" transform="translate(-895.809 -157.207)" fill="#285078"/>
        </g>
      </g>
    </g>
  </g>
</svg>
