<svg xmlns="http://www.w3.org/2000/svg" width="25.361" height="25.361" viewBox="0 0 25.361 25.361">
  <g id="broken-link-icon" transform="translate(0.003 0.002)">
    <path id="Path_8814" data-name="Path 8814" d="M22.72,1.278l1.358,1.358a4.4,4.4,0,0,1,0,6.208l-3.6,3.6a4.406,4.406,0,0,1-5,.85l6.369-6.369a1.618,1.618,0,0,0,0-2.285L20.615,3.406a1.618,1.618,0,0,0-2.285,0L12,9.734a4.4,4.4,0,0,1,.914-4.856l3.6-3.6a4.4,4.4,0,0,1,6.206,0ZM16.5,24.1l1.317-.272-.85-4.105L15.647,20l.848,4.1ZM7.507.442,8.809.12,9.831,4.177l-1.3.33L7.507.442ZM21.228,21.832l.935-.964L19.155,17.95l-.935.966,3.007,2.916Zm3.046-4.34.347-1.3L20.575,15.11l-.349,1.3,4.047,1.084ZM.522,8.351.9,7.061,4.92,8.206,4.555,9.5.522,8.351ZM2.76,3.542l.951-.949,2.96,2.962-.947.951L2.76,3.542ZM1.278,22.72l1.358,1.358a4.4,4.4,0,0,0,6.208,0l3.6-3.6a4.406,4.406,0,0,0,.85-5L6.923,21.847a1.618,1.618,0,0,1-2.285,0L3.406,20.615a1.621,1.621,0,0,1,0-2.287L9.736,12a4.4,4.4,0,0,0-4.858.916l-3.6,3.6a4.4,4.4,0,0,0,0,6.206Z" transform="translate(0 0)" fill="#285078" fill-rule="evenodd"/>
  </g>
</svg>
