<svg xmlns="http://www.w3.org/2000/svg" width="22.476" height="22.268" viewBox="0 0 22.476 22.268">
  <g id="Group_2014" data-name="Group 2014" transform="translate(-359.009 -54.152)">
    <g id="Group_2013" data-name="Group 2013" transform="translate(210.009 107.152)">
      <g id="Group_2012" data-name="Group 2012" transform="translate(149 -53)">
        <g id="Group_2011" data-name="Group 2011" transform="translate(0 0)">
          <path id="Path_138" data-name="Path 138" d="M13.674,16.78a.392.392,0,0,1,.467.062l4.643,4.6a2.138,2.138,0,0,0,3.042.322l.141-.14a2.092,2.092,0,0,0-.325-3.014L16.99,14a.377.377,0,0,1-.053-.453A8.8,8.8,0,0,0,15.565,2.642a9.191,9.191,0,0,0-12.9,0A9.027,9.027,0,0,0,13.674,16.78ZM4.352,13.752a6.64,6.64,0,0,1,0-9.442,6.791,6.791,0,0,1,9.53,0,6.64,6.64,0,0,1,0,9.442A6.791,6.791,0,0,1,4.352,13.752Z" transform="translate(-0.001 0)" fill="#285078"/>
          <g id="Group_2010" data-name="Group 2010" transform="translate(5.811 3.616)">
            <path id="Path_139" data-name="Path 139" d="M87.07,54.718a4.082,4.082,0,0,0-5.318-2.128.949.949,0,0,1-1.238-.5.928.928,0,0,1,.5-1.222,5.983,5.983,0,0,1,7.795,3.119.928.928,0,0,1-.5,1.222.95.95,0,0,1-1.238-.5Z" transform="translate(-80.439 -50.409)" fill="#285078"/>
          </g>
        </g>
      </g>
    </g>
  </g>
</svg>
