<svg xmlns="http://www.w3.org/2000/svg" width="20.515" height="22.89" viewBox="0 0 20.515 22.89">
  <g id="Group_3541" data-name="Group 3541" transform="translate(-2.373)">
    <g id="Group_3224" data-name="Group 3224" transform="translate(0 0)">
      <g id="Group_3223" data-name="Group 3223" transform="translate(0)">
        <g id="Group_3220" data-name="Group 3220" transform="translate(9.825)">
          <g id="Group_3219" data-name="Group 3219">
            <path id="Path_467" data-name="Path 467" d="M200.026.081a.815.815,0,0,0-.865.1l-6.523,5.215a.818.818,0,0,0,1.022,1.279l5.194-4.154V12.557a.817.817,0,0,0,1.635,0V.818A.82.82,0,0,0,200.026.081Z" transform="translate(-192.331 0)" fill="#285078"/>
          </g>
        </g>
        <g id="Group_3222" data-name="Group 3222" transform="translate(0 0.001)">
          <g id="Group_3221" data-name="Group 3221">
            <path id="Path_468" data-name="Path 468" d="M22.669,21.51l-4.9-4.9,0,0L9.59,8.43l0,0L7.955,6.8l0,0L3.69,2.7a.818.818,0,0,0-1.156,0c-.319.319,0,1.156,0,1.156L5.4,6.555H4.924A1.617,1.617,0,0,0,3.289,8.19v6.54a1.617,1.617,0,0,0,1.635,1.635h3.8l7.951,6.362A.818.818,0,0,0,18,22.087V19.156l3.509,3.509a.817.817,0,1,0,1.158-1.154ZM8.193,14.73H4.924V8.19H7.038L8.193,9.346Zm8.175,5.655-6.54-5.232V10.981l6.54,6.54Z" transform="translate(-0.02 -0.015)" fill="#285078"/>
          </g>
        </g>
      </g>
    </g>
  </g>
</svg>
