<svg xmlns="http://www.w3.org/2000/svg" xmlns:xlink="http://www.w3.org/1999/xlink" width="28" height="26.5" viewBox="0 0 28 26.5">
  <defs>
    <clipPath id="clip-path">
      <path id="Icon" d="M7.938,22.486v-.622h5v.622a2.5,2.5,0,1,1-5,0Zm12.055-1.9c-.009,0-.015.005-.023.005H.977c-.011,0-.02-.005-.03-.005a.7.7,0,0,1-.18-.036A.968.968,0,0,1,0,19.613a.953.953,0,0,1,.14-.477c.2-.463.892-.842,1.7-1.8a9.268,9.268,0,0,0,1.814-5.624s0-2.453.014-3.27A6.693,6.693,0,0,1,8.407,2.083h.039a5.683,5.683,0,0,1,.579-.167V1.49a1.481,1.481,0,1,1,2.962,0V1.93c.177.045.348.1.515.153h.049a6.693,6.693,0,0,1,4.734,6.357c.017.816.014,3.27.014,3.27a9.279,9.279,0,0,0,1.813,5.624c.659.777,1.232,1.172,1.537,1.54a.973.973,0,0,1-.625,1.722C20.012,20.595,20,20.589,19.993,20.589Z" transform="translate(3.5 1.5)" fill="#0073a8"/>
    </clipPath>
  </defs>
  <g id="Group_115" data-name="Group 115" transform="translate(-358 -47)">
    <g id="Group_112" data-name="Group 112">
      <g id="Glyphs_Tab_Bar_Activity" data-name="Glyphs/Tab Bar/Activity" transform="translate(365 48.5)">
        <g id="Group_108" data-name="Group 108" transform="translate(-3.5 -1.5)">
          <path id="Icon-2" data-name="Icon" d="M7.938,22.486v-.622h5v.622a2.5,2.5,0,1,1-5,0Zm12.055-1.9c-.009,0-.015.005-.023.005H.977c-.011,0-.02-.005-.03-.005a.7.7,0,0,1-.18-.036A.968.968,0,0,1,0,19.613a.953.953,0,0,1,.14-.477c.2-.463.892-.842,1.7-1.8a9.268,9.268,0,0,0,1.814-5.624s0-2.453.014-3.27A6.693,6.693,0,0,1,8.407,2.083h.039a5.683,5.683,0,0,1,.579-.167V1.49a1.481,1.481,0,1,1,2.962,0V1.93c.177.045.348.1.515.153h.049a6.693,6.693,0,0,1,4.734,6.357c.017.816.014,3.27.014,3.27a9.279,9.279,0,0,0,1.813,5.624c.659.777,1.232,1.172,1.537,1.54a.973.973,0,0,1-.625,1.722C20.012,20.595,20,20.589,19.993,20.589Z" transform="translate(3.5 1.5)" fill="#285078"/>
        </g>
      </g>
      <g id="Group_109" data-name="Group 109" transform="translate(28.328 -84.672)">
        <g id="Notification" transform="translate(330 132)">
          <circle id="Oval" cx="9" cy="9" r="9" transform="translate(-0.328 -0.328)" fill="#ff453a"/>
          <text id="_2" data-name="2" transform="translate(8.698 12.168)" fill="#fff" font-size="11" font-family="SegoeUI, Segoe UI" letter-spacing="-0.016em"><tspan x="-2.965" y="0">2</tspan></text>
        </g>
      </g>
    </g>
  </g>
</svg>
