<svg xmlns="http://www.w3.org/2000/svg" width="107.321" height="94.326" viewBox="0 0 107.321 94.326">
  <g id="Group_2507" data-name="Group 2507" transform="translate(-157.539 -194.622)">
    <g id="Group_2506" data-name="Group 2506" transform="translate(157.539 194.622)">
      <g id="Group_2505" data-name="Group 2505">
        <g id="Group_2504" data-name="Group 2504">
          <path id="Path_303" data-name="Path 303" d="M107.321,78.163V93a33.471,33.471,0,0,1-24.208,32.178,3.162,3.162,0,0,1-1.891,0,33.462,33.462,0,0,1-24.2-31.3H3.144A3.145,3.145,0,0,1,0,90.739v-56.6A3.156,3.156,0,0,1,3.144,31H91.6a3.157,3.157,0,0,1,3.144,3.144V72.2l10.3,2.943A3.143,3.143,0,0,1,107.321,78.163Z" transform="translate(0 -31)" fill="#f0f5f7"/>
        </g>
      </g>
    </g>
    <path id="Path_304" data-name="Path 304" d="M-3345.126-1857.827l-8.434-3.435-18.469,6.516s-10.965,3.178-10.806,7.151,0,16.686,0,16.686l8.581-2.384.636-10.171,20.059-3.337h9.817v-5.4Z" transform="translate(3592.06 2084.481)" fill="#dce4ea"/>
    <path id="Path_305" data-name="Path 305" d="M-3353.241-1860.833v47.148l8.555-4.943,7.415-7.51,3.422-11.027-1.331-10.551,1.331-6.274-5.418-2.947Z" transform="translate(3594.738 2098.451)" fill="#dce4ea"/>
    <g id="Group_2502" data-name="Group 2502" transform="translate(157.539 194.622)">
      <g id="Group_2501" data-name="Group 2501">
        <path id="Path_302" data-name="Path 302" d="M105.041,75.14,94.745,72.2V34.144A3.158,3.158,0,0,0,91.6,31H3.144A3.156,3.156,0,0,0,0,34.144v56.6a3.144,3.144,0,0,0,3.144,3.144H57.027a33.458,33.458,0,0,0,24.2,31.3,3.151,3.151,0,0,0,1.892,0A33.47,33.47,0,0,0,107.321,93V78.163A3.144,3.144,0,0,0,105.041,75.14ZM81.789,37.288,47.573,61.728,13.032,37.288Zm-2.765,80.369A27.34,27.34,0,0,1,63.3,93V80.534l15.721-4.492Zm4.008-48.806a3.189,3.189,0,0,0-1.727,0L59.3,75.14a3.144,3.144,0,0,0-2.281,3.023V87.6H6.288V40.22L45.766,68.153a3.144,3.144,0,0,0,3.644-.008L88.456,40.254V70.4Zm18,24.152a27.34,27.34,0,0,1-15.721,24.654V76.043l15.721,4.492Z" transform="translate(0 -31)" fill="#6f8ba5"/>
      </g>
    </g>
  </g>
</svg>
