<svg xmlns="http://www.w3.org/2000/svg" width="45.172" height="26.825" viewBox="0 0 45.172 26.825">
  <g id="Group_3957" data-name="Group 3957" transform="translate(-3542 -3486.576)" opacity="0.5">
    <g id="Group_289" data-name="Group 289" transform="translate(3542 3486.93)">
      <path id="Path_376" data-name="Path 376" d="M244.855,247.786a6.444,6.444,0,0,0-2.23.752,3.736,3.736,0,0,0-.593.46l-.017.017c-.111.125-.206.24-.293.351l-.021.027-.008.01-.025.032-.006.008-.026.033-.005.006-.007.01-.018.025,0,.005-.023.034,0,.008-.021.031-.007.011-.019.027-.01.015-.016.024-.014.021-.012.017-.007.01-.019.028-.013.019-.015.022-.017.024-.009.014-.019.028-.007.01-.022.032-.006.008-.023.034,0,.007-.021.034h0l0,.006-.021.037,0,.007-.018.032-.007.011-.016.029-.008.015-.015.026-.011.019-.012.021-.023.04-.011.019-.011.02-.014.024-.008.015-.017.029-.007.012-.018.031,0,.009-.02.034,0,.007-.013.023-.008.014v0L241,250.5l0,.008-.016.034,0,.01-.015.031-.006.014-.013.027-.01.021-.009.019-.014.03-.006.012-.009.02-.01.021-.011.023-.008.017-.013.027-.006.011a7.084,7.084,0,0,0-.3.959h1.6l0-.01.006-.015,0,0,.017-.044.005-.015.013-.034,0-.011c0-.013.009-.025.014-.038l0-.005c0-.014.01-.028.016-.041l.015-.035,0-.012c.006-.014.012-.027.019-.04l0-.008.016-.034,0-.01.015-.032.007-.014.016-.035.005-.012.008-.016.014-.03.006-.014.016-.034,0-.009.017-.036.005-.011.018-.036c.007-.014.015-.028.024-.042l0-.006.019-.033.005-.009.019-.033.008-.013.018-.031.008-.013.006-.011.019-.034.008-.014.018-.031.006-.011.02-.035,0,0c.007-.014.015-.027.024-.041l.02-.031.008-.013.026-.037.005-.008.022-.032.008-.011.021-.031.009-.013.03-.043.011-.016.019-.028.008-.012.022-.032.005-.008.025-.035.006-.009.025-.035c.01-.013.02-.026.031-.038l.005-.006.026-.031.007-.008.025-.031.009-.012.025-.031.01-.012,0,0,.033-.04.01-.012.024-.03.008-.01.026-.032.005-.006.03-.036.028-.032.009-.01.032-.034.007-.007.029-.03.009-.01.028-.029.013-.013.031-.032.007-.007.012-.013.027-.028.011-.011.028-.029.008-.008.032-.033,0,0,.035-.036.037-.033.008-.007a7.366,7.366,0,0,1,2.865-1.6l.042-.014a17.634,17.634,0,0,1,3.483-.58l.165-.016h.012l1.51-.095h.007l2.465-.107,0,0a22.6,22.6,0,0,0,5.826-.832,7.054,7.054,0,0,0,3.672-2.432l-.007-.008.024-.034,0-.006.026-.037.005-.008.011-.016c.021-.028.04-.058.06-.088l.04-.06.006-.009.015-.023.014-.021.013-.019.018-.027,0-.007.033-.048.025-.037,0,0,.014-.021.017-.025,0,0,0,0,.018-.026,0-.005.011-.018.009-.014h0l.014-.026,0-.009c.008-.016.017-.032.025-.047v0h0l0-.006.018-.033.006-.012c.014-.024.027-.049.04-.075l.032-.06.005-.01,0-.007.023-.043.008-.016.029-.055,0,0,0-.006.016-.03.006-.012.009-.018.007-.014,0-.009.02-.037,0-.006.02-.038,0-.007h0l.02-.037h0l0-.006.011-.026v0l.007-.017h-2.066a5.19,5.19,0,0,1-.688,1.061,6.441,6.441,0,0,1-1.6,1.37c-.2.121-.412.239-.637.35a11.947,11.947,0,0,1-2.65.9,40.786,40.786,0,0,1-6.4.78,46.763,46.763,0,0,0-5.45.587" transform="translate(-238.333 -233.493)" fill="#1995d3"/>
      <rect id="Rectangle_1211" data-name="Rectangle 1211" width="0.87" height="3.072" transform="translate(18.631 17.584)" fill="#231f20"/>
      <path id="Path_377" data-name="Path 377" d="M352.384,290.789a.477.477,0,0,1,.155-.377.532.532,0,0,1,.364-.137h0a.532.532,0,0,0-.365.137.535.535,0,0,0,0,.753.532.532,0,0,0,.365.137h0a.531.531,0,0,1-.364-.137.476.476,0,0,1-.155-.377" transform="translate(-333.839 -274.093)" fill="#231f20"/>
      <path id="Path_378" data-name="Path 378" d="M382.127,299.789a.979.979,0,0,0-.412-.289,1.794,1.794,0,0,0-.651-.1,4.713,4.713,0,0,0-.736.055,4.836,4.836,0,0,0-.572.12v2.967h.87v-2.372q.082-.012.187-.02c.07-.006.136-.009.2-.009a.454.454,0,0,1,.415.175,1.174,1.174,0,0,1,.111.6v1.63h.871v-1.735a2.348,2.348,0,0,0-.065-.572,1.13,1.13,0,0,0-.216-.444" transform="translate(-357.217 -281.884)" fill="#231f20"/>
      <rect id="Rectangle_1212" data-name="Rectangle 1212" width="0.87" height="3.072" transform="translate(28.199 17.584)" fill="#231f20"/>
      <path id="Path_379" data-name="Path 379" d="M418.819,292.9a.554.554,0,0,1-.73,0,.477.477,0,0,1-.155-.377.565.565,0,0,1,.036-.207.56.56,0,0,0-.04.215.478.478,0,0,0,.155.377.554.554,0,0,0,.73,0,.441.441,0,0,0,.118-.17.442.442,0,0,1-.115.161" transform="translate(-389.82 -275.839)" fill="#231f20"/>
      <path id="Path_380" data-name="Path 380" d="M446.749,296.962a1.658,1.658,0,0,1-.289.026.414.414,0,0,1-.389-.163.864.864,0,0,1-.1-.438v-1.081h1.046v-.724h-1.046v-.905l-.87.14V296.4a2.449,2.449,0,0,0,.055.543,1,1,0,0,0,.2.418.928.928,0,0,0,.374.269,1.56,1.56,0,0,0,.59.1,2.044,2.044,0,0,0,.473-.047,2.515,2.515,0,0,0,.35-.111l-.123-.678a1.529,1.529,0,0,1-.272.073" transform="translate(-413.028 -276.998)" fill="#231f20"/>
      <path id="Path_381" data-name="Path 381" d="M477.949,299.318a1.47,1.47,0,0,0-.546.105,1.369,1.369,0,0,0-.47.309,1.533,1.533,0,0,0-.33.511,1.879,1.879,0,0,0-.126.716,2.006,2.006,0,0,0,.1.631,1.336,1.336,0,0,0,.3.505,1.4,1.4,0,0,0,.508.336,1.932,1.932,0,0,0,.721.123,3.066,3.066,0,0,0,.327-.018q.163-.018.307-.044a2.512,2.512,0,0,0,.26-.062,1.19,1.19,0,0,0,.187-.07l-.117-.707a1.751,1.751,0,0,1-.377.108,2.5,2.5,0,0,1-.47.044,1.01,1.01,0,0,1-.6-.158.578.578,0,0,1-.251-.426h1.974c0-.047.008-.1.012-.161s.006-.116.006-.166a1.649,1.649,0,0,0-.38-1.177,1.356,1.356,0,0,0-1.033-.4m-.578,1.308a1.267,1.267,0,0,1,.056-.219.6.6,0,0,1,.108-.19.521.521,0,0,1,.175-.132.585.585,0,0,1,.251-.05.552.552,0,0,1,.254.053.53.53,0,0,1,.169.134.539.539,0,0,1,.1.187.916.916,0,0,1,.038.216Z" transform="translate(-439.821 -281.816)" fill="#231f20"/>
      <path id="Path_382" data-name="Path 382" d="M517.56,299.718a1.358,1.358,0,0,0-1.034-.4,1.472,1.472,0,0,0-.546.105,1.37,1.37,0,0,0-.47.309,1.531,1.531,0,0,0-.33.511,1.88,1.88,0,0,0-.125.716,2.011,2.011,0,0,0,.1.631,1.338,1.338,0,0,0,.3.505,1.4,1.4,0,0,0,.508.336,1.934,1.934,0,0,0,.721.123,3.069,3.069,0,0,0,.327-.018q.163-.018.307-.044a2.492,2.492,0,0,0,.26-.062,1.194,1.194,0,0,0,.187-.07l-.117-.707a1.748,1.748,0,0,1-.377.108,2.5,2.5,0,0,1-.47.044,1.01,1.01,0,0,1-.6-.158.578.578,0,0,1-.251-.426h1.974c0-.047.008-.1.011-.161s.006-.116.006-.166a1.649,1.649,0,0,0-.379-1.177m-1.612.908a1.272,1.272,0,0,1,.056-.219.6.6,0,0,1,.108-.19.521.521,0,0,1,.175-.132.585.585,0,0,1,.251-.05.552.552,0,0,1,.254.053.532.532,0,0,1,.17.134.547.547,0,0,1,.1.187.923.923,0,0,1,.038.216Z" transform="translate(-472.767 -281.816)" fill="#231f20"/>
      <path id="Path_383" data-name="Path 383" d="M418.837,290.355a.554.554,0,0,0-.73,0,.439.439,0,0,0-.118.17.564.564,0,0,0-.036.207.477.477,0,0,0,.155.377.554.554,0,0,0,.73,0,.44.44,0,0,0,.115-.161.555.555,0,0,0,.04-.215.478.478,0,0,0-.155-.377" transform="translate(-389.838 -274.044)" fill="#1995d3"/>
      <path id="Path_384" data-name="Path 384" d="M353.278,290.412a.533.533,0,0,0-.365-.137h0a.532.532,0,0,0-.364.137.535.535,0,0,0,0,.753.531.531,0,0,0,.364.137h0a.533.533,0,0,0,.365-.137.536.536,0,0,0,0-.753" transform="translate(-333.848 -274.093)" fill="#1995d3"/>
      <path id="Path_385" data-name="Path 385" d="M365.167,196.948a3.719,3.719,0,0,0-1.789-1.385c-.078-.028-.16-.054-.243-.077s-.169-.044-.258-.063a4.268,4.268,0,0,0-.867-.086,5.058,5.058,0,0,0-.654.044q-.111.015-.225.034a3.681,3.681,0,0,1,2.333,1.532,4.459,4.459,0,0,1,.639,1.352h1.7q-.051-.181-.117-.357a4.342,4.342,0,0,0-.521-.995" transform="translate(-341.312 -193.012)" fill="#231f20"/>
      <path id="Path_386" data-name="Path 386" d="M228.117,331.82h-1.7a5.868,5.868,0,0,0,5.637,4.224,6.876,6.876,0,0,0,.875-.057,5.887,5.887,0,0,1-4.811-4.167" transform="translate(-226.259 -309.574)" fill="#231f20"/>
      <path id="Path_387" data-name="Path 387" d="M332.646,243.067h.006v0c.23-.01.453-.021.671-.033l.222-.013.258-.017q.322-.022.627-.048l.245-.021c.269-.025.531-.052.78-.083h0c.1-.013.2-.029.3-.043s.2-.028.3-.043.186-.028.276-.043.153-.029.229-.043l.229-.043c.073-.014.15-.028.221-.043s.117-.029.177-.043c.121-.028.241-.056.356-.086l.161-.043c.048-.014.092-.029.139-.043l.013,0c.08-.024.16-.048.237-.073l.028-.009c.045-.015.093-.028.137-.043s.058-.024.089-.034l.022-.008.11-.043.1-.037.034-.013.09-.035c.035-.015.073-.028.107-.043l.012-.006c.077-.034.15-.07.223-.107l.139-.071.063-.031.078-.043c.043-.024.081-.051.122-.076l.017-.01.07-.043.069-.043c.023-.015.047-.028.07-.043s.045-.028.067-.043.031-.024.047-.036l.009-.007c.019-.014.037-.029.056-.043l.046-.035.01-.007.017-.013.031-.025a4.726,4.726,0,0,0,.737-1.2h-1.4l-.019.029,0,0,0,.006c-.012.019-.025.037-.036.056l-.016.025-.014.021-.032.049-.01.016-.021.033-.007.01,0,0-.025.038-.021.032-.008.011h0c-.01.014-.018.029-.028.042s-.017.02-.025.031l-.01.013c-.011.015-.024.028-.035.043l-.024.029q-.056.071-.115.14l0,0c-.012.014-.023.029-.035.043s-.022.029-.035.042h0l-.04.043h0l-.026.025-.04.039-.022.022-.019.019-.054.053-.015.015-.034.033-.01.01-.04.039-.031.03-.018.017h0c-.017.014-.035.028-.052.042l-.026.02-.031.024-.042.032-.052.04-.017.013-.01.007-.046.035-.056.043-.009.007c-.015.012-.03.025-.046.036s-.045.028-.067.043-.047.028-.07.043l-.069.043-.07.043-.017.01c-.041.025-.08.052-.122.076l-.078.043-.063.031c-.117.061-.235.122-.361.178l-.012.006c-.034.015-.072.028-.107.043l-.09.035-.034.013-.1.037-.11.043-.021.008c-.031.011-.057.024-.088.034s-.092.028-.136.043l-.028.009c-.077.025-.156.049-.236.073l-.013,0c-.047.014-.091.029-.139.043l-.161.043c-.114.03-.234.058-.355.086-.06.014-.115.03-.177.043s-.147.028-.22.043l-.229.043c-.077.014-.15.03-.229.043s-.183.029-.275.043-.2.029-.3.043-.2.03-.3.043h0c-.249.031-.51.058-.778.083l-.244.021-.088.007v0Z" transform="translate(-316.984 -231.293)" fill="#231f20"/>
      <path id="Path_388" data-name="Path 388" d="M227.064,197.988l.009-.047c0-.015.006-.031.01-.047s.006-.031.009-.047.006-.031.01-.047.008-.031.012-.046.009-.03.013-.046.009-.03.013-.046.009-.03.013-.046.009-.03.013-.046l.013-.046.013-.046.013-.046.013-.046c0-.015.009-.03.013-.046s.008-.03.013-.045.008-.031.013-.046.011-.03.016-.045.011-.03.016-.044.011-.029.017-.045.011-.029.016-.044l.016-.044.017-.044.016-.044.017-.045.016-.044c.006-.015.011-.03.017-.044s.011-.03.017-.044.01-.03.016-.044.014-.029.02-.044.014-.029.02-.043l.019-.04a5.421,5.421,0,0,1,1.239-1.925,8.054,8.054,0,0,1,1.5-1.317q.275-.187.574-.359t.624-.328a10.607,10.607,0,0,1,1.4-.55l.031-.011.142-.045.064-.019.154-.042c.114-.03.252-.064.416-.1l.266-.057.148-.03q.153-.03.327-.061a37.6,37.6,0,0,1,4.3-.463c-.009-.387-.015-.7-.009-.943,0-.175,0-.379.005-.607.008-2.667.028-8.914,5.71-10.148.259-.056.516-.1.771-.129a6.762,6.762,0,0,0-.838-.053,7.715,7.715,0,0,0-1.635.182c-5.682,1.234-5.7,7.48-5.71,10.148,0,.228,0,.431-.005.607-.006.244,0,.556.009.943a23.909,23.909,0,0,0-5.849.828,8.777,8.777,0,0,0-4.418,2.935l-.032.039-.032.039-.032.039-.029.04-.027.041-.027.041-.028.041-.027.041-.028.041-.028.041-.028.041-.028.041-.028.041-.028.041c-.009.014-.019.027-.028.041l-.026.041c-.008.014-.015.028-.024.042s-.015.028-.024.042l-.024.042-.024.042-.024.042-.024.042-.024.042-.024.042-.024.042-.024.042-.024.042L226,196.2c-.007.014-.013.029-.02.043s-.013.029-.02.043l-.02.043-.02.043-.02.043-.02.043-.02.043-.02.043-.02.043c-.006.015-.014.029-.02.043s-.014.029-.02.043-.014.029-.02.044-.01.03-.016.044-.011.03-.016.044-.011.03-.017.044l-.016.044-.016.045-.016.044-.016.045-.016.044c-.005.015-.011.029-.017.044s-.011.03-.017.045-.011.029-.016.044-.011.03-.016.045-.008.03-.013.046-.008.03-.013.045-.009.031-.013.046l-.013.046-.013.046-.013.046-.013.046c0,.015-.009.03-.013.046s-.009.03-.013.046-.009.03-.013.046-.009.03-.013.046-.008.03-.012.046-.006.031-.009.047-.006.031-.01.047-.006.031-.009.047l-.01.047-.009.047c0,.014-.006.028-.009.042h1.7l.009-.042c0-.016.006-.031.009-.047" transform="translate(-225.345 -179.41)" fill="#231f20"/>
      <path id="Path_389" data-name="Path 389" d="M259.007,188.278a4.736,4.736,0,0,1-.734,1.2,6.1,6.1,0,0,1-1.511,1.29c-.2.121-.4.231-.607.333a11.764,11.764,0,0,1-2.569.871c-.161.037-.324.073-.485.106.162-.033.324-.069.485-.106a11.761,11.761,0,0,0,2.568-.871c-1.463.141-2.854.174-3.828.175.979,0,2.361-.036,3.813-.175.208-.1.412-.213.611-.333a6.133,6.133,0,0,0,1.521-1.29l-.032.025-.017.013-.01.007-.046.036-.056.043-.009.007c-.016.012-.031.025-.047.036s-.045.028-.067.043-.047.028-.07.043l-.07.043-.07.043-.017.011c-.041.025-.08.052-.123.076l-.078.043-.063.031-.139.071c-.073.036-.146.072-.223.107l-.012.006c-.034.015-.072.028-.107.043l-.09.035-.034.013-.1.037c-.037.014-.072.029-.11.043l-.021.008c-.031.011-.058.024-.089.035s-.092.028-.137.043l-.028.009c-.077.025-.157.049-.237.073l-.013,0c-.047.014-.091.029-.139.043l-.161.043c-.115.03-.235.058-.356.086-.06.014-.115.03-.177.043s-.148.028-.221.043-.152.029-.229.043-.15.03-.23.043-.183.029-.276.043l-.3.043c-.1.014-.2.03-.3.043h0c-.25.031-.512.058-.781.083l-.245.021q-.305.026-.627.048l-.258.017-.222.013c-.218.012-.441.023-.671.033h-.006v-.1l.013-1.069,0-.179v-.089c.011-3.659.489-7.147,3.878-7.883.088-.019.176-.035.263-.05s.15-.024.225-.034a5.049,5.049,0,0,1,.654-.044,4.271,4.271,0,0,1,.867.086q.132.027.258.063t.243.077a3.719,3.719,0,0,1,1.789,1.385,4.369,4.369,0,0,1,.522.995q.065.176.117.357h2.387A6.851,6.851,0,0,0,261.055,182,6.027,6.027,0,0,0,256,179.41a7.383,7.383,0,0,0-.863.053c-.255.03-.513.072-.771.129-5.682,1.234-5.7,7.48-5.71,10.148,0,.228,0,.431-.005.607-.006.244,0,.556.009.943a37.56,37.56,0,0,0-4.3.463q-.174.031-.328.061l-.148.03-.266.057c-.164.037-.3.071-.416.1l-.154.042-.064.019-.142.045-.031.011a10.614,10.614,0,0,0-1.4.55q-.324.155-.624.328t-.574.359a8.049,8.049,0,0,0-1.5,1.317,5.421,5.421,0,0,0-1.239,1.925l-.019.04c-.006.014-.014.029-.02.043l-.02.044c-.006.015-.011.03-.016.044s-.011.03-.017.044-.011.03-.016.044l-.016.044-.017.044-.016.044-.016.045-.017.044c-.005.015-.011.029-.016.044s-.012.029-.017.044-.012.029-.016.044-.011.03-.016.045-.008.03-.013.046-.008.03-.013.045-.008.031-.013.046-.009.03-.013.046l-.013.046-.013.046-.013.046c0,.015-.009.03-.013.046s-.009.03-.013.046-.009.03-.013.046-.009.03-.013.046-.009.03-.012.046-.006.031-.01.047-.006.031-.009.047-.006.031-.01.047l-.009.047-.01.047-.009.042h.1c.01-.05.021-.1.032-.151-.011.05-.021.1-.032.151h2.289v0c0-.015.008-.03.013-.046s.008-.03.013-.046.011-.03.016-.045.011-.029.016-.044l.016-.044.016-.044.017-.044.016-.044c.006-.015.011-.03.017-.044s.01-.029.016-.044l.019-.044c.006-.014.014-.029.02-.043l.02-.043.02-.043.02-.043.02-.043.02-.043c.007-.014.013-.029.02-.043s.013-.029.021-.043.016-.028.024-.042l.024-.042.024-.042.024-.042.024-.042.024-.042.024-.042c.009-.014.015-.028.024-.042l.027-.041.028-.041.028-.041.028-.041.028-.041.028-.041.028-.041.028-.041.028-.041c.01-.013.022-.026.032-.039l.032-.039.032-.039.032-.039.032-.039.032-.039c.011-.013.021-.026.032-.039l.032-.039.035-.039c.011-.013.025-.025.036-.038l.036-.038.036-.038.036-.038.037-.038.036-.038.036-.038.036-.038.041-.036a6.971,6.971,0,0,1,2.725-1.517l.045-.015a17.331,17.331,0,0,1,3.4-.563l.028,0,.136-.013h0l1.509-.095h.032c0,.117-.006.23-.01.345-.007.23-.017.453-.029.674-.276,5.167-1.8,8.037-4.647,8.743a4.982,4.982,0,0,1-1.194.154,3.888,3.888,0,0,1-.825-.086,3.373,3.373,0,0,1-2.3-1.814h-2.508a5.888,5.888,0,0,0,4.811,4.167,6.018,6.018,0,0,0,.826.057,7.3,7.3,0,0,0,1.754-.222c2.723-.676,4.612-2.666,5.615-5.913a21.055,21.055,0,0,0,.812-5.232c0-.039,0-.079.005-.118q.009-.247.015-.486c0-.125.006-.249.008-.37l.106,0,0,0c4.587-.191,7.941-.925,9.808-3.448l-.019.007.014-.02c.01-.014.019-.029.029-.043l.018-.026c.036-.051.07-.1.106-.156l.022-.033.029-.043.022-.033c.021-.032.043-.061.064-.094v0l.009-.013c.008-.012.016-.023.024-.035s.018-.025.026-.038h0l.026-.042h0l.012-.023c.012-.019.021-.041.032-.06v0c.008-.014.015-.029.023-.043l0-.009c.027-.046.051-.1.076-.143l.01-.019.023-.043.009-.017.027-.05.01-.02.023-.043.006-.012c.006-.01.011-.021.017-.031s.016-.028.023-.043.009-.018.014-.027l.009-.016c.007-.015.016-.028.023-.043s.012-.029.019-.043a.188.188,0,0,0,.007-.018c0-.009.007-.017.01-.025s.011-.029.018-.043l0-.007c.008-.018.015-.037.022-.055l.01-.025c.006-.014.012-.029.018-.043l0-.006.015-.037.01-.025.007-.018.018-.043,0,0,.015-.038.01-.026.007-.017.01-.025c.011-.029.024-.057.036-.087l0-.005h-2.869Zm-21.515,8.272-.02.043.02-.043.02-.043c-.007.014-.014.029-.02.043m.081-.173-.02.043-.02.043.02-.043.02-.043.02-.043-.02.043m.246-.467-.024.042-.024.042-.024.042-.024.042-.024.042c-.007.014-.016.028-.024.042l-.023.042c-.007.014-.013.029-.02.043s-.013.029-.02.043c.007-.014.013-.029.02-.043s.013-.029.02-.043l.023-.042c.007-.014.016-.028.024-.042l.024-.042.024-.042.024-.042.024-.042.024-.042.024-.042-.024.042m.283-.455-.028.041-.028.041-.027.041-.028.041c-.009.014-.019.027-.027.041l-.026.041c-.008.014-.015.028-.024.042s-.015.028-.024.042-.015.028-.024.042c.008-.014.015-.028.024-.042s.015-.028.024-.042.015-.028.024-.042l.026-.041c.009-.014.019-.027.027-.041l.028-.041.027-.041.028-.041.028-.041.028-.041-.028.041m.083-.122-.016.024.016-.024.016-.024-.016.024m.055-.081-.016.024.016-.024.016-.024-.016.024m.152-.2-.032.039.032-.039q.076-.1.155-.192-.079.1-.155.192m3.36-1.719q-.154.029-.308.061.154-.032.308-.061c.142-.027.285-.052.427-.076q-.214.036-.427.076" transform="translate(-235.3 -179.41)" fill="#1995d3"/>
      <path id="Path_390" data-name="Path 390" d="M306.968,276.9l-1.509.095-.136.013-.028,0,1.675-.11Z" transform="translate(-293.625 -262.673)" fill="#f05d2c"/>
      <path id="Path_391" data-name="Path 391" d="M305.1,277.66l-.033.839q.014-.264.023-.535c0-.1.007-.2.01-.3" transform="translate(-293.434 -263.319)" fill="#f05d2c"/>
      <path id="Path_392" data-name="Path 392" d="M273.058,286.656c2.843-.706,4.371-3.576,4.647-8.743.012-.221.022-.445.029-.674,0-.114.008-.228.01-.345h-.031l-1.674.11c0,.1-.006.2-.01.3q-.009.271-.023.535c-.266,5.211-1.794,8.1-4.65,8.812q-.16.04-.317.069a3.888,3.888,0,0,0,.825.086,4.971,4.971,0,0,0,1.194-.154" transform="translate(-264.369 -262.665)" fill="#231f20"/>
      <path id="Path_393" data-name="Path 393" d="M262.235,242.5h-.068a5.2,5.2,0,0,1-.688,1.061c-.045.054-.091.107-.138.159a6.634,6.634,0,0,1-1.233.965c-.2.121-.412.239-.637.35a11.948,11.948,0,0,1-2.65.9,38.024,38.024,0,0,1-5.933.748c-.808,0-1.791,0-1.929.007a29.143,29.143,0,0,0-3.419.264,8.944,8.944,0,0,0-1.977.6,4.484,4.484,0,0,0-1.307.859l0,0c-.035.031-.071.062-.105.095l-.017.017c-.048.054-.093.107-.136.158-.027.024-.053.047-.08.072l-.017.016c-.111.125-.206.24-.293.351l-.022.027-.008.01-.025.032-.006.008-.027.033,0,.006-.007.01-.018.025,0,.005-.023.034-.005.008-.021.031-.007.011-.018.027-.01.015-.016.024-.014.021-.012.017-.007.01-.019.028-.013.019-.015.022-.016.024-.009.014-.019.027-.007.01-.022.032-.006.008-.023.034,0,.006-.021.034h0l0,.006-.021.037,0,.007-.018.032-.006.011-.016.029-.008.015-.015.026-.011.019-.012.021-.022.04-.011.019-.011.02-.014.024-.009.015-.016.029-.007.012-.018.032,0,.009-.02.035,0,.007-.013.023-.008.014v0l-.017.037,0,.007c0,.011-.01.022-.016.034l0,.01-.015.031-.006.014-.013.027-.01.021-.009.019-.014.03-.006.012-.009.02-.01.021-.011.023-.008.017-.013.027-.005.011a7.042,7.042,0,0,0-.3.959h1.6l0-.01.006-.015v0l.017-.045.005-.015.013-.034,0-.011q.007-.019.014-.038l0-.005c0-.014.01-.028.016-.041l.015-.035,0-.012c.006-.014.012-.027.019-.04l0-.008.016-.034,0-.011.015-.032.007-.014.016-.035.005-.012.008-.016.014-.03.006-.014.016-.034,0-.009.017-.036.005-.011.018-.036c.007-.014.015-.028.024-.042l0-.006.019-.033.005-.009.019-.033.008-.013.018-.031.008-.013.006-.011.019-.034.008-.014.018-.031.006-.01.02-.035,0,0,.023-.041.02-.031.008-.013.026-.037.005-.008.022-.032.008-.011.021-.031.009-.013.03-.043.011-.016.019-.028.008-.012.022-.032.005-.008.025-.035.006-.009.025-.035.031-.038.005-.006.026-.032.007-.008.025-.031.009-.012.025-.031.01-.012,0,0,.033-.04.01-.012.024-.029.008-.01.026-.032,0-.006.03-.036.028-.031.009-.01.032-.034.007-.007.029-.03.009-.01.028-.029.012-.013.031-.032.007-.008.012-.013.027-.028.011-.011.028-.029.008-.008.032-.033,0,0c.011-.012.023-.024.035-.036l.037-.033.008-.007a7.367,7.367,0,0,1,2.865-1.6l.042-.014h0a17.611,17.611,0,0,1,3.483-.58l.165-.016h.012l1.51-.095h.007l2.465-.107,0,0a22.591,22.591,0,0,0,5.826-.832,7.05,7.05,0,0,0,3.672-2.432l-.007-.008.024-.034,0-.006.026-.038.005-.008.011-.016c.021-.028.04-.058.06-.088l.04-.06.006-.009.015-.023.014-.021.013-.019.018-.027,0-.007.033-.048c.009-.012.017-.025.025-.037l0,0,.014-.021.017-.025,0,0,0,0,.018-.026,0-.005.011-.018.009-.014h0l.014-.026,0-.009c.008-.016.016-.032.025-.047h0l0,0h0l0-.006.017-.033.006-.012c.014-.024.027-.05.04-.075l.032-.06.005-.01,0-.007.023-.043.008-.016.029-.055,0,0,0-.006.016-.03.006-.012.009-.018.007-.013,0-.009.019-.037,0-.006.02-.038,0-.007.02-.037h0l0-.006.011-.026v0l.007-.017Z" transform="translate(-238.234 -233.294)" fill="#f05d2c"/>
    </g>
    <g id="Group_293" data-name="Group 293" transform="translate(3567.859 3486.576)">
      <g id="Group_291" data-name="Group 291" transform="translate(0.599 0.383)">
        <path id="Path_16" data-name="Path 16" d="M148.03,52.879a1.445,1.445,0,0,1-.06-.215.3.3,0,0,0-.078-.154.252.252,0,0,0,.114-.215.246.246,0,0,0-.079-.188.376.376,0,0,0-.266-.078,1.155,1.155,0,0,0-.212.018l-.034.007v.887h.19v-.356h.056c.068,0,.1.021.126.127a.92.92,0,0,0,.059.208l.012.021h.2Zm-.215-.573c0,.072-.054.114-.143.114h-.066V52.2a.5.5,0,0,1,.062,0C147.816,52.2,147.816,52.279,147.816,52.306Z" transform="translate(-147.416 -52.029)" fill="#0086cb"/>
      </g>
      <g id="Group_292" data-name="Group 292" transform="translate(0 0)">
        <g id="Group_21" data-name="Group 21">
          <path id="Path_17" data-name="Path 17" d="M147.414,53.207a.867.867,0,1,1,.868-.867A.868.868,0,0,1,147.414,53.207Zm0-1.51a.643.643,0,1,0,.643.643A.643.643,0,0,0,147.414,51.7Z" transform="translate(-146.547 -51.473)" fill="#0086cb"/>
        </g>
      </g>
    </g>
  </g>
</svg>
