<svg xmlns="http://www.w3.org/2000/svg" width="155.027" height="114.472" viewBox="0 0 155.027 114.472">
  <g id="Group_2462" data-name="Group 2462" transform="translate(-145 -119.802)">
    <g id="Group_2461" data-name="Group 2461" transform="translate(145.998 120.647)">
      <path id="Path_273" data-name="Path 273" d="M164.81,157.132a1.934,1.934,0,0,1-1.934,1.934H145.992L95.267,164.79a1.461,1.461,0,0,1-.221.011,1.934,1.934,0,0,1-1.934-1.934v-3.8h-39a1.934,1.934,0,1,1,0-3.868H69.169V59.847A1.933,1.933,0,0,1,71.1,57.913H93.112v-3.8a1.888,1.888,0,0,1,.014-.218,1.933,1.933,0,0,1,2.138-1.7L146.1,57.926a1.932,1.932,0,0,1,1.716,1.92V155.2h15.06A1.934,1.934,0,0,1,164.81,157.132Z" transform="translate(-52.18 -52.176)" fill="#f0f5f7"/>
    </g>
    <g id="Group_2460" data-name="Group 2460" transform="translate(146 120.802)">
      <g id="Group_2459" data-name="Group 2459" transform="translate(0)">
        <g id="Path_271" data-name="Path 271" transform="translate(-52.176 -52.175)" fill="#6f8ba5">
          <path d="M 94.99688720703125 165.1470184326172 L 94.98037719726562 165.1469573974609 C 93.64341735839844 165.14697265625 92.552734375 164.0562896728516 92.552734375 162.7156524658203 L 92.552734375 159.4181060791016 L 54.10731887817383 159.4181060791016 C 52.76668930053711 159.4181060791016 51.67600631713867 158.3274230957031 51.67600631713867 156.9867706298828 C 51.67600631713867 155.6461486816406 52.76668930053711 154.5554656982422 54.10731887817383 154.5554656982422 L 68.64186096191406 154.5554656982422 L 68.64186096191406 59.835693359375 C 68.64186096191406 58.49504852294922 69.7325439453125 57.40436172485352 71.07317352294922 57.40436172485352 L 92.552734375 57.40436172485352 L 92.552734375 54.10683441162109 C 92.552734375 54.01712036132812 92.557861328125 53.92569351196289 92.56796264648438 53.83510589599609 C 92.70676422119141 52.60357666015625 93.74439239501953 51.67531967163086 94.98163604736328 51.67531967163086 C 95.07283020019531 51.67531967163086 95.16527557373047 51.68051910400391 95.25637817382812 51.69079208374023 L 146.0226745605469 57.4207649230957 C 147.2533111572266 57.55877685546875 148.1815948486328 58.59699249267578 148.1815948486328 59.835693359375 L 148.1815948486328 154.5554656982422 L 162.7161254882812 154.5554656982422 C 164.06005859375 154.5554656982422 165.1507415771484 155.6461486816406 165.1507415771484 156.9867706298828 C 165.1507415771484 158.3274230957031 164.06005859375 159.4181060791016 162.7194366455078 159.4181060791016 L 145.8887481689453 159.4181060791016 L 95.2608642578125 165.1316833496094 C 95.17437744140625 165.1417846679688 95.08491516113281 165.1470184326172 94.99688720703125 165.1470184326172 Z M 97.4154052734375 56.82735824584961 L 97.4154052734375 159.9995269775391 L 143.3189544677734 154.8151397705078 L 143.3189544677734 62.01176071166992 L 97.4154052734375 56.82735824584961 Z M 82.33340454101562 154.5554656982422 L 92.552734375 154.5554656982422 L 92.552734375 71.09591674804688 L 82.33340454101562 71.09591674804688 L 82.33340454101562 154.5554656982422 Z M 73.50339508056641 154.5554656982422 L 77.46965789794922 154.5554656982422 L 77.46965789794922 68.66460418701172 C 77.46965789794922 67.32396697998047 78.56034851074219 66.23326110839844 79.90099334716797 66.23326110839844 L 92.552734375 66.23326110839844 L 92.552734375 62.26702117919922 L 73.50448608398438 62.26702117919922 L 73.50339508056641 154.5554656982422 Z" stroke="none"/>
          <path d="M 94.99709320068359 164.6470184326172 C 95.06644439697266 164.6470184326172 95.13597869873047 164.6428680419922 95.20478820800781 164.6348266601562 L 145.8606414794922 158.9181060791016 L 162.7194366455078 158.9181060791016 C 163.7860870361328 158.9181060791016 164.6507415771484 158.0534210205078 164.6507415771484 156.9867706298828 C 164.6507415771484 155.9201202392578 163.7860870361328 155.0554656982422 162.7194366455078 155.0554656982422 L 147.6815948486328 155.0554656982422 L 147.6815948486328 59.83569717407227 C 147.6815948486328 58.85292434692383 146.9432983398438 58.02714157104492 145.9665985107422 57.91761779785156 L 95.20037841796875 52.18764877319336 C 94.14030456542969 52.06817626953125 93.18434906005859 52.83051300048828 93.06486511230469 53.89052581787109 C 93.056884765625 53.96226501464844 93.05272674560547 54.03454208374023 93.05272674560547 54.10683441162109 L 93.05272674560547 57.90435791015625 L 71.07317352294922 57.90435791015625 C 70.00654602050781 57.90435791015625 69.14185333251953 58.76903533935547 69.14185333251953 59.83569717407227 L 69.14185333251953 155.0554656982422 L 54.10733032226562 155.0554656982422 C 53.04068374633789 155.0554656982422 52.17600631713867 155.9201202392578 52.17600631713867 156.9867706298828 C 52.17600631713867 158.0534210205078 53.04068374633789 158.9181060791016 54.10733032226562 158.9181060791016 L 93.05272674560547 158.9181060791016 L 93.05272674560547 162.7156524658203 C 93.05272674560547 163.7822723388672 93.91741943359375 164.64697265625 94.98406982421875 164.64697265625 C 94.9884033203125 164.6470031738281 94.99275970458984 164.6470184326172 94.99709320068359 164.6470184326172 M 96.91539001464844 56.2677116394043 L 143.8189544677734 61.56504821777344 L 143.8189544677734 155.2618560791016 L 96.91539001464844 160.5591735839844 L 96.91539001464844 56.2677116394043 M 81.83340454101562 70.59592437744141 L 93.05272674560547 70.59592437744141 L 93.05272674560547 155.0554656982422 L 81.83340454101562 155.0554656982422 L 81.83340454101562 70.59592437744141 M 73.00450134277344 61.76701736450195 L 93.05272674560547 61.76701736450195 L 93.05272674560547 66.73326110839844 L 79.90099334716797 66.73326110839844 C 78.83432769775391 66.73326110839844 77.96965026855469 67.59795379638672 77.96965026855469 68.66460418701172 L 77.96965026855469 155.0554656982422 L 73.00338745117188 155.0554656982422 L 73.00450134277344 61.76701736450195 M 94.99710083007812 165.6470184326172 L 94.98406982421875 165.64697265625 C 93.36772918701172 165.64697265625 92.05272674560547 164.3319854736328 92.05272674560547 162.7156524658203 L 92.05272674560547 159.9181060791016 L 54.10733032226562 159.9181060791016 C 52.49098968505859 159.9181060791016 51.17600631713867 158.6031036376953 51.17600631713867 156.9867706298828 C 51.17600631713867 155.3704528808594 52.49098968505859 154.0554656982422 54.10733032226562 154.0554656982422 L 68.14185333251953 154.0554656982422 L 68.14185333251953 59.83569717407227 C 68.14185333251953 58.21935653686523 69.45684051513672 56.90435791015625 71.07317352294922 56.90435791015625 L 92.05272674560547 56.90435791015625 L 92.05272674560547 54.10683441162109 C 92.05272674560547 53.99884796142578 92.05888366699219 53.88886260986328 92.07100677490234 53.77991104125977 C 92.23843383789062 52.29446411132812 93.48966979980469 51.17532730102539 94.98165130615234 51.17532730102539 C 95.09151458740234 51.17532730102539 95.20278930664062 51.18158721923828 95.31239318847656 51.19394302368164 L 146.0787506103516 56.92392730712891 C 147.5623016357422 57.09027862548828 148.6815948486328 58.34210968017578 148.6815948486328 59.83569717407227 L 148.6815948486328 154.0554656982422 L 162.7161254882812 154.0554656982422 C 164.3357543945312 154.0554656982422 165.6507415771484 155.3704528808594 165.6507415771484 156.9867706298828 C 165.6507415771484 158.6031036376953 164.3357543945312 159.9181060791016 162.7194366455078 159.9181060791016 L 145.9168853759766 159.9181060791016 L 95.31693267822266 165.6285247802734 C 95.21309661865234 165.6406555175781 95.10422515869141 165.6470184326172 94.99710083007812 165.6470184326172 Z M 97.91539001464844 57.38700485229492 L 97.91539001464844 159.4398803710938 L 142.8189544677734 154.3684387207031 L 142.8189544677734 62.45846176147461 L 97.91539001464844 57.38700485229492 Z M 82.83340454101562 154.0554656982422 L 92.05272674560547 154.0554656982422 L 92.05272674560547 71.59592437744141 L 82.83340454101562 71.59592437744141 L 82.83340454101562 154.0554656982422 Z M 74.00340270996094 154.0554656982422 L 76.96965026855469 154.0554656982422 L 76.96965026855469 68.66460418701172 C 76.96965026855469 67.04826354980469 78.28465270996094 65.73326110839844 79.90099334716797 65.73326110839844 L 92.05272674560547 65.73326110839844 L 92.05272674560547 62.76701736450195 L 74.00448608398438 62.76701736450195 L 74.00340270996094 154.0554656982422 Z" stroke="none" fill="#6f8ba5"/>
        </g>
        <g id="Path_272" data-name="Path 272" transform="translate(-173.583 -184.68)" fill="#6f8ba5">
          <path d="M 229.4155883789062 246.1632385253906 C 226.5220489501953 246.1632385253906 224.1679840087891 243.8091735839844 224.1679840087891 240.9156341552734 C 224.1679840087891 238.0220794677734 226.5220489501953 235.6679992675781 229.4155883789062 235.6679992675781 C 232.3056182861328 235.6712646484375 234.6599426269531 238.0256042480469 234.6632232666016 240.9162139892578 C 234.6632232666016 243.8091735839844 232.3091430664062 246.1632385253906 229.4155883789062 246.1632385253906 Z M 229.4155883789062 238.5306549072266 C 228.1005401611328 238.5306549072266 227.0306549072266 239.6005554199219 227.0306549072266 240.9156341552734 C 227.0306549072266 242.2306976318359 228.1005401611328 243.3005828857422 229.4155883789062 243.3005828857422 C 230.7295227050781 243.2991943359375 231.7991790771484 242.2295532226562 231.8005676269531 240.9161529541016 C 231.8005676269531 239.6005554199219 230.7306671142578 238.5306549072266 229.4155883789062 238.5306549072266 Z" stroke="none"/>
          <path d="M 229.4144592285156 236.1679992675781 L 229.4146881103516 236.1679992675781 C 226.7972869873047 236.1685180664062 224.6679840087891 238.298095703125 224.6679840087891 240.9156341552734 C 224.6679840087891 243.5334777832031 226.7977447509766 245.6632385253906 229.4155883789062 245.6632385253906 C 232.033447265625 245.6632385253906 234.1632232666016 243.5334777832031 234.1632232666016 240.9167633056641 C 234.1602478027344 238.3012542724609 232.0299682617188 236.1709594726562 229.4144592285156 236.1679992675781 M 229.4166412353516 243.8005828857422 L 229.4155883789062 243.8005828857422 C 227.8248291015625 243.8005828857422 226.5306549072266 242.5063934326172 226.5306549072266 240.9156341552734 C 226.5306549072266 239.3248596191406 227.8248291015625 238.0306549072266 229.4155883789062 238.0306549072266 C 231.0063629150391 238.0306549072266 232.3005676269531 239.3248596191406 232.3005676269531 240.9166870117188 C 232.2989044189453 242.5052032470703 231.0051727294922 243.7989196777344 229.4166412353516 243.8005828857422 M 229.4155883789062 235.1679992675781 C 232.5885009765625 235.1715850830078 235.1596221923828 237.7427215576172 235.1632232666016 240.9156341552734 C 235.1632232666016 244.0898742675781 232.5898895263672 246.6632385253906 229.4155883789062 246.6632385253906 C 226.2413330078125 246.6632385253906 223.6679840087891 244.0898742675781 223.6679840087891 240.9156341552734 C 223.6679840087891 237.7413635253906 226.2413330078125 235.1679992675781 229.4155883789062 235.1679992675781 Z M 229.4155883789062 242.8005828857422 C 230.4560546875 242.7994842529297 231.2994689941406 241.9560546875 231.3005676269531 240.9156341552734 C 231.3005676269531 239.8746185302734 230.4565887451172 239.0306549072266 229.4155883789062 239.0306549072266 C 228.3746337890625 239.0306549072266 227.5306549072266 239.8746185302734 227.5306549072266 240.9156341552734 C 227.5306549072266 241.9566192626953 228.3746337890625 242.8005828857422 229.4155883789062 242.8005828857422 Z" stroke="none" fill="#6f8ba5"/>
        </g>
      </g>
    </g>
    <path id="Path_274" data-name="Path 274" d="M-5310.4-1861.064l-34.353-5.4,10.356-3.284v-95.984l24,26.269Z" transform="translate(5498.366 2094.337)" fill="#6f8ba5" opacity="0.16"/>
    <path id="Path_275" data-name="Path 275" d="M-5226.941-1853.1h-78.972l48.664-9.1h61.9Z" transform="translate(5495.38 2086.378)" fill="#6f8ba5" opacity="0.16"/>
    <path id="Path_276" data-name="Path 276" d="M-5302.6-1970.411s-2.138,39.426,18.827,64.938,25.569,34.952,25.569,34.952l-49.091,7.257,2.134-107.146Z" transform="translate(5495.486 2094.697)" fill="#6f8ba5" opacity="0.16"/>
  </g>
</svg>
