<svg xmlns="http://www.w3.org/2000/svg" width="82.753" height="68.268" viewBox="0 0 82.753 68.268">
  <g id="Group_3832" data-name="Group 3832" transform="translate(-473.364 629.268)">
    <path id="Path_516" data-name="Path 516" d="M676.4,466.184l0-.189v0l.026-2.095,0-.352c0-.058,0-.115,0-.174.022-7.169.958-14,7.6-15.445.173-.037.345-.069.516-.1q.221-.038.44-.067a9.875,9.875,0,0,1,1.28-.087,8.363,8.363,0,0,1,1.7.168q.26.054.505.123t.476.151a7.287,7.287,0,0,1,3.506,2.714,8.565,8.565,0,0,1,1.022,1.949q.129.345.229.7h4.676a13.417,13.417,0,0,0-2.207-5.276,11.807,11.807,0,0,0-9.905-5.083,14.407,14.407,0,0,0-1.691.1c-.5.059-1,.142-1.512.252-11.132,2.418-11.171,14.656-11.187,19.881,0,.446,0,.845-.011,1.189-.012.477,0,1.088.018,1.847v.211l-.029,4.4h0l.059,0c0,.228-.013.451-.02.676-.014.45-.034.888-.057,1.321-.54,10.124-3.533,15.747-9.1,17.129a9.758,9.758,0,0,1-2.339.3,7.63,7.63,0,0,1-1.617-.167,6.608,6.608,0,0,1-4.514-3.554h-4.913a11.534,11.534,0,0,0,9.426,8.164,11.836,11.836,0,0,0,1.619.112,14.3,14.3,0,0,0,3.436-.436c5.335-1.324,9.036-5.222,11-11.585a41.246,41.246,0,0,0,1.591-10.25c0-.077.007-.155.01-.231q.019-.484.031-.952c.006-.246.011-.488.015-.726h.022l-.1-4.614Z" transform="translate(-160.155 -1071.972)" fill="#1a96d4"/>
    <path id="Path_517" data-name="Path 517" d="M1247.745,1102.659c-.023.449-.052.887-.083,1.32a43.694,43.694,0,0,1-.726,5.5,32.733,32.733,0,0,1-1.034,4.1,22.253,22.253,0,0,1-2.165,4.758l4.62.3a22.4,22.4,0,0,0,2.107-4.639,41.252,41.252,0,0,0,1.789-10.218c0-.077.01-.154.015-.23q.028-.484.049-.951c0-.05,0-.1.006-.147l.024-.4-4.585.315C1247.754,1102.463,1247.75,1102.562,1247.745,1102.659Z" transform="translate(-727.559 -1700.995)" fill="#1a96d4"/>
    <path id="Path_518" data-name="Path 518" d="M656.995,956.759a73.78,73.78,0,0,1,8.425-.908v.211l-.029,4.4-2.957.185-.265.026-.056,0a33.945,33.945,0,0,0-6.662,1.1l-.089.029a13.669,13.669,0,0,0-5.34,2.972c-.026.023-.054.046-.08.07s-.047.05-.071.074-.047.05-.073.074-.047.05-.071.074l-.071.074c-.024.024-.048.049-.071.074s-.049.048-.071.074-.05.049-.073.073-.049.05-.071.074-.046.05-.067.076-.041.051-.063.077-.041.051-.063.077-.043.051-.063.077-.043.051-.063.077l-.064.077c-.02.026-.041.05-.063.077s-.043.05-.063.076-.043.051-.063.077-.036.054-.056.08-.036.053-.054.08-.036.053-.054.078l-.056.08-.054.08c-.019.027-.037.053-.054.08s-.037.053-.056.08l-.054.078-.053.081-.046.081c-.017.027-.031.056-.047.083s-.031.054-.047.081l-.047.083-.047.083-.047.081c-.014.029-.031.056-.047.083s-.033.054-.047.081-.026.057-.04.084-.026.057-.04.086-.026.056-.04.084-.026.056-.04.084l-.039.084c-.013.029-.027.057-.04.086s-.027.056-.04.084-.027.057-.039.084-.026.057-.037.086-.02.058-.033.087-.02.058-.031.087-.021.059-.033.087-.021.058-.033.087-.021.058-.033.087l-.031.087c-.011.029-.023.057-.033.087l-.031.087c-.01.03-.016.06-.026.09s-.016.058-.026.088a.059.059,0,0,1,0,.007h-4.685l.017-.081c.006-.031.011-.061.018-.091s.013-.061.019-.093.013-.06.019-.091.013-.06.02-.091.011-.06.019-.091.016-.06.024-.09.017-.058.026-.089.017-.06.026-.09.017-.059.024-.088.019-.06.026-.09.017-.059.026-.089l.026-.09.026-.089.026-.09c.01-.029.017-.058.026-.088s.016-.06.026-.09.016-.059.026-.089.021-.059.031-.087.023-.058.033-.087.023-.059.033-.087.021-.058.031-.087.023-.058.033-.087.021-.058.033-.087.021-.058.033-.087.021-.057.031-.087.021-.057.033-.087.021-.057.033-.087.02-.057.033-.087.02-.057.031-.086.027-.057.039-.086.027-.056.04-.084.024-.053.037-.078a10.589,10.589,0,0,1,2.427-3.771,15.782,15.782,0,0,1,2.941-2.58q.537-.366,1.125-.7t1.223-.642a20.4,20.4,0,0,1,2.021-.835q.355-.126.724-.241l.061-.021c.068-.023.161-.053.278-.087.039-.011.08-.024.124-.036.088-.026.188-.054.3-.083.223-.06.494-.127.815-.2q.242-.054.522-.111c.093-.02.19-.039.29-.059Q656.652,956.821,656.995,956.759Z" transform="translate(-153.692 -1561.432)" fill="#f15d2c"/>
    <path id="Path_519" data-name="Path 519" d="M1328.725,811.689a2.082,2.082,0,0,1,.676-1.642,2.314,2.314,0,0,1,1.588-.6h0a2.33,2.33,0,0,1,1.593.6,2.342,2.342,0,0,1,0,3.286,2.33,2.33,0,0,1-1.593.6h0a2.32,2.32,0,0,1-1.588-.6A2.084,2.084,0,0,1,1328.725,811.689Z" transform="translate(-808.691 -1421.675)" fill="#1a96d4"/>
    <path id="Path_520" data-name="Path 520" d="M1245.2,947.143l0,.188h-.006Z" transform="translate(-728.954 -1553.119)" fill="#1a96d4"/>
    <g id="Group_3625" data-name="Group 3625" transform="translate(519.285 -609.137)">
      <path id="Path_521" data-name="Path 521" d="M1332.075,880.038c-.39.236-.791.452-1.2.652-2.416.233-4.733.315-6.552.337,1.816-.018,4.148-.1,6.583-.337q.608-.3,1.189-.652a11.944,11.944,0,0,0,2.959-2.528A12.012,12.012,0,0,1,1332.075,880.038Z" transform="translate(-1323.775 -877.51)" fill="#1a96d4"/>
      <path id="Path_522" data-name="Path 522" d="M1312.766,955l-.545,0C1312.4,955.006,1312.579,955,1312.766,955Z" transform="translate(-1312.221 -951.484)" fill="#1a96d4"/>
      <path id="Path_523" data-name="Path 523" d="M1337.518,978.568q.477-.1.951-.208.648-.15,1.292-.325-.643.176-1.292.325Q1337.994,978.47,1337.518,978.568Z" transform="translate(-1336.37 -973.472)" fill="#1a96d4"/>
    </g>
    <path id="Union_3" data-name="Union 3" d="M10.168,5.525c-2.866.277-5.591.342-7.5.342,1.917,0,4.625-.07,7.47-.342.408-.2.809-.417,1.2-.653a12.021,12.021,0,0,0,2.98-2.527l-.062.048-.034.026-.019.015-.09.069c-.037.028-.071.057-.109.084l-.018.014c-.031.024-.059.048-.092.071s-.088.056-.131.084-.092.055-.137.084-.091.056-.137.084l-.137.084-.033.021c-.081.049-.157.1-.241.148l-.153.084c-.039.021-.082.041-.123.061-.09.047-.181.094-.273.14-.142.072-.286.142-.437.209l-.024.012h0c-.067.03-.142.055-.21.084s-.118.046-.177.069l-.066.026-.188.073c-.072.028-.142.057-.216.084l-.042.017c-.06.022-.113.047-.174.068-.085.03-.18.055-.268.084l-.056.017c-.151.049-.307.1-.465.143l-.025.008c-.092.027-.178.058-.273.084s-.21.056-.316.084c-.225.059-.461.114-.7.169-.118.027-.226.058-.347.084-.139.03-.289.056-.432.084s-.3.057-.45.084-.294.058-.45.084c-.175.03-.36.057-.541.084s-.391.057-.59.084-.385.059-.59.084h0c-.489.06-1,.113-1.529.162-.157.015-.319.028-.479.041q-.6.051-1.228.093l-.506.033-.435.026C.892,5.662.456,5.684,0,5.7v-.01H0l.1,4.614L.283,10.3l0,0C9.272,9.921,15.844,8.481,19.5,3.539l-.036.014c.009-.013.017-.026.026-.039s.037-.057.057-.084.023-.033.034-.051c.072-.1.138-.2.208-.307l.043-.064.057-.084.044-.064c.041-.062.085-.121.125-.184l0,0,.017-.026c.015-.024.032-.045.046-.068s.034-.048.05-.074h0l.051-.083h0c.008-.014.016-.03.024-.045.022-.038.041-.08.063-.118l0-.005c.016-.027.029-.057.045-.084l.01-.018c.052-.091.1-.188.149-.281l.02-.038.045-.084.017-.033.052-.1.02-.038c.015-.029.03-.055.045-.084l.012-.023c.011-.02.022-.04.033-.061s.031-.055.045-.084.019-.036.028-.053.011-.02.016-.031c.014-.029.031-.055.045-.084s.024-.057.037-.084c.005-.011.01-.023.014-.035s.013-.033.02-.049.022-.057.034-.084l.005-.013c.015-.035.028-.072.044-.107.006-.016.013-.033.02-.048s.023-.057.034-.084l0-.011.03-.073.02-.049.014-.035L21.212.4l0-.01.03-.074.021-.05L21.281.23,21.3.18c.023-.058.047-.112.07-.17l0-.01h-5.62a9.275,9.275,0,0,1-1.438,2.345,11.958,11.958,0,0,1-2.959,2.527c-.387.237-.784.453-1.19.653M5.136,7.232q-.475.11-.951.208.477-.1.951-.208.648-.15,1.292-.325Q5.786,7.083,5.136,7.232Z" transform="translate(516.248 -611.481)" fill="#f15d2c"/>
    <path id="Path_525" data-name="Path 525" d="M308.624,1769.752v1.8h-5.748v1.443h5.461v1.752h-5.461v2.645h-2.324v-7.637Z" transform="translate(172.812 -2338.389)" fill="#1a96d4"/>
    <path id="Path_526" data-name="Path 526" d="M588.259,1769.752v7.637H585.82v-7.637Z" transform="translate(-99.507 -2338.389)" fill="#1a96d4"/>
    <path id="Path_527" data-name="Path 527" d="M763.175,1769.752l4,5.691h.24l-.057-5.691h2.37v7.637h-4.042l-4.019-5.69h-.252l.057,5.69H759.1v-7.637Z" transform="translate(-264.921 -2338.389)" fill="#1a96d4"/>
    <path id="Path_528" data-name="Path 528" d="M1114.908,1769.752v7.637h-2.439v-7.637Z" transform="translate(-602.251 -2338.389)" fill="#1a96d4"/>
    <path id="Path_529" data-name="Path 529" d="M1283.132,1769.752v1.947h-3.4v5.69h-2.439v-5.69h-3.4v-1.947Z" transform="translate(-756.347 -2338.389)" fill="#1a96d4"/>
    <path id="Path_530" data-name="Path 530" d="M1593.59,1769.752v1.8h-6.16v1.111h5.851v1.683h-5.851v1.214h6.206v1.832h-8.5v-7.637Z" transform="translate(-1053.467 -2338.389)" fill="#1a96d4"/>
    <path id="Path_531" data-name="Path 531" d="M1892.731,1769.752v1.8h-6.16v1.111h5.851v1.683h-5.851v1.214h6.206v1.832h-8.5v-7.637Z" transform="translate(-1339.03 -2338.389)" fill="#1a96d4"/>
    <g id="Group_3627" data-name="Group 3627" transform="translate(537.178 -629.268)">
      <path id="Path_532" data-name="Path 532" d="M1734.764,453.06a2.886,2.886,0,0,1-.122-.441.611.611,0,0,0-.161-.316.515.515,0,0,0,.233-.443.5.5,0,0,0-.161-.384.767.767,0,0,0-.546-.16,2.352,2.352,0,0,0-.435.037l-.069.014v1.82h.39v-.73h.116c.14.005.21.044.257.26a1.959,1.959,0,0,0,.122.427l.025.043h.419Zm-.44-1.175c0,.146-.11.234-.294.234h-.136v-.456a1.2,1.2,0,0,1,.128-.006C1734.324,451.66,1734.324,451.829,1734.324,451.885Z" transform="translate(-1732.274 -450.53)" fill="#1a96d4"/>
      <g id="Group_3626" data-name="Group 3626">
        <path id="Path_533" data-name="Path 533" d="M1708.193,437.558a1.779,1.779,0,1,1,1.779-1.779A1.781,1.781,0,0,1,1708.193,437.558Zm0-3.1a1.319,1.319,0,1,0,1.318,1.319A1.32,1.32,0,0,0,1708.193,434.46Z" transform="translate(-1706.414 -434)" fill="#1a96d4"/>
      </g>
    </g>
    <g id="Group_3829" data-name="Group 3829" transform="translate(0 3.281)">
      <g id="Group_3828" data-name="Group 3828" transform="translate(551.015 -575.672)">
        <g id="Group_3820" data-name="Group 3820">
          <path id="Path_581" data-name="Path 581" d="M1623.685,1510.671v2.384h-.554v-1.2l-.528,1.185h-.4l-.528-1.2v1.211h-.554v-2.384h.631l.657,1.507.657-1.507Z" transform="translate(-1618.582 -1510.671)" fill="#1a96d4"/>
          <path id="Path_582" data-name="Path 582" d="M1602.926,1510.671h2.061v.528h-.734v1.855h-.606V1511.2h-.721Z" transform="translate(-1602.926 -1510.671)" fill="#1a96d4"/>
        </g>
      </g>
    </g>
  </g>
</svg>
