<svg xmlns="http://www.w3.org/2000/svg" width="116.04" height="126.015" viewBox="0 0 116.04 126.015">
  <g id="Group_2458" data-name="Group 2458" transform="translate(-156 -247.46)">
    <g id="Group_2457" data-name="Group 2457" transform="translate(156 247.848)">
      <path id="Path_269" data-name="Path 269" d="M113.259,76.1,72.124,120.033a2.722,2.722,0,0,1-1.377.8l-19.2,4.5a2.661,2.661,0,0,1-.528.067,2.729,2.729,0,0,1-2.793-3.175L49.44,114.9H13.678A13.688,13.688,0,0,1,0,101.221V30.092A13.688,13.688,0,0,1,13.678,16.414h8.207V13.678a2.737,2.737,0,0,1,2.737-2.734H33.1a13.681,13.681,0,0,1,26.809,0h8.481a2.736,2.736,0,0,1,2.734,2.734v2.737h8.207a13.691,13.691,0,0,1,13.68,13.677V57.706l.28-.3a8.222,8.222,0,0,1,11.6-.382l7.986,7.479A8.211,8.211,0,0,1,113.259,76.1Z" transform="translate(0)" fill="#f0f5f7"/>
    </g>
    <g id="Group_2456" data-name="Group 2456" transform="translate(156 247.46)">
      <g id="Group_2455" data-name="Group 2455" transform="translate(0)">
        <path id="Path_262" data-name="Path 262" d="M190.726,284.665a2.776,2.776,0,0,1-1.972-.738,2.746,2.746,0,0,1-.834-2.454l3.247-19.554a2.694,2.694,0,0,1,.707-1.432l41.338-44.147a8.263,8.263,0,0,1,11.656-.383l8.026,7.515a8.253,8.253,0,0,1,.383,11.656l-41.338,44.147a2.734,2.734,0,0,1-1.382.8l-19.3,4.523A2.941,2.941,0,0,1,190.726,284.665Zm5.734-21.033L194.026,278.3,208.5,274.9l40.769-43.54a2.751,2.751,0,0,0-.128-3.885l-8.026-7.515a2.751,2.751,0,0,0-3.885.128Zm13.474,13.762.055,0Z" transform="translate(-139.459 -158.651)" fill="#6f8ba5"/>
        <path id="Path_263" data-name="Path 263" d="M52.234,162.969H13.746A13.758,13.758,0,0,1,0,149.223V77.746A13.758,13.758,0,0,1,13.746,64h11a2.749,2.749,0,1,1,0,5.5h-11A8.258,8.258,0,0,0,5.5,77.746v71.478a8.258,8.258,0,0,0,8.247,8.247H52.234a2.749,2.749,0,0,1,0,5.5Z" transform="translate(0 -47.505)" fill="#6f8ba5"/>
        <path id="Path_264" data-name="Path 264" d="M280.742,113.484a2.75,2.75,0,0,1-2.749-2.749V77.746a8.258,8.258,0,0,0-8.247-8.247h-11a2.749,2.749,0,1,1,0-5.5h11a13.758,13.758,0,0,1,13.746,13.746v32.99A2.75,2.75,0,0,1,280.742,113.484Z" transform="translate(-190.021 -47.505)" fill="#6f8ba5"/>
        <path id="Path_265" data-name="Path 265" d="M126.57,32.99H93.58a8.258,8.258,0,0,1-8.247-8.247v-11A2.75,2.75,0,0,1,88.082,11H96.6a13.749,13.749,0,0,1,26.941,0h8.522a2.75,2.75,0,0,1,2.749,2.749v11A8.257,8.257,0,0,1,126.57,32.99ZM90.831,16.495v8.247a2.757,2.757,0,0,0,2.749,2.749h32.99a2.757,2.757,0,0,0,2.749-2.749V16.495h-8.247a2.75,2.75,0,0,1-2.749-2.749,8.247,8.247,0,0,0-16.495,0,2.75,2.75,0,0,1-2.749,2.749Z" transform="translate(-63.34)" fill="#6f8ba5"/>
        <path id="Path_266" data-name="Path 266" d="M165.84,176.165H124.564c-1.139,0-2.064-1.232-2.064-2.749s.924-2.749,2.064-2.749H165.84c1.139,0,2.064,1.231,2.064,2.749S166.979,176.165,165.84,176.165Z" transform="translate(-90.928 -126.681)" fill="#6f8ba5"/>
        <path id="Path_267" data-name="Path 267" d="M165.84,240.165H124.564c-1.139,0-2.064-1.232-2.064-2.749s.924-2.749,2.064-2.749H165.84c1.139,0,2.064,1.231,2.064,2.749S166.979,240.165,165.84,240.165Z" transform="translate(-90.928 -174.186)" fill="#6f8ba5"/>
        <path id="Path_268" data-name="Path 268" d="M165.84,304.165H124.564c-1.139,0-2.064-1.232-2.064-2.749s.924-2.749,2.064-2.749H165.84c1.139,0,2.064,1.231,2.064,2.749S166.979,304.165,165.84,304.165Z" transform="translate(-90.928 -221.691)" fill="#6f8ba5"/>
        <circle id="Ellipse_57" data-name="Ellipse 57" cx="4.553" cy="4.553" r="4.553" transform="translate(17.354 42.182)" fill="#6f8ba5"/>
        <circle id="Ellipse_58" data-name="Ellipse 58" cx="4.553" cy="4.553" r="4.553" transform="translate(17.354 58.677)" fill="#6f8ba5"/>
        <circle id="Ellipse_59" data-name="Ellipse 59" cx="4.553" cy="4.553" r="4.553" transform="translate(17.354 75.172)" fill="#6f8ba5"/>
      </g>
    </g>
    <path id="Path_270" data-name="Path 270" d="M-4821.4-1740.225h-11.978l-.958-18.924,48.995-48.995.958,20.967-36.891,36.891Z" transform="translate(5029.787 2100.44)" fill="#6f8ba5" opacity="0.16"/>
  </g>
</svg>
