<svg id="Component_17_149" data-name="Component 17 – 149" xmlns="http://www.w3.org/2000/svg" width="12.428" height="17.02" viewBox="0 0 12.428 17.02">
  <path id="Path_124" data-name="Path 124" d="M855.092,100.943a5.969,5.969,0,0,1-4.369,5.169,5.532,5.532,0,0,1-1.375.171h-.013a3.166,3.166,0,0,1-.383-.025,6.014,6.014,0,0,1-4.569-2.574,5.926,5.926,0,0,1,.255-6.744.415.415,0,0,1,.737.187,2.464,2.464,0,0,0,.567,1.2,9.682,9.682,0,0,1,.414-3.948,7.409,7.409,0,0,1,3.06-3.983.418.418,0,0,1,.459.014.41.41,0,0,1,.165.425,4.3,4.3,0,0,0,.365,2.953,4.967,4.967,0,0,0,1.881,1.735A5.974,5.974,0,0,1,855.092,100.943Z" transform="translate(-843.453 -89.262)" fill="#f25e2e"/>
  <path id="Path_125" data-name="Path 125" d="M923.776,285.292a2.685,2.685,0,0,1-1.988,2.215,2.553,2.553,0,0,1-.808.071h-.021a2.662,2.662,0,0,1-2.388-3.5,2.169,2.169,0,0,0,.687.559.5.5,0,0,0,.725-.539,5.216,5.216,0,0,1,.135-2.572,3.877,3.877,0,0,1,.68-1.246,3.109,3.109,0,0,0,.331,1.015A3.633,3.633,0,0,0,922.5,282.6,2.685,2.685,0,0,1,923.776,285.292Z" transform="translate(-914.827 -270.77)" fill="#ffc8b7"/>
  <path id="Path_123" data-name="Path 123" d="M139.878,90.872a5.3,5.3,0,0,1-2.007-1.852,4.6,4.6,0,0,1-.389-3.151.438.438,0,0,0-.176-.454.444.444,0,0,0-.489-.014,7.9,7.9,0,0,0-3.264,4.251,10.33,10.33,0,0,0-.441,4.214,2.625,2.625,0,0,1-.6-1.283.443.443,0,0,0-.786-.2,6.327,6.327,0,0,0-.272,7.2,6.414,6.414,0,0,0,4.874,2.747,3.282,3.282,0,0,0,.408.026h.014a5.908,5.908,0,0,0,1.467-.182,6.179,6.179,0,0,0,1.666-11.3Zm-.861,8.606a2.346,2.346,0,0,1-1.744,1.931,2.266,2.266,0,0,1-.709.062h-.018a2.428,2.428,0,0,1-1.829-1.041,2.392,2.392,0,0,1-.265-2.009,1.911,1.911,0,0,0,.6.487.444.444,0,0,0,.465-.038.438.438,0,0,0,.171-.432,4.523,4.523,0,0,1,.118-2.241,3.38,3.38,0,0,1,.6-1.086,2.7,2.7,0,0,0,.29.884,3.178,3.178,0,0,0,1.2,1.14A2.335,2.335,0,0,1,139.017,99.478Zm2.974-2.891a5.463,5.463,0,0,1-2.463,4.049,3.106,3.106,0,0,0,.387-1.244,3.313,3.313,0,0,0-1.554-3,2.365,2.365,0,0,1-.888-.809,2.018,2.018,0,0,1-.166-1.365.438.438,0,0,0-.176-.454.444.444,0,0,0-.489-.014,4.046,4.046,0,0,0-1.673,2.174,4.9,4.9,0,0,0-.233,1.171.443.443,0,0,0-.616.082,3.291,3.291,0,0,0-.28,3.488,5.2,5.2,0,0,1-1.653-1.562,5.455,5.455,0,0,1-.248-5.425,3.551,3.551,0,0,0,1.557,1.6.444.444,0,0,0,.465-.038.438.438,0,0,0,.171-.432,10.209,10.209,0,0,1,.027-4,.431.431,0,0,0,.046-.188s0-.007,0-.011c.055-.227.116-.452.189-.67a7.245,7.245,0,0,1,2.092-3.192,5.337,5.337,0,0,0,.608,2.7,6.065,6.065,0,0,0,2.321,2.183A5.48,5.48,0,0,1,141.991,96.587Z" transform="translate(-130.456 -85.334)" fill="#1a3253"/>
</svg>
