<svg id="Group_1980" data-name="Group 1980" xmlns="http://www.w3.org/2000/svg" width="20.214" height="19.131" viewBox="0 0 20.214 19.131">
  <path id="Path_126" data-name="Path 126" d="M18.321,15.594a6.469,6.469,0,0,0-9.138,0L1.349,23.427a4.616,4.616,0,0,0,6.528,6.527l7.18-7.18a2.769,2.769,0,1,0-3.916-3.916l-4.7,4.7A.923.923,0,1,0,7.75,24.859l4.7-4.7a.923.923,0,1,1,1.305,1.305l-7.18,7.18a2.769,2.769,0,0,1-3.917-3.916L10.488,16.9a4.616,4.616,0,1,1,6.527,6.527L9.182,31.26a.923.923,0,0,0,1.306,1.305l7.833-7.833a6.462,6.462,0,0,0,0-9.138Z" transform="translate(0 -13.704)" fill="#1a3253"/>
</svg>
