<svg id="Component_17_2" data-name="Component 17 – 2" xmlns="http://www.w3.org/2000/svg" width="17.428" height="24.02" viewBox="0 0 17.428 24.02">
  <path id="Path_124" data-name="Path 124" d="M860.087,105.6a8.573,8.573,0,0,1-6.244,7.437,7.856,7.856,0,0,1-1.965.246h-.019a4.5,4.5,0,0,1-.547-.035,8.312,8.312,0,0,1-6.166-13.408.592.592,0,0,1,1.053.269,3.555,3.555,0,0,0,.81,1.73,14.021,14.021,0,0,1,.591-5.682,10.653,10.653,0,0,1,4.373-5.732.592.592,0,0,1,.891.631,6.231,6.231,0,0,0,.522,4.249,7.117,7.117,0,0,0,2.688,2.5A8.613,8.613,0,0,1,860.087,105.6Z" transform="translate(-843.453 -89.262)" fill="#f25e2e"/>
  <path id="Path_125" data-name="Path 125" d="M925.65,287.053a3.629,3.629,0,0,1-2.687,2.993,3.45,3.45,0,0,1-1.093.1h-.028a3.6,3.6,0,0,1-3.227-4.729,2.934,2.934,0,0,0,.929.755.68.68,0,0,0,.98-.729,7.049,7.049,0,0,1,.182-3.475,5.239,5.239,0,0,1,.919-1.684,4.2,4.2,0,0,0,.447,1.371,4.908,4.908,0,0,0,1.852,1.768A3.629,3.629,0,0,1,925.65,287.053Z" transform="translate(-913.304 -267.337)" fill="#ffc8b7"/>
  <path id="Path_123" data-name="Path 123" d="M143.668,93.149a7.449,7.449,0,0,1-2.814-2.613,6.524,6.524,0,0,1-.546-4.447.62.62,0,0,0-.933-.661,11.147,11.147,0,0,0-4.577,6,14.667,14.667,0,0,0-.619,5.947,3.715,3.715,0,0,1-.848-1.811.62.62,0,0,0-1.1-.281,8.7,8.7,0,0,0,6.454,14.034,4.573,4.573,0,0,0,.572.037h.019a8.235,8.235,0,0,0,2.057-.257,8.739,8.739,0,0,0,2.336-15.948Zm-1.207,12.146a3.3,3.3,0,0,1-2.446,2.725,3.158,3.158,0,0,1-.994.088H139a3.275,3.275,0,0,1-2.937-4.3,2.683,2.683,0,0,0,.845.687.62.62,0,0,0,.893-.663,6.422,6.422,0,0,1,.165-3.163,4.78,4.78,0,0,1,.836-1.533,3.826,3.826,0,0,0,.407,1.248,4.468,4.468,0,0,0,1.686,1.609A3.3,3.3,0,0,1,142.461,105.295Zm4.171-4.08a7.718,7.718,0,0,1-3.454,5.714,4.4,4.4,0,0,0,.543-1.755,4.684,4.684,0,0,0-2.18-4.241,3.324,3.324,0,0,1-1.246-1.141,2.865,2.865,0,0,1-.233-1.927.62.62,0,0,0-.933-.661,5.7,5.7,0,0,0-2.346,3.069,6.952,6.952,0,0,0-.326,1.652.619.619,0,0,0-.864.115,4.668,4.668,0,0,0-.392,4.922,7.313,7.313,0,0,1-2.318-2.2,7.741,7.741,0,0,1-.348-7.656,5,5,0,0,0,2.184,2.254.62.62,0,0,0,.893-.663,14.5,14.5,0,0,1,.038-5.651.612.612,0,0,0,.064-.265c0-.005,0-.01,0-.015.077-.321.163-.638.265-.945a10.23,10.23,0,0,1,2.934-4.505,7.572,7.572,0,0,0,.853,3.811,8.528,8.528,0,0,0,3.254,3.081A7.749,7.749,0,0,1,146.632,101.215Z" transform="translate(-130.456 -85.334)" fill="#1a3253"/>
</svg>
