<svg xmlns="http://www.w3.org/2000/svg" width="27.391" height="21.142" viewBox="0 0 27.391 21.142">
  <g id="Group_2004" data-name="Group 2004" transform="translate(-22 -653.111)">
    <g id="Group_2005" data-name="Group 2005" transform="translate(-37 0.728)">
      <g id="Group_2004-2" data-name="Group 2004" transform="translate(59 652.383)">
        <g id="Group_252" data-name="Group 252" transform="translate(0)">
          <path id="Path_53" data-name="Path 53" d="M695.923,587.884h11.724a1.909,1.909,0,0,0,1.955-1.677,2.188,2.188,0,0,0,.017-.325q0-8.575,0-17.149a1.916,1.916,0,0,0-1.985-1.989H684.219a1.917,1.917,0,0,0-1.989,1.986q0,8.583,0,17.167a1.916,1.916,0,0,0,1.986,1.989Zm.03-1.444H684.69a.966.966,0,0,1-1.073-1.069q0-8.078,0-16.156a1.476,1.476,0,0,1,.032-.34.962.962,0,0,1,1.029-.722h22.543a.967.967,0,0,1,1.057,1.068q0,4.532,0,9.063,0,3.555,0,7.11a.979.979,0,0,1-1.065,1.047Q701.584,586.437,695.952,586.44Z" transform="translate(-682.229 -566.742)" fill="#285078"/>
          <path id="Path_54" data-name="Path 54" d="M757.447,675.318a3.53,3.53,0,0,0-.174-5.091,3.589,3.589,0,0,0-4.756-.033,3.542,3.542,0,0,0-.167,5.174c-.046.025-.088.051-.131.072a6.326,6.326,0,0,0-3.293,3.76c-.027.081-.065.158-.1.238a.727.727,0,1,0,1.385.432,4.5,4.5,0,0,1,1.407-2.34,4.934,4.934,0,0,1,7.992,1.973,3.44,3.44,0,0,1,.1.362.728.728,0,0,0,.895.537.7.7,0,0,0,.5-.908,11.576,11.576,0,0,0-.656-1.484,6.18,6.18,0,0,0-2.824-2.6C757.574,675.382,757.519,675.354,757.447,675.318Zm-.332-2.4a2.209,2.209,0,1,1-2.207-2.213A2.2,2.2,0,0,1,757.116,672.917Z" transform="translate(-745.744 -664.627)" fill="#285078"/>
          <path id="Path_55" data-name="Path 55" d="M1054.146,874.915q-1.241,0-2.481,0c-.468,0-.682.215-.683.677,0,.063,0,.126,0,.188a.562.562,0,0,0,.571.6q2.592.013,5.185,0a.578.578,0,0,0,.577-.6c.044-.66-.213-.889-.841-.872C1055.7,874.931,1054.922,874.915,1054.146,874.915Z" transform="translate(-1034.145 -860.839)" fill="#285078"/>
          <path id="Path_56" data-name="Path 56" d="M1054.171,782.863h-2.4c-.576,0-.765.19-.762.771a1.134,1.134,0,0,0,.029.3.579.579,0,0,0,.581.395c.371.006.741,0,1.112,0h3.884c.517,0,.723-.209.723-.729,0-.542-.2-.743-.742-.743Z" transform="translate(-1034.176 -772.996)" fill="#285078"/>
          <path id="Path_57" data-name="Path 57" d="M1054.147,691.569h2.48a.6.6,0,0,0,.681-.682c0-.08,0-.16,0-.24a.562.562,0,0,0-.477-.527.987.987,0,0,0-.17-.014c-1.676,0-3.352,0-5.028,0a.964.964,0,0,0-.431.128.452.452,0,0,0-.22.4c0,.1,0,.205,0,.308a.574.574,0,0,0,.621.617C1052.448,691.571,1053.3,691.569,1054.147,691.569Z" transform="translate(-1034.141 -684.472)" fill="#285078"/>
        </g>
      </g>
    </g>
  </g>
</svg>
