<svg id="Group_396" data-name="Group 396" xmlns="http://www.w3.org/2000/svg" width="26.271" height="24.332" viewBox="0 0 26.271 24.332">
  <path id="Path_112" data-name="Path 112" d="M14.835,7.26,8.67.5V4.533H7.359A7.359,7.359,0,0,0,0,11.892v2.137l.582-.638A10.447,10.447,0,0,1,8.3,9.987H8.67V14.02Z" transform="translate(11.437 10.303)" fill="#285078"/>
  <path id="Path_58" data-name="Path 58" d="M633,348.141c.023-.23.045-.46.071-.69a10.189,10.189,0,0,1,1.434-4.191,11.755,11.755,0,0,1,5.477-4.684l.335-.146-.125-.129a7.089,7.089,0,0,1,3.722-11.967A7.085,7.085,0,0,1,646.8,340.2a6.878,6.878,0,0,1-4.554-.469.421.421,0,0,0-.328-.018,10.838,10.838,0,0,0-4.228,2.371,8.857,8.857,0,0,0-2.814,5.07,10.957,10.957,0,0,0-.13,2,.86.86,0,0,1-.615.84.876.876,0,0,1-1.1-.6c-.009-.031-.021-.061-.031-.092Zm12.208-9.494a5.342,5.342,0,1,0-5.347-5.331A5.365,5.365,0,0,0,645.208,338.646Z" transform="translate(-633 -326.211)" fill="#285078"/>
</svg>
