<svg xmlns="http://www.w3.org/2000/svg" width="20.804" height="19.199" viewBox="0 0 20.804 19.199">
  <g id="Group_408" data-name="Group 408" transform="translate(-135.596 -307.132)">
    <g id="Group_398" data-name="Group 398">
      <path id="Path_58" data-name="Path 58" d="M633,343.545c.018-.182.035-.364.056-.545a8.054,8.054,0,0,1,1.134-3.313,9.292,9.292,0,0,1,4.329-3.7l.264-.115-.1-.1a5.6,5.6,0,0,1,2.942-9.459,5.6,5.6,0,0,1,2.278,10.963,5.437,5.437,0,0,1-3.6-.371.332.332,0,0,0-.259-.014,8.566,8.566,0,0,0-3.342,1.874,7,7,0,0,0-2.225,4.008,8.66,8.66,0,0,0-.1,1.584.68.68,0,0,1-.486.664.692.692,0,0,1-.866-.475c-.007-.025-.016-.048-.025-.073Zm9.65-7.5a4.223,4.223,0,1,0-4.227-4.214A4.24,4.24,0,0,0,642.65,336.04Z" transform="translate(-497.404 -19.078)" fill="#1a3253"/>
    </g>
    <g id="Group_407" data-name="Group 407" transform="translate(41 4)">
      <path id="Path_116" data-name="Path 116" d="M286.8,312.218a.313.313,0,0,1,0,.542l-4.907,4.352a.313.313,0,0,1-.47-.271v-1.964a.313.313,0,0,0-.313-.313h-4.395a.313.313,0,0,1-.313-.313v-3.524a.313.313,0,0,1,.313-.313h4.395a.313.313,0,0,0,.313-.313v-1.964a.313.313,0,0,1,.47-.271Z" transform="translate(-171.561 5.177)" fill="#1a3253"/>
    </g>
  </g>
</svg>
