<svg xmlns="http://www.w3.org/2000/svg" width="21.961" height="20.925" viewBox="0 0 21.961 20.925">
  <g id="Group_243" data-name="Group 243" transform="translate(0.103 0.103)">
    <g id="Group_242" data-name="Group 242" transform="translate(0)">
      <path id="Path_44" data-name="Path 44" d="M830.938-108.979v-.164q0-1.855,0-3.71a.241.241,0,0,0-.112-.223,7.753,7.753,0,0,1-2.765-3.469,6.957,6.957,0,0,1,.8-6.773,8.308,8.308,0,0,1,4.206-3.191,9.884,9.884,0,0,1,8.773.84,7.63,7.63,0,0,1,3.341,3.951,6.956,6.956,0,0,1-1.045,6.92,8.772,8.772,0,0,1-4.922,3.215,10.13,10.13,0,0,1-4.189.218.366.366,0,0,0-.226.046q-1.86,1.125-3.714,2.258C831.044-109.037,831-109.014,830.938-108.979Zm1.086-2.012c.056-.031.095-.051.132-.074.807-.486,1.612-.974,2.422-1.456a.35.35,0,0,1,.226-.04,9.073,9.073,0,0,0,3.962-.082,7.87,7.87,0,0,0,4.4-2.743,5.994,5.994,0,0,0,.612-6.694,7.131,7.131,0,0,0-3.258-3.034,8.867,8.867,0,0,0-6.313-.576,7.582,7.582,0,0,0-4.117,2.612A5.877,5.877,0,0,0,829.1-117a6.741,6.741,0,0,0,2.831,3.307.23.23,0,0,1,.124.228c-.014.77-.022,1.54-.032,2.31C832.023-111.109,832.024-111.061,832.024-110.991Z" transform="translate(-827.528 127.161)" fill="#1a3253" stroke="#1a3253" stroke-width="0.2"/>
      <path id="Path_45" data-name="Path 45" d="M1161.225,129.695c.518-.014,1.028-.029,1.539-.039a.273.273,0,0,1,.147.051,5.555,5.555,0,0,0,4.187.949,6.568,6.568,0,0,0,.656-.106.264.264,0,0,1,.225.05q.854.6,1.713,1.2c.044.031.089.059.162.108v-.17c0-.616,0-1.232,0-1.848a.221.221,0,0,1,.119-.217,5.68,5.68,0,0,0,2.6-3.433,5.277,5.277,0,0,0-.979-4.681.4.4,0,0,1-.068-.232c.01-.479.03-.958.047-1.437,0-.021,0-.042.006-.082.041.032.07.051.095.074a6.624,6.624,0,0,1,2.192,4.178,6.4,6.4,0,0,1-1.341,4.765,6.88,6.88,0,0,1-1.4,1.375.243.243,0,0,0-.113.223c0,1.06,0,2.12,0,3.18v.137c-.057-.034-.1-.056-.135-.081q-1.494-.968-2.986-1.937a.351.351,0,0,0-.265-.062,7.931,7.931,0,0,1-4.871-.755,4.721,4.721,0,0,1-1.444-1.121C1161.278,129.756,1161.25,129.722,1161.225,129.695Z" transform="translate(-1152.154 -113.096)" fill="#1a3253" stroke="#1a3253" stroke-width="0.2"/>
      <path id="Path_46" data-name="Path 46" d="M999.184,104.25q-1.956,0-3.912,0a.569.569,0,1,1-.068-1.136c.036,0,.072,0,.109,0q3.878,0,7.757,0a.616.616,0,0,1,.5.192.566.566,0,0,1-.352.94,1.36,1.36,0,0,1-.19.007Z" transform="translate(-990.116 -96.851)" fill="#1a3253" stroke="#1a3253" stroke-width="0.2"/>
      <path id="Path_47" data-name="Path 47" d="M1039.584,229.646q-1.4,0-2.8,0a.553.553,0,0,1-.58-.45.563.563,0,0,1,.444-.67.913.913,0,0,1,.162-.012q2.778,0,5.556,0a.568.568,0,0,1,.57.337.559.559,0,0,1-.515.794c-.715.006-1.431,0-2.146,0Z" transform="translate(-1030.52 -218.844)" fill="#1a3253" stroke="#1a3253" stroke-width="0.2"/>
    </g>
  </g>
</svg>
