<svg xmlns="http://www.w3.org/2000/svg" width="18.309" height="22.886" viewBox="0 0 18.309 22.886">
  <g id="Group_430" data-name="Group 430" transform="translate(-7058.846 -793.5)">
    <g id="Group_429" data-name="Group 429" transform="translate(7170.154 1122.386) rotate(180)">
      <g id="Group_404" data-name="Group 404" transform="translate(93 306)">
        <g id="Group_403" data-name="Group 403">
          <g id="Rectangle_84" data-name="Rectangle 84" fill="#fff" stroke="#285078" stroke-width="1">
            <rect width="18.309" height="22.886" rx="3" stroke="none"/>
            <rect x="0.5" y="0.5" width="17.309" height="21.886" rx="2.5" fill="none"/>
          </g>
          <g id="Group_402" data-name="Group 402" transform="translate(3.432 5.721)">
            <g id="Group_401" data-name="Group 401" transform="translate(0 0)">
              <path id="Path_120" data-name="Path 120" d="M1000.412,104.559q-2.487,0-4.974,0a.723.723,0,1,1-.087-1.444c.046,0,.092,0,.138,0q4.931,0,9.862,0a.783.783,0,0,1,.638.245.72.72,0,0,1-.448,1.195,1.729,1.729,0,0,1-.241.008Z" transform="translate(-994.66 -98.534)" fill="#285078" stroke="#285078" stroke-width="0.2"/>
              <path id="Path_122" data-name="Path 122" d="M1000.412,104.559q-2.487,0-4.974,0a.723.723,0,1,1-.087-1.444c.046,0,.092,0,.138,0q4.931,0,9.862,0a.783.783,0,0,1,.638.245.72.72,0,0,1-.448,1.195,1.729,1.729,0,0,1-.241.008Z" transform="translate(-994.66 -103.111)" fill="#285078" stroke="#285078" stroke-width="0.2"/>
              <path id="Path_121" data-name="Path 121" d="M1000.412,104.559q-2.487,0-4.974,0a.723.723,0,1,1-.087-1.444c.046,0,.092,0,.138,0q4.931,0,9.862,0a.783.783,0,0,1,.638.245.72.72,0,0,1-.448,1.195,1.729,1.729,0,0,1-.241.008Z" transform="translate(-994.66 -93.957)" fill="#285078" stroke="#285078" stroke-width="0.2"/>
            </g>
          </g>
        </g>
      </g>
    </g>
    <g id="Group_381" data-name="Group 381" transform="translate(5126 -1239)">
      <g id="Group_378" data-name="Group 378" transform="translate(1940.194 2038.13)">
        <g id="Group_377" data-name="Group 377" transform="translate(0 0)">
          <g id="Path_110" data-name="Path 110" transform="translate(-291.752 -293.029)" fill="#285078">
            <path d="M 293.3307800292969 305.7911682128906 C 292.070556640625 305.7911682128906 291.0452880859375 304.7655029296875 291.0452880859375 303.5047912597656 C 291.0452880859375 302.658447265625 291.5077209472656 301.9180603027344 292.1931457519531 301.5230407714844 C 292.1896667480469 301.5169982910156 292.1862487792969 301.5108947753906 292.1828918457031 301.5047607421875 L 292.105712890625 301.3634338378906 L 292.0933837890625 301.202880859375 C 291.9441528320312 299.2627258300781 291.8094787597656 298.5450134277344 291.6389770507812 297.6363525390625 C 291.5217895507812 297.0117492675781 291.3889465332031 296.3038024902344 291.2265625 295.0853881835938 L 291.2257690429688 295.0794982910156 L 291.22509765625 295.0735778808594 C 291.1921081542969 294.7918701171875 291.1615905761719 294.5443420410156 291.134521484375 294.3246765136719 C 291.0547180175781 293.6771850585938 291.0020141601562 293.2494201660156 291.0020141601562 292.8809509277344 C 291.0020141601562 292.3133544921875 291.2748413085938 291.8512268066406 291.7702026367188 291.5797119140625 C 292.1445007324219 291.3745422363281 292.6345520019531 291.2789916992188 293.3124084472656 291.2789916992188 L 293.3492736816406 291.2789916992188 C 294.0352172851562 291.2789916992188 294.5282287597656 291.375 294.90087890625 291.5810852050781 C 295.3901672363281 291.8517150878906 295.6596374511719 292.3133544921875 295.6596374511719 292.8809509277344 C 295.6596374511719 293.2475891113281 295.6075439453125 293.6720886230469 295.5286865234375 294.3146667480469 C 295.5014343261719 294.5366821289062 295.4706726074219 294.7872619628906 295.4374084472656 295.0730285644531 C 295.2777709960938 296.3900451660156 295.1400146484375 297.1257629394531 295.0184936523438 297.7748718261719 C 294.8587646484375 298.6279602050781 294.7207946777344 299.3647155761719 294.5688171386719 301.2070007324219 L 294.5535278320312 301.392333984375 L 294.4697265625 301.5235290527344 C 295.155029296875 301.9186706542969 295.6172180175781 302.6587524414062 295.6172180175781 303.5047912597656 C 295.6172180175781 304.7655029296875 294.5915222167969 305.7911682128906 293.3307800292969 305.7911682128906 Z" stroke="none"/>
            <path d="M 293.3124084472656 292.0289916992188 C 292.24169921875 292.0289916992188 291.7520141601562 292.3007202148438 291.7520141601562 292.8809509277344 C 291.7520141601562 293.31689453125 291.842529296875 293.89794921875 291.9700012207031 294.986328125 C 292.3691101074219 297.9812622070312 292.5871276855469 297.8426513671875 292.8411560058594 301.1453552246094 C 292.9501647949219 301.3449401855469 293.6939086914062 301.3449096679688 293.8213500976562 301.1453552246094 C 294.0938110351562 297.8426513671875 294.3294067382812 297.9812622070312 294.6924438476562 294.986328125 C 294.8191223144531 293.89794921875 294.9096374511719 293.31689453125 294.9096374511719 292.8809509277344 C 294.9096374511719 292.3007202148438 294.4383850097656 292.0289916992188 293.3492736816406 292.0289916992188 L 293.3124084472656 292.0289916992188 M 293.3307800292969 301.9692687988281 C 292.48291015625 301.9692687988281 291.7952880859375 302.6568908691406 291.7952880859375 303.5047912597656 C 291.7952880859375 304.353515625 292.48291015625 305.0411682128906 293.3307800292969 305.0411682128906 C 294.1795654296875 305.0411682128906 294.8672180175781 304.353515625 294.8672180175781 303.5047912597656 C 294.8672180175781 302.6568908691406 294.1795654296875 301.9692687988281 293.3307800292969 301.9692687988281 M 293.3124084472656 290.5289916992188 L 293.3492736816406 290.5289916992188 C 294.1672973632812 290.5289916992188 294.7756652832031 290.6547546386719 295.2638549804688 290.9247741699219 C 295.9920349121094 291.3275146484375 296.4096374511719 292.04052734375 296.4096374511719 292.8809509277344 C 296.4096374511719 293.2934265136719 296.3553161621094 293.7360534667969 296.2731018066406 294.4060363769531 C 296.2460021972656 294.6266784667969 296.2154541015625 294.875732421875 296.182373046875 295.1597595214844 L 296.1815490722656 295.1668395996094 C 296.0194091796875 296.5043029785156 295.8793029785156 297.2526550292969 295.7556762695312 297.9129028320312 C 295.601318359375 298.7371520996094 295.4678344726562 299.4501647949219 295.3208312988281 301.2138671875 C 295.9614868164062 301.7708129882812 296.3672180175781 302.5913696289062 296.3672180175781 303.5047912597656 C 296.3672180175781 305.1790466308594 295.0050659179688 306.5411682128906 293.3307800292969 306.5411682128906 C 291.6570129394531 306.5411682128906 290.2952880859375 305.1790466308594 290.2952880859375 303.5047912597656 C 290.2952880859375 302.591064453125 290.7011108398438 301.7703247070312 291.3419494628906 301.2133483886719 C 291.1972961425781 299.3493347167969 291.0667419433594 298.653564453125 290.90185546875 297.7746887207031 C 290.7829284667969 297.1408996582031 290.6481323242188 296.4225769042969 290.483154296875 295.1844787597656 L 290.4801940917969 295.1608276367188 C 290.4473876953125 294.8807983398438 290.4170532226562 294.634765625 290.39013671875 294.4164123535156 C 290.3069763183594 293.7413940429688 290.2520141601562 293.2954711914062 290.2520141601562 292.8809509277344 C 290.2520141601562 292.039306640625 290.6739807128906 291.3252868652344 291.4097290039062 290.9220275878906 C 291.89892578125 290.6538696289062 292.5035095214844 290.5289916992188 293.3124084472656 290.5289916992188 Z" stroke="none" fill="#fff"/>
          </g>
        </g>
      </g>
    </g>
  </g>
</svg>
