<svg id="icons8-cancel" xmlns="http://www.w3.org/2000/svg" xmlns:xlink="http://www.w3.org/1999/xlink" width="52.09" height="52.09" viewBox="0 0 52.09 52.09">
  <defs>
    <linearGradient id="linear-gradient" x1="0.146" y1="0.146" x2="0.854" y2="0.854" gradientUnits="objectBoundingBox">
      <stop offset="0" stop-color="#fb5d67"/>
      <stop offset="0.443" stop-color="#ee3d4a"/>
      <stop offset="1" stop-color="#e52030"/>
    </linearGradient>
  </defs>
  <path id="Path_8939" data-name="Path 8939" d="M56.09,30.045A26.045,26.045,0,1,1,30.045,4,26.046,26.046,0,0,1,56.09,30.045Z" transform="translate(-4 -4)" fill="url(#linear-gradient)"/>
  <path id="Path_8942" data-name="Path 8942" d="M35.861,15.6,37.7,17.445a1.3,1.3,0,0,1,0,1.841L19.286,37.7a1.3,1.3,0,0,1-1.841,0L15.6,35.861a1.3,1.3,0,0,1,0-1.841L34.02,15.6A1.3,1.3,0,0,1,35.861,15.6Z" transform="translate(-0.608 -0.608)" fill="#fff"/>
  <path id="Path_8943" data-name="Path 8943" d="M37.7,35.861,35.861,37.7a1.3,1.3,0,0,1-1.841,0L15.6,19.286a1.3,1.3,0,0,1,0-1.841L17.445,15.6a1.3,1.3,0,0,1,1.841,0L37.7,34.02A1.3,1.3,0,0,1,37.7,35.861Z" transform="translate(-0.608 -0.608)" fill="#fff"/>
</svg>
