<svg xmlns="http://www.w3.org/2000/svg" width="24.448" height="21.225" viewBox="0 0 24.448 21.225">
  <g id="Group_7979" data-name="Group 7979" transform="translate(-2.343 -2.897)">
    <g id="Group_2197" data-name="Group 2197" transform="translate(2.396 2.947)">
      <path id="Path_217" data-name="Path 217" d="M246.4,34.839a.489.489,0,0,0,.41-.54V31.546a.426.426,0,1,0-.82,0V34.3A.489.489,0,0,0,246.4,34.839Z" transform="translate(-234.233 -31.006)" fill="#0b1131" stroke="#0b1131" stroke-width="0.1"/>
      <path id="Path_218" data-name="Path 218" d="M153.782,63.126a.41.41,0,1,0,.693-.437l-1.092-1.733a.41.41,0,1,0-.693.437Z" transform="translate(-144.692 -58.619)" fill="#0b1131" stroke="#0b1131" stroke-width="0.1"/>
      <path id="Path_219" data-name="Path 219" d="M312.938,63.255a.41.41,0,0,0,.565-.128l1.091-1.733a.41.41,0,1,0-.694-.437l-1.091,1.733A.41.41,0,0,0,312.938,63.255Z" transform="translate(-298.25 -58.62)" fill="#0b1131" stroke="#0b1131" stroke-width="0.1"/>
      <path id="Path_220" data-name="Path 220" d="M24.189,124.391l-.826-1.459a.475.475,0,1,0-.827.468l.826,1.459a.235.235,0,0,1,.021.18.224.224,0,0,1-.106.136L22,125.88a.241.241,0,0,1-.322-.086l-.323-.572,0-.007L18.008,119.3a.232.232,0,0,1-.021-.178.223.223,0,0,1,.106-.135l1.275-.705a.237.237,0,0,1,.321.086l3.147,5.523a.475.475,0,1,0,.828-.468L20.517,117.9a1.19,1.19,0,0,0-1.609-.45l-1.275.705a1.181,1.181,0,0,0-.48,1.561l-.7.2a2.765,2.765,0,0,1-.581.133h0a1.188,1.188,0,0,1-.361-.109c-.1-.037-.22-.083-.37-.136l-1.244-.435a2.85,2.85,0,0,0-1.448-.186l-2.121.19a2.865,2.865,0,0,0-1.924.682l-1.209-.35a1.181,1.181,0,0,0-.483-1.554l-1.274-.706a1.191,1.191,0,0,0-1.61.45L.154,124.39a1.183,1.183,0,0,0,.451,1.616l1.274.706a1.192,1.192,0,0,0,1.61-.45l.135-.238a2.233,2.233,0,0,1,.886.675,1.6,1.6,0,0,0,1.032,2.622,1.594,1.594,0,0,0,1.4,1.753,1.594,1.594,0,0,0,1.4,1.753,1.6,1.6,0,0,0,2.588,1.415l1-.8a1.6,1.6,0,0,0,.216-.208l.569.454a1.6,1.6,0,0,0,2.566-.941,1.589,1.589,0,0,0,.521.087,1.639,1.639,0,0,0,.181-.01,1.6,1.6,0,0,0,1.412-1.754,1.592,1.592,0,0,0,1.4-1.753,1.6,1.6,0,0,0,1.032-2.622,2.224,2.224,0,0,1,.885-.675l.135.239a1.192,1.192,0,0,0,1.61.45l1.273-.705a1.184,1.184,0,0,0,.453-1.616Zm-21.527,1.4a.241.241,0,0,1-.322.086l-1.274-.706a.224.224,0,0,1-.106-.136.233.233,0,0,1,.021-.179l3.671-6.492a.232.232,0,0,1,.2-.116.244.244,0,0,1,.118.031l1.274.705h0a.223.223,0,0,1,.106.135.232.232,0,0,1-.021.179Zm3.47,2.447a.647.647,0,0,1-.809-1.01l1.78-1.423a.65.65,0,0,1,.912.1.648.648,0,0,1-.1.907l-.008.007L6.132,128.24Zm.493,1.651a.649.649,0,0,1,.1-.909h0l2.564-2.048a.65.65,0,0,1,.912.1.649.649,0,0,1-.1.909l-2.563,2.048a.65.65,0,0,1-.912-.1Zm1.838,1.992a.647.647,0,0,1-.333-1.147h0L9.9,129.318l.006,0a.65.65,0,0,1,.911.1.649.649,0,0,1-.1.909l-1.78,1.423a.646.646,0,0,1-.477.137Zm3.115.386a.642.642,0,0,1-.238.434l-1,.8a.65.65,0,0,1-.912-.1.649.649,0,0,1,.1-.909h0l1-.8h0a.65.65,0,0,1,.912.1A.64.64,0,0,1,11.577,132.27Zm7.544-4.13a.652.652,0,0,1-.911.1h0l-1.272-1.016a.475.475,0,0,0-.594.743l1.272,1.016a.647.647,0,1,1-.809,1.01l-1.38-1.1a.475.475,0,1,0-.593.743l1.379,1.1a.648.648,0,0,1-.81,1.012l-.687-.549,0,0-.58-.464-.108-.087a.475.475,0,0,0-.594.743l.69.552a.648.648,0,0,1-.811,1.01l-.783-.626a1.591,1.591,0,0,0-.914-1.571,1.6,1.6,0,0,0-.62-2.38,1.6,1.6,0,0,0-1.924-2.4,1.586,1.586,0,0,0-.312-.654,1.6,1.6,0,0,0-2.247-.251l-1.273,1.018a3.132,3.132,0,0,0-1.142-.889l2.619-4.632,1.394.4a1.554,1.554,0,0,0,.039.236c.338,1.388,1.615,2.034,3.335,1.688,1.449-.291,2.045.143,3.233,1.008.123.09.251.183.385.279.854.613,1.767,1.333,2.379,1.821l1.543,1.233a.649.649,0,0,1,.1.909Zm-.015-2.058-1.036-.828c-.621-.495-1.546-1.225-2.418-1.851-.132-.095-.258-.186-.38-.275-1.232-.9-2.122-1.545-3.98-1.171-.569.115-1.924.249-2.223-.98-.042-.173,0-.233.019-.259.064-.089.319-.3,1.32-.393l2.123-.19a1.947,1.947,0,0,1,1.048.137l1.244.435c.138.048.249.09.347.127a1.822,1.822,0,0,0,1.545,0l.917-.266,2.615,4.626A3.124,3.124,0,0,0,19.106,126.082Z" transform="translate(0 -113.467)" fill="#0b1131" stroke="#0b1131" stroke-width="0.1"/>
    </g>
  </g>
</svg>
