<svg id="icons8-checkmark_1_" data-name="icons8-checkmark (1)" xmlns="http://www.w3.org/2000/svg" xmlns:xlink="http://www.w3.org/1999/xlink" width="52.09" height="52.09" viewBox="0 0 52.09 52.09">
  <defs>
    <linearGradient id="linear-gradient" x1="0.146" y1="0.146" x2="0.854" y2="0.854" gradientUnits="objectBoundingBox">
      <stop offset="0" stop-color="#2efd95"/>
      <stop offset="1" stop-color="#00bd59"/>
    </linearGradient>
  </defs>
  <path id="Path_8937" data-name="Path 8937" d="M56.09,30.045A26.045,26.045,0,1,1,30.045,4,26.046,26.046,0,0,1,56.09,30.045Z" transform="translate(-4 -4)" fill="url(#linear-gradient)"/>
  <path id="Path_8938" data-name="Path 8938" d="M23.8,37.58,13.382,27.162a1.3,1.3,0,0,1,0-1.841l1.841-1.841a1.3,1.3,0,0,1,1.841,0l7.656,7.656L38.887,16.968a1.3,1.3,0,0,1,1.841,0l1.841,1.841a1.3,1.3,0,0,1,0,1.841L25.641,37.58A1.3,1.3,0,0,1,23.8,37.58Z" transform="translate(-1.28 -0.196)" fill="#fff"/>
</svg>
