<svg xmlns="http://www.w3.org/2000/svg" width="26.187" height="26.184" viewBox="0 0 26.187 26.184">
  <g id="Group_7970" data-name="Group 7970" transform="translate(-0.5 -0.5)">
    <g id="Path_72" data-name="Path 72" transform="translate(-254.415 -1803.237)" fill="#0b1131">
      <path d="M 268.0869750976562 1826.809204101562 C 268.0557556152344 1826.809204101562 268.0245971679688 1826.80908203125 267.9935607910156 1826.80908203125 C 267.9710693359375 1826.80908203125 267.9486389160156 1826.80908203125 267.9261779785156 1826.809204101562 C 267.0761108398438 1825.29248046875 265.5933532714844 1824.684326171875 264.9244079589844 1824.409912109375 C 264.3139038085938 1824.159423828125 263.3901977539062 1823.7802734375 262.2818298339844 1823.7802734375 C 261.8502197265625 1823.7802734375 261.4310302734375 1823.835693359375 261.0255737304688 1823.946044921875 C 260.9817810058594 1823.902099609375 260.9379272460938 1823.858276367188 260.8938903808594 1823.814331054688 C 261.3735961914062 1822.102783203125 260.7214965820312 1820.605590820312 260.462158203125 1820.01025390625 L 260.4299621582031 1819.936279296875 C 260.0842590332031 1819.141235351562 259.471435546875 1817.73193359375 258.0340881347656 1816.908081054688 C 258.0341796875 1816.8603515625 258.0341796875 1816.812622070312 258.0341796875 1816.765014648438 C 259.1881713867188 1816.153076171875 260.0209045410156 1815.103271484375 260.4070434570312 1813.731689453125 C 261.1257629394531 1812.462768554688 261.2897033691406 1811.104736328125 260.9038696289062 1809.832153320312 C 260.9259948730469 1809.809936523438 260.9480895996094 1809.78759765625 260.9700927734375 1809.765258789062 C 261.4179077148438 1809.942016601562 261.8809814453125 1810.031005859375 262.3545837402344 1810.031005859375 C 262.9641723632812 1810.031005859375 263.57177734375 1809.880493164062 264.1605529785156 1809.58349609375 C 264.36669921875 1809.4794921875 264.6368103027344 1809.37158203125 264.9227905273438 1809.257202148438 C 265.2499084472656 1809.12646484375 265.6206665039062 1808.978271484375 266.0057983398438 1808.793334960938 C 266.8868103027344 1808.369995117188 267.5801086425781 1807.67138671875 267.9590148925781 1806.851318359375 C 267.9957885742188 1806.8515625 268.0325622558594 1806.851928710938 268.0693054199219 1806.852416992188 C 268.8564758300781 1808.2607421875 270.2083435058594 1808.865356445312 270.9673767089844 1809.204956054688 L 271.0177917480469 1809.2275390625 C 271.7502746582031 1809.555419921875 272.6409606933594 1809.890380859375 273.6969604492188 1809.890380859375 C 274.1373596191406 1809.890380859375 274.5655212402344 1809.832885742188 274.979736328125 1809.718383789062 C 275.0233764648438 1809.762329101562 275.0670166015625 1809.80615234375 275.1104736328125 1809.849609375 C 274.6524353027344 1811.470092773438 275.2308654785156 1812.891845703125 275.5221557617188 1813.608032226562 C 275.8072509765625 1814.308959960938 276.43798828125 1815.859985351562 277.9966430664062 1816.75048828125 C 277.9967346191406 1816.800903320312 277.996826171875 1816.851318359375 277.9969177246094 1816.901489257812 C 276.8346862792969 1817.5029296875 276.0030822753906 1818.532836914062 275.6310119628906 1819.868408203125 C 274.9004821777344 1821.160888671875 274.7281494140625 1822.538208007812 275.1089782714844 1823.82763671875 C 275.0691833496094 1823.8671875 275.0298156738281 1823.906494140625 274.9906921386719 1823.94580078125 C 274.5779418945312 1823.828857421875 274.1509094238281 1823.770141601562 273.7113037109375 1823.770141601562 C 272.7611083984375 1823.770141601562 271.957275390625 1824.0458984375 271.2301330566406 1824.343994140625 C 270.4681091308594 1824.65625 268.9586181640625 1825.275146484375 268.0869750976562 1826.809204101562 Z" stroke="none"/>
      <path d="M 268.0798950195312 1811.183227539062 C 267.8451843261719 1811.330932617188 267.600830078125 1811.466186523438 267.3478088378906 1811.587768554688 L 263.9880676269531 1813.0595703125 C 263.8327026367188 1813.692749023438 263.5979614257812 1814.319213867188 263.2833862304688 1814.929809570312 C 263.0494079589844 1815.649047851562 262.7321472167969 1816.312377929688 262.3407897949219 1816.91162109375 C 262.8197937011719 1817.658447265625 263.1179504394531 1818.343872070312 263.3042907714844 1818.772338867188 C 263.6229858398438 1819.504028320312 263.8427429199219 1820.19970703125 263.98046875 1820.858276367188 C 264.8990173339844 1821.048583984375 265.6304321289062 1821.348754882812 266.1007690429688 1821.541870117188 C 266.8261413574219 1821.83935546875 267.4595336914062 1822.176513671875 268.0122375488281 1822.54248046875 C 268.6191101074219 1822.140625 269.2999877929688 1821.784790039062 270.0544738769531 1821.4755859375 C 270.6145629882812 1821.245971679688 271.24853515625 1821.013549804688 271.9707336425781 1820.857788085938 C 272.1253967285156 1820.11669921875 272.38671875 1819.381958007812 272.7549743652344 1818.66845703125 C 272.9806823730469 1817.976196289062 273.2882690429688 1817.3349609375 273.6685791015625 1816.753662109375 C 273.2860717773438 1816.1630859375 272.9466552734375 1815.50390625 272.650634765625 1814.776000976562 C 272.3795166015625 1814.109497070312 272.177490234375 1813.458251953125 272.0443115234375 1812.822387695312 C 271.1349182128906 1812.637573242188 270.3555908203125 1812.327514648438 269.7013854980469 1812.03466796875 C 269.3345642089844 1811.87060546875 268.740966796875 1811.605102539062 268.0798950195312 1811.183227539062 M 266.4505004882812 1803.737426757812 C 266.7095642089844 1803.737426757812 267.0314025878906 1803.763427734375 267.4442138671875 1803.75390625 C 267.8844604492188 1803.744018554688 268.3255615234375 1803.758911132812 268.7659606933594 1803.758911132812 C 268.9783325195312 1803.758911132812 269.1904907226562 1803.75537109375 269.4022827148438 1803.743896484375 C 270.0390930175781 1803.7099609375 270.513427734375 1803.97021484375 270.56640625 1804.577514648438 C 270.6637878417969 1805.693725585938 271.3899841308594 1805.99755859375 272.2848510742188 1806.398315429688 C 273.264892578125 1806.837158203125 274.045166015625 1807.037353515625 274.9391784667969 1806.295776367188 C 275.3138732910156 1805.985229492188 275.7813110351562 1806.083618164062 276.1586608886719 1806.480102539062 C 276.8405456542969 1807.196166992188 277.5305786132812 1807.907348632812 278.25830078125 1808.575927734375 C 278.7393188476562 1809.017822265625 278.8457336425781 1809.545288085938 278.4810791015625 1809.994140625 C 277.7998352050781 1810.83251953125 278.0263366699219 1811.536865234375 278.3936767578125 1812.43994140625 C 278.7990112304688 1813.4365234375 279.1888122558594 1814.195434570312 280.3825073242188 1814.300903320312 C 280.8890075683594 1814.345458984375 281.1067810058594 1814.785888671875 281.1011352539062 1815.309936523438 C 281.0907897949219 1816.279052734375 281.1007080078125 1817.248291015625 281.0978088378906 1818.2177734375 C 281.095458984375 1818.976440429688 280.9153442382812 1819.336059570312 280.172607421875 1819.432983398438 C 279.2036743164062 1819.559204101562 278.717041015625 1820.046264648438 278.5596923828125 1820.958129882812 C 278.5498352050781 1821.015258789062 278.5319519042969 1821.0771484375 278.4994201660156 1821.124267578125 C 277.8839111328125 1822.01318359375 277.7866821289062 1822.859375 278.5369567871094 1823.763916015625 C 278.8660278320312 1824.160400390625 278.7284851074219 1824.6435546875 278.31982421875 1825.03125 C 277.6026306152344 1825.712158203125 276.8973083496094 1826.407470703125 276.2239074707031 1827.130981445312 C 275.7918090820312 1827.595458984375 275.2772216796875 1827.662353515625 274.8502502441406 1827.315063476562 C 274.0200500488281 1826.64013671875 273.3141784667969 1826.839965820312 272.4057922363281 1827.21240234375 C 271.4128112792969 1827.619384765625 270.6509704589844 1828.00244140625 270.5393371582031 1829.194458007812 C 270.4931335449219 1829.688354492188 270.0662841796875 1829.931884765625 269.5338134765625 1829.92041015625 C 268.525146484375 1829.905883789062 267.515869140625 1829.904174804688 266.5072021484375 1829.921020507812 C 265.9244995117188 1829.93115234375 265.4955139160156 1829.682861328125 265.4443359375 1829.116943359375 C 265.3458251953125 1828.02783203125 264.6801452636719 1827.660400390625 263.7480163574219 1827.278076171875 C 262.7772521972656 1826.879760742188 261.9960327148438 1826.60107421875 261.0873718261719 1827.349487304688 C 260.7001037597656 1827.66845703125 260.2121276855469 1827.572509765625 259.8172302246094 1827.1533203125 C 259.1258239746094 1826.419311523438 258.4110412597656 1825.705688476562 257.6785888671875 1825.01220703125 C 257.23828125 1824.595336914062 257.174072265625 1824.107421875 257.5155029296875 1823.6904296875 C 258.1889343261719 1822.86767578125 258.0150451660156 1822.155029296875 257.6200561523438 1821.248168945312 C 257.2007141113281 1820.285888671875 256.8746337890625 1819.462646484375 255.6523742675781 1819.369140625 C 255.1275024414062 1819.328735351562 254.9029541015625 1818.872680664062 254.9159240722656 1818.315673828125 C 254.9389343261719 1817.3271484375 254.9414672851562 1816.337036132812 254.915283203125 1815.3486328125 C 254.8988647460938 1814.72900390625 255.1697998046875 1814.313720703125 255.757080078125 1814.256591796875 C 256.791748046875 1814.156127929688 257.3068237304688 1813.586791992188 257.4856262207031 1812.62109375 C 257.4962158203125 1812.563842773438 257.5173034667969 1812.503540039062 257.5502014160156 1812.456420898438 C 258.1328430175781 1811.620483398438 258.2115173339844 1810.829345703125 257.5162658691406 1809.974609375 C 257.1627502441406 1809.5400390625 257.2633666992188 1809.03369140625 257.7231750488281 1808.606201171875 C 258.4616088867188 1807.919921875 259.1489562988281 1807.1787109375 259.8738403320312 1806.477172851562 C 260.048095703125 1806.30859375 260.2846984863281 1806.2041015625 260.5462646484375 1806.03564453125 C 261.0220642089844 1806.291137695312 261.4834289550781 1806.507690429688 261.9101867675781 1806.778930664062 C 262.2088623046875 1806.968383789062 262.4365539550781 1806.981079101562 262.7644653320312 1806.815673828125 C 263.3785705566406 1806.505859375 264.0430603027344 1806.296997070312 264.6637878417969 1805.998901367188 C 264.8746032714844 1805.897583007812 265.1275634765625 1805.677490234375 265.173095703125 1805.470581054688 C 265.5130615234375 1803.923217773438 265.7570495605469 1803.737426757812 266.4505004882812 1803.737426757812 Z" stroke="none" fill="#03a9f5"/>
    </g>
    <circle id="Ellipse_198" data-name="Ellipse 198" cx="5.5" cy="5.5" r="5.5" transform="translate(8.093 8.092)" fill="#fff"/>
  </g>
</svg>
