<svg xmlns="http://www.w3.org/2000/svg" width="32" height="32" viewBox="0 0 32 32">
  <g id="Group_2736" data-name="Group 2736" transform="translate(-86 -818)">
    <g id="Group_2734" data-name="Group 2734" transform="translate(1015 -1872)">
      <g id="Group_2735" data-name="Group 2735" transform="translate(-945.865 2023.339)">
        <g id="Group_2734-2" data-name="Group 2734" transform="translate(23.229 673)">
          <path id="Path_103" data-name="Path 103" d="M15.865,0H8.279A4.1,4.1,0,0,0,4.372,2.871H4.093A4.1,4.1,0,0,0,0,6.964v7.531a4.1,4.1,0,0,0,4.093,4.093H11.68a4.1,4.1,0,0,0,3.907-2.871h.279a4.1,4.1,0,0,0,4.093-4.093V4.093A4.1,4.1,0,0,0,15.865,0Zm2.924,11.624a2.927,2.927,0,0,1-2.924,2.924h-.093c0-.018,0-.035,0-.053V6.964A4.1,4.1,0,0,0,11.68,2.871H5.624a2.927,2.927,0,0,1,2.655-1.7h7.587a2.927,2.927,0,0,1,2.924,2.924ZM11.68,17.419H4.093a2.927,2.927,0,0,1-2.924-2.924V6.964A2.927,2.927,0,0,1,4.093,4.04H11.68A2.927,2.927,0,0,1,14.6,6.964v7.531A2.927,2.927,0,0,1,11.68,17.419Z" transform="translate(0 0)" fill="#285078"/>
          <path id="Path_104" data-name="Path 104" d="M120.464,245.216a2.678,2.678,0,0,1,2.676,2.675.585.585,0,1,0,1.169,0,3.849,3.849,0,0,0-3.845-3.845.585.585,0,1,0,0,1.169Z" transform="translate(-115.206 -234.534)" fill="#285078"/>
          <path id="Path_105" data-name="Path 105" d="M114.245,304.634a.6.6,0,0,1,.6.6.585.585,0,0,0,1.169,0,1.773,1.773,0,0,0-1.771-1.771.585.585,0,1,0,0,1.169Z" transform="translate(-109.229 -291.636)" fill="#285078"/>
          <path id="Path_106" data-name="Path 106" d="M128.78,187.767a4.6,4.6,0,0,1,4.591,4.591.585.585,0,1,0,1.169,0,5.767,5.767,0,0,0-5.76-5.76.585.585,0,1,0,0,1.169Z" transform="translate(-123.198 -179.324)" fill="#285078"/>
        </g>
      </g>
      <line id="Line_107" data-name="Line 107" x1="21" y2="22" transform="translate(-923.5 2695.5)" fill="none" stroke="#c75a5a" stroke-width="3" opacity="0.85"/>
      <g id="Ellipse_79" data-name="Ellipse 79" transform="translate(-929 2690)" fill="none" stroke="#285078" stroke-width="1.5">
        <circle cx="16" cy="16" r="16" stroke="none"/>
        <circle cx="16" cy="16" r="15.25" fill="none"/>
      </g>
    </g>
  </g>
</svg>
