<svg xmlns="http://www.w3.org/2000/svg" width="32" height="33" viewBox="0 0 32 33">
  <g id="Group_3266" data-name="Group 3266" transform="translate(-21 -790)">
    <g id="Group_3264" data-name="Group 3264" transform="translate(0 137)">
      <g id="Group_2774" data-name="Group 2774" transform="translate(0 -58)">
        <g id="Ellipse_80" data-name="Ellipse 80" transform="translate(21 711)" fill="none" stroke="#285078" stroke-width="1.5">
          <circle cx="15.5" cy="15.5" r="15.5" stroke="none"/>
          <circle cx="15.5" cy="15.5" r="14.75" fill="none"/>
        </g>
      </g>
    </g>
    <g id="Group_3263" data-name="Group 3263" transform="translate(-2457.6 4352)">
      <g id="Group_2235" data-name="Group 2235" transform="translate(2482 -3556)">
        <path id="Path_227" data-name="Path 227" d="M944.178-123.315a6.753,6.753,0,0,0-6.318-5.731,6.873,6.873,0,0,0-4.9,1.616c-.124.1-.242.211-.366.32-.035-.029-.065-.052-.094-.078a6.779,6.779,0,0,0-5.748-1.681,6.992,6.992,0,0,0-5.867,6.282,6.658,6.658,0,0,0,1.458,4.915c.348.438.768.819,1.155,1.226l.113.12.418.379c.371.336.962.871,1.664,1.5l.412.371c.524.472,1.094.984,1.669,1.5l.411.368c.576.515,1.15,1.026,1.68,1.495l.435.383c.7.611,1.289,1.125,1.679,1.448a4.991,4.991,0,0,0,.451.348,1.719,1.719,0,0,0,2.9-1.143,1.676,1.676,0,0,0,1.881-.009,1.688,1.688,0,0,0,.748-1.733,1.717,1.717,0,0,0,1.518-.478,1.711,1.711,0,0,0,.479-1.518,1.66,1.66,0,0,0,1.777-.817,1.67,1.67,0,0,0-.392-2.2c.318-.316.634-.615.933-.93A6.8,6.8,0,0,0,944.178-123.315Zm-3.042,8.974a1.13,1.13,0,0,1-1.522.178,1.739,1.739,0,0,1-.185-.166l-2.3-2.3a.9.9,0,0,0-.119-.109.274.274,0,0,0-.359.041.27.27,0,0,0-.021.349,1.135,1.135,0,0,0,.11.118q1.171,1.171,2.343,2.342a1.066,1.066,0,0,1,.287,1.118,1.081,1.081,0,0,1-.845.789,1.088,1.088,0,0,1-1.059-.318l-2.334-2.331a1.144,1.144,0,0,0-.107-.1.28.28,0,0,0-.362.018.278.278,0,0,0-.026.373,1.309,1.309,0,0,0,.111.117q1.166,1.165,2.333,2.332a1.067,1.067,0,0,1,.293,1.1,1.084,1.084,0,0,1-.834.8,1.085,1.085,0,0,1-1.073-.314q-1.178-1.176-2.355-2.351a.48.48,0,0,0-.175-.125.255.255,0,0,0-.317.118.262.262,0,0,0,.036.337c.156.162.317.319.476.478.439.439.883.873,1.316,1.317a1.115,1.115,0,0,1,.043,1.508A1.133,1.133,0,0,1,933-108.8c-.033-.021-.063-.047-.095-.069h0a.343.343,0,0,1-.073-.064l-.519-.456-1.543-1.358-.464-.408-1.693-1.491-.411-.362-1.689-1.49-.408-.361c-.71-.628-1.308-1.159-1.685-1.5-.22-.2-.364-.328-.41-.373-.288-.286-.579-.561-.853-.851a6.16,6.16,0,0,1-1.739-4.843,6.426,6.426,0,0,1,5.285-5.878,6.21,6.21,0,0,1,5.359,1.474c.04.034.077.072.159.151a.869.869,0,0,0-.159.1q-1.921,1.914-3.838,3.832a2.353,2.353,0,0,0-.41,2.821,2.346,2.346,0,0,0,3.7.493c.71-.7,1.409-1.411,2.118-2.111a1.217,1.217,0,0,1,1.323-.3.987.987,0,0,1,.371.223q2.885,2.868,5.758,5.748A1.115,1.115,0,0,1,941.136-114.341Zm.774-3.446c-.3.33-.631.639-.986,1a1.157,1.157,0,0,0-.115-.169q-2.477-2.477-4.957-4.952a1.8,1.8,0,0,0-2.619,0c-.7.7-1.4,1.406-2.107,2.1a1.787,1.787,0,0,1-2.9-.525,1.792,1.792,0,0,1,.39-2.013q2.144-2.147,4.293-4.289a6.225,6.225,0,0,1,1.362-1.032,6.282,6.282,0,0,1,9.251,3.948A6.2,6.2,0,0,1,941.91-117.787Z" transform="translate(-920.851 129.058)" fill="#285078" stroke="#285078" stroke-width="1"/>
      </g>
    </g>
    <g id="Group_381" data-name="Group 381" transform="translate(-1890.377 -1231.706)">
      <g id="Group_378" data-name="Group 378" transform="translate(1937.194 2035.466)">
        <g id="Group_377" data-name="Group 377" transform="translate(0 0)">
          <g id="Path_110" data-name="Path 110" transform="translate(-291.752 -292.029)" fill="#285078">
            <path d="M 293.8437805175781 310.2693176269531 C 292.1706237792969 310.2693176269531 290.8094177246094 308.9075622558594 290.8094177246094 307.2337036132812 C 290.8094177246094 306.1122741699219 291.4208679199219 305.1310119628906 292.327880859375 304.6057739257812 C 292.3243408203125 304.5995483398438 292.3208618164062 304.5932922363281 292.3174438476562 304.5870056152344 L 292.2144470214844 304.3984985351562 L 292.1979675292969 304.184326171875 C 292.0003356933594 301.6140747070312 291.8219299316406 300.6632995605469 291.5960388183594 299.4595336914062 C 291.4407653808594 298.6318969726562 291.2647399902344 297.6938171386719 291.0495910644531 296.0794067382812 L 291.0485534667969 296.0715637207031 L 291.047607421875 296.0636596679688 C 291.0039367675781 295.6906433105469 290.9635314941406 295.3628540039062 290.9276733398438 295.0719299316406 C 290.8218994140625 294.2135620117188 290.7520141601562 293.6465148925781 290.7520141601562 293.1578674316406 C 290.7520141601562 292.4034118652344 291.1146545410156 291.7891540527344 291.7731018066406 291.42822265625 C 292.2699890136719 291.1558532714844 292.9202270507812 291.0289916992188 293.8194274902344 291.0289916992188 L 293.8682556152344 291.0289916992188 C 294.7781982421875 291.0289916992188 295.4324340820312 291.1564331054688 295.9271240234375 291.4300842285156 C 296.5774841308594 291.789794921875 296.9356384277344 292.4034118652344 296.9356384277344 293.1578674316406 C 296.9356384277344 293.6437683105469 296.8666381835938 294.2060546875 296.7622375488281 295.0570983886719 C 296.7261047363281 295.3515319824219 296.6853332519531 295.683837890625 296.6412353515625 296.0628967285156 C 296.4296875 297.80810546875 296.2471313476562 298.7829895019531 296.0860900878906 299.6431274414062 C 295.8744812011719 300.7732849121094 295.6917114257812 301.7492980957031 295.4903564453125 304.1898803710938 L 295.469970703125 304.4369506835938 L 295.3616638183594 304.6065368652344 C 296.2684020996094 305.1319580078125 296.8794860839844 306.11279296875 296.8794860839844 307.2337036132812 C 296.8794860839844 308.9075622558594 295.5176696777344 310.2693176269531 293.8437805175781 310.2693176269531 Z" stroke="none"/>
            <path d="M 293.8194274902344 292.0289916992188 C 292.40087890625 292.0289916992188 291.7520141601562 292.3890380859375 291.7520141601562 293.1578674316406 C 291.7520141601562 293.7354125976562 291.8719177246094 294.5052490234375 292.0408325195312 295.9473266601562 C 292.5696105957031 299.9153442382812 292.8585205078125 299.7318115234375 293.1950378417969 304.1076354980469 C 293.3395080566406 304.3721008300781 294.3248596191406 304.3721008300781 294.4937438964844 304.1076354980469 C 294.8547668457031 299.7318115234375 295.1669311523438 299.9153442382812 295.6479187011719 295.9473266601562 C 295.8157043457031 294.5052490234375 295.9356384277344 293.7354125976562 295.9356384277344 293.1578674316406 C 295.9356384277344 292.3890380859375 295.311279296875 292.0289916992188 293.8682556152344 292.0289916992188 L 293.8194274902344 292.0289916992188 M 293.8437805175781 305.1992797851562 C 292.7203674316406 305.1992797851562 291.8094177246094 306.1102905273438 291.8094177246094 307.2337036132812 C 291.8094177246094 308.3582763671875 292.7203674316406 309.2693176269531 293.8437805175781 309.2693176269531 C 294.9683837890625 309.2693176269531 295.8794860839844 308.3582763671875 295.8794860839844 307.2337036132812 C 295.8794860839844 306.1102905273438 294.9683837890625 305.1992797851562 293.8437805175781 305.1992797851562 M 293.8194274902344 290.0289916992188 L 293.8682556152344 290.0289916992188 C 294.954345703125 290.0289916992188 295.7623596191406 290.1961364746094 296.4111328125 290.5550231933594 C 297.3799743652344 291.0909423828125 297.9356384277344 292.0396423339844 297.9356384277344 293.1578674316406 C 297.9356384277344 293.7048950195312 297.8636779785156 294.2912902832031 297.7547912597656 295.1788940429688 C 297.7188720703125 295.4714965820312 297.6783447265625 295.8017578125 297.634521484375 296.178466796875 L 297.6333923339844 296.18798828125 C 297.4185485839844 297.96044921875 297.2328491210938 298.9521789550781 297.0690002441406 299.8271789550781 C 296.8647766113281 300.9179382324219 296.6880493164062 301.8616943359375 296.4935302734375 304.1930847167969 C 297.3423767089844 304.9332580566406 297.8794860839844 306.0218811035156 297.8794860839844 307.2337036132812 C 297.8794860839844 309.4589538574219 296.0690612792969 311.2693176269531 293.8437805175781 311.2693176269531 C 291.6192321777344 311.2693176269531 289.8094177246094 309.4589538574219 289.8094177246094 307.2337036132812 C 289.8094177246094 306.0216064453125 290.3467102050781 304.9326171875 291.1956481933594 304.1924743652344 C 291.0042724609375 301.7281799316406 290.8314514160156 300.8070678710938 290.6131896972656 299.6439514160156 C 290.4555969238281 298.8041076660156 290.2769775390625 297.8522033691406 290.058349609375 296.2115173339844 L 290.0544128417969 296.1799926757812 C 290.010986328125 295.8092346191406 289.9708251953125 295.4834289550781 289.9351806640625 295.1942443847656 C 289.8248901367188 294.2991943359375 289.7520141601562 293.7078857421875 289.7520141601562 293.1578674316406 C 289.7520141601562 292.0379943847656 290.3134765625 291.0879211425781 291.2924194335938 290.5513305664062 C 291.9425354003906 290.1949462890625 292.7455139160156 290.0289916992188 293.8194274902344 290.0289916992188 Z" stroke="none" fill="#fff"/>
          </g>
        </g>
      </g>
    </g>
  </g>
</svg>
