<svg xmlns="http://www.w3.org/2000/svg" width="17.819" height="13.465" viewBox="0 0 17.819 13.465">
  <g id="Group_7935" data-name="Group 7935" transform="translate(0.4 0.4)">
    <g id="Group_8033" data-name="Group 8033">
      <path id="Path_227" data-name="Path 227" d="M934.16-125.782a3.853,3.853,0,0,0-3.6-3.27,3.922,3.922,0,0,0-2.8.922c-.07.058-.138.12-.209.183l-.054-.044a3.868,3.868,0,0,0-3.279-.959,3.989,3.989,0,0,0-3.348,3.584,3.8,3.8,0,0,0,.832,2.8c.2.25.438.467.659.7l.064.068.238.216.949.858.235.212c.3.269.624.561.952.855l.234.21c.329.294.656.585.959.853l.248.219c.4.349.735.642.958.826a2.836,2.836,0,0,0,.257.2.981.981,0,0,0,1.653-.652.956.956,0,0,0,1.073-.005.963.963,0,0,0,.427-.989.979.979,0,0,0,.866-.273.976.976,0,0,0,.273-.866.947.947,0,0,0,1.014-.466.953.953,0,0,0-.223-1.255c.181-.18.362-.351.532-.531A3.879,3.879,0,0,0,934.16-125.782Zm-1.736,5.12a.644.644,0,0,1-.869.1.993.993,0,0,1-.106-.095l-1.314-1.312a.514.514,0,0,0-.068-.062.156.156,0,0,0-.205.024.154.154,0,0,0-.012.2.645.645,0,0,0,.063.067q.668.668,1.337,1.336a.608.608,0,0,1,.164.638.617.617,0,0,1-.482.45.621.621,0,0,1-.6-.182L929-120.826a.642.642,0,0,0-.061-.057.16.16,0,0,0-.207.011.159.159,0,0,0-.015.213.749.749,0,0,0,.063.067q.665.665,1.331,1.33a.609.609,0,0,1,.167.629.618.618,0,0,1-.476.457.619.619,0,0,1-.612-.179q-.672-.671-1.344-1.341a.274.274,0,0,0-.1-.072.145.145,0,0,0-.181.067.15.15,0,0,0,.02.192c.089.093.181.182.271.273.25.25.5.5.751.752a.636.636,0,0,1,.025.86.647.647,0,0,1-.847.126c-.019-.012-.036-.027-.054-.039h0a.2.2,0,0,1-.042-.037l-.3-.26-.88-.775-.265-.233-.966-.851-.234-.207-.964-.85-.233-.206c-.4-.358-.747-.661-.961-.854-.125-.112-.208-.187-.234-.213-.164-.163-.33-.32-.486-.485a3.514,3.514,0,0,1-.992-2.763,3.666,3.666,0,0,1,3.015-3.354,3.543,3.543,0,0,1,3.057.841c.023.019.044.041.091.086a.5.5,0,0,0-.091.057q-1.1,1.092-2.19,2.186a1.342,1.342,0,0,0-.234,1.609,1.338,1.338,0,0,0,2.113.282c.405-.4.8-.8,1.208-1.2a.7.7,0,0,1,.755-.173.563.563,0,0,1,.212.127q1.646,1.636,3.285,3.279A.636.636,0,0,1,932.424-120.662Zm.442-1.966c-.174.188-.36.365-.562.568a.661.661,0,0,0-.066-.1q-1.413-1.413-2.828-2.825a1.028,1.028,0,0,0-1.494,0c-.4.4-.8.8-1.2,1.2a1.02,1.02,0,0,1-1.652-.3,1.022,1.022,0,0,1,.222-1.149q1.223-1.225,2.449-2.447a3.551,3.551,0,0,1,.777-.589,3.584,3.584,0,0,1,5.278,2.253A3.536,3.536,0,0,1,932.866-122.628Z" transform="translate(-920.851 129.059)" fill="#fff" stroke="#fff" stroke-width="0.8"/>
      <g id="Group_8424" data-name="Group 8424" transform="translate(22.363 1.803)">
        <g id="Group_8415" data-name="Group 8415">
          <g id="Group_2783" data-name="Group 2783" transform="translate(-7.71 5.59) rotate(45)">
            <g id="Path_9004" data-name="Path 9004" transform="translate(0.416 0) rotate(45)" fill="#fff">
              <path d="M 4.88232421875 0.6882445216178894 L 0.29412442445755 0.6882445216178894 C 0.07680441439151764 0.6882445216178894 -0.09999559074640274 0.5114445686340332 -0.09999559074640274 0.2941245436668396 C -0.09999559074640274 0.07680454105138779 0.07680441439151764 -0.099995456635952 0.29412442445755 -0.099995456635952 L 4.88232421875 -0.099995456635952 C 5.099644184112549 -0.099995456635952 5.276444435119629 0.07680454105138779 5.276444435119629 0.2941245436668396 C 5.276444435119629 0.5114445686340332 5.099644184112549 0.6882445216178894 4.88232421875 0.6882445216178894 Z" stroke="none"/>
              <path d="M 0.2941246032714844 4.529953002929688e-06 C 0.1316843032836914 4.529953002929688e-06 4.291534423828125e-06 0.1316845417022705 4.291534423828125e-06 0.2941245436668396 C 4.291534423828125e-06 0.4565645456314087 0.1316843032836914 0.5882445573806763 0.2941246032714844 0.5882445573806763 L 4.88232421875 0.5882445573806763 C 5.044764518737793 0.5882445573806763 5.176444530487061 0.4565645456314087 5.176444530487061 0.2941245436668396 C 5.176444530487061 0.1316845417022705 5.044764518737793 4.529953002929688e-06 4.88232421875 4.529953002929688e-06 L 0.2941246032714844 4.529953002929688e-06 M 0.2941246032714844 -0.1999954581260681 L 4.88232421875 -0.1999954581260681 C 5.154784202575684 -0.1999954581260681 5.376444339752197 0.02166455984115601 5.376444339752197 0.2941245436668396 C 5.376444339752197 0.5665845274925232 5.154784202575684 0.7882445454597473 4.88232421875 0.7882445454597473 L 0.2941246032714844 0.7882445454597473 C 0.02166461944580078 0.7882445454597473 -0.1999955177307129 0.5665845274925232 -0.1999955177307129 0.2941245436668396 C -0.1999955177307129 0.02166455984115601 0.02166461944580078 -0.1999954581260681 0.2941246032714844 -0.1999954581260681 Z" stroke="none" fill="#fff"/>
            </g>
            <g id="Path_9005" data-name="Path 9005" transform="translate(4.059 0.43) rotate(135)" fill="#fff">
              <path d="M 4.839910507202148 0.6831022500991821 L 0.2915505766868591 0.6831022500991821 C 0.07565057277679443 0.6831022500991821 -0.09999942779541016 0.5074522495269775 -0.09999942779541016 0.2915522754192352 C -0.09999942779541016 0.07565227895975113 0.07565057277679443 -0.09999772161245346 0.2915505766868591 -0.09999772161245346 L 4.839910507202148 -0.09999772161245346 C 5.055810451507568 -0.09999772161245346 5.231460571289062 0.07565227895975113 5.231460571289062 0.2915522754192352 C 5.231460571289062 0.5074522495269775 5.055810451507568 0.6831022500991821 4.839910507202148 0.6831022500991821 Z" stroke="none"/>
              <path d="M 0.2915506362915039 2.264976501464844e-06 C 0.1305303573608398 2.264976501464844e-06 4.76837158203125e-07 0.1305322647094727 4.76837158203125e-07 0.2915522754192352 C 4.76837158203125e-07 0.4525722861289978 0.1305303573608398 0.583102285861969 0.2915506362915039 0.583102285861969 L 4.839910507202148 0.583102285861969 C 5.000930786132812 0.583102285861969 5.131460666656494 0.4525722861289978 5.131460666656494 0.2915522754192352 C 5.131460666656494 0.1305322647094727 5.000930786132812 2.264976501464844e-06 4.839910507202148 2.264976501464844e-06 L 0.2915506362915039 2.264976501464844e-06 M 0.2915506362915039 -0.1999977231025696 L 4.839910507202148 -0.1999977231025696 C 5.110950469970703 -0.1999977231025696 5.331460475921631 0.02051228284835815 5.331460475921631 0.2915522754192352 C 5.331460475921631 0.5625922679901123 5.110950469970703 0.78310227394104 4.839910507202148 0.78310227394104 L 0.2915506362915039 0.78310227394104 C 0.02051067352294922 0.78310227394104 -0.1999993324279785 0.5625922679901123 -0.1999993324279785 0.2915522754192352 C -0.1999993324279785 0.02051228284835815 0.02051067352294922 -0.1999977231025696 0.2915506362915039 -0.1999977231025696 Z" stroke="none" fill="#fff"/>
            </g>
          </g>
        </g>
      </g>
    </g>
  </g>
</svg>
