<svg xmlns="http://www.w3.org/2000/svg" width="25.734" height="21.259" viewBox="0 0 25.734 21.259">
  <g id="Group_3131" data-name="Group 3131" transform="translate(1639 4226.005)">
    <g id="Path_421" data-name="Path 421" transform="translate(-2437.415 -4403.062)" fill="none">
      <path
        d="M818.172,177.057H804.584a.408.408,0,0,0-.294.131l-4.97,5.153c-.313.325-.12.938.294.938H822.98c.411,0,.605-.6.3-.932l-4.808-5.153A.411.411,0,0,0,818.172,177.057Z"
        stroke="none"/>
      <path
        d="M 804.8411865234375 178.0570068359375 L 800.7686157226562 182.27978515625 L 821.8487548828125 182.27978515625 L 817.9089965820312 178.0570068359375 L 804.8411865234375 178.0570068359375 M 804.5841674804688 177.0570068359375 L 818.1715698242188 177.0570068359375 C 818.2822875976562 177.0570068359375 818.3889770507812 177.1057739257812 818.4714965820312 177.1940002441406 L 823.2793579101562 182.3472900390625 C 823.5848999023438 182.6751403808594 823.3908081054688 183.27978515625 822.9795532226562 183.27978515625 L 799.6140747070312 183.27978515625 C 799.1995239257812 183.27978515625 799.0067749023438 182.666015625 799.3198852539062 182.3414306640625 L 804.2898559570312 177.1881561279297 C 804.3713989257812 177.1034393310547 804.4758911132812 177.0570068359375 804.5841674804688 177.0570068359375 Z"
        stroke="none" fill="#ffffff"/>
    </g>
    <g id="Rectangle_424" data-name="Rectangle 424" transform="translate(-1639 -4218.966)" fill="none" stroke="#ffffff"
       stroke-width="1">
      <rect width="25.734" height="14.221" rx="2" stroke="none"/>
      <rect x="0.5" y="0.5" width="24.734" height="13.221" rx="1.5" fill="none"/>
    </g>
    <path id="Path_48" data-name="Path 48"
          d="M970.119,212.528v-.915h1.3v.915a1.863,1.863,0,0,1,1.7,2.019v.26h-1.5v-.342c0-.59-.288-.815-.792-.815s-.791.224-.791.815.288,1,1.353,1.7c1.295.85,1.741,1.5,1.741,2.444a1.885,1.885,0,0,1-1.712,2.031v.9h-1.3v-.9a1.875,1.875,0,0,1-1.712-2.031v-.567h1.5v.65c0,.59.316.8.82.8s.82-.212.82-.8-.288-1.015-1.353-1.7c-1.3-.838-1.741-1.5-1.741-2.444A1.865,1.865,0,0,1,970.119,212.528Z"
          transform="translate(-2596.407 -4428.613)" fill="#ffffff"/>
    <rect id="Rectangle_425" data-name="Rectangle 425" width="7" height="1.5" rx="0.75"
          transform="translate(-1630 -4224)" fill="#ffffff"/>
  </g>
</svg>
