<svg xmlns="http://www.w3.org/2000/svg" width="36.263" height="32.5" viewBox="0 0 36.263 32.5">
  <g id="Group_3267" data-name="Group 3267" transform="translate(-21 -730)">
    <g id="Group_2775" data-name="Group 2775" transform="translate(0 77)">
      <g id="Group_2774" data-name="Group 2774" transform="translate(0 -58)">
        <g id="Ellipse_80" data-name="Ellipse 80" transform="translate(21 711)" fill="none" stroke="#285078" stroke-width="1.5">
          <circle cx="15.5" cy="15.5" r="15.5" stroke="none"/>
          <circle cx="15.5" cy="15.5" r="14.75" fill="none"/>
        </g>
      </g>
    </g>
    <g id="Group_3261" data-name="Group 3261" transform="translate(-2457.6 4292)">
      <g id="Group_2235" data-name="Group 2235" transform="translate(2482 -3556)">
        <path id="Path_227" data-name="Path 227" d="M944.178-123.315a6.753,6.753,0,0,0-6.318-5.731,6.873,6.873,0,0,0-4.9,1.616c-.124.1-.242.211-.366.32-.035-.029-.065-.052-.094-.078a6.779,6.779,0,0,0-5.748-1.681,6.992,6.992,0,0,0-5.867,6.282,6.658,6.658,0,0,0,1.458,4.915c.348.438.768.819,1.155,1.226l.113.12.418.379c.371.336.962.871,1.664,1.5l.412.371c.524.472,1.094.984,1.669,1.5l.411.368c.576.515,1.15,1.026,1.68,1.495l.435.383c.7.611,1.289,1.125,1.679,1.448a4.991,4.991,0,0,0,.451.348,1.719,1.719,0,0,0,2.9-1.143,1.676,1.676,0,0,0,1.881-.009,1.688,1.688,0,0,0,.748-1.733,1.717,1.717,0,0,0,1.518-.478,1.711,1.711,0,0,0,.479-1.518,1.66,1.66,0,0,0,1.777-.817,1.67,1.67,0,0,0-.392-2.2c.318-.316.634-.615.933-.93A6.8,6.8,0,0,0,944.178-123.315Zm-3.042,8.974a1.13,1.13,0,0,1-1.522.178,1.739,1.739,0,0,1-.185-.166l-2.3-2.3a.9.9,0,0,0-.119-.109.274.274,0,0,0-.359.041.27.27,0,0,0-.021.349,1.135,1.135,0,0,0,.11.118q1.171,1.171,2.343,2.342a1.066,1.066,0,0,1,.287,1.118,1.081,1.081,0,0,1-.845.789,1.088,1.088,0,0,1-1.059-.318l-2.334-2.331a1.144,1.144,0,0,0-.107-.1.28.28,0,0,0-.362.018.278.278,0,0,0-.026.373,1.309,1.309,0,0,0,.111.117q1.166,1.165,2.333,2.332a1.067,1.067,0,0,1,.293,1.1,1.084,1.084,0,0,1-.834.8,1.085,1.085,0,0,1-1.073-.314q-1.178-1.176-2.355-2.351a.48.48,0,0,0-.175-.125.255.255,0,0,0-.317.118.262.262,0,0,0,.036.337c.156.162.317.319.476.478.439.439.883.873,1.316,1.317a1.115,1.115,0,0,1,.043,1.508A1.133,1.133,0,0,1,933-108.8c-.033-.021-.063-.047-.095-.069h0a.343.343,0,0,1-.073-.064l-.519-.456-1.543-1.358-.464-.408-1.693-1.491-.411-.362-1.689-1.49-.408-.361c-.71-.628-1.308-1.159-1.685-1.5-.22-.2-.364-.328-.41-.373-.288-.286-.579-.561-.853-.851a6.16,6.16,0,0,1-1.739-4.843,6.426,6.426,0,0,1,5.285-5.878,6.21,6.21,0,0,1,5.359,1.474c.04.034.077.072.159.151a.869.869,0,0,0-.159.1q-1.921,1.914-3.838,3.832a2.353,2.353,0,0,0-.41,2.821,2.346,2.346,0,0,0,3.7.493c.71-.7,1.409-1.411,2.118-2.111a1.217,1.217,0,0,1,1.323-.3.987.987,0,0,1,.371.223q2.885,2.868,5.758,5.748A1.115,1.115,0,0,1,941.136-114.341Zm.774-3.446c-.3.33-.631.639-.986,1a1.157,1.157,0,0,0-.115-.169q-2.477-2.477-4.957-4.952a1.8,1.8,0,0,0-2.619,0c-.7.7-1.4,1.406-2.107,2.1a1.787,1.787,0,0,1-2.9-.525,1.792,1.792,0,0,1,.39-2.013q2.144-2.147,4.293-4.289a6.225,6.225,0,0,1,1.362-1.032,6.282,6.282,0,0,1,9.251,3.948A6.2,6.2,0,0,1,941.91-117.787Z" transform="translate(-920.851 129.058)" fill="#285078" stroke="#285078" stroke-width="1"/>
      </g>
    </g>
    <g id="Group_3262" data-name="Group 3262" transform="translate(26.433 734.703)">
      <g id="Path_112" data-name="Path 112" transform="translate(13.437 11.303)" fill="#285078" stroke-linejoin="round">
        <path d="M -0.7499998211860657 16.92922973632812 L -0.7499998211860657 14.99467945098877 L -0.7499998211860657 12.70479965209961 C -0.7499998211860657 7.944079875946045 3.123120069503784 4.070959568023682 7.883830070495605 4.070959568023682 L 8.538080215454102 4.070959568023682 L 8.538080215454102 0.4999997317790985 L 8.538080215454102 -1.435450315475464 L 9.842249870300293 -0.005370274651795626 L 16.44699096679688 7.237049579620361 L 16.90785980224609 7.742419719696045 L 16.44699096679688 8.24778938293457 L 9.842249870300293 15.4902400970459 L 8.538080215454102 16.92033004760742 L 8.538080215454102 14.98486995697021 L 8.538080215454102 11.41987323760986 C 5.738080978393555 11.51514148712158 3.072070837020874 12.74116325378418 1.177690148353577 14.81676006317139 L 0.5540101528167725 15.50022983551025 L -0.7499998211860657 16.92922973632812 Z" stroke="none"/>
        <path d="M 9.288080215454102 0.5 L 9.288080215454102 4.82096004486084 L 7.883830070495605 4.82096004486084 C 3.529660224914551 4.82096004486084 0 8.350629806518555 0 12.70479965209961 L 0 14.99467945098877 L 0.6237297058105469 14.31116008758545 C 2.74429988861084 11.98773002624512 5.744820594787598 10.66387939453125 8.890600204467773 10.66387939453125 L 9.288080215454102 10.66387939453125 L 9.288080215454102 14.98486995697021 L 15.89282035827637 7.742419719696045 L 9.288080215454102 0.5 M 9.28774356842041 -1.000060081481934 C 9.701589584350586 -1.000060081481934 10.10649299621582 -0.8286504745483398 10.39640998840332 -0.5107393264770508 L 17.00115013122559 6.731679916381836 C 17.52338027954102 7.304319381713867 17.52338027954102 8.180519104003906 17.00115013122559 8.753159523010254 L 10.39640998840332 15.99560928344727 C 9.979120254516602 16.45318984985352 9.323530197143555 16.60729026794434 8.746089935302734 16.38352966308594 C 8.168649673461914 16.15976905822754 7.788080215454102 15.60414981842041 7.788080215454102 14.98486995697021 L 7.788080215454102 12.22718048095703 C 5.476713180541992 12.49328231811523 3.314188003540039 13.5884256362915 1.731650352478027 15.32234954833984 L 1.108010292053223 16.00576972961426 C 0.6906414031982422 16.46315002441406 0.03511905670166016 16.61708068847656 -0.5422096252441406 16.39324951171875 C -1.119529724121094 16.16942977905273 -1.5 15.61386966705322 -1.5 14.99467945098877 L -1.5 12.70479965209961 C -1.5 7.562426567077637 2.657660484313965 3.372899055480957 7.788080215454102 3.321441650390625 L 7.788080215454102 0.5 C 7.788080215454102 -0.1192798614501953 8.168649673461914 -0.674901008605957 8.746089935302734 -0.8986597061157227 C 8.922346115112305 -0.9669599533081055 9.105924606323242 -1.000060081481934 9.28774356842041 -1.000060081481934 Z" stroke="none" fill="#fff"/>
      </g>
    </g>
  </g>
</svg>
