<svg xmlns="http://www.w3.org/2000/svg" width="31" height="31" viewBox="0 0 31 31">
  <g id="Group_2771" data-name="Group 2771" transform="translate(-37 -880.201)">
    <g id="Group_2771-2" data-name="Group 2771" transform="translate(37 880)">
      <g id="Group_2265" data-name="Group 2265" transform="translate(7.859 4.701)">
        <path id="Path_201" data-name="Path 201" d="M320.594-502.016v-17.346l5.494-6.308,7.808,2.384v1.278" transform="translate(-320.594 525.67)" fill="none" stroke="#285078" stroke-miterlimit="10" stroke-width="1.5"/>
        <path id="Path_203" data-name="Path 203" d="M0,0V25.207" transform="translate(5.494)" fill="none" stroke="#285078" stroke-width="1.5"/>
      </g>
      <path id="Path_234" data-name="Path 234" d="M379.76-481.9h-2.1c-.006.008-.013.013-.013.018a6.638,6.638,0,0,0,.1,1.686,2.432,2.432,0,0,0,1.647,1.788,5.744,5.744,0,0,0,.59.156c.064.015.086.039.086.106,0,.37,0,.741,0,1.111,0,.021,0,.043.006.072H381.9v-.111c0-.351,0-.7,0-1.055,0-.083.026-.112.107-.127a3.1,3.1,0,0,0,1.286-.529,2.4,2.4,0,0,0,.9-1.319,3.587,3.587,0,0,0,.054-1.742,3.086,3.086,0,0,0-.86-1.509,9.168,9.168,0,0,0-1.557-1.228,7.955,7.955,0,0,1-1.256-.973,1.909,1.909,0,0,1-.61-1.129,1.887,1.887,0,0,1,.047-.784.83.83,0,0,1,.619-.6,1.762,1.762,0,0,1,.821-.015.874.874,0,0,1,.712.8,3.937,3.937,0,0,1,.023.394c0,.128,0,.257,0,.4.039,0,.072.007.1.007.638,0,1.276,0,1.914,0,.074,0,.1-.015.1-.1a4.388,4.388,0,0,0-.161-1.358,2.4,2.4,0,0,0-1.574-1.59,5.608,5.608,0,0,0-.581-.155c-.07-.017-.1-.042-.1-.118,0-.358,0-.716,0-1.074v-.118h-1.828v.111c0,.358,0,.716,0,1.074,0,.085-.029.112-.106.127a3.041,3.041,0,0,0-1.263.535,2.368,2.368,0,0,0-.9,1.425,3.462,3.462,0,0,0,.1,2.01,3.566,3.566,0,0,0,1,1.371,11.33,11.33,0,0,0,1.43,1.056,6.4,6.4,0,0,1,1.223.983,1.838,1.838,0,0,1,.5,1.647.9.9,0,0,1-.84.785,1.91,1.91,0,0,1-.73-.032.858.858,0,0,1-.7-.8c-.029-.34-.018-.683-.024-1.025C379.76-481.779,379.76-481.832,379.76-481.9Z" transform="translate(-360.773 503.641)" fill="#285078"/>
      <line id="Line_42" data-name="Line 42" x1="20.109" y2="21.776" transform="translate(5.391 4.701)" fill="none" stroke="#cf7272" stroke-width="3"/>
      <g id="Group_2192" data-name="Group 2192" transform="translate(0 0)">
        <g id="Ellipse_18" data-name="Ellipse 18" transform="translate(0 0.201)" fill="none" stroke="#285078" stroke-width="1.5">
          <circle cx="15.5" cy="15.5" r="15.5" stroke="none"/>
          <circle cx="15.5" cy="15.5" r="14.75" fill="none"/>
        </g>
        <g id="Ellipse_38" data-name="Ellipse 38" transform="translate(0 0.201)" fill="none" stroke="#285078" stroke-width="1.5">
          <circle cx="15.5" cy="15.5" r="15.5" stroke="none"/>
          <circle cx="15.5" cy="15.5" r="14.75" fill="none"/>
        </g>
      </g>
    </g>
  </g>
</svg>
