<svg id="Group_3301" data-name="Group 3301" xmlns="http://www.w3.org/2000/svg" width="27.141" height="20.949" viewBox="0 0 27.141 20.949">
  <path id="Path_53" data-name="Path 53" d="M695.8,587.691h11.617a1.891,1.891,0,0,0,1.937-1.662,2.157,2.157,0,0,0,.017-.322q0-8.5,0-16.993a1.9,1.9,0,0,0-1.967-1.971H684.2a1.9,1.9,0,0,0-1.971,1.968q0,8.5,0,17.01a1.9,1.9,0,0,0,1.968,1.97Zm.029-1.431h-11.16A.958.958,0,0,1,683.6,585.2q0-8,0-16.009a1.464,1.464,0,0,1,.031-.337.953.953,0,0,1,1.02-.715h22.337a.958.958,0,0,1,1.047,1.058q0,4.49,0,8.981,0,3.523,0,7.045a.971.971,0,0,1-1.055,1.037Q701.407,586.257,695.827,586.26Z" transform="translate(-682.229 -566.742)" fill="#285078"/>
  <path id="Path_55" data-name="Path 55" d="M1054.117,874.914h-2.458c-.463,0-.676.213-.677.671,0,.062,0,.125,0,.187a.557.557,0,0,0,.566.594q2.568.013,5.137,0a.573.573,0,0,0,.572-.593c.044-.654-.211-.881-.833-.864C1055.655,874.93,1054.886,874.914,1054.117,874.914Z" transform="translate(-1034.299 -860.967)" fill="#285078"/>
  <path id="Path_56" data-name="Path 56" d="M1054.142,782.863h-2.374c-.571,0-.758.188-.755.764a1.124,1.124,0,0,0,.028.3.573.573,0,0,0,.576.391c.367.006.735,0,1.1,0h3.849c.513,0,.716-.207.717-.722,0-.537-.2-.736-.735-.737Z" transform="translate(-1034.329 -773.086)" fill="#285078"/>
  <path id="Path_57" data-name="Path 57" d="M1054.118,691.555h2.457a.591.591,0,0,0,.675-.676c0-.079,0-.159,0-.237a.557.557,0,0,0-.473-.523.975.975,0,0,0-.169-.014c-1.661,0-3.322,0-4.982,0a.955.955,0,0,0-.427.127.448.448,0,0,0-.218.4c0,.1,0,.2,0,.305a.568.568,0,0,0,.615.612C1052.435,691.558,1053.276,691.555,1054.118,691.555Z" transform="translate(-1034.294 -684.523)" fill="#285078"/>
  <g id="Group_2772" data-name="Group 2772" transform="translate(4.335 4.498)">
    <path id="Path_201" data-name="Path 201" d="M320.594-513.81V-522.7l3.715-2.97,5.28,1.122v11.91" transform="translate(-320.594 525.67)" fill="none" stroke="#285078" stroke-linecap="round" stroke-miterlimit="10" stroke-width="1"/>
    <path id="Path_203" data-name="Path 203" d="M0,0V13.033" transform="translate(3.715)" fill="none" stroke="#285078" stroke-linecap="round" stroke-width="1"/>
  </g>
</svg>
