<svg xmlns="http://www.w3.org/2000/svg" width="80.754" height="68.583" viewBox="0 0 80.754 68.583"><defs><style>.a{fill:none;}.b{fill:#1a96d4;}.c{fill:#f15d2c;}.d{fill:#666;}</style></defs><g transform="translate(-139.688 -390.89)"><g transform="translate(139.688 390.89)"><g transform="translate(0 0.416)"><g transform="translate(14.424)"><path class="a" d="M1249.179,967.06l0-.2,0,.2Z" transform="translate(-1220.393 -942.791)"/><path class="b" d="M641.607,453.118l0-.2v-.005l.027-2.2,0-.37c0-.061,0-.121,0-.184.023-7.543,1.008-14.733,7.995-16.251.182-.039.363-.073.542-.1q.233-.04.463-.07a10.389,10.389,0,0,1,1.347-.091,8.8,8.8,0,0,1,1.786.177q.274.057.531.129t.5.159a7.668,7.668,0,0,1,3.689,2.855,9.008,9.008,0,0,1,1.076,2.051q.135.363.241.737h4.92a14.117,14.117,0,0,0-2.322-5.552,12.423,12.423,0,0,0-10.422-5.348,15.15,15.15,0,0,0-1.779.11c-.526.062-1.057.149-1.59.265-11.713,2.544-11.754,15.42-11.77,20.919,0,.469,0,.889-.011,1.251-.013.5,0,1.145.019,1.944v.222l-.03,4.626h0l.062,0c-.005.24-.013.475-.021.711-.015.473-.036.934-.06,1.39-.568,10.652-3.717,16.568-9.578,18.023a10.268,10.268,0,0,1-2.461.318,8.029,8.029,0,0,1-1.7-.176,6.953,6.953,0,0,1-4.75-3.739h-5.17a12.136,12.136,0,0,0,9.917,8.589,12.457,12.457,0,0,0,1.7.118,15.045,15.045,0,0,0,3.615-.459c5.614-1.393,9.508-5.495,11.575-12.19a43.4,43.4,0,0,0,1.674-10.785c0-.081.008-.163.011-.243q.02-.509.032-1c.007-.259.012-.514.015-.763h.023l-.1-4.854Z" transform="translate(-612.828 -428.848)"/><path class="b" d="M1340.739,819.881h0a2.44,2.44,0,0,0-1.671.63,2.457,2.457,0,0,0,0,3.457,2.44,2.44,0,0,0,1.671.63h0a2.444,2.444,0,0,0,1.675-.63,2.459,2.459,0,0,0,0-3.457A2.444,2.444,0,0,0,1340.739,819.881Z" transform="translate(-1305.583 -802.386)"/><path class="b" d="M1251.848,1132.87c-.024.473-.054.933-.088,1.389a45.973,45.973,0,0,1-.764,5.792,34.445,34.445,0,0,1-1.088,4.311,23.416,23.416,0,0,1-2.278,5.006l4.861.316a23.551,23.551,0,0,0,2.217-4.881,43.4,43.4,0,0,0,1.882-10.751c.005-.081.011-.162.015-.242q.03-.509.052-1c0-.052,0-.1.006-.155l.025-.424-4.825.331C1251.858,1132.663,1251.853,1132.767,1251.848,1132.87Z" transform="translate(-1218.919 -1100.759)"/><path class="c" d="M629.956,976.174a77.458,77.458,0,0,0-8.865.955q-.36.064-.675.126l-.305.061q-.295.06-.548.117c-.338.076-.623.146-.858.208q-.176.047-.316.087l-.131.038c-.123.037-.219.068-.292.092l-.065.022q-.388.122-.762.254a21.365,21.365,0,0,0-2.126.879q-.669.321-1.286.676t-1.183.741a16.579,16.579,0,0,0-3.094,2.715,11.168,11.168,0,0,0-2.555,3.968c-.013.028-.027.055-.039.083s-.029.059-.042.089-.028.059-.04.089-.022.061-.034.091-.022.061-.034.091-.022.061-.034.091-.022.061-.034.091-.023.061-.034.091l-.034.091-.034.091c-.011.031-.023.061-.034.091s-.023.061-.034.091-.024.061-.034.091-.024.061-.034.091-.023.061-.034.092-.017.063-.027.094-.017.063-.027.094-.017.063-.027.094-.018.063-.027.094-.018.063-.027.094l-.027.094c-.009.031-.018.063-.027.094s-.018.063-.027.094-.019.062-.027.094-.019.062-.027.094-.019.062-.027.094-.018.063-.025.094-.012.064-.02.1-.012.064-.02.1-.013.064-.02.1-.013.064-.02.1-.013.064-.02.1l-.018.086h4.929l0-.008c.01-.031.017-.063.027-.094s.017-.063.027-.094.022-.061.032-.092.024-.061.034-.091.023-.061.034-.091.023-.061.034-.091l.034-.091c.012-.031.022-.061.034-.091s.022-.061.034-.091.021-.061.034-.091l.038-.09c.013-.03.029-.059.042-.089s.028-.059.042-.089.028-.059.042-.089l.042-.089.042-.089c.014-.03.027-.059.042-.089s.027-.06.042-.089.028-.059.043-.089.034-.057.049-.086.034-.057.049-.086.033-.057.049-.086l.049-.086L611.8,988l.049-.086c.017-.029.032-.058.049-.086s.032-.058.049-.087.037-.056.055-.085.039-.056.058-.084.039-.056.058-.084.039-.056.057-.084l.057-.084.057-.084c.02-.028.038-.056.058-.084s.037-.056.057-.084.038-.056.059-.083.045-.054.066-.081.045-.054.066-.081.045-.054.066-.081l.066-.081.066-.081c.022-.027.043-.054.066-.081s.043-.054.066-.081.043-.054.066-.081l.071-.079c.024-.026.051-.052.075-.078s.051-.052.075-.078l.075-.078.075-.078.075-.078c.026-.026.049-.052.075-.078s.049-.052.076-.078.049-.052.075-.078.058-.049.085-.075a14.371,14.371,0,0,1,5.618-3.126l.093-.031a35.731,35.731,0,0,1,7.011-1.16h0l.057-.005.279-.027h0l3.112-.2.03-4.626Z" transform="translate(-605.925 -951.686)"/><path class="d" d="M1321.2,895.218c-.41.249-.831.477-1.261.687-2.993.287-5.843.357-7.86.36,2.008,0,4.875-.069,7.891-.36q-.626.309-1.276.569.649-.261,1.276-.569c.427-.211.845-.438,1.252-.687a12.581,12.581,0,0,0,3.114-2.659A12.645,12.645,0,0,1,1321.2,895.218Z" transform="translate(-1280.49 -871.812)"/><path class="d" d="M1350.1,999.849q-.677.185-1.36.342-.5.115-1,.219.5-.1,1-.219Q1349.421,1000.033,1350.1,999.849Z" transform="translate(-1314.548 -974.302)"/><path class="c" d="M16.577,0a9.761,9.761,0,0,1-1.513,2.467,12.582,12.582,0,0,1-3.114,2.659c-.407.249-.825.477-1.252.687s-.843.4-1.276.569q.649-.261,1.276-.569c-3.016.291-5.883.359-7.891.36,2.017,0,4.866-.073,7.86-.36.43-.211.851-.438,1.261-.687a12.647,12.647,0,0,0,3.136-2.659L15,2.518l-.036.028-.02.015-.095.073c-.039.029-.075.06-.115.089l-.019.014c-.032.025-.062.051-.1.074s-.093.058-.138.089-.1.058-.144.089-.1.059-.144.089l-.144.089-.035.022c-.086.051-.165.106-.253.156l-.161.088c-.041.022-.086.043-.13.064-.095.05-.191.1-.288.147-.149.075-.3.149-.46.22l-.025.012h0c-.071.031-.149.058-.221.089s-.124.049-.186.073l-.07.027-.2.077c-.076.029-.149.06-.227.089l-.044.017c-.063.023-.119.049-.183.071-.09.031-.19.058-.282.089l-.059.018c-.159.052-.324.1-.489.151l-.027.008c-.1.029-.188.061-.287.089s-.221.059-.332.088c-.237.062-.485.12-.734.178-.124.029-.238.061-.365.088-.146.031-.3.059-.454.089s-.314.06-.473.089-.31.061-.473.089c-.184.031-.378.059-.569.089s-.411.06-.621.089-.405.062-.621.089h0c-.514.063-1.055.119-1.609.171-.165.015-.335.029-.5.044q-.629.054-1.292.1c-.177.012-.352.024-.532.035l-.458.027C.939,5.957.479,5.98.005,6V5.99H0l.1,4.855.2-.008,0,0c9.455-.393,16.37-1.908,20.219-7.108l-.038.015c.009-.014.018-.028.028-.041.021-.028.039-.06.06-.089s.024-.035.036-.053c.075-.1.146-.215.219-.323l.045-.067.06-.089.046-.068c.043-.066.089-.127.131-.193l0,0,.018-.027c.016-.025.033-.047.049-.072s.036-.051.053-.078h0l.054-.087h0c.009-.015.017-.031.025-.047.024-.04.043-.085.066-.125l0-.005c.016-.029.031-.06.047-.089l.01-.019c.054-.1.1-.2.157-.3l.021-.04.047-.089.018-.034.055-.1.021-.04c.015-.03.032-.058.047-.089l.013-.024c.011-.021.023-.042.034-.064s.032-.058.047-.089.02-.038.03-.056.012-.021.017-.033c.015-.031.033-.058.047-.089s.025-.06.038-.089c.006-.012.01-.024.015-.037s.014-.035.021-.052.023-.06.036-.089l.006-.014c.016-.036.03-.076.046-.113l.021-.051c.012-.029.024-.06.036-.089l0-.012L22.246.6l.021-.052.015-.037.036-.089,0-.01.032-.078.022-.053.015-.036L22.413.19c.024-.06.05-.118.073-.179l0-.011ZM5.4,7.609q-.5.115-1,.219.5-.1,1-.219.682-.158,1.36-.342Q6.087,7.453,5.4,7.609Z" transform="translate(28.786 18.28)"/></g><g transform="translate(0 60.495)"><path class="b" d="M291.653,1780.965v1.806h-5.774v1.449h5.487v1.76h-5.487v2.657h-2.335v-7.672Z" transform="translate(-283.544 -1780.965)"/><path class="b" d="M576.742,1780.965v7.672h-2.45v-7.672Z" transform="translate(-561.284 -1780.965)"/><path class="b" d="M754.993,1780.965l4.014,5.717h.242l-.057-5.717h2.381v7.672h-4.06l-4.037-5.717h-.253l.057,5.717H750.9v-7.672Z" transform="translate(-729.988 -1780.965)"/><path class="b" d="M1113.506,1780.965v7.672h-2.45v-7.672Z" transform="translate(-1074.032 -1780.965)"/><path class="b" d="M1284.863,1780.965v1.956h-3.416v5.717H1279v-5.717h-3.416v-1.956Z" transform="translate(-1231.195 -1780.965)"/><path class="b" d="M1601.3,1780.965v1.806h-6.188v1.116h5.878v1.691h-5.878v1.219h6.234v1.84h-8.535v-7.672Z" transform="translate(-1534.229 -1780.965)"/><path class="b" d="M1906.183,1780.965v1.806h-6.188v1.116h5.878v1.691h-5.878v1.219h6.234v1.84h-8.535v-7.672Z" transform="translate(-1825.475 -1780.965)"/></g></g><g transform="translate(64.108)"><path class="b" d="M1745.287,438.956a2.907,2.907,0,0,1-.122-.443.616.616,0,0,0-.162-.317.518.518,0,0,0,.234-.445.5.5,0,0,0-.162-.386.77.77,0,0,0-.548-.161,2.362,2.362,0,0,0-.437.037l-.069.014v1.828h.392v-.734h.116c.141.005.211.044.258.262a1.973,1.973,0,0,0,.123.429l.025.043h.421Zm-.442-1.18c0,.147-.11.235-.3.235h-.137v-.459a1.207,1.207,0,0,1,.128-.006C1744.845,437.549,1744.845,437.72,1744.845,437.776Z" transform="translate(-1742.786 -436.414)"/><g transform="translate(0 0)"><path class="b" d="M1718.2,423.129a1.787,1.787,0,1,1,1.787-1.787A1.789,1.789,0,0,1,1718.2,423.129Zm0-3.112a1.325,1.325,0,1,0,1.325,1.325A1.326,1.326,0,0,0,1718.2,420.018Z" transform="translate(-1716.41 -419.555)"/></g></g></g></g></svg>