<svg xmlns="http://www.w3.org/2000/svg" width="29.728" height="19.586" viewBox="0 0 29.728 19.586">
  <g id="Component_17_373" data-name="Component 17 – 373" transform="translate(0.75 0.261)">
    <path id="Path_123" data-name="Path 123" d="M139.12,90.546a4.918,4.918,0,0,1-1.845-1.743,4.418,4.418,0,0,1-.358-2.966.417.417,0,0,0-.162-.427.4.4,0,0,0-.45-.014,7.421,7.421,0,0,0-3,4,9.941,9.941,0,0,0-.406,3.967,2.5,2.5,0,0,1-.556-1.208.411.411,0,0,0-.3-.335.4.4,0,0,0-.422.148,6.071,6.071,0,0,0-.25,6.775,5.868,5.868,0,0,0,4.482,2.585,2.95,2.95,0,0,0,.375.024h.013a5.314,5.314,0,0,0,1.349-.171,5.96,5.96,0,0,0,4.286-5.192A6.044,6.044,0,0,0,139.12,90.546Zm-.792,8.1a2.19,2.19,0,0,1-1.6,1.817,2.037,2.037,0,0,1-.652.059h-.017a2.222,2.222,0,0,1-1.682-.98,2.3,2.3,0,0,1-.244-1.891,1.766,1.766,0,0,0,.554.458.4.4,0,0,0,.428-.036.417.417,0,0,0,.157-.406,4.354,4.354,0,0,1,.108-2.11,3.2,3.2,0,0,1,.548-1.022,2.583,2.583,0,0,0,.267.832,2.952,2.952,0,0,0,1.105,1.073A2.216,2.216,0,0,1,138.328,98.647Zm2.735-2.721a5.161,5.161,0,0,1-2.265,3.811,2.973,2.973,0,0,0,.356-1.171,3.14,3.14,0,0,0-1.429-2.828,2.194,2.194,0,0,1-.817-.761,1.94,1.94,0,0,1-.153-1.285.417.417,0,0,0-.162-.427.4.4,0,0,0-.45-.014,3.8,3.8,0,0,0-1.538,2.047,4.707,4.707,0,0,0-.214,1.1.4.4,0,0,0-.567.077,3.158,3.158,0,0,0-.257,3.283,4.831,4.831,0,0,1-1.52-1.471,5.239,5.239,0,0,1-.228-5.106,3.308,3.308,0,0,0,1.432,1.5.4.4,0,0,0,.428-.036.417.417,0,0,0,.157-.406,9.832,9.832,0,0,1,.025-3.769.414.414,0,0,0,.042-.177s0-.006,0-.01c.051-.214.107-.425.174-.631a6.835,6.835,0,0,1,1.924-3,5.122,5.122,0,0,0,.559,2.541,5.633,5.633,0,0,0,2.134,2.055A5.194,5.194,0,0,1,141.063,95.926Z" transform="translate(-121.953 -85.334)" fill="#285078" stroke="#285078" stroke-width="0.5"/>
    <path id="Path_8977" data-name="Path 8977" d="M8.958,10.631H5.609L0,18.574H28.228l-5.445-7.943H19.447" fill="none" stroke="#285078" stroke-linejoin="round" stroke-width="1.5"/>
  </g>
</svg>
