<svg xmlns="http://www.w3.org/2000/svg" width="19.404" height="21.318" viewBox="0 0 19.404 21.318">
  <g id="Group_7988" data-name="Group 7988" transform="translate(3863.702 -558.39)">
    <path id="Path_79" data-name="Path 79" d="M32.1,1947.853c.217.035.439.054.652.106a4.559,4.559,0,0,1,3.5,3.366,4.012,4.012,0,0,1,.108.554.733.733,0,0,1-.639.845.747.747,0,0,1-.824-.706,2.78,2.78,0,0,0-.593-1.449,3.036,3.036,0,0,0-2.487-1.257q-5.117-.013-10.234,0a3.136,3.136,0,0,0-3.1,2.772,3.277,3.277,0,0,0-.023.391q0,4.834,0,9.668a3.154,3.154,0,0,0,3.2,3.16c1.011,0,2.023,0,3.034,0a.261.261,0,0,1,.226.11q.861,1.052,1.728,2.1c.016.019.033.037.057.063l.422-.518q.679-.835,1.355-1.672a.2.2,0,0,1,.174-.08c1.069,0,2.139.01,3.208,0a3.14,3.14,0,0,0,3.059-2.882c.01-.13.015-.261.015-.391q0-3.442,0-6.884a2.446,2.446,0,0,1,0-.324.727.727,0,0,1,1.44.013.485.485,0,0,0,.02.07v7.331c-.005.047-.014.093-.016.139a4.381,4.381,0,0,1-.3,1.419,4.6,4.6,0,0,1-4.342,2.966q-1.2,0-2.4,0a.183.183,0,0,0-.165.077c-.105.138-.218.272-.327.407-.4.489-.793.981-1.195,1.467a1.165,1.165,0,0,1-1.029.461,1.3,1.3,0,0,1-.915-.509q-.753-.908-1.5-1.82a.2.2,0,0,0-.174-.08c-.787,0-1.573,0-2.36,0a4.486,4.486,0,0,1-2.205-.531,4.538,4.538,0,0,1-2.39-3.244c-.042-.212-.058-.429-.086-.644v-10.05c.006-.043.016-.085.018-.128a4.185,4.185,0,0,1,.332-1.442,4.554,4.554,0,0,1,3.4-2.782c.183-.039.37-.057.556-.085Z" transform="translate(-3880.702 -1389.463)" fill="#1a3253"/>
    <path id="Path_426" data-name="Path 426" d="M189.442,325.849a1.932,1.932,0,0,1-.117-.724,3.848,3.848,0,0,1,1.109-2.662,4.36,4.36,0,0,0,1.226-3.083c0-.842-.389-1.162-1.07-1.162s-1.07.32-1.07,1.162v1.28H187.5V319.5c0-1.886,1.07-2.965,3.153-2.965s3.153,1.078,3.153,2.965a4.735,4.735,0,0,1-1.44,3.386,3.317,3.317,0,0,0-1.09,2.308,2.528,2.528,0,0,0,.078.657Z" transform="translate(-4044.496 245.266)" fill="#1a3253"/>
    <ellipse id="Ellipse_89" data-name="Ellipse 89" cx="1.306" cy="1.217" rx="1.306" ry="1.217" transform="translate(-3855.467 571.766)" fill="#1a3253"/>
  </g>
</svg>
