<svg id="Group_3123" data-name="Group 3123" xmlns="http://www.w3.org/2000/svg" width="19.062" height="23.827" viewBox="0 0 19.062 23.827">
  <g id="Group_404" data-name="Group 404" transform="translate(19.062 23.827) rotate(180)">
    <g id="Group_403" data-name="Group 403">
      <g id="Rectangle_84" data-name="Rectangle 84" fill="#fff" stroke="#79838d" stroke-width="1.2">
        <rect width="19.062" height="23.827" rx="3" stroke="none"/>
        <rect x="0.6" y="0.6" width="17.862" height="22.627" rx="2.4" fill="none"/>
      </g>
      <g id="Group_402" data-name="Group 402" transform="translate(3.574 5.957)">
        <g id="Group_401" data-name="Group 401">
          <path id="Path_120" data-name="Path 120" d="M5.989,1.507q-2.589,0-5.179,0A.753.753,0,1,1,.72,0c.048,0,.1,0,.144,0Q6,0,11.132,0A.815.815,0,0,1,11.8.255a.715.715,0,0,1,.147.754.719.719,0,0,1-.612.489,1.8,1.8,0,0,1-.251.009Z" transform="translate(0 4.765)" fill="#79838d" stroke="#79838d" stroke-width="0.2"/>
          <path id="Path_122" data-name="Path 122" d="M5.989,1.507q-2.589,0-5.179,0A.753.753,0,1,1,.72,0c.048,0,.1,0,.144,0Q6,0,11.132,0A.815.815,0,0,1,11.8.255a.715.715,0,0,1,.147.754.719.719,0,0,1-.612.489,1.8,1.8,0,0,1-.251.009Z" fill="#79838d" stroke="#79838d" stroke-width="0.2"/>
          <path id="Path_121" data-name="Path 121" d="M5.989,1.507q-2.589,0-5.179,0A.753.753,0,1,1,.72,0c.048,0,.1,0,.144,0Q6,0,11.132,0A.815.815,0,0,1,11.8.255a.715.715,0,0,1,.147.754.719.719,0,0,1-.612.489,1.8,1.8,0,0,1-.251.009Z" transform="translate(0 9.531)" fill="#79838d" stroke="#79838d" stroke-width="0.2"/>
        </g>
      </g>
    </g>
  </g>
  <g id="Group_381" data-name="Group 381" transform="translate(7.65 4.82)">
    <g id="Group_378" data-name="Group 378" transform="translate(0 0)">
      <g id="Group_377" data-name="Group 377">
        <g id="Path_110" data-name="Path 110" transform="translate(-291.752 -292.029)" fill="#79838d">
          <path d="M 293.3957214355469 306.326416015625 C 292.1006774902344 306.326416015625 291.0470886230469 305.2723999023438 291.0470886230469 303.9768676757812 C 291.0470886230469 303.0959167480469 291.5346374511719 302.3266906738281 292.2540588378906 301.9248352050781 C 292.244873046875 301.9101257324219 292.2360534667969 301.8950805664062 292.2276916503906 301.8797607421875 L 292.1505432128906 301.7384338378906 L 292.13818359375 301.5778503417969 C 291.9826965332031 299.55615234375 291.8423461914062 298.8081970214844 291.6646728515625 297.8612060546875 C 291.5426940917969 297.2113037109375 291.4044799804688 296.4746704101562 291.2355346679688 295.2070617675781 L 291.2347412109375 295.2011413574219 L 291.2340698242188 295.1951904296875 C 291.19970703125 294.9017639160156 291.1679382324219 294.6439208984375 291.1397399902344 294.4151000976562 C 291.0568237304688 293.7422180175781 291.0020446777344 293.2976989746094 291.0020446777344 292.9159851074219 C 291.0020446777344 292.3368225097656 291.2803955078125 291.8652954101562 291.7857971191406 291.5882873535156 C 292.1707458496094 291.3772888183594 292.6762390136719 291.2789916992188 293.3766174316406 291.2789916992188 L 293.4150085449219 291.2789916992188 C 294.1237182617188 291.2789916992188 294.6322937011719 291.3777160644531 295.0155029296875 291.5896606445312 C 295.5146484375 291.86572265625 295.78955078125 292.3367614746094 295.78955078125 292.9159851074219 C 295.78955078125 293.2957763671875 295.7354125976562 293.7369384765625 295.6534729003906 294.4047241210938 C 295.6250915527344 294.635986328125 295.5930480957031 294.8970031738281 295.5584106445312 295.1946716308594 C 295.392333984375 296.564697265625 295.2490234375 297.3301391601562 295.12255859375 298.0054931640625 C 294.9561157226562 298.89453125 294.8123474121094 299.6623229980469 294.6539611816406 301.58203125 L 294.638671875 301.7672729492188 L 294.5386352539062 301.9239501953125 C 294.5384521484375 301.9242858886719 294.5382385253906 301.9245910644531 294.5380249023438 301.9248962402344 C 295.2576599121094 302.3267822265625 295.7453918457031 303.0960083007812 295.7453918457031 303.9768676757812 C 295.7453918457031 305.2723999023438 294.6913452148438 306.326416015625 293.3957214355469 306.326416015625 Z" stroke="none"/>
          <path d="M 293.3766174316406 292.0289916992188 C 292.2618408203125 292.0289916992188 291.7520446777344 292.3118896484375 291.7520446777344 292.9159851074219 C 291.7520446777344 293.369873046875 291.8462829589844 293.9748229980469 291.9789733886719 295.1079711914062 C 292.39453125 298.2261047363281 292.6215209960938 298.081787109375 292.885986328125 301.5203552246094 C 292.9994201660156 301.7281494140625 293.7737731933594 301.7281799316406 293.906494140625 301.5203552246094 C 294.190185546875 298.081787109375 294.4354553222656 298.2261047363281 294.8134460449219 295.1079711914062 C 294.9453125 293.9748229980469 295.03955078125 293.369873046875 295.03955078125 292.9159851074219 C 295.03955078125 292.3118896484375 294.5489196777344 292.0289916992188 293.4150085449219 292.0289916992188 L 293.3766174316406 292.0289916992188 M 293.3957214355469 302.3782043457031 C 292.5130004882812 302.3782043457031 291.7970886230469 303.0940551757812 291.7970886230469 303.9768676757812 C 291.7970886230469 304.8605041503906 292.5130004882812 305.576416015625 293.3957214355469 305.576416015625 C 294.2794494628906 305.576416015625 294.9953918457031 304.8605041503906 294.9953918457031 303.9768676757812 C 294.9953918457031 303.0940551757812 294.2794494628906 302.3782043457031 293.3957214355469 302.3782043457031 M 293.3766174316406 290.5289916992188 L 293.4150085449219 290.5289916992188 C 294.2557983398438 290.5289916992188 294.8797302246094 290.657470703125 295.3784790039062 290.933349609375 C 296.1163635253906 291.3414611816406 296.53955078125 292.0641174316406 296.53955078125 292.9159851074219 C 296.53955078125 293.3416442871094 296.4831848144531 293.8009033203125 296.3978881835938 294.49609375 C 296.3696594238281 294.7259826660156 296.3378295898438 294.9854431152344 296.3033752441406 295.2813720703125 L 296.3025512695312 295.2884826660156 C 296.1339721679688 296.678955078125 295.98828125 297.45703125 295.8597412109375 298.1435241699219 C 295.6978454589844 299.0082397460938 295.5579223632812 299.7555847167969 295.4035339355469 301.617919921875 C 296.0712890625 302.1867370605469 296.4953918457031 303.0331726074219 296.4953918457031 303.9768676757812 C 296.4953918457031 305.6859741210938 295.1048889160156 307.076416015625 293.3957214355469 307.076416015625 C 291.6871337890625 307.076416015625 290.2970886230469 305.6859741210938 290.2970886230469 303.9768676757812 C 290.2970886230469 303.0329895019531 290.7212524414062 302.1863403320312 291.3890380859375 301.6175537109375 C 291.2372131347656 299.64990234375 291.1004943847656 298.9213256835938 290.9275207519531 297.9995422363281 C 290.8038635253906 297.3404541015625 290.6636962890625 296.5934753417969 290.4921264648438 295.3061218261719 L 290.4891662597656 295.2824401855469 C 290.4549865722656 294.9906616210938 290.4234008789062 294.7343444824219 290.3953552246094 294.5068359375 C 290.3090515136719 293.8064270019531 290.2520446777344 293.3437194824219 290.2520446777344 292.9159851074219 C 290.2520446777344 292.0629272460938 290.6796875 291.3392944335938 291.4253234863281 290.9305725097656 C 291.9251708984375 290.6566162109375 292.5452270507812 290.5289916992188 293.3766174316406 290.5289916992188 Z" stroke="none" fill="#fff"/>
        </g>
      </g>
    </g>
  </g>
</svg>
