<svg xmlns="http://www.w3.org/2000/svg" width="20.508" height="20.505" viewBox="0 0 20.508 20.505">
  <g id="Group_263" data-name="Group 263" transform="translate(0.2 0.2)">
    <g id="Path_72" data-name="Path 72" transform="translate(-254.915 -1803.737)" fill="#1a3253">
      <path d="M 263.7909545898438 1823.942749023438 C 263.2656555175781 1823.942749023438 262.9410095214844 1823.684448242188 262.9003295898438 1823.234130859375 C 262.8288269042969 1822.444091796875 262.3409423828125 1822.185180664062 261.659423828125 1821.905639648438 C 261.2480163574219 1821.73681640625 260.9066467285156 1821.607788085938 260.5715026855469 1821.607788085938 C 260.2686767578125 1821.607788085938 259.9974365234375 1821.714965820312 259.7179565429688 1821.945068359375 C 259.584228515625 1822.055297851562 259.428466796875 1822.113525390625 259.2675170898438 1822.113525390625 C 259.0400085449219 1822.113525390625 258.80517578125 1821.997192382812 258.6062927246094 1821.786010742188 C 258.0905456542969 1821.238403320312 257.5393981933594 1820.686645507812 256.9682006835938 1820.14599609375 C 256.5885925292969 1819.78662109375 256.53857421875 1819.356323242188 256.8343505859375 1818.994995117188 C 257.2966003417969 1818.430297851562 257.21923828125 1817.955200195312 256.9002990722656 1817.223022460938 L 256.8750915527344 1817.165161132812 C 256.5690612792969 1816.461303710938 256.3273315429688 1815.905395507812 255.4734649658203 1815.840087890625 C 255.0553588867188 1815.807861328125 254.8033142089844 1815.458862304688 254.8156433105469 1814.929077148438 C 254.8344268798828 1814.121826171875 254.8342742919922 1813.378173828125 254.8151550292969 1812.65576171875 C 254.8005523681641 1812.104858398438 255.0690612792969 1811.761962890625 255.5518341064453 1811.715087890625 C 256.26123046875 1811.646118164062 256.6548156738281 1811.27294921875 256.7904357910156 1810.54052734375 C 256.7986145019531 1810.496337890625 256.8167114257812 1810.431884765625 256.8564147949219 1810.375122070312 C 257.3128967285156 1809.720092773438 257.3062438964844 1809.16943359375 256.834716796875 1808.589721679688 C 256.5358581542969 1808.222290039062 256.5988159179688 1807.778564453125 257.0030822753906 1807.402709960938 C 257.3294067382812 1807.099365234375 257.6487121582031 1806.77587890625 257.9574890136719 1806.463134765625 C 258.1836242675781 1806.234008789062 258.41748046875 1805.997192382812 258.6530151367188 1805.769165039062 C 258.7513427734375 1805.674072265625 258.8705139160156 1805.604736328125 258.9967041015625 1805.531372070312 C 259.0574340820312 1805.49609375 259.1202392578125 1805.459594726562 259.1847229003906 1805.41796875 L 259.2342529296875 1805.386108398438 L 259.2861938476562 1805.413940429688 C 259.3962707519531 1805.473022460938 259.5053100585938 1805.529418945312 259.6129455566406 1805.585083007812 C 259.8672790527344 1805.716552734375 260.1075134277344 1805.840698242188 260.33984375 1805.988403320312 C 260.4501647949219 1806.058349609375 260.5389099121094 1806.089599609375 260.6275634765625 1806.089599609375 C 260.7061767578125 1806.089599609375 260.7918395996094 1806.064819335938 260.8971252441406 1806.011840820312 C 261.1515197753906 1805.883422851562 261.4194641113281 1805.7763671875 261.6785583496094 1805.672729492188 C 261.9039001464844 1805.582641601562 262.1369323730469 1805.489501953125 262.3572692871094 1805.383666992188 C 262.4984741210938 1805.315795898438 262.6673583984375 1805.167602539062 262.6939697265625 1805.046630859375 C 262.9486083984375 1803.8876953125 263.1401672363281 1803.637451171875 263.7726440429688 1803.637451171875 C 263.8501281738281 1803.637451171875 263.935302734375 1803.640380859375 264.0254821777344 1803.6435546875 C 264.1343383789062 1803.647338867188 264.2576904296875 1803.651611328125 264.3934020996094 1803.651611328125 C 264.4384155273438 1803.651611328125 264.4849853515625 1803.651123046875 264.5332336425781 1803.650024414062 C 264.6183776855469 1803.648071289062 264.70361328125 1803.647338867188 264.788818359375 1803.647338867188 C 264.916015625 1803.647338867188 265.0432739257812 1803.64892578125 265.1705017089844 1803.650634765625 C 265.296875 1803.652221679688 265.4232177734375 1803.65380859375 265.5494689941406 1803.65380859375 C 265.7366638183594 1803.65380859375 265.8905029296875 1803.650268554688 266.0336303710938 1803.642456054688 C 266.06396484375 1803.640747070312 266.0939025878906 1803.640014648438 266.1233520507812 1803.640014648438 C 266.652587890625 1803.640014648438 266.9924926757812 1803.914306640625 267.0325317382812 1804.373779296875 C 267.1007690429688 1805.155883789062 267.5845642089844 1805.372314453125 268.2541198730469 1805.671752929688 L 268.2933044433594 1805.689208984375 C 268.6324462890625 1805.841064453125 268.9935607910156 1805.981567382812 269.336669921875 1805.981567382812 C 269.6504821777344 1805.981567382812 269.9332885742188 1805.8681640625 270.2267456054688 1805.624755859375 C 270.3560791015625 1805.517578125 270.5067749023438 1805.460815429688 270.6625061035156 1805.460815429688 C 270.8807983398438 1805.460815429688 271.1069641113281 1805.572143554688 271.2994079589844 1805.774291992188 C 271.8835144042969 1806.3876953125 272.3804321289062 1806.895263671875 272.9068603515625 1807.379028320312 C 273.3287963867188 1807.766479492188 273.396484375 1808.224731445312 273.087890625 1808.604736328125 C 272.6061401367188 1809.197509765625 272.746826171875 1809.671630859375 273.0357666015625 1810.381958007812 C 273.342041015625 1811.134887695312 273.6248168945312 1811.673583984375 274.4790649414062 1811.7490234375 C 274.881103515625 1811.784301757812 275.1275329589844 1812.119750976562 275.1221008300781 1812.624389648438 C 275.1172180175781 1813.079711914062 275.1181945800781 1813.543090820312 275.1191711425781 1813.9912109375 C 275.1197814941406 1814.279541015625 275.1203918457031 1814.567993164062 275.1195373535156 1814.856323242188 C 275.1177673339844 1815.429565429688 274.9837341308594 1815.80224609375 274.3220520019531 1815.888427734375 C 273.6300964355469 1815.978637695312 273.2853088378906 1816.30419921875 273.1691589355469 1816.977294921875 C 273.1574401855469 1817.045288085938 273.1363830566406 1817.101684570312 273.1065673828125 1817.144775390625 C 272.6165161132812 1817.8525390625 272.6238098144531 1818.4404296875 273.130126953125 1819.050903320312 C 273.400390625 1819.376708984375 273.3333740234375 1819.8017578125 272.9552612304688 1820.160400390625 C 272.3194580078125 1820.764038085938 271.8094787597656 1821.275024414062 271.3502807617188 1821.768432617188 C 271.1421508789062 1821.992065429688 270.9049377441406 1822.1103515625 270.664306640625 1822.1103515625 C 270.4875183105469 1822.1103515625 270.3128356933594 1822.044311523438 270.1591796875 1821.919189453125 C 269.891357421875 1821.701416015625 269.6335144042969 1821.599975585938 269.3478088378906 1821.599975585938 C 269.0634155273438 1821.599975585938 268.7678833007812 1821.697631835938 268.3832397460938 1821.855346679688 C 267.6063232421875 1822.173706054688 267.0911560058594 1822.44580078125 267.0116882324219 1823.2939453125 C 266.9742736816406 1823.69384765625 266.6473693847656 1823.942138671875 266.1585388183594 1823.942138671875 L 266.1386413574219 1823.942016601562 C 265.7326049804688 1823.936279296875 265.3350830078125 1823.933471679688 264.9570922851562 1823.933471679688 C 264.5681457519531 1823.933471679688 264.184814453125 1823.9365234375 263.8176879882812 1823.942504882812 L 263.7909545898438 1823.942749023438 Z M 263.8683166503906 1822.843017578125 C 264.027587890625 1822.843139648438 264.1804809570312 1822.843505859375 264.3287048339844 1822.843872070312 C 264.4959716796875 1822.84423828125 264.6573181152344 1822.8447265625 264.8153686523438 1822.8447265625 C 265.0157775878906 1822.8447265625 265.2108764648438 1822.844116210938 265.406005859375 1822.842041015625 C 265.4415283203125 1822.841674804688 265.4754028320312 1822.841552734375 265.5074462890625 1822.841552734375 C 265.5814819335938 1822.841552734375 265.6465148925781 1822.84228515625 265.7037963867188 1822.843017578125 C 265.7481689453125 1822.843505859375 265.7878112792969 1822.843994140625 265.8233032226562 1822.843994140625 C 265.9294738769531 1822.843994140625 266.0045471191406 1822.839477539062 266.02587890625 1822.817626953125 C 266.0518798828125 1822.791015625 266.0694580078125 1822.699951171875 266.0937805175781 1822.573852539062 C 266.1116027832031 1822.481567382812 266.1337585449219 1822.366821289062 266.1689758300781 1822.221435546875 C 266.3065185546875 1821.65380859375 266.6025390625 1821.333251953125 267.1588134765625 1821.149658203125 C 267.7354431152344 1820.959106445312 268.2964477539062 1820.699462890625 268.7770080566406 1820.471069335938 C 268.9747009277344 1820.377075195312 269.1557006835938 1820.331420898438 269.3303527832031 1820.331420898438 C 269.5282897949219 1820.331420898438 269.7160339355469 1820.389526367188 269.9042663574219 1820.508911132812 C 270.0786743164062 1820.61962890625 270.2561645507812 1820.721435546875 270.4278259277344 1820.819946289062 C 270.4771728515625 1820.848266601562 270.5255432128906 1820.8759765625 270.5725708007812 1820.903198242188 L 272.0667419433594 1819.379272460938 C 272.0548400878906 1819.357543945312 272.042724609375 1819.335083007812 272.0303039550781 1819.31201171875 C 271.9737243652344 1819.206787109375 271.9095764160156 1819.087646484375 271.8316650390625 1818.98486328125 C 271.4482727050781 1818.47900390625 271.4291076660156 1817.963012695312 271.7713623046875 1817.361083984375 C 272.0408325195312 1816.88720703125 272.2251586914062 1816.34326171875 272.3767395019531 1815.870727539062 C 272.5247802734375 1815.409301757812 272.8040771484375 1815.143188476562 273.2556457519531 1815.033203125 C 273.4416809082031 1814.987915039062 273.6273803710938 1814.941284179688 273.8131103515625 1814.894653320312 L 274.0047607421875 1814.8466796875 L 274.0047607421875 1812.760375976562 C 273.9937744140625 1812.752319335938 273.9844360351562 1812.745727539062 273.9785461425781 1812.743286132812 C 273.9649658203125 1812.737426757812 273.9508056640625 1812.730834960938 273.9365539550781 1812.724243164062 C 273.9006042480469 1812.707397460938 273.8666076660156 1812.691650390625 273.8404541015625 1812.689697265625 C 272.9122314453125 1812.620361328125 272.362060546875 1812.109985351562 272.2051086425781 1811.172485351562 C 272.1857299804688 1811.056884765625 272.1385803222656 1810.93505859375 272.072265625 1810.829345703125 C 271.5946655273438 1810.068481445312 271.1723937988281 1809.088623046875 272.09228515625 1808.205688476562 L 271.6423034667969 1807.753784179688 L 270.5737915039062 1806.680541992188 C 270.5459289550781 1806.695922851562 270.5172424316406 1806.71142578125 270.4880065917969 1806.727294921875 C 270.3692626953125 1806.791381835938 270.2464294433594 1806.857788085938 270.1356201171875 1806.939331054688 C 269.86474609375 1807.138793945312 269.5982971191406 1807.235717773438 269.3210754394531 1807.235717773438 C 269.0779418945312 1807.235717773438 268.8267517089844 1807.161010742188 268.55322265625 1807.00732421875 C 268.0911560058594 1806.747436523438 267.5686340332031 1806.568603515625 267.0633239746094 1806.395629882812 L 267.0190124511719 1806.380493164062 C 266.5860900878906 1806.232177734375 266.3347778320312 1805.9755859375 266.2281799316406 1805.5732421875 C 266.1756896972656 1805.374877929688 266.1248474121094 1805.176147460938 266.0718994140625 1804.969116210938 C 266.0530700683594 1804.895385742188 266.0339660644531 1804.820678710938 266.014404296875 1804.744506835938 L 264.5275573730469 1804.744506835938 L 264.5123901367188 1804.744506835938 L 264.4976196289062 1804.744506835938 C 264.1780700683594 1804.744506835938 264.0210266113281 1804.747314453125 263.9429016113281 1804.810791015625 C 263.8642578125 1804.874755859375 263.8255004882812 1805.034423828125 263.7614440917969 1805.358642578125 C 263.6438598632812 1805.9541015625 263.3148803710938 1806.300415039062 262.7261352539062 1806.448364257812 C 262.4255676269531 1806.523803710938 262.0848999023438 1806.609375 261.8294372558594 1806.786743164062 C 261.4247436523438 1807.067626953125 261.0223999023438 1807.210083007812 260.6336059570312 1807.210083007812 C 260.2021484375 1807.210083007812 259.7708435058594 1807.034423828125 259.3510437011719 1806.687744140625 L 258.5189819335938 1807.521362304688 L 257.8531188964844 1808.188354492188 C 257.8706359863281 1808.219360351562 257.8881530761719 1808.251098632812 257.9058532714844 1808.283081054688 C 257.9727783203125 1808.404174804688 258.0419311523438 1808.529174804688 258.1239624023438 1808.641967773438 C 258.4754943847656 1809.125366210938 258.4937133789062 1809.615600585938 258.1812744140625 1810.18505859375 C 257.9328002929688 1810.637939453125 257.750732421875 1811.125732421875 257.5537719726562 1811.718627929688 C 257.4002990722656 1812.180786132812 257.1203002929688 1812.446411132812 256.6725769042969 1812.554809570312 C 256.608642578125 1812.5703125 256.5436401367188 1812.583618164062 256.4807434082031 1812.596435546875 C 256.335693359375 1812.6259765625 256.19873046875 1812.654052734375 256.0733337402344 1812.70703125 C 256.0061340332031 1812.7353515625 255.9263305664062 1812.844848632812 255.9249572753906 1812.89501953125 C 255.9112243652344 1813.396484375 255.9127655029297 1813.888305664062 255.9144134521484 1814.408935546875 C 255.9148559570312 1814.5498046875 255.9152984619141 1814.691284179688 255.9154205322266 1814.83349609375 C 255.9712677001953 1814.849609375 256.0260009765625 1814.866088867188 256.0799865722656 1814.882446289062 C 256.2428283691406 1814.931518554688 256.3966369628906 1814.977905273438 256.5518798828125 1815.005859375 C 257.0927124023438 1815.10302734375 257.4114074707031 1815.402465820312 257.5852355957031 1815.9765625 C 257.7453918457031 1816.505737304688 257.9915466308594 1817.020263671875 258.2510070800781 1817.544799804688 C 258.4735107421875 1817.994384765625 258.4684143066406 1818.380493164062 258.2349548339844 1818.759887695312 C 258.1311340332031 1818.928588867188 258.0310363769531 1819.0986328125 257.9342041015625 1819.263061523438 C 257.9059753417969 1819.310913085938 257.8781433105469 1819.358276367188 257.8507080078125 1819.404663085938 L 258.2554931640625 1819.81396484375 L 259.3440551757812 1820.914672851562 C 259.350830078125 1820.911254882812 259.3576354980469 1820.907836914062 259.3644409179688 1820.904296875 C 259.4242553710938 1820.873901367188 259.4807739257812 1820.845092773438 259.5256958007812 1820.8076171875 C 259.8859558105469 1820.505859375 260.2561950683594 1820.352905273438 260.6260375976562 1820.352905273438 C 260.9577026367188 1820.352905273438 261.2967224121094 1820.475952148438 261.6336975097656 1820.718505859375 C 261.775390625 1820.8203125 261.9375915527344 1820.894165039062 262.09033203125 1820.926391601562 C 262.9335327148438 1821.1044921875 263.889404296875 1821.484375 263.8683166503906 1822.843017578125 Z" stroke="none"/>
      <path d="M 263.7726440429688 1803.737426757812 C 263.2400817871094 1803.737426757812 263.0526733398438 1803.880004882812 262.7916259765625 1805.068115234375 C 262.7566833496094 1805.22705078125 262.5624389648438 1805.39599609375 262.4005737304688 1805.473754882812 C 261.9239196777344 1805.702758789062 261.4136962890625 1805.863159179688 260.942138671875 1806.10107421875 C 260.6903991699219 1806.22802734375 260.5155334472656 1806.218383789062 260.2861938476562 1806.07275390625 C 259.95849609375 1805.864501953125 259.604248046875 1805.6982421875 259.2388916015625 1805.502075195312 C 259.0380554199219 1805.631469726562 258.8563842773438 1805.711547851562 258.7225646972656 1805.841064453125 C 258.1659545898438 1806.379760742188 257.63818359375 1806.948852539062 257.0711669921875 1807.475952148438 C 256.7181091308594 1807.80419921875 256.6408386230469 1808.19287109375 256.9122924804688 1808.526611328125 C 257.4461364746094 1809.182983398438 257.3857421875 1809.79052734375 256.9383544921875 1810.432373046875 C 256.9130859375 1810.468505859375 256.8969116210938 1810.514770507812 256.8887634277344 1810.558715820312 C 256.75146484375 1811.300170898438 256.3559875488281 1811.737426757812 255.5615234375 1811.814575195312 C 255.1105346679688 1811.8583984375 254.9025268554688 1812.17724609375 254.9151000976562 1812.653076171875 C 254.9351806640625 1813.411987304688 254.9332885742188 1814.17236328125 254.9155883789062 1814.931396484375 C 254.9056396484375 1815.359008789062 255.0780639648438 1815.709350585938 255.4810791015625 1815.740356445312 C 256.4196166992188 1815.812133789062 256.6699829101562 1816.444091796875 256.9919738769531 1817.18310546875 C 257.2952880859375 1817.87939453125 257.4288024902344 1818.426635742188 256.9117126464844 1819.058349609375 C 256.6495361328125 1819.378662109375 256.6988525390625 1819.753295898438 257.0369262695312 1820.073364257812 C 257.5993347167969 1820.605712890625 258.148193359375 1821.15380859375 258.6791076660156 1821.717407226562 C 258.9822998046875 1822.039306640625 259.3570251464844 1822.113159179688 259.6543884277344 1821.867919921875 C 260.3521118164062 1821.29345703125 260.9520568847656 1821.50732421875 261.6973876953125 1821.813110351562 C 262.4131164550781 1822.106689453125 262.9242553710938 1822.388916015625 262.9999084472656 1823.22509765625 C 263.0391845703125 1823.65966796875 263.3664855957031 1823.850952148438 263.8160400390625 1823.842529296875 C 264.5904846191406 1823.829833984375 265.365478515625 1823.831176757812 266.1400451660156 1823.842041015625 C 266.146240234375 1823.842163085938 266.1524047851562 1823.842163085938 266.1585388183594 1823.842163085938 C 266.5586547851562 1823.842163085938 266.877197265625 1823.658203125 266.9121398925781 1823.28466796875 C 266.9978637695312 1822.369384765625 267.5828552246094 1822.0751953125 268.3453063964844 1821.762817382812 C 269.0428466796875 1821.476928710938 269.5848388671875 1821.323364257812 270.2222900390625 1821.841674804688 C 270.5501403808594 1822.1083984375 270.9452514648438 1822.057006835938 271.2770690917969 1821.700317382812 C 271.7941589355469 1821.144653320312 272.3357238769531 1820.610717773438 272.8864440917969 1820.087890625 C 273.2002258300781 1819.790283203125 273.3058471679688 1819.419311523438 273.0531616210938 1819.11474609375 C 272.47705078125 1818.420166015625 272.5517272949219 1817.7705078125 273.0243225097656 1817.087890625 C 273.04931640625 1817.0517578125 273.0630493164062 1817.004272460938 273.0706176757812 1816.960327148438 C 273.1914367675781 1816.260131835938 273.5651245117188 1815.88623046875 274.3091125488281 1815.789306640625 C 274.8794250488281 1815.714965820312 275.0177307128906 1815.438720703125 275.01953125 1814.856079101562 C 275.0217590332031 1814.11181640625 275.0141296386719 1813.367553710938 275.0220947265625 1812.623291015625 C 275.0264282226562 1812.221069335938 274.8591918945312 1811.8828125 274.4702758789062 1811.8486328125 C 273.5536804199219 1811.767700195312 273.25439453125 1811.184814453125 272.9431457519531 1810.419677734375 C 272.6610717773438 1809.726196289062 272.4871520996094 1809.185424804688 273.01025390625 1808.541625976562 C 273.2902526855469 1808.196899414062 273.2085571289062 1807.791870117188 272.8392028808594 1807.45263671875 C 272.2803955078125 1806.939208984375 271.7505493164062 1806.39306640625 271.2269592285156 1805.84326171875 C 270.9371948242188 1805.538696289062 270.5782470703125 1805.46337890625 270.2905883789062 1805.701782226562 C 269.6041259765625 1806.271118164062 269.0049743652344 1806.117309570312 268.25244140625 1805.780517578125 C 267.5653076171875 1805.472900390625 267.0076904296875 1805.239501953125 266.9329223632812 1804.382446289062 C 266.8922729492188 1803.916015625 266.5285339355469 1803.715942382812 266.0390319824219 1803.742309570312 C 265.6234130859375 1803.764770507812 265.2058715820312 1803.747314453125 264.788818359375 1803.747314453125 C 264.7043762207031 1803.747314453125 264.619873046875 1803.748046875 264.5355224609375 1803.75 C 264.2185668945312 1803.757080078125 263.9715270996094 1803.737426757812 263.7726440429688 1803.737426757812 M 269.3210754394531 1807.1357421875 C 269.5758056640625 1807.1357421875 269.8227844238281 1807.045532226562 270.0763549804688 1806.858764648438 C 270.2439880371094 1806.735473632812 270.4363708496094 1806.645874023438 270.5909118652344 1806.556030273438 C 271.1369934082031 1807.104614257812 271.6593322753906 1807.629150390625 272.2365417480469 1808.208862304688 C 271.3356018066406 1809.004150390625 271.5978393554688 1809.885498046875 272.156982421875 1810.776245117188 C 272.2280578613281 1810.889526367188 272.2817077636719 1811.024536132812 272.3037414550781 1811.156005859375 C 272.4507446289062 1812.034057617188 272.9499206542969 1812.52294921875 273.8477783203125 1812.589965820312 C 273.9059143066406 1812.59423828125 273.9626159667969 1812.627685546875 274.0183410644531 1812.651489257812 C 274.0447998046875 1812.662963867188 274.0672607421875 1812.68359375 274.1047668457031 1812.708862304688 L 274.1047668457031 1814.924682617188 C 273.8296203613281 1814.993286132812 273.5548095703125 1815.063232421875 273.279296875 1815.13037109375 C 272.8611450195312 1815.232177734375 272.6077880859375 1815.477905273438 272.4719543457031 1815.901245117188 C 272.3062438964844 1816.417846679688 272.1246948242188 1816.942016601562 271.8582763671875 1817.410522460938 C 271.5488586425781 1817.954711914062 271.5348510742188 1818.427612304688 271.911376953125 1818.924438476562 C 272.0292053222656 1819.079956054688 272.1123962402344 1819.261596679688 272.1907348632812 1819.395629882812 C 271.6571350097656 1819.939819335938 271.1387634277344 1820.468505859375 270.5894775390625 1821.02880859375 C 270.3650512695312 1820.897216796875 270.102783203125 1820.75341796875 269.8507080078125 1820.593383789062 C 269.5097351074219 1820.377075195312 269.18310546875 1820.388549804688 268.8199462890625 1820.561401367188 C 268.2880859375 1820.814208984375 267.7480773925781 1821.060302734375 267.1901550292969 1821.24462890625 C 266.6746520996094 1821.414794921875 266.3958129882812 1821.7099609375 266.2661743164062 1822.244995117188 C 266.0774841308594 1823.0234375 266.2633666992188 1822.941040039062 265.5074462890625 1822.941528320312 C 265.4757080078125 1822.941528320312 265.4421997070312 1822.941650390625 265.4070434570312 1822.942016601562 C 264.8919982910156 1822.947387695312 264.376953125 1822.943115234375 263.7649536132812 1822.942993164062 C 263.8276672363281 1821.701904296875 263.0851440429688 1821.23876953125 262.0697021484375 1821.024291992188 C 261.8960876464844 1820.987670898438 261.719970703125 1820.903686523438 261.5752563476562 1820.799682617188 C 260.8861389160156 1820.303588867188 260.231689453125 1820.346923828125 259.58984375 1820.88427734375 C 259.5114440917969 1820.949829101562 259.410888671875 1820.989135742188 259.325439453125 1821.0380859375 C 258.7906494140625 1820.497192382812 258.269775390625 1819.970581054688 257.725341796875 1819.420043945312 C 257.8577270507812 1819.197265625 258.0003051757812 1818.950317382812 258.1497802734375 1818.70751953125 C 258.3788146972656 1818.335327148438 258.354248046875 1817.978881835938 258.161376953125 1817.589111328125 C 257.9071960449219 1817.075317382812 257.6548461914062 1816.5517578125 257.4895324707031 1816.005493164062 C 257.3340148925781 1815.491943359375 257.0555725097656 1815.197998046875 256.5342102050781 1815.104248046875 C 256.29833984375 1815.061889648438 256.0696716308594 1814.9794921875 255.8154296875 1814.909057617188 C 255.8154296875 1814.225708007812 255.8067626953125 1813.55859375 255.8250122070312 1812.892211914062 C 255.8276977539062 1812.794555664062 255.939453125 1812.654907226562 256.034423828125 1812.614868164062 C 256.2271118164062 1812.533447265625 256.4429931640625 1812.507568359375 256.6490478515625 1812.457641601562 C 257.067138671875 1812.3564453125 257.319580078125 1812.106567382812 257.4588623046875 1811.687133789062 C 257.6347045898438 1811.15771484375 257.8264465332031 1810.623901367188 258.0935974121094 1810.136962890625 C 258.3765869140625 1809.621215820312 258.38623046875 1809.172607421875 258.0430908203125 1808.700805664062 C 257.9193115234375 1808.530639648438 257.8260803222656 1808.338134765625 257.728271484375 1808.171875 C 258.26416015625 1807.635009765625 258.7872619628906 1807.111083984375 259.3235778808594 1806.57373046875 C 259.3231811523438 1806.573852539062 259.3327331542969 1806.572021484375 259.3444519042969 1806.572021484375 C 259.3565063476562 1806.572021484375 259.3711242675781 1806.573974609375 259.3805236816406 1806.58203125 C 260.1470642089844 1807.233642578125 260.9271545410156 1807.291137695312 261.7724304199219 1806.70458984375 C 262.0372619628906 1806.520751953125 262.381103515625 1806.431884765625 262.7017822265625 1806.351318359375 C 263.2485046386719 1806.213989257812 263.5523376464844 1805.901489257812 263.6633605957031 1805.339233398438 C 263.7995910644531 1804.649536132812 263.8263549804688 1804.64453125 264.4976806640625 1804.64453125 C 264.5074768066406 1804.64453125 264.5174560546875 1804.64453125 264.5275573730469 1804.64453125 C 265.0422058105469 1804.64453125 265.5568542480469 1804.64453125 266.0919494628906 1804.64453125 C 266.1740417480469 1804.963256835938 266.2476196289062 1805.255981445312 266.3248596191406 1805.547607421875 C 266.4264831542969 1805.931274414062 266.6705627441406 1806.155395507812 267.0514221191406 1806.285888671875 C 267.5797424316406 1806.466796875 268.1186828613281 1806.648193359375 268.6022033691406 1806.920166015625 C 268.8553161621094 1807.062377929688 269.0913391113281 1807.1357421875 269.3210754394531 1807.1357421875 M 263.7726135253906 1803.537353515625 C 263.7726440429688 1803.537353515625 263.7726440429688 1803.537353515625 263.7726440429688 1803.537353515625 C 263.8518981933594 1803.537353515625 263.93798828125 1803.540405273438 264.0290832519531 1803.543579101562 C 264.1728210449219 1803.548583984375 264.3400268554688 1803.554565429688 264.5309448242188 1803.550048828125 C 264.7445068359375 1803.545166015625 264.9581909179688 1803.5478515625 265.1717834472656 1803.550659179688 C 265.2977294921875 1803.55224609375 265.4236145019531 1803.553833007812 265.5494689941406 1803.553833007812 C 265.73486328125 1803.553833007812 265.8869934082031 1803.55029296875 266.0281982421875 1803.542602539062 C 266.0603637695312 1803.540893554688 266.0921325683594 1803.539916992188 266.1233520507812 1803.539916992188 C 266.7099914550781 1803.539916992188 267.0870971679688 1803.848388671875 267.1321716308594 1804.365112304688 C 267.1952819824219 1805.088623046875 267.6327514648438 1805.284301757812 268.2949523925781 1805.580444335938 L 268.3341674804688 1805.598022460938 C 268.6631774902344 1805.745239257812 269.0123596191406 1805.881591796875 269.3367004394531 1805.881591796875 C 269.6258544921875 1805.881591796875 269.8883972167969 1805.775512695312 270.1629028320312 1805.5478515625 C 270.3103942871094 1805.425537109375 270.483154296875 1805.36083984375 270.6625061035156 1805.36083984375 C 270.9084167480469 1805.36083984375 271.1603393554688 1805.483154296875 271.371826171875 1805.705322265625 C 271.9544982910156 1806.317260742188 272.4500732421875 1806.823486328125 272.9745178222656 1807.305419921875 C 273.4328918457031 1807.726318359375 273.5060729980469 1808.248413085938 273.1654968261719 1808.667724609375 C 272.7185668945312 1809.2177734375 272.8533325195312 1809.668090820312 273.12841796875 1810.344360351562 C 273.4304504394531 1811.086791992188 273.6882629394531 1811.578857421875 274.4878540039062 1811.6494140625 C 274.94677734375 1811.689697265625 275.2281494140625 1812.063720703125 275.2221069335938 1812.62548828125 C 275.2172241210938 1813.080200195312 275.2182006835938 1813.543212890625 275.2191772460938 1813.990966796875 C 275.2197875976562 1814.279541015625 275.2203979492188 1814.568115234375 275.2195434570312 1814.856689453125 C 275.2176513671875 1815.466552734375 275.0664978027344 1815.892333984375 274.3349609375 1815.987670898438 C 273.6942443847656 1816.071044921875 273.3750610351562 1816.372192382812 273.2677001953125 1816.994384765625 C 273.2535095214844 1817.076782226562 273.2269592285156 1817.146484375 273.1887817382812 1817.20166015625 C 272.7223815917969 1817.875366210938 272.7278747558594 1818.409301757812 273.2070922851562 1818.987060546875 C 273.5095520019531 1819.3515625 273.4377136230469 1819.840698242188 273.0240783691406 1820.233032226562 C 272.3898620605469 1820.835083007812 271.8812255859375 1821.3447265625 271.4234924316406 1821.836547851562 C 271.1959533691406 1822.0810546875 270.9334411621094 1822.210327148438 270.664306640625 1822.210327148438 C 270.4642333984375 1822.210327148438 270.2677612304688 1822.136474609375 270.0960693359375 1821.996826171875 C 269.8470458984375 1821.794311523438 269.6092834472656 1821.699951171875 269.3478088378906 1821.699951171875 C 269.0798034667969 1821.699951171875 268.7945556640625 1821.794799804688 268.421142578125 1821.947875976562 C 267.65576171875 1822.261474609375 267.1856384277344 1822.509155273438 267.1112670898438 1823.303344726562 C 267.0692749023438 1823.752197265625 266.6953125 1824.042114257812 266.1585388183594 1824.042114257812 L 266.1371459960938 1824.0419921875 C 265.7318420410156 1824.036376953125 265.3347778320312 1824.033447265625 264.9570922851562 1824.033447265625 C 264.5688171386719 1824.033447265625 264.1860046386719 1824.036499023438 263.8193054199219 1824.04248046875 L 263.7909240722656 1824.042724609375 C 263.2161560058594 1824.042724609375 262.8459777832031 1823.743774414062 262.8007202148438 1823.243041992188 C 262.7341613769531 1822.507568359375 262.2906188964844 1822.272583007812 261.6214904785156 1821.998168945312 C 261.2203674316406 1821.833618164062 260.8883666992188 1821.707763671875 260.5715026855469 1821.707763671875 C 260.2931518554688 1821.707763671875 260.0421142578125 1821.807739257812 259.7815246582031 1822.022338867188 C 259.6296997070312 1822.147338867188 259.4519348144531 1822.213500976562 259.2675170898438 1822.213500976562 C 259.0121459960938 1822.213500976562 258.75146484375 1822.086059570312 258.5334777832031 1821.8544921875 C 258.01904296875 1821.308349609375 257.4692687988281 1820.757934570312 256.8994445800781 1820.218627929688 C 256.4838562011719 1819.8251953125 256.4292602539062 1819.33203125 256.7569274902344 1818.931640625 C 257.1890563964844 1818.40380859375 257.1178894042969 1817.973022460938 256.8086242675781 1817.262939453125 L 256.7833862304688 1817.204956054688 C 256.4793395996094 1816.505737304688 256.2596435546875 1816.00048828125 255.4658203125 1815.939819335938 C 254.9893798828125 1815.903076171875 254.7019653320312 1815.514892578125 254.7156372070312 1814.9267578125 C 254.7344055175781 1814.121826171875 254.7342529296875 1813.3798828125 254.7151794433594 1812.658325195312 C 254.6992797851562 1812.057250976562 255.0084533691406 1811.667358398438 255.5421752929688 1811.615478515625 C 256.20947265625 1811.550659179688 256.5641174316406 1811.213500976562 256.6921081542969 1810.522338867188 C 256.7020874023438 1810.468383789062 256.7244873046875 1810.389282226562 256.7744750976562 1810.317749023438 C 257.2068481445312 1809.697387695312 257.2017211914062 1809.199462890625 256.7571411132812 1808.65283203125 C 256.4263305664062 1808.24609375 256.4944763183594 1807.739013671875 256.9349975585938 1807.329467773438 C 257.2597351074219 1807.027587890625 257.5782775878906 1806.704956054688 257.8863220214844 1806.392944335938 C 258.1128540039062 1806.163452148438 258.3471069335938 1805.926147460938 258.5834655761719 1805.697387695312 C 258.6905517578125 1805.59375 258.8148498535156 1805.521484375 258.9464721679688 1805.444946289062 C 259.0061950683594 1805.41015625 259.0679931640625 1805.374267578125 259.1305541992188 1805.333984375 L 259.2296447753906 1805.270141601562 L 259.33349609375 1805.325805664062 C 259.4430847167969 1805.384765625 259.5516967773438 1805.440795898438 259.6588439941406 1805.496215820312 C 259.9152221679688 1805.628784179688 260.1573791503906 1805.75390625 260.3934631347656 1805.903930664062 C 260.4867858886719 1805.963134765625 260.5590209960938 1805.989624023438 260.6275634765625 1805.989624023438 C 260.6899719238281 1805.989624023438 260.7612915039062 1805.96826171875 260.8521118164062 1805.922485351562 C 261.1103515625 1805.792236328125 261.3803405761719 1805.684204101562 261.6414489746094 1805.579833984375 C 261.865234375 1805.490356445312 262.0966491699219 1805.397827148438 262.31396484375 1805.29345703125 C 262.45458984375 1805.225952148438 262.5812072753906 1805.09375 262.5962829589844 1805.025146484375 C 262.8620910644531 1803.815551757812 263.0819702148438 1803.537353515625 263.7726440429688 1803.537353515625 L 263.7726135253906 1803.537353515625 Z M 265.9368286132812 1804.844482421875 L 264.4976806640625 1804.844482421875 C 264.253173828125 1804.844482421875 264.0600280761719 1804.844482421875 264.0059814453125 1804.888427734375 C 263.9467468261719 1804.9365234375 263.9004211425781 1805.171142578125 263.8595581054688 1805.3779296875 C 263.7353210449219 1806.007202148438 263.37255859375 1806.389038085938 262.75048828125 1806.545288085938 C 262.4582214355469 1806.618774414062 262.126953125 1806.702026367188 261.886474609375 1806.868896484375 C 261.4646606445312 1807.16162109375 261.0431518554688 1807.31005859375 260.6336059570312 1807.31005859375 C 260.2028198242188 1807.31005859375 259.7744140625 1807.14599609375 259.3584594726562 1806.821899414062 L 257.9772338867188 1808.20556640625 C 257.9826049804688 1808.215209960938 257.9879760742188 1808.224975585938 257.9933776855469 1808.234741210938 C 258.0588073730469 1808.35302734375 258.12646484375 1808.475463867188 258.204833984375 1808.583129882812 C 258.5818176269531 1809.1015625 258.6022033691406 1809.625854492188 258.2689514160156 1810.233154296875 C 258.0241394042969 1810.679443359375 257.8439025878906 1811.162353515625 257.6486511230469 1811.750122070312 C 257.4855651855469 1812.241333007812 257.1739807128906 1812.536376953125 256.6961059570312 1812.651977539062 C 256.6304321289062 1812.66796875 256.5645141601562 1812.681396484375 256.500732421875 1812.694458007812 C 256.3607177734375 1812.723022460938 256.2284851074219 1812.75 256.1122741699219 1812.799072265625 C 256.0845031738281 1812.811645507812 256.0336608886719 1812.872436523438 256.0247802734375 1812.902954101562 C 256.01123046875 1813.4013671875 256.0127868652344 1813.89111328125 256.0143737792969 1814.409423828125 C 256.0147399902344 1814.525390625 256.0151062011719 1814.641845703125 256.0152893066406 1814.758544921875 C 256.0467834472656 1814.767944335938 256.0779724121094 1814.77734375 256.1089172363281 1814.786743164062 C 256.2688903808594 1814.8349609375 256.4200134277344 1814.880493164062 256.5695495605469 1814.907348632812 C 257.1442260742188 1815.0107421875 257.4973449707031 1815.341186523438 257.6809387207031 1815.947509765625 C 257.8388977050781 1816.469360351562 258.0831298828125 1816.979858398438 258.3406372070312 1817.500366210938 C 258.5765991210938 1817.977294921875 258.5698852539062 1818.406494140625 258.3200988769531 1818.812377929688 C 258.2168273925781 1818.980102539062 258.116943359375 1819.149780273438 258.0203857421875 1819.313720703125 C 258.0054931640625 1819.339111328125 257.9906921386719 1819.364135742188 257.9760131835938 1819.389038085938 L 259.3636169433594 1820.792236328125 C 259.4011840820312 1820.7724609375 259.4353942871094 1820.752685546875 259.4615478515625 1820.730834960938 C 260.1796875 1820.129516601562 260.9423828125 1820.097534179688 261.6921081542969 1820.637329101562 C 261.82080078125 1820.729858398438 261.9735412597656 1820.799560546875 262.1109924316406 1820.82861328125 C 262.9047241210938 1820.996215820312 263.9394226074219 1821.377807617188 263.9679870605469 1822.7431640625 C 264.2684936523438 1822.74365234375 264.5466918945312 1822.744750976562 264.8153686523438 1822.74462890625 C 265.0154418945312 1822.74462890625 265.2101745605469 1822.744018554688 265.4049682617188 1822.742065429688 C 265.44140625 1822.74169921875 265.4778137207031 1822.742309570312 265.5088500976562 1822.741577148438 C 265.6393737792969 1822.741577148438 265.7423400878906 1822.743896484375 265.8233032226562 1822.744018554688 C 265.8952941894531 1822.744018554688 265.9341735839844 1822.741455078125 265.9550170898438 1822.738525390625 C 265.9673156738281 1822.701416015625 265.982177734375 1822.624267578125 265.99560546875 1822.554931640625 C 266.0136108398438 1822.461669921875 266.0360412597656 1822.345458984375 266.0718078613281 1822.197875976562 C 266.216552734375 1821.600463867188 266.5421142578125 1821.247924804688 267.1274719238281 1821.0546875 C 267.6986694335938 1820.865966796875 268.2562561035156 1820.60791015625 268.7341003417969 1820.380737304688 C 269.1877136230469 1820.165161132812 269.5744323730469 1820.181030273438 269.9578552246094 1820.424560546875 C 270.1304016113281 1820.534057617188 270.306884765625 1820.63525390625 270.4775695800781 1820.733154296875 C 270.5038146972656 1820.748291015625 270.52978515625 1820.76318359375 270.555419921875 1820.77783203125 L 271.9436340332031 1819.361938476562 C 271.9431762695312 1819.361083984375 271.9427185058594 1819.360229492188 271.9422607421875 1819.359375 C 271.8847045898438 1819.25244140625 271.8251953125 1819.141845703125 271.751953125 1819.045166015625 C 271.3414306640625 1818.503540039062 271.3199462890625 1817.95263671875 271.6844177246094 1817.311645507812 C 271.9491882324219 1816.846069335938 272.1314697265625 1816.307983398438 272.2815246582031 1815.840209960938 C 272.4390563964844 1815.34912109375 272.7499694824219 1815.053466796875 273.2319946289062 1814.93603515625 C 273.4177551269531 1814.890747070312 273.603271484375 1814.84423828125 273.7887573242188 1814.797607421875 L 273.9047546386719 1814.7685546875 L 273.9047546386719 1812.819702148438 C 273.9013061523438 1812.818115234375 273.8978271484375 1812.816528320312 273.8943481445312 1812.814819335938 C 273.8739929199219 1812.805419921875 273.84326171875 1812.791015625 273.83203125 1812.789306640625 C 272.8528747558594 1812.71630859375 272.2720336914062 1812.177856445312 272.1064758300781 1811.189086914062 C 272.0894775390625 1811.087646484375 272.046142578125 1810.975952148438 271.9875793457031 1810.882568359375 C 271.5020751953125 1810.109130859375 271.0729064941406 1809.117309570312 271.9508666992188 1808.205444335938 L 270.5558166503906 1806.80419921875 C 270.5491027832031 1806.807861328125 270.5423583984375 1806.8115234375 270.5355529785156 1806.815185546875 C 270.4197998046875 1806.877807617188 270.3000793457031 1806.942504882812 270.1948547363281 1807.019897460938 C 269.90625 1807.232421875 269.6203918457031 1807.335815429688 269.3210754394531 1807.335815429688 C 269.060302734375 1807.335815429688 268.7930908203125 1807.2568359375 268.5042419433594 1807.094482421875 C 268.0501098632812 1806.839111328125 267.531982421875 1806.661743164062 267.0309448242188 1806.490234375 L 266.9866333007812 1806.47509765625 C 266.5255737304688 1806.317138671875 266.2458801269531 1806.030517578125 266.1315307617188 1805.598876953125 C 266.0789184570312 1805.400146484375 266.0279846191406 1805.201049804688 265.9749450683594 1804.993530273438 C 265.9623718261719 1804.9443359375 265.9496765136719 1804.894775390625 265.9368286132812 1804.844482421875 Z" stroke="none" fill="#1a3253"/>
    </g>
    <g id="Path_73" data-name="Path 73" transform="translate(-416.851 -1966.007)" fill="#1a3253">
      <path d="M 426.9012451171875 1980.7177734375 L 426.89892578125 1980.7177734375 C 425.635498046875 1980.717407226562 424.4627685546875 1980.233276367188 423.5967712402344 1979.354370117188 C 422.7313537597656 1978.47607421875 422.2498779296875 1977.2822265625 422.2410583496094 1975.992797851562 C 422.2329406738281 1974.80615234375 422.7032775878906 1973.674072265625 423.5654296875 1972.805053710938 C 424.4579162597656 1971.905395507812 425.6417541503906 1971.409301757812 426.8988647460938 1971.407958984375 L 426.9045104980469 1971.407958984375 C 429.5048217773438 1971.407958984375 431.5463256835938 1973.46240234375 431.5522155761719 1976.085083007812 C 431.5549621582031 1977.316284179688 431.0760803222656 1978.475830078125 430.2037963867188 1979.35009765625 C 429.3237609863281 1980.232055664062 428.15087890625 1980.7177734375 426.9012451171875 1980.7177734375 Z M 426.9019165039062 1972.394653320312 L 426.9019165039062 1972.49462890625 C 424.9788513183594 1972.49462890625 423.3432312011719 1974.094848632812 423.3302307128906 1975.988891601562 C 423.3234558105469 1976.968383789062 423.6976623535156 1977.888671875 424.3838500976562 1978.580200195312 C 425.0557250976562 1979.257202148438 425.9463500976562 1979.63037109375 426.8916625976562 1979.631103515625 C 427.8265075683594 1979.631103515625 428.7496948242188 1979.241821289062 429.4270324707031 1978.563110351562 C 430.1013793945312 1977.887451171875 430.4717407226562 1977.010620117188 430.4698791503906 1976.094116210938 C 430.4658813476562 1974.11083984375 428.866455078125 1972.49609375 426.9044799804688 1972.49462890625 L 426.9019165039062 1972.394653320312 Z" stroke="none"/>
      <path d="M 426.9012451171875 1980.617797851562 C 429.4184875488281 1980.617797851562 431.4578247070312 1978.586791992188 431.4522094726562 1976.085327148438 C 431.4464721679688 1973.525268554688 429.4417724609375 1971.507934570312 426.9045104980469 1971.507934570312 C 426.9028015136719 1971.507934570312 426.9006958007812 1971.507934570312 426.8989868164062 1971.507934570312 C 424.3988647460938 1971.510620117188 422.3243408203125 1973.551635742188 422.341064453125 1975.992065429688 C 422.3589477539062 1978.604125976562 424.3424072265625 1980.617065429688 426.8989868164062 1980.617797851562 C 426.8997497558594 1980.617797851562 426.9004821777344 1980.617797851562 426.9012451171875 1980.617797851562 M 426.9019165039062 1972.394653320312 C 426.9027709960938 1972.394653320312 426.9036865234375 1972.394653320312 426.904541015625 1972.394653320312 C 428.9130859375 1972.396118164062 430.5657958984375 1974.064086914062 430.5698852539062 1976.093872070312 C 430.5738525390625 1978.062255859375 428.8871765136719 1979.731079101562 426.8942260742188 1979.731079101562 C 426.8933715820312 1979.731079101562 426.8924560546875 1979.731079101562 426.8916015625 1979.731079101562 C 424.86083984375 1979.729614257812 423.2160034179688 1978.047973632812 423.230224609375 1975.988159179688 C 423.2435913085938 1974.04150390625 424.9263916015625 1972.394653320312 426.9019165039062 1972.394653320312 M 426.9012451171875 1980.817749023438 L 426.8989868164062 1980.817749023438 C 425.6084899902344 1980.8173828125 424.4104614257812 1980.322631835938 423.5255432128906 1979.424560546875 C 422.6417541503906 1978.527587890625 422.1500854492188 1977.30908203125 422.1410522460938 1975.993408203125 C 422.1327514648438 1974.780029296875 422.6134033203125 1973.622680664062 423.4944458007812 1972.734619140625 C 424.4058227539062 1971.816040039062 425.6148376464844 1971.309326171875 426.8987731933594 1971.307983398438 L 426.9045104980469 1971.307983398438 C 429.5607604980469 1971.307983398438 431.6462097167969 1973.40625 431.6522216796875 1976.084838867188 C 431.655029296875 1977.3427734375 431.165771484375 1978.527465820312 430.2745971679688 1979.420654296875 C 429.3756408691406 1980.321655273438 428.1776428222656 1980.817749023438 426.9012451171875 1980.817749023438 Z M 426.9019165039062 1972.394653320312 L 426.9019165039062 1972.594604492188 C 425.0326843261719 1972.594604492188 423.4428405761719 1974.149291992188 423.4302368164062 1975.989501953125 C 423.4236450195312 1976.942260742188 423.7875366210938 1977.837280273438 424.454833984375 1978.509765625 C 425.1077880859375 1979.167724609375 425.9732360839844 1979.530395507812 426.8917541503906 1979.531127929688 C 427.8001403808594 1979.531127929688 428.6975402832031 1979.152587890625 429.3562622070312 1978.492553710938 C 430.0116882324219 1977.835693359375 430.3716735839844 1976.984008789062 430.369873046875 1976.09423828125 C 430.3659973144531 1974.166015625 428.8113708496094 1972.596069335938 426.9043884277344 1972.594604492188 L 426.9019165039062 1972.394653320312 Z" stroke="none" fill="#1a3253"/>
    </g>
  </g>
</svg>
