<svg xmlns="http://www.w3.org/2000/svg" width="20.59" height="24.694" viewBox="0 0 20.59 24.694">
  <g id="Group_7411" data-name="Group 7411" transform="translate(-8425.69 -345.729)">
    <g id="Path_8836" data-name="Path 8836" transform="translate(8433.201 347.753)" fill="none">
      <path d="M2.823-2.023c4.588,0,5.461,5.1,3.7,5.094s-4.679.024-7.107,0S-1.764-2.023,2.823-2.023Z" stroke="none"/>
      <path d="M 2.823421716690063 -1.023281335830688 C 0.3032016754150391 -1.023281335830688 -0.7959184646606445 0.7935286164283752 -0.8004484176635742 1.720308542251587 C -0.8021483421325684 2.068728685379028 -0.7120580673217773 2.069608688354492 -0.575688362121582 2.070948600769043 C 0.106231689453125 2.077618598937988 0.8830819129943848 2.080858707427979 1.799271821975708 2.080858707427979 C 2.678561687469482 2.080858707427979 3.573461771011353 2.077838659286499 4.363011837005615 2.075178623199463 C 5.054441928863525 2.072848796844482 5.695301532745361 2.070688724517822 6.244471549987793 2.070688724517822 L 6.355955600738525 2.070772647857666 C 6.399559497833252 1.826689481735229 6.357594013214111 1.280280232429504 6.000761985778809 0.6584286689758301 C 5.640361785888672 0.03036856651306152 4.74834156036377 -1.023281335830688 2.823421716690063 -1.023281335830688 M 2.823421716690063 -2.023281335830688 C 7.41124153137207 -2.023281097412109 8.284558296203613 3.073591709136963 6.521821975708008 3.070898532867432 C 5.31376314163208 3.069000244140625 3.563025951385498 3.080860614776611 1.799275636672974 3.080860614776611 C 0.9900326728820801 3.080860614776611 0.1782474517822266 3.078365087509155 -0.5854682922363281 3.070898532867432 C -3.013708591461182 3.047158718109131 -1.764408111572266 -2.023281335830688 2.823421716690063 -2.023281335830688 Z" stroke="none" fill="#1a3253"/>
    </g>
    <g id="Path_8837" data-name="Path 8837" transform="translate(8425.69 349.834)" fill="none">
      <path d="M4.576,0H16.015A4.576,4.576,0,0,1,20.59,4.576V16.015a4.576,4.576,0,0,1-4.576,4.576H4.576A4.576,4.576,0,0,1,0,16.015V4.576A4.576,4.576,0,0,1,4.576,0Z" stroke="none"/>
      <path d="M 4.57557487487793 0.9999961853027344 C 2.603996276855469 0.9999961853027344 0.9999961853027344 2.603996276855469 0.9999961853027344 4.57557487487793 L 0.9999961853027344 16.01453590393066 C 0.9999961853027344 17.98611450195312 2.603996276855469 19.59011459350586 4.57557487487793 19.59011459350586 L 16.01453590393066 19.59011459350586 C 17.98611450195312 19.59011459350586 19.59011459350586 17.98611450195312 19.59011459350586 16.01453590393066 L 19.59011459350586 4.57557487487793 C 19.59011459350586 2.603996276855469 17.98611450195312 0.9999961853027344 16.01453590393066 0.9999961853027344 L 4.57557487487793 0.9999961853027344 M 4.57557487487793 -3.814697265625e-06 L 16.01453590393066 -3.814697265625e-06 C 18.54155540466309 -3.814697265625e-06 20.59011459350586 2.048555374145508 20.59011459350586 4.57557487487793 L 20.59011459350586 16.01453590393066 C 20.59011459350586 18.54155540466309 18.54155540466309 20.59011459350586 16.01453590393066 20.59011459350586 L 4.57557487487793 20.59011459350586 C 2.048555374145508 20.59011459350586 -3.814697265625e-06 18.54155540466309 -3.814697265625e-06 16.01453590393066 L -3.814697265625e-06 4.57557487487793 C -3.814697265625e-06 2.048555374145508 2.048555374145508 -3.814697265625e-06 4.57557487487793 -3.814697265625e-06 Z" stroke="none" fill="#1a3253"/>
    </g>
  </g>
</svg>
