<svg xmlns="http://www.w3.org/2000/svg" width="38.359" height="34.548" viewBox="0 0 38.359 34.548"><defs><style>.a{fill:#ffdc00;}.b{fill:#373737;}.c{fill:#ffaf37;}.d,.e,.l{fill:#0c2032;}.d{opacity:0.14;}.f{fill:#f25e2e;}.g{fill:#d84821;}.h{fill:#af412f;}.i{fill:#19b6a7;}.j{fill:#fff;}.k{fill:#c44e33;}.l{opacity:0.2;}</style></defs><g transform="translate(-20.762 -616.796)"><g transform="translate(32.349 626.65)"><g transform="translate(0 0)"><path class="a" d="M63.654,655.762,56.76,652.78v18.941l6.894-4.872,6.894,4.872v-24.2Z" transform="translate(-56.513 -647.274)"/><path class="b" d="M70.044,671.464a.248.248,0,0,1-.142-.045l-6.751-4.771L56.4,671.419a.246.246,0,0,1-.389-.2V652.03l14.28-5.26v24.448a.247.247,0,0,1-.247.247ZM63.15,666.1a.247.247,0,0,1,.142.045l6.5,4.6V647.263L56.5,652.523v18.219l6.5-4.6A.247.247,0,0,1,63.15,666.1Z" transform="translate(-56.01 -646.77)"/><g transform="translate(0.245 0.938)"><path class="c" d="M70.547,649.623v16a16.785,16.785,0,0,1-6.029,1.151,16.3,16.3,0,0,1-3.358-.365,17.887,17.887,0,0,1-4.4-1.553v-9.972Z" transform="translate(-56.756 -649.623)"/></g></g><g transform="translate(0 2.982)"><path class="b" d="M70.044,677.554a.248.248,0,0,1-.142-.045l-6.751-4.772L56.4,677.509a.246.246,0,0,1-.389-.2V658.472l14.034-2.63a.247.247,0,0,1,.247.247v21.219a.246.246,0,0,1-.247.247Zm-6.893-5.365a.246.246,0,0,1,.142.045l6.5,4.6v-20.5L56.5,658.965v17.866l6.5-4.6A.246.246,0,0,1,63.15,672.189Z" transform="translate(-56.01 -655.842)"/></g></g><g transform="translate(20.762 616.796)"><path class="d" d="M46.3,667.414s2.581,2.307,2.446,2.666.974-.6.578-.763c-.334-.136-1.311-2-2.588-2.42C46.5,666.818,46.582,667.425,46.3,667.414Z" transform="translate(-37.903 -650.423)"/><g transform="translate(0)"><path class="e" d="M48.255,666.248s2.581,2.306,2.446,2.665.975-.6.578-.763c-.334-.136-1.311-2-2.588-2.42C48.454,665.652,48.54,666.258,48.255,666.248Z" transform="translate(-39.217 -649.639)"/><g transform="translate(0 7.412)"><path class="f" d="M37.206,639.535a11.336,11.336,0,0,1-1.3,1.82,25.76,25.76,0,0,1-15.142,6.694,7.607,7.607,0,0,0,4.231,1.517,3.8,3.8,0,0,1,1.607.244c.821.424,1.1,1.487,1.832,2.046a3.007,3.007,0,0,0,2.061.447,15.245,15.245,0,0,1,2.148-.167c.62.041,1.9.876,2.506.994,1.9.366,3.253-.678,4.869-1.737a1.818,1.818,0,0,0,.757-.8,2.453,2.453,0,0,0,.043-1.086,22.762,22.762,0,0,1,.526-4.71,5.686,5.686,0,0,0-.949-4.508,2.173,2.173,0,0,0-1.1-.718c-.7-.165-1.4-.494-1.7.161Z" transform="translate(-20.762 -639.343)"/><g transform="translate(0 3.045)"><path class="g" d="M59.778,661.29c-.555-.107-1.661-.808-2.323-.965a18.789,18.789,0,0,0,3.039-2.529,33.782,33.782,0,0,0,4.934-6.3.866.866,0,0,1,.111.014,3.094,3.094,0,0,1,.519.149,9.8,9.8,0,0,1-.084,1.3,22.762,22.762,0,0,0-.526,4.71,2.453,2.453,0,0,1-.043,1.086,1.818,1.818,0,0,1-.757.8C63.031,660.612,61.676,661.656,59.778,661.29Z" transform="translate(-45.393 -650.549)"/><path class="h" d="M80.81,651.72l-.035.045A.207.207,0,0,1,80.81,651.72Z" transform="translate(-61.047 -650.697)"/><path class="h" d="M80.882,649.63l.809-1.023,0,.027q-.264.466-.542.924A.358.358,0,0,0,80.882,649.63Z" transform="translate(-61.119 -648.607)"/><path class="g" d="M31.733,653.529l-5.719,2.478c-1.024.443-2.054.889-3.109,1.249a7.565,7.565,0,0,1-2.143-1.128,24.815,24.815,0,0,0,12.187-4.387q.608-.17,1.21-.363C33.93,652.481,32.766,653.081,31.733,653.529Z" transform="translate(-20.762 -650.468)"/><path class="g" d="M42.159,665.033a5.946,5.946,0,0,1,2.226-1.12,4.345,4.345,0,0,1-1.6,2.491l-2.009,1.935c-.659-.509-.949-1.423-1.606-1.9A12.43,12.43,0,0,0,42.159,665.033Z" transform="translate(-33.121 -658.881)"/></g></g><g transform="translate(7.741 6.712)"><path class="i" d="M44.972,648.252c1.705-1.856,3.418-3.764,5.075-5.608l.819-.91a3.221,3.221,0,0,1,2.42-1.177h.759c.449,0,.894,0,1.343,0h.541c.628,0,1.252.008,1.88.008a3.6,3.6,0,0,1,2.134.576,2.384,2.384,0,0,0,.326.179c.068.032.131.064.195.1h0l.016.008c.223.119.445.234.672.354.6-.819,1.165-1.6,1.737-2.4a3.112,3.112,0,0,1,.393-.449,1.477,1.477,0,0,1-.376-.1c1.246.063,2.475.271,3.713.413a2.22,2.22,0,0,1-.075,2.61c-.286.389-.572.783-.854,1.176-.624.867-1.272,1.761-1.923,2.631a2.57,2.57,0,0,1-2.055,1.109c-.034,0-.067-.006-.1-.007-.4-1.206-2.374-1.521-2.649-.021a11.5,11.5,0,0,0-.132,5.058,1.276,1.276,0,0,0,.707.868c0,1.334.136,2.078.136,4.518a3.954,3.954,0,0,1-.028.556,2.254,2.254,0,0,1-1.657,1.852,2.286,2.286,0,0,1-.592.076,2.224,2.224,0,0,1-2.206-1.848,2.318,2.318,0,0,1-2.2,1.86,2.335,2.335,0,0,1-.854-.171,2.2,2.2,0,0,1-1.443-2.094c-.015-.874-.012-1.763-.008-2.627.568-.126.645-.82.662-1.567.032-1.37.548-2.56.548-3.936a1.341,1.341,0,1,0-2.679.108c0,.205-.006.409-.014.613-.342.42-.685.842-1.029,1.258a2.171,2.171,0,0,1-1.693.775,2.143,2.143,0,0,1-2.142-1.86A2.366,2.366,0,0,1,44.972,648.252Z" transform="translate(-44.315 -638.304)"/><path class="e" d="M64.827,638.008a1.379,1.379,0,0,1,1.132.6,1.428,1.428,0,0,1-.06,1.7c-.922,1.268-1.832,2.543-2.77,3.8a1.811,1.811,0,0,1-1.419.788,1.589,1.589,0,0,1-.831-.244c-.64-.39-1.315-.711-2.019-1.085v.366c0,1.292-.616,3-.613,4.757,0,.818.493,1.9.493,2.5.12,1.743.027,2.375.055,2.438a15.005,15.005,0,0,1,.081,2.474,3.485,3.485,0,0,1-.02.453,1.451,1.451,0,0,1-1.061,1.184,1.641,1.641,0,0,1-.4.052,1.485,1.485,0,0,1-1.461-1.57l-.657-5.52h-.183s-.661,4.63-.657,5.592a1.514,1.514,0,0,1-1.446,1.51,1.5,1.5,0,0,1-.561-.115,1.408,1.408,0,0,1-.942-1.363c-.021-1.317-.008-2.379-.008-3.692,0-2.506.855-3.456.855-4.028,0-.6-.855-.823-.855-3.463,0-.076-.008-.147-.016-.278-.374.461-.707.874-1.041,1.288-.954,1.176-1.9,2.357-2.861,3.525a1.439,1.439,0,0,1-1.78.3,1.454,1.454,0,0,1-.227-2.281c1.983-2.158,3.939-4.34,5.9-6.522a2.431,2.431,0,0,1,1.832-.914l.754,0c1.255,0,2.51.014,3.765.014a2.78,2.78,0,0,1,1.677.433,5.315,5.315,0,0,0,.612.33c.429.227.858.453,1.292.683.731-1,1.446-1.979,2.15-2.965a1.987,1.987,0,0,1,.64-.622,2.284,2.284,0,0,1,.552-.123c.037,0,.075,0,.112,0m-.012-.793c-.059,0-.117,0-.176.007l-.537.044-.034.109h-.1l-.17.089a2.667,2.667,0,0,0-.918.831c-.429.6-.857,1.192-1.3,1.795l-1.108.256-.022-.012h0c-.064-.033-.129-.065-.194-.1a2.623,2.623,0,0,1-.327-.178,3.579,3.579,0,0,0-2.134-.578q-.939,0-1.878-.007c-.629,0-1.258-.007-1.887-.007l-.758,0a3.214,3.214,0,0,0-2.419,1.177l-.82.911c-1.658,1.844-3.372,3.75-5.077,5.6a2.369,2.369,0,0,0-.633,1.938,2.192,2.192,0,0,0,3.839,1.083c.671-.815,1.344-1.649,2-2.455l.514-.636.446.6a2.7,2.7,0,0,1,.2,1.766l-.506,2.143a4.3,4.3,0,0,0-.157,1.263c.008.294.015.6.015.775,0,.884,0,1.8.01,2.7a2.2,2.2,0,0,0,1.441,2.091,2.3,2.3,0,0,0,.856.172,2.207,2.207,0,0,0,1.535-.647,2.176,2.176,0,0,0,.665-1.211,2.226,2.226,0,0,0,2.2,1.847,2.4,2.4,0,0,0,.594-.075,2.256,2.256,0,0,0,1.658-1.852,4.159,4.159,0,0,0,.027-.557c0-2.441-.135-3.314-.136-4.912,0-.7-.561-2.041-.563-3.024,0-1.257.688-2.2.686-3.292.279.147.549.3.81.454a2.368,2.368,0,0,0,1.243.359,2.582,2.582,0,0,0,2.057-1.108c.65-.874,1.3-1.767,1.921-2.631q.427-.59.854-1.179a2.213,2.213,0,0,0,.068-2.62,2.182,2.182,0,0,0-1.784-.936Z" transform="translate(-44.311 -637.213)"/></g><g transform="translate(18.723 11.686)"><rect class="e" width="0.081" height="2.898" transform="translate(0.382 3.129) rotate(180)"/><circle class="e" cx="0.359" cy="0.359" r="0.359"/><circle class="e" cx="0.359" cy="0.359" r="0.359" transform="translate(0 1.259)"/><circle class="e" cx="0.359" cy="0.359" r="0.359" transform="translate(0 2.519)"/></g><g transform="translate(14.967 1.318)"><path class="j" d="M66.292,624.885a4.218,4.218,0,0,0,.329,1.663,4.17,4.17,0,0,0,.21.418,2.137,2.137,0,0,0,.141.236c.056.085.118.171.184.253a3.325,3.325,0,0,0,.322.371,3.841,3.841,0,0,0,.726.582c.053.033.105.065.158.1s.108.059.164.089l.164.079c.112.052.227.1.345.138a4.837,4.837,0,0,0,.539.148c.062.013.125.023.184.033.033,0,.066.01.1.013s.092.013.141.016.092.01.138.013h.546c.066,0,.131-.01.2-.016s.128-.016.194-.026a4.092,4.092,0,0,0,1.3-.443c.056-.03.115-.066.171-.1s.112-.069.164-.105a3.959,3.959,0,0,0,.467-.368c.046-.043.1-.089.141-.135s.108-.111.161-.167c.036-.04.069-.082.105-.125s.082-.1.122-.155.079-.105.115-.161l.059-.089c.033-.049.062-.1.092-.151s.062-.112.092-.168.059-.112.082-.168a4.009,4.009,0,0,0,.358-1.3,1.487,1.487,0,0,0,.013-.174c.007-.079.01-.161.01-.244a4.1,4.1,0,0,0-.694-2.3,3.738,3.738,0,0,0-.233-.316c-.082-.1-.168-.2-.263-.293-.046-.049-.1-.092-.141-.138a1.822,1.822,0,0,0-.148-.129,3.742,3.742,0,0,0-.477-.345c-.112-.069-.227-.131-.345-.191a3.609,3.609,0,0,0-.365-.157,3.1,3.1,0,0,0-.381-.122,3.971,3.971,0,0,0-1.016-.132h-.016a4.179,4.179,0,0,0-2.929,1.193,4.069,4.069,0,0,0-.44.51,3.677,3.677,0,0,0-.276.428A4.026,4.026,0,0,0,66.292,624.885Zm.8,0a3.308,3.308,0,0,1,3.356-3.28h.013a3.32,3.32,0,0,1-.039,6.64h-.01A3.305,3.305,0,0,1,67.087,624.888Z" transform="translate(-66.292 -620.812)"/><path class="e" d="M66.292,624.878a4.218,4.218,0,0,0,.329,1.663,3.845,3.845,0,0,0,.21.418,2.137,2.137,0,0,0,.141.236,2.758,2.758,0,0,0,.184.253,3.325,3.325,0,0,0,.322.371,3.841,3.841,0,0,0,.726.582c.053.033.105.065.158.1s.108.059.164.089l.164.079a3.2,3.2,0,0,0,.345.138,3.738,3.738,0,0,0,.539.148c.062.013.125.023.184.033.033,0,.066.01.1.013s.092.013.141.016.108.01.164.013c.082.007.168.01.253.01s.178,0,.263-.01h0c.066,0,.131-.01.2-.016s.128-.016.194-.026a4.092,4.092,0,0,0,1.3-.443c.056-.03.115-.066.171-.1s.112-.069.164-.105a3.959,3.959,0,0,0,.467-.368c.046-.043.1-.089.141-.135s.108-.111.161-.167c.036-.04.069-.082.105-.125s.082-.1.122-.155.079-.105.115-.161l.059-.089c.033-.049.062-.1.092-.151s.062-.112.092-.168.059-.112.082-.168a4.009,4.009,0,0,0,.358-1.3,1.487,1.487,0,0,0,.013-.174c.007-.079.01-.161.01-.244a4.1,4.1,0,0,0-.694-2.3,3.738,3.738,0,0,0-.233-.316c-.082-.1-.168-.2-.263-.293-.046-.049-.1-.092-.141-.138a1.822,1.822,0,0,0-.148-.129,3.523,3.523,0,0,0-.477-.345,4.07,4.07,0,0,0-.71-.348,3.1,3.1,0,0,0-.381-.122,3.972,3.972,0,0,0-1.016-.135h-.016a4.157,4.157,0,0,0-2.929,1.2,4.069,4.069,0,0,0-.44.51,3.677,3.677,0,0,0-.276.428A4.026,4.026,0,0,0,66.292,624.878Zm.8,0a3.308,3.308,0,0,1,3.356-3.28h.013a3.32,3.32,0,0,1-.039,6.64h-.01A3.305,3.305,0,0,1,67.087,624.881Z" transform="translate(-66.292 -620.805)"/><path class="j" d="M68.712,626.506a3.305,3.305,0,0,0,3.32,3.36h.01a3.32,3.32,0,0,0,.039-6.64h-.013A3.308,3.308,0,0,0,68.712,626.506Z" transform="translate(-67.916 -622.43)"/></g><path class="k" d="M70.013,643.55c.127.055.243.344.367.567s.391.824.862.931,1.356-.324,1.808-.179,1.114.636,1.695.541c1.987-.324.5-2.088.5-2.088s-.257.124-.553.289l-.035.017a4.494,4.494,0,0,1-3.2.2c-.012,0-.023-.009-.035-.012-.448-.162-.934-.376-1.244-.5C69.718,643.143,69.886,643.5,70.013,643.55Z" transform="translate(-53.73 -634.568)"/><path class="e" d="M101.014,641.959s2.557,2.052,2.49,2.389-.2.376-.3.423a19.512,19.512,0,0,1-2.422-2.381C100.711,642.194,101.014,641.959,101.014,641.959Z" transform="translate(-74.468 -633.687)"/><path class="e" d="M69.875,623.162a15.319,15.319,0,0,1,2.438.723c.438.274.2-.707.055-.94s1.616.352,2.274.613a6.023,6.023,0,0,0,1.493.326l-1.827-1.819s-.592-.381-.814-.3a5.621,5.621,0,0,1-1.18,0,4.156,4.156,0,0,0-.959.218c-.411.164-1.261.5-1.261.5Z" transform="translate(-53.73 -620.125)"/><g transform="translate(23.733)"><path class="a" d="M93.854,625.25c.046.177.255.421.4.432.35.027.42.226.478.492.059.288.131.574.2.86.259,1.1.259,1.1,1.326,1l.624-.152a1.561,1.561,0,0,1,.247-.177,1.66,1.66,0,0,1,.3-.131.143.143,0,0,1,0-.041c.009-.314.107-.557.51-.578.44-.021.443.285.492.553l1.148-.28a.654.654,0,0,0,.243-.776c-.135-.555-.268-1.119-.412-1.73.294,0,.48,0,.657.01,1.1.047,2.2.1,3.3.149.605.022.79-.186.659-.76q-.7-3.037-1.429-6.066c-.133-.545-.388-.636-.894-.375a8.378,8.378,0,0,0-.769.429,17.3,17.3,0,0,1-6.867,2.672c-.218.028-.43.1-.644.143a.5.5,0,0,0-.439.685C93.269,622.823,93.542,624.041,93.854,625.25Z" transform="translate(-92.957 -617.296)"/><g transform="translate(0.001)"><path class="e" d="M93.858,625.252c.046.177.255.421.4.432.35.028.42.226.478.492.059.288.131.574.2.86.259,1.1.259,1.1,1.326,1l.624-.152a1.523,1.523,0,0,1,.247-.177c.1-.055.487.487.589.454,0-.013.417-.139.418-.153.009-.313-.19.005.3-.5l1.148-.28a.654.654,0,0,0,.243-.776c-.135-.554-.268-1.118-.412-1.73.294,0,.48,0,.657.01,1.1.047,2.2.1,3.3.149.605.022.79-.186.659-.76q-.7-3.038-1.429-6.066c-.133-.546-.388-.637-.894-.375a8.3,8.3,0,0,0-.769.428,17.3,17.3,0,0,1-6.867,2.672c-.218.029-.43.1-.644.143a.5.5,0,0,0-.439.685C93.273,622.825,93.546,624.043,93.858,625.252Zm2.8-.064c.445-.114.9-.189,1.34-.32.372-.11.55,0,.6.385.035.248.214.948.281,1.23-.464.013-2.582.53-2.788.569-.075.013-.262-.259-.3-.424C95.467,625.221,95.347,625.528,96.659,625.188Zm-2.6-3.009c-.086-.328.024-.482.345-.535.216-.037.425-.119.643-.147a15.571,15.571,0,0,0,6.13-2.438c.171-.109.344-.191.6-.329L103,623.923c-.953-.041-1.847-.064-2.737-.129a7.682,7.682,0,0,0-2.771.25c-.777.22-1.576.367-2.354.564-.335.093-.514.016-.588-.338C94.4,623.567,94.231,622.87,94.055,622.179Z" transform="translate(-92.961 -617.297)"/><path class="e" d="M131.571,619.652a4.26,4.26,0,0,1-.433,3.139c-.164.3-.373.539-.743.321-.348-.2-.214-.49-.08-.768a3.467,3.467,0,0,0-1.077-4.585c-.266-.207-.509-.419-.247-.767s.559-.157.818.025A4.25,4.25,0,0,1,131.571,619.652Z" transform="translate(-117.072 -616.796)"/><path class="e" d="M128.185,624.075a1.121,1.121,0,0,1,.218.939,4.237,4.237,0,0,1-.227.774.437.437,0,0,1-.8-.34,1.048,1.048,0,0,0-.308-1.324.438.438,0,0,1,.552-.678A4.8,4.8,0,0,1,128.185,624.075Z" transform="translate(-115.784 -621.228)"/></g></g></g><path class="l" d="M106.032,635.215l-.219-1.1s-4.712.192-5.808.466-2.849.822-2.849.822.247.685.657.685,5.15-.493,5.15-.493Z" transform="translate(-72.043 -628.425)"/></g></g></svg>