<svg xmlns="http://www.w3.org/2000/svg" width="116.688" height="105.095" viewBox="0 0 116.688 105.095"><defs><style>.a{fill:#ffdc00;}.b{fill:#373737;}.c{fill:#ffaf37;}.d,.e,.l{fill:#0c2032;}.d{opacity:0.14;}.f{fill:#f25e2e;}.g{fill:#d84821;}.h{fill:#af412f;}.i{fill:#19b6a7;}.j{fill:#fff;}.k{fill:#c44e33;}.l{opacity:0.2;}</style></defs><g transform="translate(-20.762 -616.796)"><path class="a" d="M77.731,672.593,56.76,663.521v57.62l20.971-14.821L98.7,721.141V647.52Z"/><path class="b" d="M98.7,721.891a.755.755,0,0,1-.433-.138L77.731,707.238,57.193,721.753a.75.75,0,0,1-1.183-.612v-58.37l43.441-16v74.371a.75.75,0,0,1-.75.75Zm-20.97-16.322a.75.75,0,0,1,.433.138l19.787,13.985V648.27l-40.441,16v55.421L77.3,705.707A.751.751,0,0,1,77.731,705.569Z"/><path class="c" d="M98.707,649.623v48.671a51.057,51.057,0,0,1-18.339,3.5,49.585,49.585,0,0,1-10.216-1.111,54.415,54.415,0,0,1-13.4-4.723V665.624Z"/><path class="b" d="M98.7,721.891a.755.755,0,0,1-.433-.138L77.731,707.238,57.193,721.753a.75.75,0,0,1-1.183-.612v-57.3l42.691-8a.75.75,0,0,1,.75.75v64.549a.75.75,0,0,1-.75.75Zm-20.97-16.322a.75.75,0,0,1,.433.138l19.787,13.985v-62.35l-40.441,8v54.35L77.3,705.707A.751.751,0,0,1,77.731,705.569Z"/><path class="d" d="M46.3,668.485s7.851,7.017,7.442,8.109,2.964-1.828,1.758-2.32c-1.017-.415-3.988-6.09-7.872-7.363C46.9,666.673,47.164,668.519,46.3,668.485Z"/><path class="e" d="M48.255,667.319s7.851,7.016,7.442,8.108,2.965-1.828,1.758-2.32c-1.017-.415-3.987-6.09-7.872-7.363C48.86,665.507,49.122,667.352,48.255,667.319Z"/><path class="f" d="M70.784,639.927a34.482,34.482,0,0,1-3.96,5.538c-12.764,11.373-29,19.208-46.062,20.362a23.143,23.143,0,0,0,12.871,4.615c1.662.07,3.411-.022,4.889.741,2.5,1.289,3.336,4.525,5.574,6.224a9.149,9.149,0,0,0,6.269,1.359,46.358,46.358,0,0,1,6.534-.508c1.886.124,5.768,2.666,7.624,3.023,5.771,1.113,9.895-2.062,14.811-5.283a5.53,5.53,0,0,0,2.3-2.427,7.463,7.463,0,0,0,.131-3.3c-.393-4.8.987-9.549,1.6-14.328s.295-10.094-2.886-13.713a6.611,6.611,0,0,0-3.335-2.183c-2.13-.5-4.268-1.5-5.173.49Z"/><path class="g" d="M64.523,681.281c-1.688-.325-5.054-2.458-7.068-2.934a57.164,57.164,0,0,0,9.244-7.694A102.767,102.767,0,0,0,81.709,651.5a2.625,2.625,0,0,1,.338.044,9.426,9.426,0,0,1,1.578.452,29.8,29.8,0,0,1-.255,3.943c-.614,4.779-1.994,9.526-1.6,14.328a7.463,7.463,0,0,1-.131,3.3,5.53,5.53,0,0,1-2.3,2.427C74.418,679.219,70.294,682.394,64.523,681.281Z"/><path class="h" d="M80.882,651.72l-.107.136A.631.631,0,0,1,80.882,651.72Z"/><path class="h" d="M80.882,651.72l2.461-3.113.014.081q-.8,1.419-1.648,2.812A1.089,1.089,0,0,0,80.882,651.72Z"/><path class="g" d="M54.137,657.92l-17.4,7.538c-3.114,1.349-6.249,2.7-9.458,3.8a23.013,23.013,0,0,1-6.52-3.43c13.27-.9,26.044-5.839,37.073-13.344q1.85-.516,3.682-1.1C60.818,654.731,57.279,656.558,54.137,657.92Z"/><path class="g" d="M48.255,667.319c2.14-1.384,4.251-3.029,6.771-3.406-.3,3.053-2.647,5.45-4.856,7.578l-6.111,5.886c-2-1.548-2.886-4.329-4.886-5.79A37.813,37.813,0,0,0,48.255,667.319Z"/><path class="i" d="M46.308,667.476c5.187-5.646,10.4-11.449,15.439-17.059l2.49-2.768A9.8,9.8,0,0,1,71.6,644.07h2.309c1.366,0,2.72,0,4.086.012H79.64c1.91.012,3.808.024,5.718.024a10.942,10.942,0,0,1,6.492,1.753,7.246,7.246,0,0,0,.991.544c.206.1.4.194.593.3h.012l.048.024c.677.363,1.354.713,2.043,1.076,1.814-2.491,3.543-4.872,5.284-7.3a9.479,9.479,0,0,1,1.2-1.366,4.482,4.482,0,0,1-1.143-.3c3.791.191,7.529.824,11.3,1.257a6.754,6.754,0,0,1-.228,7.941c-.87,1.184-1.741,2.381-2.6,3.578-1.9,2.636-3.869,5.356-5.851,8a7.819,7.819,0,0,1-6.251,3.374c-.1,0-.2-.017-.308-.022-1.208-3.668-7.221-4.628-8.057-.064-.592,3.23-1.993,9.546-.4,15.386a3.882,3.882,0,0,0,2.151,2.642c0,4.058.415,6.321.415,13.745a12.03,12.03,0,0,1-.085,1.692A6.855,6.855,0,0,1,85.914,702a6.951,6.951,0,0,1-1.8.23,6.766,6.766,0,0,1-6.71-5.622,7.05,7.05,0,0,1-6.7,5.658,7.1,7.1,0,0,1-2.6-.52,6.693,6.693,0,0,1-4.389-6.371c-.047-2.66-.036-5.363-.024-7.992,1.729-.384,1.962-2.493,2.015-4.768.1-4.167,1.667-7.788,1.667-11.974,0-5.484-8.15-5.147-8.15.328,0,.624-.018,1.244-.043,1.864-1.039,1.279-2.085,2.56-3.13,3.827a6.605,6.605,0,0,1-5.15,2.357,6.52,6.52,0,0,1-6.516-5.658A7.2,7.2,0,0,1,46.308,667.476Z"/><path class="e" d="M106.722,639.631a4.2,4.2,0,0,1,3.444,1.816,4.344,4.344,0,0,1-.181,5.162c-2.805,3.857-5.574,7.737-8.427,11.57a5.508,5.508,0,0,1-4.316,2.4,4.833,4.833,0,0,1-2.527-.742c-1.946-1.185-4-2.164-6.141-3.3v1.112c.008,3.93-1.874,9.115-1.866,14.472,0,2.487,1.5,5.795,1.5,7.616.366,5.3.082,7.225.168,7.417.115.258.115.258.247,7.526a10.6,10.6,0,0,1-.06,1.378,4.413,4.413,0,0,1-3.228,3.6,4.982,4.982,0,0,1-1.226.158,4.519,4.519,0,0,1-4.444-4.777l-2-16.793h-.558s-2.012,14.085-2,17.011a4.607,4.607,0,0,1-4.4,4.592A4.565,4.565,0,0,1,69,699.5a4.284,4.284,0,0,1-2.866-4.146c-.064-4.007-.024-7.237-.024-11.232,0-7.623,2.6-10.514,2.6-12.254,0-1.835-2.6-2.5-2.6-10.535,0-.23-.024-.447-.048-.846-1.137,1.4-2.152,2.66-3.168,3.917-2.9,3.578-5.779,7.169-8.7,10.724a4.377,4.377,0,0,1-5.416.918,4.424,4.424,0,0,1-.69-6.939c6.033-6.565,11.981-13.2,17.954-19.839a7.4,7.4,0,0,1,5.573-2.781q1.147-.006,2.294-.006c3.817,0,7.635.042,11.452.042a8.455,8.455,0,0,1,5.1,1.318,16.171,16.171,0,0,0,1.862,1c1.305.689,2.611,1.378,3.929,2.079,2.224-3.047,4.4-6.021,6.54-9.019a6.045,6.045,0,0,1,1.947-1.893,6.95,6.95,0,0,1,1.68-.375c.113-.009.227-.013.34-.013m-.036-2.412c-.178,0-.356.008-.536.022l-1.634.133-.1.333-.316,0-.517.27a8.111,8.111,0,0,0-2.794,2.527c-1.3,1.827-2.606,3.625-3.942,5.459l-3.371.779-.067-.036-.007,0c-.194-.1-.392-.2-.589-.295a7.993,7.993,0,0,1-1-.541,10.886,10.886,0,0,0-6.493-1.758q-2.856,0-5.713-.021c-1.913-.01-3.826-.021-5.739-.021q-1.153,0-2.307.006a9.778,9.778,0,0,0-7.358,3.581l-2.493,2.772c-5.043,5.608-10.259,11.407-15.443,17.049a7.208,7.208,0,0,0-1.925,5.9,6.668,6.668,0,0,0,11.678,3.3c2.041-2.48,4.089-5.015,6.071-7.467q.781-.968,1.564-1.936l1.357,1.818a8.213,8.213,0,0,1,.609,5.373l-1.54,6.518a13.089,13.089,0,0,0-.477,3.843c.023.893.047,1.813.046,2.359-.007,2.69-.015,5.471.03,8.211a6.685,6.685,0,0,0,4.385,6.362,7,7,0,0,0,2.605.522,6.714,6.714,0,0,0,4.671-1.968,6.62,6.62,0,0,0,2.022-3.684,6.773,6.773,0,0,0,6.707,5.618,7.309,7.309,0,0,0,1.808-.229,6.862,6.862,0,0,0,5.043-5.634,12.654,12.654,0,0,0,.081-1.693c0-7.425-.411-10.081-.415-14.943,0-2.143-1.708-6.21-1.713-9.2C88.906,666.711,91,663.855,91,660.52c.849.448,1.669.9,2.464,1.382a7.2,7.2,0,0,0,3.78,1.093,7.853,7.853,0,0,0,6.256-3.372c1.978-2.658,3.943-5.376,5.844-8.005q1.3-1.8,2.6-3.586a6.731,6.731,0,0,0,.208-7.971,6.637,6.637,0,0,0-5.426-2.848Z"/><rect class="e" width="0.247" height="8.817" transform="translate(78.88 661.865) rotate(180)"/><circle class="e" cx="1.094" cy="1.094" r="1.094" transform="translate(77.719 652.346)"/><circle class="e" cx="1.094" cy="1.094" r="1.094" transform="translate(77.719 656.177)"/><circle class="e" cx="1.094" cy="1.094" r="1.094" transform="translate(77.719 660.007)"/><path class="j" d="M66.292,633.2a12.83,12.83,0,0,0,1,5.06,12.7,12.7,0,0,0,.64,1.271,6.5,6.5,0,0,0,.43.719c.17.26.36.52.56.77a10.113,10.113,0,0,0,.98,1.13,11.689,11.689,0,0,0,2.21,1.771c.16.1.32.2.48.289s.33.18.5.271.33.159.5.24c.34.159.69.289,1.05.419a14.666,14.666,0,0,0,1.64.451c.19.039.38.07.56.1.1.01.2.031.3.041.14.019.28.039.43.05s.28.029.42.039h1.66c.2-.01.4-.029.6-.05s.39-.049.59-.08a12.455,12.455,0,0,0,3.94-1.349c.17-.091.35-.2.52-.3s.34-.211.5-.32a12.058,12.058,0,0,0,1.42-1.12c.14-.13.29-.271.43-.411.17-.17.33-.339.49-.509.11-.121.21-.25.32-.38.13-.151.25-.31.37-.471s.24-.32.35-.489l.18-.271c.1-.149.19-.3.28-.459s.19-.341.28-.51.18-.341.25-.51a12.2,12.2,0,0,0,1.09-3.951,4.52,4.52,0,0,0,.04-.529c.02-.241.03-.491.03-.741a12.482,12.482,0,0,0-2.11-7.009,11.346,11.346,0,0,0-.71-.961c-.25-.3-.51-.6-.8-.89-.14-.149-.29-.279-.43-.419a5.537,5.537,0,0,0-.45-.391,11.367,11.367,0,0,0-1.45-1.05c-.34-.21-.69-.4-1.05-.58a10.925,10.925,0,0,0-1.11-.479,9.407,9.407,0,0,0-1.16-.37,12.075,12.075,0,0,0-3.09-.4h-.05a12.714,12.714,0,0,0-8.91,3.63,12.384,12.384,0,0,0-1.34,1.55,11.185,11.185,0,0,0-.84,1.3A12.249,12.249,0,0,0,66.292,633.2Zm2.42.01a10.065,10.065,0,0,1,10.21-9.979h.04a10.1,10.1,0,0,1-.12,20.2h-.03A10.055,10.055,0,0,1,68.712,633.205Z"/><path class="e" d="M66.292,633.2a12.83,12.83,0,0,0,1,5.06,11.711,11.711,0,0,0,.64,1.271,6.5,6.5,0,0,0,.43.719,8.392,8.392,0,0,0,.56.77,10.113,10.113,0,0,0,.98,1.13,11.689,11.689,0,0,0,2.21,1.771c.16.1.32.2.48.289s.33.18.5.271.33.159.5.24a9.771,9.771,0,0,0,1.05.419,11.347,11.347,0,0,0,1.64.451c.19.039.38.07.56.1.1.01.2.031.3.041.14.019.28.039.43.05s.33.029.5.039c.25.021.51.031.77.031s.54-.01.8-.031h.01c.2-.01.4-.029.6-.05s.39-.049.59-.08a12.455,12.455,0,0,0,3.94-1.349c.17-.091.35-.2.52-.3s.34-.211.5-.32a12.058,12.058,0,0,0,1.42-1.12c.14-.13.29-.271.43-.411.17-.17.33-.339.49-.509.11-.121.21-.25.32-.38.13-.151.25-.31.37-.471s.24-.32.35-.489l.18-.271c.1-.149.19-.3.28-.459s.19-.341.28-.51.18-.341.25-.51a12.2,12.2,0,0,0,1.09-3.951,4.52,4.52,0,0,0,.04-.529c.02-.241.03-.491.03-.741a12.482,12.482,0,0,0-2.11-7.009,11.346,11.346,0,0,0-.71-.961c-.25-.3-.51-.6-.8-.89-.14-.149-.29-.279-.43-.419a5.537,5.537,0,0,0-.45-.391,10.7,10.7,0,0,0-1.45-1.05,12.383,12.383,0,0,0-2.16-1.059,9.407,9.407,0,0,0-1.16-.37,12.079,12.079,0,0,0-3.09-.411h-.05a12.644,12.644,0,0,0-8.91,3.64,12.384,12.384,0,0,0-1.34,1.55,11.185,11.185,0,0,0-.84,1.3A12.249,12.249,0,0,0,66.292,633.2Zm2.42.01a10.065,10.065,0,0,1,10.21-9.979h.04a10.1,10.1,0,0,1-.12,20.2h-.03A10.055,10.055,0,0,1,68.712,633.205Z"/><path class="j" d="M68.712,633.205a10.055,10.055,0,0,0,10.1,10.221h.03a10.1,10.1,0,0,0,.12-20.2h-.04A10.065,10.065,0,0,0,68.712,633.205Z"/><path class="k" d="M70.295,644.12c.387.167.739,1.047,1.117,1.725s1.188,2.507,2.623,2.833,4.126-.986,5.5-.546,3.388,1.936,5.156,1.646c6.045-.986,1.523-6.353,1.523-6.353s-.783.378-1.681.88l-.106.053a13.671,13.671,0,0,1-9.749.615c-.035-.008-.071-.026-.106-.035-1.364-.492-2.842-1.144-3.783-1.513C69.4,642.879,69.908,643.953,70.295,644.12Z"/><path class="e" d="M101.515,641.959s7.778,6.243,7.574,7.267-.615,1.143-.922,1.288-7.164-6.646-7.369-7.242S101.515,641.959,101.515,641.959Z"/><path class="e" d="M69.875,626.036s6.083,1.366,7.417,2.2.594-2.152.166-2.859,4.917,1.072,6.917,1.866a18.327,18.327,0,0,0,4.541.993L83.357,622.7s-1.8-1.16-2.475-.913a17.1,17.1,0,0,1-3.59,0,12.644,12.644,0,0,0-2.917.663c-1.25.5-3.835,1.516-3.835,1.516Z"/><path class="a" d="M95.686,640.993c.141.538.776,1.28,1.229,1.313,1.065.083,1.277.688,1.453,1.5.179.877.4,1.745.6,2.616.787,3.34.787,3.34,4.034,3.048l1.9-.461a4.749,4.749,0,0,1,.751-.539,5.045,5.045,0,0,1,.923-.4.435.435,0,0,1,0-.125c.026-.954.326-1.693,1.55-1.759,1.337-.064,1.347.867,1.5,1.682l3.492-.851a1.99,1.99,0,0,0,.739-2.361c-.411-1.687-.816-3.4-1.254-5.264.894.012,1.46-.009,2,.031,3.35.144,6.692.318,10.026.452,1.841.067,2.4-.566,2-2.312q-2.115-9.24-4.348-18.452c-.4-1.659-1.181-1.936-2.721-1.142a25.5,25.5,0,0,0-2.34,1.3A52.627,52.627,0,0,1,96.328,627.4c-.662.086-1.307.308-1.96.434a1.52,1.52,0,0,0-1.334,2.083C93.9,633.611,94.736,637.316,95.686,640.993Z"/><path class="e" d="M95.69,640.995c.141.538.776,1.281,1.229,1.313,1.065.084,1.277.688,1.453,1.5.179.877.4,1.745.6,2.616.787,3.339.787,3.339,4.034,3.048l1.9-.461a4.627,4.627,0,0,1,.751-.539c.3-.167,1.481,1.482,1.791,1.381-.009-.039,1.268-.422,1.272-.465.026-.953-.578.016.9-1.517l3.492-.851a1.99,1.99,0,0,0,.739-2.361c-.411-1.686-.816-3.4-1.254-5.263.894.012,1.46-.01,2,.03,3.35.144,6.693.318,10.026.452,1.841.068,2.4-.566,2.005-2.311q-2.115-9.24-4.348-18.452c-.4-1.66-1.181-1.937-2.721-1.142a25.247,25.247,0,0,0-2.34,1.3A52.627,52.627,0,0,1,96.332,627.4c-.662.087-1.307.308-1.96.434a1.521,1.521,0,0,0-1.334,2.084C93.909,633.613,94.74,637.318,95.69,640.995Zm8.522-.2c1.353-.347,2.734-.575,4.075-.975,1.133-.336,1.674.01,1.836,1.17.108.755.652,2.885.854,3.743-1.411.04-7.853,1.612-8.48,1.732-.227.039-.8-.787-.917-1.289C100.586,640.9,100.221,641.836,104.212,640.8Zm-7.924-9.153c-.263-1,.072-1.466,1.051-1.627.656-.113,1.294-.361,1.957-.447a47.367,47.367,0,0,0,18.648-7.417c.521-.332,1.047-.581,1.826-1l3.722,15.8c-2.9-.125-5.618-.2-8.326-.392a23.366,23.366,0,0,0-8.43.76c-2.364.669-4.794,1.116-7.161,1.715-1.02.282-1.563.048-1.788-1.027C97.339,635.87,96.825,633.748,96.288,631.646Z"/><path class="e" d="M137.068,625.482a12.96,12.96,0,0,1-1.316,9.55c-.5.9-1.136,1.639-2.26.976-1.058-.623-.651-1.49-.244-2.337,2.581-5.366,1.429-10.293-3.275-13.947-.81-.63-1.548-1.274-.752-2.332s1.7-.478,2.488.076A12.929,12.929,0,0,1,137.068,625.482Z"/><path class="e" d="M130.685,625.457a3.41,3.41,0,0,1,.664,2.857,12.9,12.9,0,0,1-.691,2.355,1.331,1.331,0,0,1-2.448-1.034,3.188,3.188,0,0,0-.938-4.028,1.332,1.332,0,0,1,1.678-2.063A14.593,14.593,0,0,1,130.685,625.457Z"/><path class="l" d="M124.156,637.452l-.666-3.333s-14.334.583-17.667,1.417-8.667,2.5-8.667,2.5.75,2.083,2,2.083,15.667-1.5,15.667-1.5Z"/></g></svg>