<svg xmlns="http://www.w3.org/2000/svg" xmlns:xlink="http://www.w3.org/1999/xlink" width="58" height="52" viewBox="0 0 58 52">
  <defs>
    <filter id="Ellipse_35" x="6" y="0" width="52" height="52" filterUnits="userSpaceOnUse">
      <feOffset dy="3" input="SourceAlpha"/>
      <feGaussianBlur stdDeviation="3" result="blur"/>
      <feFlood flood-opacity="0.161"/>
      <feComposite operator="in" in2="blur"/>
      <feComposite in="SourceGraphic"/>
    </filter>
    <filter id="Rectangle_76" x="0" y="8" width="32" height="23" filterUnits="userSpaceOnUse">
      <feOffset dx="2" dy="2" input="SourceAlpha"/>
      <feGaussianBlur stdDeviation="2" result="blur-2"/>
      <feFlood flood-color="#0b1131" flood-opacity="0.239"/>
      <feComposite operator="in" in2="blur-2"/>
      <feComposite in="SourceGraphic"/>
    </filter>
  </defs>
  <g id="Group_4403" data-name="Group 4403" transform="translate(-41 -420)">
    <g id="Group_4389" data-name="Group 4389" transform="translate(-4 126)">
      <g id="Group_2181" data-name="Group 2181" transform="translate(3.147 46.591)">
        <g id="Group_2180" data-name="Group 2180" transform="translate(58.853 255.751)">
          <g transform="matrix(1, 0, 0, 1, -17, -8.34)" filter="url(#Ellipse_35)">
            <g id="Ellipse_35-2" data-name="Ellipse 35" transform="translate(17 8)" fill="#f25e2e" stroke="#bcfaff" stroke-width="2">
              <circle cx="15" cy="15" r="15" stroke="none"/>
              <circle cx="15" cy="15" r="16" fill="none"/>
            </g>
          </g>
          <g id="Group_2177" data-name="Group 2177" transform="translate(6.32 3.463)">
            <path id="Path_204" data-name="Path 204" d="M5.719,1.126.25,6.407-.026,22.824l.584.991a8.479,8.479,0,0,1,.813.533c.127.127,2.362.813,2.515.914s1.9.508,2.032.559a3.633,3.633,0,0,0,.533.1l.178-6.908.178-10.87-.178-3.5.129-2.4.048-.9S6.883.042,6.628.169A5.87,5.87,0,0,0,5.719,1.126Z" fill="#ffaf95"/>
            <path id="Path_201" data-name="Path 201" d="M320.594-500.85v-18.2l6.515-6.619,9.26,2.5v4.8" transform="translate(-320.594 525.67)" fill="none" stroke="#bcfaff" stroke-miterlimit="10" stroke-width="1.5"/>
            <path id="Path_203" data-name="Path 203" d="M0,0V26.661" transform="translate(6.515)" fill="none" stroke="#bcfaff" stroke-width="1.5"/>
          </g>
        </g>
      </g>
      <g id="Group_2182" data-name="Group 2182" transform="translate(-14 -2)">
        <circle id="Ellipse_36" data-name="Ellipse 36" cx="11" cy="11" r="11" transform="translate(92.5 313.5)" fill="#bcfaff" stroke="#f25e2e" stroke-width="1"/>
        <path id="Path_202" data-name="Path 202" d="M380.155-480.206h-2.493c-.007.009-.015.015-.015.021a7.872,7.872,0,0,0,.12,2,2.884,2.884,0,0,0,1.953,2.12,6.81,6.81,0,0,0,.7.185c.076.018.1.047.1.126,0,.439,0,.879,0,1.318,0,.025,0,.051.007.085h2.16v-.131c0-.417,0-.834,0-1.251,0-.1.03-.132.127-.151a3.68,3.68,0,0,0,1.526-.628,2.843,2.843,0,0,0,1.07-1.564,4.254,4.254,0,0,0,.064-2.065,3.66,3.66,0,0,0-1.02-1.79,10.872,10.872,0,0,0-1.847-1.457,9.432,9.432,0,0,1-1.49-1.154,2.264,2.264,0,0,1-.724-1.339,2.238,2.238,0,0,1,.056-.929.984.984,0,0,1,.734-.709,2.089,2.089,0,0,1,.974-.017,1.036,1.036,0,0,1,.844.948,4.67,4.67,0,0,1,.028.467c0,.152,0,.3,0,.47.046,0,.085.008.124.008.757,0,1.513,0,2.27,0,.088,0,.123-.018.123-.116a5.2,5.2,0,0,0-.191-1.611,2.849,2.849,0,0,0-1.867-1.886,6.647,6.647,0,0,0-.689-.184c-.083-.02-.115-.05-.114-.14,0-.424,0-.849,0-1.273v-.141h-2.168v.131c0,.424,0,.849,0,1.273,0,.1-.035.133-.126.151a3.606,3.606,0,0,0-1.5.635,2.808,2.808,0,0,0-1.069,1.69,4.105,4.105,0,0,0,.12,2.384,4.229,4.229,0,0,0,1.188,1.625,13.437,13.437,0,0,0,1.7,1.252,7.589,7.589,0,0,1,1.45,1.166,2.18,2.18,0,0,1,.589,1.953,1.066,1.066,0,0,1-1,.931,2.265,2.265,0,0,1-.865-.038,1.017,1.017,0,0,1-.827-.949c-.035-.4-.021-.81-.029-1.215C380.154-480.066,380.155-480.129,380.155-480.206Z" transform="translate(-277.639 806.992)" fill="#f25e2e"/>
      </g>
    </g>
    <g id="Group_4393" data-name="Group 4393" transform="translate(-130 101)">
      <g id="Group_4381" data-name="Group 4381" transform="translate(30 -4)">
        <g id="Group_4373" data-name="Group 4373" transform="translate(-133.322 278.493)">
          <g transform="matrix(1, 0, 0, 1, 274.32, 44.51)" filter="url(#Rectangle_76)">
            <g id="Rectangle_76-2" data-name="Rectangle 76" transform="translate(4 12)" fill="#bcfaff" stroke="#bcfaff" stroke-width="1.5">
              <rect width="20" height="11" rx="5.5" stroke="none"/>
              <rect x="0.75" y="0.75" width="18.5" height="9.5" rx="4.75" fill="none"/>
            </g>
          </g>
        </g>
        <g id="Group_4378" data-name="Group 4378" transform="translate(-12.487 -3.747)">
          <g id="Group_4377" data-name="Group 4377" transform="translate(159 340.5)">
            <path id="Path_1264" data-name="Path 1264" d="M771.472,398.995a10.7,10.7,0,0,1-4.321-.876,14.809,14.809,0,0,1-4.2-2.684c-.249-.226-.251-.374,0-.6a13.779,13.779,0,0,1,6.641-3.414,9.422,9.422,0,0,1,4.814.388,14.538,14.538,0,0,1,5.189,3.094c.187.17.191.285.011.447a14.009,14.009,0,0,1-6.406,3.431A8.353,8.353,0,0,1,771.472,398.995Zm-.24-.811a3.049,3.049,0,1,0-2.956-2.988A3.01,3.01,0,0,0,771.233,398.183Z" transform="translate(-762.759 -391.271)" fill="#f25e2e"/>
            <circle id="Ellipse_167" data-name="Ellipse 167" cx="1.692" cy="1.692" r="1.692" transform="translate(6.795 2.17)" fill="#f25e2e"/>
          </g>
        </g>
      </g>
    </g>
  </g>
</svg>
