<svg xmlns="http://www.w3.org/2000/svg" width="34.002" height="35.397" viewBox="0 0 34.002 35.397">
  <g id="Group_2251" data-name="Group 2251" transform="translate(-199.998 -554.967)">
    <path id="Path_231" data-name="Path 231" d="M7743.094,421.14l-9.292-2.2v22.8h10.346Z" transform="translate(-7526 137)" fill="#f25e2e"/>
    <g id="Group_2247" data-name="Group 2247" transform="translate(136.147 296.591)">
      <g id="Group_2180" data-name="Group 2180" transform="translate(58.853 255.751)">
        <g id="Group_2177" data-name="Group 2177" transform="translate(6.32 3.463)">
          <path id="Path_204" data-name="Path 204" d="M5.719,1.126.25,6.407-.026,22.824l.584.991a8.479,8.479,0,0,1,.813.533c.127.127,2.362.813,2.515.914s1.9.508,2.032.559a3.633,3.633,0,0,0,.533.1l.178-6.908.178-10.87-.178-3.5.129-2.4.048-.9S6.883.042,6.628.169A5.87,5.87,0,0,0,5.719,1.126Z" fill="#ffaf95"/>
          <path id="Path_201" data-name="Path 201" d="M320.594-500.85v-18.2l6.515-6.619,9.26,2.5v4.8" transform="translate(-320.594 525.67)" fill="none" stroke="#bcfaff" stroke-miterlimit="10" stroke-width="1.5"/>
          <path id="Path_203" data-name="Path 203" d="M0,0V26.661" transform="translate(6.515)" fill="none" stroke="#bcfaff" stroke-width="1.5"/>
        </g>
      </g>
    </g>
    <g id="Group_2248" data-name="Group 2248" transform="translate(119 248)">
      <circle id="Ellipse_36" data-name="Ellipse 36" cx="11" cy="11" r="11" transform="translate(92.5 313.5)" fill="#f25e2e" stroke="#bcfaff" stroke-width="1"/>
      <path id="Path_202" data-name="Path 202" d="M380.155-480.206h-2.493c-.007.009-.015.015-.015.021a7.872,7.872,0,0,0,.12,2,2.884,2.884,0,0,0,1.953,2.12,6.81,6.81,0,0,0,.7.185c.076.018.1.047.1.126,0,.439,0,.879,0,1.318,0,.025,0,.051.007.085h2.16v-.131c0-.417,0-.834,0-1.251,0-.1.03-.132.127-.151a3.68,3.68,0,0,0,1.526-.628,2.843,2.843,0,0,0,1.07-1.564,4.254,4.254,0,0,0,.064-2.065,3.66,3.66,0,0,0-1.02-1.79,10.872,10.872,0,0,0-1.847-1.457,9.432,9.432,0,0,1-1.49-1.154,2.264,2.264,0,0,1-.724-1.339,2.238,2.238,0,0,1,.056-.929.984.984,0,0,1,.734-.709,2.089,2.089,0,0,1,.974-.017,1.036,1.036,0,0,1,.844.948,4.67,4.67,0,0,1,.028.467c0,.152,0,.3,0,.47.046,0,.085.008.124.008.757,0,1.513,0,2.27,0,.088,0,.123-.018.123-.116a5.2,5.2,0,0,0-.191-1.611,2.849,2.849,0,0,0-1.867-1.886,6.647,6.647,0,0,0-.689-.184c-.083-.02-.115-.05-.114-.14,0-.424,0-.849,0-1.273v-.141h-2.168v.131c0,.424,0,.849,0,1.273,0,.1-.035.133-.126.151a3.606,3.606,0,0,0-1.5.635,2.808,2.808,0,0,0-1.069,1.69,4.105,4.105,0,0,0,.12,2.384,4.229,4.229,0,0,0,1.188,1.625,13.437,13.437,0,0,0,1.7,1.252,7.589,7.589,0,0,1,1.45,1.166,2.18,2.18,0,0,1,.589,1.953,1.066,1.066,0,0,1-1,.931,2.265,2.265,0,0,1-.865-.038,1.017,1.017,0,0,1-.827-.949c-.035-.4-.021-.81-.029-1.215C380.154-480.066,380.155-480.129,380.155-480.206Z" transform="translate(-277.639 806.992)" fill="#bcfaff"/>
    </g>
    <g id="Path_230" data-name="Path 230" transform="translate(69.737 378.551)" fill="#f25e2e">
      <path d="M 146.0477905273438 210.50244140625 L 144.8215484619141 210.1533203125 L 140.6064758300781 208.9532623291016 L 136.3914184570312 210.1533203125 L 135.1651611328125 210.50244140625 L 135.1182556152344 209.2283325195312 L 134.9570465087891 204.8487243652344 L 132.5131988525391 201.2107849121094 L 131.80224609375 200.1524353027344 L 132.9994964599609 199.714111328125 L 137.1149139404297 198.2074127197266 L 139.8196258544922 194.7589874267578 L 140.6064758300781 193.7557830810547 L 141.3933258056641 194.7589874267578 L 144.0980224609375 198.2073974609375 L 148.2134857177734 199.714111328125 L 149.4107513427734 200.1524353027344 L 148.6997833251953 201.2107849121094 L 146.2559051513672 204.8487243652344 L 146.0946960449219 209.2283325195312 L 146.0477905273438 210.50244140625 Z" stroke="none"/>
      <path d="M 140.6064758300781 195.3761291503906 L 137.72607421875 199.0485687255859 L 133.3432922363281 200.6531524658203 L 135.9458923339844 204.5274200439453 L 136.1175842285156 209.1915435791016 L 140.6064758300781 207.9135284423828 L 145.0953674316406 209.1915435791016 L 145.2670593261719 204.5274200439453 L 147.8696899414062 200.6531524658203 L 143.4868774414062 199.0485687255859 L 140.6064758300781 195.3761291503906 M 140.6064758300781 192.1354064941406 L 144.7091674804688 197.3662261962891 L 150.9517974853516 199.6517181396484 L 147.2447662353516 205.1700134277344 L 147.0002136230469 211.8133392333984 L 140.6064758300781 209.9929962158203 L 134.2127380371094 211.8133392333984 L 133.9681854248047 205.1699981689453 L 130.2611846923828 199.6517181396484 L 136.5037841796875 197.3662414550781 L 140.6064758300781 192.1354064941406 Z" stroke="none" fill="#bcfaff"/>
    </g>
  </g>
</svg>
