<svg xmlns="http://www.w3.org/2000/svg" xmlns:xlink="http://www.w3.org/1999/xlink" width="58" height="52" viewBox="0 0 58 52">
  <defs>
    <filter id="Ellipse_33" x="6" y="0" width="52" height="52" filterUnits="userSpaceOnUse">
      <feOffset dy="3" input="SourceAlpha"/>
      <feGaussianBlur stdDeviation="3" result="blur"/>
      <feFlood flood-opacity="0.161"/>
      <feComposite operator="in" in2="blur"/>
      <feComposite in="SourceGraphic"/>
    </filter>
    <filter id="Rectangle_76" x="0" y="8" width="32" height="23" filterUnits="userSpaceOnUse">
      <feOffset dx="2" dy="2" input="SourceAlpha"/>
      <feGaussianBlur stdDeviation="2" result="blur-2"/>
      <feFlood flood-color="#0b1131" flood-opacity="0.239"/>
      <feComposite operator="in" in2="blur-2"/>
      <feComposite in="SourceGraphic"/>
    </filter>
  </defs>
  <g id="Group_4402" data-name="Group 4402" transform="translate(-41 -372)">
    <g id="Component_25_7" data-name="Component 25 – 7" transform="translate(58 380)">
      <g transform="matrix(1, 0, 0, 1, -17, -8)" filter="url(#Ellipse_33)">
        <g id="Ellipse_33-2" data-name="Ellipse 33" transform="translate(17 8)" fill="#f25e2e" stroke="#bcfaff" stroke-width="2">
          <circle cx="15" cy="15" r="15" stroke="none"/>
          <circle cx="15" cy="15" r="16" fill="none"/>
        </g>
      </g>
      <path id="Path_197" data-name="Path 197" d="M762.178,678.6a5.457,5.457,0,0,0-.269-7.871,5.549,5.549,0,0,0-7.353-.051,5.476,5.476,0,0,0-.258,8c-.071.039-.136.078-.2.112a9.779,9.779,0,0,0-5.09,5.813c-.042.125-.1.244-.148.368a1.124,1.124,0,1,0,2.141.667,6.947,6.947,0,0,1,2.175-3.617,7.628,7.628,0,0,1,12.355,3.05,5.3,5.3,0,0,1,.155.56,1.125,1.125,0,0,0,1.383.83,1.084,1.084,0,0,0,.776-1.4,17.893,17.893,0,0,0-1.015-2.294,9.554,9.554,0,0,0-4.366-4.023C762.374,678.7,762.289,678.654,762.178,678.6Zm-.513-3.713a3.414,3.414,0,1,1-3.411-3.422A3.409,3.409,0,0,1,761.666,674.886Z" transform="translate(-743.089 -663.809)" fill="#bcfaff"/>
    </g>
    <g id="Group_4390" data-name="Group 4390" transform="translate(-130 53)">
      <g id="Group_4381" data-name="Group 4381" transform="translate(30 -4)">
        <g id="Group_4373" data-name="Group 4373" transform="translate(-133.322 278.493)">
          <g transform="matrix(1, 0, 0, 1, 274.32, 44.51)" filter="url(#Rectangle_76)">
            <g id="Rectangle_76-2" data-name="Rectangle 76" transform="translate(4 12)" fill="#bcfaff" stroke="#bcfaff" stroke-width="1.5">
              <rect width="20" height="11" rx="5.5" stroke="none"/>
              <rect x="0.75" y="0.75" width="18.5" height="9.5" rx="4.75" fill="none"/>
            </g>
          </g>
        </g>
        <g id="Group_4378" data-name="Group 4378" transform="translate(-12.487 -3.747)">
          <g id="Group_4377" data-name="Group 4377" transform="translate(159 340.5)">
            <path id="Path_1264" data-name="Path 1264" d="M771.472,398.995a10.7,10.7,0,0,1-4.321-.876,14.809,14.809,0,0,1-4.2-2.684c-.249-.226-.251-.374,0-.6a13.779,13.779,0,0,1,6.641-3.414,9.422,9.422,0,0,1,4.814.388,14.538,14.538,0,0,1,5.189,3.094c.187.17.191.285.011.447a14.009,14.009,0,0,1-6.406,3.431A8.353,8.353,0,0,1,771.472,398.995Zm-.24-.811a3.049,3.049,0,1,0-2.956-2.988A3.01,3.01,0,0,0,771.233,398.183Z" transform="translate(-762.759 -391.271)" fill="#f25e2e"/>
            <circle id="Ellipse_167" data-name="Ellipse 167" cx="1.692" cy="1.692" r="1.692" transform="translate(6.795 2.17)" fill="#f25e2e"/>
          </g>
        </g>
      </g>
    </g>
  </g>
</svg>
