<svg xmlns="http://www.w3.org/2000/svg" xmlns:xlink="http://www.w3.org/1999/xlink" width="52" height="52" viewBox="0 0 52 52">
  <defs>
    <filter id="Ellipse_33" x="0" y="0" width="52" height="52" filterUnits="userSpaceOnUse">
      <feOffset dy="3" input="SourceAlpha"/>
      <feGaussianBlur stdDeviation="3" result="blur"/>
      <feFlood flood-opacity="0.161"/>
      <feComposite operator="in" in2="blur"/>
      <feComposite in="SourceGraphic"/>
    </filter>
  </defs>
  <g id="Component_25_4" data-name="Component 25 – 4" transform="translate(11 8)">
    <g transform="matrix(1, 0, 0, 1, -11, -8)" filter="url(#Ellipse_33)">
      <g id="Ellipse_33-2" data-name="Ellipse 33" transform="translate(11 8)" fill="#f25e2e" stroke="#bcfaff" stroke-width="2">
        <circle cx="15" cy="15" r="15" stroke="none"/>
        <circle cx="15" cy="15" r="16" fill="none"/>
      </g>
    </g>
    <path id="Path_197" data-name="Path 197" d="M762.178,678.6a5.457,5.457,0,0,0-.269-7.871,5.549,5.549,0,0,0-7.353-.051,5.476,5.476,0,0,0-.258,8c-.071.039-.136.078-.2.112a9.779,9.779,0,0,0-5.09,5.813c-.042.125-.1.244-.148.368a1.124,1.124,0,1,0,2.141.667,6.947,6.947,0,0,1,2.175-3.617,7.628,7.628,0,0,1,12.355,3.05,5.3,5.3,0,0,1,.155.56,1.125,1.125,0,0,0,1.383.83,1.084,1.084,0,0,0,.776-1.4,17.893,17.893,0,0,0-1.015-2.294,9.554,9.554,0,0,0-4.366-4.023C762.374,678.7,762.289,678.654,762.178,678.6Zm-.513-3.713a3.414,3.414,0,1,1-3.411-3.422A3.409,3.409,0,0,1,761.666,674.886Z" transform="translate(-743.089 -663.809)" fill="#bcfaff"/>
  </g>
</svg>
