<svg xmlns="http://www.w3.org/2000/svg" xmlns:xlink="http://www.w3.org/1999/xlink" width="62.131" height="47.8" viewBox="0 0 62.131 47.8">
  <defs>
    <filter id="Path_228" x="10.901" y="0" width="51.23" height="47.8" filterUnits="userSpaceOnUse">
      <feOffset dy="3" input="SourceAlpha"/>
      <feGaussianBlur stdDeviation="3" result="blur"/>
      <feFlood flood-opacity="0.161"/>
      <feComposite operator="in" in2="blur"/>
      <feComposite in="SourceGraphic"/>
    </filter>
    <filter id="Rectangle_76" x="0" y="5.831" width="32" height="23" filterUnits="userSpaceOnUse">
      <feOffset dx="2" dy="2" input="SourceAlpha"/>
      <feGaussianBlur stdDeviation="2" result="blur-2"/>
      <feFlood flood-color="#0b1131" flood-opacity="0.239"/>
      <feComposite operator="in" in2="blur-2"/>
      <feComposite in="SourceGraphic"/>
    </filter>
  </defs>
  <g id="Group_4406" data-name="Group 4406" transform="translate(-41 -476.669)">
    <g id="Group_4396" data-name="Group 4396" transform="translate(-176.409 130.357)">
      <g id="Group_2237" data-name="Group 2237" transform="translate(237.31 352.311)">
        <g transform="matrix(1, 0, 0, 1, -19.9, -6)" filter="url(#Path_228)">
          <path id="Path_228-2" data-name="Path 228" d="M951.243-112.459c-.424.447-.873.871-1.324,1.32a2.37,2.37,0,0,1,.556,3.123,2.355,2.355,0,0,1-2.521,1.16,2.428,2.428,0,0,1-.68,2.154,2.436,2.436,0,0,1-2.154.679,2.4,2.4,0,0,1-1.062,2.46,2.378,2.378,0,0,1-2.669.012,2.44,2.44,0,0,1-4.111,1.622,7.089,7.089,0,0,1-.639-.494c-.554-.458-1.4-1.188-2.383-2.055l-.617-.544c-.753-.666-1.567-1.39-2.384-2.121l-.583-.522c-.817-.731-1.625-1.457-2.369-2.127l-.585-.527c-1-.9-1.835-1.658-2.361-2.135l-.592-.537-.16-.17c-.549-.577-1.144-1.118-1.639-1.739a9.449,9.449,0,0,1-2.069-6.974,9.923,9.923,0,0,1,8.326-8.915,9.62,9.62,0,0,1,8.156,2.385c.041.036.084.07.133.11.177-.155.345-.31.52-.454a9.754,9.754,0,0,1,6.956-2.293,9.583,9.583,0,0,1,8.965,8.133A9.648,9.648,0,0,1,951.243-112.459Z" transform="translate(-900.95 135.06)" fill="#f25e2e"/>
        </g>
      </g>
      <g id="Group_2236" data-name="Group 2236" transform="translate(236.5 351.717)">
        <g id="Group_2235" data-name="Group 2235" transform="translate(0 0)">
          <path id="Path_227" data-name="Path 227" d="M955.038-120.641a9.9,9.9,0,0,0-9.259-8.4,10.073,10.073,0,0,0-7.184,2.368c-.181.149-.354.309-.537.469-.052-.042-.1-.077-.138-.114a9.935,9.935,0,0,0-8.423-2.463,10.248,10.248,0,0,0-8.6,9.207,9.758,9.758,0,0,0,2.136,7.2c.511.642,1.125,1.2,1.692,1.8l.165.176.612.555c.544.493,1.41,1.277,2.439,2.2l.6.544c.768.692,1.6,1.442,2.446,2.2l.6.539c.845.755,1.685,1.5,2.463,2.191l.637.562c1.019.9,1.889,1.649,2.461,2.122a7.311,7.311,0,0,0,.66.51,2.519,2.519,0,0,0,4.246-1.675,2.456,2.456,0,0,0,2.757-.013,2.474,2.474,0,0,0,1.1-2.54,2.516,2.516,0,0,0,2.224-.7,2.507,2.507,0,0,0,.7-2.225,2.433,2.433,0,0,0,2.6-1.2,2.447,2.447,0,0,0-.574-3.225c.466-.463.929-.9,1.367-1.363A9.964,9.964,0,0,0,955.038-120.641Zm-4.459,13.152a1.655,1.655,0,0,1-2.231.26,2.541,2.541,0,0,1-.271-.244l-3.376-3.369a1.324,1.324,0,0,0-.174-.159.4.4,0,0,0-.527.061.4.4,0,0,0-.03.512,1.649,1.649,0,0,0,.161.173q1.717,1.716,3.434,3.432a1.563,1.563,0,0,1,.421,1.638,1.584,1.584,0,0,1-1.239,1.156,1.6,1.6,0,0,1-1.552-.467q-1.709-1.709-3.42-3.416a1.689,1.689,0,0,0-.157-.147.411.411,0,0,0-.531.027.408.408,0,0,0-.037.546,1.881,1.881,0,0,0,.163.171q1.709,1.708,3.419,3.417a1.564,1.564,0,0,1,.43,1.617,1.588,1.588,0,0,1-1.222,1.174,1.591,1.591,0,0,1-1.573-.46q-1.726-1.723-3.452-3.445a.7.7,0,0,0-.257-.184.373.373,0,0,0-.464.172.384.384,0,0,0,.052.494c.228.238.464.468.7.7.643.643,1.294,1.279,1.928,1.931a1.634,1.634,0,0,1,.063,2.209,1.661,1.661,0,0,1-2.175.324c-.048-.031-.092-.068-.139-.1h0a.5.5,0,0,1-.107-.094l-.761-.669-2.261-1.99-.68-.6L932.23-105l-.6-.531-2.475-2.184-.6-.529c-1.04-.92-1.917-1.7-2.469-2.193-.322-.289-.533-.48-.6-.547-.422-.42-.848-.822-1.25-1.247a9.028,9.028,0,0,1-2.549-7.1,9.418,9.418,0,0,1,7.746-8.615,9.1,9.1,0,0,1,7.854,2.16c.059.05.112.106.233.221a1.271,1.271,0,0,0-.233.145q-2.815,2.805-5.625,5.617a3.448,3.448,0,0,0-.6,4.134,3.437,3.437,0,0,0,5.427.723c1.041-1.025,2.065-2.067,3.1-3.094a1.784,1.784,0,0,1,1.938-.444,1.447,1.447,0,0,1,.544.327q4.228,4.2,8.439,8.423A1.635,1.635,0,0,1,950.58-107.489Zm1.135-5.051c-.447.483-.926.936-1.445,1.458a1.677,1.677,0,0,0-.169-.248q-3.63-3.631-7.264-7.257a2.64,2.64,0,0,0-3.839-.006c-1.031,1.025-2.051,2.06-3.088,3.08a2.619,2.619,0,0,1-4.243-.77,2.627,2.627,0,0,1,.571-2.951q3.142-3.146,6.292-6.286a9.121,9.121,0,0,1,2-1.513,9.206,9.206,0,0,1,13.557,5.786A9.082,9.082,0,0,1,951.714-112.54Z" transform="translate(-920.851 129.058)" fill="#bcfaff" stroke="#bcfaff" stroke-width="1"/>
        </g>
      </g>
    </g>
    <g id="Group_4398" data-name="Group 4398" transform="translate(-130 155.5)">
      <g id="Group_4381" data-name="Group 4381" transform="translate(30 -4)">
        <g id="Group_4373" data-name="Group 4373" transform="translate(-133.322 278.493)">
          <g transform="matrix(1, 0, 0, 1, 274.32, 46.68)" filter="url(#Rectangle_76)">
            <g id="Rectangle_76-2" data-name="Rectangle 76" transform="translate(4 9.83)" fill="#bcfaff" stroke="#bcfaff" stroke-width="1.5">
              <rect width="20" height="11" rx="5.5" stroke="none"/>
              <rect x="0.75" y="0.75" width="18.5" height="9.5" rx="4.75" fill="none"/>
            </g>
          </g>
        </g>
        <g id="Group_4378" data-name="Group 4378" transform="translate(-12.487 -3.747)">
          <g id="Group_4377" data-name="Group 4377" transform="translate(159 340.5)">
            <path id="Path_1264" data-name="Path 1264" d="M771.472,398.995a10.7,10.7,0,0,1-4.321-.876,14.809,14.809,0,0,1-4.2-2.684c-.249-.226-.251-.374,0-.6a13.779,13.779,0,0,1,6.641-3.414,9.422,9.422,0,0,1,4.814.388,14.538,14.538,0,0,1,5.189,3.094c.187.17.191.285.011.447a14.009,14.009,0,0,1-6.406,3.431A8.353,8.353,0,0,1,771.472,398.995Zm-.24-.811a3.049,3.049,0,1,0-2.956-2.988A3.01,3.01,0,0,0,771.233,398.183Z" transform="translate(-762.759 -391.271)" fill="#f25e2e"/>
            <circle id="Ellipse_167" data-name="Ellipse 167" cx="1.692" cy="1.692" r="1.692" transform="translate(6.795 2.17)" fill="#f25e2e"/>
          </g>
        </g>
      </g>
    </g>
  </g>
</svg>
