<svg xmlns="http://www.w3.org/2000/svg" width="20.628" height="19.573" viewBox="0 0 20.628 19.573">
  <g id="Group_370" data-name="Group 370" transform="translate(-161 -133)">
    <path id="Path_100" data-name="Path 100" d="M2127.392,151.029c-.351-1.53-.5-1.206-1.237-2.336-.783-1.256-2.727-3.335-7.352-3.161-7.283.275-7.352,7.833-7.283,8.108s1.718,3.917,2.748,4.26.344,2.474.344,2.474v.756l2.817-1.512a8.9,8.9,0,0,0,1.924,0c.275-.137,4.672-.137,5.222-1.306S2128.354,155.22,2127.392,151.029Z" transform="translate(-1950 -12)" fill="none" opacity="0.69"/>
    <path id="Path_101" data-name="Path 101" d="M2129.41,151.4s.24,3.183-1.98,1.8c-.269-.168.458.611,0,.481-.766-.548.081,0,0,.278a14.144,14.144,0,0,1-1.277,2.739,16.887,16.887,0,0,1-2.239,1.777,14.757,14.757,0,0,1-2.461.944c-.37-.037-1.129.315-1.5.222a2.132,2.132,0,0,0-.814,0,1.847,1.847,0,0,0,.666,1.3,4.393,4.393,0,0,0,1.851.759l2.869.555h1.258l1.11.2.426.574.759.185.3-2.054,1.036-1.036.888-1.388.463-1.592.24-1.147-.333-1.832-.574-1.351-.481-.907Z" transform="translate(-1950 -12)" fill="#fff" opacity="0.19"/>
    <g id="Group_243" data-name="Group 243" transform="translate(-157 -542)">
      <g id="Group_242" data-name="Group 242" transform="translate(318 675)">
        <path id="Path_44" data-name="Path 44" d="M830.761-109.924v-.156q0-1.759,0-3.517a.229.229,0,0,0-.107-.211,7.35,7.35,0,0,1-2.621-3.289,6.6,6.6,0,0,1,.756-6.421,7.877,7.877,0,0,1,3.988-3.025,9.37,9.37,0,0,1,8.318.8A7.234,7.234,0,0,1,844.265-122a6.6,6.6,0,0,1-.991,6.561,8.317,8.317,0,0,1-4.666,3.048,9.6,9.6,0,0,1-3.971.206.347.347,0,0,0-.214.043q-1.763,1.066-3.521,2.141C830.861-109.978,830.821-109.957,830.761-109.924Zm1.029-1.907c.053-.029.09-.048.125-.07.765-.461,1.529-.924,2.3-1.38a.332.332,0,0,1,.214-.038,8.6,8.6,0,0,0,3.756-.077,7.462,7.462,0,0,0,4.174-2.6,5.683,5.683,0,0,0,.581-6.346,6.761,6.761,0,0,0-3.089-2.877,8.406,8.406,0,0,0-5.985-.546,7.188,7.188,0,0,0-3.9,2.476,5.572,5.572,0,0,0-.941,5.76,6.391,6.391,0,0,0,2.684,3.136.218.218,0,0,1,.118.216c-.014.73-.021,1.46-.03,2.19C831.79-111.943,831.791-111.9,831.791-111.831Z" transform="translate(-827.528 127.161)" fill="#fff"/>
        <path id="Path_45" data-name="Path 45" d="M1161.225,129.181c.491-.013.975-.028,1.459-.037a.259.259,0,0,1,.14.048,5.266,5.266,0,0,0,3.969.9,6.229,6.229,0,0,0,.622-.1.251.251,0,0,1,.213.048q.81.572,1.624,1.139c.041.029.084.056.153.1v-.161c0-.584,0-1.168,0-1.752a.209.209,0,0,1,.113-.205,5.386,5.386,0,0,0,2.467-3.255,5,5,0,0,0-.929-4.438.376.376,0,0,1-.065-.219c.01-.454.029-.908.045-1.362,0-.02,0-.039.006-.078.039.03.066.048.09.07a6.28,6.28,0,0,1,2.078,3.961,6.069,6.069,0,0,1-1.272,4.518,6.515,6.515,0,0,1-1.329,1.3.23.23,0,0,0-.107.212c0,1,0,2.01,0,3.015v.13c-.054-.032-.092-.053-.129-.077q-1.416-.917-2.831-1.836a.332.332,0,0,0-.251-.058,7.52,7.52,0,0,1-4.618-.716,4.476,4.476,0,0,1-1.369-1.063C1161.275,129.239,1161.249,129.207,1161.225,129.181Z" transform="translate(-1152.625 -113.445)" fill="#fff"/>
        <path id="Path_46" data-name="Path 46" d="M998.949,104.19q-1.854,0-3.709,0a.539.539,0,1,1-.065-1.077c.034,0,.069,0,.1,0q3.677,0,7.354,0a.584.584,0,0,1,.476.182.537.537,0,0,1-.334.891,1.289,1.289,0,0,1-.18.006Z" transform="translate(-990.352 -97.176)" fill="#fff"/>
        <path id="Path_47" data-name="Path 47" d="M1039.407,229.587q-1.326,0-2.653,0a.525.525,0,0,1-.55-.426.534.534,0,0,1,.421-.635.871.871,0,0,1,.154-.011q2.633,0,5.267,0a.539.539,0,0,1,.541.319.53.53,0,0,1-.488.753c-.678.006-1.356,0-2.035,0Z" transform="translate(-1030.815 -219.347)" fill="#fff"/>
      </g>
    </g>
  </g>
</svg>
