<svg width="15" height="15" viewBox="0 0 15 15" fill="none" xmlns="http://www.w3.org/2000/svg">
<path d="M-6.36932e-06 13.5097C0.0146683 13.3678 0.0277257 13.226 0.0440309 13.0849C0.145713 12.1699 0.44741 11.2884 0.927762 10.503C1.72274 9.21169 2.903 8.20252 4.30211 7.61778L4.50841 7.52811L4.43174 7.44658C3.87182 6.88354 3.47601 6.17852 3.28687 5.40733C3.09772 4.63614 3.12241 3.82796 3.35827 3.06975C3.59413 2.31153 4.03222 1.63198 4.62545 1.10417C5.21868 0.576348 5.94461 0.220242 6.72511 0.0741665C7.85097 -0.143064 9.0171 0.0915338 9.97137 0.727237C10.9257 1.36294 11.5914 2.34866 11.8247 3.47131C12.058 4.59395 11.8401 5.76332 11.2181 6.72658C10.596 7.68984 9.61993 8.36961 8.50073 8.61891C7.55974 8.84561 6.5695 8.7435 5.69458 8.32951C5.66337 8.31414 5.6294 8.3052 5.59467 8.30324C5.55993 8.30128 5.52515 8.30633 5.49241 8.31809C4.5236 8.60133 3.63162 9.10055 2.88356 9.77821C1.97142 10.5952 1.36063 11.6953 1.14949 12.9015C1.08451 13.3098 1.05724 13.7233 1.06798 14.1366C1.07015 14.2524 1.03434 14.3657 0.966027 14.4592C0.897714 14.5526 0.800664 14.6212 0.689712 14.6543C0.621093 14.675 0.549058 14.6818 0.477786 14.6743C0.406513 14.6668 0.337404 14.6452 0.274567 14.6108C0.21173 14.5763 0.15638 14.5297 0.111754 14.4736C0.0671277 14.4175 0.0341447 14.3531 0.0146727 14.2842C0.00896589 14.2654 0.00163928 14.2467 -0.00488281 14.2271L-6.36932e-06 13.5097ZM7.52076 7.66099C8.17184 7.66035 8.80813 7.46661 9.34908 7.10428C9.89003 6.74196 10.3114 6.22733 10.5598 5.6255C10.8082 5.02367 10.8725 4.36168 10.7446 3.72329C10.6167 3.08489 10.3024 2.49877 9.8413 2.03907C9.38024 1.57938 8.79317 1.26678 8.1544 1.14079C7.51563 1.0148 6.85382 1.08109 6.25274 1.33129C5.65165 1.58149 5.13828 2.00435 4.77756 2.54637C4.41685 3.0884 4.22504 3.72523 4.22633 4.37631C4.2317 5.2475 4.58078 6.08133 5.19773 6.69645C5.81469 7.31157 6.64956 7.65821 7.52076 7.66099Z" fill="#001F3F"/>
<path d="M15.0002 11.245C14.9949 11.2564 14.9902 11.2681 14.9863 11.28C14.9604 11.3957 14.8947 11.4985 14.8007 11.5706C14.7066 11.6428 14.5903 11.6796 14.4719 11.6746C13.8903 11.6746 13.3087 11.6746 12.7272 11.6746H12.6286V11.7708C12.6286 12.3578 12.6286 12.944 12.6286 13.531C12.6278 13.6668 12.5731 13.7966 12.4766 13.8921C12.38 13.9876 12.2495 14.0409 12.1138 14.0401C11.978 14.0394 11.8481 13.9846 11.7526 13.8881C11.6571 13.7915 11.6039 13.661 11.6046 13.5253C11.6046 12.9437 11.6046 12.3621 11.6046 11.7806V11.6762H11.5134C10.9345 11.6762 10.3553 11.6762 9.77594 11.6762C9.70706 11.6797 9.63818 11.6693 9.57342 11.6455C9.50867 11.6218 9.44945 11.5852 9.39916 11.538C9.34888 11.4908 9.30864 11.4339 9.28084 11.3708C9.25304 11.3077 9.23822 11.2396 9.23735 11.1706C9.23647 11.1017 9.24948 11.0332 9.27566 10.9694C9.30185 10.9056 9.34064 10.8477 9.38971 10.7993C9.43878 10.7508 9.49715 10.7127 9.56128 10.6873C9.62541 10.6619 9.69396 10.6497 9.76291 10.6514C10.3417 10.6514 10.9206 10.6514 11.5002 10.6514H11.6046V10.5618C11.6046 9.97233 11.6046 9.38374 11.6046 8.79431C11.6049 8.69452 11.6343 8.597 11.6893 8.51371C11.7443 8.43043 11.8223 8.36502 11.9139 8.32552C12.0056 8.28603 12.1067 8.27415 12.205 8.29139C12.3033 8.30862 12.3944 8.35423 12.4671 8.42255C12.5211 8.47189 12.5636 8.53236 12.5917 8.5998C12.6199 8.66724 12.6331 8.74004 12.6303 8.81307C12.6303 9.39462 12.6303 9.97613 12.6303 10.5577V10.6514H14.3692C14.5095 10.6257 14.6544 10.6559 14.7728 10.7356C14.8912 10.8153 14.9736 10.9381 15.0026 11.0778L15.0002 11.245Z" fill="#001F3F"/>
</svg>
