<svg xmlns="http://www.w3.org/2000/svg" width="35" height="34" viewBox="0 0 35 34">
  <g id="Group_8723" data-name="Group 8723" transform="translate(-150 -126)">
    <g id="Path_9021" data-name="Path 9021" transform="translate(150 126)" fill="rgba(255,255,255,0.58)">
      <path d="M 18 33.25 L 17 33.25 C 12.65946960449219 33.25 8.578740119934082 31.55970001220703 5.509520053863525 28.49048042297363 C 2.440299987792969 25.42126083374023 0.75 21.34053039550781 0.75 17 C 0.75 12.65946960449219 2.440299987792969 8.578740119934082 5.509520053863525 5.509520053863525 C 8.578740119934082 2.440299987792969 12.65946960449219 0.75 17 0.75 L 18 0.75 C 22.34053039550781 0.75 26.42126083374023 2.440299987792969 29.49048042297363 5.509520053863525 C 32.55970001220703 8.578740119934082 34.25 12.65946960449219 34.25 17 C 34.25 21.34053039550781 32.55970001220703 25.42126083374023 29.49048042297363 28.49048042297363 C 26.42126083374023 31.55970001220703 22.34053039550781 33.25 18 33.25 Z" stroke="none"/>
      <path d="M 17 1.5 C 12.85980033874512 1.5 8.967409133911133 3.112279891967773 6.039850234985352 6.039850234985352 C 3.112279891967773 8.967409133911133 1.5 12.85980033874512 1.5 17 C 1.5 21.14019966125488 3.112279891967773 25.03258895874023 6.039850234985352 27.96014976501465 C 8.967409133911133 30.88772010803223 12.85980033874512 32.5 17 32.5 L 18 32.5 C 22.14019966125488 32.5 26.03258895874023 30.88772010803223 28.96014976501465 27.96014976501465 C 31.88772010803223 25.03258895874023 33.5 21.14019966125488 33.5 17 C 33.5 12.85980033874512 31.88772010803223 8.967409133911133 28.96014976501465 6.039850234985352 C 26.03258895874023 3.112279891967773 22.14019966125488 1.5 18 1.5 L 17 1.5 M 17 0 L 18 0 C 27.38883972167969 0 35 7.611160278320312 35 17 C 35 26.38883972167969 27.38883972167969 34 18 34 L 17 34 C 7.611160278320312 34 0 26.38883972167969 0 17 C 0 7.611160278320312 7.611160278320312 0 17 0 Z" stroke="none" fill="#285078"/>
    </g>
    <g id="Group_255" data-name="Group 255" transform="translate(158.531 132.997)">
      <path id="Path_58" data-name="Path 58" d="M633,342.782c.018-.174.034-.348.054-.521a7.7,7.7,0,0,1,1.084-3.167,8.883,8.883,0,0,1,4.139-3.539l.253-.11-.094-.1a5.357,5.357,0,0,1,2.813-9.043,5.353,5.353,0,0,1,2.178,10.481,5.2,5.2,0,0,1-3.442-.355.318.318,0,0,0-.248-.014,8.189,8.189,0,0,0-3.2,1.791,6.692,6.692,0,0,0-2.127,3.831,8.273,8.273,0,0,0-.1,1.515.65.65,0,0,1-.464.635.662.662,0,0,1-.828-.454c-.007-.023-.016-.046-.024-.07Zm9.225-7.174a4.037,4.037,0,1,0-4.041-4.029A4.054,4.054,0,0,0,642.225,335.608Z" transform="translate(-633 -326.211)" fill="#285078" stroke="#285078" stroke-width="0.75"/>
      <g id="Group_8725" data-name="Group 8725" transform="translate(12412.939 -20867.658) rotate(-9)">
        <path id="Path_9008" data-name="Path 9008" d="M.79,0a.733.733,0,0,1,.79.659v3.77H0V.659A.733.733,0,0,1,.79,0Z" transform="matrix(0.799, -0.602, 0.602, 0.799, -15517.082, 18684.807)" fill="#285078"/>
        <path id="Path_9007" data-name="Path 9007" d="M.79,0a.728.728,0,0,1,.79.643V7.57H0V.643A.728.728,0,0,1,.79,0Z" transform="matrix(0.602, 0.799, -0.799, 0.602, -15508.485, 18681.898)" fill="#285078"/>
      </g>
    </g>
  </g>
</svg>
