<svg xmlns="http://www.w3.org/2000/svg" width="43" height="34" viewBox="0 0 43 34">
  <defs>
    <style>
      .cls-1 {
        fill: #000;
      }

      .cls-2 {
        fill: #000;
      }
    </style>
  </defs>
  <g id="Group_8598" data-name="Group 8598" transform="translate(12699 -15835)">
    <g id="Group_8597" data-name="Group 8597" transform="translate(-12849 15709)">
      <rect id="Rectangle_76" data-name="Rectangle 76" class="cls-1" width="43" height="34" rx="17" transform="translate(150 126)"/>
      <g id="Group_255" data-name="Group 255" transform="translate(162.301 132.997)">
        <path id="Path_58" data-name="Path 58" class="cls-2" d="M633,342.782c.018-.174.034-.348.054-.521a7.7,7.7,0,0,1,1.084-3.167,8.883,8.883,0,0,1,4.139-3.539l.253-.11-.094-.1a5.357,5.357,0,0,1,2.813-9.043,5.353,5.353,0,0,1,2.178,10.481,5.2,5.2,0,0,1-3.442-.355.318.318,0,0,0-.248-.014,8.189,8.189,0,0,0-3.2,1.791,6.692,6.692,0,0,0-2.127,3.831,8.273,8.273,0,0,0-.1,1.515.65.65,0,0,1-.464.635.662.662,0,0,1-.828-.454c-.007-.023-.016-.046-.024-.07Zm9.225-7.174a4.037,4.037,0,1,0-4.041-4.029A4.054,4.054,0,0,0,642.225,335.608Z" transform="translate(-633 -326.211)"/>
      </g>
    </g>
    <path id="Icon_awesome-arrow-up" data-name="Icon awesome-arrow-up" class="cls-2" d="M.88,6.493.514,6.127a.394.394,0,0,1,0-.559l3.2-3.205a.394.394,0,0,1,.559,0l3.2,3.2a.394.394,0,0,1,0,.559l-.366.366a.4.4,0,0,1-.566-.007L4.657,4.5V9.238a.4.4,0,0,1-.4.4H3.734a.4.4,0,0,1-.4-.4V4.5L1.445,6.486a.393.393,0,0,1-.566.007Z" transform="translate(-12675.646 15864.395) rotate(-120)"/>
  </g>
</svg>