<svg id="Group_255" data-name="Group 255" xmlns="http://www.w3.org/2000/svg" width="17.337" height="18.005" viewBox="0 0 17.337 18.005">
  <path id="Path_58" data-name="Path 58" d="M633,342.782c.018-.174.034-.348.054-.521a7.7,7.7,0,0,1,1.084-3.167,8.883,8.883,0,0,1,4.139-3.539l.253-.11-.094-.1a5.357,5.357,0,0,1,2.813-9.043,5.353,5.353,0,0,1,2.178,10.481,5.2,5.2,0,0,1-3.442-.355.318.318,0,0,0-.248-.014,8.189,8.189,0,0,0-3.2,1.791,6.692,6.692,0,0,0-2.127,3.831,8.273,8.273,0,0,0-.1,1.515.65.65,0,0,1-.464.635.662.662,0,0,1-.828-.454c-.007-.023-.016-.046-.024-.07Zm9.225-7.174a4.037,4.037,0,1,0-4.041-4.029A4.054,4.054,0,0,0,642.225,335.608Z" transform="translate(-633 -326.211)" fill="#000"/>
  <g id="Group_8425" data-name="Group 8425" transform="translate(22.281 5.392)">
    <g id="Group_8415" data-name="Group 8415">
      <g id="Group_2783" data-name="Group 2783" transform="translate(-7.71 5.59) rotate(45)">
        <g id="Path_9004" data-name="Path 9004" transform="translate(0.416 0) rotate(45)" fill="#000">
          <path d="M 4.88232421875 0.6882445216178894 L 0.29412442445755 0.6882445216178894 C 0.07680441439151764 0.6882445216178894 -0.09999559074640274 0.5114445686340332 -0.09999559074640274 0.2941245436668396 C -0.09999559074640274 0.07680454105138779 0.07680441439151764 -0.099995456635952 0.29412442445755 -0.099995456635952 L 4.88232421875 -0.099995456635952 C 5.099644184112549 -0.099995456635952 5.276444435119629 0.07680454105138779 5.276444435119629 0.2941245436668396 C 5.276444435119629 0.5114445686340332 5.099644184112549 0.6882445216178894 4.88232421875 0.6882445216178894 Z" stroke="none"/>
          <path d="M 0.2941246032714844 4.529953002929688e-06 C 0.1316843032836914 4.529953002929688e-06 4.291534423828125e-06 0.1316845417022705 4.291534423828125e-06 0.2941245436668396 C 4.291534423828125e-06 0.4565645456314087 0.1316843032836914 0.5882445573806763 0.2941246032714844 0.5882445573806763 L 4.88232421875 0.5882445573806763 C 5.044764518737793 0.5882445573806763 5.176444530487061 0.4565645456314087 5.176444530487061 0.2941245436668396 C 5.176444530487061 0.1316845417022705 5.044764518737793 4.529953002929688e-06 4.88232421875 4.529953002929688e-06 L 0.2941246032714844 4.529953002929688e-06 M 0.2941246032714844 -0.1999954581260681 L 4.88232421875 -0.1999954581260681 C 5.154784202575684 -0.1999954581260681 5.376444339752197 0.02166455984115601 5.376444339752197 0.2941245436668396 C 5.376444339752197 0.5665845274925232 5.154784202575684 0.7882445454597473 4.88232421875 0.7882445454597473 L 0.2941246032714844 0.7882445454597473 C 0.02166461944580078 0.7882445454597473 -0.1999955177307129 0.5665845274925232 -0.1999955177307129 0.2941245436668396 C -0.1999955177307129 0.02166455984115601 0.02166461944580078 -0.1999954581260681 0.2941246032714844 -0.1999954581260681 Z" stroke="none" fill="#000"/>
        </g>
        <g id="Path_9005" data-name="Path 9005" transform="translate(4.059 0.43) rotate(135)" fill="#000">
          <path d="M 4.839910507202148 0.6831022500991821 L 0.2915505766868591 0.6831022500991821 C 0.07565057277679443 0.6831022500991821 -0.09999942779541016 0.5074522495269775 -0.09999942779541016 0.2915522754192352 C -0.09999942779541016 0.07565227895975113 0.07565057277679443 -0.09999772161245346 0.2915505766868591 -0.09999772161245346 L 4.839910507202148 -0.09999772161245346 C 5.055810451507568 -0.09999772161245346 5.231460571289062 0.07565227895975113 5.231460571289062 0.2915522754192352 C 5.231460571289062 0.5074522495269775 5.055810451507568 0.6831022500991821 4.839910507202148 0.6831022500991821 Z" stroke="none"/>
          <path d="M 0.2915506362915039 2.264976501464844e-06 C 0.1305303573608398 2.264976501464844e-06 4.76837158203125e-07 0.1305322647094727 4.76837158203125e-07 0.2915522754192352 C 4.76837158203125e-07 0.4525722861289978 0.1305303573608398 0.583102285861969 0.2915506362915039 0.583102285861969 L 4.839910507202148 0.583102285861969 C 5.000930786132812 0.583102285861969 5.131460666656494 0.4525722861289978 5.131460666656494 0.2915522754192352 C 5.131460666656494 0.1305322647094727 5.000930786132812 2.264976501464844e-06 4.839910507202148 2.264976501464844e-06 L 0.2915506362915039 2.264976501464844e-06 M 0.2915506362915039 -0.1999977231025696 L 4.839910507202148 -0.1999977231025696 C 5.110950469970703 -0.1999977231025696 5.331460475921631 0.02051228284835815 5.331460475921631 0.2915522754192352 C 5.331460475921631 0.5625922679901123 5.110950469970703 0.78310227394104 4.839910507202148 0.78310227394104 L 0.2915506362915039 0.78310227394104 C 0.02051067352294922 0.78310227394104 -0.1999993324279785 0.5625922679901123 -0.1999993324279785 0.2915522754192352 C -0.1999993324279785 0.02051228284835815 0.02051067352294922 -0.1999977231025696 0.2915506362915039 -0.1999977231025696 Z" stroke="none" fill="#000"/>
        </g>
      </g>
    </g>
  </g>
</svg>
