<svg xmlns="http://www.w3.org/2000/svg" xmlns:xlink="http://www.w3.org/1999/xlink" width="169.878" height="51.896" viewBox="0 0 169.878 51.896">
  <defs>
    <filter id="Rectangle_1221" x="0" y="0" width="169.878" height="51.896" filterUnits="userSpaceOnUse">
      <feOffset dx="3" dy="4" input="SourceAlpha"/>
      <feGaussianBlur stdDeviation="3" result="blur"/>
      <feFlood flood-opacity="0.349"/>
      <feComposite operator="in" in2="blur"/>
      <feComposite in="SourceGraphic"/>
    </filter>
  </defs>
  <g id="Group_8715" data-name="Group 8715" transform="translate(-117.568 -565.501)">
    <g id="Group_8595" data-name="Group 8595" transform="translate(123.568 570.501)">
      <g transform="matrix(1, 0, 0, 1, -6, -5)" filter="url(#Rectangle_1221)">
        <rect id="Rectangle_1221-2" data-name="Rectangle 1221" width="151.878" height="33.896" rx="16.948" transform="translate(6 5)" fill="rgba(242,100,53,0.8)"/>
      </g>
      <text id="Greeting_sent" data-name="Greeting sent" transform="translate(36.009 23.404)" fill="#fff" font-size="18" font-family="SFProDisplay-Medium, SF Pro Display" font-weight="500" letter-spacing="0.016em"><tspan x="0" y="0">Greeting sent</tspan></text>
    </g>
    <g id="Group_2199" data-name="Group 2199" transform="translate(131 575.95)">
      <g id="Path_9022" data-name="Path 9022" fill="#fff">
        <path d="M 11.49929618835449 22.24859619140625 C 8.628056526184082 22.24859619140625 5.928666114807129 21.1304759979248 3.898396253585815 19.10019683837891 C 1.868116140365601 17.06991577148438 0.7499961853027344 14.3705358505249 0.7499961853027344 11.49929618835449 C 0.7499961853027344 8.628056526184082 1.868116140365601 5.928666114807129 3.898396253585815 3.898396253585815 C 5.928666114807129 1.868116140365601 8.628056526184082 0.7499961853027344 11.49929618835449 0.7499961853027344 C 14.3705358505249 0.7499961853027344 17.06991577148438 1.868116140365601 19.10019683837891 3.898396253585815 C 21.1304759979248 5.928666114807129 22.24859619140625 8.628056526184082 22.24859619140625 11.49929618835449 C 22.24859619140625 14.3705358505249 21.1304759979248 17.06991577148438 19.10019683837891 19.10019683837891 C 17.06991577148438 21.1304759979248 14.3705358505249 22.24859619140625 11.49929618835449 22.24859619140625 Z" stroke="none"/>
        <path d="M 11.49929618835449 1.499996185302734 C 5.985666275024414 1.499996185302734 1.499996185302734 5.985666275024414 1.499996185302734 11.49929618835449 C 1.499996185302734 17.01292610168457 5.985666275024414 21.49859619140625 11.49929618835449 21.49859619140625 C 17.01292610168457 21.49859619140625 21.49859619140625 17.01292610168457 21.49859619140625 11.49929618835449 C 21.49859619140625 5.985666275024414 17.01292610168457 1.499996185302734 11.49929618835449 1.499996185302734 M 11.49929618835449 -3.814697265625e-06 C 17.85017585754395 -3.814697265625e-06 22.99859619140625 5.148406982421875 22.99859619140625 11.49929618835449 C 22.99859619140625 17.85017585754395 17.85017585754395 22.99859619140625 11.49929618835449 22.99859619140625 C 5.148406982421875 22.99859619140625 -3.814697265625e-06 17.85017585754395 -3.814697265625e-06 11.49929618835449 C -3.814697265625e-06 5.148406982421875 5.148406982421875 -3.814697265625e-06 11.49929618835449 -3.814697265625e-06 Z" stroke="none" fill="#fff"/>
      </g>
      <g id="Group_2198" data-name="Group 2198" transform="translate(1.647 2.035)">
        <g id="Group_2197" data-name="Group 2197" transform="translate(0 0)">
          <path id="Path_217" data-name="Path 217" d="M246.326,34.1a.4.4,0,0,0,.331-.437V31.443a.344.344,0,1,0-.662,0v2.224A.4.4,0,0,0,246.326,34.1Z" transform="translate(-236.494 -31.006)" fill="#f26435"/>
          <path id="Path_218" data-name="Path 218" d="M153.56,62.672a.331.331,0,1,0,.56-.353l-.882-1.4a.331.331,0,1,0-.56.353Z" transform="translate(-146.217 -59.031)" fill="#f26435"/>
          <path id="Path_219" data-name="Path 219" d="M312.9,62.776a.331.331,0,0,0,.456-.1l.881-1.4a.331.331,0,1,0-.56-.353l-.881,1.4A.331.331,0,0,0,312.9,62.776Z" transform="translate(-301.036 -59.032)" fill="#f26435"/>
          <path id="Path_220" data-name="Path 220" d="M19.539,123.028l-.667-1.179a.384.384,0,1,0-.668.378l.667,1.178a.189.189,0,0,1,.017.145.181.181,0,0,1-.086.11l-1.028.57a.2.2,0,0,1-.26-.069l-.261-.462,0-.006-2.7-4.778a.187.187,0,0,1-.017-.144.18.18,0,0,1,.086-.109l1.03-.57a.191.191,0,0,1,.259.07l2.542,4.462a.384.384,0,1,0,.668-.378l-2.542-4.461a.961.961,0,0,0-1.3-.364l-1.03.57a.954.954,0,0,0-.388,1.261l-.567.164a2.233,2.233,0,0,1-.47.108h0a.959.959,0,0,1-.292-.088c-.079-.03-.178-.067-.3-.11l-1-.351a2.3,2.3,0,0,0-1.17-.151l-1.713.153a2.315,2.315,0,0,0-1.554.551l-.976-.283a.954.954,0,0,0-.39-1.256l-1.029-.57a.962.962,0,0,0-1.3.364L.124,123.028a.955.955,0,0,0,.364,1.305l1.029.57a.963.963,0,0,0,1.3-.363l.109-.192a1.8,1.8,0,0,1,.716.545,1.289,1.289,0,0,0,.833,2.118,1.288,1.288,0,0,0,1.134,1.416,1.287,1.287,0,0,0,1.134,1.416,1.292,1.292,0,0,0,2.091,1.143l.8-.643a1.3,1.3,0,0,0,.174-.168l.459.367a1.29,1.29,0,0,0,2.073-.76,1.284,1.284,0,0,0,.421.07,1.321,1.321,0,0,0,.146-.008,1.288,1.288,0,0,0,1.141-1.417,1.286,1.286,0,0,0,1.134-1.416,1.291,1.291,0,0,0,.834-2.118,1.8,1.8,0,0,1,.715-.545l.109.193a.963.963,0,0,0,1.3.363l1.028-.57a.957.957,0,0,0,.366-1.305ZM2.15,124.161a.2.2,0,0,1-.26.07l-1.029-.57a.181.181,0,0,1-.085-.11.188.188,0,0,1,.017-.145l2.966-5.244a.188.188,0,0,1,.164-.094.2.2,0,0,1,.1.025l1.029.57h0a.18.18,0,0,1,.085.109.187.187,0,0,1-.017.144Zm2.8,1.976a.523.523,0,0,1-.653-.816l1.438-1.149a.525.525,0,0,1,.736.082.523.523,0,0,1-.082.733l-.007.006-1.432,1.144Zm.4,1.334a.525.525,0,0,1,.082-.734h0L7.5,125.083a.525.525,0,0,1,.736.082.525.525,0,0,1-.082.735l-2.071,1.654a.525.525,0,0,1-.737-.082Zm1.485,1.609a.523.523,0,0,1-.269-.927h0L8,127.009l.005,0a.525.525,0,0,1,.736.081.524.524,0,0,1-.082.735L7.221,128.97a.521.521,0,0,1-.385.11Zm2.516.312a.518.518,0,0,1-.192.35l-.8.644a.525.525,0,0,1-.737-.082.524.524,0,0,1,.081-.734h0l.8-.643h0a.525.525,0,0,1,.736.082A.517.517,0,0,1,9.352,129.393Zm6.094-3.336a.527.527,0,0,1-.736.082h0l-1.028-.821a.384.384,0,0,0-.479.6l1.027.821a.523.523,0,1,1-.654.816l-1.115-.89a.384.384,0,0,0-.479.6l1.114.889a.524.524,0,0,1-.654.817l-.555-.444,0,0-.469-.375-.088-.07a.384.384,0,0,0-.48.6l.558.446a.523.523,0,0,1-.655.816l-.633-.506a1.285,1.285,0,0,0-.738-1.269,1.289,1.289,0,0,0-.5-1.922A1.291,1.291,0,0,0,7.325,124.3a1.281,1.281,0,0,0-.252-.529,1.294,1.294,0,0,0-1.815-.2l-1.028.822a2.531,2.531,0,0,0-.922-.718l2.115-3.742,1.126.326a1.255,1.255,0,0,0,.031.191c.273,1.121,1.3,1.643,2.694,1.363,1.17-.235,1.652.115,2.611.814l.311.225c.69.5,1.427,1.077,1.922,1.471l1.247,1a.524.524,0,0,1,.081.735Zm-.012-1.662-.837-.669c-.5-.4-1.249-.99-1.954-1.5l-.307-.222a3.526,3.526,0,0,0-3.215-.946c-.459.093-1.554.2-1.8-.792-.034-.14,0-.188.015-.209.051-.072.258-.246,1.066-.317l1.715-.154a1.573,1.573,0,0,1,.846.111l1,.351c.112.039.2.073.28.1a1.472,1.472,0,0,0,1.248,0l.741-.215,2.112,3.737A2.523,2.523,0,0,0,15.434,124.394Z" transform="translate(0 -114.204)" fill="#f26435"/>
        </g>
      </g>
    </g>
  </g>
</svg>
