<svg id="Component_26_3" data-name="Component 26 – 3" xmlns="http://www.w3.org/2000/svg" width="27.225" height="25.355" viewBox="0 0 27.225 25.355">
  <g id="Group_1994" data-name="Group 1994" transform="translate(-413.56 -2698.777)">
    <path id="Path_103" data-name="Path 103" d="M21.641,0H11.293A5.593,5.593,0,0,0,5.964,3.916H5.583A5.589,5.589,0,0,0,0,9.5V19.772a5.589,5.589,0,0,0,5.583,5.583H15.932a5.593,5.593,0,0,0,5.329-3.916h.381a5.589,5.589,0,0,0,5.583-5.583V5.583A5.589,5.589,0,0,0,21.641,0Zm3.988,15.856a3.992,3.992,0,0,1-3.988,3.988h-.127c0-.024,0-.048,0-.072V9.5a5.59,5.59,0,0,0-5.583-5.583H7.671A3.992,3.992,0,0,1,11.293,1.6H21.641a3.992,3.992,0,0,1,3.988,3.988Zm-9.7,7.9H5.583A3.993,3.993,0,0,1,1.6,19.772V9.5A3.992,3.992,0,0,1,5.583,5.511H15.932A3.992,3.992,0,0,1,19.92,9.5V19.772A3.993,3.993,0,0,1,15.932,23.76Z" transform="translate(413.56 2698.777)" fill="#285078"/>
    <path id="Path_104" data-name="Path 104" d="M120.677,245.642a3.654,3.654,0,0,1,3.65,3.649.8.8,0,1,0,1.6,0,5.251,5.251,0,0,0-5.245-5.245.8.8,0,1,0,0,1.6Z" transform="translate(300.055 2467.707)" fill="#285078"/>
    <path id="Path_105" data-name="Path 105" d="M114.458,305.06a.821.821,0,0,1,.821.821.8.8,0,0,0,1.6,0,2.418,2.418,0,0,0-2.416-2.416.8.8,0,1,0,0,1.6Z" transform="translate(305.944 2411.448)" fill="#285078"/>
    <path id="Path_106" data-name="Path 106" d="M128.993,188.193a6.269,6.269,0,0,1,6.262,6.262.8.8,0,1,0,1.6,0,7.866,7.866,0,0,0-7.857-7.857.8.8,0,1,0,0,1.6Z" transform="translate(292.182 2522.101)" fill="#285078"/>
  </g>
  <g id="Group_3181" data-name="Group 3181" transform="translate(-302.229 -53)">
    <path id="Path_461" data-name="Path 461" d="M6640.714-8105.594l3.062-1.378H6655.1l3.062,1.378v16.993l-3.062,1.684h-12.859l-2.6-2.449-1.225-5.817,1.225-9.185Z" transform="translate(-6336 8165)" fill="#f25e2e"/>
    <path id="Path_462" data-name="Path 462" d="M6644.542-8106.972l1.99-3.368,2.143-.918h12.553l2.909,2.3.765,1.99v8.879l-.765,4.9-2.909,1.072h-2.449v-9.951l-2.144-4.9h-12.094Z" transform="translate(-6336 8165)" fill="#ffc8b7"/>
    <g id="Group_3181-2" data-name="Group 3181" transform="translate(-111.331 -2645.777)">
      <path id="Path_103-2" data-name="Path 103" d="M21.641,0H11.293A5.593,5.593,0,0,0,5.964,3.916H5.583A5.589,5.589,0,0,0,0,9.5V19.772a5.589,5.589,0,0,0,5.583,5.583H15.932a5.593,5.593,0,0,0,5.329-3.916h.381a5.589,5.589,0,0,0,5.583-5.583V5.583A5.589,5.589,0,0,0,21.641,0Zm3.988,15.856a3.992,3.992,0,0,1-3.988,3.988h-.127c0-.024,0-.048,0-.072V9.5a5.59,5.59,0,0,0-5.583-5.583H7.671A3.992,3.992,0,0,1,11.293,1.6H21.641a3.992,3.992,0,0,1,3.988,3.988Zm-9.7,7.9H5.583A3.993,3.993,0,0,1,1.6,19.772V9.5A3.992,3.992,0,0,1,5.583,5.511H15.932A3.992,3.992,0,0,1,19.92,9.5V19.772A3.993,3.993,0,0,1,15.932,23.76Z" transform="translate(413.56 2698.777)" fill="#285078"/>
      <path id="Path_104-2" data-name="Path 104" d="M120.677,245.642a3.654,3.654,0,0,1,3.65,3.649.8.8,0,1,0,1.6,0,5.251,5.251,0,0,0-5.245-5.245.8.8,0,1,0,0,1.6Z" transform="translate(300.055 2467.707)" fill="#fff"/>
      <path id="Path_105-2" data-name="Path 105" d="M114.458,305.06a.821.821,0,0,1,.821.821.8.8,0,0,0,1.6,0,2.418,2.418,0,0,0-2.416-2.416.8.8,0,1,0,0,1.6Z" transform="translate(305.944 2411.448)" fill="#fff"/>
      <path id="Path_106-2" data-name="Path 106" d="M128.993,188.193a6.269,6.269,0,0,1,6.262,6.262.8.8,0,1,0,1.6,0,7.866,7.866,0,0,0-7.857-7.857.8.8,0,1,0,0,1.6Z" transform="translate(292.182 2522.101)" fill="#fff"/>
    </g>
  </g>
</svg>
