<svg xmlns="http://www.w3.org/2000/svg" width="22.351" height="23.039" viewBox="0 0 22.351 23.039">
  <g id="Group_381" data-name="Group 381" transform="translate(-1921 -2028.383)">
    <path id="Path_58" data-name="Path 58" d="M633,347.415c.023-.222.043-.445.069-.667a9.855,9.855,0,0,1,1.387-4.053,11.367,11.367,0,0,1,5.3-4.529l.324-.141-.121-.125a6.855,6.855,0,0,1,3.6-11.571,6.85,6.85,0,0,1,2.786,13.411,6.651,6.651,0,0,1-4.4-.454.407.407,0,0,0-.317-.018,10.478,10.478,0,0,0-4.088,2.292,8.563,8.563,0,0,0-2.721,4.9,10.581,10.581,0,0,0-.125,1.938.832.832,0,0,1-.594.812.847.847,0,0,1-1.059-.581c-.009-.03-.02-.059-.03-.089Zm11.8-9.18a5.166,5.166,0,1,0-5.17-5.155A5.187,5.187,0,0,0,644.8,338.235Z" transform="translate(1288 1702.172)" fill="#285078"/>
    <g id="Group_378" data-name="Group 378" transform="translate(1940.194 2038.13)">
      <g id="Group_377" data-name="Group 377" transform="translate(0 0)">
        <path id="Path_110" data-name="Path 110" d="M293.349,292.029c1.089,0,1.56.272,1.56.852,0,.436-.091,1.017-.217,2.105-.363,2.995-.6,2.856-.871,6.159-.127.2-.871.2-.98,0-.254-3.3-.472-3.164-.871-6.159-.127-1.088-.218-1.669-.218-2.105,0-.58.49-.852,1.56-.852Zm1.518,11.476a1.536,1.536,0,1,1-1.536-1.536A1.536,1.536,0,0,1,294.867,303.5Z" transform="translate(-291.752 -292.029)" fill="#285078"/>
      </g>
    </g>
  </g>
</svg>
