<svg xmlns="http://www.w3.org/2000/svg" width="50" height="50" viewBox="0 0 50 50">
  <defs>
    <style>
      .cls-1, .cls-3, .cls-5 {
        fill: none;
      }

      .cls-1, .cls-2 {
        stroke: #6f8ba5;
      }

      .cls-1 {
        stroke-width: 3px;
      }

      .cls-2 {
        fill: #6f8ba5;
        stroke-width: 0.1px;
      }

      .cls-3 {
        stroke-linecap: round;
        stroke-linejoin: round;
      }

      .cls-4, .cls-6 {
        stroke: none;
      }

      .cls-6 {
        fill: #6f8ba5;
      }
    </style>
  </defs>
  <g id="Group_8703" data-name="Group 8703" transform="translate(-180 -359.613)">
    <g id="Ellipse_237" data-name="Ellipse 237" class="cls-1" transform="translate(180 359.613)">
      <circle class="cls-4" cx="25" cy="25" r="25"/>
      <circle class="cls-5" cx="25" cy="25" r="23.5"/>
    </g>
    <g id="Group_8225" data-name="Group 8225" transform="translate(190.501 374.754)">
      <g id="Group_319" data-name="Group 319" transform="translate(0 -1.372)">
        <g id="Group_318" data-name="Group 318">
          <path id="Path_90" data-name="Path 90" class="cls-2" d="M7.378,29.38c-3.667-2.409-6-4.411-5.344-9.5C2.409,16.978,4.388,15.1,7.077,15.1a5.757,5.757,0,0,1,.6.031,7.569,7.569,0,0,1,4.206,1.962,9.734,9.734,0,0,1,1.558,1.791c.052.078.133.225.227.4.541.985,1.122,1.947,1.752,1.947.312,0,.577-.24.786-.714,1.335-3.021,3.465-4.823,6-5.073.147-.015.3-.022.444-.022a4.448,4.448,0,0,1,4.24,3.084c.7,2.153-.673,6.119-3.8,9a6.481,6.481,0,0,0,2.174.4c.438-.492.861-1,1.261-1.537.926-1.236,3.787-5.582,1.765-9.631a6.315,6.315,0,0,0-5.828-3.419c-.244,0-.491.012-.734.036-2.511.248-4.8,1.915-6.469,4.7-1.935-3.12-5.134-5.123-8.21-5.123a7.085,7.085,0,0,0-1.991.284A7,7,0,0,0,.6,17.667a9.465,9.465,0,0,0,.418,7.6c1.632,3.025,4.431,4.872,7.136,6.657a38.213,38.213,0,0,1,3.923,2.834C11.183,33.9,8.082,29.842,7.378,29.38Z" transform="translate(-0.001 -12.933)"/>
        </g>
      </g>
      <g id="Path_91" data-name="Path 91" class="cls-3" transform="translate(-160.492 -150.924)">
        <path class="cls-4" d="M179.609,160.093l2.532,5.854,6.1.712-4.535,4.33,1.238,6.294-5.334-3.178-5.334,3.178,1.238-6.294-4.535-4.33,6.1-.712Z"/>
        <path class="cls-6" d="M 179.6092071533203 163.1161193847656 L 178.1788940429688 166.4232940673828 C 178.0088500976562 166.8164672851562 177.6421356201172 167.0891723632812 177.2166748046875 167.1388549804688 L 173.6537933349609 167.5549163818359 L 176.341552734375 170.1215515136719 C 176.6378479003906 170.4044799804688 176.7693176269531 170.8190002441406 176.6902618408203 171.2209777832031 L 175.9714202880859 174.8760986328125 L 178.9950866699219 173.0748443603516 C 179.3734436035156 172.8494415283203 179.8449554443359 172.8493957519531 180.2233734130859 173.0748596191406 L 183.2469787597656 174.8760833740234 L 182.5281524658203 171.2209625244141 C 182.4490966796875 170.8190002441406 182.58056640625 170.4044799804688 182.8768615722656 170.1215515136719 L 185.5646209716797 167.5549163818359 L 182.001708984375 167.1388549804688 C 181.5762481689453 167.0891723632812 181.2095184326172 166.8164520263672 181.0394897460938 166.4232940673828 L 179.6092071533203 163.1161193847656 M 179.6092224121094 160.0930633544922 L 182.1408996582031 165.9469604492188 L 188.2401733398438 166.6592102050781 L 183.7055969238281 170.9894104003906 L 184.9434204101562 177.2834930419922 L 179.6092224121094 174.1057891845703 L 174.2749633789062 177.2834930419922 L 175.5128173828125 170.9894104003906 L 170.9782409667969 166.6592102050781 L 177.0774841308594 165.9469604492188 L 179.6092224121094 160.0930633544922 Z"/>
      </g>
    </g>
  </g>
</svg>
