<svg xmlns="http://www.w3.org/2000/svg" width="29.751" height="27.955" viewBox="0 0 29.751 27.955">
  <g id="Group_8382" data-name="Group 8382" transform="translate(-29 -846.999)">
    <g id="Group_8381" data-name="Group 8381" transform="translate(-64.446 540.941)">
      <g id="Group_404" data-name="Group 404" transform="translate(93 306)">
        <g id="Group_403" data-name="Group 403">
          <g id="Rectangle_84" data-name="Rectangle 84" transform="translate(0.446 0.058)" fill="#fff" stroke="#1a3253" stroke-width="1.3">
            <rect width="20" height="26" rx="3" stroke="none"/>
            <rect x="0.65" y="0.65" width="18.7" height="24.7" rx="2.35" fill="none"/>
          </g>
          <g id="Group_402" data-name="Group 402" transform="translate(3.917 6.529)">
            <g id="Group_401" data-name="Group 401">
              <path id="Path_120" data-name="Path 120" d="M1001.224,104.763q-2.838,0-5.676,0a.826.826,0,1,1-.1-1.648c.052,0,.105,0,.158,0q5.627,0,11.254,0a.893.893,0,0,1,.728.279.822.822,0,0,1-.511,1.363,1.974,1.974,0,0,1-.276.009Z" transform="translate(-994.66 -97.888)" fill="#1a3253" stroke="#1a3253" stroke-width="0.2"/>
              <path id="Path_122" data-name="Path 122" d="M1001.224,104.763q-2.838,0-5.676,0a.826.826,0,1,1-.1-1.648c.052,0,.105,0,.158,0q5.627,0,11.254,0a.893.893,0,0,1,.728.279.822.822,0,0,1-.511,1.363,1.974,1.974,0,0,1-.276.009Z" transform="translate(-994.66 -103.111)" fill="#1a3253" stroke="#1a3253" stroke-width="0.2"/>
              <path id="Path_121" data-name="Path 121" d="M1001.224,104.763q-2.838,0-5.676,0a.826.826,0,1,1-.1-1.648c.052,0,.105,0,.158,0q5.627,0,11.254,0a.893.893,0,0,1,.728.279.822.822,0,0,1-.511,1.363,1.974,1.974,0,0,1-.276.009Z" transform="translate(-994.66 -92.665)" fill="#1a3253" stroke="#1a3253" stroke-width="0.2"/>
            </g>
          </g>
        </g>
      </g>
    </g>
    <g id="Group_8380" data-name="Group 8380" transform="translate(41.844 860.046)">
      <g id="Group_8379" data-name="Group 8379" transform="translate(0.095 -0.301)">
        <g id="Group_8376" data-name="Group 8376" transform="translate(0 0)">
          <path id="Path_8991" data-name="Path 8991" d="M-12939.532,17224.438s-.264-4.434-4.106-4.395-4.345,4.395-4.345,4.395a5.432,5.432,0,0,0,.946,3.861c1.368,2.3,7.5,6.953,7.5,6.953" transform="translate(12948.044 -17220.043)" fill="#fff"/>
          <path id="Path_8992" data-name="Path 8992" d="M-12947.606,17224.438s.268-4.434,4.105-4.395,4.345,4.395,4.345,4.395a5.411,5.411,0,0,1-.947,3.861c-1.365,2.3-7.5,6.953-7.5,6.953l-1.477-1.154" transform="translate(12955.907 -17220.043)" fill="#fff"/>
        </g>
      </g>
      <g id="Group_8376-2" data-name="Group 8376" transform="translate(1.701 1.413)">
        <path id="Path_8991-2" data-name="Path 8991" d="M-12941.315,17223.373s-.207-3.367-3.243-3.33-3.437,3.33-3.437,3.33a3.962,3.962,0,0,0,.75,2.924c1.083,1.744,5.93,5.266,5.93,5.266" transform="translate(12948.043 -17220.043)" fill="#fff" stroke="#1a3253" stroke-width="1.5"/>
        <path id="Path_8992-2" data-name="Path 8992" d="M-12947.913,17223.373s.212-3.367,3.244-3.33,3.437,3.33,3.437,3.33a3.97,3.97,0,0,1-.749,2.924c-1.083,1.744-5.932,5.266-5.932,5.266l-1.17-.877" transform="translate(12954.666 -17220.043)" fill="#fff" stroke="#1a3253" stroke-width="1.5"/>
        <path id="Path_8994" data-name="Path 8994" d="M6.313,11.289l.092.071,1.382,1.068" transform="translate(-1.7 -1.414)" fill="none" stroke="#1a3253" stroke-width="1.5"/>
      </g>
    </g>
  </g>
</svg>
