<svg xmlns="http://www.w3.org/2000/svg" width="27.156" height="25.853" viewBox="0 0 27.156 25.853">
  <g id="Group_243" data-name="Group 243" transform="translate(-317.896 -674.896)">
    <g id="Group_242" data-name="Group 242" transform="translate(318 675)">
      <path id="Path_44" data-name="Path 44" d="M831.752-104.64v-.2q0-2.3,0-4.6a.3.3,0,0,0-.139-.276,9.6,9.6,0,0,1-3.425-4.3,8.617,8.617,0,0,1,.988-8.389,10.291,10.291,0,0,1,5.21-3.952,12.243,12.243,0,0,1,10.867,1.04,9.451,9.451,0,0,1,4.139,4.894,8.616,8.616,0,0,1-1.295,8.572,10.866,10.866,0,0,1-6.1,3.982,12.548,12.548,0,0,1-5.189.27.453.453,0,0,0-.28.057q-2.3,1.393-4.6,2.8C831.883-104.711,831.83-104.683,831.752-104.64Zm1.345-2.492c.069-.039.118-.063.164-.091,1-.6,2-1.207,3-1.8a.433.433,0,0,1,.279-.05,11.239,11.239,0,0,0,4.908-.1,9.748,9.748,0,0,0,5.454-3.4,7.425,7.425,0,0,0,.759-8.291,8.832,8.832,0,0,0-4.035-3.759,10.983,10.983,0,0,0-7.82-.713,9.392,9.392,0,0,0-5.1,3.235,7.279,7.279,0,0,0-1.229,7.525,8.351,8.351,0,0,0,3.506,4.1.285.285,0,0,1,.154.282c-.018.954-.027,1.908-.039,2.862C833.1-107.278,833.1-107.218,833.1-107.132Z" transform="translate(-827.528 127.161)" fill="#0b1131" stroke="#0b1131" stroke-width="0.2"/>
      <path id="Path_45" data-name="Path 45" d="M1161.225,132.054c.641-.017,1.274-.036,1.906-.048a.338.338,0,0,1,.182.063,6.88,6.88,0,0,0,5.186,1.175,8.133,8.133,0,0,0,.813-.131.327.327,0,0,1,.278.063q1.058.748,2.122,1.488c.054.038.11.073.2.134v-.211c0-.763,0-1.526,0-2.289a.273.273,0,0,1,.147-.268,7.036,7.036,0,0,0,3.223-4.253,6.536,6.536,0,0,0-1.213-5.8.493.493,0,0,1-.085-.287c.012-.593.037-1.187.058-1.78,0-.026,0-.051.008-.1.051.04.086.063.117.092a8.205,8.205,0,0,1,2.715,5.175,7.931,7.931,0,0,1-1.662,5.9,8.519,8.519,0,0,1-1.737,1.7.3.3,0,0,0-.14.277c0,1.313,0,2.626,0,3.939v.169c-.07-.042-.12-.069-.168-.1q-1.85-1.2-3.7-2.4a.435.435,0,0,0-.328-.076,9.824,9.824,0,0,1-6.033-.935,5.849,5.849,0,0,1-1.788-1.388C1161.291,132.13,1161.256,132.088,1161.225,132.054Z" transform="translate(-1149.989 -111.494)" fill="#0b1131" stroke="#0b1131" stroke-width="0.2"/>
      <path id="Path_46" data-name="Path 46" d="M1000.264,104.521q-2.423,0-4.846,0a.7.7,0,1,1-.085-1.407c.045,0,.09,0,.135,0q4.8,0,9.608,0a.762.762,0,0,1,.621.238.7.7,0,0,1-.436,1.164,1.684,1.684,0,0,1-.235.008Z" transform="translate(-989.032 -95.357)" fill="#0b1131" stroke="#0b1131" stroke-width="0.2"/>
      <path id="Path_47" data-name="Path 47" d="M1040.393,229.917q-1.733,0-3.466,0a.686.686,0,0,1-.719-.557.7.7,0,0,1,.55-.829,1.136,1.136,0,0,1,.2-.015q3.441,0,6.882,0a.7.7,0,0,1,.706.417.692.692,0,0,1-.638.984c-.886.008-1.772,0-2.658,0Z" transform="translate(-1029.166 -216.537)" fill="#0b1131" stroke="#0b1131" stroke-width="0.2"/>
    </g>
  </g>
</svg>
