<svg xmlns="http://www.w3.org/2000/svg" width="24.269" height="24.143" viewBox="0 0 24.269 24.143">
  <g id="Group_2685" data-name="Group 2685" transform="translate(-555.95 -384.907)">
    <path id="Path_41" data-name="Path 41" d="M579.567,401.594a3.612,3.612,0,0,0-3.352-1.924,3.427,3.427,0,0,0-2.131.719c-.144.111-.355.187-.383.126s-.126-.111-.194-.164c-.438-.342-.878-.681-1.313-1.027-.171-.136-.167-.143-.085-.343a4.624,4.624,0,0,0,.4-2.172c-.009-.1-.013-.193-.018-.288.68-.217,1.348-.431,2.018-.641a.142.142,0,0,1,.114.033c.1.093.2.2.3.292a2.782,2.782,0,0,0,1.844.887,3.086,3.086,0,0,0,1.269-.136,3.015,3.015,0,0,0,1.91-3.589,2.981,2.981,0,0,0-3.8-2.1,2.939,2.939,0,0,0-1.942,1.9,3.315,3.315,0,0,0-.142,1.186.123.123,0,0,1-.106.145c-.237.063-.472.131-.706.2-.264.08-.857.275-1.221.393a4.055,4.055,0,0,0-1.545-1.784,5.418,5.418,0,0,0-1.763-.71c-.078-.016-.106-.046-.109-.127-.023-.67-.036-1.341-.083-2.009a.485.485,0,0,1,.282-.523,2.176,2.176,0,0,0,1.11-2.2,2.237,2.237,0,0,0-3.058-1.829,2.107,2.107,0,0,0-1.393,1.834,2.221,2.221,0,0,0,1.265,2.26.434.434,0,0,1,.289.422q.022,1.048.044,2.1a.133.133,0,0,1,0,.033c-.239.084-.474.154-.7.249a5.783,5.783,0,0,0-.655.331c-.088.052-.173.107-.258.165-1.093-1.1-2.5-2.5-3.574-3.583-.086-.087-.22-.167-.238-.268s.083-.221.126-.335a2.894,2.894,0,0,0-.5-3.115,2.829,2.829,0,0,0-2.727-1,2.929,2.929,0,0,0-2.4,2.121,5.462,5.462,0,0,0-.125.558v.54c.022.12.043.24.067.359a3.022,3.022,0,0,0,3.1,2.373,2.8,2.8,0,0,0,1.216-.338.14.14,0,0,1,.2.03q1.813,1.82,3.633,3.633a.147.147,0,0,1,.034.208c-.132.249-.25.505-.377.756a4.573,4.573,0,0,0,.142,3.764c.091.164.171.334.249.5a.139.139,0,0,1-.015.124c-.378.385-.761.765-1.151,1.154-.106-.061-.212-.12-.316-.181a4.421,4.421,0,0,0-2.571-.61,4.517,4.517,0,0,0-4.036,3.257c-.077.278-.107.568-.159.853-.006.035-.013.07-.02.106v.564c.032.2.056.411.1.614a4.5,4.5,0,0,0,3.808,3.56c.1.014.209.03.314.046h.589a.855.855,0,0,1,.106-.022,4.411,4.411,0,0,0,1.213-.282,4.485,4.485,0,0,0,2.281-6.415c-.081-.142-.163-.282-.237-.411l1.224-1.222c.148.084.3.181.467.266a4.377,4.377,0,0,0,4.206.067,7.606,7.606,0,0,0,.857-.566.219.219,0,0,1,.3,0c.5.391,1,.772,1.507,1.158.17.13.168.13.09.333a3.851,3.851,0,0,0-.219,2.176,3.736,3.736,0,0,0,5.929,2.264A3.654,3.654,0,0,0,579.567,401.594Zm-2.533-8.972a1.519,1.519,0,0,1,1.484,1.5,1.486,1.486,0,0,1-1.471,1.5,1.514,1.514,0,0,1-1.5-1.466A1.544,1.544,0,0,1,577.034,392.623Zm-18.026-2.775a1.938,1.938,0,1,1,1.938-1.938A1.938,1.938,0,0,1,559.008,389.847Zm1.479,17.714a3,3,0,0,1-2.98-3.034,3,3,0,0,1,6,.083A3.016,3.016,0,0,1,560.487,407.561Zm5.926-19.651a1.243,1.243,0,1,1,1.243,1.243A1.243,1.243,0,0,1,566.413,387.91Zm-1.31,5.633.007,0Zm2.919,6.319a2.881,2.881,0,1,1,2.881-2.881A2.881,2.881,0,0,1,568.022,399.861ZM576.3,405.6a2.22,2.22,0,1,1,2.22-2.22A2.22,2.22,0,0,1,576.3,405.6Z" fill="#0b1131" stroke="#0b1131" stroke-width="0.1"/>
  </g>
</svg>
