<svg xmlns="http://www.w3.org/2000/svg" width="30.284" height="25.829" viewBox="0 0 30.284 25.829">
  <g id="Group_2682" data-name="Group 2682" transform="translate(38.78 -13.318)">
    <path id="Path_37" data-name="Path 37" d="M-28.2,28.611c-.261-.469-.5-.873-.714-1.286a18.105,18.105,0,0,1-1.9-5.146,7.339,7.339,0,0,1,5.956-8.638,7.3,7.3,0,0,1,8.49,6.613,10.022,10.022,0,0,1-.836,4.557c-.455,1.1-1.024,2.163-1.547,3.239-.09.186-.2.361-.337.595.486,0,.921.015,1.355,0a1.31,1.31,0,0,1,1.08.471q3.8,4.124,7.618,8.233c.328.353.577.73.364,1.2a1.12,1.12,0,0,1-1.172.6q-13.857-.014-27.713-.007c-.592,0-.966-.223-1.086-.655a.991.991,0,0,1,.264-.992q2.488-2.683,4.971-5.371c.916-.991,1.84-1.975,2.744-2.977a1.226,1.226,0,0,1,1-.435C-29.191,28.619-28.722,28.611-28.2,28.611Zm16.415,8.494a1.492,1.492,0,0,0-.09-.127q-2.934-3.149-5.874-6.292a.559.559,0,0,0-.362-.148c-.629-.015-1.26,0-1.889-.012a.534.534,0,0,0-.5.248c-.794,1.066-1.594,2.127-2.414,3.173a.909.909,0,0,1-1.4.074,3.213,3.213,0,0,1-.358-.4c-.723-.956-1.446-1.913-2.156-2.878a.451.451,0,0,0-.42-.212c-.62.011-1.24.014-1.859,0-.222-.005-4.317,4.311-6.218,6.352-.058.062-.107.131-.185.227Zm-11.874-5.3c.066-.072.1-.105.131-.143a39.456,39.456,0,0,0,3.176-4.723,17.376,17.376,0,0,0,1.9-4.609,5.423,5.423,0,0,0-1.319-5.283,5.065,5.065,0,0,0-5.06-1.531A5.229,5.229,0,0,0-28.8,19.29a6.2,6.2,0,0,0,.176,3.773A29.7,29.7,0,0,0-23.655,31.806Z" fill="#0b1131" stroke="#fff" stroke-width="0.2"/>
    <path id="Path_38" data-name="Path 38" d="M151.07,70.138a4.154,4.154,0,1,1-4.138-4.167A4.144,4.144,0,0,1,151.07,70.138Zm-1.921.008a2.176,2.176,0,0,0-2.179-2.255,2.24,2.24,0,1,0-.065,4.48A2.181,2.181,0,0,0,149.149,70.146Z" transform="translate(-170.554 -49.388)" fill="#0b1131" stroke="#fff" stroke-width="0.2"/>
  </g>
</svg>
