<svg xmlns="http://www.w3.org/2000/svg" width="32.152" height="25.095" viewBox="0 0 32.152 25.095">
  <g id="Group_8530" data-name="Group 8530" transform="translate(-67.436 -308.405)">
    <g id="Group_2181" data-name="Group 2181" transform="translate(3.147 46.591)">
      <g id="Group_2180" data-name="Group 2180" transform="translate(58.853 255.751)">
        <path id="Path_8812" data-name="Path 8812" d="M762.178,678.6a5.457,5.457,0,0,0-.269-7.871,5.549,5.549,0,0,0-7.353-.051,5.476,5.476,0,0,0-.258,8c-.071.039-.136.078-.2.112a9.779,9.779,0,0,0-5.09,5.813c-.042.125-.1.244-.148.368a1.124,1.124,0,1,0,2.141.667,6.947,6.947,0,0,1,2.175-3.617,7.628,7.628,0,0,1,12.355,3.05,5.3,5.3,0,0,1,.155.56,1.125,1.125,0,0,0,1.383.83,1.084,1.084,0,0,0,.776-1.4,17.893,17.893,0,0,0-1.015-2.294,9.554,9.554,0,0,0-4.366-4.023C762.374,678.7,762.289,678.654,762.178,678.6Zm-.513-3.713a3.414,3.414,0,1,1-3.411-3.422A3.409,3.409,0,0,1,761.666,674.886Z" transform="translate(-743.346 -663.246)" fill="#03a9f5" opacity="0.6"/>
      </g>
    </g>
    <g id="Group_2182" data-name="Group 2182" transform="translate(-14 -2)">
      <ellipse id="Ellipse_36" data-name="Ellipse 36" cx="10.044" cy="9.402" rx="10.044" ry="9.402" transform="translate(93.5 316.696)" fill="#f0f5f7"/>
      <g id="gear-svgrepo-com" transform="translate(97.367 318.367)">
        <g id="Group_7333" data-name="Group 7333">
          <path id="Path_8811" data-name="Path 8811" d="M14.754,6.262h-.827a6.15,6.15,0,0,0-.707-1.675l.595-.6a.853.853,0,0,0,0-1.2l-.991-.99a.872.872,0,0,0-1.2,0L11,2.412a6.159,6.159,0,0,0-1.652-.671V.856A.85.85,0,0,0,8.5,0H7.1a.845.845,0,0,0-.839.856v.885a6.176,6.176,0,0,0-1.656.671L3.986,1.8a.874.874,0,0,0-1.206,0l-.991.99a.856.856,0,0,0-.25.6.844.844,0,0,0,.249.6l.595.6a6.149,6.149,0,0,0-.707,1.675H.849A.846.846,0,0,0,0,7.108v1.4a.839.839,0,0,0,.849.839h.828a6.18,6.18,0,0,0,.706,1.678l-.595.6a.854.854,0,0,0,0,1.206l.991.991a.852.852,0,0,0,1.2,0l.622-.617a6.2,6.2,0,0,0,1.656.672v.884a.839.839,0,0,0,.839.848H8.5a.844.844,0,0,0,.845-.848v-.884A6.162,6.162,0,0,0,11,13.2l.617.615a.853.853,0,0,0,1.2,0l.991-.99a.851.851,0,0,0,0-1.2l-.594-.6a6.2,6.2,0,0,0,.706-1.678h.828a.845.845,0,0,0,.856-.839v-1.4A.851.851,0,0,0,14.754,6.262ZM7.8,10.474a2.666,2.666,0,1,1,2.693-2.666A2.679,2.679,0,0,1,7.8,10.474Z" transform="translate(-1.671 -1.671)" fill="none" stroke="#03a9f5" stroke-width="1" opacity="0.6"/>
        </g>
      </g>
    </g>
  </g>
</svg>
