<svg xmlns="http://www.w3.org/2000/svg" width="23.151" height="17.87" viewBox="0 0 23.151 17.87">
  <g id="Group_7343" data-name="Group 7343" transform="translate(3865 -99.383)">
    <g id="Group_252" data-name="Group 252" transform="translate(-3865 99.383)">
      <path id="Path_53" data-name="Path 53" d="M693.8,584.611h9.91a1.613,1.613,0,0,0,1.652-1.418,1.843,1.843,0,0,0,.014-.274q0-7.247,0-14.5a1.62,1.62,0,0,0-1.678-1.682H683.911a1.62,1.62,0,0,0-1.681,1.679q0,7.255,0,14.51a1.619,1.619,0,0,0,1.678,1.681Zm.025-1.221h-9.52a.817.817,0,0,1-.907-.9q0-6.828,0-13.656a1.248,1.248,0,0,1,.027-.287.813.813,0,0,1,.87-.61h19.054a.817.817,0,0,1,.893.9q0,3.83,0,7.661,0,3,0,6.01a.828.828,0,0,1-.9.885Q698.588,583.389,693.828,583.391Z" transform="translate(-682.229 -566.742)" fill="#1a3253"/>
      <g id="Group_7395" data-name="Group 7395">
        <path id="Path_54" data-name="Path 54" d="M756.106,674.388a2.983,2.983,0,0,0-.147-4.3,3.034,3.034,0,0,0-4.02-.028,2.994,2.994,0,0,0-.141,4.373c-.039.021-.074.043-.111.061a5.347,5.347,0,0,0-2.783,3.178c-.023.068-.055.133-.081.2a.614.614,0,1,0,1.17.365,3.8,3.8,0,0,1,1.189-1.978,4.17,4.17,0,0,1,6.755,1.667,2.9,2.9,0,0,1,.085.306.615.615,0,0,0,.756.454.592.592,0,0,0,.424-.767,9.772,9.772,0,0,0-.555-1.254,5.223,5.223,0,0,0-2.387-2.2Zm-.28-2.03a1.867,1.867,0,1,1-1.865-1.871A1.864,1.864,0,0,1,755.826,672.359Z" transform="translate(-746.214 -665.351)" fill="#1a3253"/>
        <path id="Path_55" data-name="Path 55" d="M1053.656,874.914h-2.1c-.4,0-.577.182-.578.573,0,.053,0,.106,0,.159a.475.475,0,0,0,.482.507q2.191.011,4.382,0a.489.489,0,0,0,.488-.506c.038-.558-.18-.752-.711-.737C1054.968,874.927,1054.312,874.914,1053.656,874.914Z" transform="translate(-1036.751 -863.016)" fill="#1a3253"/>
        <path id="Path_56" data-name="Path 56" d="M1053.682,782.863h-2.025c-.487,0-.647.16-.644.652a.961.961,0,0,0,.024.257.489.489,0,0,0,.491.334c.313,0,.627,0,.94,0h3.283c.437,0,.611-.177.611-.616,0-.458-.17-.628-.627-.628Z" transform="translate(-1036.781 -774.523)" fill="#1a3253"/>
        <path id="Path_57" data-name="Path 57" d="M1053.656,691.342h2.1a.5.5,0,0,0,.576-.576c0-.068,0-.135,0-.2a.475.475,0,0,0-.4-.446.835.835,0,0,0-.144-.012c-1.417,0-2.833,0-4.25,0a.814.814,0,0,0-.364.108.382.382,0,0,0-.186.341c0,.087,0,.174,0,.26a.485.485,0,0,0,.525.522C1052.22,691.344,1052.938,691.342,1053.656,691.342Z" transform="translate(-1036.747 -685.344)" fill="#1a3253"/>
      </g>
    </g>
  </g>
</svg>
