<svg id="Group_266" data-name="Group 266" xmlns="http://www.w3.org/2000/svg" width="19.702" height="19.286" viewBox="0 0 19.702 19.286">
  <path id="Path_60" data-name="Path 60" d="M850.21,565.678c0-.374-.011-.68,0-.985a1.4,1.4,0,0,1,1.392-1.373,1.383,1.383,0,0,1,1.386,1.372c.011.3,0,.609,0,.95h6.215c0-.262,0-.532,0-.8a1.4,1.4,0,1,1,2.786-.017c0,.26,0,.521,0,.855.675,0,1.331.033,1.982-.006,1.671-.1,1.995.522,1.982,1.987-.038,4.471-.013,8.942-.014,13.413,0,1.091-.443,1.531-1.543,1.531l-16.594,0c-1.1,0-1.551-.441-1.551-1.526q0-6.891,0-13.782c0-.107,0-.215,0-.323a1.235,1.235,0,0,1,1.315-1.292C848.432,565.67,849.289,565.678,850.21,565.678Zm-3.157,4.837v.508q0,5,0,10.005c0,.711.073.784.8.784H864.4c.656,0,.745-.089.745-.744q0-5.048,0-10.1c0-.147-.017-.295-.027-.457Zm5.939-4.024c0,.337.008.627,0,.915a1.374,1.374,0,0,1-1.386,1.414,1.39,1.39,0,0,1-1.395-1.413c-.009-.3,0-.6,0-.933-.94,0-1.815-.018-2.687.017-.157.006-.433.225-.438.355-.038.944-.02,1.89-.02,2.84h18.083c0-.937.018-1.842-.017-2.745-.006-.156-.225-.431-.355-.436-.913-.038-1.829-.02-2.781-.02,0,.327.006.6,0,.874a1.4,1.4,0,0,1-1.392,1.462,1.378,1.378,0,0,1-1.392-1.456c-.006-.285,0-.57,0-.874Zm-1.986-.435c0,.446,0,.892,0,1.337a.588.588,0,0,0,.585.642.6.6,0,0,0,.619-.656q.019-1.314,0-2.628a.6.6,0,0,0-.635-.638.585.585,0,0,0-.57.652C851,565.2,851.005,565.626,851.006,566.056Zm8.981.023c0,.413-.006.826,0,1.239.009.441.246.718.6.722s.6-.267.6-.711c.008-.841,0-1.682,0-2.524,0-.394-.164-.654-.572-.69-.365-.033-.624.248-.635.679S859.987,565.651,859.987,566.079Z" transform="translate(-846.256 -563.318)" fill="#1a3253"/>
  <path id="Path_61" data-name="Path 61" d="M924.185,671.855a.682.682,0,0,1-.228.225,1.731,1.731,0,0,0-.716,2.274,1.257,1.257,0,0,1,.058.362c.019.42-.235.6-.619.417a9.318,9.318,0,0,1-1.1-.583.7.7,0,0,0-.838.01,11.344,11.344,0,0,1-1.058.559c-.413.2-.671.029-.649-.449.067-.4.113-.85.223-1.28a.6.6,0,0,0-.228-.677c-.322-.285-.629-.588-.924-.9s-.2-.649.232-.731c.453-.086.917-.114,1.364-.217a.814.814,0,0,0,.461-.345c.231-.379.395-.8.609-1.187.222-.409.575-.4.793.007s.394.834.624,1.231a.689.689,0,0,0,.4.29c.434.093.884.116,1.317.212a.7.7,0,0,1,.449.311C924.41,671.5,924.268,671.7,924.185,671.855Z" transform="translate(-911.322 -659.28)" fill="#1a3253"/>
</svg>
