<svg id="Group_255" data-name="Group 255" xmlns="http://www.w3.org/2000/svg" width="18.399" height="18.005" viewBox="0 0 18.399 18.005">
  <path id="Path_58" data-name="Path 58" d="M633,342.782c.018-.174.034-.348.054-.521a7.7,7.7,0,0,1,1.084-3.167,8.883,8.883,0,0,1,4.139-3.539l.253-.11-.094-.1a5.357,5.357,0,0,1,2.813-9.043,5.353,5.353,0,0,1,2.178,10.481,5.2,5.2,0,0,1-3.442-.355.318.318,0,0,0-.248-.014,8.189,8.189,0,0,0-3.2,1.791,6.692,6.692,0,0,0-2.127,3.831,8.273,8.273,0,0,0-.1,1.515.65.65,0,0,1-.464.635.662.662,0,0,1-.828-.454c-.007-.023-.016-.046-.024-.07Zm9.225-7.174a4.037,4.037,0,1,0-4.041-4.029A4.054,4.054,0,0,0,642.225,335.608Z" transform="translate(-633 -326.211)" fill="#1a3253"/>
  <path id="Path_59" data-name="Path 59" d="M1243.108,870.638a.408.408,0,0,0-.017.043.62.62,0,0,1-.631.484q-1.07,0-2.14,0h-.121v.118c0,.72,0,1.439,0,2.159a.628.628,0,1,1-1.256-.007q0-1.07,0-2.14v-.128h-.112q-1.065,0-2.131,0a.629.629,0,1,1-.016-1.257c.71,0,1.42,0,2.131,0h.128V869.8c0-.723,0-1.445,0-2.168a.628.628,0,0,1,1.058-.456.617.617,0,0,1,.2.479q0,1.07,0,2.14v.115h2.133a.67.67,0,0,1,.777.523Z" transform="translate(-1224.709 -856.845)" fill="#1a3253"/>
</svg>
