<svg xmlns="http://www.w3.org/2000/svg" width="18.224" height="25.083" viewBox="0 0 18.224 25.083">
  <g id="Group_2958" data-name="Group 2958" transform="translate(0.05 0.05)">
    <g id="Group_2957" data-name="Group 2957" transform="translate(0 0)">
      <path id="Path_427" data-name="Path 427" d="M780.373-417.494c0,.539,0,1.024,0,1.509a.679.679,0,0,0,.3.689.677.677,0,0,0,.767-.137c.333-.23.663-.464,1.012-.667a.446.446,0,0,1,.381,0c.377.224.735.48,1.1.727.213.145.468.257.669.074a1.014,1.014,0,0,0,.3-.607c.043-.5.014-1.016.014-1.584h.381q2.183,0,4.365,0a1.9,1.9,0,0,0,2.041-2.037q.008-9.3,0-18.608a1.909,1.909,0,0,0-2.069-2.046q-5.353,0-10.705-.005a1.034,1.034,0,0,0-.8.328q-2.107,2.135-4.237,4.247a1,1,0,0,0-.314.77q.008,7.638,0,15.275a1.91,1.91,0,0,0,2.07,2.077q2.148,0,4.3,0Zm4.544-1.2c0-.506.009-1.035,0-1.563a.867.867,0,0,1,.236-.651,3.323,3.323,0,0,0,.452-3.869,3.407,3.407,0,0,0-3.6-1.732,3.2,3.2,0,0,0-2.566,2.23,3.308,3.308,0,0,0,.7,3.4c.087.1.212.22.216.335.021.622.01,1.246.01,1.9-.14.007-.253.017-.365.017q-2.148,0-4.3,0c-.728,0-.978-.253-.978-.984q0-7.258,0-14.515c0-.121.013-.242.02-.35a.722.722,0,0,1,.11-.026c.832,0,1.663,0,2.495-.01a1.888,1.888,0,0,0,1.893-1.9c.008-.44,0-.88,0-1.32,0-.424,0-.849,0-1.305h.423q1.854,0,3.708,0,3.136,0,6.272,0c.644,0,.9.26.91.906,0,.116,0,.232,0,.347v13.057c0,1.736,0,3.473,0,5.209,0,.547-.238.872-.724.878-1.6.02-3.21.006-4.816,0C785-418.639,784.982-418.658,784.917-418.69Zm-2.26-6.738a2.265,2.265,0,0,1,2.25,2.256,2.278,2.278,0,0,1-2.277,2.272,2.278,2.278,0,0,1-2.249-2.263A2.26,2.26,0,0,1,782.657-425.428Zm-1.064,8.585-.05-.108v-2.893h2.194v3.041C783-417.636,782.3-417.663,781.593-416.843Zm-5.863-18.833,2.372-2.384c0,.541.019,1.139-.007,1.734a.618.618,0,0,1-.574.639C776.9-435.648,776.269-435.675,775.731-435.675Z" transform="translate(-773.58 440.191)" fill="#79838d" stroke="#79838d" stroke-width="0.1"/>
      <path id="Path_428" data-name="Path 428" d="M816.119-329.776q-2.39,0-4.779,0a1.709,1.709,0,0,0-.478.053.453.453,0,0,0-.348.53.99.99,0,0,0,.354.5c.1.079.287.06.435.06q4.849,0,9.7,0a1.531,1.531,0,0,0,.443-.053.454.454,0,0,0,.347-.53.947.947,0,0,0-.354-.5.861.861,0,0,0-.47-.061Q818.544-329.779,816.119-329.776Z" transform="translate(-807.089 339.989)" fill="#79838d" stroke="#79838d" stroke-width="0.1"/>
      <path id="Path_429" data-name="Path 429" d="M816.07-354.3h-4.815a2.636,2.636,0,0,0-.346.013.534.534,0,0,0-.5.534.556.556,0,0,0,.49.579,1.528,1.528,0,0,0,.242.009q4.919,0,9.838-.007a.883.883,0,0,0,.564-.18.621.621,0,0,0,.131-.525.785.785,0,0,0-.385-.386.994.994,0,0,0-.443-.036Q818.46-354.3,816.07-354.3Z" transform="translate(-807.005 362.249)" fill="#79838d" stroke="#79838d" stroke-width="0.1"/>
      <path id="Path_430" data-name="Path 430" d="M862.858-402.238c.854,0,1.707,0,2.561,0a1.535,1.535,0,0,0,.443-.054.454.454,0,0,0,.346-.531.992.992,0,0,0-.354-.5.769.769,0,0,0-.435-.062q-2.613-.006-5.225,0a1.351,1.351,0,0,0-.342.038.511.511,0,0,0-.4.535.5.5,0,0,0,.405.533,1.73,1.73,0,0,0,.411.039C861.128-402.236,861.993-402.238,862.858-402.238Z" transform="translate(-851.505 406.79)" fill="#79838d" stroke="#79838d" stroke-width="0.1"/>
      <path id="Path_431" data-name="Path 431" d="M862.87-377.653c.888,0,1.776,0,2.664,0,.447,0,.692-.2.7-.544.01-.362-.25-.585-.7-.586q-2.7,0-5.4,0c-.432,0-.68.212-.68.564s.238.562.678.565C861.048-377.65,861.959-377.653,862.87-377.653Z" transform="translate(-851.515 384.466)" fill="#79838d" stroke="#79838d" stroke-width="0.1"/>
    </g>
  </g>
</svg>
