<svg xmlns="http://www.w3.org/2000/svg" width="19.722" height="21.671" viewBox="0 0 19.722 21.671">
  <g id="Group_301" data-name="Group 301" transform="translate(0.2 0.2)">
    <g id="Group_267" data-name="Group 267">
      <g id="Path_74" data-name="Path 74" transform="translate(-481.658 -1731.62)" fill="#79838d">
        <path d="M 491.3600158691406 1752.990600585938 C 491.3455200195312 1752.990600585938 491.3309936523438 1752.990356445312 491.3164978027344 1752.990112304688 C 491.3060302734375 1752.990356445312 491.2915344238281 1752.990600585938 491.2769775390625 1752.990600585938 C 491.097900390625 1752.990600585938 490.9187316894531 1752.968017578125 490.7588195800781 1752.925537109375 C 488.0887145996094 1752.21240234375 485.7957153320312 1750.686767578125 484.1275939941406 1748.513793945312 C 482.4607543945312 1746.342407226562 481.5747375488281 1743.729370117188 481.5653686523438 1740.957275390625 C 481.5635070800781 1740.335327148438 481.5641479492188 1739.703369140625 481.5647583007812 1739.092163085938 C 481.5650634765625 1738.781372070312 481.5653686523438 1738.470581054688 481.5653686523438 1738.159790039062 C 481.5650939941406 1737.787475585938 481.566162109375 1737.4150390625 481.5672607421875 1737.04248046875 C 481.5697631835938 1736.197265625 481.5723266601562 1735.3232421875 481.5577697753906 1734.464477539062 C 481.549560546875 1733.961547851562 481.7587890625 1733.697631835938 482.2574462890625 1733.582153320312 C 483.7803344726562 1733.230346679688 485.3274536132812 1732.86572265625 486.8236389160156 1732.512939453125 C 488.152587890625 1732.19970703125 489.5267944335938 1731.875732421875 490.8795471191406 1731.561889648438 C 490.9990539550781 1731.533935546875 491.1275329589844 1731.519653320312 491.26123046875 1731.519653320312 C 491.2803344726562 1731.519653320312 491.2994384765625 1731.519897460938 491.3185119628906 1731.5205078125 C 491.3375854492188 1731.519897460938 491.356689453125 1731.519653320312 491.3758239746094 1731.519653320312 C 491.5094909667969 1731.519653320312 491.6379699707031 1731.533935546875 491.7576904296875 1731.561889648438 C 493.1084289550781 1731.875244140625 494.4808349609375 1732.198852539062 495.8080139160156 1732.51171875 C 497.3059692382812 1732.864868164062 498.8549499511719 1733.22998046875 500.3796081542969 1733.582153320312 C 500.8782043457031 1733.697631835938 501.08740234375 1733.961547851562 501.0792236328125 1734.46435546875 C 501.0646362304688 1735.324340820312 501.0671997070312 1736.199340820312 501.0697021484375 1737.045532226562 C 501.0707702636719 1737.417114257812 501.0718688964844 1737.78857421875 501.0715942382812 1738.159912109375 C 501.0715942382812 1738.470581054688 501.0718994140625 1738.781372070312 501.0722351074219 1739.092163085938 C 501.0728454589844 1739.703369140625 501.073486328125 1740.335327148438 501.0715942382812 1740.957153320312 C 501.0622253417969 1743.729370117188 500.1762084960938 1746.342407226562 498.5093994140625 1748.513793945312 C 496.84130859375 1750.686767578125 494.5483093261719 1752.21240234375 491.8783264160156 1752.925415039062 C 491.7182922363281 1752.968017578125 491.5390930175781 1752.990600585938 491.3600158691406 1752.990600585938 Z M 491.3175964355469 1751.76025390625 L 491.3185119628906 1751.76025390625 L 491.3194274902344 1751.76025390625 L 491.3318481445312 1751.76025390625 C 491.4812927246094 1751.76025390625 491.6439514160156 1751.736328125 491.8021850585938 1751.691040039062 C 496.5700988769531 1750.306518554688 499.8116760253906 1746.028198242188 499.8681335449219 1741.045043945312 C 499.8806457519531 1739.954345703125 499.8785400390625 1738.844970703125 499.8765258789062 1737.772094726562 C 499.8748474121094 1736.888061523438 499.8731384277344 1735.973876953125 499.8795776367188 1735.074829101562 C 499.8812561035156 1734.779052734375 499.8157043457031 1734.691650390625 499.5455932617188 1734.629638671875 C 497.9795532226562 1734.270385742188 496.3897705078125 1733.896484375 494.8523254394531 1733.534912109375 C 493.7916564941406 1733.285522460938 492.6949157714844 1733.027587890625 491.615478515625 1732.776733398438 C 491.5376281738281 1732.758178710938 491.4544982910156 1732.748901367188 491.3678894042969 1732.748901367188 C 491.3527221679688 1732.748901367188 491.3375244140625 1732.749145507812 491.3223266601562 1732.749755859375 L 491.3185119628906 1732.749877929688 L 491.314697265625 1732.749755859375 C 491.2994995117188 1732.749145507812 491.2843322753906 1732.748901367188 491.2691345214844 1732.748901367188 C 491.1825256347656 1732.748901367188 491.099365234375 1732.758178710938 491.0220031738281 1732.776611328125 C 489.9411010742188 1733.02783203125 488.8434143066406 1733.286010742188 487.7818298339844 1733.53564453125 C 486.2453308105469 1733.89697265625 484.6565246582031 1734.2705078125 483.0914611816406 1734.629638671875 C 482.8211975097656 1734.691650390625 482.7556457519531 1734.779052734375 482.7574157714844 1735.074951171875 C 482.7638244628906 1735.973510742188 482.7621154785156 1736.88720703125 482.7604064941406 1737.770751953125 C 482.7583923339844 1738.844116210938 482.7562866210938 1739.953857421875 482.7687683105469 1741.045043945312 C 482.8254089355469 1746.028198242188 486.0670471191406 1750.306518554688 490.8351745605469 1751.691040039062 C 490.9930725097656 1751.736328125 491.1557006835938 1751.76025390625 491.30517578125 1751.76025390625 L 491.3175964355469 1751.76025390625 Z" stroke="none"/>
        <path d="M 491.2611999511719 1731.61962890625 C 491.1387329101562 1731.61962890625 491.0161437988281 1731.632568359375 490.9021606445312 1731.659301757812 C 488.0264282226562 1732.326416015625 485.1556091308594 1733.015380859375 482.2799987792969 1733.679565429688 C 481.8284606933594 1733.7841796875 481.6502075195312 1734.000244140625 481.6577758789062 1734.462768554688 C 481.6786193847656 1735.694946289062 481.6643981933594 1736.927978515625 481.6653747558594 1738.159790039062 C 481.6653747558594 1739.09228515625 481.6625671386719 1740.0244140625 481.6653747558594 1740.956909179688 C 481.684326171875 1746.559326171875 485.3841552734375 1751.386474609375 490.7845458984375 1752.828857421875 C 490.9514465332031 1752.873168945312 491.1361694335938 1752.893188476562 491.3185119628906 1752.89013671875 C 491.5007019042969 1752.893432617188 491.685546875 1752.873168945312 491.8525085449219 1752.828857421875 C 497.2528381347656 1751.386474609375 500.95263671875 1746.559326171875 500.9715881347656 1740.956909179688 C 500.9744262695312 1740.0244140625 500.9715881347656 1739.09228515625 500.9715881347656 1738.159790039062 C 500.9725341796875 1736.927978515625 500.9583435058594 1735.694946289062 500.9792175292969 1734.462768554688 C 500.9867553710938 1734.000244140625 500.8085632324219 1733.7841796875 500.3571166992188 1733.679565429688 C 497.4813842773438 1733.015380859375 494.6105041503906 1732.326416015625 491.7348937988281 1731.659301757812 C 491.6030883789062 1731.628295898438 491.4600219726562 1731.6162109375 491.3185119628906 1731.62060546875 C 491.2994384765625 1731.619995117188 491.2803039550781 1731.61962890625 491.2611999511719 1731.61962890625 M 491.3185119628906 1732.649780273438 C 491.4279479980469 1732.646362304688 491.5366821289062 1732.655151367188 491.6381225585938 1732.679321289062 C 494.2822875976562 1733.2939453125 496.921875 1733.925048828125 499.5679321289062 1734.5322265625 C 499.9017944335938 1734.608764648438 499.9814147949219 1734.753051757812 499.9795837402344 1735.075561523438 C 499.9653015136719 1737.065307617188 499.9909362792969 1739.056030273438 499.9681091308594 1741.046142578125 C 499.9113464355469 1746.056762695312 496.6212158203125 1750.395751953125 491.8297424316406 1751.787109375 C 491.6712646484375 1751.83251953125 491.4909973144531 1751.860595703125 491.3185119628906 1751.860229492188 C 491.3140869140625 1751.860229492188 491.3096008300781 1751.8603515625 491.30517578125 1751.8603515625 C 491.1365966796875 1751.8603515625 490.961669921875 1751.831298828125 490.8072814941406 1751.787109375 C 486.015869140625 1750.395751953125 482.7257385253906 1746.056762695312 482.6687927246094 1741.046142578125 C 482.64599609375 1739.056030273438 482.671630859375 1737.065307617188 482.6574096679688 1735.075561523438 C 482.6554870605469 1734.753051757812 482.7351989746094 1734.608764648438 483.069091796875 1734.5322265625 C 485.7151184082031 1733.925048828125 488.3546142578125 1733.2939453125 490.9988403320312 1732.679321289062 C 491.1003723144531 1732.655151367188 491.2095947265625 1732.645629882812 491.3185119628906 1732.649780273438 M 491.2611999511719 1731.419677734375 C 491.2994079589844 1731.419677734375 491.337646484375 1731.419677734375 491.3758239746094 1731.419677734375 C 491.5172119140625 1731.419677734375 491.6533813476562 1731.434814453125 491.780517578125 1731.464599609375 C 493.1312866210938 1731.777954101562 494.5038146972656 1732.1015625 495.8311462402344 1732.414428710938 C 497.3289489746094 1732.767456054688 498.8777160644531 1733.132568359375 500.4021301269531 1733.484741210938 C 500.9485778808594 1733.611328125 501.1881713867188 1733.913940429688 501.17919921875 1734.466064453125 C 501.1646423339844 1735.325073242188 501.1672058105469 1736.199584960938 501.169677734375 1737.045288085938 C 501.1707763671875 1737.416870117188 501.171875 1737.788452148438 501.1716003417969 1738.159912109375 C 501.1716003417969 1738.470581054688 501.1719055175781 1738.78125 501.1722106933594 1739.092041015625 C 501.1728515625 1739.703369140625 501.1734924316406 1740.33544921875 501.1716003417969 1740.95751953125 C 501.1621398925781 1743.751831054688 500.2689819335938 1746.3857421875 498.5887145996094 1748.57470703125 C 496.9070739746094 1750.765380859375 494.5955810546875 1752.30322265625 491.9041137695312 1753.022094726562 C 491.7233581542969 1753.070190429688 491.5194091796875 1753.094360351562 491.3185119628906 1753.090209960938 C 491.1175537109375 1753.093505859375 490.9136657714844 1753.070190429688 490.7330932617188 1753.022094726562 C 488.0414428710938 1752.30322265625 485.7299194335938 1750.765380859375 484.0482788085938 1748.57470703125 C 482.3679809570312 1746.3857421875 481.4748229980469 1743.751831054688 481.4653625488281 1740.957641601562 C 481.4635009765625 1740.33544921875 481.4641418457031 1739.703369140625 481.4647521972656 1739.092041015625 C 481.4650573730469 1738.78125 481.4653625488281 1738.470581054688 481.4653625488281 1738.159790039062 C 481.465087890625 1737.787475585938 481.4661865234375 1737.414794921875 481.46728515625 1737.042236328125 C 481.4697570800781 1736.197509765625 481.4723205566406 1735.323974609375 481.4577941894531 1734.466186523438 C 481.4487609863281 1733.913940429688 481.6884460449219 1733.611328125 482.23486328125 1733.484741210938 C 483.7575988769531 1733.133056640625 485.3046264648438 1732.768310546875 486.8006896972656 1732.415649414062 C 488.1297302246094 1732.102294921875 489.5039978027344 1731.7783203125 490.8569641113281 1731.464477539062 C 490.9836730957031 1731.434814453125 491.1198120117188 1731.419677734375 491.2611999511719 1731.419677734375 Z M 491.3185119628906 1732.849975585938 L 491.3108825683594 1732.849609375 C 491.2180480957031 1732.845825195312 491.1272277832031 1732.854370117188 491.045166015625 1732.873901367188 C 489.9638671875 1733.125244140625 488.8662414550781 1733.38330078125 487.8047180175781 1733.632934570312 C 486.2680969238281 1733.994262695312 484.6791381835938 1734.367919921875 483.1138305664062 1734.727172851562 C 482.8894653320312 1734.778564453125 482.8559265136719 1734.823974609375 482.857421875 1735.074340820312 C 482.8638305664062 1735.973266601562 482.8620910644531 1736.887084960938 482.8604125976562 1737.77099609375 C 482.8583984375 1738.843872070312 482.8562927246094 1739.953491210938 482.8687744140625 1741.043823242188 C 482.9248962402344 1745.982666015625 486.1375732421875 1750.222778320312 490.863037109375 1751.595092773438 C 491.0096435546875 1751.637084960938 491.1669006347656 1751.660278320312 491.30517578125 1751.660278320312 L 491.3318481445312 1751.660278320312 C 491.4701232910156 1751.660278320312 491.6273498535156 1751.637084960938 491.774658203125 1751.594848632812 C 496.4995727539062 1750.222778320312 499.712158203125 1745.982666015625 499.7681274414062 1741.043823242188 C 499.7806091308594 1739.953979492188 499.7785339355469 1738.844970703125 499.7765197753906 1737.7724609375 C 499.7748413085938 1736.88818359375 499.7731323242188 1735.973754882812 499.7796020507812 1735.074096679688 C 499.781005859375 1734.823974609375 499.7474670410156 1734.778564453125 499.5232543945312 1734.727172851562 C 497.9569396972656 1734.367797851562 496.3670043945312 1733.993896484375 494.8294372558594 1733.63232421875 C 493.7688293457031 1733.382934570312 492.6721496582031 1733.125 491.5928344726562 1732.874145507812 C 491.5095520019531 1732.854248046875 491.4189453125 1732.846069335938 491.3261413574219 1732.849609375 L 491.3185119628906 1732.849975585938 Z" stroke="none" fill="#79838d"/>
      </g>
      <path id="Path_75" data-name="Path 75" d="M540.789,1774.914c0-.547-.155-.7-.708-.7-.486-.006-.971,0-1.5,0a3.025,3.025,0,0,0-.975-2.683,2.636,2.636,0,0,0-1.739-.646h-.146a2.636,2.636,0,0,0-1.739.646,3.024,3.024,0,0,0-.975,2.683c-.532,0-1.018,0-1.5,0-.554.005-.707.155-.708.7q0,3.461,0,6.922c0,.52.156.678.682.679q2.158,0,4.316,0t4.316,0c.525,0,.682-.16.682-.679Q540.794,1778.375,540.789,1774.914Zm-5.965-2.75a1.785,1.785,0,0,1,1.931,0,1.843,1.843,0,0,1,.77,2.011h-3.471A1.843,1.843,0,0,1,534.824,1772.163Zm4.929,9.3h-7.927v-6.2h7.927Z" transform="translate(-526.129 -1767.156)" fill="#79838d" stroke="#79838d" stroke-width="0.2"/>
      <path id="Path_76" data-name="Path 76" d="M570.194,1827.911a1.287,1.287,0,0,0-.521,1.328c0,.079.026.188-.014.231-.148.155-.318.4-.481.4a.186.186,0,0,1-.052-.006.185.185,0,0,1-.052.006c-.163,0-.333-.244-.481-.4-.041-.043-.018-.152-.014-.231a1.288,1.288,0,0,0-.521-1.328,1.3,1.3,0,0,1-.218-1.723,1.527,1.527,0,0,1,2.572,0A1.3,1.3,0,0,1,570.194,1827.911Z" transform="translate(-559.465 -1816.582)" fill="#79838d" stroke="#79838d" stroke-width="0.2"/>
    </g>
  </g>
</svg>
