<svg xmlns="http://www.w3.org/2000/svg" width="23.492" height="22.499" viewBox="0 0 23.492 22.499">
  <g id="Group_3137" data-name="Group 3137" transform="translate(3443.833 -1430.657)">
    <g id="Group_1999" data-name="Group 1999" transform="translate(-3438.794 1433.512)">
      <g id="Group_1998" data-name="Group 1998" transform="translate(0 0)">
        <g id="Group_1997" data-name="Group 1997">
          <g id="Group_1996" data-name="Group 1996">
            <path id="Path_54" data-name="Path 54" d="M754.49,673.268a2.325,2.325,0,0,0-.115-3.354,2.364,2.364,0,0,0-3.133-.022,2.334,2.334,0,0,0-.11,3.408c-.03.017-.058.033-.086.048a4.167,4.167,0,0,0-2.169,2.477c-.018.053-.043.1-.063.157a.479.479,0,1,0,.912.284,2.961,2.961,0,0,1,.927-1.541,3.25,3.25,0,0,1,5.264,1.3,2.274,2.274,0,0,1,.066.238.48.48,0,0,0,.589.354.462.462,0,0,0,.331-.6,7.631,7.631,0,0,0-.432-.977,4.07,4.07,0,0,0-1.86-1.714Zm-.219-1.582a1.455,1.455,0,1,1-1.453-1.458A1.453,1.453,0,0,1,754.271,671.686Z" transform="translate(-748.782 -669.309)" fill="#1a3253" stroke="#1a3253" stroke-width="0.2"/>
            <path id="Path_55" data-name="Path 55" d="M1053.066,874.912h-1.634a.391.391,0,0,0-.45.446c0,.041,0,.083,0,.124a.37.37,0,0,0,.376.395q1.707.009,3.415,0a.381.381,0,0,0,.38-.394c.03-.435-.14-.586-.554-.575C1054.089,874.923,1053.577,874.912,1053.066,874.912Z" transform="translate(-1041.893 -868.725)" fill="#1a3253" stroke="#1a3253" stroke-width="0.2"/>
            <path id="Path_56" data-name="Path 56" d="M1053.093,782.863h-1.578c-.38,0-.5.125-.5.508a.736.736,0,0,0,.019.2.381.381,0,0,0,.383.26c.244,0,.489,0,.733,0h2.558c.341,0,.476-.138.477-.48s-.132-.49-.489-.49Z" transform="translate(-1041.924 -779.448)" fill="#1a3253" stroke="#1a3253" stroke-width="0.2"/>
            <path id="Path_57" data-name="Path 57" d="M1053.065,691.069h1.633a.393.393,0,0,0,.449-.449c0-.053,0-.105,0-.158a.37.37,0,0,0-.314-.348.662.662,0,0,0-.112-.009c-1.1,0-2.209,0-3.312,0a.635.635,0,0,0-.284.084.3.3,0,0,0-.145.266c0,.068,0,.135,0,.2a.378.378,0,0,0,.409.407C1051.946,691.07,1052.505,691.069,1053.065,691.069Z" transform="translate(-1041.889 -689.479)" fill="#1a3253" stroke="#1a3253" stroke-width="0.2"/>
          </g>
        </g>
      </g>
    </g>
    <path id="Path_133" data-name="Path 133" d="M105.5,171.54l6.915,0a1.76,1.76,0,0,1,1.838,1.837c0,2.944,0,6.09,0,9.9a1.771,1.771,0,0,1-1.825,1.829h-3.309c0-.074,0-.146,0-.218a1.657,1.657,0,0,0-.614-1.346,1.337,1.337,0,0,0-.841-.3,1.47,1.47,0,0,0-1.412,1.239,4.11,4.11,0,0,0-.055.608h-4.751c0-.093,0-.187,0-.281a1.572,1.572,0,0,0-1.146-1.528,1.351,1.351,0,0,0-.3-.035,1.492,1.492,0,0,0-1.441,1.4c-.013.156-.014.31-.011.461H95.261a1.771,1.771,0,0,1-1.866-1.867c0-3.559,0-6.772,0-9.822a1.763,1.763,0,0,1,1.331-1.816,2.3,2.3,0,0,1,.55-.059c3.342,0,6.783,0,10.228,0m0-.421q-5.114,0-10.228,0a2.726,2.726,0,0,0-.651.072,2.178,2.178,0,0,0-1.651,2.224q-.006,4.911,0,9.823a2.192,2.192,0,0,0,2.287,2.288h3.45c.075,0,.151-.012.262-.02,0-.288-.018-.559,0-.828A1.066,1.066,0,0,1,100,183.67a.929.929,0,0,1,.21.024,1.16,1.16,0,0,1,.82,1.131c.007.225,0,.451,0,.689h5.58a8.173,8.173,0,0,1,.065-.953,1.044,1.044,0,0,1,1-.894.918.918,0,0,1,.578.207,1.247,1.247,0,0,1,.455,1.021c0,.2,0,.4,0,.635h3.732a2.19,2.19,0,0,0,2.245-2.25q0-4.951,0-9.9a2.177,2.177,0,0,0-2.259-2.258l-6.915,0Z" transform="translate(-3535.895 1259.888)" fill="#1a3253" stroke="#1a3253" stroke-width="0.7"/>
    <path id="Path_134" data-name="Path 134" d="M86.573,477.692l1.187,0H88.5c0,.052,0,.105.011.159l.008.076a2.62,2.62,0,0,0,.143.7,1.384,1.384,0,0,0,1.3.906,1.453,1.453,0,0,0,.153-.008,1.477,1.477,0,0,0,1.259-1.235,4.854,4.854,0,0,0,.051-.579h4.754c0,.056,0,.113,0,.17a2.475,2.475,0,0,0,.056.47,1.474,1.474,0,0,0,1.4,1.183l.082,0a1.505,1.505,0,0,0,1.352-1.38,4.519,4.519,0,0,0,.012-.453l.817,0c1.023,0,2.08,0,3.116.037a3.176,3.176,0,0,1,.9.229l.138.049c.089.031.179.081.208.308.106.832.229,1.674.348,2.489q.076.517.15,1.033c.029.2.009.25.006.255s-.03.048-.217.137a3.375,3.375,0,0,1-1.484.283H84.6a3.711,3.711,0,0,1-1.43-.231.962.962,0,0,1-.321-.195.2.2,0,0,1-.032-.064c.083-.627.175-1.264.264-1.88s.178-1.233.26-1.852a.353.353,0,0,1,.235-.3,3.059,3.059,0,0,1,1.416-.3c.467,0,.969-.007,1.58-.007m0-.421q-.792,0-1.584.007a3.5,3.5,0,0,0-1.606.345.77.77,0,0,0-.458.622c-.166,1.251-.36,2.5-.526,3.751a.548.548,0,0,0,.149.393,1.4,1.4,0,0,0,.461.291,4.05,4.05,0,0,0,1.593.264h0q4.384,0,8.768,0h9.689a3.814,3.814,0,0,0,1.664-.324.639.639,0,0,0,.447-.832c-.168-1.172-.348-2.342-.5-3.516a.721.721,0,0,0-.486-.653,4.043,4.043,0,0,0-1.16-.3c-1.412-.044-2.825-.033-4.238-.041h0a.8.8,0,0,0-.136.032c0,.269.019.541,0,.808a1.076,1.076,0,0,1-.957,1l-.057,0a1.047,1.047,0,0,1-.99-.859,2.07,2.07,0,0,1-.045-.39c-.007-.183,0-.367,0-.574h-5.58c-.02.323-.015.632-.064.933a1.052,1.052,0,0,1-.888.884,1.037,1.037,0,0,1-.108.006.968.968,0,0,1-.908-.64,2.605,2.605,0,0,1-.124-.664,4.654,4.654,0,0,1,0-.513,1.365,1.365,0,0,0-.145-.02c-.736,0-1.472,0-2.208,0Z" transform="translate(-3525.878 969.862)" fill="#1a3253" stroke="#1a3253" stroke-width="0.7"/>
  </g>
</svg>
