<svg xmlns="http://www.w3.org/2000/svg" width="25.249" height="22.901" viewBox="0 0 25.249 22.901">
  <g id="Group_245" data-name="Group 245" transform="translate(-918.39 -184.61)">
    <g id="Group_244" data-name="Group 244" transform="translate(927.939 189.765)">
      <path id="Path_48" data-name="Path 48" d="M970.578,212.773v-1.16h1.642v1.16a2.362,2.362,0,0,1,2.153,2.559v.329h-1.9v-.434c0-.748-.365-1.033-1-1.033s-1,.284-1,1.033.365,1.272,1.715,2.155c1.642,1.078,2.207,1.9,2.207,3.1a2.39,2.39,0,0,1-2.171,2.574V224.2h-1.642v-1.145a2.377,2.377,0,0,1-2.171-2.574v-.719h1.9v.823c0,.748.4,1.018,1.04,1.018s1.04-.269,1.04-1.018-.365-1.287-1.715-2.155c-1.642-1.063-2.207-1.9-2.207-3.1A2.364,2.364,0,0,1,970.578,212.773Z" transform="translate(-968.407 -211.613)"/>
    </g>
    <path id="Path_49" data-name="Path 49" d="M950.88,191.027l-1.153,2.8-1.153,2.807-2.089-2.2-2.087-2.2,2.312-.431a9.541,9.541,0,0,0-17.33.542H927.34a11.449,11.449,0,0,1,21.308-.9Z" transform="translate(-7.241 0)"/>
    <path id="Path_50" data-name="Path 50" d="M941.762,247.175a11.448,11.448,0,0,1-21.165,1.218l-2.207.512,1.031-2.852,1.031-2.852,2.182,2.108,2.18,2.108-2.3.535a9.54,9.54,0,0,0,17.209-.775Z" transform="translate(0 -47.404)"/>
  </g>
</svg>
