<svg xmlns="http://www.w3.org/2000/svg" width="24.264" height="23.272" viewBox="0 0 24.264 23.272">
  <g id="Group_7394" data-name="Group 7394" transform="translate(0.15 0.159)">
    <g id="Group_277" data-name="Group 277" transform="translate(0)">
      <g id="Group_255" data-name="Group 255">
        <path id="Path_58" data-name="Path 58" d="M633,344.569c.02-.192.038-.385.059-.577a8.532,8.532,0,0,1,1.2-3.509,9.841,9.841,0,0,1,4.585-3.921l.28-.122-.1-.108a5.934,5.934,0,0,1,3.116-10.018,5.931,5.931,0,0,1,2.412,11.611,5.758,5.758,0,0,1-3.813-.393.352.352,0,0,0-.274-.015,9.072,9.072,0,0,0-3.54,1.984,7.414,7.414,0,0,0-2.356,4.244,9.17,9.17,0,0,0-.109,1.678.72.72,0,0,1-.514.7.733.733,0,0,1-.917-.5c-.008-.026-.017-.051-.026-.077Zm10.22-7.948a4.472,4.472,0,1,0-4.476-4.463A4.491,4.491,0,0,0,643.22,336.621Z" transform="translate(-633 -326.211)" fill="#79838d" stroke="#79838d" stroke-width="0.3"/>
      </g>
    </g>
    <g id="Group_278" data-name="Group 278" transform="translate(12.166 11.166)">
      <g id="Group_263" data-name="Group 263">
        <path id="Path_72" data-name="Path 72" d="M257.441,1804.768c.213.115.42.212.612.333a.337.337,0,0,0,.383.017c.276-.139.574-.233.852-.366a.435.435,0,0,0,.229-.237c.21-.954.338-.755,1.019-.77.293-.007.586.011.879,0s.5.1.522.374c.044.5.369.637.771.817a.992.992,0,0,0,1.191-.046.383.383,0,0,1,.547.083c.306.321.616.64.942.94a.438.438,0,0,1,.1.636c-.306.376-.2.692-.039,1.1.182.447.357.788.892.835.227.02.325.218.322.453,0,.435,0,.87,0,1.3,0,.341-.082.5-.415.545a.748.748,0,0,0-.724.684.19.19,0,0,1-.027.074.878.878,0,0,0,.017,1.184.4.4,0,0,1-.1.569c-.322.306-.638.618-.94.942a.424.424,0,0,1-.616.083.941.941,0,0,0-1.1-.046c-.446.183-.787.354-.837.889-.021.222-.212.329-.451.326-.453-.006-.905-.007-1.358,0-.261,0-.454-.107-.477-.361-.044-.489-.343-.653-.761-.825-.436-.179-.786-.3-1.194.032a.4.4,0,0,1-.57-.088q-.465-.494-.96-.96a.407.407,0,0,1-.073-.593.924.924,0,0,0,.047-1.1c-.188-.432-.334-.8-.883-.843-.235-.018-.336-.223-.33-.473.01-.443.011-.888,0-1.331-.007-.278.114-.464.378-.49a.8.8,0,0,0,.775-.734.194.194,0,0,1,.029-.074.829.829,0,0,0-.015-1.114.423.423,0,0,1,.093-.614c.331-.308.64-.64.965-.955A2.013,2.013,0,0,1,257.441,1804.768Zm2.645,10.191c.358,0,.659,0,.96,0,.51-.005.387.067.5-.407a.738.738,0,0,1,.54-.584,8.307,8.307,0,0,0,.952-.4.574.574,0,0,1,.6.019c.147.094.3.177.432.254l.936-.954a2.543,2.543,0,0,0-.163-.275.726.726,0,0,1-.031-.885,4.654,4.654,0,0,0,.359-.882.614.614,0,0,1,.472-.45l.482-.12v-1.295a.384.384,0,0,0-.051-.033.334.334,0,0,0-.1-.036.9.9,0,0,1-.9-.838.622.622,0,0,0-.086-.222c-.327-.521-.48-1.035.046-1.5l-.962-.966a3.128,3.128,0,0,0-.3.177.717.717,0,0,1-.861.036,5.431,5.431,0,0,0-.906-.371.6.6,0,0,1-.425-.431c-.045-.17-.088-.341-.136-.528h-.914c-.409,0-.424,0-.5.406a.691.691,0,0,1-.562.591,1.663,1.663,0,0,0-.543.207,1.036,1.036,0,0,1-1.4-.072.048.048,0,0,0-.033,0l-.932.934c.057.1.112.209.184.309a.71.71,0,0,1,.03.839,5.444,5.444,0,0,0-.371.906.622.622,0,0,1-.473.45,2.3,2.3,0,0,0-.359.092.229.229,0,0,0-.122.162c-.011.389-.006.779-.006,1.178.149.041.282.089.42.114a.665.665,0,0,1,.558.527,6.1,6.1,0,0,0,.393.925.623.623,0,0,1-.007.653c-.087.142-.171.286-.248.417l.935.945a1.016,1.016,0,0,0,.154-.09.857.857,0,0,1,1.16-.049.8.8,0,0,0,.289.131C259.689,1813.963,260.122,1814.234,260.086,1814.959Z" transform="translate(-254.915 -1803.737)" fill="#79838d" stroke="#79838d" stroke-width="0.4"/>
        <path id="Path_73" data-name="Path 73" d="M427.665,1974.182a2.662,2.662,0,1,1-2.66-2.675A2.651,2.651,0,0,1,427.665,1974.182Zm-2.665,2.13a2.143,2.143,0,1,0-2.139-2.187A2.164,2.164,0,0,0,425,1976.313Z" transform="translate(-419.133 -1968.293)" fill="#79838d" stroke="#79838d" stroke-width="0.4"/>
      </g>
    </g>
  </g>
</svg>
