<svg xmlns="http://www.w3.org/2000/svg" width="22" height="19" viewBox="0 0 22 19">
  <g id="Group_7389" data-name="Group 7389" transform="translate(-7726 118.5)">
    <g id="Group_7375" data-name="Group 7375" transform="translate(11483 -9608.5)">
      <g id="_9" data-name="9" transform="translate(-3755 9494)">
        <g id="Rectangle_1218" data-name="Rectangle 1218" transform="translate(-2 -1)" fill="none" stroke="#79838d" stroke-linecap="square" stroke-width="1">
          <rect width="22" height="16" rx="2" stroke="none"/>
          <rect x="0.5" y="0.5" width="21" height="15" rx="1.5" fill="none"/>
        </g>
        <path id="Path_8823" data-name="Path 8823" d="M293.148,292.029c.952,0,1.364.237,1.364.745,0,.381-.079.889-.19,1.84-.317,2.618-.523,2.5-.761,5.383-.111.174-.761.174-.857,0-.222-2.887-.413-2.766-.761-5.383-.111-.951-.191-1.459-.191-1.84,0-.507.428-.745,1.364-.745Zm1.327,10.031a1.343,1.343,0,1,1-1.343-1.342A1.343,1.343,0,0,1,294.475,302.06Z" transform="translate(-284.132 -290.716)" fill="#79838d"/>
      </g>
      <g id="Rectangle_1219" data-name="Rectangle 1219" transform="translate(-3751 9490)" fill="none" stroke="#79838d" stroke-width="1">
        <rect width="10" height="4" rx="1" stroke="none"/>
        <rect x="0.5" y="0.5" width="9" height="3" rx="0.5" fill="none"/>
      </g>
    </g>
  </g>
</svg>
