<svg xmlns="http://www.w3.org/2000/svg" width="19.625" height="22.314" viewBox="0 0 19.625 22.314">
  <g id="Group_7988" data-name="Group 7988" transform="translate(0.15 0.15)">
    <path id="Path_432" data-name="Path 432" d="M19.325,2.391A2.391,2.391,0,0,0,16.934,0H2.391A2.391,2.391,0,0,0,0,2.391V19.624a2.391,2.391,0,0,0,2.391,2.391H16.934a2.391,2.391,0,0,0,2.391-2.391ZM.8,19.627V2.388A1.593,1.593,0,0,1,2.391.8h.6V21.217h-.6A1.593,1.593,0,0,1,.8,19.627Zm17.731,0a1.593,1.593,0,0,1-1.594,1.591H3.785V.8H16.934a1.593,1.593,0,0,1,1.594,1.591Z" fill="#79838d" stroke="#79838d" stroke-width="0.3"/>
    <path id="Path_433" data-name="Path 433" d="M119.957,58.4a.4.4,0,0,0-.4-.4H109.4a.4.4,0,0,0-.4.4V70.8a.4.4,0,0,0,.4.4h10.16a.4.4,0,0,0,.4-.4Zm-10.16.4h9.364V70.352H109.8Z" transform="translate(-103.571 -55.111)" fill="#79838d" stroke="#79838d" stroke-width="0.3"/>
    <path id="Path_434" data-name="Path 434" d="M119.57,367H109.41a.4.4,0,0,0,0,.8H119.57a.4.4,0,1,0,0-.8Z" transform="translate(-103.583 -348.721)" fill="#79838d" stroke="#79838d" stroke-width="0.3"/>
    <path id="Path_435" data-name="Path 435" d="M174.777,136.392l-4.184-2.341a.4.4,0,0,0-.593.348v4.682a.4.4,0,0,0,.593.348l4.184-2.341a.4.4,0,0,0,0-.7Z" transform="translate(-161.533 -127.327)" fill="#79838d" stroke="#79838d" stroke-width="0.3"/>
  </g>
</svg>
