<svg xmlns="http://www.w3.org/2000/svg" width="26" height="21" viewBox="0 0 26 21">
  <g id="Group_7401" data-name="Group 7401" transform="translate(-7713 -262.799)">
    <g id="Rectangle_1229" data-name="Rectangle 1229" transform="translate(7713 262.799)" fill="none" stroke="#1a3253" stroke-width="1">
      <rect width="24" height="21" rx="4" stroke="none"/>
      <rect x="0.5" y="0.5" width="23" height="20" rx="3.5" fill="none"/>
    </g>
    <g id="Group_7402" data-name="Group 7402" transform="translate(7728.871 269.702)">
      <g id="Rectangle_1230" data-name="Rectangle 1230" transform="translate(0.129 0.097)" fill="#fff" stroke="#1a3253" stroke-width="1">
        <path d="M3.5,0H10a0,0,0,0,1,0,0V7a0,0,0,0,1,0,0H3.5A3.5,3.5,0,0,1,0,3.5v0A3.5,3.5,0,0,1,3.5,0Z" stroke="none"/>
        <path d="M3.5.5h6a0,0,0,0,1,0,0v6a0,0,0,0,1,0,0h-6a3,3,0,0,1-3-3v0A3,3,0,0,1,3.5.5Z" fill="none"/>
      </g>
      <circle id="Ellipse_174" data-name="Ellipse 174" cx="1.5" cy="1.5" r="1.5" transform="translate(3.129 2.097)" fill="#1a3253"/>
    </g>
  </g>
</svg>
