<svg xmlns="http://www.w3.org/2000/svg" width="22.001" height="21.939" viewBox="0 0 22.001 21.939">
  <g id="account-management-8" transform="translate(0 -1.5)">
    <path id="Path_8821" data-name="Path 8821" d="M8.813,15.24H1.364V2.866h19.26v8.747L22,13.083V1.5H0V16.589H8.545Zm0,0" fill="#79838d"/>
    <path id="Path_8822" data-name="Path 8822" d="M152.369,147.886a.072.072,0,0,0-.071-.071l-1.914-.079a4.1,4.1,0,0,0-.417-.993l1.287-1.418a.071.071,0,0,0,0-.1l-.683-.709-.681-.636a.071.071,0,0,0-.1,0l-1.4,1.308a4.107,4.107,0,0,0-.99-.4l-.105-1.914a.072.072,0,0,0-.073-.071l-.982-.013-.93.037a.072.072,0,0,0-.071.073l-.054,1.917a4.2,4.2,0,0,0-.894.374l-1.4-1.306a.068.068,0,0,0-.1,0l-.715.675-.651.677a.068.068,0,0,0,0,.1l1.291,1.416a4.316,4.316,0,0,0-.413.984l-1.914.079a.072.072,0,0,0-.071.071l-.024.982.024.935a.072.072,0,0,0,.071.071l1.914.077a4.1,4.1,0,0,0,.417.993l-1.289,1.418a.071.071,0,0,0,0,.1l.647.673.718.67a.071.071,0,0,0,.1,0l1.4-1.308a4.123,4.123,0,0,0,.993.4l.1,1.914a.072.072,0,0,0,.073.071l.935.013.982-.037a.072.072,0,0,0,.071-.073l.054-1.914a4.267,4.267,0,0,0,.894-.374l1.4,1.306a.068.068,0,0,0,.1,0l.681-.636.681-.709a.068.068,0,0,0,0-.1l-1.291-1.416a4.269,4.269,0,0,0,.413-.988l1.914-.077a.072.072,0,0,0,.071-.071l.024-.935Zm-6.029,3.163a2.2,2.2,0,1,1,2.2-2.2A2.2,2.2,0,0,1,146.341,151.049Zm0,0" transform="translate(-130.424 -131.456)" fill="#79838d"/>
    <g id="Group_7396" data-name="Group 7396" transform="translate(2.576 4.048)">
      <path id="Path_54" data-name="Path 54" d="M754.96,673.594a2.517,2.517,0,0,0-.124-3.63,2.559,2.559,0,0,0-3.391-.024,2.526,2.526,0,0,0-.119,3.689c-.033.018-.062.036-.094.052a4.51,4.51,0,0,0-2.348,2.681c-.02.058-.047.113-.068.17a.518.518,0,1,0,.987.308,3.2,3.2,0,0,1,1-1.668,3.518,3.518,0,0,1,5.7,1.406,2.449,2.449,0,0,1,.071.258.519.519,0,0,0,.638.383.5.5,0,0,0,.358-.647,8.244,8.244,0,0,0-.468-1.058,4.407,4.407,0,0,0-2.014-1.855Zm-.237-1.712a1.575,1.575,0,1,1-1.573-1.578A1.572,1.572,0,0,1,754.724,671.882Z" transform="translate(-748.782 -669.31)" fill="#79838d"/>
      <path id="Path_55" data-name="Path 55" d="M1054.288,874.912H1051.7c-.489,0-.713.123-.714.389,0,.036,0,.072,0,.108.006.2.233.343.6.344q2.708.007,5.416,0c.362,0,.579-.146.6-.343.047-.378-.223-.51-.879-.5C1055.909,874.921,1055.1,874.912,1054.288,874.912Z" transform="translate(-1041.05 -870.069)" fill="#79838d"/>
      <path id="Path_56" data-name="Path 56" d="M1054.312,782.863h-2.5c-.6,0-.8.109-.8.442a.373.373,0,0,0,.03.175.7.7,0,0,0,.607.226c.387,0,.775,0,1.162,0h4.057c.541,0,.755-.12.756-.418s-.21-.426-.775-.426Z" transform="translate(-1041.079 -780.434)" fill="#79838d"/>
      <path id="Path_57" data-name="Path 57" d="M1054.288,690.944h2.59c.483,0,.711-.126.711-.391a.974.974,0,0,0,0-.137c-.021-.157-.215-.275-.5-.3-.058-.006-.119-.008-.178-.008q-2.626,0-5.252,0a1.666,1.666,0,0,0-.45.074c-.153.045-.224.133-.23.231,0,.059,0,.118,0,.177,0,.22.244.353.649.354Q1052.957,690.946,1054.288,690.944Z" transform="translate(-1041.045 -690.105)" fill="#79838d"/>
    </g>
  </g>
</svg>
