<svg xmlns="http://www.w3.org/2000/svg" width="38" height="37" viewBox="0 0 38 37">
  <g id="Group_2206" data-name="Group 2206" transform="translate(0.153 -0.102)">
    <g id="Group_2205" data-name="Group 2205" transform="translate(7.839 5.225)">
      <g id="Group_2204" data-name="Group 2204" transform="translate(0)">
        <path id="Path_222" data-name="Path 222" d="M1638.526,242.194v-.425q0-4.092,0-8.183a4.119,4.119,0,0,1,.077-.947,2.177,2.177,0,0,1,3.2-1.515,2.675,2.675,0,0,1,1.113-2.158,1.979,1.979,0,0,1,1.386-.308c1.172.133,1.753,1.025,1.925,2.979.053,0,.119.02.16,0a2.127,2.127,0,0,1,3.07,1.708,18.278,18.278,0,0,1,.079,1.9c0,.088.016.176.019.211a5.57,5.57,0,0,1,1.289-.18,2.237,2.237,0,0,1,1.971,2.2c.023,2.773.076,5.548-.014,8.318a8.792,8.792,0,0,1-6.465,7.812,9.126,9.126,0,0,1-11.257-5.836c-.309-.989-.376-2.053-.665-3.05-.361-1.246-.83-2.46-1.268-3.683a1.454,1.454,0,0,1,.237-1.608,1.562,1.562,0,0,1,1.727-.506,4.048,4.048,0,0,1,1.493.893C1637.3,240.54,1637.876,241.377,1638.526,242.194Zm1.061-3.046v4.819c0,.364,0,.727,0,1.091,0,.316-.093.574-.459.62s-.521-.175-.62-.473c-.019-.057-.026-.118-.045-.176a11.453,11.453,0,0,0-2.169-4,6.406,6.406,0,0,0-1.17-.987.7.7,0,0,0-.887.058c-.289.24-.1.5-.017.747.458,1.391.958,2.768,1.373,4.172.273.923.319,1.921.65,2.818a8.071,8.071,0,0,0,9.251,4.891,7.908,7.908,0,0,0,6.279-7.88c-.07-2.3-.013-4.606-.013-6.909,0-.136.006-.273-.006-.409a1.286,1.286,0,0,0-1.089-1.215,1.264,1.264,0,0,0-1.116,1.229c-.012.166-.009.333-.009.5q0,1.818,0,3.637c0,.371-.1.671-.535.7-.353.024-.527-.209-.536-.678,0-.106,0-.212,0-.318,0-2.44.01-4.879-.011-7.319a2.275,2.275,0,0,0-.247-1.038.95.95,0,0,0-1.741-.007,2.383,2.383,0,0,0-.255,1.082c-.023,2.182-.014,4.364-.008,6.546,0,.355-.128.593-.5.635-.322.038-.548-.216-.574-.617-.008-.121,0-.242,0-.363q0-4.455,0-8.91a4.591,4.591,0,0,0-.019-.59,1.229,1.229,0,0,0-1-1.085,1.085,1.085,0,0,0-1.114.878,2.351,2.351,0,0,0-.084.669q-.008,4.569,0,9.137a2.221,2.221,0,0,1-.009.409c-.057.306-.261.537-.561.454-.195-.053-.353-.3-.487-.49-.057-.081-.012-.236-.012-.357,0-2.318.012-4.637-.013-6.955a2.185,2.185,0,0,0-.294-1.065.921.921,0,0,0-1.637,0,2.434,2.434,0,0,0-.292,1.158C1639.571,235.42,1639.587,237.284,1639.587,239.148Z" transform="translate(-1633.01 -228.641)" fill="#285078" stroke="#285078" stroke-width="0.3"/>
      </g>
    </g>
    <g id="Group_2200" data-name="Group 2200" transform="translate(0 0)">
      <g id="Ellipse_18" data-name="Ellipse 18" transform="translate(-0.153 0.102)" fill="none" stroke="#285078" stroke-width="1.5">
        <ellipse cx="19" cy="18.5" rx="19" ry="18.5" stroke="none"/>
        <ellipse cx="19" cy="18.5" rx="18.25" ry="17.75" fill="none"/>
      </g>
      <g id="Ellipse_38" data-name="Ellipse 38" transform="translate(-0.153 0.102)" fill="none" stroke="#285078" stroke-width="1.5">
        <ellipse cx="19" cy="18.5" rx="19" ry="18.5" stroke="none"/>
        <ellipse cx="19" cy="18.5" rx="18.25" ry="17.75" fill="none"/>
      </g>
    </g>
  </g>
</svg>
