<svg xmlns="http://www.w3.org/2000/svg" width="21.522" height="20.507" viewBox="0 0 21.522 20.507">
  <g id="Group_242" data-name="Group 242" transform="translate(0.103 0.103)">
    <path id="Path_44" data-name="Path 44" d="M830.869-109.347v-.161q0-1.817,0-3.635a.237.237,0,0,0-.11-.219,7.6,7.6,0,0,1-2.709-3.4,6.816,6.816,0,0,1,.781-6.636,8.14,8.14,0,0,1,4.121-3.126,9.684,9.684,0,0,1,8.6.823,7.475,7.475,0,0,1,3.274,3.871,6.815,6.815,0,0,1-1.024,6.78,8.6,8.6,0,0,1-4.822,3.15,9.925,9.925,0,0,1-4.1.213.359.359,0,0,0-.221.045q-1.822,1.1-3.639,2.212C830.973-109.4,830.931-109.381,830.869-109.347Zm1.064-1.971c.055-.03.093-.05.13-.072.79-.476,1.58-.955,2.373-1.427a.343.343,0,0,1,.221-.039,8.889,8.889,0,0,0,3.882-.08,7.711,7.711,0,0,0,4.314-2.688,5.873,5.873,0,0,0,.6-6.558,6.987,6.987,0,0,0-3.192-2.973,8.688,8.688,0,0,0-6.185-.564,7.429,7.429,0,0,0-4.034,2.559,5.758,5.758,0,0,0-.972,5.952,6.605,6.605,0,0,0,2.773,3.24.226.226,0,0,1,.122.223c-.014.754-.022,1.509-.031,2.263C831.933-111.434,831.933-111.386,831.933-111.318Z" transform="translate(-827.528 127.161)" fill="#fff" stroke="#fff" stroke-width="0.2"/>
    <path id="Path_45" data-name="Path 45" d="M1161.225,129.495c.507-.014,1.007-.029,1.508-.038a.267.267,0,0,1,.144.05,5.442,5.442,0,0,0,4.1.93,6.437,6.437,0,0,0,.643-.1.259.259,0,0,1,.22.049q.837.591,1.678,1.177c.043.03.087.058.158.106V131.5c0-.6,0-1.207,0-1.811a.216.216,0,0,1,.117-.212,5.566,5.566,0,0,0,2.55-3.364,5.171,5.171,0,0,0-.96-4.587.39.39,0,0,1-.067-.227c.01-.469.03-.939.046-1.408,0-.02,0-.041.006-.081.041.031.068.05.093.073a6.49,6.49,0,0,1,2.148,4.093,6.273,6.273,0,0,1-1.314,4.669,6.737,6.737,0,0,1-1.374,1.347.239.239,0,0,0-.11.219c0,1.039,0,2.077,0,3.116v.134c-.056-.033-.1-.055-.133-.079q-1.464-.948-2.926-1.9a.344.344,0,0,0-.26-.06,7.771,7.771,0,0,1-4.772-.74,4.627,4.627,0,0,1-1.415-1.1C1161.277,129.555,1161.249,129.522,1161.225,129.495Z" transform="translate(-1152.337 -113.232)" fill="#fff" stroke="#fff" stroke-width="0.2"/>
    <path id="Path_46" data-name="Path 46" d="M999.093,104.227q-1.916,0-3.833,0a.558.558,0,1,1-.067-1.113c.035,0,.071,0,.107,0q3.8,0,7.6,0a.6.6,0,0,1,.492.188.555.555,0,0,1-.345.921,1.332,1.332,0,0,1-.186.006Z" transform="translate(-990.208 -96.978)" fill="#fff" stroke="#fff" stroke-width="0.2"/>
    <path id="Path_47" data-name="Path 47" d="M1039.515,229.623q-1.371,0-2.742,0a.542.542,0,0,1-.568-.441.551.551,0,0,1,.435-.656.9.9,0,0,1,.159-.011q2.722,0,5.443,0a.557.557,0,0,1,.559.33.548.548,0,0,1-.5.778c-.7.006-1.4,0-2.1,0Z" transform="translate(-1030.635 -219.04)" fill="#fff" stroke="#fff" stroke-width="0.2"/>
  </g>
</svg>
