<svg xmlns="http://www.w3.org/2000/svg" width="22.922" height="22.922" viewBox="0 0 22.922 22.922">
  <g id="Group_304" data-name="Group 304" transform="translate(0.15 0.15)">
    <g id="Group_274" data-name="Group 274" transform="translate(2.998 5.776)">
      <path id="Path_82" data-name="Path 82" d="M302.72,2511.365c.244-.314.483-.636.737-.945a15.076,15.076,0,0,1,3.919-3.474,7.177,7.177,0,0,1,3.475-1.1,7,7,0,0,1,3.829,1.091,15.046,15.046,0,0,1,3.933,3.485c.25.3.486.622.745.956-.28.358-.544.714-.828,1.053a15.034,15.034,0,0,1-3.833,3.378,7.324,7.324,0,0,1-3.252,1.089,6.915,6.915,0,0,1-4.084-1.094,15.306,15.306,0,0,1-4.1-3.71c-.165-.208-.32-.424-.48-.636C302.764,2511.437,302.749,2511.41,302.72,2511.365Zm8.314,3.478a3.461,3.461,0,1,0-3.459-3.453A3.461,3.461,0,0,0,311.034,2514.843Z" transform="translate(-302.72 -2505.845)" fill="#79838d"/>
    </g>
    <g id="Group_275" data-name="Group 275" transform="translate(9.93 9.927)">
      <path id="Path_83" data-name="Path 83" d="M445.648,2591.176a1.381,1.381,0,1,1-1.368-1.392A1.389,1.389,0,0,1,445.648,2591.176Z" transform="translate(-442.887 -2589.785)" fill="#79838d"/>
    </g>
    <path id="Path_84" data-name="Path 84" d="M253.417,2411.687a11.311,11.311,0,1,1,8-3.313A11.237,11.237,0,0,1,253.417,2411.687Zm0-21.485a10.174,10.174,0,1,0,10.173,10.174A10.185,10.185,0,0,0,253.417,2390.2Z" transform="translate(-242.106 -2389.065)" fill="#79838d" stroke="#79838d" stroke-width="0.3"/>
  </g>
</svg>
