<svg xmlns="http://www.w3.org/2000/svg" width="114" height="83" viewBox="0 0 114 83">
  <defs>
    <style>
      .cls-1 {
        fill: #f0f5f7;
      }

      .cls-2, .cls-6 {
        opacity: 0.6;
      }

      .cls-3 {
        opacity: 0.75;
      }

      .cls-4, .cls-5, .cls-6 {
        fill: #03a9f5;
      }

      .cls-4, .cls-5 {
        stroke: #03a9f5;
      }

      .cls-4 {
        stroke-width: 0.5px;
      }

      .cls-6 {
        font-size: 12px;
        font-family: SFProDisplay-Regular, SF Pro Display;
        letter-spacing: 0.016em;
      }
    </style>
  </defs>
  <g id="Group_8730" data-name="Group 8730" transform="translate(-7 -362)">
    <path id="Path_9011" data-name="Path 9011" class="cls-1" d="M22,0H92a22,22,0,0,1,22,22V61A22,22,0,0,1,92,83H22A22,22,0,0,1,0,61V22A22,22,0,0,1,22,0Z" transform="translate(7 362)"/>
    <g id="Group_8528" data-name="Group 8528" transform="translate(-141.148 79.15)">
      <g id="Group_8526" data-name="Group 8526" class="cls-2" transform="translate(193.949 304.699)">
        <g id="Group_266" data-name="Group 266" class="cls-3" transform="translate(0)">
          <path id="Path_60" data-name="Path 60" class="cls-4" d="M850.751,565.962c0-.419-.012-.762,0-1.1a1.58,1.58,0,0,1,3.159,0c.012.341,0,.683,0,1.064h7.066c0-.293,0-.6,0-.9a1.587,1.587,0,1,1,3.167-.02c0,.292,0,.583,0,.958.768,0,1.513.037,2.253-.007,1.9-.113,2.268.585,2.254,2.226-.043,5.009-.015,10.018-.016,15.028,0,1.223-.5,1.715-1.754,1.715l-18.866,0c-1.252,0-1.763-.494-1.763-1.71q0-7.721,0-15.441c0-.12,0-.241,0-.361a1.4,1.4,0,0,1,1.5-1.448C848.73,565.953,849.7,565.962,850.751,565.962Zm-3.589,5.419v.57q0,5.6,0,11.209c0,.8.083.879.907.879h18.818c.746,0,.847-.1.847-.833q0-5.656,0-11.313c0-.165-.02-.33-.031-.512Zm6.752-4.509c0,.378.009.7,0,1.026a1.551,1.551,0,0,1-1.575,1.585,1.569,1.569,0,0,1-1.586-1.583c-.01-.337,0-.675,0-1.046-1.069,0-2.063-.02-3.055.019-.179.007-.492.253-.5.4-.043,1.058-.023,2.118-.023,3.181h20.559c0-1.049.02-2.063-.019-3.075-.007-.175-.256-.483-.4-.489-1.038-.043-2.08-.023-3.162-.023,0,.366.007.673,0,.98a1.574,1.574,0,0,1-1.583,1.638,1.554,1.554,0,0,1-1.583-1.631c-.006-.32,0-.639,0-.979Zm-2.258-.487c0,.5-.005,1,0,1.5a.662.662,0,0,0,.665.719.675.675,0,0,0,.7-.735q.021-1.472,0-2.945a.674.674,0,0,0-.721-.715.658.658,0,0,0-.648.731C851.653,565.421,851.655,565.9,851.656,566.386Zm10.211.026c0,.463-.007.926,0,1.388.01.495.279.8.684.809s.682-.3.687-.8c.009-.942,0-1.885,0-2.828a.669.669,0,0,0-.651-.773c-.415-.037-.709.277-.722.761S861.867,565.931,861.867,566.411Z" transform="translate(-846.256 -563.318)"/>
          <path id="Path_61" data-name="Path 61" class="cls-5" d="M926.774,673.025a.963.963,0,0,1-.322.318,2.448,2.448,0,0,0-1.012,3.216,1.782,1.782,0,0,1,.082.513c.027.594-.333.845-.875.59a13.2,13.2,0,0,1-1.552-.824.984.984,0,0,0-1.186.014,16.037,16.037,0,0,1-1.5.79c-.585.282-.95.04-.918-.635.1-.571.16-1.2.316-1.81a.851.851,0,0,0-.322-.957c-.455-.4-.89-.831-1.307-1.273-.432-.458-.288-.918.327-1.034.64-.121,1.3-.161,1.929-.307a1.152,1.152,0,0,0,.652-.488c.326-.536.558-1.127.861-1.679.314-.578.813-.57,1.122.01s.557,1.179.883,1.741a.974.974,0,0,0,.57.409c.614.132,1.251.164,1.863.3a.984.984,0,0,1,.635.44C927.092,672.516,926.892,672.811,926.774,673.025Z" transform="translate(-911.31 -659.049)"/>
        </g>
      </g>
      <text id="Event" class="cls-6" transform="translate(205.149 341)"><tspan x="-14.547" y="0">Event</tspan></text>
    </g>
  </g>
</svg>
