<svg xmlns="http://www.w3.org/2000/svg" width="23.629" height="20.965" viewBox="0 0 23.629 20.965">
  <g id="Group_7993" data-name="Group 7993" transform="translate(3862.721 -597.978)">
    <path id="Path_58" data-name="Path 58" d="M649.429,344.569c-.02-.192-.038-.385-.06-.577a8.433,8.433,0,0,0-1.222-3.509,9.97,9.97,0,0,0-4.666-3.921l-.285-.122.106-.108a5.841,5.841,0,0,0,.372-7.967,5.911,5.911,0,0,0-3.543-2.051,6.051,6.051,0,0,0-6.979,4.493,6.022,6.022,0,0,0,8.4,6.725.364.364,0,0,1,.279-.015,9.278,9.278,0,0,1,3.6,1.984,7.38,7.38,0,0,1,2.4,4.244,9.018,9.018,0,0,1,.11,1.678.722.722,0,0,0,.523.7.748.748,0,0,0,.933-.5c.008-.026.018-.051.026-.077Zm-10.4-7.948a4.473,4.473,0,1,1,4.556-4.463A4.531,4.531,0,0,1,639.028,336.621Z" transform="translate(-4491.429 272.633)" fill="#79838d" stroke="#79838d" stroke-width="0.3"/>
    <path id="Path_426" data-name="Path 426" d="M189.2,324.674a1.688,1.688,0,0,1-.1-.633,3.362,3.362,0,0,1,.969-2.326,3.81,3.81,0,0,0,1.071-2.694c0-.736-.34-1.016-.935-1.016s-.935.28-.935,1.016v1.119H187.5v-1.016c0-1.648.935-2.591,2.755-2.591s2.755.942,2.755,2.591a4.138,4.138,0,0,1-1.258,2.959,2.9,2.9,0,0,0-.952,2.017,2.21,2.21,0,0,0,.068.574Z" transform="translate(-4032.098 281.445)" fill="#79838d"/>
    <ellipse id="Ellipse_89" data-name="Ellipse 89" cx="1.142" cy="1.063" rx="1.142" ry="1.063" transform="translate(-3843.263 606.687)" fill="#79838d"/>
    <path id="Path_58-2" data-name="Path 58" d="M633,344.569c.02-.192.038-.385.059-.577a8.532,8.532,0,0,1,1.2-3.509,9.841,9.841,0,0,1,4.585-3.921l.28-.122-.1-.108a5.934,5.934,0,0,1,3.116-10.018,5.931,5.931,0,0,1,2.412,11.611,5.758,5.758,0,0,1-3.813-.393.352.352,0,0,0-.274-.015,9.072,9.072,0,0,0-3.54,1.984,7.414,7.414,0,0,0-2.356,4.244,9.17,9.17,0,0,0-.109,1.678.72.72,0,0,1-.514.7.733.733,0,0,1-.917-.5c-.008-.026-.017-.051-.026-.077Zm10.22-7.948a4.472,4.472,0,1,0-4.476-4.463A4.491,4.491,0,0,0,643.22,336.621Z" transform="translate(-4495.571 272.629)" fill="#79838d" stroke="#79838d" stroke-width="0.3"/>
  </g>
</svg>
