<svg xmlns="http://www.w3.org/2000/svg" width="21.719" height="23.427" viewBox="0 0 21.719 23.427">
  <g id="Group_7990" data-name="Group 7990" transform="translate(-187 -853)">
    <path id="Path_85" data-name="Path 85" d="M495.2,2521.626a.711.711,0,0,1,.506.684.65.65,0,0,1-.589.646c-.1.01-.2.008-.3.008-1.959,0-3.919-.006-5.878,0a2.975,2.975,0,0,0-2.842,1.761,2.944,2.944,0,0,0-.278,1.33q0,7.274,0,14.547a3.011,3.011,0,0,0,3.105,3.1c1.944.007,3.888,0,5.833,0a1.43,1.43,0,0,1,.384.035.655.655,0,0,1,.462.683.671.671,0,0,1-.582.613,1.381,1.381,0,0,1-.183.007c-1.99,0-3.98.007-5.97,0a4.331,4.331,0,0,1-4.3-3.495,4.932,4.932,0,0,1-.086-.976c-.005-4.826.01-9.653-.01-14.479a4.4,4.4,0,0,1,2.98-4.244c.3-.1.616-.154.925-.229Z" transform="translate(-297.475 -1668.626)" fill="#1a3253"/>
    <path id="Path_86" data-name="Path 86" d="M581.46,2636.28h-.311q-6.541,0-13.082,0a1.6,1.6,0,0,1-.407-.042.661.661,0,0,1,.068-1.281,2.325,2.325,0,0,1,.387-.023h13.346c-.09-.1-.142-.155-.2-.21q-1.407-1.408-2.814-2.813a.775.775,0,0,1-.285-.551.641.641,0,0,1,.344-.6.628.628,0,0,1,.71.041,1.468,1.468,0,0,1,.188.167l4.059,4.059a.7.7,0,0,1,0,1.161q-2.045,2.047-4.09,4.093a.7.7,0,0,1-.716.244.664.664,0,0,1-.32-1.095c.2-.228.426-.436.642-.651l2.3-2.3C581.33,2636.425,581.378,2636.369,581.46,2636.28Z" transform="translate(-375.054 -1770.888)" fill="#1a3253"/>
  </g>
</svg>
