<svg xmlns="http://www.w3.org/2000/svg" width="33.396" height="40.981" viewBox="0 0 33.396 40.981"><defs><style>.a{fill:#ffdc00;}.b{fill:#373737;}.c{fill:#ffaf37;}.d{fill:#285078;}.e{fill:#ff9d3b;}.f{opacity:0.09;mix-blend-mode:multiply;isolation:isolate;}.g{fill:#0e2d47;}.h{opacity:0.42;}.i{fill:#3d1a03;}.j{fill:#fff;}</style></defs><g transform="translate(0 0)"><g transform="translate(1.774 23.111)"><path class="a" d="M227.562,461.729l-5.537-2.312-5.353,12.818,7.171-1.6,3.9,6.225,5.353-12.818Z" transform="translate(-216.458 -459.202)"/><path class="b" d="M227.21,476.538a.214.214,0,0,1-.182-.1l-3.822-6.1-7.023,1.568a.215.215,0,0,1-.245-.292l5.353-12.817a.215.215,0,0,1,.281-.115L227.109,461h0l5.537,2.312a.214.214,0,0,1,.115.281l-5.352,12.818a.214.214,0,0,1-.18.131Zm-3.9-6.654a.215.215,0,0,1,.182.1l3.683,5.874,5.11-12.237L221.6,459.162l-5.11,12.237,6.766-1.511A.219.219,0,0,1,223.308,469.883Z" transform="translate(-215.922 -458.667)"/><g transform="translate(2.729 2.248)"><path class="c" d="M238.524,471.148l-2.141,5.127a23.7,23.7,0,0,1-10.923-4.991l1.988-4.761Z" transform="translate(-225.46 -466.523)"/></g><path class="b" d="M227.21,476.538a.214.214,0,0,1-.182-.1l-3.822-6.1-7.023,1.568a.215.215,0,0,1-.245-.292l5.353-12.817a.215.215,0,0,1,.281-.115L227.109,461h0l5.537,2.312a.214.214,0,0,1,.115.281l-5.352,12.818a.214.214,0,0,1-.18.131Zm-3.9-6.654a.215.215,0,0,1,.182.1l3.683,5.874,5.11-12.237L221.6,459.162l-5.11,12.237,6.766-1.511A.219.219,0,0,1,223.308,469.883Z" transform="translate(-215.922 -458.667)"/><g transform="translate(12.993 0)"><path class="a" d="M267.619,461.729l5.537-2.312,5.353,12.818-7.171-1.6-3.9,6.225-5.353-12.818Z" transform="translate(-261.868 -459.202)"/><path class="b" d="M266.9,476.538h-.018a.215.215,0,0,1-.181-.131l-5.352-12.818a.214.214,0,0,1,.115-.281L267,461h0l5.537-2.312a.215.215,0,0,1,.281.115l5.352,12.817a.215.215,0,0,1-.245.292l-7.023-1.568-3.822,6.1A.214.214,0,0,1,266.9,476.538Zm-5.072-12.917,5.11,12.237,3.683-5.874a.213.213,0,0,1,.229-.1l6.766,1.511-5.11-12.237Z" transform="translate(-261.333 -458.667)"/><g transform="translate(1.062 2.248)"><path class="c" d="M265.046,471.148l2.141,5.127a23.7,23.7,0,0,0,10.923-4.991l-1.988-4.761Z" transform="translate(-265.046 -466.523)"/></g><path class="b" d="M266.9,476.538h-.018a.215.215,0,0,1-.181-.131l-5.352-12.818a.214.214,0,0,1,.115-.281L267,461h0l5.537-2.312a.215.215,0,0,1,.281.115l5.352,12.817a.215.215,0,0,1-.245.292l-7.023-1.568-3.822,6.1A.214.214,0,0,1,266.9,476.538Zm-5.072-12.917,5.11,12.237,3.683-5.874a.213.213,0,0,1,.229-.1l6.766,1.511-5.11-12.237Z" transform="translate(-261.333 -458.667)"/></g></g><g transform="translate(0)"><circle class="d" cx="14.554" cy="14.554" r="14.554" transform="translate(0 28.733) rotate(-80.783)"/><path class="b" d="M231.232,414.172A14.769,14.769,0,1,1,246,399.4,14.786,14.786,0,0,1,231.232,414.172Zm0-29.109a14.34,14.34,0,1,0,14.34,14.34A14.356,14.356,0,0,0,231.232,385.063Z" transform="translate(-214.534 -382.705)"/></g><circle class="a" cx="13.151" cy="13.151" r="13.151" transform="translate(1.61 27.572) rotate(-80.783)"/><g transform="translate(1.894 1.894)"><circle class="e" cx="12.904" cy="12.904" r="12.904" transform="translate(0 25.474) rotate(-80.783)"/></g><g class="f" transform="translate(6.762 6.762)"><path class="g" d="M251.892,401.526a13.14,13.14,0,0,1-18.536,18.536,13.142,13.142,0,1,0,18.536-18.536Z" transform="translate(-233.356 -401.526)"/></g><g class="h" transform="translate(6.926 9.716)"><path class="g" d="M245.867,413.522q0,1.451,0,2.9V417.7l-1.176,1.145v-4.489l-1.084-.215c-1.617-.315-3.23-.632-4.852-.953v18.062c-.369-.146-.732-.309-1.084-.489-.031-.017-.063-.031-.092-.049V413.92c-.043.04-.072.063-.094.086q-.494.5-.99,1c-.423.432-.853.864-1.279,1.3a.342.342,0,0,0-.109.269q0,4.82,0,9.639v2.847a12.584,12.584,0,0,1-1.084-1.019c-.031-.031-.06-.066-.092-.1v-1.694q0-5.107,0-10.209a.263.263,0,0,1,.063-.163l.023-.023,2.472-2.515q.588-.6,1.176-1.2l.026-.026c.069-.069.137-.14.206-.209a.153.153,0,0,1,.163-.051c1.127.226,2.257.446,3.388.669l3.333.652.958.189C245.841,413.385,245.867,413.425,245.867,413.522Z" transform="translate(-233.93 -411.852)"/><g transform="translate(5.924 2.065)"><path class="g" d="M267.062,435.02q-1.159-3.069-2.326-6.14c-.283-.75-.569-1.5-.855-2.246a.471.471,0,0,0-.535-.34.482.482,0,0,0-.229.106.506.506,0,0,0-.175.358.665.665,0,0,0,.034.238,3.465,3.465,0,0,0,.146.386.172.172,0,0,1-.052.238q-2.287,1.957-4.572,3.92-1.309,1.124-2.618,2.252l-.217.18c-.037-.094-.069-.172-.1-.249a.47.47,0,0,0-.587-.292.487.487,0,0,0-.312.632c.1.309.217.607.332.907.083.217.166.432.249.65.109.28.217.564.326.844a.479.479,0,0,0,.489.346.487.487,0,0,0,.435-.435,1.362,1.362,0,0,0-.054-.349,1.206,1.206,0,0,0-.049-.14c.129-.017.246-.031.363-.043.08-.006.157-.014.237-.02.152-.011.3-.023.452-.04.1-.011.14.026.157.123a2.262,2.262,0,0,0,.123.429,1.7,1.7,0,0,0,.429.641,1.733,1.733,0,0,0,1.977.4,1.9,1.9,0,0,0,1.179-1.794c0-.1.029-.14.129-.149q1.991-.172,3.98-.346c.166-.017.335-.026.5-.043a.134.134,0,0,1,.155.1c.054.152.109.3.172.452a.473.473,0,0,0,.555.283.483.483,0,0,0,.358-.469A1.332,1.332,0,0,0,267.062,435.02Zm-7.513,1.474a.882.882,0,0,1-.6-.152.928.928,0,0,1-.389-.555c-.017-.086.023-.1.086-.109.429-.034.855-.074,1.282-.109h.009c.134-.012.266-.02.4-.029A.938.938,0,0,1,259.548,436.494Z" transform="translate(-254.634 -424.222)"/><path class="g" d="M294.22,433.975l.765-.323,1.424-.6a.925.925,0,0,0,.128-.064.292.292,0,0,0,.125-.356.254.254,0,0,0-.337-.151c-.284.112-.564.232-.846.352-.474.2-.948.4-1.421.608-.1.044-.2.1-.207.239A.278.278,0,0,0,294.22,433.975Z" transform="translate(-282.63 -428.628)"/><path class="g" d="M291.575,419.3a.276.276,0,0,0-.41-.193.622.622,0,0,0-.136.133q-.626.792-1.248,1.587a.3.3,0,0,0,.009.415.245.245,0,0,0,.386-.037c.308-.377.609-.761.912-1.144.141-.178.282-.355.413-.541A.819.819,0,0,0,291.575,419.3Z" transform="translate(-279.668 -419.069)"/><path class="g" d="M299.529,447.914a.31.31,0,0,0-.3-.245q-.564-.072-1.13-.14c-.275-.033-.55-.066-.826-.1a.284.284,0,0,0-.333.238.28.28,0,0,0,.252.319c-.558-.08-.26-.026,1.217.151.275.033.55.067.826.094A.266.266,0,0,0,299.529,447.914Z" transform="translate(-284.831 -439.316)"/></g></g><g transform="translate(5.842 8.643)"><path class="i" d="M242.077,409.772v.73q0,1.086,0,2.169v1.276l-.092.089-1.084,1.056V410.6c-1.971-.386-3.934-.773-5.911-1.162l-.026-.006v18.646c-.032-.017-.063-.031-.092-.049q-.558-.287-1.084-.627l-2.469-2.043c-.031-.031-.06-.066-.092-.1a13.72,13.72,0,0,1-1.084-1.322V422.5q0-5.107,0-10.208a.263.263,0,0,1,.063-.163q1.948-1.987,3.9-3.968a.153.153,0,0,1,.163-.051c1.127.226,2.257.446,3.388.67l4.292.841C242.051,409.635,242.077,409.675,242.077,409.772Z" transform="translate(-230.14 -408.102)"/><g transform="translate(5.925 3.059)"><path class="i" d="M263.275,431.27q-1.159-3.069-2.326-6.14-.266-.7-.535-1.408c-.1-.28-.212-.558-.318-.838a.472.472,0,0,0-.535-.34.487.487,0,0,0-.4.463.661.661,0,0,0,.031.237,3.48,3.48,0,0,0,.149.386.173.173,0,0,1-.054.237q-.674.575-1.342,1.15-.588.5-1.176,1.01l-2.051,1.76q-1.313,1.124-2.621,2.252l-.215.18c-.04-.094-.072-.172-.1-.249a.471.471,0,0,0-.587-.292.482.482,0,0,0-.312.632c.094.309.217.607.332.907q.283.747.572,1.493a.482.482,0,0,0,.492.346.5.5,0,0,0,.266-.117.447.447,0,0,0,.166-.318,1.5,1.5,0,0,0-.051-.349,1.327,1.327,0,0,0-.052-.14c.132-.017.249-.031.366-.043.229-.02.461-.034.69-.06.1-.011.14.026.157.123a1.907,1.907,0,0,0,.472.99.68.68,0,0,0,.077.08,2.186,2.186,0,0,0,.655.432,1.61,1.61,0,0,0,1.222.009.855.855,0,0,0,.1-.037,1.855,1.855,0,0,0,.878-.735,2.2,2.2,0,0,0,.3-1.059c.006-.1.031-.14.129-.149q1.991-.172,3.98-.346c.169-.017.335-.026.5-.043a.13.13,0,0,1,.152.1c.054.152.109.3.175.452a.473.473,0,0,0,.555.283.486.486,0,0,0,.358-.469A1.34,1.34,0,0,0,263.275,431.27Zm-8.5.767c-.02-.086.02-.1.086-.109.429-.034.858-.074,1.288-.109.134-.011.269-.02.4-.029a.943.943,0,0,1-.784.953A.925.925,0,0,1,254.772,432.037Z" transform="translate(-250.849 -421.466)"/><path class="i" d="M293.181,433.7l.765-.323,1.424-.6a.984.984,0,0,0,.128-.064.292.292,0,0,0,.125-.356.254.254,0,0,0-.337-.152c-.284.112-.565.233-.846.352q-.711.3-1.421.608c-.1.044-.2.1-.207.24A.278.278,0,0,0,293.181,433.7Z" transform="translate(-280.805 -428.352)"/><path class="i" d="M290.536,419.028a.277.277,0,0,0-.411-.193.61.61,0,0,0-.136.132q-.626.792-1.249,1.587a.3.3,0,0,0,.009.415.245.245,0,0,0,.387-.037c.308-.377.609-.761.911-1.144.141-.178.282-.355.413-.541A.841.841,0,0,0,290.536,419.028Z" transform="translate(-277.844 -418.793)"/><path class="i" d="M299.536,446.981a.31.31,0,0,0-.3-.245q-.565-.072-1.13-.14-.413-.05-.826-.1a.283.283,0,0,0-.332.238.28.28,0,0,0,.252.319c.4.058.811.1,1.217.151.275.033.55.067.826.094A.266.266,0,0,0,299.536,446.981Z" transform="translate(-283.758 -438.571)"/></g></g><path class="j" d="M234.734,389.54a13.359,13.359,0,0,0-10.855,21.152,13.722,13.722,0,0,0,1.084,1.322c.031.031.06.066.092.1a12.588,12.588,0,0,0,1.084,1.019,13.119,13.119,0,0,0,1.385,1.024c.352.226.712.435,1.084.627.029.017.06.031.092.049.352.18.715.343,1.084.489a13.246,13.246,0,0,0,4.95.953,13.366,13.366,0,0,0,0-26.732Zm0,26.3a12.85,12.85,0,0,1-4.95-.984c-.372-.155-.732-.326-1.084-.512a.946.946,0,0,1-.092-.051,12.218,12.218,0,0,1-1.084-.652,13.008,13.008,0,0,1-1.385-1.079,12.541,12.541,0,0,1-1.084-1.087c-.031-.034-.063-.069-.092-.1a12.662,12.662,0,0,1-1.084-1.442,12.931,12.931,0,1,1,10.855,5.911Z" transform="translate(-218.037 -386.208)"/></g></svg>