<svg xmlns="http://www.w3.org/2000/svg" width="38.654" height="41.781" viewBox="0 0 38.654 41.781"><defs><style>.a{fill:#ffdc00;}.b{fill:#373737;}.c{fill:#285078;}.d{opacity:0.09;mix-blend-mode:multiply;isolation:isolate;}.e{fill:#0e2d47;}.f{opacity:0.42;}.g{fill:#fff;}</style></defs><g transform="translate(0 0)"><g transform="translate(14.228 32.039)"><g transform="translate(0.215 0.215)"><path class="a" d="M444.111,499.935a.212.212,0,0,1-.1-.025l-2.786-1.465-2.787,1.465a.212.212,0,0,1-.1.025.214.214,0,0,1-.211-.251l.532-3.1-2.254-2.2a.215.215,0,0,1,.119-.366l3.116-.453,1.393-2.823a.215.215,0,0,1,.385,0l1.393,2.823,3.115.453a.214.214,0,0,1,.119.366l-2.254,2.2.532,3.1a.215.215,0,0,1-.211.251Z" transform="translate(-436.34 -490.622)"/></g><path class="b" d="M440.689,490.3l1.443,2.924,3.227.469-2.335,2.276.551,3.214-2.886-1.518-2.887,1.518.551-3.214-2.335-2.276,3.227-.469,1.443-2.924m0-.429a.429.429,0,0,0-.385.239l-1.344,2.722-3,.436a.429.429,0,0,0-.238.732l2.174,2.119-.513,2.992a.429.429,0,0,0,.623.453l2.687-1.413,2.687,1.413a.43.43,0,0,0,.623-.453l-.513-2.992L445.659,494a.429.429,0,0,0-.238-.732l-3-.436-1.343-2.722a.429.429,0,0,0-.385-.239Z" transform="translate(-435.589 -489.872)"/></g><g transform="translate(26.765 29.288)"><g transform="translate(0.215 0.215)"><path class="a" d="M485.779,487.79a.215.215,0,0,1-.1-.025l-1.964-1.033-1.965,1.033a.215.215,0,0,1-.311-.226l.375-2.187-1.589-1.549a.215.215,0,0,1,.119-.366l2.2-.319.982-1.99a.215.215,0,0,1,.385,0l.982,1.99,2.2.319a.215.215,0,0,1,.119.366l-1.589,1.549.375,2.187a.215.215,0,0,1-.211.251Z" transform="translate(-480.16 -481.008)"/></g><path class="b" d="M483.179,480.687l1.032,2.091,2.308.335-1.67,1.628.394,2.3-2.064-1.085-2.064,1.085.394-2.3-1.67-1.628,2.308-.335,1.032-2.091m0-.429a.429.429,0,0,0-.385.239l-.932,1.889-2.085.3a.429.429,0,0,0-.238.732l1.508,1.47-.356,2.076a.429.429,0,0,0,.623.452l1.864-.98,1.865.98a.429.429,0,0,0,.623-.452l-.356-2.076,1.508-1.47a.429.429,0,0,0-.238-.732l-2.084-.3-.932-1.889a.429.429,0,0,0-.385-.239Z" transform="translate(-479.41 -480.258)"/></g><g transform="translate(33.416 24.42)"><g transform="translate(0.215 0.215)"><path class="a" d="M507.164,468.586a.213.213,0,0,1-.1-.025l-1.254-.659-1.254.659a.215.215,0,0,1-.226-.016.216.216,0,0,1-.086-.21l.24-1.4-1.014-.989a.215.215,0,0,1,.119-.366l1.4-.2.627-1.27a.215.215,0,0,1,.385,0l.627,1.27,1.4.2a.215.215,0,0,1,.119.366l-1.014.989.239,1.4a.214.214,0,0,1-.211.251Z" transform="translate(-503.406 -463.992)"/></g><path class="b" d="M505.274,463.671l.677,1.371,1.513.22-1.095,1.067.259,1.507-1.354-.711-1.353.711.258-1.507-1.1-1.067,1.513-.22.677-1.371m0-.429h0a.429.429,0,0,0-.385.239l-.577,1.169-1.29.187a.429.429,0,0,0-.238.732l.934.91-.22,1.285a.429.429,0,0,0,.623.452l1.154-.607,1.154.607a.429.429,0,0,0,.623-.452l-.22-1.285.933-.91a.429.429,0,0,0-.238-.732l-1.29-.187-.577-1.169a.429.429,0,0,0-.385-.239Z" transform="translate(-502.655 -463.242)"/></g><g transform="translate(4.351 29.288)"><g transform="translate(0.215 0.215)"><path class="a" d="M403.309,487.79a.215.215,0,0,1-.211-.251l.375-2.187-1.589-1.549a.214.214,0,0,1,.119-.366l2.2-.319.982-1.99a.215.215,0,0,1,.193-.12h0a.215.215,0,0,1,.193.12l.982,1.99,2.2.319a.214.214,0,0,1,.119.366l-1.589,1.549.375,2.187a.215.215,0,0,1-.211.251.216.216,0,0,1-.1-.025l-1.964-1.033-1.964,1.033A.217.217,0,0,1,403.309,487.79Z" transform="translate(-401.819 -481.008)"/></g><path class="b" d="M404.838,480.687l1.032,2.091,2.308.335-1.67,1.628.394,2.3-2.064-1.085-2.064,1.085.394-2.3-1.67-1.628,2.308-.335,1.032-2.091m0-.429a.429.429,0,0,0-.385.239l-.932,1.889-2.085.3a.429.429,0,0,0-.238.732l1.508,1.47-.356,2.076a.429.429,0,0,0,.623.452l1.864-.98,1.865.98a.429.429,0,0,0,.623-.452l-.356-2.076,1.508-1.47a.429.429,0,0,0-.238-.732l-2.084-.3-.932-1.889a.43.43,0,0,0-.385-.239Z" transform="translate(-401.069 -480.258)"/></g><g transform="translate(0 24.42)"><g transform="translate(0.215 0.215)"><path class="a" d="M390.371,468.586a.213.213,0,0,1-.1-.025l-1.254-.659-1.254.659a.215.215,0,0,1-.226-.016.215.215,0,0,1-.085-.21l.239-1.4-1.014-.989a.215.215,0,0,1,.119-.366l1.4-.2.627-1.27a.215.215,0,0,1,.385,0l.627,1.27,1.4.2a.215.215,0,0,1,.119.366l-1.014.989.239,1.4a.215.215,0,0,1-.211.251Z" transform="translate(-386.613 -463.992)"/></g><path class="b" d="M388.482,463.671l.677,1.371,1.513.22-1.1,1.067.259,1.507-1.354-.711-1.353.711.258-1.507-1.095-1.067,1.513-.22.677-1.371m0-.429a.429.429,0,0,0-.385.239l-.577,1.169-1.29.187a.429.429,0,0,0-.238.732l.933.91-.22,1.285a.429.429,0,0,0,.623.452l1.154-.607,1.154.607a.429.429,0,0,0,.623-.452l-.22-1.285.933-.91a.429.429,0,0,0-.238-.732l-1.29-.187-.577-1.169a.429.429,0,0,0-.385-.239Z" transform="translate(-385.863 -463.242)"/></g><g transform="translate(2.629)"><circle class="c" cx="14.554" cy="14.554" r="14.554" transform="translate(0 28.733) rotate(-80.783)"/><path class="b" d="M416.563,414.172A14.769,14.769,0,1,1,431.332,399.4,14.786,14.786,0,0,1,416.563,414.172Zm0-29.109A14.34,14.34,0,1,0,430.9,399.4,14.356,14.356,0,0,0,416.563,385.063Z" transform="translate(-399.865 -382.705)"/></g><circle class="a" cx="13.151" cy="13.151" r="13.151" transform="translate(4.24 27.572) rotate(-80.783)"/><g transform="translate(4.508 1.879)"><circle class="a" cx="12.917" cy="12.917" r="12.917" transform="translate(0 25.5) rotate(-80.783)"/></g><g class="d" transform="translate(9.391 6.762)"><path class="e" d="M437.222,401.526a13.14,13.14,0,0,1-18.536,18.536,13.142,13.142,0,1,0,18.536-18.536Z" transform="translate(-418.686 -401.526)"/></g><g transform="translate(8.471 8.643)"><g class="f" transform="translate(1.084 1.073)"><path class="c" d="M431.2,413.522q0,1.451,0,2.9V417.7l-1.176,1.145v-4.489l-1.084-.215c-1.617-.315-3.23-.632-4.853-.953v18.062c-.369-.146-.732-.309-1.084-.489-.031-.017-.063-.031-.091-.049V413.92c-.043.04-.072.063-.094.086q-.494.5-.99,1c-.423.432-.853.864-1.279,1.3a.342.342,0,0,0-.109.269q0,4.82,0,9.639v2.847a12.568,12.568,0,0,1-1.084-1.019c-.031-.031-.06-.066-.092-.1v-1.694q0-5.107,0-10.209a.263.263,0,0,1,.063-.163l.023-.023,2.472-2.515q.588-.6,1.176-1.2l.026-.026c.069-.069.137-.14.206-.209a.153.153,0,0,1,.163-.051c1.127.226,2.257.446,3.388.669l3.333.652.958.189C431.172,413.385,431.2,413.425,431.2,413.522Z" transform="translate(-419.261 -411.852)"/><g transform="translate(5.924 2.065)"><path class="c" d="M452.393,435.02q-1.159-3.069-2.326-6.14c-.283-.75-.569-1.5-.855-2.246a.471.471,0,0,0-.535-.34.482.482,0,0,0-.229.106.506.506,0,0,0-.175.358.665.665,0,0,0,.034.238,3.464,3.464,0,0,0,.146.386.172.172,0,0,1-.051.238q-2.287,1.957-4.572,3.92-1.309,1.124-2.618,2.252l-.217.18c-.037-.094-.069-.172-.1-.249a.47.47,0,0,0-.586-.292.487.487,0,0,0-.312.632c.1.309.217.607.332.907.083.217.166.432.249.65.109.28.217.564.326.844a.479.479,0,0,0,.489.346.487.487,0,0,0,.435-.435,1.364,1.364,0,0,0-.054-.349,1.2,1.2,0,0,0-.049-.14c.129-.017.246-.031.363-.043.08-.006.157-.014.237-.02.152-.011.3-.023.452-.04.1-.011.14.026.157.123a2.258,2.258,0,0,0,.123.429,1.7,1.7,0,0,0,.429.641,1.733,1.733,0,0,0,1.977.4,1.9,1.9,0,0,0,1.179-1.794c0-.1.029-.14.129-.149q1.991-.172,3.98-.346c.166-.017.335-.026.5-.043a.134.134,0,0,1,.155.1c.054.152.109.3.172.452a.473.473,0,0,0,.555.283.482.482,0,0,0,.358-.469A1.332,1.332,0,0,0,452.393,435.02Zm-7.513,1.474a.882.882,0,0,1-.6-.152.928.928,0,0,1-.389-.555c-.017-.086.023-.1.086-.109.429-.034.855-.074,1.282-.109h.009c.134-.012.266-.02.4-.029A.938.938,0,0,1,444.879,436.494Z" transform="translate(-439.965 -424.222)"/><path class="c" d="M479.55,433.975l.765-.323,1.424-.6a.94.94,0,0,0,.128-.064.292.292,0,0,0,.125-.356.254.254,0,0,0-.337-.151c-.284.112-.564.232-.846.352-.474.2-.948.4-1.421.608-.1.044-.2.1-.207.239A.278.278,0,0,0,479.55,433.975Z" transform="translate(-467.96 -428.628)"/><path class="c" d="M476.906,419.3a.277.277,0,0,0-.411-.193.621.621,0,0,0-.136.133q-.626.792-1.249,1.587a.3.3,0,0,0,.009.415.245.245,0,0,0,.386-.037c.308-.377.609-.761.912-1.144.14-.178.282-.355.413-.541A.827.827,0,0,0,476.906,419.3Z" transform="translate(-464.999 -419.069)"/><path class="c" d="M484.86,447.914a.31.31,0,0,0-.3-.245q-.565-.072-1.13-.14c-.275-.033-.551-.066-.826-.1a.283.283,0,0,0-.332.238.28.28,0,0,0,.252.319c-.558-.08-.26-.026,1.216.151.275.033.55.067.826.094A.266.266,0,0,0,484.86,447.914Z" transform="translate(-470.162 -439.316)"/></g></g><path class="c" d="M427.408,409.772v.73q0,1.086,0,2.169v1.276l-.092.089-1.084,1.056V410.6c-1.971-.386-3.934-.773-5.911-1.162l-.026-.006v18.646c-.032-.017-.063-.031-.092-.049-.372-.192-.732-.4-1.084-.627l-2.469-2.043c-.031-.031-.06-.066-.092-.1a13.708,13.708,0,0,1-1.084-1.322V422.5q0-5.107,0-10.208a.263.263,0,0,1,.063-.163q1.948-1.987,3.9-3.968a.153.153,0,0,1,.163-.051c1.127.226,2.257.446,3.388.67l4.292.841C427.382,409.635,427.408,409.675,427.408,409.772Z" transform="translate(-415.471 -408.102)"/><g transform="translate(5.925 3.059)"><path class="c" d="M448.606,431.27q-1.159-3.069-2.326-6.14-.266-.7-.535-1.408c-.1-.28-.212-.558-.318-.838a.472.472,0,0,0-.535-.34.487.487,0,0,0-.4.463.663.663,0,0,0,.031.237,3.468,3.468,0,0,0,.149.386.173.173,0,0,1-.054.237q-.674.575-1.342,1.15-.588.5-1.176,1.01l-2.051,1.76q-1.313,1.124-2.621,2.252l-.215.18c-.04-.094-.072-.172-.1-.249a.471.471,0,0,0-.587-.292.482.482,0,0,0-.312.632c.094.309.217.607.332.907q.283.747.572,1.493a.482.482,0,0,0,.492.346.5.5,0,0,0,.266-.117.447.447,0,0,0,.166-.318,1.5,1.5,0,0,0-.051-.349,1.316,1.316,0,0,0-.051-.14c.132-.017.249-.031.366-.043.229-.02.461-.034.69-.06.1-.011.14.026.157.123a1.908,1.908,0,0,0,.472.99.683.683,0,0,0,.077.08,2.186,2.186,0,0,0,.655.432,1.611,1.611,0,0,0,1.222.009.863.863,0,0,0,.1-.037,1.855,1.855,0,0,0,.878-.735,2.2,2.2,0,0,0,.3-1.059c.006-.1.031-.14.129-.149q1.991-.172,3.98-.346c.169-.017.335-.026.5-.043a.131.131,0,0,1,.152.1c.054.152.109.3.175.452a.473.473,0,0,0,.555.283.486.486,0,0,0,.358-.469A1.34,1.34,0,0,0,448.606,431.27Zm-8.5.767c-.02-.086.02-.1.086-.109.429-.034.858-.074,1.287-.109.135-.011.269-.02.4-.029a.943.943,0,0,1-.784.953A.925.925,0,0,1,440.1,432.037Z" transform="translate(-436.18 -421.466)"/><path class="c" d="M478.512,433.7l.765-.323,1.424-.6a.957.957,0,0,0,.128-.064.292.292,0,0,0,.125-.356.254.254,0,0,0-.337-.152c-.284.112-.565.233-.846.352q-.711.3-1.421.608c-.1.044-.2.1-.207.24A.278.278,0,0,0,478.512,433.7Z" transform="translate(-466.136 -428.352)"/><path class="c" d="M475.866,419.028a.276.276,0,0,0-.41-.193.61.61,0,0,0-.136.132q-.626.792-1.249,1.587a.3.3,0,0,0,.009.415.245.245,0,0,0,.386-.037c.308-.377.609-.761.912-1.144.14-.178.282-.355.413-.541A.819.819,0,0,0,475.866,419.028Z" transform="translate(-463.174 -418.793)"/><path class="c" d="M484.866,446.981a.31.31,0,0,0-.3-.245q-.565-.072-1.13-.14-.413-.05-.826-.1a.284.284,0,0,0-.333.238.28.28,0,0,0,.252.319c.4.058.811.1,1.216.151.275.033.551.067.826.094A.266.266,0,0,0,484.866,446.981Z" transform="translate(-469.089 -438.571)"/></g></g><path class="g" d="M420.065,416.271a13.365,13.365,0,1,1,13.365-13.365A13.38,13.38,0,0,1,420.065,416.271Zm0-26.3A12.936,12.936,0,1,0,433,402.905,12.951,12.951,0,0,0,420.065,389.969Z" transform="translate(-400.738 -386.208)"/></g></svg>