<svg xmlns="http://www.w3.org/2000/svg" width="124.035" height="152.21" viewBox="0 0 124.035 152.21"><defs><style>.a{fill:#ffdc00;}.b{fill:#373737;}.c{fill:#ffaf37;}.d{fill:#285078;}.e{fill:#ff9d3b;}.f{opacity:0.09;mix-blend-mode:multiply;isolation:isolate;}.g{fill:#0e2d47;}.h{opacity:0.42;}.i{fill:#3d1a03;}.j{fill:#fff;}</style></defs><g transform="translate(-1512.97 -2263)"><g transform="translate(1512.97 2263)"><g transform="translate(6.588 85.836)"><path class="a" d="M257.116,468l-20.564-8.587-19.88,47.606,26.633-5.946L257.8,524.2l19.88-47.606Z" transform="translate(-215.875 -458.62)"/><path class="b" d="M257.847,525.041a.8.8,0,0,1-.675-.374l-14.2-22.643-26.083,5.823a.8.8,0,0,1-.91-1.085l19.88-47.605a.8.8,0,0,1,1.042-.428l20.565,8.586h0l20.564,8.587a.8.8,0,0,1,.427,1.042l-19.879,47.606a.8.8,0,0,1-.669.488Zm-14.495-24.715a.8.8,0,0,1,.675.373L257.7,522.517l18.98-45.451-39.658-16.56-18.98,45.45,25.131-5.611A.818.818,0,0,1,243.353,500.327Z" transform="translate(-215.922 -458.667)"/><g transform="translate(10.136 8.349)"><path class="c" d="M273.98,483.7l-7.952,19.041A88,88,0,0,1,225.46,484.2l7.383-17.682Z" transform="translate(-225.46 -466.523)"/></g><path class="b" d="M257.847,525.041a.8.8,0,0,1-.675-.374l-14.2-22.643-26.083,5.823a.8.8,0,0,1-.91-1.085l19.88-47.605a.8.8,0,0,1,1.042-.428l20.565,8.586h0l20.564,8.587a.8.8,0,0,1,.427,1.042l-19.879,47.606a.8.8,0,0,1-.669.488Zm-14.495-24.715a.8.8,0,0,1,.675.373L257.7,522.517l18.98-45.451-39.658-16.56-18.98,45.45,25.131-5.611A.818.818,0,0,1,243.353,500.327Z" transform="translate(-215.922 -458.667)"/><g transform="translate(48.256 0)"><path class="a" d="M282.646,468l20.564-8.587,19.88,47.606-26.633-5.946L281.962,524.2l-19.88-47.606Z" transform="translate(-261.286 -458.62)"/><path class="b" d="M282.009,525.041l-.065,0a.8.8,0,0,1-.671-.488l-19.879-47.606a.8.8,0,0,1,.427-1.042l20.565-8.587h0l20.564-8.586a.8.8,0,0,1,1.044.428l19.879,47.605a.8.8,0,0,1-.91,1.085l-26.083-5.823-14.2,22.643A.8.8,0,0,1,282.009,525.041Zm-18.838-47.975,18.98,45.451L295.829,500.7a.792.792,0,0,1,.849-.354l25.13,5.611-18.979-45.45Z" transform="translate(-261.333 -458.667)"/><g transform="translate(3.946 8.348)"><path class="c" d="M265.046,483.7,273,502.743A88,88,0,0,0,313.566,484.2l-7.383-17.682Z" transform="translate(-265.046 -466.523)"/></g><path class="b" d="M282.009,525.041l-.065,0a.8.8,0,0,1-.671-.488l-19.879-47.606a.8.8,0,0,1,.427-1.042l20.565-8.587h0l20.564-8.586a.8.8,0,0,1,1.044.428l19.879,47.605a.8.8,0,0,1-.91,1.085l-26.083-5.823-14.2,22.643A.8.8,0,0,1,282.009,525.041Zm-18.838-47.975,18.98,45.451L295.829,500.7a.792.792,0,0,1,.849-.354l25.13,5.611-18.979-45.45Z" transform="translate(-261.333 -458.667)"/></g></g><circle class="d" cx="54.057" cy="54.057" r="54.057" transform="translate(0 106.717) rotate(-80.783)"/><path class="b" d="M271.318,494.342a54.854,54.854,0,1,1,54.853-54.854A54.917,54.917,0,0,1,271.318,494.342Zm0-108.114a53.26,53.26,0,1,0,53.259,53.26A53.321,53.321,0,0,0,271.318,386.228Z" transform="translate(-209.3 -377.47)"/><circle class="a" cx="48.843" cy="48.843" r="48.843" transform="translate(5.981 102.406) rotate(-80.783)"/><g transform="translate(7.033 7.033)"><circle class="e" cx="47.926" cy="47.926" r="47.926" transform="translate(0 94.615) rotate(-80.783)"/></g><g class="f" transform="translate(25.115 25.114)"><path class="g" d="M302.2,401.526a48.8,48.8,0,0,1-68.845,68.846A48.811,48.811,0,1,0,302.2,401.526Z" transform="translate(-233.356 -401.526)"/></g><g class="h" transform="translate(25.725 36.087)"><path class="g" d="M278.264,418.056q-.016,5.388-.011,10.765v4.739l-4.368,4.251V421.138l-4.027-.8c-6-1.169-12-2.348-18.023-3.539v67.086c-1.371-.542-2.72-1.148-4.027-1.817-.117-.064-.234-.117-.34-.181V419.533c-.159.149-.266.234-.351.319q-1.833,1.865-3.677,3.719c-1.573,1.6-3.167,3.209-4.75,4.814a1.27,1.27,0,0,0-.4,1q.016,17.9.011,35.8v10.574a46.717,46.717,0,0,1-4.027-3.783c-.117-.117-.223-.244-.34-.361v-6.291q0-18.969.011-37.916a.977.977,0,0,1,.234-.606l.085-.085,9.181-9.341q2.184-2.232,4.368-4.442l.1-.1c.255-.255.51-.521.765-.776a.568.568,0,0,1,.606-.191c4.187.84,8.384,1.658,12.582,2.487l12.38,2.423,3.56.7C278.169,417.546,278.264,417.695,278.264,418.056Z" transform="translate(-233.93 -411.852)"/><g transform="translate(22.001 7.669)"><path class="g" d="M300.792,458.723q-4.3-11.4-8.639-22.8c-1.052-2.784-2.115-5.558-3.177-8.342a1.749,1.749,0,0,0-1.987-1.265,1.79,1.79,0,0,0-.85.393,1.879,1.879,0,0,0-.648,1.328,2.465,2.465,0,0,0,.128.882,12.861,12.861,0,0,0,.542,1.435.639.639,0,0,1-.191.882q-8.5,7.269-16.981,14.559-4.862,4.176-9.723,8.363c-.255.213-.51.425-.808.669-.138-.351-.255-.638-.383-.925a1.747,1.747,0,0,0-2.178-1.084,1.808,1.808,0,0,0-1.158,2.348c.361,1.148.808,2.253,1.233,3.369.308.808.616,1.6.925,2.412.4,1.041.808,2.093,1.211,3.135a1.779,1.779,0,0,0,1.817,1.286,1.81,1.81,0,0,0,1.615-1.615,5.06,5.06,0,0,0-.2-1.3,4.45,4.45,0,0,0-.181-.521c.478-.064.914-.117,1.35-.159.3-.021.584-.053.882-.074.563-.042,1.116-.085,1.679-.149.361-.043.521.1.584.457a8.39,8.39,0,0,0,.457,1.594,6.312,6.312,0,0,0,1.594,2.38,6.435,6.435,0,0,0,7.343,1.5,7.069,7.069,0,0,0,4.378-6.663c.011-.383.106-.521.478-.553q7.4-.638,14.782-1.286c.616-.064,1.243-.1,1.86-.159a.5.5,0,0,1,.574.361c.2.563.4,1.126.638,1.679a1.757,1.757,0,0,0,2.062,1.052,1.792,1.792,0,0,0,1.328-1.743A4.955,4.955,0,0,0,300.792,458.723ZM272.886,464.2a3.276,3.276,0,0,1-2.242-.563,3.448,3.448,0,0,1-1.445-2.062c-.064-.319.085-.383.319-.4,1.594-.128,3.177-.276,4.761-.4h.032c.5-.043.988-.074,1.488-.106A3.483,3.483,0,0,1,272.886,464.2Z" transform="translate(-254.634 -418.616)"/><path class="g" d="M295.223,438.09l2.841-1.2q2.644-1.117,5.288-2.235a3.452,3.452,0,0,0,.477-.239,1.083,1.083,0,0,0,.464-1.323.944.944,0,0,0-1.253-.562c-1.054.414-2.1.863-3.141,1.306-1.761.748-3.523,1.5-5.278,2.258-.375.163-.742.357-.768.889A1.032,1.032,0,0,0,295.223,438.09Z" transform="translate(-252.176 -418.23)"/><path class="g" d="M296.659,419.94a1.027,1.027,0,0,0-1.524-.718,2.31,2.31,0,0,0-.506.492q-2.324,2.941-4.636,5.894a1.114,1.114,0,0,0,.034,1.542.91.91,0,0,0,1.435-.137c1.146-1.4,2.263-2.827,3.386-4.249.523-.661,1.049-1.32,1.534-2.011A3.042,3.042,0,0,0,296.659,419.94Z" transform="translate(-252.436 -419.069)"/><path class="g" d="M306.575,449.227a1.151,1.151,0,0,0-1.1-.911q-2.1-.268-4.2-.52c-1.022-.123-2.045-.244-3.068-.357a1.054,1.054,0,0,0-1.236.883,1.039,1.039,0,0,0,.935,1.186c-2.073-.3-.965-.1,4.518.56,1.022.122,2.045.248,3.068.351A.989.989,0,0,0,306.575,449.227Z" transform="translate(-251.983 -417.291)"/></g></g><g transform="translate(21.697 32.102)"><path class="i" d="M274.474,414.306v2.71q-.016,4.033-.011,8.055v4.739l-.34.329-4.027,3.921V417.388c-7.322-1.435-14.612-2.869-21.955-4.314-.032-.011-.064-.011-.1-.021v69.254c-.117-.064-.234-.117-.34-.181-1.381-.712-2.72-1.488-4.027-2.327l-9.171-7.587c-.117-.117-.223-.244-.34-.361a50.974,50.974,0,0,1-4.027-4.91v-5.366q0-18.969.011-37.916a.977.977,0,0,1,.234-.606q7.237-7.38,14.495-14.739a.569.569,0,0,1,.606-.191c4.187.84,8.384,1.658,12.582,2.487l15.94,3.124C274.379,413.8,274.474,413.945,274.474,414.306Z" transform="translate(-230.14 -408.102)"/><g transform="translate(22.007 11.362)"><path class="i" d="M297,454.973q-4.3-11.4-8.639-22.8-.988-2.614-1.987-5.228c-.383-1.041-.786-2.072-1.18-3.114a1.754,1.754,0,0,0-1.987-1.265,1.81,1.81,0,0,0-1.5,1.721,2.461,2.461,0,0,0,.117.882,12.919,12.919,0,0,0,.553,1.435.641.641,0,0,1-.2.882q-2.5,2.136-4.984,4.272-2.184,1.865-4.368,3.751l-7.619,6.535q-4.878,4.176-9.734,8.363c-.255.212-.51.425-.8.669-.149-.351-.266-.638-.383-.925a1.751,1.751,0,0,0-2.178-1.084,1.792,1.792,0,0,0-1.158,2.348c.351,1.148.808,2.253,1.233,3.369q1.052,2.774,2.125,5.547a1.791,1.791,0,0,0,1.828,1.286,1.86,1.86,0,0,0,.988-.436,1.66,1.66,0,0,0,.616-1.18,5.545,5.545,0,0,0-.191-1.3,4.907,4.907,0,0,0-.191-.521c.489-.064.925-.117,1.36-.159.85-.074,1.711-.128,2.561-.223.361-.043.521.1.584.457a7.086,7.086,0,0,0,1.753,3.677,2.52,2.52,0,0,0,.287.3,8.114,8.114,0,0,0,2.433,1.6,5.981,5.981,0,0,0,4.538.032,3.232,3.232,0,0,0,.372-.138A6.888,6.888,0,0,0,274.516,461a8.166,8.166,0,0,0,1.116-3.932c.021-.383.117-.521.478-.553q7.4-.638,14.782-1.286c.627-.064,1.243-.1,1.87-.159a.485.485,0,0,1,.563.361c.2.563.4,1.126.648,1.679a1.757,1.757,0,0,0,2.062,1.052,1.8,1.8,0,0,0,1.328-1.743A4.976,4.976,0,0,0,297,454.973Zm-31.582,2.848c-.074-.319.074-.383.319-.4,1.594-.128,3.188-.276,4.782-.4.5-.043,1-.074,1.5-.106a3.5,3.5,0,0,1-2.912,3.539A3.438,3.438,0,0,1,265.419,457.821Z" transform="translate(-250.849 -418.559)"/><path class="i" d="M294.184,437.815l2.842-1.2q2.644-1.116,5.288-2.235a3.7,3.7,0,0,0,.477-.238,1.084,1.084,0,0,0,.463-1.323.944.944,0,0,0-1.252-.563c-1.055.414-2.1.864-3.142,1.307-1.761.747-3.523,1.5-5.278,2.257-.374.163-.741.357-.768.891A1.032,1.032,0,0,0,294.184,437.815Z" transform="translate(-248.219 -417.954)"/><path class="i" d="M295.621,419.664a1.027,1.027,0,0,0-1.525-.717,2.256,2.256,0,0,0-.5.491q-2.326,2.943-4.637,5.895a1.116,1.116,0,0,0,.034,1.542.911.911,0,0,0,1.436-.137c1.146-1.4,2.262-2.828,3.385-4.25.523-.661,1.049-1.32,1.536-2.009A3.128,3.128,0,0,0,295.621,419.664Z" transform="translate(-248.479 -418.793)"/><path class="i" d="M306.559,448.294a1.153,1.153,0,0,0-1.1-.911q-2.1-.266-4.2-.52-1.533-.185-3.069-.357a1.052,1.052,0,0,0-1.235.883,1.039,1.039,0,0,0,.935,1.186c1.5.216,3.012.38,4.518.56,1.022.122,2.044.248,3.068.351A.989.989,0,0,0,306.559,448.294Z" transform="translate(-247.96 -417.057)"/></g></g><path class="j" d="M271.007,389.54A49.616,49.616,0,0,0,230.69,468.1a50.974,50.974,0,0,0,4.027,4.91c.117.117.223.244.34.361a46.717,46.717,0,0,0,4.027,3.783,48.677,48.677,0,0,0,5.143,3.8c1.307.839,2.646,1.615,4.027,2.327.106.064.223.117.34.181,1.307.669,2.657,1.275,4.027,1.817a49.2,49.2,0,0,0,18.384,3.539,49.642,49.642,0,0,0,0-99.285Zm0,97.691a47.725,47.725,0,0,1-18.384-3.656c-1.381-.574-2.72-1.211-4.027-1.9a3.5,3.5,0,0,1-.34-.191,45.419,45.419,0,0,1-4.027-2.423,48.313,48.313,0,0,1-5.143-4.006,46.593,46.593,0,0,1-4.027-4.038c-.117-.128-.234-.255-.34-.383a47.011,47.011,0,0,1-4.027-5.356,48.027,48.027,0,1,1,40.318,21.955Z" transform="translate(-208.992 -377.163)"/></g></g></svg>