<svg xmlns="http://www.w3.org/2000/svg" width="143.567" height="155.179" viewBox="0 0 143.567 155.179"><defs><style>.a{fill:#ffdc00;}.b{fill:#373737;}.c{fill:#285078;}.d{opacity:0.09;mix-blend-mode:multiply;isolation:isolate;}.e{fill:#0e2d47;}.f{opacity:0.42;}.g{fill:#fff;}</style></defs><g transform="translate(-1700.149 -2263)"><g transform="translate(1700.149 2263)"><g transform="translate(52.843 118.997)"><g transform="translate(0.798 0.797)"><path class="a" d="M465.2,525.211a.788.788,0,0,1-.371-.091l-10.349-5.442-10.35,5.442a.787.787,0,0,1-.37.091.8.8,0,0,1-.785-.932l1.975-11.525-8.373-8.161a.8.8,0,0,1,.442-1.359l11.571-1.682,5.174-10.485a.8.8,0,0,1,1.43,0l5.174,10.485,11.57,1.682a.8.8,0,0,1,.442,1.359l-8.372,8.161,1.975,11.525a.8.8,0,0,1-.785.932Z" transform="translate(-436.34 -490.622)"/></g><path class="b" d="M454.53,491.466l5.36,10.861,11.986,1.742-8.673,8.453,2.048,11.938-10.72-5.636-10.721,5.636,2.048-11.938-8.673-8.453,11.987-1.742,5.36-10.861m0-1.594a1.593,1.593,0,0,0-1.429.888l-4.99,10.11-11.156,1.621a1.595,1.595,0,0,0-.884,2.719l8.073,7.869-1.905,11.111a1.594,1.594,0,0,0,2.312,1.681l9.979-5.246,9.978,5.246a1.6,1.6,0,0,0,2.313-1.681l-1.906-11.111,8.073-7.869a1.594,1.594,0,0,0-.883-2.719l-11.157-1.621-4.989-10.11a1.594,1.594,0,0,0-1.429-.888Z" transform="translate(-435.589 -489.872)"/></g><g transform="translate(99.409 108.78)"><g transform="translate(0.797 0.797)"><path class="a" d="M501.029,506.2a.8.8,0,0,1-.371-.091l-7.3-3.836-7.3,3.836a.8.8,0,0,1-1.155-.841l1.393-8.124-5.9-5.753a.8.8,0,0,1,.442-1.359L489,488.843l3.647-7.391a.8.8,0,0,1,1.43,0l3.647,7.391,8.157,1.186a.8.8,0,0,1,.442,1.359l-5.9,5.753,1.394,8.124a.8.8,0,0,1-.785.932Z" transform="translate(-480.16 -481.008)"/></g><path class="b" d="M493.409,481.852l3.833,7.767,8.571,1.245-6.2,6.046,1.464,8.537-7.667-4.031-7.666,4.031,1.464-8.537-6.2-6.046,8.571-1.245,3.833-7.767m0-1.594a1.594,1.594,0,0,0-1.429.888l-3.462,7.016-7.743,1.125a1.593,1.593,0,0,0-.883,2.718l5.6,5.461-1.323,7.711a1.593,1.593,0,0,0,2.313,1.68l6.924-3.641,6.925,3.641a1.594,1.594,0,0,0,2.312-1.68l-1.323-7.711,5.6-5.461a1.593,1.593,0,0,0-.883-2.718l-7.742-1.125-3.463-7.016a1.593,1.593,0,0,0-1.429-.888Z" transform="translate(-479.41 -480.258)"/></g><g transform="translate(124.112 90.698)"><g transform="translate(0.798 0.797)"><path class="a" d="M517.363,481.056a.791.791,0,0,1-.371-.091l-4.657-2.447-4.657,2.447a.8.8,0,0,1-.838-.061.8.8,0,0,1-.318-.78l.889-5.184-3.766-3.672a.8.8,0,0,1,.442-1.359l5.2-.757,2.327-4.717a.8.8,0,0,1,1.43,0l2.328,4.717,5.2.757a.8.8,0,0,1,.442,1.359l-3.766,3.672.889,5.184a.8.8,0,0,1-.785.932Z" transform="translate(-503.406 -463.992)"/></g><path class="b" d="M512.383,464.836l2.513,5.092,5.62.817-4.067,3.964.961,5.6-5.027-2.642-5.026,2.642.96-5.6-4.067-3.964,5.62-.817,2.513-5.092m0-1.594h0a1.594,1.594,0,0,0-1.429.888l-2.142,4.341-4.79.7a1.595,1.595,0,0,0-.884,2.719l3.467,3.379-.818,4.771a1.594,1.594,0,0,0,2.312,1.68l4.285-2.253,4.286,2.253a1.594,1.594,0,0,0,2.312-1.68l-.818-4.771,3.466-3.379a1.594,1.594,0,0,0-.883-2.719l-4.792-.7-2.142-4.341a1.593,1.593,0,0,0-1.429-.888Z" transform="translate(-502.655 -463.242)"/></g><g transform="translate(16.159 108.78)"><g transform="translate(0.797 0.797)"><path class="a" d="M407.354,506.2a.8.8,0,0,1-.785-.932l1.393-8.124-5.9-5.753a.8.8,0,0,1,.442-1.359l8.156-1.186,3.648-7.391a.8.8,0,0,1,.715-.444h0a.8.8,0,0,1,.715.444l3.646,7.391,8.157,1.186a.8.8,0,0,1,.442,1.359l-5.9,5.753,1.394,8.124a.8.8,0,0,1-.785.932.8.8,0,0,1-.371-.091l-7.3-3.836-7.3,3.836A.807.807,0,0,1,407.354,506.2Z" transform="translate(-401.819 -481.008)"/></g><path class="b" d="M415.068,481.852l3.834,7.767,8.571,1.245-6.2,6.046,1.464,8.537-7.667-4.031-7.666,4.031,1.464-8.537-6.2-6.046,8.571-1.245,3.833-7.767m0-1.594a1.594,1.594,0,0,0-1.429.888l-3.462,7.016-7.743,1.125a1.594,1.594,0,0,0-.883,2.718l5.6,5.461-1.323,7.711a1.594,1.594,0,0,0,2.313,1.68l6.924-3.641,6.925,3.641a1.594,1.594,0,0,0,2.312-1.68l-1.322-7.711,5.6-5.461a1.594,1.594,0,0,0-.884-2.718l-7.742-1.125-3.462-7.016a1.6,1.6,0,0,0-1.43-.888Z" transform="translate(-401.069 -480.258)"/></g><g transform="translate(0 90.698)"><g transform="translate(0.797 0.797)"><path class="a" d="M400.57,481.056a.791.791,0,0,1-.371-.091l-4.657-2.447-4.657,2.447a.787.787,0,0,1-.37.091.8.8,0,0,1-.785-.932l.888-5.184-3.766-3.672a.8.8,0,0,1,.443-1.359l5.2-.757,2.327-4.717a.8.8,0,0,1,1.43,0l2.328,4.717,5.2.757a.8.8,0,0,1,.442,1.359l-3.766,3.672.889,5.184a.8.8,0,0,1-.785.932Z" transform="translate(-386.613 -463.992)"/></g><path class="b" d="M395.59,464.836l2.513,5.092,5.62.817-4.067,3.964.961,5.6-5.027-2.642-5.026,2.642.96-5.6-4.066-3.964,5.619-.817,2.513-5.092m0-1.594a1.594,1.594,0,0,0-1.429.888l-2.142,4.341-4.79.7a1.594,1.594,0,0,0-.883,2.719l3.466,3.379-.818,4.771a1.594,1.594,0,0,0,2.312,1.68l4.285-2.253,4.286,2.253a1.594,1.594,0,0,0,2.312-1.68l-.818-4.771,3.466-3.379a1.594,1.594,0,0,0-.883-2.719l-4.79-.7-2.143-4.341a1.593,1.593,0,0,0-1.429-.888Z" transform="translate(-385.863 -463.242)"/></g><g transform="translate(9.766)"><circle class="c" cx="54.057" cy="54.057" r="54.057" transform="translate(0 106.717) rotate(-80.783)"/><path class="b" d="M456.648,494.342A54.854,54.854,0,1,1,511.5,439.488,54.916,54.916,0,0,1,456.648,494.342Zm0-108.114a53.26,53.26,0,1,0,53.259,53.26A53.32,53.32,0,0,0,456.648,386.228Z" transform="translate(-394.63 -377.47)"/></g><circle class="a" cx="48.843" cy="48.843" r="48.843" transform="translate(15.747 102.406) rotate(-80.783)"/><g transform="translate(16.744 6.979)"><circle class="a" cx="47.974" cy="47.974" r="47.974" transform="translate(0 94.708) rotate(-80.783)"/></g><g class="d" transform="translate(34.88 25.114)"><path class="e" d="M487.532,401.526a48.8,48.8,0,0,1-68.846,68.846,48.811,48.811,0,1,0,68.846-68.846Z" transform="translate(-418.686 -401.526)"/></g><g transform="translate(31.464 32.102)"><g class="f" transform="translate(4.027 3.985)"><path class="c" d="M463.6,418.056q-.016,5.388-.011,10.765v4.739l-4.368,4.251V421.138l-4.027-.8c-6-1.169-12-2.348-18.023-3.539v67.086c-1.371-.542-2.72-1.148-4.027-1.817-.117-.064-.234-.117-.34-.181V419.533c-.159.149-.266.234-.351.319q-1.833,1.865-3.677,3.719c-1.573,1.6-3.167,3.209-4.75,4.814a1.27,1.27,0,0,0-.4,1q.016,17.9.011,35.8v10.574a46.715,46.715,0,0,1-4.028-3.783c-.117-.117-.223-.244-.34-.361v-6.291q0-18.969.011-37.916a.977.977,0,0,1,.234-.606l.085-.085,9.181-9.341q2.184-2.232,4.368-4.442l.1-.1c.255-.255.51-.521.765-.776a.568.568,0,0,1,.606-.191c4.187.84,8.384,1.658,12.582,2.487l12.38,2.423,3.56.7C463.5,417.546,463.6,417.695,463.6,418.056Z" transform="translate(-419.261 -411.852)"/><g transform="translate(22.001 7.669)"><path class="c" d="M486.123,458.723q-4.3-11.4-8.639-22.8c-1.052-2.784-2.115-5.558-3.177-8.342a1.749,1.749,0,0,0-1.987-1.265,1.79,1.79,0,0,0-.85.393,1.88,1.88,0,0,0-.648,1.328,2.466,2.466,0,0,0,.128.882,12.862,12.862,0,0,0,.542,1.435.639.639,0,0,1-.191.882q-8.5,7.269-16.981,14.559-4.862,4.176-9.723,8.363c-.255.213-.51.425-.808.669-.138-.351-.255-.638-.383-.925a1.747,1.747,0,0,0-2.178-1.084,1.808,1.808,0,0,0-1.158,2.348c.361,1.148.808,2.253,1.233,3.369.308.808.616,1.6.924,2.412.4,1.041.808,2.093,1.211,3.135a1.779,1.779,0,0,0,1.817,1.286,1.81,1.81,0,0,0,1.615-1.615,5.06,5.06,0,0,0-.2-1.3,4.456,4.456,0,0,0-.181-.521c.478-.064.914-.117,1.35-.159.3-.021.584-.053.882-.074.563-.042,1.116-.085,1.679-.149.361-.043.521.1.584.457a8.388,8.388,0,0,0,.457,1.594,6.312,6.312,0,0,0,1.594,2.38,6.435,6.435,0,0,0,7.343,1.5,7.069,7.069,0,0,0,4.378-6.663c.011-.383.106-.521.478-.553q7.4-.638,14.782-1.286c.616-.064,1.243-.1,1.86-.159a.5.5,0,0,1,.574.361c.2.563.4,1.126.638,1.679a1.757,1.757,0,0,0,2.062,1.052,1.792,1.792,0,0,0,1.328-1.743A4.955,4.955,0,0,0,486.123,458.723ZM458.217,464.2a3.276,3.276,0,0,1-2.242-.563,3.448,3.448,0,0,1-1.445-2.062c-.064-.319.085-.383.319-.4,1.594-.128,3.177-.276,4.761-.4h.032c.5-.043.988-.074,1.488-.106A3.484,3.484,0,0,1,458.217,464.2Z" transform="translate(-439.965 -418.616)"/><path class="c" d="M480.554,438.09l2.841-1.2q2.644-1.117,5.288-2.235a3.515,3.515,0,0,0,.477-.239,1.086,1.086,0,0,0,.464-1.323.944.944,0,0,0-1.253-.562c-1.054.414-2.1.863-3.141,1.306-1.762.748-3.523,1.5-5.278,2.258-.375.163-.742.357-.769.889A1.033,1.033,0,0,0,480.554,438.09Z" transform="translate(-437.507 -418.23)"/><path class="c" d="M481.99,419.94a1.028,1.028,0,0,0-1.525-.718,2.306,2.306,0,0,0-.5.492q-2.324,2.941-4.637,5.894a1.115,1.115,0,0,0,.035,1.542.91.91,0,0,0,1.435-.137c1.146-1.4,2.262-2.827,3.386-4.249.522-.661,1.049-1.32,1.535-2.011A3.08,3.08,0,0,0,481.99,419.94Z" transform="translate(-437.767 -419.069)"/><path class="c" d="M491.906,449.227a1.153,1.153,0,0,0-1.1-.911q-2.1-.268-4.2-.52c-1.022-.123-2.046-.244-3.069-.357a1.052,1.052,0,0,0-1.235.883,1.039,1.039,0,0,0,.935,1.186c-2.073-.3-.966-.1,4.517.56,1.022.122,2.045.248,3.069.351A.989.989,0,0,0,491.906,449.227Z" transform="translate(-437.314 -417.291)"/></g></g><path class="c" d="M459.805,414.306v2.71q-.016,4.033-.011,8.055v4.739l-.34.329-4.027,3.921V417.388c-7.322-1.435-14.612-2.869-21.955-4.314-.032-.011-.064-.011-.1-.021v69.254c-.117-.064-.234-.117-.34-.181-1.382-.712-2.72-1.488-4.028-2.327l-9.171-7.587c-.117-.117-.223-.244-.34-.361a50.973,50.973,0,0,1-4.027-4.91v-5.366q0-18.969.011-37.916a.977.977,0,0,1,.234-.606q7.237-7.38,14.495-14.739a.568.568,0,0,1,.606-.191c4.187.84,8.384,1.658,12.582,2.487l15.94,3.124C459.71,413.8,459.805,413.945,459.805,414.306Z" transform="translate(-415.471 -408.102)"/><g transform="translate(22.007 11.362)"><path class="c" d="M482.333,454.973q-4.3-11.4-8.639-22.8-.988-2.614-1.987-5.228c-.383-1.041-.786-2.072-1.18-3.114a1.754,1.754,0,0,0-1.987-1.265,1.81,1.81,0,0,0-1.5,1.721,2.46,2.46,0,0,0,.117.882,12.919,12.919,0,0,0,.553,1.435.641.641,0,0,1-.2.882q-2.5,2.136-4.984,4.272-2.184,1.865-4.368,3.751l-7.619,6.535q-4.878,4.176-9.734,8.363c-.255.212-.51.425-.8.669-.149-.351-.266-.638-.383-.925a1.751,1.751,0,0,0-2.178-1.084,1.792,1.792,0,0,0-1.158,2.348c.351,1.148.808,2.253,1.233,3.369q1.052,2.774,2.125,5.547a1.791,1.791,0,0,0,1.828,1.286,1.86,1.86,0,0,0,.988-.436,1.66,1.66,0,0,0,.616-1.18,5.544,5.544,0,0,0-.191-1.3,4.905,4.905,0,0,0-.191-.521c.489-.064.924-.117,1.36-.159.85-.074,1.711-.128,2.561-.223.361-.043.521.1.584.457a7.086,7.086,0,0,0,1.753,3.677,2.52,2.52,0,0,0,.287.3,8.114,8.114,0,0,0,2.434,1.6,5.981,5.981,0,0,0,4.538.032,3.235,3.235,0,0,0,.372-.138A6.888,6.888,0,0,0,459.847,461a8.166,8.166,0,0,0,1.116-3.932c.021-.383.117-.521.478-.553q7.4-.638,14.782-1.286c.627-.064,1.243-.1,1.87-.159a.485.485,0,0,1,.563.361c.2.563.4,1.126.648,1.679a1.757,1.757,0,0,0,2.062,1.052,1.8,1.8,0,0,0,1.328-1.743A4.975,4.975,0,0,0,482.333,454.973Zm-31.582,2.848c-.074-.319.074-.383.319-.4,1.594-.128,3.188-.276,4.782-.4.5-.043,1-.074,1.5-.106a3.5,3.5,0,0,1-2.912,3.539A3.438,3.438,0,0,1,450.75,457.821Z" transform="translate(-436.18 -418.559)"/><path class="c" d="M479.515,437.815l2.841-1.2q2.644-1.116,5.288-2.235a3.57,3.57,0,0,0,.477-.238,1.083,1.083,0,0,0,.464-1.323.945.945,0,0,0-1.253-.563c-1.054.414-2.1.864-3.141,1.307-1.761.747-3.523,1.5-5.278,2.257-.375.163-.742.357-.768.891A1.032,1.032,0,0,0,479.515,437.815Z" transform="translate(-433.55 -417.954)"/><path class="c" d="M480.951,419.664a1.027,1.027,0,0,0-1.524-.717,2.26,2.26,0,0,0-.506.491q-2.324,2.943-4.638,5.895a1.116,1.116,0,0,0,.035,1.542.91.91,0,0,0,1.435-.137c1.146-1.4,2.263-2.828,3.386-4.25.522-.661,1.049-1.32,1.534-2.009A3.049,3.049,0,0,0,480.951,419.664Z" transform="translate(-433.81 -418.793)"/><path class="c" d="M491.889,448.294a1.151,1.151,0,0,0-1.1-.911q-2.1-.266-4.2-.52-1.533-.185-3.069-.357a1.054,1.054,0,0,0-1.236.883,1.039,1.039,0,0,0,.936,1.186c1.5.216,3.01.38,4.517.56,1.022.122,2.045.248,3.069.351A.988.988,0,0,0,491.889,448.294Z" transform="translate(-433.291 -417.057)"/></g></g><path class="g" d="M456.34,488.821a49.64,49.64,0,1,1,49.64-49.64A49.7,49.7,0,0,1,456.34,488.821Zm0-97.687a48.046,48.046,0,1,0,48.046,48.046A48.1,48.1,0,0,0,456.34,391.134Z" transform="translate(-384.557 -377.163)"/></g></g></svg>