<svg xmlns="http://www.w3.org/2000/svg" width="33.396" height="40.064" viewBox="0 0 33.396 40.064"><defs><style>.a{fill:#ffdc00;}.b{fill:#373737;}.c{fill:#ffaf37;}.d{fill:#285078;}.e{fill:#19b6a7;}.f{fill:#11998b;}.g{opacity:0.42;}.h{fill:#0e2d47;}.i{fill:#fff;}</style></defs><g transform="translate(0 0)"><g transform="translate(10.483 25.745)"><path class="a" d="M78.108,468.623h-6v13.89l6-4.241,6,4.241v-13.89Z" transform="translate(-71.894 -468.408)"/><path class="b" d="M83.573,482.192a.214.214,0,0,1-.124-.039L77.573,478,71.7,482.153a.215.215,0,0,1-.338-.175v-13.89a.215.215,0,0,1,.215-.215h12a.215.215,0,0,1,.215.215v13.89a.215.215,0,0,1-.215.215Zm-6-4.67a.216.216,0,0,1,.124.039l5.661,4V468.3H71.787v13.261l5.662-4A.215.215,0,0,1,77.573,477.523Z" transform="translate(-71.358 -467.873)"/><g transform="translate(0.213 2.419)"><path class="c" d="M84.107,476.326v5.556a23.692,23.692,0,0,1-12-.4v-5.159Z" transform="translate(-72.104 -476.326)"/></g><path class="b" d="M83.573,482.192a.214.214,0,0,1-.124-.039L77.573,478,71.7,482.153a.215.215,0,0,1-.338-.175v-13.89a.215.215,0,0,1,.215-.215h12a.215.215,0,0,1,.215.215v13.89a.215.215,0,0,1-.215.215Zm-6-4.67a.216.216,0,0,1,.124.039l5.661,4V468.3H71.787v13.261l5.662-4A.215.215,0,0,1,77.573,477.523Z" transform="translate(-71.358 -467.873)"/></g><g transform="translate(0)"><circle class="d" cx="14.554" cy="14.554" r="14.554" transform="translate(0 28.733) rotate(-80.783)"/><path class="b" d="M56.229,414.172A14.769,14.769,0,1,1,71,399.4,14.786,14.786,0,0,1,56.229,414.172Zm0-29.109a14.34,14.34,0,1,0,14.34,14.34A14.356,14.356,0,0,0,56.229,385.063Z" transform="translate(-39.531 -382.705)"/></g><g transform="translate(1.61 1.61)"><circle class="e" cx="13.151" cy="13.151" r="13.151" transform="translate(0 25.962) rotate(-80.783)"/></g><g transform="translate(7.046 7.017)"><path class="f" d="M77.522,402.417A13,13,0,0,1,67.7,423.928a12.394,12.394,0,0,1-8.349-3,12.5,12.5,0,0,0,9.67,4.324,13,13,0,0,0,8.506-22.832Z" transform="translate(-59.346 -402.417)"/></g><g transform="translate(6.976 8.643)"><g class="g" transform="translate(1.084 1.073)"><path class="h" d="M74.827,413.522q0,1.451,0,2.9V417.7l-1.176,1.145v-4.489l-1.084-.215c-1.617-.315-3.23-.632-4.853-.953v18.46c-.4-.12-.793-.257-1.176-.415V413.92c-.043.04-.072.063-.094.086q-.494.5-.99,1c-.423.432-.853.864-1.279,1.3a.342.342,0,0,0-.109.269q0,4.82,0,9.639v3.4A12.255,12.255,0,0,1,63,428.557L63,428.549a.074.074,0,0,0-.014-.017c-.031-.034-.06-.069-.092-.1v-2.18q0-5.107,0-10.209a.263.263,0,0,1,.063-.163l.023-.023,2.472-2.515q.588-.6,1.176-1.2l.026-.026c.069-.069.137-.14.206-.209a.153.153,0,0,1,.163-.051c1.127.226,2.257.446,3.388.669l3.333.652.958.189C74.8,413.385,74.827,413.425,74.827,413.522Z" transform="translate(-62.89 -411.852)"/><g transform="translate(5.924 2.065)"><path class="h" d="M96.022,435.02q-1.159-3.069-2.326-6.14c-.283-.75-.569-1.5-.855-2.246a.471.471,0,0,0-.535-.34.482.482,0,0,0-.229.106.506.506,0,0,0-.175.358.664.664,0,0,0,.034.238,3.466,3.466,0,0,0,.146.386.172.172,0,0,1-.052.238q-2.292,1.957-4.572,3.92-1.309,1.124-2.618,2.252l-.217.18c-.04-.094-.069-.172-.1-.249a.47.47,0,0,0-.587-.292.487.487,0,0,0-.312.632c.1.309.217.607.332.907l.249.65c.106.28.215.564.323.844a.484.484,0,0,0,.492.346.49.49,0,0,0,.435-.435,1.363,1.363,0,0,0-.054-.349,1.2,1.2,0,0,0-.049-.14c.129-.017.246-.031.363-.043.08-.006.157-.014.237-.02.152-.011.3-.023.452-.04.1-.011.14.026.157.123a2.259,2.259,0,0,0,.123.429,1.7,1.7,0,0,0,.429.641,1.733,1.733,0,0,0,1.977.4,1.9,1.9,0,0,0,1.179-1.794c0-.1.029-.14.129-.149l3.98-.346c.166-.017.335-.026.5-.043a.134.134,0,0,1,.155.1c.054.152.109.3.172.452a.473.473,0,0,0,.555.283.483.483,0,0,0,.358-.469A1.433,1.433,0,0,0,96.022,435.02Zm-7.513,1.474a.882.882,0,0,1-.6-.152.928.928,0,0,1-.389-.555c-.017-.086.023-.1.086-.109.429-.034.855-.074,1.282-.109h.009c.134-.012.266-.02.4-.029A.938.938,0,0,1,88.508,436.494Z" transform="translate(-83.594 -424.222)"/><path class="h" d="M123.179,433.975l.765-.323,1.424-.6a.953.953,0,0,0,.128-.064.292.292,0,0,0,.125-.356.254.254,0,0,0-.337-.151c-.284.112-.565.232-.846.352-.474.2-.948.4-1.421.608-.1.044-.2.1-.207.239A.278.278,0,0,0,123.179,433.975Z" transform="translate(-111.589 -428.628)"/><path class="h" d="M120.534,419.3a.277.277,0,0,0-.411-.193.615.615,0,0,0-.136.133q-.626.792-1.249,1.587a.3.3,0,0,0,.009.415.245.245,0,0,0,.387-.037c.308-.377.609-.761.912-1.144.14-.178.282-.355.413-.541A.84.84,0,0,0,120.534,419.3Z" transform="translate(-108.627 -419.069)"/><path class="h" d="M128.489,447.914a.31.31,0,0,0-.3-.245q-.565-.072-1.13-.14c-.275-.033-.551-.066-.826-.1a.284.284,0,0,0-.333.238.28.28,0,0,0,.252.319c-.558-.08-.26-.026,1.216.151.275.033.55.067.826.094A.266.266,0,0,0,128.489,447.914Z" transform="translate(-113.791 -439.316)"/></g></g><path class="i" d="M71.037,409.772q0,1.451,0,2.9v1.276l-1.176,1.144V410.6c-1.98-.389-3.951-.775-5.937-1.167v18.695a13,13,0,0,1-1.176-.555v-17.4c-.043.04-.072.063-.094.086q-1.133,1.15-2.269,2.3a.342.342,0,0,0-.109.269q0,4.82,0,9.639v3.4a12.373,12.373,0,0,1-1.176-1.179V422.5q0-5.107,0-10.208a.263.263,0,0,1,.063-.163q1.948-1.987,3.9-3.968a.153.153,0,0,1,.163-.051c1.127.226,2.257.446,3.388.67l4.292.841C71.011,409.635,71.037,409.675,71.037,409.772Z" transform="translate(-59.1 -408.102)"/><path class="i" d="M73.016,476.715v.32c-.395,0-.778-.544-1.176-.544v-.332A12.983,12.983,0,0,0,73.016,476.715Z" transform="translate(-68.195 -456.688)"/><g transform="translate(5.925 3.059)"><path class="i" d="M92.235,431.27q-1.159-3.069-2.326-6.14-.266-.7-.535-1.408c-.1-.28-.212-.558-.318-.838a.472.472,0,0,0-.535-.34.493.493,0,0,0-.406.463.734.734,0,0,0,.034.237,3.481,3.481,0,0,0,.149.386.175.175,0,0,1-.054.237q-.674.575-1.342,1.15-.588.5-1.176,1.01l-2.051,1.76q-1.313,1.124-2.621,2.252l-.215.18c-.04-.094-.072-.172-.1-.249a.473.473,0,0,0-.587-.292.482.482,0,0,0-.312.632c.094.309.217.607.332.907q.283.747.572,1.493a.482.482,0,0,0,.492.346.5.5,0,0,0,.266-.117.447.447,0,0,0,.166-.318,1.363,1.363,0,0,0-.054-.349.824.824,0,0,0-.049-.14c.132-.017.249-.031.366-.043.229-.02.458-.034.687-.06.1-.011.143.026.16.123a1.908,1.908,0,0,0,.472.99.678.678,0,0,0,.077.08,2.185,2.185,0,0,0,.655.432,1.61,1.61,0,0,0,1.222.009.855.855,0,0,0,.1-.037,1.855,1.855,0,0,0,.878-.735,2.2,2.2,0,0,0,.3-1.059c.006-.1.031-.14.129-.149q1.991-.172,3.98-.346c.169-.017.335-.026.5-.043a.131.131,0,0,1,.152.1c.054.152.109.3.175.452a.473.473,0,0,0,.555.283.486.486,0,0,0,.358-.469A1.339,1.339,0,0,0,92.235,431.27Zm-8.5.767c-.02-.086.02-.1.086-.109.429-.034.858-.074,1.288-.109.134-.011.269-.02.4-.029a.943.943,0,0,1-.784.953A.924.924,0,0,1,83.732,432.037Z" transform="translate(-79.809 -421.466)"/><path class="i" d="M122.14,433.7l.765-.323,1.424-.6a.973.973,0,0,0,.128-.064.292.292,0,0,0,.125-.356.254.254,0,0,0-.337-.152c-.284.112-.564.233-.846.352q-.712.3-1.421.608c-.1.044-.2.1-.207.24A.278.278,0,0,0,122.14,433.7Z" transform="translate(-109.764 -428.352)"/><path class="i" d="M119.5,419.028a.277.277,0,0,0-.411-.193.614.614,0,0,0-.136.132q-.626.792-1.249,1.587a.3.3,0,0,0,.009.415.245.245,0,0,0,.386-.037c.308-.377.609-.761.912-1.144.141-.178.282-.355.413-.541A.83.83,0,0,0,119.5,419.028Z" transform="translate(-106.803 -418.793)"/><path class="i" d="M128.495,446.981a.31.31,0,0,0-.3-.245q-.564-.072-1.13-.14-.413-.05-.826-.1a.284.284,0,0,0-.333.238.28.28,0,0,0,.252.319c.4.058.811.1,1.217.151.275.033.551.067.826.094A.266.266,0,0,0,128.495,446.981Z" transform="translate(-112.718 -438.571)"/></g></g><g transform="translate(6.976 8.643)"><path class="i" d="M71.037,409.772q0,1.451,0,2.9v1.276l-1.176,1.144V410.6c-1.98-.389-3.951-.775-5.937-1.167v18.695a13,13,0,0,1-1.176-.555l-1.313-.564-1.156-1.152a12.373,12.373,0,0,1-1.176-1.179V422.5q0-5.107,0-10.208a.263.263,0,0,1,.063-.163q1.948-1.987,3.9-3.968a.153.153,0,0,1,.163-.051c1.127.226,2.257.446,3.388.67l4.292.841C71.011,409.635,71.037,409.675,71.037,409.772Z" transform="translate(-59.1 -408.102)"/><path class="i" d="M73.016,476.715v.32c-.395,0-.778-.544-1.176-.544v-.332A12.983,12.983,0,0,0,73.016,476.715Z" transform="translate(-68.195 -456.688)"/><g transform="translate(5.925 3.059)"><path class="i" d="M92.235,431.27q-1.159-3.069-2.326-6.14-.266-.7-.535-1.408c-.1-.28-.212-.558-.318-.838a.472.472,0,0,0-.535-.34.493.493,0,0,0-.406.463.734.734,0,0,0,.034.237,3.481,3.481,0,0,0,.149.386.175.175,0,0,1-.054.237q-.674.575-1.342,1.15-.588.5-1.176,1.01l-2.051,1.76q-1.313,1.124-2.621,2.252l-.215.18c-.04-.094-.072-.172-.1-.249a.473.473,0,0,0-.587-.292.482.482,0,0,0-.312.632c.094.309.217.607.332.907q.283.747.572,1.493a.482.482,0,0,0,.492.346.5.5,0,0,0,.266-.117.447.447,0,0,0,.166-.318,1.363,1.363,0,0,0-.054-.349.824.824,0,0,0-.049-.14c.132-.017.249-.031.366-.043.229-.02.458-.034.687-.06.1-.011.143.026.16.123a1.908,1.908,0,0,0,.472.99.678.678,0,0,0,.077.08,2.185,2.185,0,0,0,.655.432,1.61,1.61,0,0,0,1.222.009.855.855,0,0,0,.1-.037,1.855,1.855,0,0,0,.878-.735,2.2,2.2,0,0,0,.3-1.059c.006-.1.031-.14.129-.149q1.991-.172,3.98-.346c.169-.017.335-.026.5-.043a.131.131,0,0,1,.152.1c.054.152.109.3.175.452a.473.473,0,0,0,.555.283.486.486,0,0,0,.358-.469A1.339,1.339,0,0,0,92.235,431.27Zm-8.5.767c-.02-.086.02-.1.086-.109.429-.034.858-.074,1.288-.109.134-.011.269-.02.4-.029a.943.943,0,0,1-.784.953A.924.924,0,0,1,83.732,432.037Z" transform="translate(-79.809 -421.466)"/><path class="i" d="M122.14,433.7l.765-.323,1.424-.6a.973.973,0,0,0,.128-.064.292.292,0,0,0,.125-.356.254.254,0,0,0-.337-.152c-.284.112-.564.233-.846.352q-.712.3-1.421.608c-.1.044-.2.1-.207.24A.278.278,0,0,0,122.14,433.7Z" transform="translate(-109.764 -428.352)"/><path class="i" d="M119.5,419.028a.277.277,0,0,0-.411-.193.614.614,0,0,0-.136.132q-.626.792-1.249,1.587a.3.3,0,0,0,.009.415.245.245,0,0,0,.386-.037c.308-.377.609-.761.912-1.144.141-.178.282-.355.413-.541A.83.83,0,0,0,119.5,419.028Z" transform="translate(-106.803 -418.793)"/><path class="i" d="M128.495,446.981a.31.31,0,0,0-.3-.245q-.564-.072-1.13-.14-.413-.05-.826-.1a.284.284,0,0,0-.333.238.28.28,0,0,0,.252.319c.4.058.811.1,1.217.151.275.033.551.067.826.094A.266.266,0,0,0,128.495,446.981Z" transform="translate(-112.718 -438.571)"/></g></g><g transform="translate(3.334 3.332)"><path class="i" d="M59.734,389.54A13.365,13.365,0,0,0,54.742,415.3c.383.157.775.295,1.176.415a13.366,13.366,0,1,0,3.817-26.177Zm0,26.3a12.852,12.852,0,0,1-3.817-.575c-.369-.114-.73-.246-1.084-.389-.031-.011-.06-.026-.092-.04-.094-.04-.186-.077-.278-.12s-.183-.08-.272-.126c-.18-.086-.358-.175-.535-.269a12.959,12.959,0,0,1-2.446-1.694l-.009-.009c-.006-.006-.009-.012-.014-.014a12.361,12.361,0,0,1-1.176-1.179,12.928,12.928,0,1,1,9.722,4.415Z" transform="translate(-46.37 -389.54)"/></g></g></svg>