<svg xmlns="http://www.w3.org/2000/svg" width="124.035" height="148.803" viewBox="0 0 124.035 148.803"><defs><style>.a{fill:#ffdc00;}.b{fill:#373737;}.c{fill:#ffaf37;}.d{fill:#285078;}.e{fill:#19b6a7;}.f{fill:#11998b;}.g{opacity:0.42;}.h{fill:#0e2d47;}.i{fill:#fff;}</style></defs><g transform="translate(-1327 -2263)"><g transform="translate(1327 2263)"><g transform="translate(38.935 95.619)"><path class="a" d="M94.393,468.623H72.108v51.59l22.285-15.75,22.285,15.75v-51.59Z" transform="translate(-71.311 -467.826)"/><path class="b" d="M116.724,521.057a.8.8,0,0,1-.46-.147L94.44,505.486,72.615,520.911a.8.8,0,0,1-1.257-.65V468.67a.8.8,0,0,1,.8-.8h44.569a.8.8,0,0,1,.8.8v51.59a.8.8,0,0,1-.8.8ZM94.44,503.714a.8.8,0,0,1,.46.146l21.027,14.862V469.467H72.952v49.255L93.98,503.859A.8.8,0,0,1,94.44,503.714Z" transform="translate(-71.358 -467.873)"/><g transform="translate(0.793 8.983)"><path class="c" d="M116.684,476.326v20.635a86.054,86.054,0,0,1-30.344,1.509A86.8,86.8,0,0,1,72.1,495.487V476.326Z" transform="translate(-72.104 -476.326)"/></g><path class="b" d="M116.724,521.057a.8.8,0,0,1-.46-.147L94.44,505.486,72.615,520.911a.8.8,0,0,1-1.257-.65V468.67a.8.8,0,0,1,.8-.8h44.569a.8.8,0,0,1,.8.8v51.59a.8.8,0,0,1-.8.8ZM94.44,503.714a.8.8,0,0,1,.46.146l21.027,14.862V469.467H72.952v49.255L93.98,503.859A.8.8,0,0,1,94.44,503.714Z" transform="translate(-71.358 -467.873)"/></g><circle class="d" cx="54.057" cy="54.057" r="54.057" transform="translate(0 106.717) rotate(-80.783)"/><path class="b" d="M96.314,494.342a54.854,54.854,0,1,1,54.854-54.854A54.916,54.916,0,0,1,96.314,494.342Zm0-108.114a53.26,53.26,0,1,0,53.26,53.26A53.32,53.32,0,0,0,96.314,386.228Z" transform="translate(-34.296 -377.47)"/><g transform="translate(5.981 5.981)"><circle class="e" cx="48.843" cy="48.843" r="48.843" transform="translate(0 96.425) rotate(-80.783)"/></g><g transform="translate(26.17 26.061)"><path class="f" d="M126.853,402.417a48.266,48.266,0,0,1-36.5,79.895c-12.072,0-22.535-3.805-31.011-11.153,8.864,10.226,21.353,16.058,35.916,16.058a48.272,48.272,0,0,0,31.591-84.8Z" transform="translate(-59.346 -402.417)"/></g><g transform="translate(25.909 32.102)"><g class="g" transform="translate(4.028 3.985)"><path class="h" d="M107.224,418.056q-.016,5.388-.011,10.765v4.739l-4.368,4.251V421.138l-4.028-.8c-6-1.169-12-2.348-18.023-3.539v68.563c-1.488-.446-2.944-.956-4.368-1.541V419.533c-.159.149-.266.234-.351.319q-1.833,1.865-3.677,3.719c-1.573,1.6-3.167,3.209-4.75,4.814a1.27,1.27,0,0,0-.4,1q.016,17.9.011,35.8V477.8a45.508,45.508,0,0,1-3.942-3.9l-.032-.032a.282.282,0,0,0-.053-.064c-.117-.128-.223-.255-.34-.383v-8.1q0-18.969.011-37.916a.977.977,0,0,1,.234-.606l.085-.085,9.181-9.341q2.184-2.232,4.368-4.442l.1-.1c.255-.255.51-.521.765-.776a.568.568,0,0,1,.606-.191c4.187.84,8.384,1.658,12.582,2.487l12.38,2.423,3.56.7C107.129,417.546,107.224,417.695,107.224,418.056Z" transform="translate(-62.89 -411.852)"/><g transform="translate(22.001 7.669)"><path class="h" d="M129.752,458.723q-4.3-11.4-8.639-22.8c-1.052-2.784-2.115-5.558-3.177-8.342a1.749,1.749,0,0,0-1.987-1.265,1.79,1.79,0,0,0-.85.393,1.88,1.88,0,0,0-.648,1.328,2.467,2.467,0,0,0,.128.882,12.866,12.866,0,0,0,.542,1.435.639.639,0,0,1-.191.882q-8.512,7.269-16.981,14.559-4.862,4.176-9.723,8.363c-.255.213-.51.425-.808.669-.149-.351-.255-.638-.383-.925a1.747,1.747,0,0,0-2.178-1.084,1.808,1.808,0,0,0-1.158,2.348c.361,1.148.808,2.253,1.233,3.369.308.808.616,1.6.925,2.412.393,1.041.8,2.093,1.2,3.135a1.8,1.8,0,0,0,1.828,1.286,1.82,1.82,0,0,0,1.615-1.615,5.059,5.059,0,0,0-.2-1.3,4.455,4.455,0,0,0-.181-.521c.478-.064.914-.117,1.35-.159.3-.021.584-.053.882-.074.563-.042,1.116-.085,1.679-.149.361-.043.521.1.584.457a8.387,8.387,0,0,0,.457,1.594,6.312,6.312,0,0,0,1.594,2.38,6.435,6.435,0,0,0,7.343,1.5,7.069,7.069,0,0,0,4.378-6.663c.011-.383.106-.521.478-.553q7.38-.638,14.782-1.286c.616-.064,1.243-.1,1.86-.159a.5.5,0,0,1,.574.361c.2.563.4,1.126.638,1.679a1.757,1.757,0,0,0,2.062,1.052,1.792,1.792,0,0,0,1.328-1.743A5.32,5.32,0,0,0,129.752,458.723ZM101.846,464.2a3.276,3.276,0,0,1-2.242-.563,3.448,3.448,0,0,1-1.445-2.062c-.064-.319.085-.383.319-.4,1.594-.128,3.177-.276,4.761-.4h.032c.5-.043.988-.074,1.488-.106A3.483,3.483,0,0,1,101.846,464.2Z" transform="translate(-83.594 -418.616)"/><path class="h" d="M124.182,438.09l2.842-1.2q2.644-1.117,5.288-2.235a3.574,3.574,0,0,0,.477-.239,1.084,1.084,0,0,0,.463-1.323.943.943,0,0,0-1.252-.562c-1.055.414-2.1.863-3.142,1.306-1.761.748-3.522,1.5-5.278,2.258-.374.163-.741.357-.768.889A1.032,1.032,0,0,0,124.182,438.09Z" transform="translate(-81.136 -418.23)"/><path class="h" d="M125.619,419.94a1.028,1.028,0,0,0-1.525-.718,2.282,2.282,0,0,0-.5.492q-2.326,2.941-4.637,5.894a1.115,1.115,0,0,0,.034,1.542.911.911,0,0,0,1.436-.137c1.146-1.4,2.262-2.827,3.386-4.249.522-.661,1.048-1.32,1.535-2.011A3.119,3.119,0,0,0,125.619,419.94Z" transform="translate(-81.396 -419.069)"/><path class="h" d="M135.534,449.227a1.151,1.151,0,0,0-1.1-.911q-2.1-.268-4.2-.52c-1.022-.123-2.046-.244-3.069-.357a1.054,1.054,0,0,0-1.236.883,1.041,1.041,0,0,0,.936,1.186c-2.073-.3-.966-.1,4.517.56,1.022.122,2.045.248,3.069.351A.988.988,0,0,0,135.534,449.227Z" transform="translate(-80.943 -417.291)"/></g></g><path class="i" d="M103.434,414.306q-.016,5.388-.011,10.765v4.739l-4.368,4.251V417.388c-7.354-1.445-14.675-2.88-22.05-4.336v69.435a48.264,48.264,0,0,1-4.368-2.062V415.783c-.159.149-.266.234-.351.319q-4.208,4.272-8.427,8.533a1.27,1.27,0,0,0-.4,1q.016,17.9.011,35.8v12.614a45.906,45.906,0,0,1-4.368-4.378v-8.1q0-18.969.011-37.916a.977.977,0,0,1,.234-.606q7.237-7.38,14.495-14.739a.568.568,0,0,1,.606-.191c4.187.84,8.384,1.658,12.582,2.487l15.94,3.124C103.339,413.8,103.434,413.945,103.434,414.306Z" transform="translate(-59.1 -408.102)"/><path class="i" d="M76.208,478.222v1.19c-1.466,0-2.89-2.019-4.368-2.019V476.16A48.264,48.264,0,0,0,76.208,478.222Z" transform="translate(-58.302 -403.837)"/><g transform="translate(22.007 11.362)"><path class="i" d="M125.962,454.973q-4.3-11.4-8.639-22.8-.988-2.614-1.987-5.228c-.383-1.041-.786-2.072-1.18-3.114a1.754,1.754,0,0,0-1.987-1.265,1.83,1.83,0,0,0-1.509,1.721,2.728,2.728,0,0,0,.128.882,12.917,12.917,0,0,0,.553,1.435.651.651,0,0,1-.2.882q-2.5,2.136-4.984,4.272-2.184,1.865-4.368,3.751l-7.619,6.535q-4.878,4.176-9.734,8.363c-.255.212-.51.425-.8.669-.149-.351-.266-.638-.383-.925a1.755,1.755,0,0,0-2.178-1.084,1.792,1.792,0,0,0-1.158,2.348c.351,1.148.808,2.253,1.233,3.369q1.052,2.774,2.125,5.547a1.791,1.791,0,0,0,1.828,1.286,1.86,1.86,0,0,0,.988-.436,1.66,1.66,0,0,0,.616-1.18,5.06,5.06,0,0,0-.2-1.3,3.077,3.077,0,0,0-.181-.521c.489-.064.925-.117,1.36-.159.85-.074,1.7-.128,2.55-.223.372-.043.531.1.6.457a7.086,7.086,0,0,0,1.753,3.677,2.518,2.518,0,0,0,.287.3,8.114,8.114,0,0,0,2.434,1.6,5.981,5.981,0,0,0,4.538.032,3.232,3.232,0,0,0,.372-.138A6.888,6.888,0,0,0,103.476,461a8.166,8.166,0,0,0,1.116-3.932c.021-.383.117-.521.478-.553q7.4-.638,14.782-1.286c.627-.064,1.243-.1,1.87-.159a.485.485,0,0,1,.563.361c.2.563.4,1.126.648,1.679a1.757,1.757,0,0,0,2.062,1.052,1.8,1.8,0,0,0,1.328-1.743A4.976,4.976,0,0,0,125.962,454.973Zm-31.582,2.848c-.074-.319.074-.383.319-.4,1.594-.128,3.188-.276,4.782-.4.5-.043,1-.074,1.5-.106a3.5,3.5,0,0,1-2.912,3.539A3.431,3.431,0,0,1,94.379,457.821Z" transform="translate(-79.809 -418.559)"/><path class="i" d="M123.144,437.815l2.84-1.2q2.644-1.116,5.288-2.235a3.635,3.635,0,0,0,.477-.238,1.086,1.086,0,0,0,.464-1.323.945.945,0,0,0-1.253-.563c-1.054.414-2.1.864-3.141,1.307-1.762.747-3.523,1.5-5.278,2.257-.375.163-.742.357-.769.891A1.033,1.033,0,0,0,123.144,437.815Z" transform="translate(-77.179 -417.954)"/><path class="i" d="M124.58,419.664a1.027,1.027,0,0,0-1.525-.717,2.278,2.278,0,0,0-.5.491q-2.324,2.943-4.637,5.895a1.115,1.115,0,0,0,.035,1.542.91.91,0,0,0,1.435-.137c1.146-1.4,2.262-2.828,3.386-4.25.522-.661,1.049-1.32,1.535-2.009A3.088,3.088,0,0,0,124.58,419.664Z" transform="translate(-77.439 -418.793)"/><path class="i" d="M135.518,448.294a1.151,1.151,0,0,0-1.1-.911q-2.1-.266-4.2-.52-1.533-.185-3.068-.357a1.054,1.054,0,0,0-1.236.883,1.039,1.039,0,0,0,.935,1.186c1.5.216,3.012.38,4.518.56,1.022.122,2.045.248,3.068.351A.989.989,0,0,0,135.518,448.294Z" transform="translate(-76.92 -417.057)"/></g></g><g transform="translate(25.909 32.102)"><path class="i" d="M103.434,414.306q-.016,5.388-.011,10.765v4.739l-4.368,4.251V417.388c-7.354-1.445-14.675-2.88-22.05-4.336v69.435a48.264,48.264,0,0,1-4.368-2.062l-4.878-2.1-4.293-4.28a45.906,45.906,0,0,1-4.368-4.378v-8.1q0-18.969.011-37.916a.977.977,0,0,1,.234-.606q7.237-7.38,14.495-14.739a.568.568,0,0,1,.606-.191c4.187.84,8.384,1.658,12.582,2.487l15.94,3.124C103.339,413.8,103.434,413.945,103.434,414.306Z" transform="translate(-59.1 -408.102)"/><path class="i" d="M76.208,478.222v1.19c-1.466,0-2.89-2.019-4.368-2.019V476.16A48.264,48.264,0,0,0,76.208,478.222Z" transform="translate(-58.302 -403.837)"/><g transform="translate(22.007 11.362)"><path class="i" d="M125.962,454.973q-4.3-11.4-8.639-22.8-.988-2.614-1.987-5.228c-.383-1.041-.786-2.072-1.18-3.114a1.754,1.754,0,0,0-1.987-1.265,1.83,1.83,0,0,0-1.509,1.721,2.728,2.728,0,0,0,.128.882,12.917,12.917,0,0,0,.553,1.435.651.651,0,0,1-.2.882q-2.5,2.136-4.984,4.272-2.184,1.865-4.368,3.751l-7.619,6.535q-4.878,4.176-9.734,8.363c-.255.212-.51.425-.8.669-.149-.351-.266-.638-.383-.925a1.755,1.755,0,0,0-2.178-1.084,1.792,1.792,0,0,0-1.158,2.348c.351,1.148.808,2.253,1.233,3.369q1.052,2.774,2.125,5.547a1.791,1.791,0,0,0,1.828,1.286,1.86,1.86,0,0,0,.988-.436,1.66,1.66,0,0,0,.616-1.18,5.06,5.06,0,0,0-.2-1.3,3.077,3.077,0,0,0-.181-.521c.489-.064.925-.117,1.36-.159.85-.074,1.7-.128,2.55-.223.372-.043.531.1.6.457a7.086,7.086,0,0,0,1.753,3.677,2.518,2.518,0,0,0,.287.3,8.114,8.114,0,0,0,2.434,1.6,5.981,5.981,0,0,0,4.538.032,3.232,3.232,0,0,0,.372-.138A6.888,6.888,0,0,0,103.476,461a8.166,8.166,0,0,0,1.116-3.932c.021-.383.117-.521.478-.553q7.4-.638,14.782-1.286c.627-.064,1.243-.1,1.87-.159a.485.485,0,0,1,.563.361c.2.563.4,1.126.648,1.679a1.757,1.757,0,0,0,2.062,1.052,1.8,1.8,0,0,0,1.328-1.743A4.976,4.976,0,0,0,125.962,454.973Zm-31.582,2.848c-.074-.319.074-.383.319-.4,1.594-.128,3.188-.276,4.782-.4.5-.043,1-.074,1.5-.106a3.5,3.5,0,0,1-2.912,3.539A3.431,3.431,0,0,1,94.379,457.821Z" transform="translate(-79.809 -418.559)"/><path class="i" d="M123.144,437.815l2.84-1.2q2.644-1.116,5.288-2.235a3.635,3.635,0,0,0,.477-.238,1.086,1.086,0,0,0,.464-1.323.945.945,0,0,0-1.253-.563c-1.054.414-2.1.864-3.141,1.307-1.762.747-3.523,1.5-5.278,2.257-.375.163-.742.357-.769.891A1.033,1.033,0,0,0,123.144,437.815Z" transform="translate(-77.179 -417.954)"/><path class="i" d="M124.58,419.664a1.027,1.027,0,0,0-1.525-.717,2.278,2.278,0,0,0-.5.491q-2.324,2.943-4.637,5.895a1.115,1.115,0,0,0,.035,1.542.91.91,0,0,0,1.435-.137c1.146-1.4,2.262-2.828,3.386-4.25.522-.661,1.049-1.32,1.535-2.009A3.088,3.088,0,0,0,124.58,419.664Z" transform="translate(-77.439 -418.793)"/><path class="i" d="M135.518,448.294a1.151,1.151,0,0,0-1.1-.911q-2.1-.266-4.2-.52-1.533-.185-3.068-.357a1.054,1.054,0,0,0-1.236.883,1.039,1.039,0,0,0,.935,1.186c1.5.216,3.012.38,4.518.56,1.022.122,2.045.248,3.068.351A.989.989,0,0,0,135.518,448.294Z" transform="translate(-76.92 -417.057)"/></g></g><g transform="translate(12.381 12.377)"><path class="i" d="M96.007,389.54a49.638,49.638,0,0,0-18.544,95.682c1.424.584,2.88,1.095,4.368,1.541A49.644,49.644,0,1,0,96.007,389.54Zm0,97.691A47.737,47.737,0,0,1,81.831,485.1c-1.371-.425-2.71-.914-4.028-1.445-.117-.042-.223-.1-.34-.149-.351-.149-.691-.287-1.031-.446s-.68-.3-1.01-.468c-.669-.319-1.328-.648-1.987-1A48.118,48.118,0,0,1,64.35,475.3l-.032-.032c-.021-.021-.032-.043-.053-.053a45.9,45.9,0,0,1-4.368-4.378,48.017,48.017,0,1,1,36.109,16.4Z" transform="translate(-46.37 -389.54)"/></g></g></g></svg>