<svg xmlns="http://www.w3.org/2000/svg" viewBox="0 0 31 31" width="61" height="61">
	<style>
		tspan { white-space:pre }
		.shp0 { fill: none;stroke: #285078;stroke-width: 1.5 } 
		.shp1 { fill: #285078 } 
		.shp2 { fill: none;stroke: #cf7272;stroke-width: 3 } 
		.shp3 { fill: none } 
	</style>
	<g id="Layer">
		<g id="Layer">
			<g id="Layer">
				<path id="Layer" class="shp0" d="M7.86 28.15L7.86 10.81L13.35 4.5L21.16 6.88L21.16 8.16" />
				<path id="Layer" class="shp0" d="M13.35 4.5L13.35 29.71" />
			</g>
			<path id="Layer" class="shp1" d="M18.99 21.54L16.89 21.54C16.88 21.55 16.87 21.55 16.87 21.56C16.86 21.7 16.86 21.84 16.86 21.98C16.86 22.12 16.86 22.26 16.87 22.4C16.88 22.55 16.89 22.69 16.91 22.83C16.93 22.97 16.95 23.11 16.97 23.24C17.02 23.45 17.09 23.65 17.19 23.84C17.29 24.03 17.41 24.2 17.56 24.36C17.7 24.51 17.87 24.65 18.05 24.77C18.22 24.88 18.42 24.97 18.62 25.03C18.67 25.05 18.72 25.06 18.77 25.08C18.82 25.09 18.86 25.1 18.91 25.12C18.96 25.13 19.01 25.14 19.06 25.15C19.11 25.17 19.16 25.18 19.21 25.19C19.27 25.2 19.3 25.23 19.3 25.29C19.3 25.66 19.3 26.03 19.3 26.4C19.3 26.43 19.3 26.45 19.3 26.48L21.13 26.48L21.13 26.37C21.13 26.01 21.13 25.67 21.13 25.31C21.13 25.23 21.15 25.2 21.23 25.18C21.35 25.16 21.46 25.14 21.58 25.11C21.69 25.08 21.8 25.04 21.91 24.99C22.02 24.95 22.12 24.9 22.22 24.84C22.33 24.78 22.42 24.72 22.52 24.65C22.63 24.57 22.73 24.49 22.83 24.39C22.92 24.29 23.01 24.18 23.08 24.07C23.16 23.96 23.23 23.84 23.28 23.72C23.34 23.6 23.39 23.47 23.42 23.34C23.46 23.19 23.49 23.05 23.51 22.91C23.54 22.76 23.55 22.62 23.55 22.47C23.56 22.32 23.55 22.17 23.54 22.03C23.53 21.88 23.51 21.74 23.47 21.59C23.44 21.45 23.4 21.31 23.34 21.17C23.29 21.04 23.23 20.91 23.15 20.78C23.08 20.65 23 20.53 22.91 20.41C22.82 20.3 22.72 20.19 22.61 20.08C22.5 19.97 22.37 19.86 22.25 19.75C22.13 19.64 22 19.53 21.87 19.43C21.74 19.33 21.61 19.23 21.47 19.13C21.34 19.04 21.2 18.94 21.06 18.86C20.94 18.79 20.83 18.71 20.73 18.64C20.62 18.56 20.51 18.48 20.4 18.4C20.3 18.32 20.2 18.24 20.1 18.15C20 18.06 19.9 17.98 19.8 17.88C19.72 17.81 19.65 17.73 19.58 17.65C19.51 17.56 19.45 17.47 19.4 17.37C19.35 17.28 19.3 17.18 19.27 17.07C19.23 16.97 19.21 16.86 19.19 16.75C19.18 16.69 19.17 16.62 19.17 16.56C19.17 16.49 19.17 16.43 19.17 16.36C19.18 16.29 19.18 16.23 19.2 16.16C19.21 16.1 19.22 16.03 19.24 15.97C19.26 15.9 19.29 15.83 19.32 15.76C19.36 15.7 19.41 15.64 19.46 15.58C19.52 15.53 19.58 15.49 19.65 15.45C19.71 15.41 19.78 15.39 19.86 15.37C19.92 15.35 19.99 15.34 20.06 15.33C20.13 15.32 20.2 15.32 20.27 15.32C20.34 15.31 20.4 15.32 20.47 15.32C20.54 15.33 20.61 15.34 20.68 15.36C20.77 15.37 20.86 15.41 20.95 15.45C21.03 15.5 21.11 15.56 21.17 15.63C21.23 15.71 21.29 15.79 21.32 15.88C21.36 15.97 21.38 16.06 21.39 16.16C21.39 16.19 21.4 16.22 21.4 16.25C21.4 16.29 21.4 16.32 21.41 16.35C21.41 16.39 21.41 16.42 21.41 16.45C21.41 16.48 21.41 16.52 21.41 16.55C21.41 16.68 21.41 16.81 21.41 16.95C21.45 16.95 21.49 16.96 21.51 16.96C22.15 16.96 22.79 16.96 23.43 16.96C23.5 16.96 23.53 16.94 23.53 16.86C23.53 16.74 23.53 16.63 23.53 16.51C23.52 16.4 23.51 16.29 23.5 16.17C23.49 16.06 23.47 15.94 23.45 15.83C23.42 15.72 23.4 15.61 23.37 15.5C23.31 15.31 23.23 15.13 23.13 14.97C23.03 14.8 22.91 14.65 22.78 14.51C22.64 14.37 22.49 14.25 22.32 14.15C22.15 14.05 21.98 13.97 21.79 13.91C21.74 13.89 21.7 13.88 21.65 13.86C21.6 13.85 21.55 13.84 21.5 13.82C21.46 13.81 21.41 13.8 21.36 13.79C21.31 13.78 21.26 13.76 21.21 13.75C21.14 13.74 21.11 13.71 21.11 13.64C21.11 13.28 21.11 12.92 21.11 12.56L21.11 12.44L19.28 12.44L19.28 12.55C19.28 12.91 19.28 13.27 19.28 13.63C19.28 13.71 19.25 13.74 19.18 13.76C19.06 13.78 18.95 13.8 18.84 13.83C18.73 13.87 18.62 13.91 18.51 13.95C18.41 14 18.31 14.05 18.2 14.1C18.1 14.16 18.01 14.22 17.91 14.29C17.8 14.38 17.69 14.47 17.59 14.58C17.5 14.68 17.41 14.8 17.33 14.92C17.26 15.04 17.19 15.17 17.14 15.3C17.08 15.44 17.04 15.58 17.01 15.72C16.97 15.88 16.94 16.05 16.93 16.22C16.91 16.39 16.91 16.56 16.91 16.73C16.92 16.9 16.94 17.07 16.98 17.23C17.01 17.4 17.06 17.57 17.11 17.73C17.17 17.86 17.23 17.99 17.3 18.11C17.37 18.24 17.45 18.36 17.53 18.47C17.62 18.59 17.71 18.7 17.8 18.8C17.9 18.91 18 19 18.11 19.1C18.23 19.19 18.34 19.29 18.46 19.38C18.57 19.47 18.69 19.56 18.81 19.65C18.93 19.74 19.05 19.83 19.17 19.91C19.29 19.99 19.42 20.07 19.54 20.15C19.66 20.22 19.76 20.29 19.87 20.37C19.98 20.45 20.08 20.52 20.19 20.61C20.29 20.69 20.39 20.77 20.48 20.86C20.58 20.95 20.68 21.04 20.77 21.14C20.87 21.24 20.96 21.36 21.04 21.49C21.12 21.62 21.18 21.75 21.22 21.9C21.27 22.04 21.29 22.19 21.3 22.34C21.31 22.49 21.3 22.64 21.27 22.78C21.25 22.89 21.22 22.99 21.18 23.08C21.13 23.17 21.06 23.26 20.99 23.33C20.91 23.4 20.82 23.46 20.73 23.5C20.63 23.54 20.53 23.56 20.43 23.57C20.37 23.58 20.31 23.58 20.24 23.59C20.18 23.59 20.12 23.59 20.06 23.59C20 23.58 19.94 23.58 19.88 23.57C19.82 23.56 19.76 23.55 19.7 23.54C19.6 23.52 19.51 23.49 19.43 23.44C19.35 23.39 19.27 23.33 19.21 23.26C19.15 23.19 19.09 23.1 19.06 23.01C19.02 22.93 19 22.83 19 22.74C18.97 22.4 18.98 22.05 18.97 21.71C18.99 21.66 18.99 21.61 18.99 21.54Z" />
			<path id="Layer" class="shp2" d="M25.5 4.5L5.39 26.28" />
			<g id="Layer">
				<g id="Layer">
					<path id="Layer" class="shp3" d="M15.5 31C6.93 31 0 24.07 0 15.5C0 6.93 6.93 0 15.5 0C24.07 0 31 6.93 31 15.5C31 24.07 24.07 31 15.5 31Z" />
					<path id="Layer" class="shp0" d="M15.5 30.25C7.34 30.25 0.75 23.66 0.75 15.5C0.75 7.34 7.34 0.75 15.5 0.75C23.66 0.75 30.25 7.34 30.25 15.5C30.25 23.66 23.66 30.25 15.5 30.25Z" />
				</g>
				<g id="Layer">
					<path id="Layer" class="shp3" d="M15.5 31C6.93 31 0 24.07 0 15.5C0 6.93 6.93 0 15.5 0C24.07 0 31 6.93 31 15.5C31 24.07 24.07 31 15.5 31Z" />
					<path id="Layer" class="shp0" d="M15.5 30.25C7.34 30.25 0.75 23.66 0.75 15.5C0.75 7.34 7.34 0.75 15.5 0.75C23.66 0.75 30.25 7.34 30.25 15.5C30.25 23.66 23.66 30.25 15.5 30.25Z" />
				</g>
			</g>
		</g>
	</g>
</svg>