<svg xmlns="http://www.w3.org/2000/svg" viewBox="0 0 30 30" width="60" height="60">
	<style>
		tspan { white-space:pre }
		.shp0 { fill: #285078;stroke: #285078 } 
		.shp1 { fill: none;stroke: #cf7272;stroke-width: 3 } 
		.shp2 { fill: none } 
		.shp3 { fill: none;stroke: #285078;stroke-width: 1.5 } 
	</style>
	<g id="Layer">
		<g id="Layer">
			<g id="Layer">
				<g id="Layer">
					<path id="Layer" fill-rule="evenodd" class="shp0" d="M25.21 13.37C25.17 13.85 25.08 14.31 24.94 14.76C24.79 15.22 24.6 15.65 24.35 16.05C24.1 16.45 23.81 16.83 23.47 17.16C23.21 17.44 22.93 17.7 22.65 17.98C22.8 18.09 22.92 18.22 23.01 18.37C23.1 18.53 23.16 18.7 23.2 18.87C23.23 19.05 23.23 19.23 23.19 19.41C23.16 19.58 23.09 19.75 23 19.9C22.92 20.04 22.83 20.16 22.71 20.26C22.6 20.36 22.47 20.45 22.34 20.51C22.2 20.58 22.05 20.62 21.9 20.64C21.75 20.65 21.59 20.65 21.44 20.62C21.46 20.74 21.47 20.86 21.46 20.98C21.45 21.1 21.43 21.22 21.4 21.33C21.36 21.45 21.31 21.56 21.25 21.66C21.18 21.76 21.11 21.86 21.02 21.94C20.94 22.03 20.84 22.11 20.74 22.17C20.64 22.23 20.53 22.28 20.41 22.32C20.3 22.35 20.18 22.38 20.06 22.38C19.94 22.39 19.81 22.39 19.7 22.36C19.72 22.51 19.73 22.65 19.71 22.8C19.7 22.95 19.66 23.09 19.6 23.22C19.54 23.36 19.46 23.48 19.37 23.59C19.27 23.71 19.16 23.8 19.04 23.88C18.92 23.96 18.79 24.03 18.65 24.07C18.51 24.11 18.36 24.14 18.22 24.14C18.07 24.14 17.93 24.12 17.79 24.08C17.65 24.03 17.52 23.97 17.39 23.89C17.38 24.18 17.28 24.45 17.11 24.68C16.94 24.92 16.71 25.1 16.45 25.2C16.18 25.31 15.89 25.33 15.61 25.28C15.32 25.22 15.07 25.09 14.86 24.89C14.82 24.87 14.79 24.84 14.76 24.82C14.72 24.79 14.69 24.77 14.66 24.74C14.62 24.72 14.59 24.69 14.56 24.67C14.53 24.64 14.5 24.62 14.46 24.59C14.12 24.31 13.6 23.86 12.99 23.32L12.61 22.99C12.15 22.58 11.64 22.13 11.14 21.68L10.78 21.36C10.28 20.91 9.78 20.46 9.32 20.04L8.96 19.72C8.35 19.16 7.83 18.7 7.51 18.4L7.14 18.07L7.04 17.97C6.7 17.61 6.33 17.28 6.03 16.9C5.79 16.6 5.58 16.28 5.4 15.94C5.22 15.6 5.07 15.24 4.96 14.88C4.85 14.51 4.78 14.13 4.75 13.75C4.71 13.37 4.71 12.98 4.76 12.6C4.82 11.92 4.99 11.27 5.26 10.65C5.54 10.03 5.92 9.46 6.38 8.97C6.84 8.47 7.38 8.06 7.98 7.74C8.58 7.42 9.22 7.21 9.89 7.1C10.34 7.02 10.79 6.99 11.24 7.02C11.69 7.04 12.14 7.12 12.58 7.25C13.01 7.38 13.43 7.55 13.82 7.77C14.22 8 14.59 8.26 14.92 8.57C14.95 8.59 14.97 8.61 15 8.64C15.11 8.54 15.22 8.45 15.32 8.36C15.62 8.11 15.94 7.89 16.27 7.7C16.61 7.51 16.96 7.35 17.33 7.23C17.7 7.11 18.07 7.03 18.46 6.98C18.84 6.93 19.23 6.92 19.61 6.94C20.29 6.98 20.95 7.13 21.57 7.39C22.2 7.65 22.77 8.01 23.27 8.47C23.77 8.92 24.19 9.46 24.51 10.05C24.83 10.65 25.04 11.29 25.14 11.96C25.22 12.43 25.24 12.9 25.21 13.37ZM22.48 19.81C22.56 19.72 22.62 19.62 22.66 19.5C22.71 19.39 22.73 19.27 22.73 19.14C22.72 19.02 22.7 18.9 22.65 18.78C22.6 18.67 22.54 18.57 22.45 18.48C20.77 16.8 19.09 15.12 17.41 13.45C17.39 13.43 17.36 13.41 17.34 13.39C17.31 13.37 17.29 13.35 17.26 13.33C17.23 13.32 17.2 13.3 17.18 13.29C17.15 13.27 17.12 13.26 17.09 13.25C16.99 13.21 16.88 13.19 16.78 13.18C16.67 13.17 16.57 13.18 16.47 13.21C16.36 13.23 16.27 13.27 16.18 13.32C16.08 13.37 16 13.44 15.93 13.51C15.31 14.13 14.7 14.75 14.08 15.36C13.85 15.59 13.58 15.76 13.28 15.86C12.98 15.96 12.66 15.99 12.35 15.95C12.03 15.91 11.73 15.8 11.47 15.62C11.21 15.44 10.99 15.21 10.83 14.93C10.73 14.74 10.65 14.52 10.61 14.3C10.57 14.08 10.57 13.86 10.6 13.64C10.63 13.41 10.7 13.2 10.8 13C10.9 12.8 11.03 12.62 11.19 12.46C12.31 11.34 13.43 10.22 14.55 9.11C14.56 9.1 14.57 9.09 14.59 9.08C14.6 9.08 14.61 9.07 14.62 9.06C14.63 9.05 14.64 9.05 14.66 9.04C14.67 9.03 14.68 9.03 14.69 9.02C14.62 8.95 14.59 8.92 14.55 8.89C14.24 8.61 13.9 8.36 13.53 8.16C13.16 7.96 12.77 7.8 12.36 7.69C11.95 7.58 11.54 7.51 11.12 7.5C10.7 7.48 10.28 7.52 9.86 7.6C9.25 7.71 8.66 7.92 8.12 8.22C7.57 8.52 7.08 8.91 6.67 9.38C6.25 9.84 5.91 10.37 5.67 10.94C5.43 11.51 5.28 12.12 5.24 12.74C5.2 13.13 5.21 13.52 5.26 13.9C5.31 14.29 5.4 14.66 5.53 15.03C5.67 15.39 5.84 15.74 6.04 16.07C6.25 16.4 6.49 16.71 6.76 16.98C7 17.23 7.25 17.47 7.5 17.73C7.55 17.77 7.67 17.88 7.86 18.05C8.19 18.35 8.72 18.81 9.34 19.36L9.69 19.68L11.17 20.98L11.53 21.29L13.01 22.6L13.42 22.96L14.77 24.14L15.22 24.54C15.23 24.55 15.23 24.56 15.24 24.56C15.24 24.57 15.25 24.57 15.25 24.58C15.26 24.58 15.26 24.58 15.27 24.59C15.28 24.59 15.28 24.6 15.29 24.6C15.32 24.62 15.34 24.64 15.37 24.66C15.47 24.73 15.58 24.77 15.7 24.8C15.82 24.82 15.94 24.83 16.06 24.81C16.18 24.79 16.29 24.75 16.4 24.69C16.5 24.64 16.59 24.56 16.67 24.47C16.75 24.38 16.81 24.27 16.85 24.16C16.89 24.04 16.91 23.92 16.91 23.8C16.91 23.68 16.88 23.56 16.83 23.45C16.78 23.34 16.72 23.23 16.63 23.15C16.25 22.76 15.87 22.38 15.48 21.99C15.34 21.86 15.2 21.72 15.07 21.58C15.05 21.56 15.03 21.54 15.02 21.51C15 21.49 15 21.46 14.99 21.43C14.99 21.41 14.99 21.38 15 21.35C15.01 21.32 15.02 21.3 15.03 21.28C15.05 21.25 15.07 21.23 15.09 21.21C15.11 21.2 15.13 21.18 15.15 21.17C15.18 21.17 15.21 21.16 15.23 21.16C15.26 21.16 15.29 21.17 15.31 21.18C15.33 21.18 15.34 21.19 15.35 21.2C15.37 21.21 15.38 21.21 15.39 21.22C15.41 21.23 15.42 21.24 15.43 21.25C15.44 21.26 15.45 21.28 15.46 21.29C16.15 21.97 16.84 22.66 17.53 23.34C17.58 23.41 17.65 23.46 17.72 23.51C17.8 23.55 17.88 23.59 17.96 23.61C18.04 23.64 18.12 23.65 18.21 23.65C18.3 23.65 18.38 23.64 18.46 23.62C18.55 23.6 18.64 23.57 18.72 23.53C18.79 23.49 18.87 23.44 18.93 23.37C19 23.31 19.05 23.24 19.1 23.17C19.14 23.09 19.17 23.01 19.19 22.92C19.22 22.84 19.24 22.75 19.24 22.66C19.24 22.57 19.23 22.48 19.21 22.4C19.18 22.31 19.15 22.23 19.1 22.16C19.06 22.08 19 22.01 18.94 21.95C18.26 21.27 17.58 20.59 16.9 19.91C16.89 19.9 16.88 19.9 16.87 19.89C16.86 19.88 16.85 19.87 16.84 19.86C16.84 19.86 16.83 19.85 16.82 19.84C16.81 19.83 16.8 19.82 16.8 19.81C16.78 19.79 16.76 19.76 16.75 19.73C16.75 19.7 16.74 19.67 16.74 19.64C16.75 19.61 16.75 19.59 16.77 19.56C16.78 19.53 16.8 19.51 16.82 19.49C16.84 19.47 16.86 19.45 16.89 19.44C16.92 19.43 16.94 19.42 16.97 19.42C17 19.42 17.03 19.42 17.06 19.43C17.09 19.44 17.11 19.45 17.13 19.47C17.14 19.48 17.15 19.48 17.16 19.49C17.17 19.5 17.18 19.51 17.18 19.51C17.19 19.52 17.2 19.53 17.21 19.53C17.21 19.54 17.22 19.55 17.23 19.56L19.27 21.6C19.33 21.66 19.39 21.71 19.47 21.76C19.54 21.8 19.62 21.84 19.7 21.86C19.78 21.89 19.86 21.9 19.95 21.9C20.03 21.91 20.12 21.9 20.2 21.88C20.29 21.86 20.37 21.83 20.45 21.79C20.53 21.75 20.6 21.7 20.67 21.64C20.73 21.58 20.79 21.51 20.84 21.43C20.88 21.36 20.92 21.27 20.94 21.19C20.97 21.1 20.98 21.01 20.98 20.93C20.99 20.84 20.98 20.75 20.96 20.66C20.93 20.57 20.9 20.49 20.85 20.42C20.81 20.34 20.75 20.27 20.69 20.21C20 19.53 19.32 18.84 18.64 18.16C18.63 18.15 18.62 18.14 18.61 18.14C18.6 18.13 18.59 18.12 18.58 18.11C18.58 18.1 18.57 18.09 18.56 18.09C18.55 18.08 18.54 18.07 18.54 18.06C18.52 18.04 18.51 18.01 18.5 17.99C18.49 17.96 18.49 17.93 18.49 17.9C18.49 17.87 18.5 17.85 18.51 17.82C18.52 17.8 18.53 17.77 18.55 17.75C18.57 17.73 18.6 17.71 18.62 17.7C18.65 17.69 18.68 17.68 18.7 17.68C18.73 17.67 18.76 17.67 18.79 17.68C18.82 17.69 18.85 17.7 18.87 17.72C18.88 17.72 18.89 17.73 18.9 17.74C18.9 17.75 18.91 17.75 18.92 17.76C18.93 17.77 18.94 17.78 18.95 17.79C18.95 17.79 18.96 17.8 18.97 17.81L20.99 19.82C21 19.84 21.01 19.85 21.02 19.86C21.04 19.88 21.05 19.89 21.06 19.9C21.08 19.91 21.09 19.92 21.1 19.94C21.12 19.95 21.13 19.96 21.15 19.97C21.25 20.04 21.36 20.1 21.48 20.13C21.6 20.16 21.72 20.17 21.84 20.15C21.97 20.14 22.08 20.1 22.19 20.04C22.3 19.99 22.4 19.91 22.48 19.81L22.48 19.81ZM24.01 15.69C24.25 15.28 24.43 14.84 24.56 14.39C24.68 13.94 24.74 13.47 24.75 13C24.75 12.53 24.69 12.06 24.58 11.6C24.37 10.77 23.98 10 23.43 9.35C22.87 8.7 22.18 8.19 21.39 7.85C20.6 7.51 19.75 7.37 18.9 7.42C18.04 7.47 17.22 7.72 16.48 8.15C16.37 8.21 16.26 8.28 16.16 8.34C16.05 8.41 15.95 8.48 15.85 8.56C15.75 8.63 15.65 8.71 15.56 8.79C15.46 8.88 15.37 8.96 15.28 9.05C14.03 10.3 12.78 11.55 11.53 12.8C11.41 12.92 11.32 13.04 11.24 13.18C11.16 13.32 11.11 13.47 11.08 13.63C11.05 13.79 11.04 13.95 11.06 14.11C11.08 14.27 11.12 14.42 11.19 14.57C11.29 14.8 11.45 15 11.65 15.16C11.85 15.31 12.08 15.42 12.33 15.46C12.58 15.51 12.84 15.49 13.08 15.41C13.32 15.34 13.54 15.21 13.72 15.03C14.34 14.42 14.95 13.8 15.56 13.19C15.71 13.03 15.89 12.91 16.09 12.82C16.28 12.74 16.5 12.69 16.71 12.69C16.92 12.69 17.14 12.74 17.33 12.82C17.53 12.91 17.71 13.03 17.86 13.19C19.3 14.63 20.75 16.08 22.19 17.52C22.2 17.53 22.21 17.54 22.22 17.56C22.23 17.57 22.24 17.58 22.25 17.59C22.26 17.61 22.26 17.62 22.27 17.63C22.28 17.64 22.29 17.66 22.29 17.67C22.6 17.36 22.89 17.09 23.16 16.8C23.49 16.47 23.78 16.09 24.01 15.69Z" />
				</g>
			</g>
			<g id="Layer">
				<path id="Layer" class="shp1" d="M25.48 4.15L5.21 25.44" />
				<g id="Layer">
					<g id="Layer">
						<path id="Layer" class="shp2" d="M15 30C6.71 30 0 23.29 0 15C0 6.7 6.71 0 15 0C23.3 0 30 6.7 30 15C30 23.29 23.3 30 15 30Z" />
						<path id="Layer" class="shp3" d="M15 29.25C7.12 29.25 0.75 22.88 0.75 15C0.75 7.12 7.12 0.75 15 0.75C22.88 0.75 29.25 7.12 29.25 15C29.25 22.88 22.88 29.25 15 29.25Z" />
					</g>
					<g id="Layer">
						<path id="Layer" class="shp2" d="M15 30C6.71 30 0 23.29 0 15C0 6.7 6.71 0 15 0C23.3 0 30 6.7 30 15C30 23.29 23.3 30 15 30Z" />
						<path id="Layer" class="shp3" d="M15 29.25C7.12 29.25 0.75 22.88 0.75 15C0.75 7.12 7.12 0.75 15 0.75C22.88 0.75 29.25 7.12 29.25 15C29.25 22.88 22.88 29.25 15 29.25Z" />
					</g>
				</g>
			</g>
		</g>
	</g>
</svg>