<svg xmlns="http://www.w3.org/2000/svg" width="30" height="30" viewBox="0 0 30 30"><defs><style>.a{fill:#285078;}.b,.c,.e{fill:none;}.b{stroke:#c75a5a;stroke-width:3px;opacity:0.85;}.c{stroke:#285078;stroke-width:1.5px;}.d{stroke:none;}</style></defs><g transform="translate(-1901 -1951)"><g transform="translate(1904.702 1954.885)"><path class="a" d="M633,345.944c.021-.207.04-.414.064-.62a9.173,9.173,0,0,1,1.29-3.771,10.577,10.577,0,0,1,4.928-4.215l.3-.131-.112-.116a6.379,6.379,0,0,1,3.349-10.768,6.375,6.375,0,0,1,2.593,12.48,6.189,6.189,0,0,1-4.1-.422.378.378,0,0,0-.3-.016,9.749,9.749,0,0,0-3.8,2.133,7.969,7.969,0,0,0-2.533,4.562,9.852,9.852,0,0,0-.117,1.8.774.774,0,0,1-.553.756.788.788,0,0,1-.985-.54c-.008-.028-.019-.055-.028-.083Zm10.985-8.543a4.807,4.807,0,1,0-4.811-4.8A4.827,4.827,0,0,0,643.985,337.4Z" transform="translate(-633 -326.211)"/><path class="a" d="M650.351,345.944c-.021-.207-.04-.414-.064-.62a9.171,9.171,0,0,0-1.29-3.771,10.578,10.578,0,0,0-4.928-4.215l-.3-.131.112-.116a6.379,6.379,0,0,0-3.349-10.768,6.375,6.375,0,0,0-2.593,12.48,6.189,6.189,0,0,0,4.1-.422.378.378,0,0,1,.295-.016,9.749,9.749,0,0,1,3.8,2.133,7.969,7.969,0,0,1,2.533,4.562,9.862,9.862,0,0,1,.117,1.8.774.774,0,0,0,.553.756.788.788,0,0,0,.985-.54c.008-.028.019-.055.028-.083ZM639.366,337.4a4.807,4.807,0,1,1,4.811-4.8A4.827,4.827,0,0,1,639.366,337.4Z" transform="translate(-628.747 -326.211)"/></g><line class="b" x1="20" y2="21" transform="translate(1906.5 1955.5)"/><g class="c" transform="translate(1901 1951)"><circle class="d" cx="15" cy="15" r="15"/><circle class="e" cx="15" cy="15" r="14.25"/></g></g></svg>