<svg xmlns="http://www.w3.org/2000/svg" width="16.552" height="15.706" viewBox="0 0 16.552 15.706"><defs><style>.a{fill:#8dd5f6;opacity:0.69;}.b{fill:#1a3253;opacity:0.19;}.c{fill:#fff;}</style></defs><g transform="translate(0)"><path class="a" d="M2124.254,149.941c-.282-1.228-.4-.968-.992-1.875-.628-1.008-2.188-2.676-5.9-2.536-5.844.221-5.9,6.285-5.844,6.506s1.378,3.143,2.205,3.418.276,1.985.276,1.985v.607l2.26-1.213a7.142,7.142,0,0,0,1.544,0c.22-.11,3.749-.11,4.19-1.048S2125.026,153.3,2124.254,149.941Z" transform="translate(-2111.101 -145.103)"/><path class="b" d="M2127.381,151.4s.192,2.554-1.589,1.44c-.216-.135.368.49,0,.386-.615-.44.065,0,0,.223a11.353,11.353,0,0,1-1.025,2.2,13.539,13.539,0,0,1-1.8,1.426,11.831,11.831,0,0,1-1.975.757c-.3-.03-.906.252-1.2.178a1.711,1.711,0,0,0-.653,0,1.482,1.482,0,0,0,.534,1.039,3.525,3.525,0,0,0,1.485.609l2.3.445h1.01l.891.163.342.46.609.148.238-1.648.832-.832.713-1.114.371-1.277.193-.921-.267-1.47-.46-1.084-.386-.728Z" transform="translate(-2112.608 -146.264)"/><g transform="translate(0)"><path class="c" d="M830.122-113.329v-.125q0-1.411,0-2.822a.184.184,0,0,0-.086-.17,5.9,5.9,0,0,1-2.1-2.639,5.292,5.292,0,0,1,.607-5.152,6.321,6.321,0,0,1,3.2-2.427,7.519,7.519,0,0,1,6.674.639,5.8,5.8,0,0,1,2.542,3.006,5.292,5.292,0,0,1-.8,5.264,6.673,6.673,0,0,1-3.744,2.445,7.706,7.706,0,0,1-3.187.166.279.279,0,0,0-.172.035q-1.415.856-2.826,1.718C830.2-113.373,830.17-113.356,830.122-113.329Zm.826-1.53c.043-.024.072-.039.1-.056.614-.37,1.227-.741,1.842-1.108a.266.266,0,0,1,.172-.03,6.9,6.9,0,0,0,3.014-.062,5.988,5.988,0,0,0,3.35-2.087,4.561,4.561,0,0,0,.466-5.092,5.425,5.425,0,0,0-2.479-2.308,6.745,6.745,0,0,0-4.8-.438,5.768,5.768,0,0,0-3.132,1.987,4.471,4.471,0,0,0-.755,4.622,5.128,5.128,0,0,0,2.153,2.516.175.175,0,0,1,.094.173c-.011.586-.017,1.172-.024,1.757C830.948-114.95,830.948-114.913,830.948-114.86Z" transform="translate(-827.528 127.161)"/><path class="c" d="M1161.225,127.33c.394-.011.782-.022,1.171-.03a.207.207,0,0,1,.112.039,4.226,4.226,0,0,0,3.185.722,5,5,0,0,0,.5-.081.2.2,0,0,1,.171.038q.65.459,1.3.914l.123.082v-.129c0-.469,0-.937,0-1.406a.167.167,0,0,1,.09-.165,4.322,4.322,0,0,0,1.979-2.612,4.015,4.015,0,0,0-.745-3.561.3.3,0,0,1-.052-.176c.008-.364.023-.729.036-1.093,0-.016,0-.032,0-.063.031.024.053.039.072.056a5.04,5.04,0,0,1,1.668,3.178,4.87,4.87,0,0,1-1.021,3.625,5.226,5.226,0,0,1-1.066,1.046.185.185,0,0,0-.086.17c0,.806,0,1.613,0,2.419v.1c-.043-.026-.074-.043-.1-.062q-1.136-.736-2.272-1.473a.267.267,0,0,0-.2-.047,6.034,6.034,0,0,1-3.705-.574,3.592,3.592,0,0,1-1.1-.853C1161.265,127.376,1161.244,127.351,1161.225,127.33Z" transform="translate(-1154.324 -114.703)"/><path class="c" d="M998.1,103.977q-1.488,0-2.976,0a.433.433,0,1,1-.052-.864c.028,0,.055,0,.083,0h5.9a.468.468,0,0,1,.382.146.431.431,0,0,1-.268.715,1.036,1.036,0,0,1-.144,0Z" transform="translate(-991.203 -98.349)"/><path class="c" d="M1038.772,229.375q-1.064,0-2.129,0a.421.421,0,0,1-.441-.342.428.428,0,0,1,.338-.509.7.7,0,0,1,.123-.009h4.227a.432.432,0,0,1,.434.256.425.425,0,0,1-.392.6c-.544,0-1.089,0-1.633,0Z" transform="translate(-1031.877 -221.158)"/></g></g></svg>