<svg xmlns="http://www.w3.org/2000/svg" viewBox="0 0 42 42" width="60" height="60">
	<style>
		tspan { white-space:pre }
		.shp0 { fill: #f0f5f7 } 
		.shp1 { fill: none;stroke: #ffffff;stroke-width: 4 } 
		.shp2 { fill: #03a9f5 } 
	</style>
	<g id="Layer">
		<g id="Layer">
			<path id="Layer" class="shp0" d="M21 42C9.39 42 0 32.61 0 21C0 9.39 9.39 0 21 0C32.61 0 42 9.39 42 21C42 32.61 32.61 42 21 42Z" />
			<path id="Layer" class="shp1" d="M21 40C10.49 40 2 31.51 2 21C2 10.49 10.49 2 21 2C31.51 2 40 10.49 40 21C40 31.51 31.51 40 21 40Z" />
		</g>
		<g id="Layer">
			<g id="Layer">
				<path id="Layer" fill-rule="evenodd" class="shp2" d="M29.38 25.95C29.48 26.04 29.58 26.15 29.66 26.26C29.74 26.37 29.81 26.49 29.86 26.62C29.92 26.75 29.96 26.88 30 27.01C30.03 27.15 30.04 27.29 30.04 27.42C30.04 27.56 30.02 27.7 29.99 27.84C29.96 27.97 29.92 28.1 29.87 28.23C29.81 28.36 29.74 28.48 29.66 28.59C29.58 28.71 29.49 28.82 29.39 28.91C29.21 29.11 29.02 29.29 28.84 29.47C28.77 29.53 28.7 29.59 28.64 29.65C28.58 29.72 28.51 29.78 28.45 29.85C28.39 29.91 28.32 29.98 28.26 30.04C28.2 30.11 28.14 30.18 28.08 30.25C28.08 30.25 28.07 30.26 28.07 30.27C27.91 30.44 27.74 30.6 27.55 30.73C27.36 30.87 27.16 30.98 26.94 31.07C26.73 31.16 26.51 31.23 26.28 31.28C26.05 31.32 25.82 31.34 25.58 31.33C25.5 31.33 25.4 31.33 25.31 31.33C24.98 31.29 24.66 31.25 24.33 31.18C24 31.12 23.68 31.04 23.37 30.94C23.05 30.85 22.73 30.74 22.43 30.62C22.12 30.49 21.82 30.36 21.52 30.2C20.88 29.89 20.25 29.54 19.64 29.16C19.03 28.78 18.44 28.37 17.87 27.93C17.31 27.48 16.76 27.01 16.25 26.51C15.73 26.01 15.24 25.48 14.78 24.93C14.43 24.52 14.1 24.1 13.79 23.67C13.47 23.23 13.18 22.79 12.9 22.33C12.63 21.87 12.37 21.39 12.14 20.91C11.91 20.43 11.69 19.94 11.5 19.44C11.4 19.19 11.31 18.93 11.24 18.67C11.16 18.41 11.1 18.14 11.05 17.87C11.01 17.61 10.98 17.34 10.96 17.06C10.94 16.79 10.94 16.52 10.95 16.25C10.97 16.06 11 15.87 11.05 15.69C11.09 15.51 11.16 15.33 11.24 15.16C11.32 14.99 11.41 14.83 11.52 14.68C11.63 14.52 11.75 14.38 11.88 14.25L13.34 12.77L13.35 12.76C13.45 12.67 13.55 12.58 13.66 12.5C13.78 12.42 13.89 12.36 14.02 12.3C14.15 12.25 14.27 12.21 14.41 12.18C14.54 12.15 14.68 12.13 14.81 12.13C14.95 12.13 15.08 12.15 15.21 12.18C15.35 12.21 15.47 12.25 15.6 12.3C15.72 12.36 15.84 12.42 15.95 12.5C16.06 12.58 16.16 12.67 16.25 12.76C16.53 13.02 16.8 13.3 17.06 13.56C17.19 13.7 17.33 13.84 17.46 13.97L18.64 15.14C18.85 15.33 19.02 15.56 19.14 15.81C19.26 16.07 19.32 16.35 19.32 16.63C19.32 16.91 19.26 17.19 19.14 17.45C19.02 17.71 18.85 17.94 18.64 18.12C18.52 18.24 18.4 18.37 18.28 18.49C17.96 18.81 17.63 19.14 17.28 19.47C17.36 19.63 17.44 19.79 17.52 19.95C17.61 20.11 17.7 20.27 17.8 20.42C17.9 20.57 18 20.72 18.11 20.87C18.21 21.02 18.32 21.16 18.44 21.3C18.69 21.61 18.95 21.92 19.22 22.21C19.5 22.51 19.78 22.79 20.08 23.06C20.37 23.33 20.68 23.59 21 23.83C21.32 24.08 21.64 24.31 21.98 24.53C22.1 24.6 22.25 24.68 22.4 24.75C22.51 24.81 22.62 24.87 22.74 24.93L24.09 23.57C24.19 23.47 24.29 23.38 24.41 23.3C24.52 23.22 24.64 23.15 24.76 23.09C24.89 23.04 25.02 22.99 25.16 22.96C25.29 22.93 25.43 22.91 25.57 22.91C25.7 22.91 25.84 22.93 25.97 22.96C26.11 22.99 26.24 23.04 26.36 23.09C26.49 23.15 26.61 23.22 26.72 23.3C26.83 23.38 26.93 23.48 27.02 23.58L29.38 25.95ZM28.81 27.81C28.86 27.69 28.89 27.56 28.89 27.43C28.89 27.3 28.86 27.17 28.8 27.05C28.74 26.93 28.66 26.83 28.55 26.75L26.17 24.37C26.14 24.33 26.09 24.29 26.05 24.25C26 24.21 25.95 24.18 25.9 24.15C25.84 24.13 25.79 24.11 25.73 24.09C25.67 24.07 25.61 24.06 25.55 24.06C25.49 24.07 25.43 24.08 25.37 24.09C25.31 24.11 25.25 24.13 25.2 24.16C25.14 24.19 25.09 24.22 25.04 24.26C24.99 24.3 24.95 24.34 24.9 24.38L23.43 25.85C23.39 25.9 23.35 25.94 23.3 25.98C23.25 26.01 23.19 26.05 23.14 26.07C23.08 26.1 23.02 26.12 22.96 26.13C22.9 26.15 22.84 26.15 22.78 26.15C22.74 26.15 22.71 26.15 22.67 26.15C22.63 26.14 22.6 26.14 22.56 26.13C22.52 26.12 22.49 26.11 22.45 26.09C22.42 26.08 22.39 26.06 22.35 26.05C22.34 26.04 22.32 26.03 22.3 26.02C22.18 25.94 22.03 25.87 21.88 25.79C21.83 25.77 21.79 25.74 21.74 25.72C21.7 25.7 21.65 25.68 21.61 25.65C21.56 25.63 21.52 25.6 21.48 25.58C21.43 25.55 21.39 25.53 21.35 25.5C20.98 25.27 20.63 25.02 20.29 24.75C19.95 24.49 19.61 24.21 19.29 23.92C18.97 23.63 18.67 23.33 18.37 23.01C18.08 22.69 17.79 22.37 17.53 22.03C17.38 21.85 17.25 21.68 17.12 21.5C16.99 21.32 16.87 21.13 16.75 20.94C16.63 20.75 16.52 20.56 16.42 20.36C16.32 20.16 16.22 19.96 16.13 19.76L16.12 19.72C16.09 19.64 16.07 19.55 16.06 19.46C16.05 19.37 16.06 19.28 16.08 19.19C16.1 19.11 16.13 19.02 16.18 18.95C16.22 18.87 16.28 18.8 16.34 18.74C16.35 18.73 16.36 18.73 16.36 18.72C16.74 18.38 17.08 18.04 17.44 17.67C17.57 17.55 17.69 17.42 17.81 17.3C17.92 17.22 18.01 17.12 18.07 17.01C18.13 16.89 18.16 16.76 18.16 16.63C18.16 16.5 18.13 16.37 18.07 16.26C18.01 16.14 17.92 16.04 17.81 15.97L16.64 14.79C16.5 14.65 16.36 14.51 16.23 14.38C15.97 14.11 15.72 13.85 15.46 13.61L15.44 13.59C15.4 13.55 15.36 13.51 15.31 13.47C15.27 13.44 15.21 13.41 15.16 13.38C15.11 13.36 15.05 13.34 14.99 13.32C14.94 13.31 14.88 13.3 14.82 13.29C14.76 13.3 14.69 13.31 14.63 13.32C14.57 13.34 14.52 13.36 14.46 13.38C14.4 13.41 14.35 13.44 14.3 13.48C14.25 13.51 14.21 13.55 14.16 13.6L12.7 15.06C12.61 15.15 12.53 15.24 12.46 15.34C12.39 15.44 12.33 15.54 12.28 15.65C12.23 15.76 12.19 15.87 12.16 15.99C12.13 16.1 12.11 16.22 12.1 16.34C12.09 16.57 12.09 16.8 12.11 17.03C12.12 17.26 12.15 17.49 12.19 17.72C12.23 17.94 12.28 18.17 12.35 18.39C12.42 18.61 12.49 18.82 12.58 19.04C12.77 19.51 12.97 19.97 13.19 20.42C13.41 20.87 13.65 21.32 13.91 21.75C14.17 22.18 14.45 22.6 14.74 23.01C15.04 23.42 15.35 23.81 15.68 24.19C16.12 24.71 16.58 25.21 17.06 25.68C17.55 26.16 18.06 26.6 18.59 27.02C19.12 27.44 19.68 27.83 20.25 28.19C20.83 28.54 21.42 28.87 22.03 29.17C22.29 29.3 22.56 29.43 22.83 29.54C23.1 29.65 23.38 29.75 23.66 29.83C23.94 29.92 24.23 29.99 24.51 30.04C24.8 30.1 25.09 30.15 25.38 30.18C25.45 30.18 25.52 30.18 25.58 30.18C25.74 30.18 25.89 30.17 26.04 30.14C26.19 30.12 26.33 30.07 26.47 30.01C26.61 29.96 26.74 29.88 26.87 29.79C26.99 29.71 27.1 29.6 27.2 29.49C27.27 29.42 27.34 29.34 27.4 29.27C27.47 29.2 27.54 29.12 27.61 29.05C27.68 28.98 27.75 28.91 27.82 28.84C27.89 28.77 27.96 28.7 28.03 28.63C28.22 28.45 28.39 28.29 28.56 28.11C28.66 28.03 28.75 27.92 28.81 27.81Z" />
				<path id="Layer" class="shp2" d="M21.93 15.8C22.49 15.9 23.03 16.08 23.53 16.34C24.03 16.6 24.49 16.94 24.9 17.34C25.3 17.74 25.63 18.2 25.9 18.71C26.16 19.21 26.34 19.75 26.44 20.31C26.45 20.38 26.47 20.44 26.5 20.5C26.54 20.56 26.58 20.61 26.63 20.66C26.69 20.7 26.74 20.73 26.81 20.76C26.87 20.78 26.94 20.79 27.01 20.79C27.02 20.79 27.02 20.79 27.03 20.79C27.04 20.79 27.05 20.79 27.06 20.79C27.07 20.79 27.07 20.79 27.08 20.79C27.09 20.78 27.1 20.78 27.11 20.78C27.18 20.77 27.26 20.74 27.32 20.7C27.39 20.66 27.44 20.61 27.49 20.55C27.53 20.48 27.56 20.41 27.58 20.34C27.6 20.26 27.6 20.19 27.59 20.11C27.47 19.43 27.25 18.78 26.93 18.17C26.62 17.56 26.21 17 25.72 16.52C25.24 16.03 24.68 15.63 24.07 15.31C23.46 14.99 22.81 14.77 22.13 14.66C22.06 14.64 21.98 14.65 21.9 14.66C21.83 14.68 21.76 14.71 21.7 14.76C21.64 14.8 21.58 14.86 21.54 14.92C21.5 14.98 21.47 15.06 21.46 15.13C21.45 15.2 21.45 15.28 21.46 15.36C21.48 15.43 21.51 15.5 21.55 15.56C21.6 15.63 21.65 15.68 21.72 15.72C21.78 15.76 21.85 15.79 21.93 15.8L21.93 15.8Z" />
				<path id="Layer" class="shp2" d="M31.27 19.94C31.08 18.83 30.72 17.75 30.2 16.75C29.67 15.75 29 14.83 28.2 14.03C27.41 13.23 26.49 12.56 25.48 12.04C24.48 11.52 23.4 11.15 22.29 10.96C22.14 10.93 21.98 10.97 21.85 11.05C21.72 11.14 21.63 11.28 21.61 11.44C21.58 11.59 21.62 11.75 21.71 11.88C21.81 12 21.95 12.08 22.1 12.11C23.1 12.28 24.06 12.6 24.96 13.07C25.85 13.53 26.67 14.13 27.39 14.85C28.1 15.56 28.7 16.38 29.17 17.28C29.63 18.17 29.96 19.14 30.13 20.13C30.14 20.2 30.16 20.26 30.19 20.32C30.23 20.38 30.27 20.43 30.32 20.48C30.38 20.52 30.44 20.56 30.5 20.58C30.56 20.6 30.63 20.61 30.7 20.61C30.71 20.61 30.72 20.61 30.72 20.61C30.73 20.61 30.74 20.61 30.75 20.61C30.76 20.61 30.77 20.61 30.77 20.61C30.78 20.61 30.79 20.61 30.8 20.6C30.87 20.59 30.95 20.57 31.01 20.53C31.07 20.49 31.13 20.43 31.17 20.37C31.22 20.31 31.25 20.24 31.27 20.17C31.28 20.09 31.28 20.02 31.27 19.94Z" />
			</g>
		</g>
	</g>
</svg>