<svg xmlns="http://www.w3.org/2000/svg" viewBox="0 0 29 29" width="40" height="40">
	<style>
		tspan { white-space:pre }
		.shp0 { fill: #03a9f5 } 
	</style>
	<path id="Layer" fill-rule="evenodd" class="shp0" d="M1.07 19.47C-1.11 14.21 0.1 8.15 4.12 4.12C8.15 0.1 14.21 -1.11 19.47 1.07C24.73 3.25 28.16 8.38 28.16 14.08C28.16 15.93 27.79 17.76 27.09 19.47C26.38 21.18 25.34 22.73 24.03 24.03C22.73 25.34 21.18 26.38 19.47 27.09C17.76 27.79 15.93 28.16 14.08 28.16C8.38 28.16 3.25 24.73 1.07 19.47ZM18.48 8.67L19.19 5.82L16.91 5.25L16.34 7.52C16.16 7.46 15.97 7.4 15.78 7.35C15.59 7.31 15.39 7.27 15.2 7.23L15.77 4.97L13.48 4.4L12.77 7.25C11.45 7.48 10.23 8.08 9.25 8.99C8.27 9.9 7.57 11.07 7.25 12.37C6.92 13.67 6.98 15.03 7.42 16.3C7.86 17.56 8.65 18.67 9.71 19.49L9 22.34L11.28 22.91L11.85 20.64C12.03 20.7 12.22 20.76 12.41 20.8C12.61 20.85 12.8 20.89 12.99 20.92L12.42 23.19L14.71 23.76L15.42 20.9C15.88 20.82 16.33 20.69 16.77 20.52C17.2 20.35 17.62 20.14 18.01 19.88C18.4 19.63 18.77 19.33 19.1 19C19.44 18.68 19.74 18.32 20 17.93L17.49 17.3C17.2 17.59 16.88 17.84 16.53 18.05C16.17 18.26 15.79 18.42 15.4 18.53C15.01 18.64 14.6 18.7 14.19 18.7C13.78 18.71 13.37 18.66 12.97 18.56C11.76 18.28 10.71 17.53 10.07 16.47C9.42 15.41 9.22 14.14 9.52 12.93C9.82 11.72 10.6 10.69 11.67 10.06C12.74 9.43 14.02 9.26 15.22 9.59C15.61 9.69 16 9.83 16.36 10.03C16.72 10.23 17.05 10.47 17.35 10.75C17.64 11.03 17.9 11.35 18.12 11.7C18.33 12.05 18.5 12.42 18.62 12.82L21.12 13.44C21.07 12.97 20.98 12.52 20.84 12.07C20.7 11.63 20.51 11.2 20.28 10.79C20.06 10.38 19.79 9.99 19.49 9.64C19.19 9.28 18.85 8.96 18.48 8.67L18.48 8.67Z" />
</svg>