<svg xmlns="http://www.w3.org/2000/svg" width="124.035" height="148.804" viewBox="0 0 124.035 148.804"><defs><style>.a{fill:#ffdc00;}.b{fill:#373737;}.c{fill:#ffaf37;}.d{fill:#285078;}.e{fill:#19b6a7;}.f{fill:#11998b;}.g{fill:#fff;}.h{opacity:0.42;}.i{fill:#0e2d47;}</style></defs><g transform="translate(-111 -2564)"><g transform="translate(149.935 2659.619)"><path class="a" d="M94.393,632.063H72.108v51.59L94.393,667.9l22.285,15.75v-51.59Z" transform="translate(-71.311 -631.266)"/><path class="b" d="M116.724,684.5a.8.8,0,0,1-.46-.147L94.44,668.926,72.615,684.351a.8.8,0,0,1-1.257-.65V632.11a.8.8,0,0,1,.8-.8h44.569a.8.8,0,0,1,.8.8V683.7a.8.8,0,0,1-.8.8ZM94.44,667.152a.8.8,0,0,1,.46.147l21.027,14.862V632.907H72.952v49.255L93.98,667.3A.792.792,0,0,1,94.44,667.152Z" transform="translate(-71.358 -631.313)"/><g transform="translate(0.793 8.983)"><path class="c" d="M116.684,639.766V660.4a88,88,0,0,1-44.58-1.474V639.766Z" transform="translate(-72.104 -639.766)"/></g><path class="b" d="M116.724,684.5a.8.8,0,0,1-.46-.147L94.44,668.926,72.615,684.351a.8.8,0,0,1-1.257-.65V632.11a.8.8,0,0,1,.8-.8h44.569a.8.8,0,0,1,.8.8V683.7a.8.8,0,0,1-.8.8ZM94.44,667.152a.8.8,0,0,1,.46.147l21.027,14.862V632.907H72.952v49.255L93.98,667.3A.792.792,0,0,1,94.44,667.152Z" transform="translate(-71.358 -631.313)"/></g><g transform="translate(111 2564)"><circle class="d" cx="54.057" cy="54.057" r="54.057" transform="translate(0 106.717) rotate(-80.783)"/><path class="b" d="M96.314,657.781a54.854,54.854,0,1,1,54.854-54.854A54.916,54.916,0,0,1,96.314,657.781Zm0-108.114a53.26,53.26,0,1,0,53.26,53.26A53.32,53.32,0,0,0,96.314,549.668Z" transform="translate(-34.296 -540.91)"/></g><g transform="translate(116.981 2569.981)"><circle class="e" cx="48.843" cy="48.843" r="48.843" transform="translate(0 96.425) rotate(-80.783)"/></g><g transform="translate(137.17 2590.06)"><path class="f" d="M126.853,565.856a48.266,48.266,0,0,1-36.5,79.894c-12.072,0-22.535-3.8-31.011-11.152,8.864,10.226,21.353,16.058,35.916,16.058a48.273,48.273,0,0,0,31.591-84.8Z" transform="translate(-59.346 -565.856)"/></g><g transform="translate(123.381 2576.377)"><path class="g" d="M96.007,552.98a49.638,49.638,0,0,0-18.544,95.682c1.424.584,2.88,1.094,4.368,1.541A49.644,49.644,0,1,0,96.007,552.98Zm0,97.691a47.737,47.737,0,0,1-14.176-2.136c-1.371-.425-2.71-.914-4.028-1.445-.117-.042-.223-.1-.34-.149-.351-.149-.691-.287-1.031-.446s-.68-.3-1.01-.468c-.669-.319-1.328-.648-1.987-1a48.122,48.122,0,0,1-9.086-6.291l-.032-.032c-.021-.021-.032-.043-.053-.053a45.9,45.9,0,0,1-4.368-4.378,48.017,48.017,0,1,1,36.109,16.4Z" transform="translate(-46.37 -552.98)"/></g><g transform="translate(132.138 2595.218)"><g class="h" transform="translate(3.156 4.522)"><path class="i" d="M95.959,581.261c-.4-.672-.7-1.254-1.078-1.783-2.66-3.757-6.381-4.991-10.786-4.353-5.82.843-8.935,5.383-9.272,10.927a15.075,15.075,0,0,0,5.313,12.609c3.154,2.828,6.422,5.529,9.646,8.277,1.836,1.564,3.693,3.105,5.53,4.668.413.352.715.488,1.225.051,5.077-4.354,10.246-8.6,15.26-13.029a14.978,14.978,0,0,0,5.144-13.858c-.748-5.654-4.843-9.608-10.618-9.787C102.559,574.865,98.537,576.317,95.959,581.261Z" transform="translate(-56.502 -574.965)"/><path class="i" d="M123.1,627.651a25.176,25.176,0,0,1-5.416,7.627,27.865,27.865,0,0,1-18.226,8.054,27.4,27.4,0,0,1-19.224-5.939,53.541,53.541,0,0,1-13.25-16.4,70.61,70.61,0,0,1-5.649-13.271c-.1-.337-.252-.862-.437-1.533-1.321-4.753-4.377-16.952-2.951-23.261a5.486,5.486,0,0,1,4.974,4.422c.616,3.854,1.3,7.7,2.1,11.526a38.726,38.726,0,0,0,4.527,12.161,4.524,4.524,0,0,0,1.866,1.68,3.1,3.1,0,0,0,3.673-.879c1.757-1.777.1-4.19-.9-6.041-.413-.766-.8-1.511-1.186-2.3-1.093-2.258-.135-3.356.15-3.64,0,0,.829-.829,2.21.622a21.24,21.24,0,0,1,3.85,6.033c.428,1.088.881,2.169,1.255,3.277,1.266,3.748,2.407,7.542,3.766,11.256a33.3,33.3,0,0,0,5.718,10.007c4.261,5.1,9.675,7.179,16.213,6.1a28.529,28.529,0,0,0,14.288-7.025C121.36,629.327,122.222,628.476,123.1,627.651Z" transform="translate(-57.58 -574.466)"/><path class="i" d="M131.2,606.186c-.186.672-.338,1.2-.437,1.533a71.079,71.079,0,0,1-3.615,9.3l0,0c0,.006-.005.014-.014.028a.237.237,0,0,1-.024.053c-.7,1.338-10.054,18.535-30.258,18.414l.034-.02q.642-.352,1.266-.774a19.381,19.381,0,0,0,4-3.673,33.316,33.316,0,0,0,5.717-10.007c1.36-3.714,2.5-7.508,3.767-11.256.373-1.108.827-2.189,1.255-3.277a21.223,21.223,0,0,1,3.849-6.033c1.383-1.452,2.211-.622,2.211-.622.285.284,1.243,1.381.149,3.64-.384.79-.774,1.537-1.185,2.3-1,1.851-2.659,4.264-.9,6.041a3.1,3.1,0,0,0,3.673.879,4.515,4.515,0,0,0,1.865-1.68,38.78,38.78,0,0,0,4.527-12.163c.8-3.819,1.481-7.668,2.1-11.524a5.485,5.485,0,0,1,4.974-4.422C135.575,589.234,132.519,601.432,131.2,606.186Z" transform="translate(-55.12 -574.466)"/></g><path class="g" d="M92.989,577.005c-.4-.671-.7-1.253-1.078-1.782-2.659-3.758-6.381-4.991-10.785-4.354-5.821.844-8.935,5.383-9.273,10.927a15.075,15.075,0,0,0,5.314,12.609c3.153,2.829,6.421,5.53,9.646,8.278,1.836,1.564,3.693,3.105,5.53,4.668.413.352.715.488,1.224.05,5.078-4.354,10.246-8.6,15.261-13.028a14.978,14.978,0,0,0,5.143-13.859c-.748-5.653-4.842-9.607-10.617-9.787C99.589,570.61,95.567,572.061,92.989,577.005Z" transform="translate(-53.532 -570.71)"/><path class="g" d="M120.134,623.394a25.162,25.162,0,0,1-5.416,7.628,27.867,27.867,0,0,1-18.226,8.053,27.391,27.391,0,0,1-19.223-5.939,53.541,53.541,0,0,1-13.251-16.4,70.711,70.711,0,0,1-5.649-13.271c-.1-.337-.251-.862-.436-1.533-1.322-4.753-4.378-16.952-2.952-23.261a5.485,5.485,0,0,1,4.974,4.422c.616,3.854,1.3,7.7,2.1,11.525a38.717,38.717,0,0,0,4.527,12.161,4.5,4.5,0,0,0,1.865,1.68,3.1,3.1,0,0,0,3.673-.879c1.758-1.776.1-4.189-.9-6.041-.413-.765-.8-1.51-1.187-2.3-1.093-2.258-.134-3.355.15-3.64,0,0,.83-.829,2.211.622a21.223,21.223,0,0,1,3.849,6.033c.428,1.089.882,2.17,1.255,3.278,1.266,3.747,2.407,7.542,3.767,11.256a33.329,33.329,0,0,0,5.717,10.007c4.261,5.1,9.676,7.179,16.214,6.1a28.547,28.547,0,0,0,14.288-7.025C118.39,625.072,119.253,624.221,120.134,623.394Z" transform="translate(-54.61 -570.211)"/><path class="g" d="M128.228,601.931c-.185.672-.337,1.2-.437,1.533a71.065,71.065,0,0,1-3.614,9.3l0,0a.078.078,0,0,1-.014.028.211.211,0,0,1-.024.052c-.7,1.338-10.054,18.535-30.258,18.414l.033-.019q.642-.352,1.266-.774a19.443,19.443,0,0,0,4-3.673,33.309,33.309,0,0,0,5.718-10.007c1.359-3.714,2.5-7.509,3.767-11.256.373-1.108.826-2.189,1.254-3.278a21.24,21.24,0,0,1,3.85-6.033c1.381-1.451,2.21-.622,2.21-.622.285.285,1.244,1.381.15,3.64-.385.791-.774,1.537-1.186,2.3-1,1.852-2.659,4.265-.9,6.041a3.1,3.1,0,0,0,3.673.879,4.5,4.5,0,0,0,1.866-1.68,38.8,38.8,0,0,0,4.527-12.162c.8-3.819,1.48-7.669,2.1-11.523a5.486,5.486,0,0,1,4.974-4.422C132.6,584.979,129.549,597.177,128.228,601.931Z" transform="translate(-52.149 -570.211)"/></g></g></svg>