<svg xmlns="http://www.w3.org/2000/svg" width="33.169" height="39.792" viewBox="0 0 33.169 39.792"><defs><style>.a{fill:#ffdc00;}.b{fill:#373737;}.c{fill:#ffaf37;}.d{fill:#285078;}.e{fill:#19b6a7;}.f{fill:#11998b;}.g{fill:#fff;}.h{opacity:0.42;}.i{fill:#0e2d47;}</style></defs><g transform="translate(-88.836 -2563.958)"><g transform="translate(99.248 2589.528)"><path class="a" d="M78.067,632.063H72.108v13.8l5.959-4.212,5.959,4.212v-13.8Z" transform="translate(-71.895 -631.85)"/><path class="b" d="M83.49,645.535a.214.214,0,0,1-.123-.039l-5.836-4.125L71.694,645.5a.213.213,0,0,1-.336-.174v-13.8a.213.213,0,0,1,.213-.213H83.49a.213.213,0,0,1,.213.213v13.8a.213.213,0,0,1-.213.213ZM77.53,640.9a.213.213,0,0,1,.123.039l5.623,3.974V631.739H71.784v13.171l5.623-3.974A.212.212,0,0,1,77.53,640.9Z" transform="translate(-71.358 -631.313)"/><g transform="translate(0.212 2.402)"><path class="c" d="M84.025,639.766v5.518A23.529,23.529,0,0,1,72.1,644.89v-5.124Z" transform="translate(-72.104 -639.766)"/></g><path class="b" d="M83.49,645.535a.214.214,0,0,1-.123-.039l-5.836-4.125L71.694,645.5a.213.213,0,0,1-.336-.174v-13.8a.213.213,0,0,1,.213-.213H83.49a.213.213,0,0,1,.213.213v13.8a.213.213,0,0,1-.213.213ZM77.53,640.9a.213.213,0,0,1,.123.039l5.623,3.974V631.739H71.784v13.171l5.623-3.974A.212.212,0,0,1,77.53,640.9Z" transform="translate(-71.358 -631.313)"/></g><g transform="translate(88.836 2563.958)"><circle class="d" cx="14.455" cy="14.455" r="14.455" transform="translate(0 28.538) rotate(-80.783)"/><path class="b" d="M56.129,577.411A14.669,14.669,0,1,1,70.8,562.743,14.685,14.685,0,0,1,56.129,577.411Zm0-28.911a14.242,14.242,0,1,0,14.242,14.242A14.258,14.258,0,0,0,56.129,548.5Z" transform="translate(-39.544 -546.158)"/></g><g transform="translate(90.436 2565.558)"><circle class="e" cx="13.061" cy="13.061" r="13.061" transform="translate(0 25.785) rotate(-80.783)"/></g><g transform="translate(95.835 2570.927)"><path class="f" d="M77.4,565.856a12.907,12.907,0,0,1-9.76,21.365,12.309,12.309,0,0,1-8.293-2.982,12.412,12.412,0,0,0,9.6,4.294A12.909,12.909,0,0,0,77.4,565.856Z" transform="translate(-59.346 -565.856)"/></g><g transform="translate(92.147 2567.268)"><path class="g" d="M59.644,552.98a13.274,13.274,0,0,0-4.959,25.587c.381.156.77.293,1.168.412a13.276,13.276,0,1,0,3.791-26Zm0,26.124a12.768,12.768,0,0,1-3.791-.571c-.367-.114-.725-.244-1.077-.387-.031-.011-.06-.026-.091-.04-.094-.04-.185-.077-.276-.119s-.182-.08-.27-.125c-.179-.085-.355-.173-.531-.267a12.867,12.867,0,0,1-2.43-1.682l-.009-.009c-.006-.006-.009-.011-.014-.014a12.276,12.276,0,0,1-1.168-1.171,12.84,12.84,0,1,1,9.656,4.385Z" transform="translate(-46.37 -552.98)"/></g><g transform="translate(94.489 2572.306)"><g class="h" transform="translate(0.844 1.209)"><path class="i" d="M80.452,576.649c-.108-.18-.188-.335-.288-.477a2.787,2.787,0,0,0-2.884-1.164A2.9,2.9,0,0,0,74.8,577.93a4.031,4.031,0,0,0,1.421,3.372c.843.756,1.717,1.479,2.579,2.213.491.418.987.83,1.479,1.248.111.094.191.13.328.014,1.358-1.164,2.74-2.3,4.081-3.484a4.005,4.005,0,0,0,1.376-3.706,2.961,2.961,0,0,0-5.611-.938Z" transform="translate(-69.901 -574.965)"/><path class="i" d="M75.1,594.885a6.733,6.733,0,0,1-1.448,2.039,7.451,7.451,0,0,1-4.874,2.154,7.327,7.327,0,0,1-5.141-1.588A14.318,14.318,0,0,1,60.1,593.1a18.884,18.884,0,0,1-1.511-3.549c-.027-.09-.067-.23-.117-.41-.353-1.271-1.17-4.533-.789-6.22a1.467,1.467,0,0,1,1.33,1.182c.165,1.031.347,2.06.561,3.082a10.355,10.355,0,0,0,1.211,3.252,1.209,1.209,0,0,0,.5.449.828.828,0,0,0,.982-.235c.47-.475.026-1.12-.241-1.615-.111-.2-.215-.4-.317-.616-.292-.6-.036-.9.04-.973,0,0,.222-.222.591.166a5.68,5.68,0,0,1,1.03,1.613c.115.291.236.58.336.876.338,1,.644,2.017,1.007,3.01a8.9,8.9,0,0,0,1.529,2.676,4.4,4.4,0,0,0,4.336,1.632,7.629,7.629,0,0,0,3.821-1.879C74.636,595.334,74.866,595.106,75.1,594.885Z" transform="translate(-57.58 -580.663)"/><path class="i" d="M106.032,589.145c-.05.18-.09.32-.117.41a19,19,0,0,1-.967,2.486h0s0,0,0,.007a.064.064,0,0,1-.007.014,9.415,9.415,0,0,1-8.091,4.924l.009-.005q.172-.094.338-.207a5.181,5.181,0,0,0,1.071-.982,8.909,8.909,0,0,0,1.529-2.676c.364-.993.669-2.008,1.007-3.01.1-.3.221-.585.336-.876a5.676,5.676,0,0,1,1.029-1.613c.37-.388.591-.166.591-.166.076.076.332.369.04.973-.1.211-.207.411-.317.616-.268.495-.711,1.14-.241,1.615a.828.828,0,0,0,.982.235,1.207,1.207,0,0,0,.5-.449,10.37,10.37,0,0,0,1.211-3.253c.214-1.021.4-2.051.561-3.082a1.467,1.467,0,0,1,1.33-1.182C107.2,584.612,106.385,587.874,106.032,589.145Z" transform="translate(-85.688 -580.663)"/></g><path class="g" d="M77.482,572.393c-.108-.179-.188-.335-.288-.477a2.787,2.787,0,0,0-2.884-1.164,2.9,2.9,0,0,0-2.48,2.922,4.031,4.031,0,0,0,1.421,3.372c.843.757,1.717,1.479,2.579,2.214.491.418.987.83,1.479,1.248.111.094.191.13.327.013,1.358-1.164,2.74-2.3,4.081-3.484a4.005,4.005,0,0,0,1.375-3.706,2.961,2.961,0,0,0-5.611-.938Z" transform="translate(-66.931 -570.71)"/><path class="g" d="M72.132,590.63a6.729,6.729,0,0,1-1.448,2.04,7.452,7.452,0,0,1-4.874,2.154,7.325,7.325,0,0,1-5.14-1.588,14.317,14.317,0,0,1-3.544-4.386,18.909,18.909,0,0,1-1.511-3.549c-.026-.09-.067-.23-.117-.41-.354-1.271-1.171-4.533-.789-6.22a1.467,1.467,0,0,1,1.33,1.182c.165,1.031.348,2.06.561,3.082a10.353,10.353,0,0,0,1.211,3.252,1.2,1.2,0,0,0,.5.449.828.828,0,0,0,.982-.235c.47-.475.026-1.12-.241-1.615-.111-.2-.215-.4-.317-.616-.292-.6-.036-.9.04-.973,0,0,.222-.222.591.166a5.676,5.676,0,0,1,1.029,1.613c.115.291.236.58.336.877.338,1,.644,2.017,1.007,3.01a8.912,8.912,0,0,0,1.529,2.676A4.4,4.4,0,0,0,67.6,593.17a7.634,7.634,0,0,0,3.821-1.879C71.666,591.079,71.9,590.851,72.132,590.63Z" transform="translate(-54.61 -576.408)"/><path class="g" d="M103.063,584.89c-.049.18-.09.32-.117.41a19,19,0,0,1-.966,2.486h0a.02.02,0,0,1,0,.007.057.057,0,0,1-.007.014,9.415,9.415,0,0,1-8.091,4.924l.009-.005q.172-.094.338-.207a5.2,5.2,0,0,0,1.071-.982,8.906,8.906,0,0,0,1.529-2.676c.363-.993.669-2.008,1.007-3.01.1-.3.221-.585.335-.877a5.681,5.681,0,0,1,1.03-1.613c.369-.388.591-.166.591-.166.076.076.333.369.04.973-.1.211-.207.411-.317.616-.267.5-.711,1.14-.241,1.615a.828.828,0,0,0,.982.235,1.2,1.2,0,0,0,.5-.449,10.375,10.375,0,0,0,1.211-3.252c.213-1.021.4-2.051.561-3.081a1.467,1.467,0,0,1,1.33-1.182C104.233,580.357,103.416,583.619,103.063,584.89Z" transform="translate(-82.718 -576.408)"/></g></g></svg>