<svg xmlns="http://www.w3.org/2000/svg" width="124.035" height="152.21" viewBox="0 0 124.035 152.21"><defs><style>.a{fill:#ffdc00;}.b{fill:#373737;}.c{fill:#ffaf37;}.d{fill:#285078;}.e{fill:#ff9d3b;}.f{opacity:0.09;mix-blend-mode:multiply;isolation:isolate;}.g{fill:#0e2d47;}.h{fill:#fff;}.i{opacity:0.42;}.j{fill:#3d1a03;}</style></defs><g transform="translate(-276.606 -2564)"><g transform="translate(276.606 2564)"><g transform="translate(6.588 85.835)"><path class="a" d="M257.116,631.444l-20.564-8.587-19.88,47.606,26.633-5.946L257.8,687.637l19.88-47.606Z" transform="translate(-215.875 -622.059)"/><path class="b" d="M257.847,688.481a.8.8,0,0,1-.675-.374l-14.2-22.643-26.083,5.823a.8.8,0,0,1-.91-1.085l19.88-47.606a.8.8,0,0,1,1.042-.428l20.565,8.587h0l20.564,8.587a.8.8,0,0,1,.427,1.042l-19.879,47.606a.8.8,0,0,1-.669.487C257.891,688.48,257.87,688.481,257.847,688.481Zm-14.495-24.716a.8.8,0,0,1,.675.374L257.7,685.956l18.98-45.45-39.658-16.561L218.047,669.4l25.131-5.611A.758.758,0,0,1,243.353,663.766Z" transform="translate(-215.922 -622.106)"/><g transform="translate(10.136 8.35)"><path class="c" d="M273.98,647.141l-7.952,19.041a87.973,87.973,0,0,1-40.568-18.538l7.383-17.681Z" transform="translate(-225.46 -629.963)"/></g><path class="b" d="M257.847,688.481a.8.8,0,0,1-.675-.374l-14.2-22.643-26.083,5.823a.8.8,0,0,1-.91-1.085l19.88-47.606a.8.8,0,0,1,1.042-.428l20.565,8.587h0l20.564,8.587a.8.8,0,0,1,.427,1.042l-19.879,47.606a.8.8,0,0,1-.669.487C257.891,688.48,257.87,688.481,257.847,688.481Zm-14.495-24.716a.8.8,0,0,1,.675.374L257.7,685.956l18.98-45.45-39.658-16.561L218.047,669.4l25.131-5.611A.758.758,0,0,1,243.353,663.766Z" transform="translate(-215.922 -622.106)"/><g transform="translate(48.256 0.001)"><path class="a" d="M282.646,631.444l20.564-8.587,19.88,47.606-26.633-5.946-14.495,23.121-19.88-47.606Z" transform="translate(-261.286 -622.06)"/><path class="b" d="M282.009,688.481c-.021,0-.044,0-.065,0a.8.8,0,0,1-.671-.487l-19.879-47.606a.8.8,0,0,1,.427-1.042l20.565-8.587h0l20.564-8.587a.8.8,0,0,1,1.044.428L323.873,670.2a.8.8,0,0,1-.91,1.085l-26.083-5.823-14.2,22.643A.8.8,0,0,1,282.009,688.481Zm-18.838-47.975,18.98,45.45,13.678-21.816a.79.79,0,0,1,.849-.354l25.13,5.61-18.979-45.45Z" transform="translate(-261.333 -622.107)"/><g transform="translate(3.946 8.349)"><path class="c" d="M265.046,647.141,273,666.182a87.973,87.973,0,0,0,40.568-18.538l-7.383-17.681Z" transform="translate(-265.046 -629.963)"/></g><path class="b" d="M282.009,688.481c-.021,0-.044,0-.065,0a.8.8,0,0,1-.671-.487l-19.879-47.606a.8.8,0,0,1,.427-1.042l20.565-8.587h0l20.564-8.587a.8.8,0,0,1,1.044.428L323.873,670.2a.8.8,0,0,1-.91,1.085l-26.083-5.823-14.2,22.643A.8.8,0,0,1,282.009,688.481Zm-18.838-47.975,18.98,45.45,13.678-21.816a.79.79,0,0,1,.849-.354l25.13,5.61-18.979-45.45Z" transform="translate(-261.333 -622.107)"/></g></g><circle class="d" cx="54.057" cy="54.057" r="54.057" transform="translate(0 106.717) rotate(-80.783)"/><path class="b" d="M271.318,657.781a54.854,54.854,0,1,1,54.853-54.854A54.917,54.917,0,0,1,271.318,657.781Zm0-108.114a53.26,53.26,0,1,0,53.259,53.26A53.321,53.321,0,0,0,271.318,549.668Z" transform="translate(-209.3 -540.91)"/><circle class="a" cx="48.843" cy="48.843" r="48.843" transform="translate(5.981 102.406) rotate(-80.783)"/><g transform="translate(7.033 7.033)"><circle class="e" cx="47.926" cy="47.926" r="47.926" transform="translate(0 94.615) rotate(-80.783)"/></g><g class="f" transform="translate(25.115 25.114)"><path class="g" d="M302.2,564.966a48.8,48.8,0,0,1-68.845,68.846A48.811,48.811,0,1,0,302.2,564.966Z" transform="translate(-233.356 -564.966)"/></g><path class="h" d="M271.007,552.98a49.616,49.616,0,0,0-40.318,78.563,50.97,50.97,0,0,0,4.027,4.91c.117.117.223.244.34.361a46.728,46.728,0,0,0,4.027,3.783,48.7,48.7,0,0,0,5.143,3.8c1.307.839,2.646,1.615,4.027,2.327.106.064.223.117.34.181,1.307.669,2.657,1.275,4.027,1.817a49.2,49.2,0,0,0,18.384,3.539,49.642,49.642,0,0,0,0-99.285Zm0,97.691a47.723,47.723,0,0,1-18.384-3.656c-1.381-.574-2.72-1.211-4.027-1.9a3.5,3.5,0,0,1-.34-.191,45.434,45.434,0,0,1-4.027-2.423,48.313,48.313,0,0,1-5.143-4.006,46.6,46.6,0,0,1-4.027-4.038c-.117-.128-.234-.255-.34-.383a47.015,47.015,0,0,1-4.027-5.356,48.027,48.027,0,1,1,40.318,21.955Z" transform="translate(-208.992 -540.603)"/></g><g transform="translate(297.236 2595.218)"><g class="i" transform="translate(3.156 4.522)"><path class="g" d="M270.587,581.261c-.4-.672-.7-1.254-1.078-1.783-2.66-3.757-6.381-4.991-10.786-4.353-5.82.843-8.934,5.383-9.272,10.927a15.073,15.073,0,0,0,5.314,12.609c3.153,2.828,6.421,5.529,9.646,8.277,1.836,1.564,3.692,3.105,5.529,4.668.414.352.715.488,1.225.051,5.077-4.354,10.246-8.6,15.26-13.029a14.978,14.978,0,0,0,5.144-13.858c-.748-5.654-4.843-9.608-10.617-9.787C277.187,574.865,273.165,576.317,270.587,581.261Z" transform="translate(-231.13 -574.965)"/><path class="g" d="M297.732,627.651a25.158,25.158,0,0,1-5.416,7.627,27.863,27.863,0,0,1-18.226,8.054,27.394,27.394,0,0,1-19.223-5.939,53.528,53.528,0,0,1-13.251-16.4,70.679,70.679,0,0,1-5.649-13.271c-.1-.337-.252-.862-.437-1.533-1.321-4.753-4.377-16.952-2.951-23.261a5.485,5.485,0,0,1,4.974,4.422c.616,3.854,1.3,7.7,2.1,11.526a38.753,38.753,0,0,0,4.527,12.161,4.524,4.524,0,0,0,1.866,1.68,3.1,3.1,0,0,0,3.673-.879c1.757-1.777.1-4.19-.9-6.041-.413-.766-.8-1.511-1.186-2.3-1.093-2.258-.135-3.356.15-3.64,0,0,.829-.829,2.21.622a21.24,21.24,0,0,1,3.85,6.033c.428,1.088.882,2.169,1.255,3.277,1.266,3.748,2.407,7.542,3.766,11.256a33.319,33.319,0,0,0,5.718,10.007c4.261,5.1,9.676,7.179,16.214,6.1a28.533,28.533,0,0,0,14.288-7.025C295.988,629.327,296.851,628.476,297.732,627.651Z" transform="translate(-232.208 -574.466)"/><path class="g" d="M305.826,606.186c-.186.672-.338,1.2-.437,1.533a70.931,70.931,0,0,1-3.615,9.3l0,0c0,.006-.006.014-.014.028a.241.241,0,0,1-.026.053c-.7,1.338-10.054,18.535-30.257,18.414l.033-.02q.642-.352,1.266-.774a19.382,19.382,0,0,0,4-3.673A33.319,33.319,0,0,0,282.5,621.04c1.359-3.714,2.5-7.508,3.766-11.256.373-1.108.827-2.189,1.255-3.277a21.249,21.249,0,0,1,3.849-6.033c1.383-1.452,2.211-.622,2.211-.622.285.284,1.243,1.381.149,3.64-.384.79-.774,1.537-1.185,2.3-1,1.851-2.659,4.264-.9,6.041a3.1,3.1,0,0,0,3.673.879,4.515,4.515,0,0,0,1.865-1.68A38.78,38.78,0,0,0,301.7,598.87c.8-3.819,1.481-7.668,2.1-11.524a5.485,5.485,0,0,1,4.974-4.422C310.2,589.234,307.147,601.432,305.826,606.186Z" transform="translate(-229.747 -574.466)"/></g><path class="j" d="M267.617,577.005c-.4-.671-.7-1.253-1.078-1.782-2.659-3.758-6.381-4.991-10.785-4.354-5.821.844-8.935,5.383-9.273,10.927a15.075,15.075,0,0,0,5.314,12.609c3.153,2.829,6.421,5.53,9.646,8.278,1.836,1.564,3.693,3.105,5.53,4.668.413.352.715.488,1.225.05,5.077-4.354,10.245-8.6,15.26-13.028a14.978,14.978,0,0,0,5.143-13.859c-.748-5.653-4.841-9.607-10.617-9.787C274.217,570.61,270.2,572.061,267.617,577.005Z" transform="translate(-228.16 -570.71)"/><path class="j" d="M294.763,623.394a25.183,25.183,0,0,1-5.417,7.628,27.866,27.866,0,0,1-18.225,8.053,27.394,27.394,0,0,1-19.224-5.939,53.541,53.541,0,0,1-13.251-16.4A70.637,70.637,0,0,1,233,603.464c-.1-.337-.252-.862-.437-1.533-1.321-4.753-4.378-16.952-2.952-23.261a5.485,5.485,0,0,1,4.974,4.422c.616,3.854,1.3,7.7,2.1,11.525a38.717,38.717,0,0,0,4.527,12.161,4.5,4.5,0,0,0,1.865,1.68,3.1,3.1,0,0,0,3.674-.879c1.757-1.776.1-4.189-.9-6.041-.413-.765-.8-1.51-1.187-2.3-1.093-2.258-.134-3.355.151-3.64,0,0,.829-.829,2.21.622a21.24,21.24,0,0,1,3.85,6.033c.428,1.089.881,2.17,1.254,3.278,1.266,3.747,2.407,7.542,3.767,11.256a33.33,33.33,0,0,0,5.717,10.007c4.262,5.1,9.676,7.179,16.214,6.1a28.547,28.547,0,0,0,14.288-7.025C293.019,625.072,293.881,624.221,294.763,623.394Z" transform="translate(-229.238 -570.211)"/><path class="j" d="M302.856,601.931c-.185.672-.337,1.2-.437,1.533a70.923,70.923,0,0,1-3.614,9.3l0,0a.078.078,0,0,1-.014.028.211.211,0,0,1-.024.052c-.7,1.338-10.054,18.535-30.258,18.414l.033-.019q.642-.352,1.266-.774a19.475,19.475,0,0,0,4.005-3.673,33.329,33.329,0,0,0,5.717-10.007c1.36-3.714,2.5-7.509,3.767-11.256.373-1.108.826-2.189,1.254-3.278a21.24,21.24,0,0,1,3.85-6.033c1.381-1.451,2.21-.622,2.21-.622.285.285,1.244,1.381.15,3.64-.385.791-.774,1.537-1.186,2.3-1,1.852-2.659,4.265-.9,6.041a3.1,3.1,0,0,0,3.674.879,4.5,4.5,0,0,0,1.865-1.68,38.775,38.775,0,0,0,4.527-12.162c.8-3.819,1.481-7.669,2.1-11.523a5.485,5.485,0,0,1,4.974-4.422C307.234,584.979,304.177,597.177,302.856,601.931Z" transform="translate(-226.778 -570.211)"/></g></g></svg>