<svg xmlns="http://www.w3.org/2000/svg" width="143.567" height="155.179" viewBox="0 0 143.567 155.179"><defs><style>.a{fill:#ffdc00;}.b{fill:#373737;}.c{fill:#285078;}.d{opacity:0.09;mix-blend-mode:multiply;isolation:isolate;}.e{fill:#0e2d47;}.f{fill:#fff;}.g{opacity:0.42;}</style></defs><g transform="translate(-441.149 -2564)"><g transform="translate(441.149 2564)"><g transform="translate(52.843 118.997)"><g transform="translate(0.798 0.797)"><path class="a" d="M465.2,688.651a.8.8,0,0,1-.371-.091l-10.349-5.442-10.35,5.442a.8.8,0,0,1-1.155-.841l1.976-11.525-8.373-8.161a.8.8,0,0,1,.442-1.359l11.571-1.682,5.174-10.485a.8.8,0,0,1,1.43,0l5.174,10.485,11.57,1.682a.8.8,0,0,1,.442,1.359l-8.372,8.161,1.975,11.525a.8.8,0,0,1-.785.932Z" transform="translate(-436.34 -654.062)"/></g><path class="b" d="M454.53,654.906l5.36,10.862,11.986,1.742-8.673,8.453L465.25,687.9l-10.72-5.636L443.809,687.9l2.048-11.938-8.673-8.453,11.987-1.742,5.36-10.862m0-1.594a1.593,1.593,0,0,0-1.429.888l-4.99,10.11-11.156,1.621a1.595,1.595,0,0,0-.884,2.719l8.073,7.869-1.905,11.111a1.593,1.593,0,0,0,2.312,1.68l9.979-5.245,9.978,5.245a1.594,1.594,0,0,0,2.313-1.68l-1.906-11.111,8.073-7.869a1.594,1.594,0,0,0-.883-2.719l-11.157-1.621-4.989-10.11a1.594,1.594,0,0,0-1.429-.888Z" transform="translate(-435.589 -653.312)"/></g><g transform="translate(99.409 108.78)"><g transform="translate(0.797 0.797)"><path class="a" d="M501.029,669.636a.789.789,0,0,1-.371-.091l-7.3-3.836-7.3,3.836a.8.8,0,0,1-.838-.061.8.8,0,0,1-.317-.78l1.393-8.123-5.9-5.753a.8.8,0,0,1,.442-1.36L489,652.283l3.647-7.391a.8.8,0,0,1,1.43,0l3.647,7.391,8.157,1.185a.8.8,0,0,1,.442,1.36l-5.9,5.753,1.394,8.123a.8.8,0,0,1-.785.932Z" transform="translate(-480.16 -644.448)"/></g><path class="b" d="M493.409,645.292l3.833,7.767,8.571,1.245-6.2,6.045,1.464,8.536-7.667-4.03-7.666,4.03,1.464-8.536L481,654.3l8.571-1.245,3.833-7.767m0-1.594a1.594,1.594,0,0,0-1.429.888l-3.462,7.016-7.743,1.124a1.594,1.594,0,0,0-.883,2.719l5.6,5.461-1.323,7.711a1.595,1.595,0,0,0,2.313,1.68l6.924-3.641,6.925,3.641a1.594,1.594,0,0,0,2.312-1.68l-1.323-7.711,5.6-5.461a1.594,1.594,0,0,0-.883-2.719L498.3,651.6l-3.463-7.016a1.593,1.593,0,0,0-1.429-.888Z" transform="translate(-479.41 -643.698)"/></g><g transform="translate(124.111 90.698)"><g transform="translate(0.798 0.797)"><path class="a" d="M517.363,644.5a.792.792,0,0,1-.371-.091l-4.657-2.447-4.657,2.447a.8.8,0,0,1-.838-.061.8.8,0,0,1-.318-.78l.889-5.184-3.766-3.671a.8.8,0,0,1,.442-1.36l5.2-.757,2.327-4.716a.8.8,0,0,1,1.43,0l2.328,4.716,5.2.757a.8.8,0,0,1,.442,1.36l-3.766,3.671.889,5.184a.8.8,0,0,1-.785.932Z" transform="translate(-503.406 -627.432)"/></g><path class="b" d="M512.383,628.276l2.513,5.092,5.62.817-4.067,3.964.961,5.6-5.027-2.643-5.026,2.643.96-5.6-4.067-3.964,5.62-.817,2.513-5.092m0-1.594h0a1.594,1.594,0,0,0-1.429.888l-2.142,4.341-4.79.7a1.595,1.595,0,0,0-.884,2.719l3.467,3.379-.818,4.771a1.594,1.594,0,0,0,2.312,1.68l4.285-2.253,4.286,2.253a1.594,1.594,0,0,0,2.312-1.68l-.818-4.771,3.466-3.379a1.594,1.594,0,0,0-.883-2.719l-4.792-.7-2.142-4.341a1.593,1.593,0,0,0-1.429-.888Z" transform="translate(-502.655 -626.682)"/></g><g transform="translate(16.159 108.78)"><g transform="translate(0.797 0.797)"><path class="a" d="M407.354,669.636a.8.8,0,0,1-.785-.932l1.393-8.123-5.9-5.753a.8.8,0,0,1,.442-1.36l8.156-1.185,3.648-7.391a.8.8,0,0,1,.715-.444h0a.8.8,0,0,1,.715.444l3.646,7.391,8.157,1.185a.8.8,0,0,1,.442,1.36l-5.9,5.753,1.394,8.123a.8.8,0,0,1-1.156.841l-7.3-3.836-7.3,3.836A.8.8,0,0,1,407.354,669.636Z" transform="translate(-401.819 -644.448)"/></g><path class="b" d="M415.068,645.292l3.834,7.767,8.571,1.245-6.2,6.045,1.464,8.536-7.667-4.03-7.666,4.03,1.464-8.536-6.2-6.045,8.571-1.245,3.833-7.767m0-1.594a1.594,1.594,0,0,0-1.429.888l-3.462,7.016-7.743,1.124a1.595,1.595,0,0,0-.883,2.719l5.6,5.461-1.323,7.711a1.595,1.595,0,0,0,2.313,1.68l6.924-3.641,6.925,3.641a1.594,1.594,0,0,0,2.312-1.68l-1.322-7.711,5.6-5.461a1.595,1.595,0,0,0-.884-2.719L419.96,651.6l-3.462-7.016a1.6,1.6,0,0,0-1.43-.888Z" transform="translate(-401.069 -643.698)"/></g><g transform="translate(0 90.698)"><g transform="translate(0.797 0.797)"><path class="a" d="M400.57,644.5a.792.792,0,0,1-.371-.091l-4.657-2.447-4.657,2.447a.8.8,0,0,1-.838-.061.8.8,0,0,1-.317-.78l.888-5.184-3.766-3.671a.8.8,0,0,1,.443-1.36l5.2-.757,2.327-4.716a.8.8,0,0,1,1.43,0l2.328,4.716,5.2.757a.8.8,0,0,1,.442,1.36l-3.766,3.671.889,5.184a.8.8,0,0,1-.785.932Z" transform="translate(-386.613 -627.432)"/></g><path class="b" d="M395.59,628.276l2.513,5.092,5.62.817-4.067,3.964.961,5.6L395.59,641.1l-5.026,2.643.96-5.6-4.066-3.964,5.619-.817,2.513-5.092m0-1.594a1.594,1.594,0,0,0-1.429.888l-2.142,4.341-4.79.7a1.594,1.594,0,0,0-.883,2.719l3.466,3.379-.818,4.771a1.594,1.594,0,0,0,2.312,1.68l4.285-2.253,4.286,2.253a1.594,1.594,0,0,0,2.312-1.68l-.818-4.771,3.466-3.379a1.594,1.594,0,0,0-.883-2.719l-4.79-.7-2.143-4.341a1.593,1.593,0,0,0-1.429-.888Z" transform="translate(-385.863 -626.682)"/></g><g transform="translate(9.766)"><circle class="c" cx="54.057" cy="54.057" r="54.057" transform="translate(0 106.717) rotate(-80.783)"/><path class="b" d="M456.648,657.781A54.854,54.854,0,1,1,511.5,602.928,54.916,54.916,0,0,1,456.648,657.781Zm0-108.114a53.26,53.26,0,1,0,53.259,53.26A53.32,53.32,0,0,0,456.648,549.668Z" transform="translate(-394.63 -540.91)"/></g><circle class="a" cx="48.843" cy="48.843" r="48.843" transform="translate(15.747 102.406) rotate(-80.783)"/><g transform="translate(16.744 6.979)"><circle class="a" cx="47.974" cy="47.974" r="47.974" transform="translate(0 94.708) rotate(-80.783)"/></g><g class="d" transform="translate(34.88 25.114)"><path class="e" d="M487.532,564.966a48.8,48.8,0,0,1-68.846,68.846,48.811,48.811,0,1,0,68.846-68.846Z" transform="translate(-418.686 -564.966)"/></g><path class="f" d="M456.34,652.261a49.64,49.64,0,1,1,49.64-49.64A49.7,49.7,0,0,1,456.34,652.261Zm0-97.687a48.046,48.046,0,1,0,48.046,48.046A48.1,48.1,0,0,0,456.34,554.574Z" transform="translate(-384.557 -540.603)"/></g><g class="g" transform="translate(474.809 2599.74)"><path class="e" d="M455.917,581.261c-.4-.672-.7-1.254-1.078-1.783-2.659-3.757-6.381-4.991-10.785-4.353-5.821.843-8.935,5.383-9.273,10.927a15.076,15.076,0,0,0,5.314,12.609c3.153,2.828,6.421,5.529,9.646,8.277,1.836,1.564,3.693,3.105,5.53,4.668.413.352.715.488,1.225.051,5.077-4.354,10.245-8.6,15.26-13.029A14.977,14.977,0,0,0,476.9,584.77c-.748-5.654-4.842-9.608-10.617-9.787C462.517,574.865,458.5,576.317,455.917,581.261Z" transform="translate(-416.46 -574.965)"/><path class="e" d="M483.063,627.651a25.179,25.179,0,0,1-5.417,7.627,27.862,27.862,0,0,1-18.225,8.054,27.4,27.4,0,0,1-19.224-5.939,53.545,53.545,0,0,1-13.251-16.4,70.608,70.608,0,0,1-5.648-13.271c-.1-.337-.252-.862-.437-1.533-1.321-4.753-4.378-16.952-2.952-23.261a5.485,5.485,0,0,1,4.974,4.422c.616,3.854,1.3,7.7,2.1,11.526a38.727,38.727,0,0,0,4.527,12.161,4.515,4.515,0,0,0,1.865,1.68,3.1,3.1,0,0,0,3.674-.879c1.757-1.777.1-4.19-.9-6.041-.413-.766-.8-1.511-1.187-2.3-1.094-2.258-.134-3.356.151-3.64,0,0,.829-.829,2.21.622a21.24,21.24,0,0,1,3.85,6.033c.428,1.088.881,2.169,1.254,3.277,1.266,3.748,2.407,7.542,3.767,11.256a33.317,33.317,0,0,0,5.717,10.007c4.262,5.1,9.676,7.179,16.214,6.1a28.529,28.529,0,0,0,14.288-7.025C481.319,629.327,482.181,628.476,483.063,627.651Z" transform="translate(-417.538 -574.466)"/><path class="e" d="M491.156,606.186c-.185.672-.337,1.2-.437,1.533a70.925,70.925,0,0,1-3.614,9.3l0,0c0,.006-.005.014-.014.028a.237.237,0,0,1-.024.053c-.7,1.338-10.054,18.535-30.258,18.414l.033-.02q.642-.352,1.266-.774a19.413,19.413,0,0,0,4.005-3.673,33.315,33.315,0,0,0,5.717-10.007c1.36-3.714,2.5-7.508,3.767-11.256.373-1.108.826-2.189,1.254-3.277a21.24,21.24,0,0,1,3.85-6.033c1.381-1.452,2.21-.622,2.21-.622.285.284,1.244,1.381.15,3.64-.385.79-.774,1.537-1.186,2.3-1,1.851-2.659,4.264-.9,6.041a3.1,3.1,0,0,0,3.674.879,4.515,4.515,0,0,0,1.865-1.68,38.78,38.78,0,0,0,4.527-12.163c.8-3.819,1.481-7.668,2.1-11.524a5.485,5.485,0,0,1,4.974-4.422C495.534,589.234,492.477,601.432,491.156,606.186Z" transform="translate(-415.078 -574.466)"/></g><g transform="translate(471.654 2595.218)"><path class="c" d="M452.948,577.005c-.4-.671-.7-1.253-1.078-1.782-2.66-3.758-6.381-4.991-10.786-4.354-5.82.844-8.934,5.383-9.272,10.927a15.072,15.072,0,0,0,5.314,12.609c3.153,2.829,6.421,5.53,9.646,8.278,1.836,1.564,3.693,3.105,5.53,4.668.413.352.714.488,1.224.05,5.077-4.354,10.246-8.6,15.26-13.028a14.979,14.979,0,0,0,5.144-13.859c-.748-5.653-4.843-9.607-10.617-9.787C459.549,570.61,455.526,572.061,452.948,577.005Z" transform="translate(-413.491 -570.71)"/><path class="c" d="M480.093,623.394a25.162,25.162,0,0,1-5.416,7.628,27.867,27.867,0,0,1-18.226,8.053,27.389,27.389,0,0,1-19.223-5.939,53.525,53.525,0,0,1-13.251-16.4,70.712,70.712,0,0,1-5.649-13.271c-.1-.337-.251-.862-.437-1.533-1.321-4.753-4.377-16.952-2.951-23.261a5.485,5.485,0,0,1,4.974,4.422c.616,3.854,1.3,7.7,2.1,11.525a38.744,38.744,0,0,0,4.527,12.161,4.509,4.509,0,0,0,1.866,1.68,3.1,3.1,0,0,0,3.673-.879c1.757-1.776.1-4.189-.9-6.041-.413-.765-.8-1.51-1.186-2.3-1.093-2.258-.135-3.355.15-3.64,0,0,.829-.829,2.211.622a21.249,21.249,0,0,1,3.849,6.033c.428,1.089.882,2.17,1.255,3.278,1.266,3.747,2.407,7.542,3.766,11.256a33.332,33.332,0,0,0,5.718,10.007c4.261,5.1,9.676,7.179,16.214,6.1a28.551,28.551,0,0,0,14.288-7.025C478.349,625.072,479.212,624.221,480.093,623.394Z" transform="translate(-414.569 -570.211)"/><path class="c" d="M488.187,601.931c-.185.672-.338,1.2-.437,1.533a70.92,70.92,0,0,1-3.615,9.3l0,0a.1.1,0,0,1-.014.028.214.214,0,0,1-.026.052c-.7,1.338-10.054,18.535-30.257,18.414l.033-.019q.642-.352,1.266-.774a19.443,19.443,0,0,0,4-3.673,33.331,33.331,0,0,0,5.718-10.007c1.359-3.714,2.5-7.509,3.766-11.256.373-1.108.827-2.189,1.255-3.278a21.24,21.24,0,0,1,3.85-6.033c1.382-1.451,2.21-.622,2.21-.622.285.285,1.243,1.381.149,3.64-.384.791-.774,1.537-1.185,2.3-1,1.852-2.659,4.265-.9,6.041a3.1,3.1,0,0,0,3.673.879,4.509,4.509,0,0,0,1.866-1.68,38.8,38.8,0,0,0,4.526-12.162c.8-3.819,1.481-7.669,2.1-11.523a5.485,5.485,0,0,1,4.974-4.422C492.564,584.979,489.508,597.177,488.187,601.931Z" transform="translate(-412.108 -570.211)"/></g></g></svg>