<svg xmlns="http://www.w3.org/2000/svg" width="33.169" height="40.703" viewBox="0 0 33.169 40.703"><defs><style>.a{fill:#ffdc00;}.b{fill:#373737;}.c{fill:#ffaf37;}.d{fill:#285078;}.e{fill:#ff9d3b;}.f{opacity:0.09;mix-blend-mode:multiply;isolation:isolate;}.g{fill:#0e2d47;}.h{fill:#fff;}.i{opacity:0.42;}.j{fill:#3d1a03;}</style></defs><g transform="translate(-248.755 -2563.958)"><g transform="translate(248.755 2563.958)"><g transform="translate(1.762 22.953)"><path class="a" d="M227.488,625.153l-5.5-2.3-5.316,12.731,7.122-1.59,3.876,6.183,5.316-12.731Z" transform="translate(-216.459 -622.643)"/><path class="b" d="M227.133,639.855a.213.213,0,0,1-.18-.1l-3.8-6.055-6.975,1.557a.213.213,0,0,1-.243-.29l5.316-12.731a.213.213,0,0,1,.279-.115l5.5,2.3h0l5.5,2.3a.213.213,0,0,1,.114.279l-5.316,12.731a.213.213,0,0,1-.179.13Zm-3.876-6.609a.213.213,0,0,1,.18.1l3.658,5.834,5.076-12.154-10.6-4.429-5.076,12.154,6.72-1.5A.2.2,0,0,1,223.257,633.246Z" transform="translate(-215.922 -622.106)"/><g transform="translate(2.71 2.233)"><path class="c" d="M238.435,634.557l-2.126,5.092a22.994,22.994,0,0,1-7.643-2.754,23.215,23.215,0,0,1-3.205-2.2l1.974-4.728Z" transform="translate(-225.46 -629.963)"/></g><path class="b" d="M227.133,639.855a.213.213,0,0,1-.18-.1l-3.8-6.055-6.975,1.557a.213.213,0,0,1-.243-.29l5.316-12.731a.213.213,0,0,1,.279-.115l5.5,2.3h0l5.5,2.3a.213.213,0,0,1,.114.279l-5.316,12.731a.213.213,0,0,1-.179.13Zm-3.876-6.609a.213.213,0,0,1,.18.1l3.658,5.834,5.076-12.154-10.6-4.429-5.076,12.154,6.72-1.5A.2.2,0,0,1,223.257,633.246Z" transform="translate(-215.922 -622.106)"/><g transform="translate(12.904 0)"><path class="a" d="M267.582,625.153l5.5-2.3,5.316,12.731L271.275,634,267.4,640.18l-5.316-12.731Z" transform="translate(-261.869 -622.643)"/><path class="b" d="M266.862,639.856h-.017a.213.213,0,0,1-.179-.13l-5.316-12.731a.213.213,0,0,1,.114-.279l5.5-2.3h0l5.5-2.3a.214.214,0,0,1,.279.115l5.316,12.731a.213.213,0,0,1-.243.29l-6.975-1.557-3.8,6.055A.213.213,0,0,1,266.862,639.856Zm-5.037-12.829,5.076,12.154,3.658-5.834a.211.211,0,0,1,.227-.095l6.72,1.5L272.429,622.6Z" transform="translate(-261.333 -622.107)"/><g transform="translate(1.055 2.233)"><path class="c" d="M265.046,634.557l2.126,5.092a22.994,22.994,0,0,0,7.643-2.754,23.215,23.215,0,0,0,3.205-2.2l-1.974-4.728Z" transform="translate(-265.046 -629.963)"/></g><path class="b" d="M266.862,639.856h-.017a.213.213,0,0,1-.179-.13l-5.316-12.731a.213.213,0,0,1,.114-.279l5.5-2.3h0l5.5-2.3a.214.214,0,0,1,.279.115l5.316,12.731a.213.213,0,0,1-.243.29l-6.975-1.557-3.8,6.055A.213.213,0,0,1,266.862,639.856Zm-5.037-12.829,5.076,12.154,3.658-5.834a.211.211,0,0,1,.227-.095l6.72,1.5L272.429,622.6Z" transform="translate(-261.333 -622.107)"/></g></g><g transform="translate(0)"><circle class="d" cx="14.455" cy="14.455" r="14.455" transform="translate(0 28.538) rotate(-80.783)"/><path class="b" d="M231.132,577.411A14.669,14.669,0,1,1,245.8,562.743,14.685,14.685,0,0,1,231.132,577.411Zm0-28.911a14.242,14.242,0,1,0,14.242,14.242A14.259,14.259,0,0,0,231.132,548.5Z" transform="translate(-214.547 -546.158)"/></g><circle class="a" cx="13.061" cy="13.061" r="13.061" transform="translate(1.599 27.385) rotate(-80.783)"/><g transform="translate(1.881 1.881)"><circle class="e" cx="12.816" cy="12.816" r="12.816" transform="translate(0 25.301) rotate(-80.783)"/></g><g class="f" transform="translate(6.716 6.716)"><path class="g" d="M251.766,564.966a13.051,13.051,0,0,1-18.41,18.41,13.053,13.053,0,1,0,18.41-18.41Z" transform="translate(-233.356 -564.966)"/></g><path class="h" d="M234.644,552.98a13.268,13.268,0,0,0-10.781,21.009,13.639,13.639,0,0,0,1.077,1.313c.031.031.06.065.091.1a12.5,12.5,0,0,0,1.077,1.012,13.038,13.038,0,0,0,1.375,1.017q.524.337,1.077.622c.028.017.06.031.091.048.35.179.71.341,1.077.486a13.156,13.156,0,0,0,4.916.946,13.275,13.275,0,0,0,0-26.55Zm0,26.124a12.762,12.762,0,0,1-4.916-.977c-.369-.153-.727-.324-1.077-.509a.933.933,0,0,1-.091-.051,12.171,12.171,0,0,1-1.077-.648,12.937,12.937,0,0,1-1.375-1.071,12.461,12.461,0,0,1-1.077-1.08c-.031-.034-.063-.068-.091-.1a12.566,12.566,0,0,1-1.077-1.432,12.843,12.843,0,1,1,10.781,5.871Z" transform="translate(-218.06 -549.67)"/></g><g transform="translate(254.888 2572.306)"><g class="i" transform="translate(0.844 1.209)"><path class="g" d="M255.08,576.649c-.108-.18-.188-.335-.288-.477a2.787,2.787,0,0,0-2.884-1.164,2.9,2.9,0,0,0-2.479,2.922,4.031,4.031,0,0,0,1.421,3.372c.843.756,1.717,1.479,2.579,2.213.491.418.987.83,1.479,1.248.111.094.191.13.328.014,1.358-1.164,2.74-2.3,4.081-3.484a4.005,4.005,0,0,0,1.376-3.706,2.961,2.961,0,0,0-5.611-.938Z" transform="translate(-244.529 -574.965)"/><path class="g" d="M249.73,594.885a6.729,6.729,0,0,1-1.448,2.039,7.451,7.451,0,0,1-4.874,2.154,7.326,7.326,0,0,1-5.14-1.588,14.314,14.314,0,0,1-3.544-4.386,18.9,18.9,0,0,1-1.511-3.549c-.026-.09-.067-.23-.117-.41-.353-1.271-1.171-4.533-.789-6.22a1.467,1.467,0,0,1,1.33,1.182c.165,1.031.347,2.06.561,3.082a10.361,10.361,0,0,0,1.211,3.252,1.209,1.209,0,0,0,.5.449.828.828,0,0,0,.982-.235c.47-.475.026-1.12-.241-1.615-.111-.2-.215-.4-.317-.616-.292-.6-.036-.9.04-.973,0,0,.222-.222.591.166a5.68,5.68,0,0,1,1.03,1.613c.115.291.236.58.336.876.338,1,.644,2.017,1.007,3.01a8.91,8.91,0,0,0,1.529,2.676,4.4,4.4,0,0,0,4.336,1.632,7.63,7.63,0,0,0,3.821-1.879C249.264,595.334,249.495,595.106,249.73,594.885Z" transform="translate(-232.208 -580.663)"/><path class="g" d="M280.661,589.145c-.05.18-.09.32-.117.41a18.969,18.969,0,0,1-.967,2.486h0s0,0,0,.007a.063.063,0,0,1-.007.014,9.415,9.415,0,0,1-8.091,4.924l.009-.005q.172-.094.338-.207a5.182,5.182,0,0,0,1.071-.982,8.909,8.909,0,0,0,1.529-2.676c.363-.993.669-2.008,1.007-3.01.1-.3.221-.585.336-.876a5.683,5.683,0,0,1,1.029-1.613c.37-.388.591-.166.591-.166.076.076.332.369.04.973-.1.211-.207.411-.317.616-.268.495-.711,1.14-.241,1.615a.828.828,0,0,0,.982.235,1.207,1.207,0,0,0,.5-.449,10.369,10.369,0,0,0,1.211-3.253c.214-1.021.4-2.051.561-3.082a1.467,1.467,0,0,1,1.33-1.182C281.831,584.612,281.014,587.874,280.661,589.145Z" transform="translate(-260.316 -580.663)"/></g><path class="j" d="M252.11,572.393c-.108-.179-.188-.335-.288-.477a2.787,2.787,0,0,0-2.884-1.164,2.9,2.9,0,0,0-2.48,2.922,4.031,4.031,0,0,0,1.421,3.372c.843.757,1.717,1.479,2.579,2.214.491.418.987.83,1.479,1.248.111.094.191.13.328.013,1.358-1.164,2.74-2.3,4.081-3.484a4.005,4.005,0,0,0,1.375-3.706,2.961,2.961,0,0,0-5.611-.938Z" transform="translate(-241.559 -570.71)"/><path class="j" d="M246.76,590.63a6.735,6.735,0,0,1-1.449,2.04,7.452,7.452,0,0,1-4.874,2.154,7.325,7.325,0,0,1-5.141-1.588,14.317,14.317,0,0,1-3.544-4.386,18.891,18.891,0,0,1-1.51-3.549c-.027-.09-.067-.23-.117-.41-.353-1.271-1.171-4.533-.789-6.22a1.467,1.467,0,0,1,1.33,1.182c.165,1.031.348,2.06.561,3.082a10.353,10.353,0,0,0,1.211,3.252,1.2,1.2,0,0,0,.5.449.828.828,0,0,0,.982-.235c.47-.475.026-1.12-.241-1.615-.111-.2-.215-.4-.317-.616-.292-.6-.036-.9.04-.973,0,0,.222-.222.591.166a5.681,5.681,0,0,1,1.03,1.613c.115.291.236.58.335.877.338,1,.644,2.017,1.007,3.01a8.913,8.913,0,0,0,1.529,2.676,4.4,4.4,0,0,0,4.336,1.632,7.634,7.634,0,0,0,3.821-1.879C246.294,591.079,246.525,590.851,246.76,590.63Z" transform="translate(-229.238 -576.408)"/><path class="j" d="M277.691,584.89c-.049.18-.09.32-.117.41a18.968,18.968,0,0,1-.966,2.486h0a.02.02,0,0,1,0,.007.055.055,0,0,1-.007.014,9.415,9.415,0,0,1-8.091,4.924l.009-.005c.115-.063.228-.132.338-.207a5.206,5.206,0,0,0,1.071-.982,8.911,8.911,0,0,0,1.529-2.676c.364-.993.669-2.008,1.007-3.01.1-.3.221-.585.335-.877a5.681,5.681,0,0,1,1.03-1.613c.369-.388.591-.166.591-.166.076.076.333.369.04.973-.1.211-.207.411-.317.616-.267.5-.711,1.14-.241,1.615a.829.829,0,0,0,.982.235,1.2,1.2,0,0,0,.5-.449,10.369,10.369,0,0,0,1.211-3.252c.213-1.021.4-2.051.561-3.081a1.467,1.467,0,0,1,1.33-1.182C278.862,580.357,278.044,583.619,277.691,584.89Z" transform="translate(-257.346 -576.408)"/></g></g></svg>