<svg xmlns="http://www.w3.org/2000/svg" width="38.392" height="41.497" viewBox="0 0 38.392 41.497"><defs><style>.a{fill:#ffdc00;}.b{fill:#373737;}.c{fill:#285078;}.d{opacity:0.09;mix-blend-mode:multiply;isolation:isolate;}.e{fill:#0e2d47;}.f{fill:#fff;}.g{opacity:0.42;}</style></defs><g transform="translate(-421.286 -2563.958)"><g transform="translate(421.286 2563.958)"><g transform="translate(14.131 31.821)"><g transform="translate(0.213 0.213)"><path class="a" d="M444.058,663.311a.214.214,0,0,1-.1-.024l-2.768-1.455-2.768,1.455a.213.213,0,0,1-.309-.225l.528-3.082L436.4,657.8a.213.213,0,0,1,.118-.363l3.094-.45,1.384-2.8a.213.213,0,0,1,.383,0l1.384,2.8,3.094.45a.213.213,0,0,1,.118.363l-2.239,2.182.528,3.082a.213.213,0,0,1-.21.249Z" transform="translate(-436.34 -654.062)"/></g><path class="b" d="M440.654,653.738l1.433,2.9,3.205.466-2.319,2.26.548,3.192-2.867-1.507-2.867,1.507.548-3.192-2.319-2.26,3.205-.466,1.433-2.9m0-.426a.426.426,0,0,0-.382.238l-1.334,2.7-2.983.433a.426.426,0,0,0-.236.727l2.159,2.1-.51,2.971a.426.426,0,0,0,.618.449l2.669-1.4,2.668,1.4a.426.426,0,0,0,.619-.449l-.51-2.971,2.159-2.1a.426.426,0,0,0-.236-.727l-2.984-.433-1.334-2.7a.426.426,0,0,0-.382-.238Z" transform="translate(-435.589 -653.312)"/></g><g transform="translate(26.583 29.089)"><g transform="translate(0.213 0.213)"><path class="a" d="M485.74,651.184a.211.211,0,0,1-.1-.024l-1.951-1.026-1.951,1.026a.211.211,0,0,1-.1.024.213.213,0,0,1-.21-.249l.373-2.172-1.579-1.539a.213.213,0,0,1,.118-.364l2.181-.317.975-1.976a.213.213,0,0,1,.383,0l.975,1.976,2.181.317a.213.213,0,0,1,.118.364l-1.579,1.539.373,2.172a.213.213,0,0,1-.21.249Z" transform="translate(-480.16 -644.448)"/></g><path class="b" d="M483.153,644.124l1.025,2.077,2.292.333-1.658,1.617.392,2.283-2.05-1.078-2.05,1.078.392-2.283-1.659-1.617,2.292-.333,1.025-2.077m0-.426a.426.426,0,0,0-.382.238l-.926,1.876-2.07.3a.426.426,0,0,0-.236.727l1.5,1.46-.354,2.062a.427.427,0,0,0,.619.449l1.852-.974,1.852.974a.426.426,0,0,0,.618-.449l-.354-2.062,1.5-1.46a.426.426,0,0,0-.236-.727l-2.07-.3-.926-1.876a.426.426,0,0,0-.382-.238Z" transform="translate(-479.41 -643.698)"/></g><g transform="translate(33.189 24.254)"><g transform="translate(0.213 0.213)"><path class="a" d="M507.138,632a.212.212,0,0,1-.1-.024l-1.245-.654-1.245.654a.213.213,0,0,1-.224-.016.214.214,0,0,1-.085-.209l.238-1.386-1.007-.982a.213.213,0,0,1,.118-.364l1.392-.2.622-1.261a.213.213,0,0,1,.383,0l.623,1.261,1.392.2a.213.213,0,0,1,.118.364l-1.007.982.238,1.386a.213.213,0,0,1-.21.249Z" transform="translate(-503.406 -627.432)"/></g><path class="b" d="M505.257,627.108l.672,1.362,1.5.219-1.088,1.06.257,1.5-1.344-.707-1.344.707.257-1.5-1.088-1.06,1.5-.219.672-1.362m0-.426h0a.426.426,0,0,0-.382.238l-.573,1.161-1.281.186a.427.427,0,0,0-.236.727l.927.9-.219,1.276a.426.426,0,0,0,.618.449l1.146-.6,1.146.6a.426.426,0,0,0,.618-.449L506.8,629.9l.927-.9a.426.426,0,0,0-.236-.727l-1.281-.186-.573-1.161a.426.426,0,0,0-.382-.238Z" transform="translate(-502.655 -626.682)"/></g><g transform="translate(4.321 29.089)"><g transform="translate(0.213 0.213)"><path class="a" d="M403.3,651.184a.213.213,0,0,1-.21-.249l.373-2.172-1.578-1.539a.213.213,0,0,1,.118-.364l2.181-.317.976-1.976a.214.214,0,0,1,.191-.119h0a.214.214,0,0,1,.191.119l.975,1.976,2.181.317a.213.213,0,0,1,.118.364l-1.579,1.539.373,2.172a.213.213,0,0,1-.309.225l-1.951-1.026-1.951,1.026A.212.212,0,0,1,403.3,651.184Z" transform="translate(-401.819 -644.448)"/></g><path class="b" d="M404.813,644.124l1.025,2.077,2.292.333-1.659,1.617.392,2.283-2.05-1.078-2.05,1.078.392-2.283-1.659-1.617,2.292-.333,1.025-2.077m0-.426a.426.426,0,0,0-.382.238l-.926,1.876-2.07.3a.426.426,0,0,0-.236.727l1.5,1.46-.354,2.062a.427.427,0,0,0,.619.449l1.852-.974,1.852.974a.426.426,0,0,0,.618-.449l-.354-2.062,1.5-1.46a.426.426,0,0,0-.236-.727l-2.07-.3-.926-1.876a.427.427,0,0,0-.383-.238Z" transform="translate(-401.069 -643.698)"/></g><g transform="translate(0 24.254)"><g transform="translate(0.213 0.213)"><path class="a" d="M390.345,632a.212.212,0,0,1-.1-.024L389,631.316l-1.245.654a.213.213,0,0,1-.309-.225l.238-1.386-1.007-.982a.213.213,0,0,1,.118-.364l1.392-.2.622-1.261a.213.213,0,0,1,.382,0l.623,1.261,1.392.2a.213.213,0,0,1,.118.364l-1.007.982.238,1.386a.213.213,0,0,1-.21.249Z" transform="translate(-386.613 -627.432)"/></g><path class="b" d="M388.464,627.108l.672,1.362,1.5.219-1.088,1.06.257,1.5-1.344-.707-1.344.707.257-1.5-1.087-1.06,1.5-.219.672-1.362m0-.426a.426.426,0,0,0-.382.238l-.573,1.161-1.281.186a.426.426,0,0,0-.236.727l.927.9-.219,1.276a.426.426,0,0,0,.618.449l1.146-.6,1.146.6a.426.426,0,0,0,.618-.449l-.219-1.276.927-.9a.426.426,0,0,0-.236-.727l-1.281-.186-.573-1.161a.426.426,0,0,0-.382-.238Z" transform="translate(-385.863 -626.682)"/></g><g transform="translate(2.611)"><circle class="c" cx="14.455" cy="14.455" r="14.455" transform="translate(0 28.538) rotate(-80.783)"/><path class="b" d="M416.463,577.411a14.669,14.669,0,1,1,14.668-14.669A14.685,14.685,0,0,1,416.463,577.411Zm0-28.911A14.242,14.242,0,1,0,430.7,562.743,14.258,14.258,0,0,0,416.463,548.5Z" transform="translate(-399.878 -546.158)"/></g><circle class="a" cx="13.061" cy="13.061" r="13.061" transform="translate(4.211 27.385) rotate(-80.783)"/><g transform="translate(4.478 1.866)"><circle class="a" cx="12.829" cy="12.829" r="12.829" transform="translate(0 25.326) rotate(-80.783)"/></g><g class="d" transform="translate(9.327 6.716)"><path class="e" d="M437.1,564.966a13.051,13.051,0,0,1-18.41,18.41,13.053,13.053,0,1,0,18.41-18.41Z" transform="translate(-418.686 -564.966)"/></g><path class="f" d="M419.975,579.529a13.274,13.274,0,1,1,13.274-13.274A13.289,13.289,0,0,1,419.975,579.529Zm0-26.123a12.848,12.848,0,1,0,12.848,12.848A12.863,12.863,0,0,0,419.975,553.406Z" transform="translate(-400.779 -549.67)"/></g><g class="g" transform="translate(430.287 2573.516)"><path class="e" d="M440.41,576.649c-.108-.18-.188-.335-.288-.477a2.787,2.787,0,0,0-2.884-1.164,2.9,2.9,0,0,0-2.48,2.922,4.032,4.032,0,0,0,1.421,3.372c.843.756,1.717,1.479,2.579,2.213.491.418.987.83,1.479,1.248.111.094.191.13.328.014,1.358-1.164,2.74-2.3,4.081-3.484a4.005,4.005,0,0,0,1.375-3.706,2.961,2.961,0,0,0-5.611-.938Z" transform="translate(-429.859 -574.965)"/><path class="e" d="M435.06,594.885a6.734,6.734,0,0,1-1.449,2.039,7.451,7.451,0,0,1-4.874,2.154,7.327,7.327,0,0,1-5.141-1.588,14.318,14.318,0,0,1-3.544-4.386,18.882,18.882,0,0,1-1.51-3.549c-.027-.09-.067-.23-.117-.41-.353-1.271-1.171-4.533-.789-6.22a1.467,1.467,0,0,1,1.33,1.182c.165,1.031.348,2.06.561,3.082a10.355,10.355,0,0,0,1.211,3.252,1.207,1.207,0,0,0,.5.449.829.829,0,0,0,.982-.235c.47-.475.026-1.12-.241-1.615-.111-.2-.215-.4-.317-.616-.292-.6-.036-.9.04-.973,0,0,.222-.222.591.166a5.68,5.68,0,0,1,1.03,1.613c.115.291.236.58.335.876.338,1,.644,2.017,1.007,3.01a8.909,8.909,0,0,0,1.529,2.676,4.4,4.4,0,0,0,4.336,1.632,7.629,7.629,0,0,0,3.821-1.879C434.594,595.334,434.825,595.106,435.06,594.885Z" transform="translate(-417.538 -580.663)"/><path class="e" d="M465.991,589.145c-.049.18-.09.32-.117.41a18.963,18.963,0,0,1-.966,2.486h0a.019.019,0,0,1,0,.007.066.066,0,0,1-.007.014,9.415,9.415,0,0,1-8.091,4.924l.009-.005q.172-.094.338-.207a5.188,5.188,0,0,0,1.071-.982,8.909,8.909,0,0,0,1.529-2.676c.364-.993.669-2.008,1.007-3.01.1-.3.221-.585.335-.876a5.68,5.68,0,0,1,1.03-1.613c.369-.388.591-.166.591-.166.076.076.333.369.04.973-.1.211-.207.411-.317.616-.267.495-.711,1.14-.241,1.615a.829.829,0,0,0,.982.235,1.206,1.206,0,0,0,.5-.449,10.369,10.369,0,0,0,1.211-3.253c.213-1.021.4-2.051.561-3.082a1.467,1.467,0,0,1,1.33-1.182C467.162,584.612,466.344,587.874,465.991,589.145Z" transform="translate(-445.647 -580.663)"/></g><g transform="translate(429.444 2572.306)"><path class="c" d="M437.441,572.393c-.108-.179-.188-.335-.288-.477a2.787,2.787,0,0,0-2.884-1.164,2.9,2.9,0,0,0-2.479,2.922,4.03,4.03,0,0,0,1.421,3.372c.843.757,1.717,1.479,2.579,2.214.491.418.987.83,1.479,1.248.111.094.191.13.327.013,1.358-1.164,2.74-2.3,4.081-3.484a4.005,4.005,0,0,0,1.376-3.706,2.961,2.961,0,0,0-5.611-.938Z" transform="translate(-426.89 -570.71)"/><path class="c" d="M432.091,590.63a6.729,6.729,0,0,1-1.448,2.04,7.452,7.452,0,0,1-4.874,2.154,7.324,7.324,0,0,1-5.14-1.588,14.312,14.312,0,0,1-3.544-4.386,18.912,18.912,0,0,1-1.511-3.549c-.026-.09-.067-.23-.117-.41-.353-1.271-1.171-4.533-.789-6.22a1.467,1.467,0,0,1,1.33,1.182c.165,1.031.347,2.06.561,3.082a10.36,10.36,0,0,0,1.211,3.252,1.205,1.205,0,0,0,.5.449.828.828,0,0,0,.982-.235c.47-.475.026-1.12-.241-1.615-.111-.2-.215-.4-.317-.616-.292-.6-.036-.9.04-.973,0,0,.222-.222.591.166a5.683,5.683,0,0,1,1.029,1.613c.115.291.236.58.336.877.338,1,.644,2.017,1.007,3.01a8.914,8.914,0,0,0,1.529,2.676,4.4,4.4,0,0,0,4.336,1.632,7.635,7.635,0,0,0,3.821-1.879C431.625,591.079,431.855,590.851,432.091,590.63Z" transform="translate(-414.569 -576.408)"/><path class="c" d="M463.022,584.89c-.049.18-.09.32-.117.41a18.965,18.965,0,0,1-.967,2.486h0a.026.026,0,0,1,0,.007.057.057,0,0,1-.007.014,9.415,9.415,0,0,1-8.091,4.924l.009-.005q.172-.094.338-.207a5.2,5.2,0,0,0,1.071-.982,8.912,8.912,0,0,0,1.529-2.676c.363-.993.669-2.008,1.007-3.01.1-.3.221-.585.336-.877a5.681,5.681,0,0,1,1.03-1.613c.369-.388.591-.166.591-.166.076.076.332.369.04.973-.1.211-.207.411-.317.616-.268.5-.711,1.14-.241,1.615a.828.828,0,0,0,.982.235,1.206,1.206,0,0,0,.5-.449,10.374,10.374,0,0,0,1.21-3.252c.214-1.021.4-2.051.561-3.081a1.467,1.467,0,0,1,1.33-1.182C464.192,580.357,463.375,583.619,463.022,584.89Z" transform="translate(-442.678 -576.408)"/></g></g></svg>