<?xml version="1.0" encoding="UTF-8"?>
<svg xmlns="http://www.w3.org/2000/svg" xmlns:xlink="http://www.w3.org/1999/xlink" width="60pt" height="60pt" viewBox="0 0 60 60" version="1.1">
<defs>
<clipPath id="clip1">
  <path d="M 2.5 11 L 57.503906 11 L 57.503906 49 L 2.5 49 Z M 2.5 11 "/>
</clipPath>
<clipPath id="clip2">
  <path d="M 2.5 8 L 57.503906 8 L 57.503906 52 L 2.5 52 Z M 2.5 8 "/>
</clipPath>
</defs>
<g id="surface1">
<g clip-path="url(#clip1)" clip-rule="nonzero">
<path style=" stroke:none;fill-rule:nonzero;fill:rgb(100%,100%,100%);fill-opacity:1;" d="M 54.449219 11.835938 L 5.550781 11.835938 C 4.007812 11.84375 2.761719 13.089844 2.753906 14.628906 L 2.753906 45.371094 C 2.761719 46.910156 4.007812 48.15625 5.550781 48.164062 L 54.449219 48.164062 C 55.992188 48.15625 57.238281 46.910156 57.246094 45.371094 L 57.246094 14.628906 C 57.238281 13.089844 55.992188 11.84375 54.449219 11.835938 Z M 53.402344 13.929688 L 31.605469 30.277344 C 31.132812 30.605469 30.570312 30.773438 30 30.761719 C 29.425781 30.773438 28.863281 30.605469 28.390625 30.277344 L 6.597656 13.929688 Z M 41.757812 31.359375 L 53.636719 46.027344 C 53.636719 46.042969 53.660156 46.054688 53.675781 46.066406 L 6.332031 46.066406 C 6.332031 46.054688 6.359375 46.042969 6.367188 46.027344 L 18.242188 31.359375 C 18.605469 30.90625 18.53125 30.25 18.082031 29.886719 C 17.863281 29.710938 17.585938 29.628906 17.3125 29.660156 C 17.035156 29.6875 16.78125 29.828125 16.605469 30.042969 L 4.855469 44.570312 L 4.855469 15.242188 L 27.144531 31.953125 C 27.976562 32.554688 28.980469 32.871094 30.007812 32.855469 C 31.03125 32.871094 32.035156 32.554688 32.871094 31.953125 L 55.15625 15.242188 L 55.15625 44.566406 L 43.40625 30.039062 C 43.230469 29.820312 42.976562 29.683594 42.703125 29.65625 C 42.425781 29.625 42.148438 29.707031 41.933594 29.882812 C 41.710938 30.054688 41.570312 30.308594 41.539062 30.585938 C 41.503906 30.863281 41.585938 31.140625 41.757812 31.359375 Z M 41.757812 31.359375 "/>
</g>
<g clip-path="url(#clip2)" clip-rule="nonzero">
<path style="fill:none;stroke-width:0.2;stroke-linecap:butt;stroke-linejoin:miter;stroke:rgb(100%,100%,100%);stroke-opacity:1;stroke-miterlimit:4;" d="M 1.238243 66.332863 L -17.905243 66.332863 C -18.509308 66.335922 -18.997147 66.823761 -19.000205 67.426296 L -19.000205 79.461704 C -18.997147 80.064239 -18.509308 80.552079 -17.905243 80.555137 L 1.238243 80.555137 C 1.842308 80.552079 2.330147 80.064239 2.333206 79.461704 L 2.333206 67.426296 C 2.330147 66.823761 1.842308 66.335922 1.238243 66.332863 Z M 0.828397 67.152555 L -7.704967 73.552579 C -7.89001 73.681038 -8.110226 73.746797 -8.3335 73.742209 C -8.558304 73.746797 -8.778519 73.681038 -8.963562 73.552579 L -17.495397 67.152555 Z M -3.730377 73.976188 L 0.920154 79.718623 C 0.920154 79.72474 0.929329 79.729328 0.935447 79.733916 L -17.599388 79.733916 C -17.599388 79.729328 -17.588683 79.72474 -17.585624 79.718623 L -12.936623 73.976188 C -12.7944 73.798792 -12.823457 73.541874 -12.999323 73.399651 C -13.084963 73.330834 -13.193542 73.298719 -13.300591 73.310953 C -13.40917 73.321658 -13.508573 73.376712 -13.57739 73.460822 L -18.177455 79.148203 L -18.177455 67.666392 L -9.451401 74.208639 C -9.125665 74.444147 -8.732641 74.568019 -8.330441 74.561901 C -7.929771 74.568019 -7.536747 74.444147 -7.209482 74.208639 L 1.515042 67.666392 L 1.515042 79.146673 L -3.085022 73.459293 C -3.15384 73.373653 -3.253243 73.320129 -3.360292 73.309424 C -3.468871 73.29719 -3.577449 73.329304 -3.661559 73.398122 C -3.748728 73.46541 -3.803782 73.564813 -3.816016 73.673392 C -3.82978 73.78197 -3.797665 73.890549 -3.730377 73.976188 Z M -3.730377 73.976188 " transform="matrix(2.554312,0,0,2.554312,51.286359,-157.59889)"/>
</g>
</g>
</svg>
