<svg xmlns="http://www.w3.org/2000/svg" viewBox="0 0 42 42" width="60" height="60">
	<style>
		tspan { white-space:pre }
		.shp0 { fill: #f0f5f7 } 
		.shp1 { fill: none;stroke: #ffffff;stroke-width: 4 } 
		.shp2 { fill: none } 
		.shp3 { fill: #03a9f5 } 
	</style>
	<g id="Layer">
		<g id="Layer">
			<path id="Layer" class="shp0" d="M21 42C9.39 42 0 32.61 0 21C0 9.39 9.39 0 21 0C32.61 0 42 9.39 42 21C42 32.61 32.61 42 21 42Z" />
			<path id="Layer" class="shp1" d="M21 40C10.49 40 2 31.51 2 21C2 10.49 10.49 2 21 2C31.51 2 40 10.49 40 21C40 31.51 31.51 40 21 40Z" />
		</g>
		<g id="Layer">
			<g id="Layer">
				<g id="Layer">
					<g id="Layer">
						<path id="Layer" class="shp2" d="M9.1 28.7L9.1 28.68C9.16 28.62 9.22 28.57 9.27 28.5C9.52 28.21 9.75 27.9 9.96 27.57C10.17 27.25 10.36 26.91 10.52 26.56C10.68 26.2 10.82 25.84 10.94 25.47C11.05 25.1 11.14 24.72 11.21 24.34C11.21 24.32 11.21 24.31 11.21 24.29C11.21 24.27 11.2 24.25 11.2 24.24C11.19 24.22 11.18 24.21 11.17 24.2C11.16 24.18 11.14 24.17 11.13 24.16C11.04 24.11 10.97 24.05 10.9 23.98C10.83 23.91 10.78 23.83 10.73 23.75C10.69 23.66 10.65 23.57 10.63 23.47C10.61 23.38 10.61 23.28 10.61 23.18C10.61 23.08 10.63 22.98 10.66 22.89C10.69 22.79 10.73 22.7 10.79 22.61C10.84 22.53 10.91 22.45 10.98 22.39C11.06 22.32 11.15 22.26 11.24 22.22C11.25 22.22 11.26 22.21 11.28 22.2C11.29 22.19 11.3 22.18 11.31 22.17C11.31 22.16 11.32 22.14 11.32 22.13C11.33 22.11 11.33 22.1 11.33 22.08C11.34 21.76 11.35 21.44 11.38 21.12C11.39 20.91 11.42 20.7 11.47 20.5C11.53 20.29 11.6 20.09 11.68 19.9C11.77 19.71 11.88 19.52 12 19.35C12.12 19.18 12.25 19.01 12.4 18.86C12.43 18.84 12.44 18.81 12.47 18.78C12.41 18.76 12.37 18.74 12.32 18.73C11.58 18.48 10.83 18.23 10.09 17.96C10.05 17.95 10.02 17.94 9.98 17.92C9.95 17.91 9.91 17.89 9.88 17.87C9.84 17.85 9.81 17.83 9.78 17.81C9.74 17.79 9.71 17.77 9.68 17.74C9.64 17.72 9.61 17.69 9.59 17.66C9.57 17.62 9.56 17.58 9.56 17.54C9.56 17.49 9.57 17.45 9.59 17.42C9.61 17.38 9.64 17.35 9.68 17.33C9.71 17.3 9.75 17.28 9.78 17.26C9.81 17.24 9.85 17.22 9.88 17.2C9.92 17.18 9.95 17.16 9.99 17.15C10.03 17.13 10.06 17.12 10.1 17.1C12.07 16.43 14.03 15.76 16 15.09C17.53 14.57 19.07 14.04 20.6 13.52C20.64 13.5 20.68 13.49 20.71 13.49C20.75 13.48 20.79 13.47 20.83 13.47C20.87 13.47 20.91 13.48 20.95 13.49C20.98 13.49 21.02 13.5 21.06 13.52C21.18 13.56 21.31 13.61 21.43 13.65L28.8 16.19L31.55 17.14C31.6 17.16 31.65 17.17 31.7 17.2C31.75 17.22 31.8 17.25 31.84 17.28C31.88 17.31 31.92 17.34 31.96 17.38C32 17.42 32.04 17.46 32.07 17.5L32.07 17.64C32.04 17.69 32 17.73 31.97 17.77C31.93 17.81 31.89 17.85 31.84 17.88C31.8 17.91 31.75 17.94 31.7 17.96C31.65 17.98 31.6 18 31.55 18.01C30.18 18.48 28.82 18.95 27.45 19.42C25.45 20.11 23.46 20.8 21.46 21.49C20.86 21.7 20.97 21.69 20.39 21.49C18.92 20.98 17.44 20.49 15.97 19.98C15.21 19.72 14.44 19.46 13.68 19.2C13.67 19.2 13.66 19.2 13.64 19.19C13.63 19.19 13.62 19.19 13.61 19.19C13.59 19.19 13.58 19.2 13.57 19.2C13.56 19.2 13.55 19.21 13.53 19.21C13.44 19.28 13.36 19.36 13.28 19.44C13.19 19.52 13.12 19.6 13.05 19.69C12.98 19.78 12.91 19.88 12.85 19.97C12.79 20.07 12.74 20.17 12.69 20.28C12.63 20.43 12.57 20.58 12.53 20.73C12.48 20.89 12.44 21.05 12.4 21.21C12.37 21.37 12.35 21.53 12.33 21.69C12.31 21.85 12.3 22.01 12.3 22.18C12.3 22.19 12.3 22.21 12.3 22.22C12.3 22.24 12.31 22.26 12.31 22.27C12.32 22.28 12.33 22.3 12.34 22.31C12.35 22.32 12.36 22.33 12.38 22.34C12.51 22.44 12.62 22.57 12.69 22.72C12.77 22.86 12.81 23.02 12.82 23.19C12.82 23.36 12.79 23.52 12.73 23.67C12.66 23.82 12.56 23.96 12.44 24.07C12.42 24.07 12.41 24.09 12.4 24.1C12.39 24.11 12.39 24.12 12.38 24.14C12.37 24.15 12.37 24.16 12.37 24.18C12.36 24.19 12.36 24.21 12.37 24.22C12.4 24.73 12.43 25.24 12.45 25.74C12.46 25.9 12.47 26.06 12.47 26.22C12.47 26.38 12.46 26.54 12.45 26.69C12.44 26.85 12.42 27.01 12.4 27.17C12.38 27.32 12.36 27.48 12.32 27.63C12.3 27.8 12.25 27.96 12.19 28.12C12.13 28.28 12.05 28.44 11.97 28.58C11.88 28.72 11.77 28.86 11.66 28.99C11.54 29.11 11.42 29.23 11.28 29.33C11.12 29.45 10.93 29.54 10.75 29.64L10.71 29.64C10.7 29.64 10.7 29.64 10.7 29.64C10.69 29.63 10.69 29.63 10.68 29.63C10.68 29.63 10.68 29.62 10.67 29.62C10.67 29.62 10.66 29.62 10.66 29.61C10.52 29.56 10.38 29.5 10.24 29.44C10.11 29.38 9.97 29.3 9.84 29.23C9.71 29.15 9.58 29.07 9.46 28.98C9.34 28.89 9.22 28.8 9.1 28.7Z" />
						<path id="Layer" fill-rule="evenodd" class="shp3" d="M11.18 31.14L10.28 31.14L10.02 30.97C9.25 30.69 8.63 30.24 8.17 29.88L7.6 29.43L7.6 28.09L8 27.66C8.03 27.63 8.05 27.61 8.08 27.58C8.09 27.57 8.1 27.56 8.11 27.55C8.86 26.62 9.35 25.7 9.59 24.75C9.26 24.29 9.09 23.73 9.11 23.12C9.14 22.45 9.4 21.84 9.86 21.39C9.86 21.26 9.87 21.13 9.88 20.99C9.93 20.49 10.03 20.02 10.19 19.58C9.99 19.52 9.8 19.45 9.6 19.38C9.3 19.27 9.01 19.12 8.77 18.93C8.32 18.58 8.06 18.07 8.07 17.52C8.07 16.98 8.33 16.47 8.78 16.13C9.03 15.94 9.32 15.79 9.62 15.68C10.92 15.24 12.23 14.79 13.51 14.36C14.18 14.13 14.85 13.9 15.53 13.67C17.02 13.16 18.57 12.63 20.13 12.1C20.37 12.01 20.61 11.97 20.85 11.97C21.11 11.97 21.37 12.02 21.61 12.11C21.74 12.16 21.84 12.2 21.93 12.23C23.46 12.76 24.98 13.28 26.5 13.81L29.3 14.77C29.83 14.95 30.36 15.14 30.89 15.32L32.05 15.72C32.44 15.85 32.99 16.1 33.36 16.72L33.58 17.08L33.58 18.01L33.4 18.34C33 19.09 32.31 19.33 32.05 19.42C30.98 19.79 29.9 20.16 28.83 20.54L27.96 20.84C27.43 21.02 26.9 21.2 26.37 21.38C24.92 21.88 23.43 22.39 21.97 22.9L21.85 22.94C21.56 23.04 21.29 23.14 20.94 23.14C20.58 23.14 20.32 23.05 20.07 22.96C20.02 22.94 19.97 22.92 19.92 22.9C18.88 22.55 17.83 22.19 16.81 21.84C16.38 21.69 15.94 21.55 15.5 21.4L14.97 21.22C14.67 21.11 14.37 21.01 14.07 20.91C13.97 21.13 13.9 21.39 13.86 21.72C14.15 22.13 14.31 22.62 14.33 23.13C14.35 23.68 14.2 24.21 13.91 24.65C13.93 24.99 13.95 25.33 13.97 25.68C14 26.56 13.95 27.28 13.8 27.95C13.55 29.08 13 29.95 12.17 30.55C11.99 30.67 11.81 30.77 11.68 30.85C11.63 30.88 11.58 30.9 11.53 30.93L11.18 31.14ZM10.77 29.64C10.94 29.54 11.13 29.44 11.3 29.32C11.88 28.91 12.19 28.31 12.34 27.63C12.48 27.01 12.49 26.38 12.47 25.74C12.44 25.23 12.41 24.73 12.38 24.22C12.38 24.15 12.4 24.11 12.45 24.06C12.98 23.6 12.96 22.76 12.39 22.34C12.33 22.29 12.31 22.25 12.31 22.17C12.35 21.52 12.43 20.88 12.71 20.27C12.9 19.85 13.18 19.49 13.55 19.21C13.57 19.19 13.6 19.19 13.63 19.19C13.65 19.19 13.67 19.19 13.69 19.2C14.46 19.46 15.22 19.72 15.99 19.98C17.46 20.48 18.93 20.98 20.4 21.48C20.7 21.59 20.82 21.64 20.94 21.64C21.06 21.64 21.18 21.59 21.48 21.49C23.47 20.79 25.47 20.11 27.47 19.42C28.83 18.95 30.2 18.48 31.56 18.01C31.77 17.93 31.97 17.85 32.08 17.64L32.08 17.5C31.96 17.3 31.77 17.21 31.56 17.14C30.65 16.82 29.73 16.51 28.81 16.19C26.35 15.34 23.9 14.5 21.44 13.65C21.32 13.61 21.2 13.56 21.07 13.51C21 13.48 20.93 13.47 20.85 13.47C20.78 13.47 20.7 13.49 20.61 13.52C19.08 14.04 17.55 14.57 16.01 15.09C14.04 15.76 12.07 16.43 10.11 17.1C9.96 17.15 9.81 17.23 9.69 17.33C9.53 17.45 9.53 17.62 9.69 17.74C9.81 17.83 9.95 17.91 10.09 17.96C10.84 18.22 11.58 18.47 12.33 18.73C12.37 18.74 12.42 18.76 12.48 18.78C12.45 18.81 12.43 18.84 12.41 18.86C11.78 19.49 11.45 20.25 11.38 21.12C11.35 21.44 11.34 21.76 11.33 22.08C11.33 22.15 11.3 22.19 11.24 22.22C10.85 22.42 10.63 22.75 10.61 23.18C10.6 23.6 10.77 23.93 11.13 24.16C11.2 24.21 11.22 24.26 11.21 24.34C10.97 25.92 10.26 27.28 9.27 28.5C9.22 28.57 9.16 28.62 9.1 28.68L9.1 28.7C9.58 29.08 10.09 29.42 10.67 29.61C10.69 29.62 10.71 29.63 10.72 29.64L10.77 29.64Z" />
					</g>
					<g id="Layer">
						<path id="Layer" class="shp2" d="M14.74 21.29C15.09 21.41 14.95 21.56 15.29 21.67C17.02 22.26 18.75 22.85 20.47 23.44C21.07 23.65 20.93 23.65 21.55 23.44C23.73 22.69 25.92 21.93 28.11 21.18C28.14 21.17 28.17 21.16 28.2 21.15L28.2 21.29C28.2 22.85 28.2 24.41 28.2 25.97C28.2 26.06 28.19 26.14 28.18 26.22C28.16 26.3 28.14 26.38 28.1 26.45C28.07 26.53 28.03 26.6 27.98 26.67C27.93 26.74 27.88 26.8 27.82 26.86C27.72 26.94 27.62 27.03 27.52 27.11C27.42 27.19 27.31 27.26 27.2 27.33C27.09 27.4 26.98 27.46 26.86 27.51C26.74 27.57 26.62 27.62 26.5 27.66C26.28 27.75 26.06 27.83 25.84 27.9C25.62 27.97 25.39 28.04 25.16 28.09C24.94 28.15 24.71 28.2 24.48 28.24C24.25 28.29 24.02 28.32 23.78 28.35C23.5 28.39 23.21 28.42 22.93 28.45C22.64 28.48 22.35 28.5 22.06 28.51C21.78 28.52 21.49 28.53 21.2 28.53C20.91 28.53 20.62 28.52 20.34 28.5C20 28.49 19.66 28.47 19.33 28.44C18.99 28.41 18.66 28.36 18.32 28.3C17.99 28.25 17.66 28.18 17.33 28.1C17.01 28.02 16.68 27.93 16.36 27.82C16.21 27.78 16.07 27.73 15.92 27.67C15.78 27.61 15.64 27.54 15.5 27.47C15.37 27.4 15.24 27.32 15.11 27.23C14.98 27.15 14.85 27.06 14.73 26.96C14.67 26.91 14.62 26.86 14.57 26.8C14.51 26.75 14.47 26.69 14.43 26.62C14.39 26.56 14.35 26.49 14.32 26.42C14.29 26.35 14.27 26.28 14.25 26.2C14.25 26.19 14.25 26.18 14.25 26.17C14.25 26.16 14.25 26.15 14.25 26.14C14.25 26.12 14.24 26.11 14.24 26.1C14.24 26.09 14.24 26.08 14.24 26.07C14.24 24.51 14.25 23.24 14.25 21.68L14.74 21.29Z" />
						<path id="Layer" fill-rule="evenodd" class="shp3" d="M29.7 19.2L29.7 21.15L29.7 21.29C29.7 21.71 29.7 22.13 29.7 22.55C29.7 23.67 29.7 24.83 29.71 25.96C29.71 26.47 29.57 27.22 28.89 27.91C28.3 28.5 27.61 28.83 27.07 29.05C26.18 29.41 25.2 29.66 23.99 29.83C23.09 29.96 22.17 30.02 21.25 30.02C20.93 30.02 20.6 30.01 20.27 30C18.55 29.91 17.16 29.67 15.88 29.24C15.26 29.02 14.46 28.7 13.75 28.08C13.21 27.61 12.89 27.08 12.78 26.46C12.76 26.33 12.75 26.19 12.75 26.06C12.75 25.27 12.75 24.53 12.75 23.81C12.75 23.13 12.76 22.43 12.76 21.67L12.76 20.96L13.31 20.51L13.79 20.12L14.44 19.6L15.22 19.87C15.58 19.99 15.83 20.16 16 20.33C16.41 20.47 16.82 20.61 17.23 20.75C18.45 21.17 19.72 21.6 20.96 22.02C20.98 22.03 20.99 22.03 21.01 22.04C21.02 22.03 21.04 22.03 21.06 22.02C22.71 21.45 24.36 20.88 26.02 20.31L27.62 19.76L27.62 19.76L27.63 19.75C27.7 19.73 27.76 19.71 27.8 19.7L27.81 19.7L29.7 19.2ZM28.2 21.15C28.16 21.16 28.14 21.17 28.11 21.17C25.92 21.93 23.73 22.68 21.55 23.44C21.24 23.55 21.12 23.6 21 23.6C20.89 23.6 20.77 23.54 20.47 23.44C18.75 22.85 17.02 22.26 15.29 21.67C14.95 21.56 15.09 21.41 14.74 21.29L14.26 21.67C14.26 23.23 14.24 24.51 14.25 26.06C14.25 26.11 14.25 26.15 14.26 26.2C14.31 26.51 14.5 26.75 14.74 26.95C15.21 27.37 15.78 27.62 16.36 27.82C17.65 28.26 18.99 28.43 20.34 28.5C20.64 28.51 20.95 28.52 21.25 28.52C22.1 28.52 22.94 28.46 23.79 28.35C24.72 28.22 25.63 28.02 26.5 27.66C26.99 27.46 27.45 27.23 27.82 26.85C28.06 26.61 28.21 26.33 28.21 25.97C28.2 24.41 28.2 22.85 28.2 21.29L28.2 21.15Z" />
					</g>
				</g>
			</g>
		</g>
	</g>
</svg>