<svg xmlns="http://www.w3.org/2000/svg" width="27.647" height="20.212" viewBox="0 0 27.647 20.212"><g transform="translate(0 0)"><path class="a" d="M212.873,219.1a4.411,4.411,0,0,0-4.406,4.406.84.84,0,1,0,1.679,0,2.73,2.73,0,0,1,2.727-2.727.84.84,0,1,0,0-1.679Z" transform="translate(-199.05 -212.924)"/><path class="a" d="M26.807,86.345H21.985l-4.564-3.856a.84.84,0,0,0-.542-.2H10.768a.84.84,0,0,0-.542.2L5.662,86.345H.84a.839.839,0,0,0-.84.839v14.479a.84.84,0,0,0,.84.84H26.807a.84.84,0,0,0,.84-.84V87.185A.84.84,0,0,0,26.807,86.345Zm-.839,14.479H1.679v-9.2H6.507a7.422,7.422,0,1,0,14.632,0h4.828v9.2Zm-12.144-2.2a5.743,5.743,0,1,1,5.743-5.743A5.75,5.75,0,0,1,13.823,98.621ZM1.679,88.024h4.29a.84.84,0,0,0,.542-.2l4.564-3.856h5.5l4.564,3.856a.839.839,0,0,0,.542.2h4.29v1.922H20.642A7.422,7.422,0,0,0,7,89.948l-.049,0H1.679Z" transform="translate(0 -82.291)"/></g></svg>