<svg xmlns="http://www.w3.org/2000/svg" width="26.863" height="23.544" viewBox="0 0 26.863 23.544"><defs><style>.a{fill:#1a3253;}</style></defs><g transform="translate(0 0)"><g transform="translate(0)"><path class="a" d="M176.729,159.668a2.74,2.74,0,1,0,2.74,2.74A2.74,2.74,0,0,0,176.729,159.668Zm0,4.175a1.435,1.435,0,1,1,0-2.871h0a1.435,1.435,0,0,1,0,2.871Z" transform="translate(-163.126 -151.358)"/><path class="a" d="M24.531,28.623,6.721,26.6a2.446,2.446,0,0,0-1.925.555,2.479,2.479,0,0,0-.946,1.7l-.326,2.675H2.513A2.621,2.621,0,0,0,0,34.233V47.575a2.479,2.479,0,0,0,2.413,2.544H20.421a2.678,2.678,0,0,0,2.74-2.544v-.522a3.262,3.262,0,0,0,1.24-.522,2.708,2.708,0,0,0,.946-1.761l1.5-13.244A2.642,2.642,0,0,0,24.531,28.623ZM21.856,47.575a1.373,1.373,0,0,1-1.435,1.24H2.513A1.174,1.174,0,0,1,1.3,47.675q0-.05,0-.1V45.161l5.056-3.719a1.566,1.566,0,0,1,2.022.1l3.556,3.132a3.067,3.067,0,0,0,1.925.718,2.968,2.968,0,0,0,1.566-.424l6.426-3.719v6.328Zm0-7.862-7.111,4.143a1.664,1.664,0,0,1-1.925-.163L9.232,40.529a2.9,2.9,0,0,0-3.621-.13L1.306,43.53v-9.3a1.317,1.317,0,0,1,1.207-1.4H20.421a1.5,1.5,0,0,1,1.435,1.4v5.48Zm3.687-8.364v.013L24.009,44.607a1.109,1.109,0,0,1-.424.881c-.13.131-.424.2-.424.261V34.233a2.805,2.805,0,0,0-2.74-2.707H4.829l.294-2.544a1.5,1.5,0,0,1,.489-.848,1.5,1.5,0,0,1,.979-.261l17.778,2.055A1.3,1.3,0,0,1,25.544,31.35Z" transform="translate(0 -26.576)"/></g></g></svg>