<svg xmlns="http://www.w3.org/2000/svg" width="37" height="37" viewBox="0 0 37 37">
  <g id="Group_2199" data-name="Group 2199" transform="translate(-0.5 -0.102)">
    <g id="Ellipse_38" data-name="Ellipse 38" transform="translate(0.5 0.102)" fill="#dbfb8e" stroke="#285078" stroke-width="1.5">
      <circle cx="18.5" cy="18.5" r="18.5" stroke="none"/>
      <circle cx="18.5" cy="18.5" r="17.75" fill="none"/>
    </g>
    <g id="Group_2198" data-name="Group 2198" transform="translate(3.107 3.857)">
      <g id="Group_2197" data-name="Group 2197" transform="translate(0 0)">
        <path id="Path_217" data-name="Path 217" d="M246.519,35.909a.625.625,0,0,0,.524-.691V31.7a.544.544,0,1,0-1.048,0v3.521A.625.625,0,0,0,246.519,35.909Z" transform="translate(-230.952 -31.006)" fill="#285078" stroke="#285078" stroke-width="0.1"/>
        <path id="Path_218" data-name="Path 218" d="M154.1,63.784a.524.524,0,1,0,.887-.559l-1.4-2.216a.524.524,0,1,0-.887.559Z" transform="translate(-142.478 -58.02)" fill="#285078" stroke="#285078" stroke-width="0.1"/>
        <path id="Path_219" data-name="Path 219" d="M312.992,63.949a.524.524,0,0,0,.723-.164l1.4-2.216a.524.524,0,1,0-.887-.559l-1.4,2.216A.524.524,0,0,0,312.992,63.949Z" transform="translate(-294.205 -58.021)" fill="#285078" stroke="#285078" stroke-width="0.1"/>
        <path id="Path_220" data-name="Path 220" d="M30.939,126.37,29.882,124.5a.608.608,0,1,0-1.058.6l1.056,1.866a.3.3,0,0,1,.026.23.287.287,0,0,1-.136.174l-1.628.9a.308.308,0,0,1-.412-.11l-.414-.732-.005-.01-4.277-7.564a.3.3,0,0,1-.027-.227.285.285,0,0,1,.136-.173l1.63-.9a.3.3,0,0,1,.411.11l4.025,7.065a.608.608,0,1,0,1.058-.6l-4.024-7.064a1.522,1.522,0,0,0-2.058-.576l-1.63.9a1.511,1.511,0,0,0-.614,2l-.9.26a3.536,3.536,0,0,1-.744.171h0a1.519,1.519,0,0,1-.462-.139c-.125-.047-.281-.107-.473-.173l-1.591-.556a3.645,3.645,0,0,0-1.852-.238l-2.713.243a3.665,3.665,0,0,0-2.461.872L9.2,120.382a1.51,1.51,0,0,0-.618-1.988l-1.629-.9a1.523,1.523,0,0,0-2.059.576L.2,126.369a1.513,1.513,0,0,0,.577,2.067l1.629.9a1.525,1.525,0,0,0,2.059-.576l.172-.3a2.856,2.856,0,0,1,1.133.863,2.041,2.041,0,0,0,1.32,3.354,2.039,2.039,0,0,0,1.8,2.242,2.038,2.038,0,0,0,1.8,2.242,2.045,2.045,0,0,0,3.31,1.81l1.273-1.019a2.051,2.051,0,0,0,.276-.266l.727.581a2.043,2.043,0,0,0,3.282-1.2,2.033,2.033,0,0,0,.666.112,2.1,2.1,0,0,0,.231-.013,2.04,2.04,0,0,0,1.807-2.244,2.037,2.037,0,0,0,1.8-2.242,2.044,2.044,0,0,0,1.32-3.354,2.844,2.844,0,0,1,1.132-.863l.173.305a1.525,1.525,0,0,0,2.06.575l1.628-.9a1.515,1.515,0,0,0,.58-2.066ZM3.4,128.164a.308.308,0,0,1-.412.11l-1.629-.9a.286.286,0,0,1-.135-.174.3.3,0,0,1,.027-.23l4.7-8.3a.3.3,0,0,1,.26-.149.312.312,0,0,1,.151.039l1.629.9h0a.285.285,0,0,1,.135.173.3.3,0,0,1-.027.228Zm4.438,3.129A.828.828,0,0,1,6.808,130l2.277-1.82a.831.831,0,0,1,1.166.13.828.828,0,0,1-.13,1.161l-.011.009-2.267,1.811Zm.63,2.112a.83.83,0,0,1,.129-1.162h0l3.279-2.62a.831.831,0,0,1,1.166.13.831.831,0,0,1-.13,1.163l-3.278,2.619a.831.831,0,0,1-1.166-.129Zm2.351,2.547a.827.827,0,0,1-.426-1.468h0l2.269-1.813.008-.006a.831.831,0,0,1,1.165.129.83.83,0,0,1-.131,1.163l-2.277,1.82a.826.826,0,0,1-.61.175Zm3.984.494a.821.821,0,0,1-.3.555l-1.273,1.019a.831.831,0,0,1-1.166-.129.83.83,0,0,1,.129-1.162h0l1.273-1.018h0a.831.831,0,0,1,1.166.13A.819.819,0,0,1,14.807,136.446Zm9.649-5.282a.834.834,0,0,1-1.165.129h0l-1.627-1.3a.608.608,0,0,0-.759.95l1.627,1.3a.828.828,0,1,1-1.035,1.292l-1.765-1.409a.608.608,0,0,0-.759.951l1.764,1.408a.829.829,0,0,1-1.036,1.294l-.878-.7,0,0-.742-.593-.139-.111a.608.608,0,0,0-.76.95l.883.706a.828.828,0,0,1-1.037,1.292l-1-.8a2.035,2.035,0,0,0-1.169-2.01,2.041,2.041,0,0,0-.793-3.044,2.044,2.044,0,0,0-2.461-3.074,2.028,2.028,0,0,0-.4-.837,2.049,2.049,0,0,0-2.875-.321l-1.628,1.3a4.007,4.007,0,0,0-1.461-1.137l3.349-5.924,1.783.517a1.988,1.988,0,0,0,.049.3c.432,1.775,2.066,2.6,4.265,2.159,1.853-.373,2.616.183,4.135,1.289.158.115.321.234.493.357,1.093.784,2.26,1.705,3.043,2.33L24.328,130a.83.83,0,0,1,.129,1.163Zm-.019-2.632-1.325-1.059c-.794-.633-1.978-1.567-3.093-2.368-.169-.121-.33-.238-.485-.351-1.575-1.147-2.714-1.976-5.091-1.5-.728.147-2.461.318-2.843-1.254-.054-.222,0-.3.024-.331.081-.113.408-.389,1.688-.5l2.716-.243a2.49,2.49,0,0,1,1.34.175l1.591.556c.177.062.318.115.443.163a2.33,2.33,0,0,0,1.976,0l1.173-.34L25.9,127.4A4,4,0,0,0,24.438,128.532Z" transform="translate(0 -112.398)" fill="#285078" stroke="#285078" stroke-width="0.1"/>
      </g>
    </g>
  </g>
</svg>
