<svg xmlns="http://www.w3.org/2000/svg" viewBox="0 0 28 26" width="58" height="54">
	<style>
		tspan { white-space:pre }
		.shp0 { fill: #285078 } 
		.shp1 { fill: #f25e2e } 
		.shp2 { fill: #ffc8b7 } 
		.shp3 { fill: #ffffff } 
	</style>
	<g id="Layer">
		<path id="Layer" fill-rule="evenodd" class="shp0" d="M21.64 0C22.37 0 23.1 0.15 23.78 0.43C24.45 0.71 25.07 1.12 25.59 1.64C26.11 2.15 26.52 2.77 26.8 3.45C27.08 4.12 27.22 4.85 27.23 5.58L27.23 15.86C27.22 16.59 27.08 17.31 26.8 17.99C26.52 18.67 26.11 19.28 25.59 19.8C25.07 20.32 24.45 20.73 23.78 21.01C23.1 21.29 22.37 21.44 21.64 21.44L21.26 21.44C21.08 22 20.82 22.53 20.47 23.02C20.13 23.5 19.71 23.92 19.24 24.27C18.76 24.62 18.23 24.89 17.67 25.08C17.11 25.26 16.52 25.35 15.93 25.35L5.58 25.35C4.85 25.35 4.12 25.21 3.45 24.93C2.77 24.65 2.16 24.24 1.64 23.72C1.12 23.2 0.71 22.58 0.43 21.91C0.15 21.23 0 20.5 0 19.77L0 9.5C0 8.77 0.15 8.04 0.43 7.36C0.71 6.69 1.12 6.07 1.64 5.55C2.15 5.03 2.77 4.62 3.45 4.34C4.12 4.06 4.85 3.92 5.58 3.92L5.96 3.92C6.14 3.35 6.41 2.82 6.75 2.34C7.09 1.86 7.51 1.44 7.99 1.09C8.46 0.74 8.99 0.46 9.55 0.28C10.12 0.1 10.7 0 11.29 0L21.64 0ZM25.63 5.59C25.63 5.06 25.52 4.55 25.32 4.06C25.12 3.58 24.83 3.14 24.46 2.77C24.09 2.4 23.65 2.11 23.17 1.9C22.68 1.7 22.16 1.6 21.64 1.6L11.29 1.6C10.91 1.6 10.54 1.65 10.17 1.76C9.81 1.87 9.46 2.02 9.14 2.23C8.82 2.43 8.54 2.68 8.29 2.97C8.04 3.25 7.83 3.57 7.67 3.92L15.93 3.92C16.66 3.92 17.39 4.06 18.07 4.34C18.74 4.62 19.36 5.04 19.88 5.55C20.39 6.07 20.81 6.69 21.09 7.36C21.37 8.04 21.51 8.77 21.51 9.5C21.51 9.52 21.51 19.82 21.51 19.84L21.64 19.84C22.16 19.84 22.68 19.74 23.17 19.54C23.65 19.34 24.09 19.04 24.46 18.67C24.83 18.3 25.12 17.87 25.32 17.38C25.52 16.9 25.63 16.38 25.63 15.86L25.63 5.59ZM15.93 23.76C16.46 23.76 16.97 23.66 17.46 23.46C17.94 23.25 18.38 22.96 18.75 22.59C19.12 22.22 19.41 21.78 19.62 21.3C19.82 20.81 19.92 20.3 19.92 19.77L19.92 9.5C19.92 8.98 19.82 8.46 19.62 7.97C19.42 7.49 19.12 7.05 18.75 6.68C18.38 6.31 17.94 6.02 17.46 5.82C16.97 5.62 16.46 5.51 15.93 5.51L5.58 5.51C5.06 5.51 4.54 5.62 4.06 5.82C3.58 6.02 3.14 6.31 2.77 6.68C2.4 7.05 2.1 7.49 1.9 7.98C1.7 8.46 1.6 8.98 1.6 9.5L1.6 19.77C1.6 20.29 1.7 20.81 1.91 21.29C2.11 21.78 2.4 22.22 2.77 22.59C3.14 22.96 3.58 23.25 4.06 23.45C4.54 23.65 5.06 23.75 5.58 23.76L15.93 23.76L15.93 23.76Z" />
		<path id="Layer" class="shp0" d="M7.17 14.57C7.65 14.57 8.13 14.67 8.57 14.85C9.01 15.03 9.41 15.3 9.75 15.64C10.09 15.98 10.36 16.38 10.54 16.83C10.73 17.27 10.82 17.74 10.82 18.22C10.82 18.43 10.91 18.64 11.06 18.79C11.21 18.94 11.41 19.02 11.62 19.02C11.83 19.02 12.04 18.94 12.19 18.79C12.34 18.64 12.42 18.43 12.42 18.22C12.42 17.53 12.29 16.85 12.02 16.21C11.76 15.58 11.37 15 10.88 14.51C10.4 14.03 9.82 13.64 9.18 13.38C8.55 13.11 7.87 12.98 7.18 12.98C6.96 12.98 6.76 13.06 6.61 13.21C6.46 13.36 6.38 13.56 6.38 13.78C6.38 13.99 6.46 14.19 6.61 14.34C6.76 14.49 6.96 14.58 7.18 14.58L7.17 14.57Z" />
		<path id="Layer" class="shp0" d="M6.84 17.73C6.95 17.73 7.06 17.75 7.16 17.79C7.26 17.83 7.35 17.9 7.42 17.97C7.5 18.05 7.56 18.14 7.6 18.24C7.64 18.34 7.66 18.44 7.66 18.55C7.66 18.76 7.75 18.97 7.9 19.12C8.05 19.27 8.25 19.35 8.46 19.35C8.68 19.35 8.88 19.27 9.03 19.12C9.18 18.97 9.26 18.76 9.26 18.55C9.26 18.23 9.2 17.92 9.08 17.63C8.96 17.33 8.78 17.07 8.55 16.84C8.33 16.62 8.06 16.44 7.77 16.32C7.48 16.2 7.16 16.14 6.85 16.14C6.63 16.14 6.43 16.22 6.28 16.37C6.13 16.52 6.05 16.72 6.05 16.94C6.05 17.15 6.13 17.35 6.28 17.5C6.43 17.65 6.63 17.74 6.85 17.74L6.84 17.73Z" />
		<path id="Layer" class="shp0" d="M7.62 11.52C8.44 11.52 9.25 11.68 10.01 12C10.77 12.31 11.46 12.77 12.04 13.35C12.62 13.93 13.08 14.62 13.4 15.38C13.71 16.14 13.88 16.96 13.88 17.78C13.88 17.99 13.96 18.19 14.11 18.34C14.26 18.49 14.46 18.58 14.68 18.58C14.89 18.58 15.09 18.49 15.24 18.34C15.39 18.19 15.48 17.99 15.48 17.78C15.48 16.75 15.27 15.73 14.88 14.77C14.48 13.82 13.9 12.96 13.17 12.23C12.44 11.5 11.58 10.92 10.63 10.52C9.67 10.13 8.65 9.92 7.62 9.92C7.41 9.92 7.2 10.01 7.05 10.16C6.9 10.31 6.82 10.51 6.82 10.72C6.82 10.93 6.9 11.14 7.05 11.29C7.2 11.44 7.41 11.52 7.62 11.52L7.62 11.52Z" />
	</g>
	<g id="Layer">
		<path id="Layer" class="shp1" d="M2.48 6.41L5.55 5.03L16.87 5.03L19.93 6.41L19.93 23.4L16.87 25.08L4.01 25.08L1.41 22.63L0.19 16.82L1.41 7.63L2.48 6.41Z" />
		<path id="Layer" class="shp2" d="M6.31 5.03L8.3 1.66L10.45 0.74L23 0.74L25.91 3.04L26.67 5.03L26.67 13.91L25.91 18.81L23 19.88L20.55 19.88L20.55 9.93L18.41 5.03L6.31 5.03L6.31 5.03Z" />
		<g id="Layer">
			<path id="Layer" fill-rule="evenodd" class="shp0" d="M21.64 0C22.37 0 23.1 0.15 23.78 0.43C24.45 0.71 25.07 1.12 25.59 1.64C26.11 2.15 26.52 2.77 26.8 3.45C27.08 4.12 27.22 4.85 27.23 5.58L27.23 15.86C27.22 16.59 27.08 17.31 26.8 17.99C26.52 18.67 26.11 19.28 25.59 19.8C25.07 20.32 24.45 20.73 23.78 21.01C23.1 21.29 22.37 21.44 21.64 21.44L21.26 21.44C21.08 22 20.82 22.53 20.47 23.02C20.13 23.5 19.71 23.92 19.24 24.27C18.76 24.62 18.23 24.89 17.67 25.08C17.11 25.26 16.52 25.35 15.93 25.35L5.58 25.35C4.85 25.35 4.12 25.21 3.45 24.93C2.77 24.65 2.16 24.24 1.64 23.72C1.12 23.2 0.71 22.58 0.43 21.91C0.15 21.23 0 20.5 0 19.77L0 9.5C0 8.77 0.15 8.04 0.43 7.36C0.71 6.69 1.12 6.07 1.64 5.55C2.15 5.03 2.77 4.62 3.45 4.34C4.12 4.06 4.85 3.92 5.58 3.92L5.96 3.92C6.14 3.35 6.41 2.82 6.75 2.34C7.09 1.86 7.51 1.44 7.99 1.09C8.46 0.74 8.99 0.46 9.55 0.28C10.12 0.1 10.7 0 11.29 0L21.64 0ZM25.63 5.59C25.63 5.06 25.52 4.55 25.32 4.06C25.12 3.58 24.83 3.14 24.46 2.77C24.09 2.4 23.65 2.11 23.17 1.9C22.68 1.7 22.16 1.6 21.64 1.6L11.29 1.6C10.91 1.6 10.54 1.65 10.17 1.76C9.81 1.87 9.46 2.02 9.14 2.23C8.82 2.43 8.54 2.68 8.29 2.97C8.04 3.25 7.83 3.57 7.67 3.92L15.93 3.92C16.66 3.92 17.39 4.06 18.07 4.34C18.74 4.62 19.36 5.04 19.88 5.55C20.39 6.07 20.81 6.69 21.09 7.36C21.37 8.04 21.51 8.77 21.51 9.5C21.51 9.52 21.51 19.82 21.51 19.84L21.64 19.84C22.16 19.84 22.68 19.74 23.17 19.54C23.65 19.34 24.09 19.04 24.46 18.67C24.83 18.3 25.12 17.87 25.32 17.38C25.52 16.9 25.63 16.38 25.63 15.86L25.63 5.59ZM15.93 23.76C16.46 23.76 16.97 23.66 17.46 23.46C17.94 23.25 18.38 22.96 18.75 22.59C19.12 22.22 19.41 21.78 19.62 21.3C19.82 20.81 19.92 20.3 19.92 19.77L19.92 9.5C19.92 8.98 19.82 8.46 19.62 7.97C19.42 7.49 19.12 7.05 18.75 6.68C18.38 6.31 17.94 6.02 17.46 5.82C16.97 5.62 16.46 5.51 15.93 5.51L5.58 5.51C5.06 5.51 4.54 5.62 4.06 5.82C3.58 6.02 3.14 6.31 2.77 6.68C2.4 7.05 2.1 7.49 1.9 7.98C1.7 8.46 1.6 8.98 1.6 9.5L1.6 19.77C1.6 20.29 1.7 20.81 1.91 21.29C2.11 21.78 2.4 22.22 2.77 22.59C3.14 22.96 3.58 23.25 4.06 23.45C4.54 23.65 5.06 23.75 5.58 23.76L15.93 23.76L15.93 23.76Z" />
			<path id="Layer" class="shp3" d="M7.17 14.57C7.65 14.57 8.13 14.67 8.57 14.85C9.01 15.03 9.41 15.3 9.75 15.64C10.09 15.98 10.36 16.38 10.54 16.83C10.73 17.27 10.82 17.74 10.82 18.22C10.82 18.43 10.91 18.64 11.06 18.79C11.21 18.94 11.41 19.02 11.62 19.02C11.83 19.02 12.04 18.94 12.19 18.79C12.34 18.64 12.42 18.43 12.42 18.22C12.42 17.53 12.29 16.85 12.02 16.21C11.76 15.58 11.37 15 10.88 14.51C10.4 14.03 9.82 13.64 9.18 13.38C8.55 13.11 7.87 12.98 7.18 12.98C6.96 12.98 6.76 13.06 6.61 13.21C6.46 13.36 6.38 13.56 6.38 13.78C6.38 13.99 6.46 14.19 6.61 14.34C6.76 14.49 6.96 14.58 7.18 14.58L7.17 14.57Z" />
			<path id="Layer" class="shp3" d="M6.84 17.73C6.95 17.73 7.06 17.75 7.16 17.79C7.26 17.83 7.35 17.9 7.42 17.97C7.5 18.05 7.56 18.14 7.6 18.24C7.64 18.34 7.66 18.44 7.66 18.55C7.66 18.76 7.75 18.97 7.9 19.12C8.05 19.27 8.25 19.35 8.46 19.35C8.68 19.35 8.88 19.27 9.03 19.12C9.18 18.97 9.26 18.76 9.26 18.55C9.26 18.23 9.2 17.92 9.08 17.63C8.96 17.33 8.78 17.07 8.55 16.84C8.33 16.62 8.06 16.44 7.77 16.32C7.48 16.2 7.16 16.14 6.85 16.14C6.63 16.14 6.43 16.22 6.28 16.37C6.13 16.52 6.05 16.72 6.05 16.94C6.05 17.15 6.13 17.35 6.28 17.5C6.43 17.65 6.63 17.74 6.85 17.74L6.84 17.73Z" />
			<path id="Layer" class="shp3" d="M7.62 11.52C8.44 11.52 9.25 11.68 10.01 12C10.77 12.31 11.46 12.77 12.04 13.35C12.62 13.93 13.08 14.62 13.4 15.38C13.71 16.14 13.88 16.96 13.88 17.78C13.88 17.99 13.96 18.19 14.11 18.34C14.26 18.49 14.46 18.58 14.68 18.58C14.89 18.58 15.09 18.49 15.24 18.34C15.39 18.19 15.48 17.99 15.48 17.78C15.48 16.75 15.27 15.73 14.88 14.77C14.48 13.82 13.9 12.96 13.17 12.23C12.44 11.5 11.58 10.92 10.63 10.52C9.67 10.13 8.65 9.92 7.62 9.92C7.41 9.92 7.2 10.01 7.05 10.16C6.9 10.31 6.82 10.51 6.82 10.72C6.82 10.93 6.9 11.14 7.05 11.29C7.2 11.44 7.41 11.52 7.62 11.52L7.62 11.52Z" />
		</g>
	</g>
</svg>