<svg xmlns="http://www.w3.org/2000/svg" viewBox="0 0 89 125" width="107" height="150">
	<style>
		tspan { white-space:pre }
		.shp0 { fill: #f0f5f7 } 
		.shp1 { opacity: 0.161;fill: #6f8ba5 } 
		.shp2 { fill: #6f8ba5 } 
	</style>
	<g id="Layer">
		<g id="Layer">
			<g id="Layer">
				<path id="Layer" fill-rule="evenodd" class="shp0" d="M76.01 49.32C85.77 59.28 90.27 73.27 88.13 87.06C86 100.85 77.49 112.83 65.17 119.38C52.85 125.93 38.16 126.29 25.53 120.34C12.91 114.4 3.83 102.85 1.03 89.18C-1.15 81.98 0.8 72.37 1.01 71.41C1.01 71.41 1.01 71.41 1.01 71.4C1.01 71.4 1.01 71.4 1.01 71.4C1.01 71.39 1.01 71.39 1.01 71.39C1.01 71.39 1.01 71.39 1.01 71.38C1.02 71.37 1.02 71.36 1.02 71.35C1.02 71.35 1.02 71.35 1.02 71.34C1.02 71.34 1.02 71.34 1.02 71.34C1.02 71.34 1.02 71.34 1.02 71.34C1.02 71.34 1.02 71.34 1.02 71.33C1.45 69.27 2.02 67.23 2.74 65.25C3.46 63.26 4.31 61.33 5.31 59.47C6.3 57.6 7.42 55.81 8.67 54.11C9.92 52.41 11.29 50.79 12.77 49.28L12.77 31.62C12.77 23.23 16.1 15.19 22.03 9.26C27.96 3.33 36 0 44.38 0C52.77 0 60.81 3.33 66.74 9.26C72.67 15.19 76 23.23 76 31.62L76 49.32L76.01 49.32ZM59.47 31.62C59.47 27.62 57.88 23.78 55.05 20.96C52.22 18.13 48.39 16.54 44.39 16.54C40.39 16.54 36.55 18.13 33.72 20.96C30.9 23.78 29.31 27.62 29.31 31.62L29.31 38.65C31.72 37.77 34.2 37.11 36.73 36.66C39.26 36.22 41.82 36 44.39 36C46.95 35.99 49.51 36.22 52.04 36.66C54.57 37.1 57.05 37.77 59.47 38.64L59.47 31.62Z" />
			</g>
			<path id="Layer" class="shp1" d="M50.81 63.62L85.78 90.21L78.5 109.09L63.68 119.43L42.45 99.15L51.19 95.3L50.95 87.47L51.19 83.8L53.38 79L55.03 75.46L53.38 69.45L50.81 63.62Z" />
			<g id="Layer">
				<g id="Layer">
					<path id="Layer" fill-rule="evenodd" class="shp2" d="M52.84 64.99C54.06 66.17 55.01 67.6 55.65 69.18C56.28 70.76 56.57 72.45 56.51 74.15C56.45 75.84 56.04 77.51 55.29 79.04C54.55 80.57 53.49 81.92 52.19 83.02L52.19 91.59C52.19 93.67 51.37 95.67 49.9 97.14C48.43 98.61 46.43 99.44 44.35 99.44C42.27 99.44 40.28 98.61 38.81 97.14C37.34 95.67 36.51 93.67 36.51 91.59L36.51 83.02C34.62 81.43 33.27 79.31 32.61 76.93C31.96 74.55 32.05 72.03 32.86 69.7C33.68 67.38 35.18 65.35 37.17 63.89C39.16 62.44 41.54 61.62 44.01 61.55C44.82 61.53 45.63 61.58 46.43 61.72C47.23 61.86 48.02 62.08 48.78 62.37C49.53 62.67 50.26 63.04 50.94 63.48C51.62 63.92 52.26 64.43 52.84 65L52.84 64.99ZM48.94 79.4C50.11 78.45 50.97 77.16 51.38 75.7C51.79 74.25 51.74 72.7 51.24 71.28C50.73 69.86 49.8 68.62 48.57 67.75C47.33 66.88 45.86 66.41 44.35 66.41L44.14 66.41C43.23 66.44 42.33 66.64 41.49 67C40.66 67.35 39.89 67.87 39.24 68.5C38.59 69.14 38.06 69.9 37.69 70.73C37.32 71.56 37.1 72.45 37.05 73.36C37.03 73.93 37.06 74.51 37.17 75.07C37.27 75.63 37.45 76.18 37.68 76.7C37.92 77.23 38.21 77.72 38.56 78.17C38.91 78.63 39.32 79.04 39.77 79.39C40.02 79.6 40.25 79.83 40.45 80.08C40.65 80.34 40.82 80.61 40.96 80.9C41.1 81.2 41.2 81.5 41.27 81.82C41.35 82.13 41.38 82.46 41.38 82.78L41.38 91.59C41.36 92.39 41.67 93.16 42.23 93.73C42.79 94.3 43.56 94.62 44.35 94.62C45.15 94.62 45.92 94.3 46.48 93.73C47.04 93.16 47.34 92.39 47.33 91.59L47.33 82.78C47.33 82.46 47.36 82.13 47.43 81.82C47.5 81.5 47.61 81.2 47.75 80.9C47.89 80.61 48.06 80.34 48.26 80.08C48.46 79.83 48.69 79.6 48.94 79.4Z" />
				</g>
				<g id="Layer">
					<path id="Layer" fill-rule="evenodd" class="shp2" d="M76 49.53C85.77 59.5 90.27 73.5 88.14 87.31C86 101.11 77.48 113.1 65.15 119.65C52.82 126.21 38.12 126.56 25.48 120.61C12.85 114.66 3.76 103.1 0.96 89.41C0.83 88.78 0.96 88.13 1.32 87.6C1.68 87.06 2.23 86.69 2.86 86.56C3.49 86.43 4.14 86.56 4.68 86.91C5.22 87.26 5.59 87.81 5.73 88.44C9.81 108.25 28.22 121.76 48.34 119.71C68.46 117.66 83.77 100.72 83.77 80.49C83.77 60.26 68.46 43.31 48.34 41.26C28.22 39.21 9.81 52.73 5.73 72.54C5.6 73.17 5.23 73.74 4.69 74.09C4.15 74.45 3.49 74.58 2.85 74.45C2.21 74.32 1.66 73.94 1.3 73.4C0.95 72.86 0.82 72.2 0.96 71.56C1.39 69.49 1.96 67.46 2.68 65.47C3.4 63.48 4.26 61.55 5.25 59.68C6.25 57.82 7.37 56.03 8.62 54.32C9.87 52.62 11.24 51 12.72 49.5L12.72 31.82C12.67 23.39 15.98 15.3 21.92 9.33C27.86 3.36 35.94 0 44.36 0C52.78 0 60.85 3.36 66.79 9.33C72.73 15.3 76.04 23.39 76 31.82L76 49.53ZM71.13 31.82C71.13 24.72 68.31 17.91 63.29 12.89C58.27 7.87 51.46 5.04 44.36 5.04C37.26 5.04 30.45 7.87 25.43 12.89C20.4 17.91 17.58 24.72 17.58 31.82L17.58 45.2C18.12 44.8 18.66 44.41 19.21 44.02C19.77 43.64 20.33 43.28 20.89 42.92C21.46 42.57 22.04 42.23 22.62 41.9C23.21 41.57 23.8 41.25 24.4 40.95L24.4 31.82C24.4 26.52 26.5 21.45 30.24 17.71C33.99 13.96 39.06 11.86 44.36 11.86C49.65 11.86 54.73 13.96 58.47 17.71C62.21 21.45 64.31 26.52 64.31 31.82L64.31 40.96C64.91 41.26 65.5 41.58 66.09 41.91C66.67 42.24 67.25 42.58 67.82 42.94C68.39 43.29 68.95 43.66 69.5 44.05C70.05 44.43 70.59 44.82 71.13 45.23L71.13 31.82ZM59.45 31.82C59.48 27.79 57.9 23.92 55.07 21.07C52.24 18.21 48.38 16.6 44.36 16.6C40.33 16.6 36.48 18.21 33.64 21.07C30.81 23.92 29.24 27.79 29.27 31.82L29.27 38.85C31.68 37.98 34.17 37.31 36.7 36.87C39.23 36.42 41.79 36.2 44.36 36.2C46.92 36.2 49.49 36.42 52.02 36.86C54.55 37.31 57.03 37.97 59.45 38.85L59.45 31.82Z" />
				</g>
				<g id="Layer">
					<path id="Layer" class="shp2" d="M77.23 78.77C76.41 77.95 75.12 77.83 74.16 78.47C73.19 79.12 72.82 80.35 73.26 81.42C73.7 82.49 74.84 83.1 75.98 82.88C77.12 82.65 77.94 81.65 77.94 80.49C77.94 80.33 77.92 80.17 77.89 80.02C77.86 79.86 77.81 79.71 77.75 79.56C77.69 79.41 77.62 79.27 77.53 79.14C77.44 79.01 77.34 78.89 77.23 78.77L77.23 78.77Z" />
				</g>
				<g id="Layer">
					<path id="Layer" class="shp2" d="M77.04 72.75C76.18 69.1 74.7 65.62 72.69 62.45C70.67 59.28 68.13 56.48 65.19 54.15C62.24 51.82 58.93 50 55.38 48.77C51.84 47.54 48.11 46.91 44.35 46.91C43.71 46.91 43.09 47.16 42.63 47.62C42.18 48.08 41.92 48.69 41.92 49.34C41.92 49.99 42.18 50.6 42.63 51.06C43.09 51.52 43.71 51.77 44.35 51.77C47.57 51.76 50.76 52.29 53.8 53.34C56.83 54.39 59.67 55.95 62.19 57.94C64.71 59.93 66.88 62.34 68.6 65.05C70.32 67.76 71.57 70.74 72.31 73.87C72.45 74.5 72.85 75.05 73.39 75.39C73.94 75.72 74.6 75.83 75.23 75.68C75.86 75.54 76.4 75.14 76.74 74.59C77.08 74.05 77.19 73.38 77.04 72.76L77.04 72.75Z" />
				</g>
				<g id="Layer">
					<path id="Layer" class="shp2" d="M2.55 78.06L2.43 78.06C1.79 78.06 1.17 78.32 0.71 78.77C0.26 79.23 0 79.85 0 80.49C0 81.14 0.26 81.76 0.71 82.21C1.17 82.67 1.79 82.93 2.43 82.93L2.55 82.93C3.19 82.93 3.81 82.67 4.27 82.21C4.73 81.76 4.98 81.14 4.98 80.49C4.98 79.85 4.73 79.23 4.27 78.77C3.81 78.32 3.19 78.06 2.55 78.06L2.55 78.06Z" />
				</g>
			</g>
		</g>
	</g>
</svg>