<svg xmlns="http://www.w3.org/2000/svg" viewBox="0 0 288 288" width="50" height="50">
	<style>
		tspan { white-space:pre }
		.shp0 { fill: #ffffff } 
	</style>
	<g id="SvgjsG1008">
		<g id="Layer">
			<path id="Layer" fill-rule="evenodd" class="shp0" d="M275.96 229.61C275.96 260.3 207.34 276.02 143.96 276.02C136.34 276.13 128.71 275.97 121.1 275.53C113.49 275.09 105.91 274.38 98.37 273.4C90.82 272.41 83.33 271.15 75.91 269.62C68.48 268.09 61.13 266.3 53.88 264.24C19.27 253.37 11.99 239.4 11.99 229.61C11.99 202.73 63.53 190.53 93.75 186.44L65.4 147.33C62.44 143.74 59.81 139.95 57.53 136C55.25 132.05 53.32 127.95 51.77 123.73C50.22 119.52 49.04 115.2 48.26 110.82C47.47 106.45 47.07 102.02 47.07 97.59C47.07 86.39 49.58 75.3 54.44 64.94C59.3 54.59 66.43 45.17 75.41 37.23C84.4 29.29 95.07 22.98 106.83 18.65C118.58 14.32 131.19 12.06 143.93 12C156.68 12.05 169.29 14.31 181.05 18.64C192.8 22.96 203.48 29.28 212.47 37.22C221.46 45.16 228.58 54.58 233.44 64.94C238.3 75.29 240.8 86.39 240.79 97.59C240.8 101.96 240.43 106.32 239.67 110.63C238.91 114.95 237.77 119.2 236.26 123.36C234.76 127.53 232.89 131.58 230.67 135.48C228.45 139.39 225.88 143.14 223 146.69C222.09 147.84 226.11 142.35 194.14 186.43C224.52 190.54 276 202.73 275.96 229.61ZM144.06 226.81C212.38 132.59 207.95 138.63 208.8 137.65C211.14 134.75 213.22 131.69 215.02 128.5C216.82 125.31 218.33 122.01 219.55 118.61C220.77 115.22 221.69 111.75 222.3 108.23C222.91 104.72 223.21 101.16 223.2 97.6C223.24 88.43 221.22 79.33 217.26 70.84C213.29 62.35 207.47 54.63 200.12 48.11C192.77 41.6 184.03 36.42 174.4 32.87C164.77 29.32 154.44 27.47 144 27.43C133.55 27.46 123.22 29.31 113.59 32.85C103.96 36.4 95.21 41.58 87.86 48.09C80.5 54.61 74.68 62.34 70.72 70.83C66.77 79.33 64.75 88.42 64.8 97.6C64.79 101.24 65.12 104.88 65.77 108.47C66.41 112.07 67.38 115.61 68.66 119.07C69.94 122.53 71.53 125.9 73.41 129.14C75.29 132.38 77.45 135.49 79.89 138.43L80.19 138.83L144.06 226.81ZM258.32 229.56C258.32 220.78 235.15 206.36 183.71 200.73L151.38 245.31C150.59 246.41 149.49 247.31 148.19 247.94C146.9 248.57 145.44 248.89 143.96 248.89C142.48 248.89 141.02 248.57 139.73 247.94C138.43 247.31 137.33 246.41 136.54 245.31L104.21 200.73C52.81 206.36 29.6 220.78 29.6 229.56C29.6 242.61 74.77 260.5 144 260.5C213.57 260.5 258.4 242.55 258.32 229.56Z" />
			<path id="Layer" fill-rule="evenodd" class="shp0" d="M144 58.92C149.78 58.93 155.5 59.93 160.83 61.88C166.17 63.82 171.02 66.67 175.1 70.26C179.19 73.85 182.43 78.12 184.64 82.81C186.86 87.5 188 92.53 188 97.6C188 113.25 177.28 127.35 160.84 133.34C144.39 139.32 125.47 136.02 112.88 124.95C100.3 113.89 96.53 97.26 103.34 82.8C110.15 68.35 126.2 58.92 144 58.92ZM144 120.81C147.46 120.81 150.9 120.2 154.1 119.04C157.3 117.87 160.21 116.16 162.66 114.01C165.11 111.85 167.05 109.29 168.38 106.48C169.71 103.67 170.4 100.65 170.4 97.6C170.4 88.22 163.97 79.76 154.1 76.17C144.24 72.57 132.88 74.56 125.33 81.2C117.78 87.83 115.52 97.81 119.61 106.48C123.69 115.15 133.32 120.81 144 120.81Z" />
		</g>
	</g>
</svg>