<svg xmlns="http://www.w3.org/2000/svg" viewBox="0 0 38 38" width="58" height="58">
	<style>
		tspan { white-space:pre }
		.shp0 { fill: #03a9f5 } 
		.shp1 { fill: #ffffff } 
	</style>
	<g id="Layer">
		<path id="Layer" class="shp0" d="M19 38C8.49 38 0 29.51 0 19C0 8.49 8.49 0 19 0C29.51 0 38 8.49 38 19C38 29.51 29.51 38 19 38Z" />
		<path id="Layer" class="shp1" d="M11.8 28.68C11.7 28.73 11.59 28.75 11.49 28.74C11.38 28.73 11.28 28.69 11.2 28.62C11.11 28.55 11.05 28.46 11.02 28.36C10.99 28.25 10.99 28.14 11.03 28.04C11.75 25.84 13.15 21.51 13.8 19.5C13.81 19.48 13.81 19.45 13.82 19.43C13.82 19.41 13.82 19.39 13.82 19.36C13.82 19.34 13.82 19.32 13.82 19.3C13.81 19.27 13.81 19.25 13.8 19.23C13.04 16.89 11.7 12.79 11.03 10.7C11 10.6 10.99 10.49 11.02 10.39C11.05 10.28 11.11 10.19 11.2 10.12C11.28 10.06 11.38 10.01 11.49 10C11.6 9.99 11.7 10.02 11.8 10.07L27.85 18.9C27.94 18.95 28.01 19.02 28.06 19.1C28.11 19.18 28.13 19.28 28.13 19.37C28.13 19.47 28.11 19.56 28.06 19.65C28.01 19.73 27.94 19.8 27.85 19.84L11.8 28.68Z" />
	</g>
</svg>