<svg xmlns="http://www.w3.org/2000/svg" width="37" height="37" viewBox="0 0 37 37">
  <g id="Group_4409" data-name="Group 4409" transform="translate(-266 -292)">
    <g id="Group_2265" data-name="Group 2265" transform="translate(275.319 300.805)">
      <path id="Path_201" data-name="Path 201" d="M320.594-500.85v-18.2l6.515-6.619,9.26,2.5v1.341" transform="translate(-320.594 525.67)" fill="none" stroke="#285078" stroke-miterlimit="10" stroke-width="1.5"/>
      <path id="Path_203" data-name="Path 203" d="M0,0V26.661" transform="translate(6.515)" fill="none" stroke="#285078" stroke-width="1.5"/>
    </g>
    <path id="Path_234" data-name="Path 234" d="M380.155-480.206h-2.493c-.007.009-.015.015-.015.021a7.872,7.872,0,0,0,.12,2,2.884,2.884,0,0,0,1.953,2.12,6.81,6.81,0,0,0,.7.185c.076.018.1.047.1.126,0,.439,0,.879,0,1.318,0,.025,0,.051.007.085h2.16v-.131c0-.417,0-.834,0-1.251,0-.1.03-.132.127-.151a3.68,3.68,0,0,0,1.526-.628,2.843,2.843,0,0,0,1.07-1.564,4.254,4.254,0,0,0,.064-2.065,3.66,3.66,0,0,0-1.02-1.79,10.872,10.872,0,0,0-1.847-1.457,9.432,9.432,0,0,1-1.49-1.154,2.264,2.264,0,0,1-.724-1.339,2.238,2.238,0,0,1,.056-.929.984.984,0,0,1,.734-.709,2.089,2.089,0,0,1,.974-.017,1.036,1.036,0,0,1,.844.948,4.67,4.67,0,0,1,.028.467c0,.152,0,.3,0,.47.046,0,.085.008.124.008.757,0,1.513,0,2.27,0,.088,0,.123-.018.123-.116a5.2,5.2,0,0,0-.191-1.611,2.849,2.849,0,0,0-1.867-1.886,6.647,6.647,0,0,0-.689-.184c-.083-.02-.115-.05-.114-.14,0-.424,0-.849,0-1.273v-.141h-2.168v.131c0,.424,0,.849,0,1.273,0,.1-.035.133-.126.151a3.606,3.606,0,0,0-1.5.635,2.808,2.808,0,0,0-1.069,1.69,4.105,4.105,0,0,0,.12,2.384,4.229,4.229,0,0,0,1.188,1.625,13.437,13.437,0,0,0,1.7,1.252,7.589,7.589,0,0,1,1.45,1.166,2.18,2.18,0,0,1,.589,1.953,1.066,1.066,0,0,1-1,.931,2.265,2.265,0,0,1-.865-.038,1.017,1.017,0,0,1-.827-.949c-.035-.4-.021-.81-.029-1.215C380.154-480.066,380.155-480.129,380.155-480.206Z" transform="translate(-91.639 797.992)" fill="#285078"/>
    <line id="Line_42" data-name="Line 42" x1="24.899" y2="26.144" transform="translate(272.393 297.254)" fill="none" stroke="#cf7272" stroke-width="3"/>
    <g id="Group_2192" data-name="Group 2192" transform="translate(265.897 291.898)">
      <g id="Ellipse_18" data-name="Ellipse 18" transform="translate(0.103 0.102)" fill="none" stroke="#285078" stroke-width="1.5">
        <circle cx="18.5" cy="18.5" r="18.5" stroke="none"/>
        <circle cx="18.5" cy="18.5" r="17.75" fill="none"/>
      </g>
    </g>
  </g>
</svg>
