<svg xmlns="http://www.w3.org/2000/svg" width="37" height="37" viewBox="0 0 37 37">
  <g id="Group_2267" data-name="Group 2267" transform="translate(-207 -197)">
    <g id="Group_2236" data-name="Group 2236" transform="translate(212.803 205.678)">
      <g id="Group_2235" data-name="Group 2235" transform="translate(0 0)">
        <path id="Path_227" data-name="Path 227" d="M945.92-122.886a7.257,7.257,0,0,0-6.79-6.159,7.387,7.387,0,0,0-5.268,1.737c-.133.109-.26.226-.394.344-.038-.031-.07-.056-.1-.084a7.285,7.285,0,0,0-6.177-1.806,7.514,7.514,0,0,0-6.305,6.751,7.155,7.155,0,0,0,1.566,5.281c.374.47.825.88,1.241,1.317l.121.129.449.407c.4.361,1.034.936,1.788,1.617l.443.4c.563.507,1.175,1.057,1.794,1.611l.442.4c.62.554,1.236,1.1,1.806,1.606l.467.412c.747.657,1.385,1.209,1.8,1.556a5.37,5.37,0,0,0,.484.374,1.848,1.848,0,0,0,3.113-1.229,1.8,1.8,0,0,0,2.021-.009,1.814,1.814,0,0,0,.8-1.863,1.845,1.845,0,0,0,1.631-.514,1.838,1.838,0,0,0,.515-1.631,1.784,1.784,0,0,0,1.91-.878,1.794,1.794,0,0,0-.421-2.365c.341-.34.681-.661,1-1A7.307,7.307,0,0,0,945.92-122.886Zm-3.269,9.644a1.214,1.214,0,0,1-1.636.191,1.866,1.866,0,0,1-.2-.179L938.34-115.7a.969.969,0,0,0-.128-.117.294.294,0,0,0-.386.044.29.29,0,0,0-.022.376,1.208,1.208,0,0,0,.118.127q1.259,1.258,2.518,2.517a1.146,1.146,0,0,1,.308,1.2,1.162,1.162,0,0,1-.909.848,1.17,1.17,0,0,1-1.138-.342q-1.253-1.253-2.508-2.5a1.244,1.244,0,0,0-.115-.108.3.3,0,0,0-.389.02.3.3,0,0,0-.027.4,1.373,1.373,0,0,0,.119.125q1.253,1.252,2.507,2.506a1.147,1.147,0,0,1,.315,1.186,1.165,1.165,0,0,1-.9.861,1.167,1.167,0,0,1-1.154-.337q-1.265-1.263-2.531-2.526a.516.516,0,0,0-.188-.135.274.274,0,0,0-.34.126.282.282,0,0,0,.038.362c.167.174.34.343.511.514.472.471.949.938,1.414,1.416a1.2,1.2,0,0,1,.046,1.62,1.218,1.218,0,0,1-1.6.238c-.035-.023-.067-.05-.1-.074h0a.365.365,0,0,1-.079-.069l-.558-.49-1.658-1.459-.5-.439-1.819-1.6-.442-.389-1.815-1.6-.439-.388c-.763-.675-1.406-1.246-1.81-1.608-.236-.212-.391-.352-.441-.4-.31-.308-.622-.6-.916-.914a6.62,6.62,0,0,1-1.869-5.2,6.906,6.906,0,0,1,5.68-6.317,6.674,6.674,0,0,1,5.759,1.584c.043.037.082.078.171.162a.933.933,0,0,0-.171.106q-2.065,2.057-4.125,4.119a2.528,2.528,0,0,0-.44,3.031,2.521,2.521,0,0,0,3.979.53c.763-.751,1.514-1.516,2.276-2.269a1.308,1.308,0,0,1,1.421-.325,1.061,1.061,0,0,1,.4.24q3.1,3.083,6.188,6.177A1.2,1.2,0,0,1,942.65-113.242Zm.832-3.7c-.328.354-.679.687-1.059,1.069a1.229,1.229,0,0,0-.124-.182q-2.662-2.662-5.327-5.322a1.936,1.936,0,0,0-2.815,0c-.756.752-1.5,1.511-2.264,2.258a1.92,1.92,0,0,1-3.111-.565,1.926,1.926,0,0,1,.419-2.164q2.3-2.307,4.614-4.609a6.687,6.687,0,0,1,1.464-1.109,6.751,6.751,0,0,1,9.941,4.243A6.66,6.66,0,0,1,943.482-116.946Z" transform="translate(-920.851 129.058)" fill="#285078" stroke="#285078" stroke-width="1"/>
      </g>
    </g>
    <g id="Group_2266" data-name="Group 2266">
      <line id="Line_42" data-name="Line 42" x1="24.899" y2="26.144" transform="translate(213.393 202.254)" fill="none" stroke="#cf7272" stroke-width="3"/>
      <g id="Group_2192" data-name="Group 2192" transform="translate(206.897 196.898)">
        <g id="Ellipse_18" data-name="Ellipse 18" transform="translate(0.103 0.102)" fill="none" stroke="#285078" stroke-width="1.5">
          <circle cx="18.5" cy="18.5" r="18.5" stroke="none"/>
          <circle cx="18.5" cy="18.5" r="17.75" fill="none"/>
        </g>
        <g id="Ellipse_38" data-name="Ellipse 38" transform="translate(0.103 0.102)" fill="none" stroke="#285078" stroke-width="1.5">
          <circle cx="18.5" cy="18.5" r="18.5" stroke="none"/>
          <circle cx="18.5" cy="18.5" r="17.75" fill="none"/>
        </g>
      </g>
    </g>
  </g>
</svg>
