<svg xmlns="http://www.w3.org/2000/svg" viewBox="0 0 71 20" width="100" height="28">
	<style>
		tspan { white-space:pre }
		.shp0 { fill: #70757c } 
	</style>
	<g id="Layer">
		<path id="Layer" fill-rule="evenodd" class="shp0" d="M12.72 3.13C12.79 3.26 12.84 3.4 12.89 3.54C12.94 3.69 12.98 3.83 13.01 3.98C13.05 4.12 13.07 4.27 13.08 4.42C13.09 4.57 13.1 4.72 13.09 4.87C13.1 5.25 13.06 5.62 12.98 5.99C12.89 6.35 12.76 6.71 12.59 7.04C12.42 7.37 12.21 7.68 11.96 7.96C11.71 8.25 11.43 8.49 11.12 8.71C10.71 8.97 10.29 9.2 9.84 9.39C9.4 9.59 8.95 9.75 8.48 9.87C8.01 10 7.54 10.08 7.05 10.13C6.57 10.18 6.09 10.19 5.61 10.16L5.05 10.16C4.95 10.16 4.84 10.18 4.75 10.22C4.65 10.26 4.55 10.31 4.47 10.37C4.39 10.44 4.32 10.52 4.26 10.61C4.2 10.69 4.16 10.79 4.13 10.89L3.47 13.77C3.44 13.87 3.4 13.96 3.34 14.05C3.28 14.14 3.21 14.22 3.12 14.29C3.04 14.35 2.95 14.4 2.85 14.44C2.75 14.48 2.64 14.5 2.54 14.5L0.6 14.5C0.51 14.51 0.42 14.49 0.34 14.45C0.25 14.41 0.18 14.36 0.12 14.28C0.06 14.21 0.02 14.13 0.01 14.04C-0.01 13.95 -0.01 13.85 0.02 13.77L2.74 1.93C2.77 1.83 2.81 1.73 2.87 1.64C2.93 1.56 3 1.48 3.08 1.41C3.16 1.35 3.26 1.29 3.36 1.26C3.46 1.22 3.56 1.2 3.67 1.19L7.7 1.19C7.89 1.19 8.08 1.2 8.27 1.2C8.47 1.21 8.66 1.22 8.85 1.24C9.04 1.25 9.23 1.27 9.42 1.29C9.61 1.32 9.8 1.34 9.98 1.37C10.13 1.4 10.28 1.43 10.42 1.47C10.57 1.51 10.71 1.55 10.85 1.61C10.99 1.66 11.13 1.72 11.27 1.78C11.4 1.84 11.53 1.91 11.66 1.99C11.78 2.06 11.88 2.14 11.98 2.22C12.09 2.3 12.18 2.39 12.27 2.49C12.36 2.58 12.44 2.69 12.52 2.79C12.59 2.9 12.66 3.01 12.72 3.13ZM8.55 7C8.69 6.89 8.82 6.77 8.94 6.64C9.05 6.51 9.14 6.36 9.22 6.2C9.29 6.04 9.35 5.87 9.38 5.7C9.42 5.53 9.43 5.36 9.42 5.18C9.43 5.07 9.42 4.96 9.4 4.85C9.38 4.74 9.35 4.63 9.3 4.53C9.25 4.43 9.19 4.34 9.11 4.25C9.04 4.17 8.96 4.09 8.86 4.03C8.74 3.96 8.6 3.9 8.47 3.85C8.33 3.8 8.19 3.75 8.05 3.72C7.91 3.69 7.76 3.67 7.62 3.66C7.47 3.65 7.33 3.64 7.18 3.65L6.55 3.65C6.44 3.66 6.34 3.68 6.24 3.71C6.14 3.75 6.05 3.8 5.97 3.87C5.88 3.93 5.81 4.01 5.75 4.1C5.7 4.19 5.65 4.28 5.63 4.39L5.05 6.9C5.02 6.99 5.02 7.08 5.03 7.17C5.05 7.26 5.09 7.35 5.15 7.42C5.21 7.49 5.28 7.55 5.36 7.59C5.45 7.63 5.54 7.64 5.63 7.64L6.11 7.64C6.32 7.65 6.54 7.65 6.75 7.62C6.96 7.6 7.17 7.57 7.38 7.51C7.59 7.46 7.79 7.39 7.99 7.3C8.18 7.21 8.37 7.11 8.55 7Z" />
	</g>
	<g id="Layer">
		<path id="Layer" class="shp0" d="M67.83 2.12L67.7 2.16L67.54 2.18L67.34 2.15L67.24 2.05L67.2 1.89L67.2 1.66L67.2 0.8L67.84 0.8L67.84 0.53L67.2 0.53L67.2 0L66.88 0L66.88 0.53L66.66 0.53L66.66 0.8L66.88 0.8L66.88 1.8L67.03 2.3L67.46 2.46L67.65 2.44L67.85 2.41L67.85 2.12L67.83 2.12Z" />
	</g>
	<g id="Layer">
		<path id="Layer" class="shp0" d="M70.82 0.67L70.36 0.48L70.02 0.55L69.67 0.79L69.47 0.56L69.15 0.48L68.83 0.55L68.53 0.74L68.53 0.54L68.22 0.54L68.22 2.42L68.53 2.42L68.53 1.02L68.8 0.85L69.06 0.79L69.27 0.83L69.38 0.93L69.42 1.11L69.44 1.35L69.44 2.42L69.75 2.42L69.75 1.22L69.75 1.12L69.74 1.03L70.01 0.86L70.27 0.79L70.48 0.83L70.59 0.94L70.63 1.12L70.65 1.35L70.65 2.42L70.97 2.42L70.97 1.2L70.82 0.67Z" />
	</g>
	<g id="Layer">
		<path id="Layer" fill-rule="evenodd" class="shp0" d="M22.04 4.82C22.22 4.91 22.38 5.02 22.52 5.16C22.66 5.29 22.78 5.45 22.88 5.62C22.98 5.78 23.05 5.97 23.09 6.16C23.14 6.35 23.16 6.54 23.15 6.74L23.11 7.2L23.04 7.7L21.63 13.8C21.61 13.9 21.57 13.99 21.52 14.07C21.46 14.15 21.4 14.23 21.33 14.29C21.25 14.35 21.17 14.41 21.08 14.45C20.99 14.49 20.9 14.51 20.8 14.53L20.78 14.54L18.98 14.54L18.97 14.53C18.88 14.52 18.8 14.5 18.73 14.46C18.65 14.42 18.59 14.36 18.54 14.29C18.49 14.22 18.46 14.14 18.44 14.06C18.43 13.97 18.43 13.89 18.45 13.8L18.45 13.79L18.52 13.48L18.52 13.47L17.79 13.95L16.99 14.39L16.06 14.71C15.96 14.73 15.86 14.75 15.76 14.76C15.66 14.78 15.55 14.79 15.45 14.8C15.35 14.81 15.25 14.82 15.15 14.82C15.05 14.82 14.94 14.82 14.84 14.82C14.66 14.83 14.48 14.82 14.29 14.79C14.11 14.77 13.93 14.72 13.76 14.67C13.58 14.61 13.42 14.53 13.26 14.44C13.1 14.35 12.95 14.24 12.81 14.12C12.68 14.01 12.56 13.88 12.46 13.74C12.36 13.6 12.28 13.45 12.21 13.29C12.14 13.13 12.09 12.97 12.06 12.8C12.03 12.63 12.01 12.46 12.02 12.29C12.01 12.11 12.02 11.93 12.04 11.76C12.06 11.58 12.1 11.41 12.14 11.23C12.19 11.06 12.25 10.9 12.32 10.73C12.39 10.57 12.48 10.41 12.57 10.27C12.68 10.12 12.79 9.98 12.91 9.85C13.04 9.72 13.17 9.6 13.31 9.49C13.45 9.38 13.6 9.28 13.75 9.19C13.91 9.1 14.07 9.02 14.24 8.95C14.43 8.87 14.63 8.79 14.83 8.72C15.03 8.65 15.23 8.58 15.44 8.53C15.64 8.47 15.85 8.42 16.06 8.38C16.27 8.34 16.48 8.31 16.69 8.28C17.65 8.14 18.44 8.04 19.54 7.97L19.82 7.8L19.85 7.52C19.86 7.43 19.85 7.34 19.82 7.25C19.8 7.15 19.76 7.07 19.7 6.99C19.65 6.91 19.59 6.84 19.51 6.78C19.44 6.72 19.36 6.68 19.27 6.65C19.13 6.6 18.98 6.56 18.84 6.52C18.69 6.49 18.55 6.46 18.4 6.44C18.25 6.42 18.1 6.4 17.96 6.4C17.81 6.39 17.66 6.39 17.51 6.4C17.36 6.4 17.21 6.41 17.05 6.42C16.9 6.43 16.75 6.45 16.6 6.47C16.45 6.49 16.3 6.51 16.15 6.54C16 6.57 15.85 6.6 15.7 6.64C15.6 6.66 15.5 6.69 15.41 6.71C15.31 6.74 15.21 6.76 15.12 6.79C15.02 6.82 14.92 6.85 14.83 6.88C14.73 6.91 14.64 6.95 14.54 6.98C14.39 7.04 14.04 7.06 14.17 6.44L14.41 5.46C14.43 5.36 14.46 5.25 14.51 5.16C14.56 5.06 14.62 4.97 14.7 4.89C14.77 4.81 14.86 4.74 14.96 4.69C15.05 4.63 15.15 4.59 15.26 4.57C15.61 4.49 15.67 4.47 16.25 4.39C16.44 4.36 16.64 4.33 16.83 4.31C17.02 4.28 17.22 4.27 17.41 4.25C17.61 4.23 17.8 4.22 18 4.22C18.2 4.21 18.39 4.2 18.59 4.2C18.88 4.18 19.18 4.18 19.47 4.2C19.77 4.22 20.06 4.25 20.35 4.3C20.64 4.35 20.93 4.42 21.21 4.51C21.5 4.6 21.77 4.7 22.04 4.82ZM18.92 11.68C19.04 11.21 19.29 10.18 19.32 10.04L19.19 9.81C19.07 9.81 18.2 9.91 17.76 9.96C17.65 9.98 17.54 10 17.43 10.01C17.33 10.03 17.22 10.06 17.11 10.08C17.01 10.1 16.9 10.13 16.8 10.16C16.69 10.19 16.59 10.22 16.48 10.25L15.66 10.81C15.61 10.88 15.57 10.95 15.53 11.03C15.5 11.1 15.46 11.18 15.44 11.26C15.42 11.34 15.4 11.42 15.39 11.51C15.38 11.59 15.38 11.67 15.38 11.76L15.75 12.48C15.84 12.52 15.93 12.55 16.02 12.58C16.11 12.61 16.2 12.64 16.29 12.65C16.38 12.67 16.48 12.68 16.57 12.69C16.67 12.7 16.76 12.7 16.85 12.69C16.94 12.69 17.03 12.68 17.11 12.67C17.2 12.66 17.29 12.65 17.37 12.63C17.45 12.61 17.54 12.59 17.62 12.56C17.7 12.54 17.79 12.51 17.86 12.47L18.62 12.08L18.92 11.68Z" />
	</g>
	<g id="Layer">
		<path id="Layer" fill-rule="evenodd" class="shp0" d="M57.15 4.83C57.33 4.92 57.49 5.03 57.63 5.17C57.77 5.3 57.89 5.45 57.98 5.62C58.08 5.79 58.15 5.97 58.2 6.16C58.25 6.35 58.26 6.54 58.25 6.74L58.21 7.21L58.13 7.71L56.72 13.8C56.7 13.89 56.66 13.98 56.61 14.07C56.56 14.15 56.49 14.22 56.42 14.29C56.35 14.35 56.27 14.41 56.18 14.45C56.09 14.49 56 14.51 55.9 14.53L55.87 14.54L54.07 14.54L54.07 14.53C53.99 14.53 53.91 14.5 53.83 14.46C53.76 14.42 53.69 14.36 53.64 14.29C53.59 14.22 53.56 14.14 53.55 14.06C53.53 13.98 53.54 13.89 53.56 13.81L53.56 13.8L53.57 13.79L53.63 13.48L53.62 13.47L52.9 13.95L52.1 14.39L51.16 14.71C51.06 14.73 50.96 14.75 50.86 14.77C50.76 14.78 50.66 14.79 50.56 14.8C50.46 14.81 50.36 14.82 50.26 14.82C50.16 14.83 50.05 14.83 49.95 14.83C49.77 14.83 49.58 14.82 49.4 14.8C49.22 14.77 49.04 14.73 48.87 14.67C48.7 14.61 48.53 14.53 48.37 14.44C48.21 14.35 48.06 14.24 47.92 14.13C47.79 14.01 47.67 13.88 47.57 13.74C47.47 13.6 47.39 13.45 47.32 13.29C47.25 13.14 47.2 12.97 47.17 12.8C47.14 12.63 47.12 12.46 47.13 12.29C47.12 12.11 47.13 11.93 47.15 11.76C47.17 11.58 47.21 11.41 47.25 11.24C47.3 11.07 47.36 10.9 47.43 10.74C47.5 10.58 47.59 10.42 47.68 10.27C47.79 10.13 47.9 9.99 48.02 9.86C48.15 9.73 48.28 9.61 48.42 9.5C48.56 9.39 48.71 9.29 48.87 9.19C49.02 9.1 49.18 9.03 49.35 8.96C49.54 8.87 49.74 8.79 49.94 8.72C50.14 8.65 50.34 8.59 50.55 8.53C50.75 8.48 50.96 8.43 51.17 8.39C51.38 8.34 51.59 8.31 51.8 8.28C52.75 8.14 53.55 8.04 54.65 7.98L54.93 7.81L54.96 7.53C54.96 7.44 54.95 7.35 54.93 7.25C54.9 7.16 54.86 7.08 54.81 7C54.76 6.92 54.69 6.85 54.62 6.79C54.54 6.74 54.46 6.69 54.37 6.66C54.23 6.61 54.09 6.57 53.95 6.53C53.8 6.5 53.65 6.47 53.51 6.45C53.36 6.43 53.21 6.42 53.06 6.41C52.92 6.4 52.77 6.4 52.62 6.41C52.47 6.41 52.31 6.42 52.16 6.43C52.01 6.44 51.86 6.46 51.71 6.48C51.55 6.5 51.4 6.53 51.25 6.55C51.1 6.58 50.95 6.61 50.8 6.65C50.71 6.67 50.61 6.7 50.51 6.72C50.42 6.75 50.32 6.78 50.23 6.81C50.13 6.83 50.04 6.86 49.94 6.9C49.85 6.93 49.75 6.96 49.66 6.99C49.49 7.04 49.15 7.07 49.28 6.45L49.51 5.48C49.53 5.37 49.57 5.26 49.62 5.17C49.67 5.07 49.73 4.98 49.8 4.9C49.88 4.82 49.97 4.75 50.06 4.7C50.15 4.64 50.26 4.6 50.36 4.58C50.72 4.5 50.78 4.48 51.36 4.4C51.56 4.37 51.75 4.34 51.94 4.32C52.14 4.29 52.33 4.27 52.53 4.26C52.72 4.24 52.92 4.23 53.11 4.22C53.31 4.21 53.5 4.21 53.7 4.21C53.99 4.19 54.29 4.19 54.59 4.21C54.88 4.22 55.17 4.26 55.46 4.31C55.76 4.36 56.04 4.43 56.32 4.52C56.61 4.61 56.88 4.71 57.15 4.83ZM54.04 11.69C54.15 11.22 54.41 10.19 54.43 10.05L54.29 9.82C54.18 9.82 53.31 9.92 52.87 9.97C52.76 9.99 52.65 10.01 52.55 10.02C52.44 10.04 52.33 10.07 52.23 10.09C52.12 10.11 52.02 10.14 51.91 10.17C51.81 10.2 51.7 10.23 51.6 10.26C51.52 10.29 51.44 10.32 51.37 10.36C51.29 10.4 51.22 10.44 51.15 10.49C51.08 10.53 51.01 10.58 50.95 10.64C50.88 10.69 50.82 10.75 50.77 10.82C50.72 10.89 50.68 10.96 50.64 11.03C50.61 11.11 50.58 11.19 50.55 11.27C50.53 11.35 50.51 11.43 50.5 11.51C50.49 11.6 50.49 11.68 50.49 11.76L50.87 12.48C50.96 12.53 51.04 12.56 51.13 12.59C51.22 12.62 51.31 12.64 51.41 12.66C51.5 12.68 51.59 12.69 51.69 12.7C51.78 12.7 51.88 12.7 51.97 12.7C52.06 12.69 52.14 12.69 52.23 12.68C52.31 12.67 52.4 12.65 52.48 12.63C52.57 12.62 52.65 12.59 52.73 12.57C52.82 12.54 52.9 12.51 52.98 12.48L53.73 12.09L54.04 11.69L54.04 11.69Z" />
	</g>
	<g id="Layer">
		<path id="Layer" fill-rule="evenodd" class="shp0" d="M47.82 3.18C47.89 3.31 47.95 3.45 47.99 3.59C48.04 3.73 48.08 3.88 48.11 4.02C48.14 4.17 48.17 4.32 48.18 4.46C48.19 4.61 48.2 4.76 48.2 4.91C48.2 5.29 48.16 5.66 48.08 6.02C47.99 6.39 47.86 6.74 47.69 7.08C47.52 7.41 47.31 7.72 47.06 8C46.82 8.29 46.54 8.54 46.23 8.75C45.82 9.01 45.4 9.24 44.95 9.44C44.51 9.63 44.05 9.79 43.58 9.92C43.12 10.04 42.64 10.12 42.16 10.17C41.68 10.22 41.19 10.23 40.71 10.2L40.15 10.2C40.05 10.21 39.94 10.23 39.85 10.26C39.75 10.3 39.65 10.35 39.57 10.42C39.49 10.48 39.42 10.56 39.36 10.65C39.3 10.74 39.25 10.83 39.23 10.94L38.57 13.81C38.54 13.91 38.5 14.01 38.44 14.1C38.38 14.18 38.31 14.26 38.23 14.33C38.14 14.39 38.05 14.45 37.95 14.48C37.85 14.52 37.75 14.54 37.64 14.54L35.71 14.54C35.61 14.55 35.52 14.53 35.44 14.49C35.35 14.46 35.28 14.4 35.22 14.33C35.17 14.25 35.13 14.17 35.11 14.08C35.09 13.99 35.1 13.9 35.12 13.81L37.84 1.97C37.87 1.87 37.91 1.78 37.97 1.69C38.03 1.6 38.1 1.52 38.18 1.46C38.27 1.39 38.36 1.34 38.46 1.3C38.55 1.27 38.66 1.24 38.76 1.24L42.81 1.24C43 1.24 43.19 1.24 43.38 1.25C43.57 1.25 43.76 1.26 43.95 1.28C44.14 1.29 44.33 1.31 44.51 1.34C44.7 1.36 44.89 1.39 45.08 1.42C45.23 1.44 45.37 1.47 45.52 1.51C45.67 1.55 45.81 1.59 45.95 1.65C46.09 1.7 46.23 1.76 46.36 1.82C46.5 1.89 46.63 1.96 46.76 2.03C46.87 2.1 46.98 2.18 47.08 2.26C47.18 2.35 47.28 2.44 47.37 2.53C47.46 2.63 47.54 2.73 47.62 2.84C47.69 2.95 47.76 3.06 47.82 3.18ZM43.65 7.04C43.8 6.94 43.92 6.82 44.04 6.69C44.15 6.55 44.24 6.4 44.32 6.25C44.39 6.09 44.45 5.92 44.48 5.75C44.52 5.58 44.53 5.41 44.52 5.23C44.53 5.12 44.53 5.01 44.5 4.9C44.48 4.79 44.45 4.68 44.4 4.58C44.35 4.48 44.29 4.39 44.21 4.3C44.14 4.22 44.06 4.14 43.96 4.08C43.84 4.01 43.7 3.95 43.57 3.9C43.43 3.85 43.29 3.81 43.15 3.77C43.01 3.74 42.86 3.72 42.72 3.71C42.57 3.7 42.43 3.7 42.28 3.7L41.66 3.7C41.55 3.71 41.44 3.73 41.35 3.76C41.25 3.8 41.15 3.85 41.07 3.92C40.99 3.98 40.92 4.06 40.86 4.15C40.8 4.24 40.76 4.34 40.73 4.44L40.15 6.95C40.12 7.03 40.12 7.13 40.13 7.22C40.15 7.31 40.19 7.39 40.25 7.47C40.31 7.54 40.38 7.59 40.47 7.63C40.55 7.67 40.64 7.69 40.74 7.68L41.22 7.68C41.43 7.69 41.64 7.69 41.86 7.67C42.07 7.65 42.28 7.61 42.49 7.56C42.69 7.5 42.89 7.43 43.09 7.35C43.29 7.26 43.47 7.16 43.66 7.05L43.65 7.04Z" />
	</g>
	<g id="Layer">
		<path id="Layer" class="shp0" d="M64.4 2.07C64.43 1.98 64.43 1.89 64.41 1.8C64.4 1.71 64.36 1.62 64.3 1.55C64.24 1.48 64.17 1.43 64.09 1.39C64 1.35 63.91 1.34 63.82 1.34L62.09 1.34C62 1.35 61.91 1.37 61.83 1.4C61.74 1.43 61.66 1.47 61.59 1.52C61.52 1.57 61.45 1.63 61.4 1.7C61.34 1.77 61.29 1.85 61.26 1.93L61.16 2.08L61.07 2.46L58.65 13.46L58.57 13.8L58.57 13.81C58.55 13.88 58.55 13.97 58.56 14.04C58.58 14.12 58.61 14.2 58.65 14.26C58.7 14.33 58.76 14.38 58.83 14.42C58.9 14.46 58.98 14.49 59.06 14.49L59.09 14.53L60.89 14.53C60.98 14.53 61.07 14.51 61.15 14.48C61.23 14.45 61.31 14.41 61.39 14.35C61.46 14.3 61.53 14.24 61.58 14.17C61.64 14.1 61.69 14.02 61.72 13.93L61.81 13.79L64.4 2.06L64.4 2.07Z" />
	</g>
	<g id="Layer">
		<path id="Layer" class="shp0" d="M35.18 4.35C34.72 4.36 32.86 4.35 32.86 4.35C32.74 4.37 32.62 4.39 32.5 4.43C32.39 4.47 32.28 4.52 32.17 4.59C32.07 4.65 31.97 4.72 31.88 4.81C31.79 4.89 31.71 4.99 31.64 5.09C31.58 5.19 28.88 9.84 28.61 10.32L28.29 10.32L27.42 5.13C27.39 5.02 27.34 4.91 27.27 4.82C27.2 4.72 27.12 4.64 27.03 4.57C26.93 4.5 26.83 4.45 26.72 4.42C26.6 4.38 26.49 4.37 26.37 4.37L24.64 4.37C24.55 4.36 24.46 4.38 24.37 4.42C24.29 4.46 24.21 4.52 24.16 4.59C24.1 4.66 24.06 4.75 24.05 4.84C24.03 4.93 24.03 5.02 24.06 5.11C24.09 5.2 25.38 12.59 25.64 14.35C25.76 15.32 25.62 15.5 25.62 15.5L23.91 18.48C23.66 18.89 23.79 19.22 24.21 19.22L26.21 19.22C26.33 19.2 26.45 19.18 26.57 19.14C26.69 19.1 26.8 19.05 26.9 18.99C27.01 18.92 27.1 18.85 27.19 18.76C27.28 18.68 27.36 18.58 27.42 18.48L35.12 5.45C35.12 5.45 35.87 4.34 35.18 4.35Z" />
	</g>
</svg>