<svg xmlns="http://www.w3.org/2000/svg" width="20.351" height="20.38" viewBox="0 0 20.351 20.38"><defs><style>.a{fill:#285078;}</style></defs><g transform="translate(0 0)"><path class="a" d="M16.436,38.852a2,2,0,0,0-1.454-.667,2.073,2.073,0,0,0-1.471.662L12.152,40.2c-.112-.06-.224-.116-.331-.172-.155-.077-.3-.151-.426-.228a14.773,14.773,0,0,1-3.54-3.226,8.716,8.716,0,0,1-1.161-1.832c.353-.323.68-.658,1-.981.12-.12.241-.245.361-.366a1.973,1.973,0,0,0,0-2.977L6.879,29.247c-.133-.133-.271-.271-.4-.409-.258-.267-.529-.542-.809-.8a2.036,2.036,0,0,0-1.441-.632,2.107,2.107,0,0,0-1.462.632l-.009.009L1.3,29.522a3.147,3.147,0,0,0-.933,2,7.54,7.54,0,0,0,.551,3.192A18.52,18.52,0,0,0,4.2,40.2a20.242,20.242,0,0,0,6.74,5.278A10.5,10.5,0,0,0,14.729,46.6c.09,0,.185.009.271.009a3.241,3.241,0,0,0,2.482-1.067c0-.009.013-.013.017-.022a9.779,9.779,0,0,1,.753-.779c.185-.176.374-.361.559-.555a2.146,2.146,0,0,0,.65-1.488,2.067,2.067,0,0,0-.662-1.475Zm1.54,4.529s0,0,0,0c-.168.181-.34.344-.525.525a11.31,11.31,0,0,0-.83.86A2.074,2.074,0,0,1,15,45.45c-.065,0-.133,0-.2,0a9.329,9.329,0,0,1-3.355-1.007A19.107,19.107,0,0,1,5.1,39.467a17.463,17.463,0,0,1-3.1-5.157,6.142,6.142,0,0,1-.482-2.693,1.975,1.975,0,0,1,.594-1.278l1.467-1.467a.978.978,0,0,1,.654-.305.92.92,0,0,1,.628.3l.013.013c.262.245.512.5.774.77.133.138.271.275.409.417l1.174,1.174a.821.821,0,0,1,0,1.333c-.125.125-.245.249-.37.37-.361.37-.705.714-1.08,1.05-.009.009-.017.013-.022.022a.877.877,0,0,0-.224.976l.013.039A9.428,9.428,0,0,0,6.943,37.3l0,0a15.787,15.787,0,0,0,3.82,3.475,5.873,5.873,0,0,0,.529.288c.155.077.3.151.426.228.017.009.034.022.052.03a.932.932,0,0,0,.426.108.92.92,0,0,0,.654-.3l1.471-1.471a.973.973,0,0,1,.65-.323.876.876,0,0,1,.619.314l.009.009,2.37,2.37A.85.85,0,0,1,17.976,43.381Z" transform="translate(-0.345 -26.227)"/><path class="a" d="M245.422,87.077a5.536,5.536,0,0,1,4.508,4.508.577.577,0,0,0,.572.482.77.77,0,0,0,.1-.009.581.581,0,0,0,.477-.671,6.694,6.694,0,0,0-5.454-5.454.584.584,0,0,0-.671.473A.574.574,0,0,0,245.422,87.077Z" transform="translate(-234.423 -82.229)"/><path class="a" d="M258.431,8.99A11.022,11.022,0,0,0,249.45.009a.58.58,0,1,0-.189,1.144,9.845,9.845,0,0,1,8.026,8.026.577.577,0,0,0,.572.482.768.768,0,0,0,.1-.009A.57.57,0,0,0,258.431,8.99Z" transform="translate(-238.089 0)"/></g></svg>