<svg xmlns="http://www.w3.org/2000/svg" viewBox="0 0 22 24" width="52" height="57">
	<style>
		tspan { white-space:pre }
		.shp0 { fill: #285078 } 
		.shp1 { fill: #285078;stroke: #285078;stroke-width: 0.5 } 
	</style>
	<g id="Layer">
		<g id="Layer">
			<g id="Layer">
				<path id="Layer" fill-rule="evenodd" class="shp0" d="M10.61 22.91C10.59 22.91 10.58 22.91 10.56 22.91C10.55 22.91 10.53 22.91 10.52 22.91C10.32 22.91 10.12 22.88 9.94 22.83C7.13 22.08 4.71 20.48 2.96 18.19C1.2 15.9 0.27 13.15 0.26 10.23C0.26 9.58 0.26 8.92 0.26 8.28C0.26 7.96 0.26 7.64 0.26 7.31C0.26 6.92 0.26 6.54 0.26 6.15C0.26 5.27 0.26 4.36 0.25 3.47C0.24 2.87 0.5 2.54 1.09 2.4C2.68 2.04 4.29 1.66 5.85 1.29C7.23 0.96 8.66 0.62 10.07 0.3C10.21 0.27 10.35 0.25 10.5 0.25C10.52 0.25 10.54 0.25 10.56 0.25C10.58 0.25 10.6 0.25 10.62 0.25C10.77 0.25 10.92 0.27 11.05 0.3C12.46 0.62 13.89 0.96 15.27 1.29C16.83 1.65 18.45 2.03 20.04 2.4C20.63 2.54 20.89 2.87 20.88 3.47C20.86 4.36 20.86 5.27 20.87 6.15C20.87 6.54 20.87 6.93 20.87 7.31C20.87 7.64 20.87 7.96 20.87 8.28C20.87 8.92 20.87 9.58 20.87 10.23C20.86 13.15 19.93 15.9 18.17 18.19C16.41 20.48 14 22.08 11.18 22.83C11.01 22.88 10.81 22.91 10.61 22.91ZM10.58 21.33C10.72 21.33 10.88 21.31 11.03 21.27C15.93 19.84 19.27 15.44 19.32 10.32C19.34 9.18 19.33 8.02 19.33 6.91C19.33 5.99 19.33 5.03 19.34 4.1C19.34 3.86 19.31 3.83 19.1 3.78C17.47 3.4 15.81 3.01 14.21 2.64C13.1 2.38 11.96 2.11 10.84 1.85C10.77 1.83 10.69 1.82 10.61 1.82C10.6 1.82 10.59 1.82 10.57 1.82L10.56 1.82L10.55 1.82C10.54 1.82 10.53 1.82 10.51 1.82C10.43 1.82 10.36 1.83 10.29 1.85C9.16 2.11 8.02 2.38 6.92 2.64C5.31 3.01 3.66 3.4 2.03 3.78C1.81 3.83 1.79 3.86 1.79 4.1C1.8 5.03 1.8 5.99 1.79 6.91C1.79 8.02 1.79 9.18 1.8 10.32C1.86 15.44 5.2 19.84 10.1 21.27C10.25 21.31 10.41 21.33 10.55 21.33L10.58 21.33Z" />
				<path id="Layer" fill-rule="evenodd" class="shp0" d="M10.5 0C10.52 0 10.54 0 10.56 0C10.58 0 10.6 0 10.62 0C10.79 0 10.96 0.02 11.11 0.05C12.52 0.38 13.95 0.72 15.33 1.04C16.89 1.41 18.5 1.79 20.09 2.16C20.8 2.32 21.14 2.75 21.13 3.47C21.11 4.36 21.11 5.27 21.12 6.15C21.12 6.54 21.12 6.93 21.12 7.31C21.12 7.64 21.12 7.96 21.12 8.28C21.12 8.92 21.12 9.58 21.12 10.23C21.11 13.2 20.16 16.01 18.37 18.34C16.58 20.67 14.11 22.31 11.25 23.08C11.05 23.13 10.83 23.16 10.61 23.16C10.59 23.16 10.58 23.16 10.56 23.16C10.55 23.16 10.53 23.16 10.52 23.16C10.3 23.16 10.08 23.13 9.88 23.08C7.01 22.31 4.55 20.67 2.76 18.34C0.97 16.01 0.02 13.2 0.01 10.23C0.01 9.58 0.01 8.92 0.01 8.28C0.01 7.96 0.01 7.64 0.01 7.31C0.01 6.92 0.01 6.53 0.01 6.15C0.01 5.27 0.01 4.36 0 3.47C-0.01 2.75 0.33 2.32 1.04 2.16C2.62 1.79 4.23 1.41 5.79 1.04C7.17 0.72 8.61 0.38 10.02 0.05C10.17 0.02 10.33 0 10.5 0ZM10.5 0.5C10.38 0.5 10.25 0.51 10.13 0.54C7.13 1.24 4.14 1.95 1.15 2.65C0.68 2.75 0.49 2.98 0.5 3.46C0.52 4.74 0.51 6.03 0.51 7.31C0.51 8.28 0.5 9.25 0.51 10.23C0.53 16.06 4.38 21.09 10.01 22.59C10.17 22.64 10.34 22.66 10.52 22.66C10.53 22.66 10.55 22.66 10.56 22.66C10.58 22.66 10.59 22.66 10.61 22.66C10.78 22.66 10.96 22.64 11.12 22.59C16.75 21.09 20.6 16.06 20.62 10.23C20.62 9.25 20.62 8.28 20.62 7.31C20.62 6.03 20.61 4.74 20.63 3.46C20.63 2.98 20.45 2.75 19.98 2.65C16.98 1.95 13.99 1.24 11 0.54C10.88 0.51 10.75 0.5 10.62 0.5C10.6 0.5 10.58 0.5 10.56 0.5C10.54 0.5 10.52 0.5 10.5 0.5ZM10.56 1.57C10.58 1.57 10.6 1.57 10.61 1.57C10.71 1.57 10.81 1.58 10.9 1.6C13.65 2.24 16.4 2.9 19.16 3.53C19.5 3.61 19.59 3.76 19.59 4.1C19.57 6.17 19.6 8.25 19.57 10.32C19.51 15.54 16.09 20.06 11.1 21.51C10.93 21.55 10.75 21.58 10.58 21.58C10.57 21.58 10.57 21.58 10.56 21.58C10.56 21.58 10.55 21.58 10.55 21.58C10.37 21.58 10.19 21.55 10.03 21.51C5.04 20.06 1.61 15.54 1.55 10.32C1.53 8.25 1.56 6.17 1.54 4.1C1.54 3.76 1.62 3.61 1.97 3.53C4.73 2.9 7.48 2.24 10.23 1.6C10.32 1.58 10.42 1.57 10.51 1.57C10.53 1.57 10.55 1.57 10.56 1.57ZM10.56 2.07L10.54 2.07C10.53 2.07 10.52 2.07 10.51 2.07C10.45 2.07 10.4 2.08 10.35 2.09C9.22 2.35 8.08 2.62 6.97 2.88C5.37 3.26 3.71 3.65 2.08 4.02C2.07 4.02 2.05 4.03 2.04 4.03C2.04 4.05 2.04 4.07 2.04 4.1C2.05 5.03 2.05 5.99 2.04 6.91C2.04 8.02 2.04 9.18 2.05 10.31C2.11 15.33 5.37 19.63 10.17 21.03C10.3 21.06 10.43 21.08 10.55 21.08L10.58 21.08C10.69 21.08 10.83 21.06 10.96 21.03C15.75 19.63 19.02 15.33 19.07 10.31C19.09 9.18 19.08 8.02 19.08 6.91C19.08 5.99 19.08 5.03 19.09 4.1C19.09 4.07 19.09 4.05 19.08 4.03C19.07 4.03 19.06 4.02 19.04 4.02C17.41 3.65 15.75 3.26 14.15 2.88C13.05 2.62 11.91 2.35 10.78 2.09C10.73 2.08 10.67 2.07 10.61 2.07C10.6 2.07 10.59 2.07 10.58 2.07L10.56 2.07Z" />
			</g>
			<path id="Layer" fill-rule="evenodd" class="shp1" d="M15.78 15.79C15.78 16.33 15.61 16.5 15.07 16.5C13.57 16.5 12.07 16.5 10.57 16.5C9.06 16.5 7.56 16.5 6.07 16.5C5.52 16.5 5.36 16.33 5.36 15.79C5.36 13.39 5.36 10.99 5.36 8.58C5.36 8.01 5.52 7.86 6.09 7.85C6.6 7.85 7.11 7.85 7.66 7.85C7.62 7.59 7.62 7.33 7.64 7.08C7.67 6.82 7.73 6.57 7.82 6.32C7.91 6.08 8.02 5.85 8.17 5.64C8.31 5.42 8.48 5.23 8.68 5.05C8.8 4.95 8.93 4.85 9.08 4.77C9.22 4.68 9.37 4.61 9.52 4.55C9.68 4.5 9.83 4.45 10 4.42C10.16 4.39 10.32 4.38 10.49 4.38L10.64 4.38C10.8 4.38 10.97 4.39 11.13 4.42C11.29 4.45 11.45 4.5 11.61 4.55C11.76 4.61 11.91 4.68 12.05 4.77C12.19 4.85 12.33 4.95 12.45 5.05C12.64 5.23 12.81 5.42 12.96 5.64C13.1 5.85 13.22 6.08 13.31 6.32C13.4 6.57 13.46 6.82 13.48 7.08C13.51 7.33 13.5 7.59 13.47 7.85C14.02 7.85 14.53 7.84 15.03 7.85C15.61 7.86 15.77 8.01 15.77 8.58C15.78 10.98 15.78 13.39 15.78 15.79ZM9.56 5.72C9.39 5.83 9.24 5.96 9.12 6.12C8.99 6.27 8.89 6.45 8.82 6.63C8.75 6.82 8.71 7.02 8.7 7.22C8.68 7.42 8.7 7.62 8.76 7.81L12.37 7.81C12.42 7.62 12.44 7.42 12.43 7.22C12.42 7.02 12.38 6.82 12.31 6.63C12.24 6.45 12.14 6.27 12.01 6.12C11.89 5.96 11.74 5.83 11.57 5.72C11.42 5.62 11.26 5.55 11.09 5.5C10.92 5.45 10.74 5.42 10.56 5.42C10.39 5.42 10.21 5.45 10.04 5.5C9.87 5.55 9.71 5.62 9.56 5.72ZM14.69 8.95L6.44 8.95L6.44 15.41L14.69 15.41L14.69 8.95Z" />
			<path id="Layer" class="shp1" d="M11.67 12.3C11.57 12.38 11.47 12.47 11.39 12.57C11.31 12.67 11.24 12.79 11.19 12.91C11.15 13.03 11.12 13.16 11.11 13.29C11.1 13.43 11.11 13.56 11.13 13.69C11.13 13.77 11.16 13.89 11.12 13.93C10.96 14.09 10.79 14.34 10.62 14.34C10.61 14.34 10.6 14.34 10.59 14.34C10.58 14.34 10.57 14.34 10.56 14.34C10.55 14.34 10.55 14.34 10.54 14.34C10.53 14.34 10.52 14.34 10.51 14.34C10.34 14.34 10.16 14.09 10.01 13.93C9.97 13.88 9.99 13.77 9.99 13.69C10.02 13.56 10.03 13.43 10.02 13.29C10.01 13.16 9.98 13.03 9.93 12.91C9.88 12.79 9.82 12.67 9.74 12.57C9.66 12.47 9.56 12.38 9.45 12.3C9.33 12.19 9.22 12.06 9.14 11.92C9.07 11.77 9.02 11.61 9 11.45C8.97 11.28 8.98 11.12 9.02 10.96C9.06 10.8 9.13 10.64 9.22 10.51C9.37 10.28 9.57 10.1 9.8 9.97C10.04 9.84 10.3 9.77 10.56 9.77C10.83 9.77 11.09 9.84 11.33 9.97C11.56 10.1 11.76 10.28 11.9 10.51C12 10.64 12.07 10.8 12.11 10.96C12.14 11.12 12.15 11.28 12.13 11.45C12.11 11.61 12.06 11.77 11.98 11.92C11.9 12.06 11.8 12.19 11.67 12.3Z" />
		</g>
	</g>
</svg>