<svg xmlns="http://www.w3.org/2000/svg" width="27.399" height="20" viewBox="0 0 27.399 20"><defs><style>.a,.c{fill:#1a3253;}.b{fill:#fff;}.b,.c{stroke:#1a3253;}.c{stroke-width:0.2px;}.d{stroke:none;}.e{fill:none;}</style></defs><g transform="translate(-93 -306)"><g transform="translate(5 -2)"><path class="a" d="M286.8,312.218a.313.313,0,0,1,0,.542l-4.907,4.352a.313.313,0,0,1-.47-.271v-1.964a.313.313,0,0,0-.313-.313h-4.395a.313.313,0,0,1-.313-.313v-3.524a.313.313,0,0,1,.313-.313h4.395a.313.313,0,0,0,.313-.313v-1.964a.313.313,0,0,1,.47-.271Z" transform="translate(-171.561 5.177)"/></g><g transform="translate(0 -2)"><g transform="translate(93 308)"><g class="b"><rect class="d" width="16" height="20" rx="3"/><rect class="e" x="0.5" y="0.5" width="15" height="19" rx="2.5"/></g><g transform="translate(3.332 4.444)"><g transform="translate(-0.333 6.167)"><path class="c" d="M999.687,104.376q-2.173,0-4.347,0a.632.632,0,1,1-.076-1.262c.04,0,.08,0,.121,0q4.309,0,8.618,0a.684.684,0,0,1,.557.214.629.629,0,0,1-.391,1.044,1.512,1.512,0,0,1-.211.007Z" transform="translate(-994.66 -104.722)"/><path class="c" d="M999.687,104.376q-2.173,0-4.347,0a.632.632,0,1,1-.076-1.262c.04,0,.08,0,.121,0q4.309,0,8.618,0a.684.684,0,0,1,.557.214.629.629,0,0,1-.391,1.044,1.512,1.512,0,0,1-.211.007Z" transform="translate(-994.66 -108.722)"/><path class="c" d="M999.687,104.376q-2.173,0-4.347,0a.632.632,0,1,1-.076-1.262c.04,0,.08,0,.121,0q4.309,0,8.618,0a.684.684,0,0,1,.557.214.629.629,0,0,1-.391,1.044,1.512,1.512,0,0,1-.211.007Z" transform="translate(-994.66 -100.722)"/></g></g></g></g></g></svg>