<svg xmlns="http://www.w3.org/2000/svg" viewBox="0 0 288 288" width="50" height="50">
	<style>
		tspan { white-space:pre }
		.shp0 { fill: #ffffff } 
	</style>
	<g id="SvgjsG1008">
		<g id="Layer">
			<g id="Layer">
				<path id="Layer" fill-rule="evenodd" class="shp0" d="M251.4 206.26C252.72 207.48 253.91 208.83 254.96 210.29C256.01 211.74 256.91 213.3 257.65 214.94C258.38 216.58 258.95 218.28 259.34 220.04C259.74 221.79 259.96 223.57 259.99 225.37C259.95 227.17 259.73 228.96 259.34 230.71C258.95 232.47 258.39 234.18 257.67 235.83C256.95 237.48 256.07 239.06 255.04 240.53C254.02 242.01 252.85 243.39 251.56 244.64C249.16 247.16 246.71 249.55 244.31 251.83C243.45 252.63 242.6 253.43 241.76 254.25C240.92 255.07 240.1 255.9 239.28 256.74C238.47 257.58 237.67 258.44 236.88 259.3C236.08 260.16 235.31 261.04 234.54 261.92C234.49 262.04 234.32 262.09 234.32 262.21C232.3 264.44 230.04 266.45 227.59 268.21C225.13 269.96 222.5 271.44 219.73 272.63C216.96 273.82 214.07 274.71 211.11 275.28C208.15 275.85 205.13 276.1 202.12 276.03C201 276.03 199.77 275.91 198.6 275.91C194.33 275.49 190.07 274.87 185.85 274.04C181.63 273.22 177.46 272.2 173.34 270.98C169.21 269.76 165.15 268.35 161.17 266.74C157.18 265.14 153.27 263.35 149.45 261.38C141.06 257.32 132.89 252.81 124.97 247.88C117.06 242.95 109.41 237.6 102.07 231.86C94.73 226.12 87.7 219.99 81 213.5C74.31 207.01 67.97 200.17 62.01 193.01C57.47 187.76 53.16 182.31 49.09 176.69C45.02 171.07 41.2 165.27 37.63 159.32C34.06 153.37 30.76 147.26 27.72 141.02C24.69 134.79 21.92 128.42 19.44 121.94C18.1 118.68 16.95 115.34 15.97 111.95C15 108.56 14.21 105.13 13.61 101.65C13.01 98.18 12.6 94.67 12.38 91.16C12.16 87.64 12.13 84.11 12.29 80.59C12.48 78.16 12.89 75.75 13.51 73.4C14.13 71.04 14.96 68.75 15.99 66.54C17.02 64.33 18.25 62.22 19.66 60.23C21.07 58.25 22.65 56.39 24.39 54.68L43.31 35.57L43.42 35.46C44.66 34.2 46.02 33.06 47.47 32.06C48.93 31.06 50.48 30.2 52.1 29.5C53.72 28.8 55.41 28.26 57.14 27.89C58.86 27.51 60.62 27.31 62.39 27.27C64.14 27.3 65.88 27.5 67.59 27.87C69.29 28.24 70.96 28.79 72.56 29.49C74.16 30.19 75.69 31.05 77.12 32.05C78.55 33.05 79.88 34.19 81.08 35.46C84.72 38.8 88.23 42.36 91.58 45.82C93.25 47.61 95.04 49.4 96.77 51.12L112.02 66.29C114.79 68.69 117 71.65 118.52 74.98C120.03 78.3 120.82 81.91 120.82 85.57C120.82 89.23 120.03 92.84 118.52 96.16C117 99.49 114.79 102.45 112.02 104.85C110.47 106.42 108.9 108.04 107.34 109.59C103.19 113.78 98.95 118.12 94.37 122.3C95.37 124.43 96.44 126.52 97.57 128.58C98.7 130.63 99.9 132.65 101.16 134.64C102.41 136.62 103.73 138.56 105.11 140.47C106.49 142.37 107.93 144.22 109.43 146.03C112.65 150.11 116.05 154.05 119.59 157.85C123.14 161.65 126.84 165.3 130.68 168.8C134.53 172.3 138.51 175.64 142.63 178.81C146.75 181.99 150.99 185 155.35 187.83C156.99 188.82 158.87 189.78 160.88 190.78C162.27 191.5 163.72 192.23 165.17 193.01L182.8 175.48C184.02 174.17 185.37 172.98 186.83 171.94C188.28 170.89 189.84 170 191.48 169.26C193.11 168.53 194.81 167.96 196.56 167.56C198.31 167.17 200.09 166.95 201.89 166.9C203.67 166.94 205.44 167.15 207.18 167.55C208.91 167.94 210.6 168.52 212.22 169.26C213.84 170 215.38 170.91 216.81 171.96C218.24 173.02 219.56 174.22 220.75 175.54L251.4 206.26ZM243.91 230.33C244.66 228.8 245.04 227.13 245.03 225.43C245.02 223.73 244.62 222.06 243.86 220.54C243.1 219.03 241.99 217.71 240.64 216.69L209.77 185.87C209.28 185.28 208.73 184.74 208.12 184.25C207.52 183.77 206.87 183.36 206.18 183.01C205.49 182.66 204.77 182.38 204.02 182.18C203.28 181.98 202.51 181.85 201.74 181.8C200.94 181.86 200.15 182 199.37 182.22C198.6 182.43 197.84 182.72 197.12 183.08C196.4 183.44 195.72 183.86 195.08 184.35C194.44 184.84 193.85 185.39 193.31 185.99L174.23 205.04C173.69 205.63 173.09 206.17 172.45 206.64C171.8 207.11 171.11 207.51 170.38 207.85C169.66 208.18 168.9 208.44 168.12 208.62C167.34 208.8 166.54 208.91 165.74 208.93C165.26 208.92 164.79 208.89 164.31 208.83C163.83 208.77 163.36 208.68 162.9 208.56C162.43 208.44 161.97 208.3 161.53 208.12C161.08 207.95 160.64 207.75 160.22 207.53C159.98 207.43 159.76 207.26 159.54 207.14C157.91 206.14 156.03 205.18 154.02 204.19C153.43 203.91 152.85 203.62 152.27 203.32C151.69 203.02 151.11 202.72 150.54 202.41C149.97 202.1 149.4 201.78 148.83 201.45C148.27 201.13 147.71 200.8 147.15 200.46C142.44 197.42 137.86 194.18 133.42 190.77C128.97 187.35 124.67 183.75 120.52 179.98C116.37 176.22 112.38 172.28 108.55 168.18C104.73 164.09 101.07 159.84 97.6 155.44C95.75 153.22 93.99 150.94 92.3 148.59C90.62 146.25 89.02 143.84 87.5 141.38C85.99 138.93 84.57 136.42 83.23 133.86C81.9 131.3 80.65 128.69 79.5 126.05L79.33 125.54C78.9 124.47 78.64 123.34 78.55 122.19C78.46 121.04 78.54 119.89 78.8 118.76C79.06 117.64 79.49 116.56 80.07 115.57C80.65 114.57 81.38 113.67 82.24 112.9C82.3 112.78 82.41 112.73 82.52 112.61C87.39 108.26 91.85 103.8 96.53 99.01C98.16 97.44 99.71 95.84 101.33 94.22C102.71 93.23 103.82 91.94 104.59 90.43C105.36 88.93 105.77 87.27 105.77 85.58C105.77 83.9 105.36 82.23 104.59 80.73C103.82 79.23 102.71 77.93 101.33 76.95L86.1 61.74C84.31 59.9 82.52 58.13 80.8 56.34C77.4 52.84 74.16 49.54 70.76 46.36L70.59 46.2C70.07 45.62 69.5 45.11 68.88 44.65C68.26 44.18 67.59 43.79 66.9 43.45C66.2 43.12 65.47 42.86 64.73 42.66C63.98 42.47 63.21 42.35 62.44 42.31C61.64 42.36 60.85 42.48 60.08 42.67C59.3 42.87 58.55 43.14 57.82 43.47C57.1 43.81 56.41 44.22 55.76 44.68C55.11 45.15 54.51 45.68 53.96 46.26L34.93 65.26C33.81 66.35 32.79 67.53 31.89 68.8C30.99 70.07 30.2 71.42 29.54 72.83C28.89 74.24 28.36 75.71 27.97 77.22C27.58 78.73 27.33 80.27 27.22 81.82C27.08 84.8 27.1 87.78 27.3 90.75C27.49 93.72 27.85 96.68 28.38 99.61C28.9 102.55 29.59 105.45 30.44 108.3C31.3 111.16 32.31 113.96 33.47 116.71C35.83 122.8 38.44 128.78 41.31 134.65C44.18 140.52 47.31 146.26 50.68 151.85C54.05 157.45 57.66 162.89 61.5 168.18C65.34 173.46 69.41 178.58 73.69 183.51C79.3 190.26 85.27 196.71 91.57 202.82C97.87 208.94 104.49 214.71 111.4 220.13C118.31 225.54 125.51 230.58 132.96 235.23C140.41 239.89 148.1 244.14 156 247.97C159.38 249.73 162.84 251.33 166.37 252.76C169.9 254.19 173.5 255.46 177.14 256.55C180.79 257.65 184.49 258.57 188.23 259.31C191.97 260.06 195.74 260.63 199.53 261.02C200.39 261.02 201.28 261.02 202.12 261.02C204.08 261.09 206.05 260.95 207.99 260.6C209.92 260.25 211.81 259.69 213.62 258.92C215.43 258.16 217.16 257.2 218.76 256.06C220.36 254.93 221.83 253.62 223.15 252.16C224 251.18 224.86 250.22 225.73 249.27C226.6 248.31 227.49 247.37 228.38 246.44C229.28 245.52 230.19 244.6 231.11 243.69C232.04 242.79 232.97 241.9 233.92 241.02C236.32 238.67 238.55 236.56 240.73 234.21C242.07 233.18 243.16 231.85 243.91 230.33Z" />
				<path id="Layer" class="shp0" d="M154.69 74.8C161.94 76.05 168.96 78.42 175.49 81.8C182.02 85.18 187.99 89.55 193.2 94.75C198.4 99.94 202.77 105.91 206.16 112.43C209.55 118.95 211.91 125.96 213.17 133.2C213.32 134.07 213.62 134.9 214.05 135.67C214.49 136.43 215.06 137.11 215.73 137.68C216.41 138.25 217.18 138.69 218.01 138.99C218.84 139.29 219.71 139.45 220.59 139.44C220.7 139.44 220.81 139.43 220.92 139.43C221.03 139.42 221.14 139.41 221.24 139.4C221.35 139.39 221.46 139.38 221.57 139.37C221.68 139.36 221.78 139.34 221.89 139.32C222.87 139.16 223.81 138.81 224.65 138.28C225.49 137.76 226.22 137.07 226.79 136.26C227.37 135.45 227.78 134.54 228 133.57C228.22 132.61 228.25 131.61 228.08 130.63C226.56 121.87 223.7 113.4 219.6 105.5C215.5 97.61 210.21 90.39 203.92 84.11C197.62 77.82 190.39 72.54 182.49 68.44C174.59 64.35 166.1 61.5 157.32 59.98C156.35 59.82 155.35 59.85 154.39 60.07C153.43 60.28 152.52 60.69 151.71 61.26C150.91 61.83 150.22 62.55 149.69 63.38C149.16 64.21 148.79 65.14 148.62 66.11C148.44 67.08 148.45 68.07 148.66 69.04C148.87 70 149.27 70.91 149.83 71.72C150.4 72.53 151.12 73.22 151.95 73.75C152.79 74.28 153.72 74.63 154.69 74.8L154.69 74.8Z" />
				<path id="Layer" class="shp0" d="M275.9 128.46C273.4 114.03 268.69 100.07 261.94 87.07C255.19 74.08 246.48 62.19 236.11 51.84C225.74 41.49 213.84 32.79 200.83 26.05C187.81 19.31 173.83 14.61 159.39 12.11C157.39 11.72 155.32 12.16 153.65 13.32C151.98 14.47 150.85 16.26 150.52 18.26C150.19 20.27 150.68 22.32 151.89 23.95C153.1 25.58 154.92 26.66 156.94 26.93C169.85 29.16 182.34 33.36 193.97 39.38C205.61 45.4 216.24 53.17 225.51 62.43C234.78 71.68 242.56 82.3 248.59 93.92C254.62 105.53 258.83 118.01 261.06 130.9C261.2 131.77 261.5 132.61 261.94 133.37C262.37 134.14 262.94 134.82 263.62 135.39C264.29 135.96 265.06 136.4 265.89 136.7C266.72 137 267.59 137.15 268.48 137.15C268.58 137.15 268.69 137.14 268.8 137.13C268.91 137.13 269.02 137.12 269.13 137.11C269.23 137.1 269.34 137.09 269.45 137.08C269.56 137.06 269.67 137.05 269.77 137.03C270.74 136.88 271.67 136.53 272.51 136.02C273.34 135.5 274.07 134.82 274.64 134.03C275.2 133.23 275.61 132.32 275.83 131.37C276.04 130.41 276.07 129.42 275.9 128.46Z" />
			</g>
		</g>
	</g>
</svg>