<svg xmlns="http://www.w3.org/2000/svg" viewBox="0 0 37 33" width="60" height="54">
	<style>
		tspan { white-space:pre }
		.shp0 { fill: none } 
		.shp1 { fill: none;stroke: #285078;stroke-width: 1.5 } 
		.shp2 { fill: #285078;stroke: #285078 } 
		.shp3 { fill: #285078 } 
		.shp4 { fill: #ffffff } 
	</style>
	<g id="Layer">
		<g id="Layer">
			<g id="Layer">
				<g id="Layer">
					<path id="Layer" class="shp0" d="M15.5 31C6.93 31 0 24.07 0 15.5C0 6.93 6.93 0 15.5 0C24.07 0 31 6.93 31 15.5C31 24.07 24.07 31 15.5 31Z" />
					<path id="Layer" class="shp1" d="M15.5 30.25C7.34 30.25 0.75 23.66 0.75 15.5C0.75 7.34 7.34 0.75 15.5 0.75C23.66 0.75 30.25 7.34 30.25 15.5C30.25 23.66 23.66 30.25 15.5 30.25Z" />
				</g>
			</g>
		</g>
		<g id="Layer">
			<g id="Layer">
				<path id="Layer" fill-rule="evenodd" class="shp2" d="M26.73 11.74C26.82 12.28 26.84 12.82 26.81 13.36C26.77 13.9 26.66 14.44 26.5 14.95C26.33 15.47 26.11 15.96 25.83 16.42C25.54 16.89 25.21 17.31 24.82 17.7C24.52 18.01 24.21 18.31 23.89 18.63C24.05 18.75 24.19 18.91 24.29 19.08C24.4 19.26 24.47 19.45 24.51 19.65C24.54 19.85 24.54 20.06 24.5 20.26C24.47 20.46 24.39 20.65 24.28 20.83C24.2 20.98 24.09 21.12 23.96 21.23C23.83 21.35 23.69 21.45 23.53 21.52C23.37 21.6 23.2 21.64 23.03 21.66C22.85 21.68 22.68 21.68 22.5 21.64C22.53 21.78 22.54 21.92 22.53 22.06C22.52 22.19 22.49 22.33 22.45 22.46C22.41 22.59 22.35 22.72 22.28 22.84C22.21 22.95 22.12 23.06 22.03 23.16C21.93 23.26 21.82 23.34 21.7 23.42C21.58 23.49 21.46 23.55 21.33 23.59C21.19 23.63 21.06 23.65 20.92 23.66C20.78 23.67 20.64 23.66 20.51 23.64C20.54 23.8 20.55 23.97 20.53 24.14C20.51 24.3 20.47 24.47 20.4 24.62C20.33 24.77 20.24 24.92 20.14 25.04C20.03 25.17 19.9 25.28 19.76 25.37C19.62 25.47 19.47 25.54 19.31 25.59C19.15 25.64 18.99 25.66 18.82 25.67C18.65 25.67 18.49 25.64 18.33 25.59C18.17 25.55 18.02 25.47 17.88 25.38C17.86 25.71 17.75 26.02 17.55 26.29C17.36 26.55 17.1 26.76 16.79 26.88C16.49 27 16.16 27.03 15.83 26.97C15.51 26.9 15.22 26.75 14.98 26.52C14.94 26.5 14.9 26.47 14.86 26.44C14.82 26.41 14.79 26.39 14.75 26.36C14.71 26.33 14.67 26.3 14.64 26.27C14.6 26.24 14.56 26.21 14.53 26.18C14.14 25.85 13.55 25.34 12.85 24.73L12.41 24.34C11.88 23.88 11.31 23.36 10.73 22.85L10.32 22.48C9.75 21.97 9.18 21.45 8.65 20.98L8.24 20.61C7.54 19.98 6.95 19.45 6.58 19.11L6.16 18.73L6.05 18.61C5.66 18.2 5.24 17.82 4.89 17.39C4.61 17.05 4.37 16.68 4.17 16.29C3.96 15.9 3.8 15.5 3.67 15.07C3.55 14.65 3.46 14.22 3.42 13.78C3.38 13.35 3.39 12.91 3.43 12.47C3.5 11.7 3.7 10.95 4.01 10.24C4.33 9.54 4.76 8.89 5.29 8.32C5.82 7.76 6.43 7.28 7.12 6.92C7.8 6.56 8.54 6.31 9.3 6.19C9.81 6.1 10.33 6.07 10.85 6.1C11.36 6.13 11.87 6.22 12.37 6.36C12.87 6.51 13.35 6.71 13.8 6.96C14.25 7.22 14.67 7.52 15.05 7.87C15.08 7.9 15.11 7.92 15.14 7.95C15.27 7.84 15.39 7.73 15.51 7.63C15.85 7.34 16.21 7.09 16.59 6.87C16.98 6.66 17.38 6.48 17.8 6.34C18.22 6.2 18.65 6.11 19.09 6.05C19.53 6 19.97 5.98 20.41 6.01C21.18 6.05 21.94 6.23 22.65 6.52C23.36 6.82 24.02 7.24 24.59 7.75C25.16 8.27 25.64 8.88 26 9.56C26.37 10.24 26.61 10.98 26.73 11.74ZM23.9 20.36C23.95 20.22 23.97 20.08 23.96 19.94C23.96 19.8 23.93 19.66 23.87 19.53C23.81 19.4 23.73 19.28 23.63 19.18C21.72 17.26 19.8 15.35 17.88 13.44C17.85 13.41 17.82 13.39 17.79 13.37C17.76 13.34 17.73 13.32 17.7 13.3C17.67 13.29 17.64 13.27 17.61 13.25C17.57 13.24 17.54 13.23 17.5 13.21C17.39 13.17 17.27 13.14 17.15 13.14C17.03 13.13 16.91 13.14 16.8 13.16C16.68 13.19 16.57 13.23 16.46 13.29C16.36 13.35 16.26 13.43 16.18 13.51C15.47 14.21 14.77 14.92 14.06 15.62C13.81 15.88 13.5 16.07 13.16 16.19C12.81 16.31 12.45 16.34 12.09 16.29C11.73 16.25 11.39 16.12 11.09 15.92C10.79 15.71 10.54 15.45 10.36 15.13C10.24 14.91 10.15 14.67 10.11 14.41C10.06 14.16 10.06 13.91 10.09 13.65C10.13 13.4 10.21 13.15 10.32 12.93C10.44 12.7 10.59 12.49 10.77 12.31C12.05 11.03 13.33 9.75 14.61 8.48C14.62 8.47 14.64 8.46 14.65 8.45C14.66 8.44 14.67 8.43 14.69 8.42C14.7 8.42 14.71 8.41 14.73 8.4C14.74 8.39 14.76 8.39 14.77 8.38C14.69 8.3 14.65 8.26 14.61 8.23C14.25 7.91 13.86 7.63 13.44 7.4C13.02 7.17 12.57 6.99 12.11 6.86C11.64 6.73 11.17 6.66 10.68 6.64C10.2 6.62 9.72 6.66 9.25 6.75C8.55 6.88 7.88 7.12 7.26 7.46C6.63 7.81 6.07 8.26 5.6 8.78C5.12 9.31 4.74 9.92 4.46 10.57C4.18 11.23 4.02 11.92 3.97 12.63C3.93 13.07 3.94 13.52 4 13.96C4.05 14.4 4.16 14.83 4.31 15.24C4.46 15.66 4.65 16.06 4.89 16.44C5.12 16.81 5.4 17.16 5.71 17.47C5.98 17.76 6.27 18.04 6.56 18.33C6.61 18.37 6.75 18.5 6.97 18.7C7.35 19.04 7.94 19.57 8.65 20.2L9.06 20.56L10.75 22.05L11.16 22.41L12.86 23.9L13.32 24.31L14.86 25.67L15.38 26.13C15.39 26.13 15.39 26.14 15.4 26.14C15.4 26.15 15.41 26.15 15.42 26.16C15.42 26.16 15.43 26.17 15.43 26.17C15.44 26.18 15.45 26.18 15.45 26.19C15.49 26.21 15.52 26.24 15.55 26.26C15.66 26.33 15.79 26.39 15.93 26.42C16.06 26.45 16.2 26.45 16.34 26.43C16.47 26.41 16.6 26.37 16.72 26.3C16.84 26.23 16.95 26.14 17.04 26.04C17.13 25.93 17.2 25.81 17.25 25.68C17.29 25.55 17.32 25.41 17.31 25.27C17.31 25.14 17.28 25 17.22 24.87C17.17 24.74 17.09 24.63 17 24.53C16.56 24.08 16.12 23.65 15.68 23.21C15.52 23.05 15.36 22.9 15.21 22.73C15.18 22.71 15.16 22.69 15.15 22.66C15.14 22.63 15.13 22.6 15.13 22.57C15.12 22.54 15.12 22.51 15.13 22.48C15.14 22.45 15.15 22.42 15.17 22.4C15.18 22.37 15.2 22.34 15.23 22.32C15.25 22.3 15.28 22.29 15.31 22.28C15.33 22.27 15.36 22.26 15.4 22.26C15.43 22.26 15.46 22.27 15.49 22.28C15.5 22.28 15.52 22.29 15.53 22.3C15.55 22.31 15.57 22.32 15.58 22.33C15.6 22.34 15.61 22.35 15.62 22.36C15.64 22.38 15.65 22.39 15.66 22.4C16.45 23.19 17.23 23.97 18.02 24.75C18.08 24.83 18.16 24.89 18.24 24.94C18.32 24.99 18.41 25.03 18.51 25.06C18.6 25.09 18.7 25.1 18.8 25.1C18.9 25.1 18.99 25.09 19.09 25.07C19.19 25.05 19.28 25.01 19.38 24.97C19.47 24.92 19.55 24.86 19.62 24.79C19.69 24.72 19.76 24.64 19.81 24.55C19.86 24.46 19.9 24.37 19.92 24.27C19.95 24.17 19.97 24.07 19.97 23.97C19.97 23.87 19.96 23.77 19.94 23.68C19.91 23.58 19.87 23.49 19.82 23.4C19.77 23.31 19.7 23.24 19.63 23.17C18.85 22.39 18.07 21.61 17.3 20.84C17.29 20.83 17.28 20.82 17.27 20.81C17.26 20.8 17.25 20.79 17.24 20.78C17.23 20.77 17.22 20.76 17.21 20.75C17.2 20.74 17.19 20.73 17.19 20.72C17.16 20.69 17.15 20.66 17.14 20.63C17.13 20.6 17.12 20.56 17.13 20.53C17.13 20.49 17.14 20.46 17.15 20.43C17.17 20.4 17.19 20.37 17.21 20.35C17.24 20.32 17.26 20.31 17.29 20.29C17.32 20.28 17.36 20.27 17.39 20.27C17.42 20.27 17.46 20.27 17.49 20.28C17.52 20.29 17.55 20.31 17.57 20.33C17.58 20.34 17.59 20.34 17.6 20.35C17.61 20.36 17.62 20.37 17.63 20.38C17.64 20.38 17.65 20.39 17.66 20.4C17.66 20.41 17.67 20.42 17.68 20.43L20.02 22.76C20.08 22.83 20.16 22.89 20.24 22.94C20.32 22.99 20.41 23.03 20.5 23.06C20.59 23.09 20.69 23.11 20.79 23.11C20.88 23.11 20.98 23.1 21.07 23.08C21.17 23.06 21.27 23.03 21.36 22.98C21.45 22.93 21.54 22.87 21.61 22.8C21.69 22.74 21.75 22.66 21.8 22.57C21.85 22.48 21.89 22.39 21.92 22.29C21.95 22.19 21.97 22.09 21.97 21.99C21.98 21.89 21.97 21.79 21.94 21.69C21.91 21.59 21.88 21.49 21.82 21.41C21.77 21.32 21.71 21.24 21.63 21.17C20.85 20.39 20.07 19.61 19.29 18.83C19.28 18.82 19.27 18.81 19.26 18.8C19.25 18.79 19.24 18.78 19.23 18.77C19.22 18.76 19.21 18.75 19.2 18.74C19.2 18.73 19.19 18.72 19.18 18.71C19.16 18.68 19.15 18.66 19.14 18.63C19.13 18.6 19.12 18.56 19.13 18.53C19.13 18.5 19.13 18.47 19.15 18.44C19.16 18.41 19.18 18.38 19.2 18.36C19.22 18.34 19.25 18.32 19.28 18.3C19.31 18.29 19.34 18.28 19.37 18.27C19.4 18.27 19.44 18.27 19.47 18.28C19.5 18.29 19.53 18.3 19.56 18.32C19.57 18.33 19.58 18.34 19.59 18.35C19.6 18.35 19.61 18.36 19.62 18.37C19.63 18.38 19.64 18.39 19.65 18.4C19.66 18.41 19.67 18.42 19.68 18.43L21.98 20.73C21.99 20.74 22.01 20.76 22.02 20.77C22.04 20.79 22.05 20.8 22.07 20.82C22.08 20.83 22.1 20.84 22.11 20.86C22.13 20.87 22.15 20.88 22.16 20.89C22.28 20.98 22.41 21.04 22.54 21.07C22.68 21.11 22.82 21.12 22.96 21.1C23.1 21.09 23.23 21.04 23.36 20.98C23.48 20.91 23.59 20.82 23.69 20.72C23.78 20.61 23.85 20.49 23.9 20.36ZM24.46 17.27C24.84 16.89 25.17 16.46 25.43 16C25.7 15.53 25.91 15.04 26.05 14.52C26.19 14 26.27 13.47 26.27 12.93C26.27 12.39 26.21 11.86 26.07 11.34C25.84 10.39 25.39 9.51 24.76 8.76C24.13 8.02 23.33 7.43 22.43 7.05C21.54 6.67 20.56 6.5 19.59 6.56C18.61 6.62 17.66 6.9 16.82 7.39C16.7 7.46 16.57 7.53 16.45 7.61C16.33 7.69 16.22 7.77 16.1 7.86C15.99 7.95 15.88 8.04 15.77 8.13C15.66 8.22 15.56 8.32 15.46 8.42C14.03 9.85 12.59 11.28 11.17 12.71C11.03 12.84 10.92 12.99 10.84 13.15C10.75 13.31 10.69 13.48 10.65 13.66C10.62 13.84 10.61 14.02 10.63 14.2C10.65 14.38 10.7 14.56 10.78 14.72C10.89 14.99 11.08 15.22 11.3 15.4C11.53 15.58 11.8 15.7 12.09 15.75C12.37 15.8 12.67 15.78 12.94 15.7C13.22 15.61 13.47 15.46 13.68 15.25C14.38 14.56 15.08 13.85 15.78 13.15C15.95 12.97 16.15 12.83 16.38 12.73C16.6 12.64 16.85 12.58 17.09 12.58C17.34 12.58 17.58 12.64 17.8 12.73C18.03 12.83 18.23 12.97 18.4 13.15C20.05 14.8 21.71 16.45 23.36 18.1C23.37 18.12 23.38 18.13 23.39 18.14C23.4 18.16 23.41 18.17 23.42 18.18C23.43 18.2 23.44 18.21 23.45 18.23C23.46 18.24 23.46 18.26 23.47 18.27C23.83 17.91 24.16 17.6 24.46 17.27Z" />
			</g>
		</g>
		<g id="Layer">
			<g id="Layer">
				<path id="Layer" class="shp3" d="M18.12 32.94L18.12 31L18.12 28.71C18.12 23.95 21.99 20.08 26.75 20.08L27.41 20.08L27.41 16.51L27.41 14.57L28.71 16L35.32 23.24L35.78 23.75L35.32 24.25L28.71 31.5L27.41 32.93L27.41 30.99L27.41 27.43C24.61 27.52 21.94 28.75 20.05 30.82L19.42 31.51L18.12 32.94Z" />
				<path id="Layer" fill-rule="evenodd" class="shp4" d="M28.16 15.01C28.57 15.01 28.98 15.18 29.27 15.5L35.87 22.74C36.39 23.31 36.39 24.19 35.87 24.76L29.27 32C28.98 32.32 28.57 32.49 28.16 32.49C27.98 32.49 27.79 32.46 27.62 32.39C27.04 32.17 26.66 31.61 26.66 30.99L26.66 28.23C24.35 28.5 22.18 29.59 20.6 31.33L19.98 32.01C19.69 32.33 19.28 32.5 18.87 32.5C18.69 32.5 18.5 32.47 18.33 32.4C17.75 32.18 17.37 31.62 17.37 31L17.37 28.71C17.37 23.57 21.53 19.38 26.66 19.33L26.66 16.51C26.66 15.89 27.04 15.33 27.62 15.11C27.79 15.04 27.98 15.01 28.16 15.01ZM28.16 16.51L28.16 20.83L26.75 20.83C22.4 20.83 18.87 24.36 18.87 28.71L18.87 31L19.49 30.32C21.61 27.99 24.61 26.67 27.76 26.67L28.16 26.67L28.16 30.99L34.76 23.75L28.16 16.51Z" />
			</g>
		</g>
	</g>
</svg>