<svg xmlns="http://www.w3.org/2000/svg" width="38.451" height="41.561" viewBox="0 0 38.451 41.561"><defs><style>.a{fill:#ffdc00;}.b{fill:#373737;}.c{fill:#285078;}.d{fill:#fff;}.e{opacity:0.09;mix-blend-mode:multiply;isolation:isolate;}.f{fill:#0e2d47;}.g{opacity:0.42;}.h{fill:#163249;}</style></defs><g transform="translate(14.153 31.871)"><g transform="translate(0.214 0.213)"><path class="a" d="M444.07,329.886a.211.211,0,0,1-.1-.024L441.2,328.4l-2.772,1.458a.211.211,0,0,1-.1.024.213.213,0,0,1-.21-.25l.529-3.087-2.242-2.186a.214.214,0,0,1,.118-.364l3.1-.451,1.386-2.808a.214.214,0,0,1,.383,0l1.386,2.808,3.1.451a.213.213,0,0,1,.118.364l-2.242,2.186.529,3.087a.214.214,0,0,1-.21.25Z" transform="translate(-436.34 -320.622)"/></g><path class="b" d="M440.662,320.3l1.436,2.909,3.21.466-2.323,2.264.548,3.2-2.871-1.51-2.871,1.51.548-3.2-2.323-2.264,3.21-.466,1.436-2.909m0-.427a.427.427,0,0,0-.383.238l-1.336,2.708-2.988.434a.427.427,0,0,0-.237.728l2.162,2.108-.51,2.976a.427.427,0,0,0,.619.45l2.673-1.405,2.672,1.405a.427.427,0,0,0,.62-.45l-.511-2.976,2.162-2.108a.427.427,0,0,0-.236-.728l-2.988-.434-1.336-2.708a.427.427,0,0,0-.383-.238Z" transform="translate(-435.589 -319.872)"/></g><g transform="translate(26.625 29.134)"><g transform="translate(0.213 0.213)"><path class="a" d="M485.749,317.754a.215.215,0,0,1-.1-.024L483.7,316.7l-1.954,1.027a.213.213,0,0,1-.309-.225l.373-2.176-1.581-1.541a.214.214,0,0,1,.118-.364l2.185-.318.977-1.979a.214.214,0,0,1,.383,0l.977,1.979,2.185.318a.214.214,0,0,1,.118.364l-1.581,1.541.373,2.176a.214.214,0,0,1-.21.25Z" transform="translate(-480.16 -311.008)"/></g><path class="b" d="M483.159,310.685l1.027,2.08,2.3.334-1.661,1.619.392,2.287-2.053-1.08L481.106,317l.392-2.287-1.661-1.619,2.3-.334,1.027-2.08m0-.427a.427.427,0,0,0-.383.238l-.927,1.879-2.074.3a.427.427,0,0,0-.237.728l1.5,1.463-.354,2.065a.427.427,0,0,0,.62.45l1.855-.975,1.855.975a.427.427,0,0,0,.619-.45l-.354-2.065,1.5-1.463a.427.427,0,0,0-.237-.728l-2.073-.3-.928-1.879a.427.427,0,0,0-.383-.238Z" transform="translate(-479.41 -310.258)"/></g><g transform="translate(33.241 24.291)"><g transform="translate(0.214 0.213)"><path class="a" d="M507.144,298.562a.211.211,0,0,1-.1-.024l-1.247-.655-1.247.655a.213.213,0,0,1-.225-.016.214.214,0,0,1-.085-.209l.238-1.388-1.009-.983a.214.214,0,0,1,.118-.364l1.394-.2.623-1.263a.214.214,0,0,1,.383,0l.624,1.263,1.394.2a.214.214,0,0,1,.118.364l-1.009.983.238,1.388a.213.213,0,0,1-.21.25Z" transform="translate(-503.406 -293.992)"/></g><path class="b" d="M505.261,293.669l.673,1.364,1.505.219-1.089,1.062.257,1.5-1.346-.708-1.346.708.257-1.5-1.089-1.062,1.505-.219.673-1.364m0-.427h0a.427.427,0,0,0-.383.238l-.574,1.163-1.283.186a.427.427,0,0,0-.237.728l.929.905-.219,1.278a.427.427,0,0,0,.619.45l1.148-.6,1.148.6a.427.427,0,0,0,.619-.45l-.219-1.278.928-.905a.427.427,0,0,0-.237-.728l-1.283-.186-.574-1.163a.427.427,0,0,0-.383-.238Z" transform="translate(-502.655 -293.242)"/></g><g transform="translate(4.328 29.134)"><g transform="translate(0.213 0.213)"><path class="a" d="M403.3,317.754a.214.214,0,0,1-.21-.25l.373-2.176-1.581-1.541a.213.213,0,0,1,.118-.364l2.184-.318.977-1.979a.214.214,0,0,1,.192-.119h0a.214.214,0,0,1,.191.119l.976,1.979,2.185.318a.213.213,0,0,1,.118.364l-1.581,1.541.373,2.176a.213.213,0,0,1-.31.225l-1.954-1.027L403.4,317.73A.216.216,0,0,1,403.3,317.754Z" transform="translate(-401.819 -311.008)"/></g><path class="b" d="M404.818,310.685l1.027,2.08,2.3.334-1.661,1.619.392,2.287-2.053-1.08L402.765,317l.392-2.287L401.5,313.1l2.3-.334,1.027-2.08m0-.427a.427.427,0,0,0-.383.238l-.927,1.879-2.074.3a.427.427,0,0,0-.237.728l1.5,1.463-.354,2.065a.427.427,0,0,0,.62.45l1.855-.975,1.855.975a.427.427,0,0,0,.619-.45l-.354-2.065,1.5-1.463a.427.427,0,0,0-.237-.728l-2.073-.3L405.2,310.5a.427.427,0,0,0-.383-.238Z" transform="translate(-401.069 -310.258)"/></g><g transform="translate(0 24.291)"><g transform="translate(0.213 0.213)"><path class="a" d="M390.351,298.562a.211.211,0,0,1-.1-.024L389,297.882l-1.247.655a.21.21,0,0,1-.1.024.213.213,0,0,1-.21-.25l.238-1.388-1.009-.983a.214.214,0,0,1,.119-.364l1.394-.2.623-1.263a.214.214,0,0,1,.383,0l.624,1.263,1.394.2a.214.214,0,0,1,.118.364l-1.009.983.238,1.388a.214.214,0,0,1-.21.25Z" transform="translate(-386.613 -293.992)"/></g><path class="b" d="M388.468,293.669l.673,1.364,1.505.219-1.089,1.062.257,1.5-1.347-.708-1.346.708.257-1.5-1.089-1.062,1.505-.219.673-1.364m0-.427a.427.427,0,0,0-.383.238l-.574,1.163-1.283.186a.427.427,0,0,0-.237.728l.928.905-.219,1.278a.427.427,0,0,0,.619.45l1.148-.6,1.148.6a.427.427,0,0,0,.619-.45l-.219-1.278.928-.905a.427.427,0,0,0-.237-.728l-1.283-.186-.574-1.163a.427.427,0,0,0-.383-.238Z" transform="translate(-385.863 -293.242)"/></g><g transform="translate(2.615 0)"><circle class="c" cx="14.478" cy="14.478" r="14.478" transform="translate(0 28.582) rotate(-80.783)"/><path class="b" d="M416.485,244.017a14.691,14.691,0,1,1,14.691-14.691A14.708,14.708,0,0,1,416.485,244.017Zm0-28.956a14.264,14.264,0,1,0,14.264,14.264A14.281,14.281,0,0,0,416.485,215.061Z" transform="translate(-399.875 -212.715)"/></g><g transform="translate(4.217 1.602)"><circle class="a" cx="13.082" cy="13.082" r="13.082" transform="translate(0 25.825) rotate(-80.783)"/><path class="d" d="M420,246.13a13.3,13.3,0,1,1,13.3-13.3A13.31,13.31,0,0,1,420,246.13Zm0-26.163a12.868,12.868,0,1,0,12.868,12.868A12.883,12.883,0,0,0,420,219.967Z" transform="translate(-404.987 -217.827)"/></g><g transform="translate(4.485 1.869)"><circle class="a" cx="12.849" cy="12.849" r="12.849" transform="translate(0 25.366) rotate(-80.783)"/></g><g class="e" transform="translate(9.342 6.726)"><path class="f" d="M437.125,231.526a13.071,13.071,0,0,1-18.439,18.439,13.073,13.073,0,1,0,18.439-18.439Z" transform="translate(-418.686 -231.526)"/></g><g class="g" transform="translate(8.483 10.498)"><circle class="f" cx="2.058" cy="2.058" r="2.058" transform="translate(4.48)"/><path class="f" d="M427.135,248.36s-.059-.569-.51-.333a5.8,5.8,0,0,1-2.98,3.489c-2.333,1.059-3.274-.255-3.274-.255s-.9-.49-2.176.941-2.353,2.254-2.529,5.666c0,0,2.294-3.588,3.313-3.705a5.693,5.693,0,0,1,.529,6.94s5.519-1.088,4.93-7.7C424.44,253.4,426.626,252.5,427.135,248.36Z" transform="translate(-415.667 -247.061)"/><g transform="translate(10.841)"><circle class="f" cx="2.058" cy="2.058" r="2.058" transform="translate(2.872)"/><path class="f" d="M453.758,248.36s.059-.569.51-.333a5.8,5.8,0,0,0,2.98,3.489c2.333,1.059,3.274-.255,3.274-.255s.9-.49,2.176.941,2.353,2.254,2.529,5.666c0,0-2.294-3.588-3.313-3.705a5.693,5.693,0,0,0-.529,6.94s-5.518-1.088-4.93-7.7C456.454,253.4,454.268,252.5,453.758,248.36Z" transform="translate(-453.758 -247.061)"/></g></g><g transform="translate(7.659 9.589)"><circle class="c" cx="2.058" cy="2.058" r="2.058" transform="translate(4.479)"/><path class="c" d="M424.24,245.167v.009a10.756,10.756,0,0,1-.313,1.58c-.78,2.789-2.382,3.449-2.382,3.449a7.2,7.2,0,0,1-1.617,5.726,6.648,6.648,0,0,1-3.313,1.978,5.691,5.691,0,0,0-.529-6.939c-1.019.117-3.313,3.706-3.313,3.706.176-3.413,1.252-4.235,2.527-5.667a2.835,2.835,0,0,1,1.471-.99,1.1,1.1,0,0,1,.706.051s.939,1.312,3.273.253a5.7,5.7,0,0,0,2.863-3.148c.048-.125.08-.222.1-.282v0c.011-.037.017-.057.017-.057a.473.473,0,0,1,.1-.04.119.119,0,0,1,.043-.011.218.218,0,0,1,.043-.006.276.276,0,0,1,.1.017.266.266,0,0,1,.12.1v0A.664.664,0,0,1,424.24,245.167Z" transform="translate(-412.773 -243.869)"/><g transform="translate(10.84)"><circle class="c" cx="2.058" cy="2.058" r="2.058" transform="translate(2.872)"/><path class="c" d="M450.86,245.168s.059-.569.51-.333a5.8,5.8,0,0,0,2.98,3.49c2.333,1.058,3.274-.255,3.274-.255s.9-.49,2.176.941,2.353,2.255,2.529,5.666c0,0-2.294-3.588-3.313-3.705a5.693,5.693,0,0,0-.529,6.94s-5.518-1.088-4.93-7.7C453.556,250.206,451.37,249.3,450.86,245.168Z" transform="translate(-450.86 -243.869)"/></g></g><path class="h" d="M419.928,264.079a6.648,6.648,0,0,1-3.313,1.978,5.691,5.691,0,0,0-.529-6.939c-1.019.117-3.313,3.706-3.313,3.706.176-3.412,1.252-4.235,2.527-5.667a2.834,2.834,0,0,1,1.471-.99A17.342,17.342,0,0,0,419.928,264.079Z" transform="translate(-405.114 -242.428)"/></svg>