<svg xmlns="http://www.w3.org/2000/svg" width="38.353" height="41.455" viewBox="0 0 38.353 41.455"><defs><style>.a{fill:#ffdc00;}.b{fill:#373737;}.c{fill:#285078;}.d{fill:#fff;}.e{opacity:0.09;}.e,.g,.h,.i{mix-blend-mode:multiply;isolation:isolate;}.f{fill:#0e2d47;}.g{opacity:0.42;}.h{opacity:0.37;}.i{opacity:0.51;}</style></defs><g transform="translate(0 0)"><g transform="translate(14.117 31.789)"><g transform="translate(0.213 0.213)"><path class="a" d="M444.051,241.691a.211.211,0,0,1-.1-.024l-2.765-1.454-2.765,1.454a.213.213,0,0,1-.224-.016.213.213,0,0,1-.085-.208l.528-3.079-2.237-2.18a.213.213,0,0,1,.118-.363l3.091-.449,1.382-2.8a.213.213,0,0,1,.382,0l1.382,2.8,3.091.449a.213.213,0,0,1,.118.363l-2.236,2.18.528,3.079a.213.213,0,0,1-.21.249Z" transform="translate(-436.34 -232.451)"/></g><path class="b" d="M440.649,232.127l1.432,2.9,3.2.465-2.317,2.258.547,3.189-2.864-1.506-2.864,1.506.547-3.189-2.317-2.258,3.2-.465,1.432-2.9m0-.426a.426.426,0,0,0-.382.237l-1.333,2.7-2.98.433a.426.426,0,0,0-.236.726l2.157,2.1-.509,2.968a.426.426,0,0,0,.618.449l2.666-1.4,2.666,1.4a.426.426,0,0,0,.618-.449l-.509-2.968,2.157-2.1a.426.426,0,0,0-.236-.726l-2.98-.433-1.333-2.7a.426.426,0,0,0-.382-.237Z" transform="translate(-435.589 -231.701)"/></g><g transform="translate(26.557 29.06)"><g transform="translate(0.213 0.213)"><path class="a" d="M485.735,229.566a.214.214,0,0,1-.1-.024l-1.949-1.025-1.949,1.025a.213.213,0,0,1-.309-.225l.372-2.17-1.577-1.537a.213.213,0,0,1,.118-.363l2.179-.317.974-1.974a.213.213,0,0,1,.382,0l.974,1.974,2.179.317a.213.213,0,0,1,.118.363l-1.577,1.537.372,2.17a.213.213,0,0,1-.21.249Z" transform="translate(-480.16 -222.837)"/></g><path class="b" d="M483.149,222.513l1.024,2.075,2.29.333-1.657,1.615.391,2.281-2.048-1.077-2.048,1.077.391-2.281-1.657-1.615,2.29-.333,1.024-2.075m0-.426a.426.426,0,0,0-.382.237l-.925,1.874-2.068.3a.426.426,0,0,0-.236.726l1.5,1.459-.353,2.06a.426.426,0,0,0,.618.449l1.85-.973,1.85.973a.426.426,0,0,0,.618-.449l-.354-2.06,1.5-1.459a.426.426,0,0,0-.236-.726l-2.068-.3-.925-1.874a.426.426,0,0,0-.382-.237Z" transform="translate(-479.41 -222.087)"/></g><g transform="translate(33.156 24.229)"><g transform="translate(0.213 0.213)"><path class="a" d="M507.134,210.38a.211.211,0,0,1-.1-.024l-1.244-.654-1.244.654a.213.213,0,0,1-.224-.016.214.214,0,0,1-.085-.208l.238-1.385-1.006-.981a.213.213,0,0,1,.118-.363l1.39-.2.622-1.26a.213.213,0,0,1,.382,0l.622,1.26,1.39.2a.213.213,0,0,1,.118.363l-1.006.981.238,1.385a.213.213,0,0,1-.21.249Z" transform="translate(-503.406 -205.821)"/></g><path class="b" d="M505.254,205.5l.671,1.36,1.5.218-1.086,1.059.257,1.5-1.343-.706-1.343.706.256-1.5-1.086-1.059,1.5-.218.671-1.36m0-.426h0a.426.426,0,0,0-.382.237l-.572,1.16-1.28.186a.426.426,0,0,0-.236.726l.926.9-.219,1.275a.426.426,0,0,0,.618.449l1.145-.6,1.145.6a.426.426,0,0,0,.618-.449l-.219-1.275.926-.9a.426.426,0,0,0-.236-.726l-1.28-.186-.572-1.16a.426.426,0,0,0-.382-.237Z" transform="translate(-502.655 -205.071)"/></g><g transform="translate(4.317 29.06)"><g transform="translate(0.213 0.213)"><path class="a" d="M403.3,229.566a.213.213,0,0,1-.21-.249l.372-2.17-1.577-1.537a.213.213,0,0,1,.118-.363l2.179-.317.975-1.974a.214.214,0,0,1,.191-.119h0a.213.213,0,0,1,.191.119l.974,1.974,2.179.317a.213.213,0,0,1,.118.363l-1.577,1.537.372,2.17a.213.213,0,0,1-.309.225l-1.949-1.025-1.949,1.025A.216.216,0,0,1,403.3,229.566Z" transform="translate(-401.819 -222.837)"/></g><path class="b" d="M404.809,222.513l1.024,2.075,2.29.333-1.657,1.615.391,2.281-2.048-1.077-2.048,1.077.391-2.281-1.657-1.615,2.29-.333,1.024-2.075m0-.426a.426.426,0,0,0-.382.237L403.5,224.2l-2.068.3a.426.426,0,0,0-.236.726l1.5,1.459-.353,2.06a.426.426,0,0,0,.618.449l1.85-.973,1.85.973a.426.426,0,0,0,.618-.449l-.353-2.06,1.5-1.459a.426.426,0,0,0-.236-.726l-2.068-.3-.925-1.874a.426.426,0,0,0-.382-.237Z" transform="translate(-401.069 -222.087)"/></g><g transform="translate(0 24.229)"><g transform="translate(0.213 0.213)"><path class="a" d="M390.341,210.38a.211.211,0,0,1-.1-.024L389,209.7l-1.244.654a.21.21,0,0,1-.1.024.213.213,0,0,1-.21-.249l.237-1.385-1.006-.981a.213.213,0,0,1,.118-.363l1.39-.2.622-1.26a.213.213,0,0,1,.382,0l.622,1.26,1.39.2a.213.213,0,0,1,.118.363l-1.006.981.238,1.385a.213.213,0,0,1-.21.249Z" transform="translate(-386.613 -205.821)"/></g><path class="b" d="M388.461,205.5l.671,1.36,1.5.218-1.086,1.059.257,1.5-1.343-.706-1.343.706.256-1.5-1.086-1.059,1.5-.218.671-1.36m0-.426a.426.426,0,0,0-.382.237l-.572,1.16-1.28.186a.426.426,0,0,0-.236.726l.926.9-.219,1.275a.426.426,0,0,0,.618.449l1.145-.6,1.145.6a.426.426,0,0,0,.618-.449l-.219-1.275.926-.9a.426.426,0,0,0-.236-.726l-1.28-.186-.573-1.16a.426.426,0,0,0-.382-.237Z" transform="translate(-385.863 -205.071)"/></g><g transform="translate(2.609)"><circle class="c" cx="14.441" cy="14.441" r="14.441" transform="translate(0 28.509) rotate(-80.783)"/><path class="b" d="M416.448,155.771A14.654,14.654,0,1,1,431.1,141.117,14.67,14.67,0,0,1,416.448,155.771Zm0-28.882a14.228,14.228,0,1,0,14.228,14.228A14.244,14.244,0,0,0,416.448,126.889Z" transform="translate(-399.88 -124.549)"/></g><g transform="translate(4.207 1.598)"><circle class="a" cx="13.048" cy="13.048" r="13.048" transform="translate(0 25.759) rotate(-80.783)"/><path class="d" d="M419.961,157.891a13.261,13.261,0,1,1,13.261-13.261A13.276,13.276,0,0,1,419.961,157.891Zm0-26.1A12.835,12.835,0,1,0,432.8,144.63,12.85,12.85,0,0,0,419.961,131.795Z" transform="translate(-404.991 -129.66)"/></g><g transform="translate(4.473 1.864)"><circle class="a" cx="12.816" cy="12.816" r="12.816" transform="translate(0 25.301) rotate(-80.783)"/></g><g class="e" transform="translate(9.318 6.709)"><path class="f" d="M437.078,143.355a13.038,13.038,0,0,1-18.392,18.392,13.04,13.04,0,1,0,18.392-18.392Z" transform="translate(-418.686 -143.355)"/></g><g class="g" transform="translate(11.086 9.339)"><path class="f" d="M442.386,158.037l-.917-.925-1.374-1.385v-.395l-.931-.94V152.62h-.809v5.823l-4.619,3.435a1.228,1.228,0,0,1-1.462,0l-4.661-3.469V158.2a2.091,2.091,0,0,1-.85.2,1.978,1.978,0,0,1-1.4-.579c-.018-.022-.034-.044-.051-.066l-.288.29a.381.381,0,0,0-.114.3h.009v8.57a2.1,2.1,0,0,0,2.089,2.106H440.4a2.1,2.1,0,0,0,2.087-2.106v-8.573h.008A.37.37,0,0,0,442.386,158.037Zm-3.222-.2v-2.3l1.312,1.323Z" transform="translate(-424.912 -152.62)"/><g transform="translate(2.363 0.011)"><path class="f" d="M433.574,154.325V152.66a.41.41,0,0,0-.338.4v.828C433.349,154.032,433.463,154.177,433.574,154.325Z" transform="translate(-433.236 -152.66)"/></g></g><g transform="translate(10.699 6.591)"><path class="c" d="M440.4,149.688l-1.278-1.289-.931-.94v-2.6a.408.408,0,0,0-.423-.395H434.6l-1.272-1.062a2.029,2.029,0,0,0-2.586.006l-1.275,1.056h-3.211a.409.409,0,0,0-.423.395V147.5l-2.166,2.186a.364.364,0,0,0-.111.287h.009v8.264a2.032,2.032,0,0,0,2.016,2.03h12.906a2.02,2.02,0,0,0,2.013-2.03v-8.267h.008A.354.354,0,0,0,440.4,149.688Zm-9.141-5.661a1.218,1.218,0,0,1,1.553,0l.1.085h0l.412.349h-2.592Zm-5.428,6.85-.891-.661-.38-.284,1.272-1.283Zm11.551.633-4.619,3.435a1.228,1.228,0,0,1-1.462,0l-4.661-3.469v-6.2h10.742Zm.809-.6v-2.3l1.312,1.323Z" transform="translate(-423.552 -142.94)"/></g><g class="h" transform="translate(15.883 10.619)"><path class="f" d="M449.323,160.361a5.543,5.543,0,0,1-.914,1.4,13.867,13.867,0,0,1-1.479,1.489q-.558.492-1.15.941a.113.113,0,0,1-.164,0,19.521,19.521,0,0,1-1.764-1.5,9.471,9.471,0,0,1-1.545-1.849,3.076,3.076,0,0,1-.464-2.1,1.786,1.786,0,0,1,1.066-1.434,2.008,2.008,0,0,1,1.127-.161,1.893,1.893,0,0,1,1.277.713,2.254,2.254,0,0,1,.378.713,3.111,3.111,0,0,1,.228-.432,1.982,1.982,0,0,1,2.11-.975,1.724,1.724,0,0,1,1.475,1.347A2.9,2.9,0,0,1,449.323,160.361Z" transform="translate(-441.81 -157.129)"/></g><g transform="translate(15.291 10.051)"><path class="c" d="M447.24,158.361a5.553,5.553,0,0,1-.914,1.4,13.883,13.883,0,0,1-1.479,1.489q-.557.492-1.15.941a.113.113,0,0,1-.164,0,19.561,19.561,0,0,1-1.764-1.5,9.482,9.482,0,0,1-1.545-1.849,3.08,3.08,0,0,1-.464-2.1,1.787,1.787,0,0,1,1.066-1.434,2.008,2.008,0,0,1,1.127-.161,1.893,1.893,0,0,1,1.277.713,2.259,2.259,0,0,1,.378.713,3.082,3.082,0,0,1,.228-.432,1.982,1.982,0,0,1,2.11-.975,1.725,1.725,0,0,1,1.475,1.347A2.9,2.9,0,0,1,447.24,158.361Z" transform="translate(-439.727 -155.129)"/></g></g><g class="i" transform="translate(10.699 13.342)"><path class="c" d="M429.861,177.3h-4.284a2.032,2.032,0,0,1-2.016-2.03v-8.264h-.009a.364.364,0,0,1,.111-.287S424.113,176.943,429.861,177.3Z" transform="translate(-423.552 -166.72)"/></g></svg>