<svg xmlns="http://www.w3.org/2000/svg" width="141.18" height="153.54" viewBox="0 0 141.18 153.54"><defs><style>.a,.c,.d{fill:#ffdc00;}.a,.b,.c{stroke-linecap:round;stroke-linejoin:round;}.b,.h,.j{fill:#285078;}.b{stroke:#373737;}.b,.c{stroke-width:1.5px;}.c{stroke:#fff;}.e,.g,.i{fill:#0e2d47;}.e{opacity:0.09;}.e,.f,.i,.j{mix-blend-mode:multiply;isolation:isolate;}.f{opacity:0.42;}.i{opacity:0.37;}.j{opacity:0.51;}.k,.l{stroke:none;}.l{fill:#373737;}</style></defs><g transform="translate(1.5 0.86)"><g transform="translate(0)"><g class="a" transform="translate(-385.074 -114.499)"><path class="k" d="M 465.7126770019531 267.0498352050781 L 464.3675842285156 266.3426818847656 L 454.1639709472656 260.9783935546875 L 443.9603576660156 266.3426818847656 L 442.6152648925781 267.0498352050781 L 442.8721618652344 265.5520629882813 L 444.8208618164063 254.1901550292969 L 436.5659484863281 246.1436462402344 L 435.4777221679688 245.0829010009766 L 436.9815979003906 244.8643798828125 L 448.3895874023438 243.2067260742188 L 453.4914245605469 232.8692779541016 L 454.1639709472656 231.5065155029297 L 454.8365173339844 232.8692779541016 L 459.9383544921875 243.2067260742188 L 471.3463439941406 244.8643798828125 L 472.8502197265625 245.0829010009766 L 471.7619934082031 246.1436462402344 L 463.507080078125 254.1901550292969 L 465.4557800292969 265.5520629882813 L 465.7126770019531 267.0498352050781 Z"/><path class="l" d="M 454.1639709472656 233.201171875 L 448.8876342773438 243.8922424316406 L 437.0894470214844 245.6065826416016 L 445.626708984375 253.9282989501953 L 443.6113586425781 265.6788330078125 L 454.1639709472656 260.1310729980469 L 464.7165832519531 265.6788330078125 L 462.7012329101563 253.9282989501953 L 471.2384948730469 245.6065826416016 L 459.4403076171875 243.8922424316406 L 454.1639709472656 233.201171875 M 454.1639709472656 231.701171875 C 454.7349243164063 231.701171875 455.2563781738281 232.0253295898438 455.5090942382813 232.5373229980469 L 460.4364318847656 242.521240234375 L 471.4541931152344 244.1221771240234 C 472.0192260742188 244.2042694091797 472.4886474609375 244.6000366210938 472.6650695800781 245.1430511474609 C 472.8415222167969 245.6860656738281 472.6943664550781 246.2821655273438 472.2854919433594 246.6807098388672 L 464.3129577636719 254.4519805908203 L 466.1949768066406 265.42529296875 C 466.29150390625 265.9880065917969 466.0601806640625 266.5567626953125 465.5982666015625 266.892333984375 C 465.3369445800781 267.0822143554688 465.0274353027344 267.1788330078125 464.7164306640625 267.1788330078125 C 464.4776916503906 267.1788330078125 464.238037109375 267.1219177246094 464.0185852050781 267.0065307617188 L 454.1639709472656 261.8257446289063 L 444.3093566894531 267.0065307617188 C 444.0899353027344 267.1218872070313 443.8502197265625 267.1788330078125 443.6115112304688 267.1788330078125 C 443.3004760742188 267.1788330078125 442.9910278320313 267.0822448730469 442.7296752929688 266.892333984375 C 442.2677612304688 266.5567626953125 442.0364379882813 265.9880065917969 442.1329650878906 265.42529296875 L 444.0149841308594 254.4519805908203 L 436.0424499511719 246.6807098388672 C 435.6335754394531 246.2821655273438 435.4864196777344 245.6860656738281 435.6628723144531 245.1430511474609 C 435.8392944335938 244.6000366210938 436.3087158203125 244.2042694091797 436.8737487792969 244.1221771240234 L 447.8915100097656 242.521240234375 L 452.81884765625 232.5373229980469 C 453.0715637207031 232.0253295898438 453.593017578125 231.701171875 454.1639709472656 231.701171875 Z"/></g><g class="a" transform="translate(-383.057 -114.942)"><path class="k" d="M 484.5778198242188 248.1835174560547 L 484.834716796875 246.6856842041016 L 486.2093811035156 238.6712341308594 L 480.3865051269531 232.9953155517578 L 479.2982788085938 231.9345550537109 L 480.8021545410156 231.7160339355469 L 488.8490905761719 230.5467681884766 L 492.44775390625 223.2548675537109 L 493.1202697753906 221.8921203613281 L 493.7928466796875 223.2548675537109 L 497.3917236328125 230.5467681884766 L 505.4385986328125 231.7160339355469 L 506.9424743652344 231.9345550537109 L 505.854248046875 232.9953002929688 L 500.0313720703125 238.6712341308594 L 501.4060668945313 246.6856842041016 L 501.6629943847656 248.1834869384766 L 500.31787109375 247.476318359375 L 493.1203002929688 243.6923675537109 L 485.9229431152344 247.476318359375 L 484.5778198242188 248.1835174560547 Z"/><path class="l" d="M 493.1203002929688 223.5867919921875 L 489.3471374511719 231.2322845458984 L 480.9100036621094 232.4582366943359 L 487.0152587890625 238.4093933105469 L 485.5739440917969 246.8124694824219 L 493.1203002929688 242.8450317382813 L 500.6668701171875 246.8124694824219 L 499.2255249023438 238.4093933105469 L 505.3307495117188 232.4582366943359 L 496.8936767578125 231.2322845458984 L 493.1203002929688 223.5867919921875 M 493.1202697753906 222.0867919921875 C 493.6912536621094 222.0867767333984 494.2127075195313 222.4109344482422 494.4653930664063 222.9229278564453 L 497.8897705078125 229.8612670898438 L 505.5464477539063 230.9738311767578 C 506.1114807128906 231.0559234619141 506.5809020996094 231.4516906738281 506.75732421875 231.9947052001953 C 506.9337768554688 232.5377349853516 506.78662109375 233.1338348388672 506.3777770996094 233.5323638916016 L 500.8372497558594 238.9330596923828 L 502.1452941894531 246.5588836669922 C 502.2418212890625 247.1216278076172 502.0104675292969 247.6903839111328 501.5485534667969 248.0259857177734 C 501.2872314453125 248.2158508300781 500.9777526855469 248.3124694824219 500.6667175292969 248.3124694824219 C 500.427978515625 248.3124694824219 500.1883239746094 248.2555541992188 499.9688720703125 248.1401672363281 L 493.1203002929688 244.5397033691406 L 486.27197265625 248.1401672363281 C 486.052490234375 248.2555389404297 485.8128356933594 248.3124694824219 485.5740966796875 248.3124694824219 C 485.2630615234375 248.3124694824219 484.9535827636719 248.2158660888672 484.6922607421875 248.0260009765625 C 484.2303466796875 247.6903839111328 483.9990234375 247.1216430664063 484.0955200195313 246.5588836669922 L 485.4035339355469 238.9330749511719 L 479.8629760742188 233.5323638916016 C 479.4541320800781 233.1338348388672 479.3069763183594 232.5377349853516 479.4834289550781 231.9947052001953 C 479.6598510742188 231.4516906738281 480.1292724609375 231.0559234619141 480.6943054199219 230.9738311767578 L 488.3510437011719 229.8612670898438 L 491.7751770019531 222.9229583740234 C 492.0278625488281 222.4109497070313 492.54931640625 222.0868072509766 493.1202697753906 222.0867919921875 Z"/></g><g class="a" transform="translate(-381.988 -115.725)"><path class="k" d="M 506.2173767089844 223.1704864501953 L 506.4743041992188 221.6726684570313 L 507.3526306152344 216.5516357421875 L 503.6320190429688 212.9248809814453 L 502.5438232421875 211.8641357421875 L 504.0476684570313 211.6456146240234 L 509.1893920898438 210.8984680175781 L 511.4888916015625 206.2391510009766 L 512.1614379882813 204.8764038085938 L 512.833984375 206.2391510009766 L 515.1334838867188 210.8984680175781 L 520.2752685546875 211.6456146240234 L 521.7791137695313 211.8641357421875 L 520.69091796875 212.9248809814453 L 516.9702758789063 216.5516357421875 L 517.8486328125 221.6726684570313 L 518.1055297851563 223.1704711914063 L 516.7604370117188 222.4633026123047 L 512.1614379882813 220.0454559326172 L 507.5625 222.4633026123047 L 506.2173767089844 223.1704864501953 Z"/><path class="l" d="M 512.1614379882813 206.5710754394531 L 509.6874389648438 211.583984375 L 504.155517578125 212.3878173828125 L 508.1585083007813 216.2898101806641 L 507.2135009765625 221.7994537353516 L 512.1614379882813 219.1981201171875 L 517.1094360351563 221.7994537353516 L 516.1644287109375 216.2898101806641 L 520.1674194335938 212.3878173828125 L 514.6354370117188 211.583984375 L 512.1614379882813 206.5710754394531 M 512.1614379882813 205.0710754394531 C 512.732421875 205.0710754394531 513.2538452148438 205.3952178955078 513.506591796875 205.9072265625 L 515.6315307617188 210.2129669189453 L 520.3831176757813 210.9034118652344 C 520.9481201171875 210.9855194091797 521.4176025390625 211.3812713623047 521.593994140625 211.9242858886719 C 521.7704467773438 212.4673156738281 521.623291015625 213.0634002685547 521.2144775390625 213.4619445800781 L 517.776123046875 216.8134765625 L 518.587890625 221.5458679199219 C 518.684326171875 222.1086273193359 518.4530029296875 222.6773681640625 517.9910888671875 223.0129699707031 C 517.7297973632813 223.2028350830078 517.4202880859375 223.2994537353516 517.1092529296875 223.2994537353516 C 516.8705444335938 223.2994537353516 516.630859375 223.2425384521484 516.4114379882813 223.1271514892578 L 512.1614379882813 220.8927917480469 L 507.9114990234375 223.1271362304688 C 507.6920776367188 223.2425231933594 507.452392578125 223.2994537353516 507.213623046875 223.2994537353516 C 506.9026489257813 223.2994537353516 506.5931396484375 223.2028503417969 506.3318481445313 223.0129852294922 C 505.869873046875 222.6773681640625 505.6385498046875 222.1086273193359 505.735107421875 221.5458679199219 L 506.5468139648438 216.8134765625 L 503.1085205078125 213.4619445800781 C 502.6996459960938 213.0634002685547 502.552490234375 212.4673156738281 502.7289428710938 211.9242858886719 C 502.9053955078125 211.3812713623047 503.3748168945313 210.9855194091797 503.9398193359375 210.9034118652344 L 508.6913452148438 210.2129669189453 L 510.8163452148438 205.9072265625 C 511.0690307617188 205.3952178955078 511.5904541015625 205.0710754394531 512.1614379882813 205.0710754394531 Z"/></g><g class="a" transform="translate(-386.663 -114.942)"><path class="k" d="M 423.3221130371094 248.1834869384766 L 421.9770202636719 247.476318359375 L 414.7796630859375 243.6923675537109 L 407.5821228027344 247.476318359375 L 406.2369995117188 248.1834869384766 L 406.493896484375 246.6856842041016 L 407.8685607910156 238.6712188720703 L 402.0456848144531 232.9953002929688 L 400.9574584960938 231.9345550537109 L 402.4613342285156 231.7160339355469 L 410.5084228515625 230.5467681884766 L 414.1071166992188 223.2548675537109 L 414.7796630859375 221.89208984375 L 415.4522094726563 223.2548675537109 L 419.0508728027344 230.5467681884766 L 427.0978088378906 231.7160339355469 L 428.6016540527344 231.9345550537109 L 427.5134887695313 232.9953002929688 L 421.6907348632813 238.6712341308594 L 423.0652465820313 246.6856842041016 L 423.3221130371094 248.1834869384766 Z"/><path class="l" d="M 414.7796630859375 223.5867919921875 L 411.0064697265625 231.2322845458984 L 402.5691833496094 232.4582366943359 L 408.6744079589844 238.4093933105469 L 407.2331237792969 246.8124694824219 L 414.7796630859375 242.8450317382813 L 422.3260192871094 246.8124694824219 L 420.8848571777344 238.4093933105469 L 426.9899597167969 232.4582366943359 L 418.5528259277344 231.2322845458984 L 414.7796630859375 223.5867919921875 M 414.7796630859375 222.0867919921875 C 415.3506164550781 222.0867919921875 415.8721008300781 222.4109497070313 416.1247863769531 222.9229583740234 L 419.5489196777344 229.8612670898438 L 427.2056579589844 230.9738311767578 C 427.7706909179688 231.0559234619141 428.2401123046875 231.4516906738281 428.4165344238281 231.9947052001953 C 428.5929870605469 232.5377197265625 428.4458312988281 233.1338043212891 428.0369873046875 233.5323638916016 L 422.49658203125 238.9330749511719 L 423.804443359375 246.5589141845703 C 423.9009399414063 247.1216583251953 423.6696166992188 247.6903991699219 423.2077026367188 248.0260009765625 C 422.9463806152344 248.2158355712891 422.6368408203125 248.3124694824219 422.3258666992188 248.3124694824219 C 422.0870971679688 248.3124694824219 421.8475036621094 248.2555541992188 421.6279907226563 248.1401672363281 L 414.7796630859375 244.5397033691406 L 407.9311218261719 248.1401672363281 C 407.7117004394531 248.2555389404297 407.4719848632813 248.3124694824219 407.2332763671875 248.3124694824219 C 406.9222106933594 248.3124694824219 406.61279296875 248.2158813476563 406.3514404296875 248.0259857177734 C 405.8895263671875 247.6903839111328 405.658203125 247.1216430664063 405.7546997070313 246.5588836669922 L 407.0626831054688 238.9330749511719 L 401.5221557617188 233.5323638916016 C 401.1133117675781 233.1338348388672 400.9661560058594 232.5377349853516 401.1426086425781 231.9947052001953 C 401.3190307617188 231.4516906738281 401.7884521484375 231.0559234619141 402.3534851074219 230.9738311767578 L 410.0103759765625 229.8612670898438 L 413.4345397949219 222.9229431152344 C 413.687255859375 222.4109344482422 414.2086791992188 222.0867919921875 414.7796630859375 222.0867919921875 Z"/></g><g class="a" transform="translate(-387.363 -115.725)"><path class="k" d="M 401.3126220703125 223.1704711914063 L 399.967529296875 222.4633026123047 L 395.3685913085938 220.0454559326172 L 390.76953125 222.4633026123047 L 389.4244079589844 223.1704711914063 L 389.6813354492188 221.6726684570313 L 390.5597229003906 216.5516510009766 L 386.8390808105469 212.9248809814453 L 385.7508850097656 211.8641357421875 L 387.2547302246094 211.6456146240234 L 392.396484375 210.8984680175781 L 394.696044921875 206.2391357421875 L 395.3686218261719 204.8764038085938 L 396.0411376953125 206.2391510009766 L 398.340576171875 210.8984680175781 L 403.4823608398438 211.6456146240234 L 404.9862060546875 211.8641357421875 L 403.8980407714844 212.9248809814453 L 400.1774597167969 216.5516510009766 L 401.0557250976563 221.6726684570313 L 401.3126220703125 223.1704711914063 Z"/><path class="l" d="M 395.3685913085938 206.5710754394531 L 392.89453125 211.583984375 L 387.3625793457031 212.3878173828125 L 391.3655700683594 216.2898101806641 L 390.4205322265625 221.7994537353516 L 395.3685913085938 219.1981201171875 L 400.3165283203125 221.7994537353516 L 399.3716125488281 216.2898101806641 L 403.37451171875 212.3878173828125 L 397.842529296875 211.583984375 L 395.3685913085938 206.5710754394531 M 395.3685607910156 205.0710754394531 C 395.3686218261719 205.0710754394531 395.3685607910156 205.0710754394531 395.3685913085938 205.0710754394531 C 395.9395751953125 205.0710754394531 396.4610290527344 205.3952331542969 396.7137145996094 205.9072418212891 L 398.838623046875 210.2129669189453 L 403.5902099609375 210.9034118652344 C 404.1552429199219 210.9855194091797 404.6246643066406 211.3812713623047 404.8010864257813 211.9242858886719 C 404.9775390625 212.4673004150391 404.8303833007813 213.0633850097656 404.4215393066406 213.4619293212891 L 400.9833374023438 216.8134765625 L 401.7949523925781 221.5458984375 C 401.8914489746094 222.108642578125 401.6601257324219 222.6773834228516 401.1982116699219 223.0129852294922 C 400.9368896484375 223.2028198242188 400.6273498535156 223.2994537353516 400.3163757324219 223.2994537353516 C 400.0776062011719 223.2994537353516 399.8380126953125 223.2425384521484 399.6184997558594 223.1271362304688 L 395.3685913085938 220.8927917480469 L 391.1185302734375 223.1271514892578 C 390.8991088867188 223.2425231933594 390.6593933105469 223.2994537353516 390.4206848144531 223.2994537353516 C 390.109619140625 223.2994537353516 389.8002014160156 223.2028656005859 389.5388488769531 223.0129699707031 C 389.0769348144531 222.6773681640625 388.8456115722656 222.1086120605469 388.9421081542969 221.5458679199219 L 389.7538452148438 216.8134765625 L 386.3155517578125 213.4619445800781 C 385.9067077636719 213.0634002685547 385.7595520019531 212.4673156738281 385.9360046386719 211.9242858886719 C 386.1124267578125 211.3812713623047 386.5818481445313 210.9855194091797 387.1468811035156 210.9034118652344 L 391.8984375 210.2129669189453 L 394.0234985351563 205.9072113037109 C 394.2761535644531 205.3952484130859 394.7976684570313 205.0710754394531 395.3685607910156 205.0710754394531 Z"/></g><circle class="b" cx="53.21" cy="53.21" r="53.21" transform="translate(8.044 105.046) rotate(-80.783)"/><circle class="c" cx="48.078" cy="48.078" r="48.078" transform="translate(13.931 100.802) rotate(-80.783)"/><circle class="d" cx="47.222" cy="47.222" r="47.222" transform="translate(14.913 100.094) rotate(-80.783)"/><path class="e" d="M486.453,143.355a48.039,48.039,0,0,1-67.768,67.767,48.046,48.046,0,1,0,67.768-67.767Z" transform="translate(-385.921 -118.634)"/><g class="f" transform="translate(39.278 34.412)"><path class="g" d="M489.3,172.578l-3.379-3.41-5.063-5.1v-1.454l-3.431-3.462V152.62h-2.981v21.454l-17.019,12.657a4.524,4.524,0,0,1-5.387,0l-17.176-12.782v-.776a7.7,7.7,0,0,1-3.131.723,7.29,7.29,0,0,1-5.147-2.132c-.065-.079-.126-.163-.189-.244l-1.062,1.069a1.4,1.4,0,0,0-.418,1.1h.031v31.579a7.732,7.732,0,0,0,7.7,7.761h49.33a7.723,7.723,0,0,0,7.688-7.761v-31.59h.031A1.364,1.364,0,0,0,489.3,172.578Zm-11.872-.722v-8.473l4.833,4.874Z" transform="translate(-424.912 -152.62)"/><path class="g" d="M434.481,158.795V152.66a1.511,1.511,0,0,0-1.245,1.464v3.052C433.651,157.715,434.072,158.251,434.481,158.795Z" transform="translate(-424.529 -152.618)"/></g><g transform="translate(37.855 24.287)"><path class="h" d="M485.627,167.8l-4.707-4.749-3.431-3.462v-9.582a1.5,1.5,0,0,0-1.559-1.454H464.246l-4.686-3.912a7.475,7.475,0,0,0-9.529.021l-4.7,3.891H433.5a1.508,1.508,0,0,0-1.559,1.454v9.749l-7.981,8.054a1.342,1.342,0,0,0-.408,1.056h.031v30.45a7.487,7.487,0,0,0,7.427,7.479h47.552a7.444,7.444,0,0,0,7.416-7.479V168.86h.031A1.3,1.3,0,0,0,485.627,167.8Zm-33.682-20.858a4.487,4.487,0,0,1,5.722.01l.366.314h.01l1.517,1.287h-9.55Zm-20,25.24-3.285-2.437-1.4-1.046,4.686-4.728Zm42.563,2.333-17.019,12.657a4.524,4.524,0,0,1-5.387,0l-17.176-12.782V151.538h39.581Zm2.981-2.218v-8.473l4.833,4.874Z" transform="translate(-423.552 -142.94)"/></g><path class="i" d="M469.493,169.04a20.429,20.429,0,0,1-3.368,5.164,51.121,51.121,0,0,1-5.45,5.487q-2.055,1.812-4.237,3.469a.416.416,0,0,1-.606.007,71.938,71.938,0,0,1-6.5-5.539,34.9,34.9,0,0,1-5.692-6.813,11.337,11.337,0,0,1-1.71-7.736,6.583,6.583,0,0,1,3.928-5.286,7.4,7.4,0,0,1,4.152-.594,6.973,6.973,0,0,1,4.706,2.629,8.3,8.3,0,0,1,1.391,2.626,11.487,11.487,0,0,1,.839-1.591,7.3,7.3,0,0,1,7.774-3.593,6.353,6.353,0,0,1,5.435,4.963A10.69,10.69,0,0,1,469.493,169.04Z" transform="translate(-384.857 -118)"/><path class="h" d="M467.41,167.04a20.457,20.457,0,0,1-3.368,5.164,51.131,51.131,0,0,1-5.451,5.487q-2.054,1.812-4.236,3.469a.416.416,0,0,1-.606.007,72.1,72.1,0,0,1-6.5-5.539,34.936,34.936,0,0,1-5.692-6.813,11.348,11.348,0,0,1-1.71-7.736,6.585,6.585,0,0,1,3.928-5.286,7.4,7.4,0,0,1,4.152-.594,6.975,6.975,0,0,1,4.707,2.629,8.326,8.326,0,0,1,1.391,2.626,11.376,11.376,0,0,1,.839-1.591,7.3,7.3,0,0,1,7.774-3.593,6.354,6.354,0,0,1,5.435,4.963A10.69,10.69,0,0,1,467.41,167.04Z" transform="translate(-384.953 -118.092)"/></g><path class="j" d="M446.8,205.705H431.014a7.487,7.487,0,0,1-7.427-7.479v-30.45h-.031a1.342,1.342,0,0,1,.408-1.056S425.617,204.387,446.8,205.705Z" transform="translate(-385.697 -117.559)"/></g></svg>