<svg xmlns="http://www.w3.org/2000/svg" width="33.22" height="40.766" viewBox="0 0 33.22 40.766"><defs><style>.a{fill:#ffdc00;}.b{fill:#373737;}.c{fill:#ffaf37;}.d{fill:#285078;}.e{fill:#fff;}.f{fill:#ff9d3b;}.g{opacity:0.09;mix-blend-mode:multiply;isolation:isolate;}.h{fill:#0e2d47;}.i{opacity:0.42;}.j{fill:#3d1a03;}.k{fill:#281206;}</style></defs><g transform="translate(1.765 22.989)"><path class="a" d="M227.5,291.716l-5.508-2.3-5.324,12.75,7.133-1.593,3.882,6.193,5.324-12.75Z" transform="translate(-216.459 -289.203)"/><path class="b" d="M227.151,306.444a.213.213,0,0,1-.181-.1l-3.8-6.065-6.986,1.56a.214.214,0,0,1-.244-.291l5.325-12.75a.213.213,0,0,1,.279-.115l5.508,2.3h0l5.508,2.3a.213.213,0,0,1,.114.279l-5.324,12.75a.213.213,0,0,1-.179.131Zm-3.882-6.619a.214.214,0,0,1,.181.1l3.663,5.843,5.083-12.173-10.621-4.435-5.083,12.173,6.731-1.5A.219.219,0,0,1,223.269,299.824Z" transform="translate(-215.922 -288.667)"/><g transform="translate(2.715 2.236)"><path class="c" d="M238.455,301.124l-2.13,5.1a23.571,23.571,0,0,1-10.865-4.965l1.977-4.736Z" transform="translate(-225.46 -296.523)"/></g><path class="b" d="M227.151,306.444a.213.213,0,0,1-.181-.1l-3.8-6.065-6.986,1.56a.214.214,0,0,1-.244-.291l5.325-12.75a.213.213,0,0,1,.279-.115l5.508,2.3h0l5.508,2.3a.213.213,0,0,1,.114.279l-5.324,12.75a.213.213,0,0,1-.179.131Zm-3.882-6.619a.214.214,0,0,1,.181.1l3.663,5.843,5.083-12.173-10.621-4.435-5.083,12.173,6.731-1.5A.219.219,0,0,1,223.269,299.824Z" transform="translate(-215.922 -288.667)"/><g transform="translate(12.924 0)"><path class="a" d="M267.59,291.716l5.508-2.3,5.324,12.75-7.133-1.593-3.882,6.193-5.324-12.75Z" transform="translate(-261.869 -289.203)"/><path class="b" d="M266.87,306.444h-.017a.214.214,0,0,1-.18-.131l-5.324-12.75a.213.213,0,0,1,.114-.279l5.508-2.3h0l5.508-2.3a.214.214,0,0,1,.279.115l5.324,12.75a.214.214,0,0,1-.244.291l-6.986-1.56-3.8,6.065A.213.213,0,0,1,266.87,306.444Zm-5.045-12.849,5.083,12.173,3.663-5.843a.212.212,0,0,1,.227-.095l6.73,1.5-5.083-12.173Z" transform="translate(-261.333 -288.667)"/><g transform="translate(1.057 2.236)"><path class="c" d="M265.046,301.124l2.13,5.1a23.571,23.571,0,0,0,10.865-4.965l-1.977-4.736Z" transform="translate(-265.046 -296.523)"/></g><path class="b" d="M266.87,306.444h-.017a.214.214,0,0,1-.18-.131l-5.324-12.75a.213.213,0,0,1,.114-.279l5.508-2.3h0l5.508-2.3a.214.214,0,0,1,.279.115l5.324,12.75a.214.214,0,0,1-.244.291l-6.986-1.56-3.8,6.065A.213.213,0,0,1,266.87,306.444Zm-5.045-12.849,5.083,12.173,3.663-5.843a.212.212,0,0,1,.227-.095l6.73,1.5-5.083-12.173Z" transform="translate(-261.333 -288.667)"/></g></g><g transform="translate(0 0)"><circle class="d" cx="14.478" cy="14.478" r="14.478" transform="translate(0 28.582) rotate(-80.783)"/><path class="b" d="M231.155,244.017a14.691,14.691,0,1,1,14.691-14.691A14.708,14.708,0,0,1,231.155,244.017Zm0-28.956a14.264,14.264,0,1,0,14.264,14.264A14.281,14.281,0,0,0,231.155,215.061Z" transform="translate(-214.544 -212.715)"/></g><g transform="translate(1.602 1.602)"><circle class="a" cx="13.082" cy="13.082" r="13.082" transform="translate(0 25.825) rotate(-80.783)"/><path class="e" d="M234.665,246.13a13.3,13.3,0,1,1,13.295-13.3A13.31,13.31,0,0,1,234.665,246.13Zm0-26.163a12.868,12.868,0,1,0,12.868,12.868A12.883,12.883,0,0,0,234.665,219.967Z" transform="translate(-219.657 -217.827)"/></g><g transform="translate(1.884 1.884)"><circle class="f" cx="12.836" cy="12.836" r="12.836" transform="translate(0 25.34) rotate(-80.783)"/></g><g class="g" transform="translate(6.726 6.726)"><path class="h" d="M251.795,231.526a13.071,13.071,0,0,1-18.439,18.439,13.073,13.073,0,1,0,18.439-18.439Z" transform="translate(-233.356 -231.526)"/></g><g transform="translate(5.044 9.589)"><g class="i" transform="translate(0.824 0.908)"><circle class="h" cx="2.058" cy="2.058" r="2.058" transform="translate(4.48)"/><path class="h" d="M241.805,248.36s-.059-.569-.51-.333a5.8,5.8,0,0,1-2.98,3.489c-2.333,1.059-3.274-.255-3.274-.255s-.9-.49-2.176.941-2.353,2.254-2.529,5.666c0,0,2.294-3.588,3.313-3.705a5.693,5.693,0,0,1,.529,6.94s5.518-1.088,4.93-7.7C239.11,253.4,241.3,252.5,241.805,248.36Z" transform="translate(-230.337 -247.061)"/><g transform="translate(10.841)"><circle class="h" cx="2.058" cy="2.058" r="2.058" transform="translate(2.872)"/><path class="h" d="M268.428,248.36s.059-.569.51-.333a5.8,5.8,0,0,0,2.98,3.489c2.333,1.059,3.274-.255,3.274-.255s.9-.49,2.176.941,2.353,2.254,2.529,5.666c0,0-2.294-3.588-3.313-3.705a5.693,5.693,0,0,0-.529,6.94s-5.519-1.088-4.93-7.7C271.124,253.4,268.938,252.5,268.428,248.36Z" transform="translate(-268.428 -247.061)"/></g></g><circle class="j" cx="2.058" cy="2.058" r="2.058" transform="translate(4.478)"/><path class="j" d="M238.91,245.167v.009a10.768,10.768,0,0,1-.313,1.58c-.78,2.789-2.382,3.449-2.382,3.449a7.2,7.2,0,0,1-1.617,5.726,6.648,6.648,0,0,1-3.313,1.978,5.691,5.691,0,0,0-.529-6.939c-1.019.117-3.313,3.706-3.313,3.706.176-3.413,1.252-4.235,2.527-5.667a2.835,2.835,0,0,1,1.471-.99,1.1,1.1,0,0,1,.706.051s.939,1.312,3.273.253a5.7,5.7,0,0,0,2.863-3.148c.048-.125.08-.222.1-.282v0l.017-.057a.472.472,0,0,1,.1-.04.119.119,0,0,1,.043-.011.218.218,0,0,1,.043-.006.276.276,0,0,1,.1.017.267.267,0,0,1,.12.1v0A.664.664,0,0,1,238.91,245.167Z" transform="translate(-227.443 -243.869)"/><g transform="translate(10.84)"><circle class="j" cx="2.058" cy="2.058" r="2.058" transform="translate(2.872)"/><path class="j" d="M265.53,245.168s.059-.569.51-.333a5.8,5.8,0,0,0,2.98,3.49c2.333,1.058,3.274-.255,3.274-.255s.9-.49,2.176.941,2.353,2.255,2.529,5.666c0,0-2.294-3.588-3.313-3.705a5.693,5.693,0,0,0-.529,6.94s-5.519-1.088-4.93-7.7C268.226,250.206,266.04,249.3,265.53,245.168Z" transform="translate(-265.53 -243.869)"/></g><path class="k" d="M234.6,264.079a6.648,6.648,0,0,1-3.313,1.978,5.691,5.691,0,0,0-.529-6.939c-1.019.117-3.313,3.706-3.313,3.706.176-3.412,1.252-4.235,2.527-5.667a2.834,2.834,0,0,1,1.471-.99A17.34,17.34,0,0,0,234.6,264.079Z" transform="translate(-227.443 -252.017)"/></g></svg>