<svg xmlns="http://www.w3.org/2000/svg" width="33.135" height="40.662" viewBox="0 0 33.135 40.662"><defs><style>.a{fill:#ffdc00;}.b{fill:#373737;}.c{fill:#ffaf37;}.d{fill:#285078;}.e{fill:#fff;}.f{fill:#ff9d3b;}.g{opacity:0.09;}.g,.i,.k,.l{mix-blend-mode:multiply;isolation:isolate;}.h{fill:#0e2d47;}.i{opacity:0.42;}.j{fill:#3d1a03;}.k{opacity:0.37;}</style></defs><g transform="translate(0 0)"><g transform="translate(1.76 22.931)"><path class="a" d="M227.477,203.54l-5.494-2.294-5.311,12.718,7.115-1.589,3.872,6.177,5.311-12.718Z" transform="translate(-216.459 -201.033)"/><path class="b" d="M227.122,218.227a.212.212,0,0,1-.18-.1l-3.792-6.049-6.968,1.556a.213.213,0,0,1-.243-.29l5.311-12.718a.213.213,0,0,1,.278-.114l5.494,2.294h0l5.493,2.294a.213.213,0,0,1,.114.278L227.319,218.1a.213.213,0,0,1-.179.13Zm-3.872-6.6a.213.213,0,0,1,.18.1l3.654,5.828,5.071-12.142-10.594-4.424-5.071,12.142,6.714-1.5A.217.217,0,0,1,223.25,211.625Z" transform="translate(-215.922 -200.496)"/><g transform="translate(2.708 2.23)"><path class="c" d="M238.422,212.941l-2.124,5.087a23.509,23.509,0,0,1-10.838-4.952l1.972-4.724Z" transform="translate(-225.46 -208.352)"/></g><path class="b" d="M227.122,218.227a.212.212,0,0,1-.18-.1l-3.792-6.049-6.968,1.556a.213.213,0,0,1-.243-.29l5.311-12.718a.213.213,0,0,1,.278-.114l5.494,2.294h0l5.493,2.294a.213.213,0,0,1,.114.278L227.319,218.1a.213.213,0,0,1-.179.13Zm-3.872-6.6a.213.213,0,0,1,.18.1l3.654,5.828,5.071-12.142-10.594-4.424-5.071,12.142,6.714-1.5A.217.217,0,0,1,223.25,211.625Z" transform="translate(-215.922 -200.496)"/><g transform="translate(12.891 0)"><path class="a" d="M267.576,203.54l5.494-2.294,5.311,12.718-7.115-1.589-3.872,6.177-5.311-12.718Z" transform="translate(-261.87 -201.033)"/><path class="b" d="M266.856,218.228h-.017a.213.213,0,0,1-.179-.13l-5.311-12.718a.213.213,0,0,1,.114-.278l5.494-2.294h0l5.493-2.294a.214.214,0,0,1,.279.114l5.311,12.718a.213.213,0,0,1-.243.29l-6.968-1.556-3.792,6.049A.212.212,0,0,1,266.856,218.228Zm-5.032-12.816,5.07,12.142,3.654-5.828a.211.211,0,0,1,.227-.095l6.713,1.5-5.07-12.142Z" transform="translate(-261.333 -200.496)"/><g transform="translate(1.054 2.23)"><path class="c" d="M265.046,212.941l2.124,5.087a23.509,23.509,0,0,0,10.838-4.952l-1.972-4.724Z" transform="translate(-265.046 -208.352)"/></g><path class="b" d="M266.856,218.228h-.017a.213.213,0,0,1-.179-.13l-5.311-12.718a.213.213,0,0,1,.114-.278l5.494-2.294h0l5.493-2.294a.214.214,0,0,1,.279.114l5.311,12.718a.213.213,0,0,1-.243.29l-6.968-1.556-3.792,6.049A.212.212,0,0,1,266.856,218.228Zm-5.032-12.816,5.07,12.142,3.654-5.828a.211.211,0,0,1,.227-.095l6.713,1.5-5.07-12.142Z" transform="translate(-261.333 -200.496)"/></g></g><circle class="d" cx="14.441" cy="14.441" r="14.441" transform="translate(0 28.509) rotate(-80.783)"/><path class="b" d="M231.117,155.771a14.654,14.654,0,1,1,14.654-14.654A14.671,14.671,0,0,1,231.117,155.771Zm0-28.882a14.228,14.228,0,1,0,14.228,14.228A14.244,14.244,0,0,0,231.117,126.889Z" transform="translate(-214.549 -124.549)"/><g transform="translate(1.598 1.598)"><circle class="a" cx="13.048" cy="13.048" r="13.048" transform="translate(0 25.759) rotate(-80.783)"/><path class="e" d="M234.631,157.891a13.261,13.261,0,1,1,13.261-13.261A13.276,13.276,0,0,1,234.631,157.891Zm0-26.1a12.835,12.835,0,1,0,12.835,12.835A12.85,12.85,0,0,0,234.631,131.795Z" transform="translate(-219.661 -129.66)"/></g><g transform="translate(1.879 1.879)"><circle class="f" cx="12.803" cy="12.803" r="12.803" transform="translate(0 25.276) rotate(-80.783)"/></g><g class="g" transform="translate(6.709 6.709)"><path class="h" d="M251.748,143.355a13.038,13.038,0,0,1-18.392,18.392,13.039,13.039,0,1,0,18.392-18.392Z" transform="translate(-233.356 -143.355)"/></g><g class="i" transform="translate(8.477 9.339)"><path class="h" d="M257.057,158.037l-.917-.925-1.374-1.385v-.395l-.931-.94V152.62h-.809v5.823l-4.619,3.435a1.228,1.228,0,0,1-1.462,0l-4.661-3.469V158.2a2.093,2.093,0,0,1-.85.2,1.978,1.978,0,0,1-1.4-.579l-.051-.066-.288.29a.381.381,0,0,0-.114.3h.009v8.57a2.1,2.1,0,0,0,2.089,2.106h13.388a2.1,2.1,0,0,0,2.087-2.106v-8.573h.009A.37.37,0,0,0,257.057,158.037Zm-3.222-.2v-2.3l1.312,1.323Z" transform="translate(-239.582 -152.62)"/><g transform="translate(2.363 0.011)"><path class="h" d="M248.244,154.325V152.66a.41.41,0,0,0-.338.4v.828C248.018,154.032,248.133,154.177,248.244,154.325Z" transform="translate(-247.906 -152.66)"/></g></g><g transform="translate(8.091 6.591)"><path class="j" d="M255.069,149.688l-1.277-1.289-.931-.94v-2.6a.408.408,0,0,0-.423-.395h-3.171l-1.272-1.062a2.029,2.029,0,0,0-2.586.006l-1.275,1.056h-3.211a.409.409,0,0,0-.423.395V147.5l-2.166,2.186a.364.364,0,0,0-.111.287h.009v8.264a2.032,2.032,0,0,0,2.016,2.03h12.905a2.02,2.02,0,0,0,2.013-2.03v-8.267h.009A.354.354,0,0,0,255.069,149.688Zm-9.141-5.661a1.218,1.218,0,0,1,1.553,0l.1.085h0l.412.349H245.4Zm-5.428,6.85-.891-.661-.38-.284,1.272-1.283Zm11.551.633-4.619,3.435a1.228,1.228,0,0,1-1.462,0l-4.661-3.469v-6.2h10.742Zm.809-.6v-2.3l1.312,1.323Z" transform="translate(-238.222 -142.94)"/></g><g class="k" transform="translate(13.274 10.619)"><path class="h" d="M263.993,160.361a5.552,5.552,0,0,1-.914,1.4,13.873,13.873,0,0,1-1.479,1.489q-.557.492-1.15.941a.113.113,0,0,1-.164,0,19.563,19.563,0,0,1-1.764-1.5,9.482,9.482,0,0,1-1.545-1.849,3.08,3.08,0,0,1-.464-2.1,1.787,1.787,0,0,1,1.066-1.434,2.008,2.008,0,0,1,1.127-.161,1.893,1.893,0,0,1,1.278.713,2.254,2.254,0,0,1,.378.713,3.085,3.085,0,0,1,.228-.432,1.982,1.982,0,0,1,2.11-.975,1.725,1.725,0,0,1,1.475,1.347A2.9,2.9,0,0,1,263.993,160.361Z" transform="translate(-256.479 -157.129)"/></g><g transform="translate(12.682 10.051)"><path class="j" d="M261.909,158.361a5.544,5.544,0,0,1-.914,1.4,13.9,13.9,0,0,1-1.479,1.489q-.558.492-1.15.941a.113.113,0,0,1-.165,0,19.562,19.562,0,0,1-1.764-1.5,9.483,9.483,0,0,1-1.545-1.849,3.077,3.077,0,0,1-.464-2.1,1.787,1.787,0,0,1,1.066-1.434,2.008,2.008,0,0,1,1.127-.161,1.894,1.894,0,0,1,1.277.713,2.258,2.258,0,0,1,.377.713,3.147,3.147,0,0,1,.228-.432,1.983,1.983,0,0,1,2.11-.975,1.725,1.725,0,0,1,1.475,1.347A2.9,2.9,0,0,1,261.909,158.361Z" transform="translate(-254.396 -155.129)"/></g></g><g class="l" transform="translate(8.091 13.342)"><path class="j" d="M244.531,177.3h-4.284a2.032,2.032,0,0,1-2.016-2.03v-8.264h-.009a.364.364,0,0,1,.111-.287S238.783,176.943,244.531,177.3Z" transform="translate(-238.222 -166.72)"/></g></svg>