<svg xmlns="http://www.w3.org/2000/svg" width="123.813" height="150.652" viewBox="0 0 123.813 150.652"><defs><style>.a,.e{fill:#ffdc00;}.a,.c,.d{stroke:#373737;}.a,.c,.d,.e{stroke-linecap:round;stroke-linejoin:round;stroke-width:1.5px;}.b{fill:#ffaf37;}.c{fill:none;}.d{fill:#285078;}.e{stroke:#fff;}.f{fill:#ff9d3b;}.g,.i,.k{fill:#0e2d47;}.g{opacity:0.09;}.g,.h,.k,.l{mix-blend-mode:multiply;isolation:isolate;}.h{opacity:0.42;}.j,.l{fill:#3d1a03;}.k{opacity:0.37;}</style></defs><g transform="translate(0.86 0.86)"><g transform="translate(7.27 85.275)"><path class="a" d="M256.483,209.7l-20.242-8.453-19.569,46.861,26.216-5.853,14.268,22.759,19.569-46.861Z" transform="translate(-216.672 -201.245)"/><g transform="translate(9.192 7.434)"><path class="b" d="M273.22,225.262,265.393,244a86.627,86.627,0,0,1-39.933-18.248l7.268-17.4Z" transform="translate(-225.46 -208.352)"/></g><path class="c" d="M256.483,209.7l-20.242-8.453-19.569,46.861,26.216-5.853,14.268,22.759,19.569-46.861Z" transform="translate(-216.672 -201.245)"/><g transform="translate(47.5)"><path class="a" d="M282.324,209.7l20.242-8.453,19.569,46.861-26.216-5.853-14.268,22.759-19.569-46.861Z" transform="translate(-262.082 -201.245)"/><g transform="translate(3.1 7.434)"><path class="b" d="M265.046,225.262,272.873,244a86.626,86.626,0,0,0,39.933-18.248l-7.268-17.4Z" transform="translate(-265.046 -208.352)"/></g><path class="c" d="M282.324,209.7l20.242-8.453,19.569,46.861-26.216-5.853-14.268,22.759-19.569-46.861Z" transform="translate(-262.082 -201.245)"/></g></g><circle class="d" cx="53.21" cy="53.21" r="53.21" transform="translate(0 105.046) rotate(-80.783)"/><circle class="e" cx="48.078" cy="48.078" r="48.078" transform="translate(5.888 100.802) rotate(-80.783)"/><circle class="f" cx="47.175" cy="47.175" r="47.175" transform="translate(6.923 100.056) rotate(-80.783)"/><path class="g" d="M301.122,143.355a48.039,48.039,0,0,1-67.766,67.767,48.046,48.046,0,1,0,67.766-67.767Z" transform="translate(-208.635 -118.634)"/><g class="h" transform="translate(31.234 34.412)"><path class="i" d="M303.969,172.578l-3.379-3.41-5.063-5.1v-1.454l-3.431-3.462V152.62h-2.981v21.454L272.1,186.731a4.524,4.524,0,0,1-5.387,0l-17.176-12.782v-.776a7.712,7.712,0,0,1-3.132.723,7.289,7.289,0,0,1-5.147-2.132c-.064-.079-.124-.163-.188-.244L240,172.589a1.4,1.4,0,0,0-.418,1.1h.031v31.579a7.732,7.732,0,0,0,7.7,7.761h49.33a7.723,7.723,0,0,0,7.688-7.761v-31.59h.031A1.364,1.364,0,0,0,303.969,172.578Zm-11.872-.722v-8.473l4.833,4.874Z" transform="translate(-239.582 -152.62)"/><path class="i" d="M249.151,158.795V152.66a1.511,1.511,0,0,0-1.245,1.464v3.052C248.32,157.715,248.742,158.251,249.151,158.795Z" transform="translate(-239.199 -152.618)"/></g><g transform="translate(29.812 24.287)"><path class="j" d="M300.3,167.8l-4.707-4.749-3.431-3.462v-9.582a1.5,1.5,0,0,0-1.559-1.454H278.916l-4.686-3.912a7.474,7.474,0,0,0-9.529.021l-4.7,3.891h-11.83a1.508,1.508,0,0,0-1.559,1.454v9.749l-7.981,8.054a1.342,1.342,0,0,0-.408,1.056h.031v30.45a7.487,7.487,0,0,0,7.427,7.479h47.552a7.444,7.444,0,0,0,7.416-7.479V168.86h.031A1.3,1.3,0,0,0,300.3,167.8Zm-33.682-20.858a4.487,4.487,0,0,1,5.722.01l.366.314h.01l1.517,1.287h-9.55Zm-20,25.24-3.285-2.437-1.4-1.046,4.686-4.728Zm42.563,2.333-17.019,12.657a4.524,4.524,0,0,1-5.387,0L249.6,174.394V151.538h39.581Zm2.981-2.218v-8.473l4.833,4.874Z" transform="translate(-238.222 -142.94)"/></g><path class="k" d="M284.163,169.04a20.459,20.459,0,0,1-3.368,5.164,51.137,51.137,0,0,1-5.451,5.487q-2.054,1.812-4.236,3.469a.416.416,0,0,1-.606.007,72.1,72.1,0,0,1-6.5-5.539,34.935,34.935,0,0,1-5.692-6.813,11.348,11.348,0,0,1-1.71-7.736,6.585,6.585,0,0,1,3.928-5.286,7.4,7.4,0,0,1,4.152-.594,6.975,6.975,0,0,1,4.707,2.629,8.3,8.3,0,0,1,1.391,2.626,11.376,11.376,0,0,1,.839-1.591,7.3,7.3,0,0,1,7.774-3.593,6.354,6.354,0,0,1,5.435,4.963A10.689,10.689,0,0,1,284.163,169.04Z" transform="translate(-207.57 -118)"/><path class="j" d="M282.079,167.04a20.426,20.426,0,0,1-3.367,5.164,51.227,51.227,0,0,1-5.451,5.487q-2.055,1.812-4.236,3.469a.417.417,0,0,1-.607.007,72.09,72.09,0,0,1-6.5-5.539,34.936,34.936,0,0,1-5.692-6.813,11.337,11.337,0,0,1-1.71-7.736,6.583,6.583,0,0,1,3.928-5.286,7.4,7.4,0,0,1,4.152-.594,6.978,6.978,0,0,1,4.707,2.629,8.324,8.324,0,0,1,1.39,2.626,11.606,11.606,0,0,1,.839-1.591,7.305,7.305,0,0,1,7.775-3.593,6.354,6.354,0,0,1,5.435,4.963A10.69,10.69,0,0,1,282.079,167.04Z" transform="translate(-207.666 -118.092)"/><path class="l" d="M261.469,205.705H245.684a7.487,7.487,0,0,1-7.427-7.479v-30.45h-.031a1.342,1.342,0,0,1,.408-1.056S240.287,204.387,261.469,205.705Z" transform="translate(-208.411 -117.559)"/></g></svg>