<svg xmlns="http://www.w3.org/2000/svg" width="33.854" height="40.614" viewBox="0 0 33.854 40.614"><defs><style>.a{fill:#ffdc00;}.b{fill:#373737;}.c{fill:#ffaf37;}.d{fill:#285078;}.e{fill:#19b6a7;}.f{fill:#fff;}.g{fill:#11998b;}.h{opacity:0.42;}.h,.j,.k{mix-blend-mode:multiply;isolation:isolate;}.i{fill:#0e2d47;}.j{opacity:0.37;}.l{fill:#e6e7e8;}</style></defs><g transform="translate(-149 -245)"><g transform="translate(149 245)"><g transform="translate(10.627 26.098)"><path class="a" d="M78.191,210.452H72.108v14.081l6.082-4.3,6.082,4.3V210.452Z" transform="translate(-71.891 -210.234)"/><path class="b" d="M83.74,224.218a.217.217,0,0,1-.126-.04l-5.957-4.21-5.957,4.21a.217.217,0,0,1-.343-.178V209.92a.218.218,0,0,1,.218-.218H83.74a.218.218,0,0,1,.218.218V224a.217.217,0,0,1-.218.218Zm-6.082-4.734a.219.219,0,0,1,.126.04l5.739,4.057V210.137H71.793v13.443l5.739-4.057A.218.218,0,0,1,77.658,219.484Z" transform="translate(-71.358 -209.702)"/><g transform="translate(0.216 2.452)"><path class="c" d="M84.272,218.155v5.632a24.017,24.017,0,0,1-12.168-.4v-5.23Z" transform="translate(-72.104 -218.155)"/></g><path class="b" d="M83.74,224.218a.217.217,0,0,1-.126-.04l-5.957-4.21-5.957,4.21a.217.217,0,0,1-.343-.178V209.92a.218.218,0,0,1,.218-.218H83.74a.218.218,0,0,1,.218.218V224a.217.217,0,0,1-.218.218Zm-6.082-4.734a.219.219,0,0,1,.126.04l5.739,4.057V210.137H71.793v13.443l5.739-4.057A.218.218,0,0,1,77.658,219.484Z" transform="translate(-71.358 -209.702)"/></g><g transform="translate(0 0)"><circle class="d" cx="14.754" cy="14.754" r="14.754" transform="translate(0 29.127) rotate(-80.783)"/><path class="b" d="M56.432,156.406A14.972,14.972,0,1,1,71.4,141.435,14.989,14.989,0,0,1,56.432,156.406Zm0-29.508a14.537,14.537,0,1,0,14.537,14.537A14.553,14.553,0,0,0,56.432,126.9Z" transform="translate(-39.505 -124.508)"/></g><g transform="translate(1.633 1.633)"><circle class="e" cx="13.331" cy="13.331" r="13.331" transform="translate(0 26.318) rotate(-80.783)"/></g><g transform="translate(3.378 3.378)"><path class="f" d="M59.915,158.467a13.549,13.549,0,1,1,13.549-13.549A13.564,13.564,0,0,1,59.915,158.467Zm0-26.663a13.114,13.114,0,1,0,13.114,13.114A13.128,13.128,0,0,0,59.915,131.8Z" transform="translate(-46.367 -131.369)"/></g><g transform="translate(6.855 6.855)"><path class="g" d="M77.143,143.355a13.32,13.32,0,0,1-18.79,18.791,13.322,13.322,0,1,0,18.79-18.791Z" transform="translate(-58.353 -143.355)"/></g><g class="h" transform="translate(8.661 9.542)"><path class="i" d="M82.431,158.154l-.937-.946-1.4-1.415v-.4l-.951-.96v-1.81h-.827v5.949l-4.719,3.51a1.255,1.255,0,0,1-1.494,0l-4.763-3.544v-.215a2.136,2.136,0,0,1-.868.2,2.021,2.021,0,0,1-1.427-.591c-.018-.022-.035-.045-.053-.068l-.294.3a.389.389,0,0,0-.116.3h.009v8.756a2.144,2.144,0,0,0,2.135,2.152H80.4a2.142,2.142,0,0,0,2.132-2.152v-8.759h.009A.378.378,0,0,0,82.431,158.154Zm-3.292-.2V155.6l1.34,1.352Z" transform="translate(-64.578 -152.62)"/><g transform="translate(2.414 0.012)"><path class="i" d="M73.247,154.361v-1.7a.419.419,0,0,0-.345.406v.846C73.017,154.062,73.134,154.21,73.247,154.361Z" transform="translate(-72.902 -152.66)"/></g></g><g transform="translate(8.266 6.734)"><path class="f" d="M80.43,149.834l-1.305-1.317-.951-.96V144.9a.417.417,0,0,0-.432-.4H74.5l-1.3-1.085a2.072,2.072,0,0,0-2.642.006l-1.3,1.079h-3.28a.418.418,0,0,0-.432.4v2.7l-2.213,2.233a.372.372,0,0,0-.113.293h.009v8.443a2.076,2.076,0,0,0,2.059,2.074H78.473a2.064,2.064,0,0,0,2.056-2.074v-8.446h.009A.361.361,0,0,0,80.43,149.834Zm-9.339-5.783a1.244,1.244,0,0,1,1.587,0l.1.087h0l.421.357H70.555Zm-5.546,4.722v2.277l-.911-.676-.389-.29Zm11.8,2.924-4.719,3.51a1.251,1.251,0,0,1-.5.223,1.386,1.386,0,0,1-.244.023,1.242,1.242,0,0,1-.745-.247l-4.763-3.544v-6.337H77.347Zm.827-.615v-2.349l1.34,1.352Z" transform="translate(-63.218 -142.94)"/></g><g class="j" transform="translate(13.562 10.85)"><path class="i" d="M89.152,160.431a5.663,5.663,0,0,1-.934,1.432,14.2,14.2,0,0,1-1.511,1.522q-.57.5-1.175.962a.115.115,0,0,1-.168,0,19.955,19.955,0,0,1-1.8-1.536,9.688,9.688,0,0,1-1.578-1.889,3.144,3.144,0,0,1-.474-2.145,1.825,1.825,0,0,1,1.089-1.466,2.052,2.052,0,0,1,1.151-.165,1.935,1.935,0,0,1,1.305.729,2.315,2.315,0,0,1,.386.728,3.184,3.184,0,0,1,.232-.441,2.026,2.026,0,0,1,2.156-1,1.762,1.762,0,0,1,1.507,1.376A2.962,2.962,0,0,1,89.152,160.431Z" transform="translate(-81.476 -157.129)"/></g><g transform="translate(12.956 10.269)"><path class="f" d="M87.067,158.432a5.679,5.679,0,0,1-.934,1.43,14.13,14.13,0,0,1-1.511,1.523c-.38.334-.774.655-1.175.963a.116.116,0,0,1-.168,0c-.3-.226-.592-.458-.876-.7-.319-.267-.629-.542-.928-.832a9.676,9.676,0,0,1-1.578-1.891,3.143,3.143,0,0,1-.476-2.143,1.81,1.81,0,0,1,.9-1.369,1.422,1.422,0,0,1,.186-.1,2.062,2.062,0,0,1,1.151-.162,1.931,1.931,0,0,1,1.305.728,2.328,2.328,0,0,1,.386.728,2.989,2.989,0,0,1,.232-.441,2.03,2.03,0,0,1,2.155-1,1.765,1.765,0,0,1,1.508,1.378A2.98,2.98,0,0,1,87.067,158.432Z" transform="translate(-79.389 -155.128)"/></g><g class="k" transform="translate(8.266 13.631)"><path class="l" d="M69.664,177.53H65.287a2.076,2.076,0,0,1-2.059-2.074v-8.443h-.009a.372.372,0,0,1,.113-.293S63.791,177.164,69.664,177.53Z" transform="translate(-63.218 -166.72)"/></g></g></g></svg>