<svg xmlns="http://www.w3.org/2000/svg" viewBox="0 0 27 25" width="40" height="37">
	<style>
		tspan { white-space:pre }
		.shp0 { fill: #285078 }
	</style>
	<path id="Layer" class="shp0" d="M26.27 17.56L20.11 10.8L20.11 14.84L18.8 14.84C17.83 14.84 16.87 15.03 15.98 15.4C15.09 15.77 14.28 16.31 13.59 16.99C12.91 17.67 12.37 18.49 12 19.38C11.63 20.27 11.44 21.23 11.44 22.2L11.44 24.33L12.02 23.69C12.51 23.16 13.05 22.68 13.64 22.25C14.23 21.83 14.86 21.47 15.52 21.18C16.18 20.89 16.87 20.66 17.58 20.51C18.29 20.37 19.01 20.29 19.74 20.29L20.11 20.29L20.11 24.32L26.27 17.56Z" />
	<path id="Layer" fill-rule="evenodd" class="shp0" d="M0 21.93C0.02 21.7 0.04 21.47 0.07 21.24C0.11 20.87 0.17 20.5 0.25 20.14C0.34 19.78 0.44 19.42 0.56 19.07C0.68 18.71 0.82 18.37 0.98 18.03C1.13 17.69 1.31 17.37 1.5 17.05C1.83 16.53 2.19 16.03 2.58 15.57C2.98 15.11 3.41 14.67 3.88 14.28C4.34 13.88 4.83 13.52 5.35 13.2C5.87 12.88 6.42 12.6 6.98 12.36L7.32 12.22L7.19 12.09C6.28 11.18 5.64 10.03 5.33 8.78C5.03 7.53 5.07 6.22 5.45 4.99C5.83 3.75 6.54 2.65 7.51 1.79C8.47 0.94 9.65 0.36 10.91 0.12C12.73 -0.2 14.59 0.2 16.12 1.24C17.64 2.27 18.7 3.85 19.08 5.66C19.45 7.46 19.11 9.34 18.13 10.89C17.14 12.45 15.59 13.56 13.8 13.99C13.42 14.08 13.04 14.14 12.65 14.17C12.26 14.19 11.87 14.18 11.48 14.14C11.1 14.1 10.71 14.03 10.34 13.93C9.96 13.82 9.6 13.69 9.25 13.52C9.22 13.51 9.19 13.5 9.17 13.49C9.14 13.48 9.11 13.48 9.08 13.48C9.06 13.48 9.03 13.48 9 13.48C8.97 13.49 8.94 13.49 8.92 13.5C8.53 13.62 8.14 13.75 7.77 13.91C7.39 14.07 7.03 14.25 6.67 14.45C6.31 14.65 5.97 14.87 5.64 15.1C5.31 15.34 4.99 15.6 4.69 15.87C4.32 16.2 3.98 16.56 3.68 16.95C3.37 17.33 3.1 17.74 2.86 18.17C2.62 18.6 2.41 19.05 2.25 19.52C2.09 19.98 1.96 20.46 1.88 20.94C1.85 21.11 1.83 21.27 1.81 21.44C1.79 21.61 1.78 21.77 1.77 21.94C1.75 22.11 1.75 22.27 1.74 22.44C1.74 22.61 1.74 22.78 1.75 22.94C1.75 23.04 1.73 23.13 1.71 23.22C1.68 23.31 1.64 23.39 1.58 23.47C1.52 23.54 1.46 23.61 1.38 23.66C1.31 23.72 1.22 23.76 1.13 23.78C1.02 23.82 0.9 23.83 0.79 23.82C0.67 23.81 0.56 23.77 0.45 23.71C0.35 23.66 0.26 23.58 0.19 23.49C0.12 23.4 0.06 23.3 0.03 23.18C0.02 23.15 0.01 23.12 0 23.09L0 21.93ZM12.21 12.44C14.37 12.43 16.32 11.13 17.14 9.13C17.97 7.13 17.51 4.84 15.97 3.31C14.44 1.79 12.15 1.33 10.15 2.16C8.15 2.99 6.86 4.94 6.86 7.11C6.87 7.81 7.01 8.5 7.28 9.14C7.55 9.79 7.94 10.38 8.44 10.87C8.93 11.36 9.52 11.76 10.17 12.02C10.82 12.29 11.51 12.43 12.21 12.44L12.21 12.44Z" />
</svg>
