<svg xmlns="http://www.w3.org/2000/svg" width="33.22" height="39.854" viewBox="0 0 33.22 39.854"><defs><style>.a{fill:#ffdc00;}.b{fill:#373737;}.c{fill:#ffaf37;}.d{fill:#285078;}.e{fill:#19b6a7;}.f{fill:#fff;}.g{fill:#11998b;}.h{opacity:0.42;}.i{fill:#0e2d47;}.j{fill:#e6e7e8;}</style></defs><g transform="translate(10.428 25.609)"><path class="a" d="M78.077,298.623H72.108V312.44l5.969-4.218,5.969,4.218V298.623Z" transform="translate(-71.895 -298.41)"/><path class="b" d="M83.508,312.117a.213.213,0,0,1-.123-.039l-5.845-4.131-5.845,4.131a.213.213,0,0,1-.337-.174V298.086a.214.214,0,0,1,.213-.213H83.508a.214.214,0,0,1,.213.213V311.9a.213.213,0,0,1-.213.213Zm-5.968-4.645a.215.215,0,0,1,.123.039l5.632,3.981V298.3H71.785v13.192l5.632-3.981A.214.214,0,0,1,77.54,307.472Z" transform="translate(-71.358 -297.873)"/><g transform="translate(0.212 2.406)"><path class="c" d="M84.044,306.326v5.527a23.051,23.051,0,0,1-8.127.4,23.245,23.245,0,0,1-3.813-.8v-5.132Z" transform="translate(-72.104 -306.326)"/></g><path class="b" d="M83.508,312.117a.213.213,0,0,1-.123-.039l-5.845-4.131-5.845,4.131a.213.213,0,0,1-.337-.174V298.086a.214.214,0,0,1,.213-.213H83.508a.214.214,0,0,1,.213.213V311.9a.213.213,0,0,1-.213.213Zm-5.968-4.645a.215.215,0,0,1,.123.039l5.632,3.981V298.3H71.785v13.192l5.632-3.981A.214.214,0,0,1,77.54,307.472Z" transform="translate(-71.358 -297.873)"/></g><g transform="translate(0 0)"><circle class="d" cx="14.478" cy="14.478" r="14.478" transform="translate(0 28.582) rotate(-80.783)"/><path class="b" d="M56.151,244.017a14.691,14.691,0,1,1,14.691-14.691A14.708,14.708,0,0,1,56.151,244.017Zm0-28.956a14.264,14.264,0,1,0,14.264,14.264A14.281,14.281,0,0,0,56.151,215.061Z" transform="translate(-39.541 -212.715)"/></g><g transform="translate(1.602 1.602)"><circle class="e" cx="13.082" cy="13.082" r="13.082" transform="translate(0 25.825) rotate(-80.783)"/></g><g transform="translate(3.315 3.315)"><path class="f" d="M59.662,246.13a13.3,13.3,0,1,1,13.3-13.3A13.31,13.31,0,0,1,59.662,246.13Zm0-26.163A12.868,12.868,0,1,0,72.53,232.835,12.883,12.883,0,0,0,59.662,219.967Z" transform="translate(-46.367 -219.54)"/></g><g transform="translate(6.727 6.726)"><path class="g" d="M76.792,231.526a13.071,13.071,0,0,1-18.439,18.439,13.073,13.073,0,1,0,18.439-18.439Z" transform="translate(-58.353 -231.526)"/></g><g transform="translate(5.456 9.589)"><g class="h" transform="translate(0.824 0.908)"><circle class="i" cx="2.058" cy="2.058" r="2.058" transform="translate(4.48)"/><path class="i" d="M68.252,248.36s-.059-.569-.51-.333a5.8,5.8,0,0,1-2.98,3.489c-2.333,1.059-3.274-.255-3.274-.255s-.9-.49-2.176.941-2.353,2.254-2.529,5.666c0,0,2.294-3.588,3.313-3.705a5.693,5.693,0,0,1,.529,6.94s5.519-1.088,4.93-7.7C65.557,253.4,67.743,252.5,68.252,248.36Z" transform="translate(-56.784 -247.061)"/><g transform="translate(10.841)"><circle class="i" cx="2.058" cy="2.058" r="2.058" transform="translate(2.872)"/><path class="i" d="M94.875,248.36s.059-.569.51-.333a5.8,5.8,0,0,0,2.98,3.489c2.333,1.059,3.274-.255,3.274-.255s.9-.49,2.176.941,2.353,2.254,2.529,5.666c0,0-2.294-3.588-3.313-3.705a5.692,5.692,0,0,0-.529,6.94s-5.519-1.088-4.931-7.7C97.571,253.4,95.385,252.5,94.875,248.36Z" transform="translate(-94.875 -247.061)"/></g></g><circle class="f" cx="2.058" cy="2.058" r="2.058" transform="translate(4.479)"/><path class="f" d="M65.357,245.167v.009a10.765,10.765,0,0,1-.313,1.58c-.78,2.789-2.382,3.449-2.382,3.449a7.2,7.2,0,0,1-1.617,5.726,6.648,6.648,0,0,1-3.313,1.978,5.691,5.691,0,0,0-.529-6.939c-1.019.117-3.313,3.706-3.313,3.706.176-3.413,1.252-4.235,2.527-5.667a2.835,2.835,0,0,1,1.471-.99,1.1,1.1,0,0,1,.706.051s.939,1.312,3.273.253a5.7,5.7,0,0,0,2.863-3.148c.048-.125.08-.222.1-.282v0l.017-.057a.472.472,0,0,1,.1-.04.119.119,0,0,1,.043-.011.218.218,0,0,1,.043-.006.276.276,0,0,1,.1.017.266.266,0,0,1,.12.1v0A.664.664,0,0,1,65.357,245.167Z" transform="translate(-53.89 -243.869)"/><g transform="translate(10.84)"><circle class="f" cx="2.058" cy="2.058" r="2.058" transform="translate(2.872)"/><path class="f" d="M91.977,245.168s.059-.569.51-.333a5.8,5.8,0,0,0,2.98,3.49c2.333,1.058,3.274-.255,3.274-.255s.9-.49,2.176.941,2.352,2.255,2.529,5.666c0,0-2.294-3.588-3.313-3.705a5.693,5.693,0,0,0-.529,6.94s-5.519-1.088-4.931-7.7C94.673,250.206,92.487,249.3,91.977,245.168Z" transform="translate(-91.977 -243.869)"/></g><path class="j" d="M61.045,264.079a6.648,6.648,0,0,1-3.313,1.978,5.691,5.691,0,0,0-.529-6.939c-1.019.117-3.313,3.706-3.313,3.706.176-3.412,1.252-4.235,2.527-5.667a2.834,2.834,0,0,1,1.471-.99A17.34,17.34,0,0,0,61.045,264.079Z" transform="translate(-53.89 -252.017)"/></g></svg>