<svg xmlns="http://www.w3.org/2000/svg" width="141.512" height="152.958" viewBox="0 0 141.512 152.958"><defs><style>.a{fill:#ffdc00;}.b{fill:#373737;}.c{fill:#285078;}.d{fill:#fff;}.e{opacity:0.09;mix-blend-mode:multiply;isolation:isolate;}.f{fill:#0e2d47;}.g{opacity:0.42;}.h{fill:#163249;}</style></defs><g transform="translate(-422.808 -2485)"><g transform="translate(474.895 2602.293)"><g transform="translate(0.786 0.786)"><path class="a" d="M464.79,354.716a.777.777,0,0,1-.366-.09l-10.2-5.364-10.2,5.364a.776.776,0,0,1-.365.09.785.785,0,0,1-.774-.919l1.947-11.36-8.253-8.044a.786.786,0,0,1,.436-1.34l11.406-1.658,5.1-10.335a.786.786,0,0,1,1.41,0l5.1,10.335,11.4,1.658a.785.785,0,0,1,.436,1.34l-8.252,8.044,1.947,11.36a.786.786,0,0,1-.774.919Z" transform="translate(-436.34 -320.622)"/></g><path class="b" d="M454.259,321.443l5.283,10.706,11.814,1.717-8.549,8.333,2.018,11.767-10.567-5.556-10.568,5.556,2.018-11.767-8.549-8.333,11.815-1.717,5.283-10.706m0-1.571a1.57,1.57,0,0,0-1.409.876l-4.919,9.966-11,1.6a1.572,1.572,0,0,0-.871,2.68l7.958,7.756L442.143,353.7a1.571,1.571,0,0,0,2.279,1.657l9.837-5.171,9.836,5.171a1.572,1.572,0,0,0,2.28-1.657L464.5,342.747l7.957-7.756a1.571,1.571,0,0,0-.87-2.68l-11-1.6-4.918-9.966a1.571,1.571,0,0,0-1.409-.876Z" transform="translate(-435.589 -319.872)"/></g><g transform="translate(520.795 2592.223)"><g transform="translate(0.786 0.786)"><path class="a" d="M500.73,335.837a.79.79,0,0,1-.366-.09l-7.192-3.781-7.192,3.781a.786.786,0,0,1-1.139-.829l1.373-8.008L480.4,321.24a.786.786,0,0,1,.436-1.34l8.04-1.169,3.595-7.285a.786.786,0,0,1,1.41,0l3.595,7.285,8.04,1.169a.786.786,0,0,1,.436,1.34l-5.819,5.671,1.374,8.008a.788.788,0,0,1-.774.919Z" transform="translate(-480.16 -311.008)"/></g><path class="b" d="M493.208,311.829l3.778,7.656,8.449,1.228-6.113,5.959,1.443,8.415-7.557-3.973-7.556,3.973,1.443-8.415-6.114-5.959,8.449-1.228,3.778-7.656m0-1.571a1.571,1.571,0,0,0-1.409.876l-3.413,6.915-7.632,1.109a1.57,1.57,0,0,0-.87,2.679l5.522,5.383-1.3,7.6a1.571,1.571,0,0,0,2.28,1.656l6.825-3.589,6.826,3.589a1.571,1.571,0,0,0,2.279-1.656l-1.3-7.6,5.522-5.383a1.57,1.57,0,0,0-.871-2.679l-7.631-1.109-3.414-6.915a1.57,1.57,0,0,0-1.409-.876Z" transform="translate(-479.41 -310.258)"/></g><g transform="translate(545.144 2574.4)"><g transform="translate(0.786 0.786)"><path class="a" d="M517.163,310.812a.78.78,0,0,1-.366-.09l-4.59-2.412-4.59,2.412a.785.785,0,0,1-.826-.06.789.789,0,0,1-.313-.769l.877-5.109-3.712-3.619a.786.786,0,0,1,.436-1.34l5.13-.746,2.294-4.65a.786.786,0,0,1,1.41,0l2.295,4.65,5.129.746a.786.786,0,0,1,.436,1.34l-3.712,3.619.877,5.109a.786.786,0,0,1-.774.919Z" transform="translate(-503.406 -293.992)"/></g><path class="b" d="M512.243,294.813l2.477,5.019,5.54.806-4.009,3.907.947,5.517-4.956-2.6-4.954,2.6.946-5.517-4.009-3.907,5.54-.806,2.477-5.019m0-1.571h0a1.571,1.571,0,0,0-1.409.876l-2.112,4.279-4.722.686a1.572,1.572,0,0,0-.871,2.68l3.418,3.331-.807,4.7a1.571,1.571,0,0,0,2.279,1.656l4.223-2.221,4.224,2.221a1.571,1.571,0,0,0,2.279-1.656l-.807-4.7,3.417-3.331a1.571,1.571,0,0,0-.87-2.68l-4.723-.686-2.112-4.279a1.57,1.57,0,0,0-1.409-.876Z" transform="translate(-502.655 -293.242)"/></g><g transform="translate(438.736 2592.223)"><g transform="translate(0.785 0.786)"><path class="a" d="M407.275,335.837a.788.788,0,0,1-.774-.919l1.373-8.008-5.818-5.671a.785.785,0,0,1,.436-1.34l8.039-1.169,3.6-7.285a.788.788,0,0,1,.7-.438h0a.788.788,0,0,1,.7.438l3.594,7.285,8.04,1.169a.785.785,0,0,1,.436,1.34l-5.819,5.671,1.374,8.008a.788.788,0,0,1-.774.919.793.793,0,0,1-.366-.09l-7.191-3.781-7.192,3.781A.8.8,0,0,1,407.275,335.837Z" transform="translate(-401.819 -311.008)"/></g><path class="b" d="M414.867,311.829l3.779,7.656,8.449,1.228-6.114,5.959,1.443,8.415-7.557-3.973-7.556,3.973,1.443-8.415-6.114-5.959,8.449-1.228,3.778-7.656m0-1.571a1.571,1.571,0,0,0-1.409.876l-3.413,6.915-7.632,1.109a1.571,1.571,0,0,0-.87,2.679l5.522,5.383-1.3,7.6a1.571,1.571,0,0,0,2.28,1.656l6.825-3.589,6.826,3.589a1.571,1.571,0,0,0,2.279-1.656l-1.3-7.6,5.522-5.383a1.571,1.571,0,0,0-.872-2.679l-7.631-1.109-3.413-6.915a1.573,1.573,0,0,0-1.41-.876Z" transform="translate(-401.069 -310.258)"/></g><g transform="translate(422.808 2574.4)"><g transform="translate(0.786 0.786)"><path class="a" d="M400.37,310.812a.78.78,0,0,1-.366-.09l-4.59-2.412-4.59,2.412a.776.776,0,0,1-.365.09.785.785,0,0,1-.774-.919l.876-5.109-3.712-3.619a.786.786,0,0,1,.437-1.34l5.129-.746,2.294-4.65a.786.786,0,0,1,1.41,0l2.3,4.65,5.129.746a.786.786,0,0,1,.436,1.34l-3.712,3.619.877,5.109a.786.786,0,0,1-.774.919Z" transform="translate(-386.613 -293.992)"/></g><path class="b" d="M395.45,294.813l2.477,5.019,5.54.806-4.009,3.907.947,5.517-4.956-2.6-4.954,2.6.946-5.517-4.008-3.907,5.539-.806,2.477-5.019m0-1.571a1.571,1.571,0,0,0-1.409.876L391.93,298.4l-4.722.686a1.571,1.571,0,0,0-.87,2.68l3.417,3.331-.807,4.7a1.571,1.571,0,0,0,2.279,1.656l4.223-2.221,4.224,2.221a1.571,1.571,0,0,0,2.279-1.656l-.807-4.7,3.417-3.331a1.571,1.571,0,0,0-.87-2.68l-4.722-.686-2.113-4.279a1.57,1.57,0,0,0-1.409-.876Z" transform="translate(-385.863 -293.242)"/></g><g transform="translate(432.434 2485)"><circle class="c" cx="53.283" cy="53.283" r="53.283" transform="translate(0 105.19) rotate(-80.783)"/><path class="b" d="M455.863,322.771A54.069,54.069,0,1,1,509.93,268.7,54.13,54.13,0,0,1,455.863,322.771Zm0-106.566a52.5,52.5,0,1,0,52.5,52.5A52.557,52.557,0,0,0,455.863,216.205Z" transform="translate(-394.732 -207.573)"/></g><g transform="translate(438.33 2490.896)"><circle class="a" cx="48.144" cy="48.144" r="48.144" transform="translate(0 95.045) rotate(-80.783)"/><path class="d" d="M455.63,317.4a48.93,48.93,0,1,1,48.93-48.93A48.985,48.985,0,0,1,455.63,317.4Zm0-96.289a47.359,47.359,0,1,0,47.359,47.359A47.412,47.412,0,0,0,455.63,221.111Z" transform="translate(-400.395 -213.236)"/></g><g transform="translate(439.313 2491.879)"><circle class="a" cx="47.287" cy="47.287" r="47.287" transform="translate(0 93.353) rotate(-80.783)"/></g><g class="e" transform="translate(457.189 2509.755)"><path class="f" d="M486.547,231.526a48.105,48.105,0,0,1-67.861,67.861,48.112,48.112,0,1,0,67.861-67.861Z" transform="translate(-418.686 -231.526)"/></g><g class="g" transform="translate(454.027 2523.635)"><circle class="f" cx="7.576" cy="7.576" r="7.576" transform="translate(16.486)"/><path class="f" d="M457.874,249.406s-.216-2.093-1.876-1.227c0,0-2.381,8.946-10.966,12.842s-12.049-.937-12.049-.937-3.319-1.8-8.009,3.463-8.658,8.3-9.308,20.852c0,0,8.441-13.2,12.193-13.637,0,0,10.895,11.327,1.948,25.541,0,0,20.31-4,18.145-28.355C447.954,267.948,456,264.629,457.874,249.406Z" transform="translate(-415.667 -244.626)"/><g transform="translate(39.899)"><circle class="f" cx="7.576" cy="7.576" r="7.576" transform="translate(10.57)"/><path class="f" d="M453.758,249.406s.217-2.093,1.876-1.227c0,0,2.381,8.946,10.967,12.842s12.049-.937,12.049-.937,3.318-1.8,8.008,3.463,8.658,8.3,9.308,20.852c0,0-8.441-13.2-12.194-13.637,0,0-10.895,11.327-1.948,25.541,0,0-20.309-4-18.145-28.355C463.678,267.948,455.634,264.629,453.758,249.406Z" transform="translate(-453.758 -244.626)"/></g></g><g transform="translate(450.996 2520.292)"><circle class="c" cx="7.576" cy="7.576" r="7.576" transform="translate(16.482)"/><path class="c" d="M454.975,246.212v.031a39.621,39.621,0,0,1-1.152,5.813c-2.87,10.265-8.767,12.7-8.767,12.7.911,10.192-2.116,16.812-5.95,21.075a24.468,24.468,0,0,1-12.192,7.28c8.945-14.214-1.948-25.537-1.948-25.537-3.75.429-12.192,13.638-12.192,13.638.649-12.559,4.609-15.586,9.3-20.855,2.158-2.42,4.022-3.352,5.415-3.645a4.058,4.058,0,0,1,2.6.189s3.457,4.829,12.046.932a20.991,20.991,0,0,0,10.537-11.585c.178-.461.293-.817.367-1.037v-.01c.042-.136.063-.209.063-.209a1.733,1.733,0,0,1,.377-.147.439.439,0,0,1,.157-.042.808.808,0,0,1,.157-.021,1.016,1.016,0,0,1,.377.063.981.981,0,0,1,.44.356v.01A2.446,2.446,0,0,1,454.975,246.212Z" transform="translate(-412.773 -241.434)"/><g transform="translate(39.894)"><circle class="c" cx="7.576" cy="7.576" r="7.576" transform="translate(10.57)"/><path class="c" d="M450.86,246.214s.217-2.093,1.876-1.227c0,0,2.381,8.946,10.967,12.843s12.049-.939,12.049-.939,3.318-1.8,8.008,3.463,8.658,8.3,9.308,20.852c0,0-8.441-13.2-12.193-13.637,0,0-10.895,11.328-1.948,25.541,0,0-20.309-4-18.145-28.355C460.78,264.756,452.736,261.438,450.86,246.214Z" transform="translate(-450.86 -241.434)"/></g></g><path class="h" d="M439.106,285.286a24.468,24.468,0,0,1-12.192,7.28c8.945-14.214-1.948-25.537-1.948-25.537-3.75.429-12.192,13.638-12.192,13.638.649-12.559,4.609-15.586,9.3-20.855,2.158-2.42,4.022-3.352,5.415-3.645C428.621,263.74,431.554,275.534,439.106,285.286Z" transform="translate(38.223 2279.398)"/></g></svg>