<svg xmlns="http://www.w3.org/2000/svg" width="122.26" height="150.032" viewBox="0 0 122.26 150.032"><defs><style>.a{fill:#ffdc00;}.b{fill:#373737;}.c{fill:#ffaf37;}.d{fill:#285078;}.e{fill:#fff;}.f{fill:#ff9d3b;}.g{opacity:0.09;mix-blend-mode:multiply;isolation:isolate;}.h{fill:#0e2d47;}.i{opacity:0.42;}.j{fill:#3d1a03;}.k{fill:#281206;}</style></defs><g transform="translate(-238.309 -2485)"><g transform="translate(244.803 2569.607)"><path class="a" d="M256.537,297.881l-20.27-8.464-19.6,46.925,26.252-5.861,14.287,22.79,19.6-46.925Z" transform="translate(-215.886 -288.631)"/><path class="b" d="M257.247,354.091a.784.784,0,0,1-.665-.369L242.589,331.4l-25.71,5.74a.786.786,0,0,1-.9-1.069l19.6-46.924a.785.785,0,0,1,1.028-.422l20.27,8.463h0l20.269,8.465a.785.785,0,0,1,.421,1.028l-19.595,46.925a.785.785,0,0,1-.66.481ZM242.96,329.73a.787.787,0,0,1,.665.368L257.107,351.6l18.709-44.8-39.09-16.323-18.709,44.8,24.771-5.531A.806.806,0,0,1,242.96,329.73Z" transform="translate(-215.922 -288.667)"/><g transform="translate(9.991 8.229)"><path class="c" d="M273.286,313.456l-7.838,18.768a86.744,86.744,0,0,1-39.988-18.273l7.278-17.429Z" transform="translate(-225.46 -296.523)"/></g><path class="b" d="M257.247,354.091a.784.784,0,0,1-.665-.369L242.589,331.4l-25.71,5.74a.786.786,0,0,1-.9-1.069l19.6-46.924a.785.785,0,0,1,1.028-.422l20.27,8.463h0l20.269,8.465a.785.785,0,0,1,.421,1.028l-19.595,46.925a.785.785,0,0,1-.66.481ZM242.96,329.73a.787.787,0,0,1,.665.368L257.107,351.6l18.709-44.8-39.09-16.323-18.709,44.8,24.771-5.531A.806.806,0,0,1,242.96,329.73Z" transform="translate(-215.922 -288.667)"/><g transform="translate(47.566 0)"><path class="a" d="M282.352,297.881l20.27-8.464,19.6,46.925-26.252-5.861-14.287,22.79-19.6-46.925Z" transform="translate(-261.297 -288.632)"/><path class="b" d="M281.713,354.091l-.064,0a.786.786,0,0,1-.661-.481l-19.595-46.925a.785.785,0,0,1,.421-1.028l20.27-8.465h0l20.269-8.463a.788.788,0,0,1,1.029.422l19.595,46.924a.786.786,0,0,1-.9,1.069l-25.71-5.74-13.993,22.319A.784.784,0,0,1,281.713,354.091ZM263.145,306.8l18.709,44.8L295.336,330.1a.78.78,0,0,1,.837-.349l24.77,5.531-18.708-44.8Z" transform="translate(-261.333 -288.667)"/><g transform="translate(3.89 8.229)"><path class="c" d="M265.046,313.456l7.838,18.768a86.744,86.744,0,0,0,39.988-18.273l-7.278-17.429Z" transform="translate(-265.046 -296.523)"/></g><path class="b" d="M281.713,354.091l-.064,0a.786.786,0,0,1-.661-.481l-19.595-46.925a.785.785,0,0,1,.421-1.028l20.27-8.465h0l20.269-8.463a.788.788,0,0,1,1.029.422l19.595,46.924a.786.786,0,0,1-.9,1.069l-25.71-5.74-13.993,22.319A.784.784,0,0,1,281.713,354.091ZM263.145,306.8l18.709,44.8L295.336,330.1a.78.78,0,0,1,.837-.349l24.77,5.531-18.708-44.8Z" transform="translate(-261.333 -288.667)"/></g></g><g transform="translate(238.309 2485)"><circle class="d" cx="53.283" cy="53.283" r="53.283" transform="translate(0 105.19) rotate(-80.783)"/><path class="b" d="M270.533,322.771A54.069,54.069,0,1,1,324.6,268.7,54.131,54.131,0,0,1,270.533,322.771Zm0-106.566a52.5,52.5,0,1,0,52.5,52.5A52.558,52.558,0,0,0,270.533,216.205Z" transform="translate(-209.402 -207.573)"/></g><g transform="translate(244.204 2490.896)"><circle class="a" cx="48.144" cy="48.144" r="48.144" transform="translate(0 95.045) rotate(-80.783)"/><path class="e" d="M270.3,317.4a48.93,48.93,0,1,1,48.929-48.93A48.985,48.985,0,0,1,270.3,317.4Zm0-96.289a47.359,47.359,0,1,0,47.358,47.359A47.412,47.412,0,0,0,270.3,221.111Z" transform="translate(-215.065 -213.236)"/></g><g transform="translate(245.241 2491.933)"><circle class="f" cx="47.24" cy="47.24" r="47.24" transform="translate(0 93.261) rotate(-80.783)"/></g><g class="g" transform="translate(263.064 2509.755)"><path class="h" d="M301.216,231.526a48.1,48.1,0,0,1-67.86,67.861,48.112,48.112,0,1,0,67.86-67.861Z" transform="translate(-233.356 -231.526)"/></g><g transform="translate(256.87 2520.292)"><g class="i" transform="translate(3.031 3.343)"><circle class="h" cx="7.576" cy="7.576" r="7.576" transform="translate(16.486)"/><path class="h" d="M272.544,249.406s-.217-2.093-1.876-1.227c0,0-2.381,8.946-10.967,12.842s-12.049-.937-12.049-.937-3.318-1.8-8.008,3.463-8.658,8.3-9.308,20.852c0,0,8.441-13.2,12.193-13.637,0,0,10.895,11.327,1.948,25.541,0,0,20.309-4,18.145-28.355C262.624,267.948,270.668,264.629,272.544,249.406Z" transform="translate(-230.337 -244.626)"/><g transform="translate(39.899)"><circle class="h" cx="7.576" cy="7.576" r="7.576" transform="translate(10.57)"/><path class="h" d="M268.428,249.406s.216-2.093,1.876-1.227c0,0,2.381,8.946,10.966,12.842s12.049-.937,12.049-.937,3.319-1.8,8.009,3.463,8.658,8.3,9.308,20.852c0,0-8.441-13.2-12.193-13.637,0,0-10.895,11.327-1.948,25.541,0,0-20.31-4-18.145-28.355C278.348,267.948,270.3,264.629,268.428,249.406Z" transform="translate(-268.428 -244.626)"/></g></g><circle class="j" cx="7.576" cy="7.576" r="7.576" transform="translate(16.482)"/><path class="j" d="M269.645,246.212v.031a39.625,39.625,0,0,1-1.152,5.813c-2.87,10.265-8.767,12.7-8.767,12.7.911,10.192-2.116,16.812-5.95,21.075a24.468,24.468,0,0,1-12.192,7.28c8.945-14.214-1.948-25.537-1.948-25.537-3.75.429-12.192,13.638-12.192,13.638.649-12.559,4.609-15.586,9.3-20.855,2.158-2.42,4.022-3.352,5.415-3.645a4.058,4.058,0,0,1,2.6.189s3.457,4.829,12.046.932a20.991,20.991,0,0,0,10.537-11.585c.178-.461.293-.817.367-1.037v-.01c.042-.136.063-.209.063-.209a1.733,1.733,0,0,1,.377-.147.438.438,0,0,1,.157-.042.808.808,0,0,1,.157-.021,1.016,1.016,0,0,1,.377.063.98.98,0,0,1,.44.356v.01A2.445,2.445,0,0,1,269.645,246.212Z" transform="translate(-227.443 -241.434)"/><g transform="translate(39.895)"><circle class="j" cx="7.576" cy="7.576" r="7.576" transform="translate(10.57)"/><path class="j" d="M265.53,246.214s.216-2.093,1.876-1.227c0,0,2.381,8.946,10.966,12.843s12.049-.939,12.049-.939,3.319-1.8,8.009,3.463,8.658,8.3,9.308,20.852c0,0-8.441-13.2-12.193-13.637,0,0-10.895,11.328-1.948,25.541,0,0-20.31-4-18.145-28.355C275.45,264.756,267.406,261.438,265.53,246.214Z" transform="translate(-265.53 -241.434)"/></g><path class="k" d="M253.776,285.286a24.468,24.468,0,0,1-12.192,7.28c8.945-14.214-1.948-25.537-1.948-25.537-3.75.429-12.192,13.638-12.192,13.638.649-12.559,4.609-15.586,9.3-20.855,2.158-2.42,4.022-3.352,5.415-3.645C243.291,263.74,246.224,275.534,253.776,285.286Z" transform="translate(-227.443 -240.893)"/></g></g></svg>