<svg xmlns="http://www.w3.org/2000/svg" width="123.721" height="147.188" viewBox="0 0 123.721 147.188"><defs><style>.a{fill:#ffdc00;}.a,.c,.d{stroke:#373737;}.a,.c,.d,.f{stroke-linecap:round;stroke-linejoin:round;stroke-width:1.5px;}.b{fill:#ffaf37;}.c,.f{fill:none;}.d{fill:#285078;}.e{fill:#19b6a7;}.f{stroke:#fff;}.g{fill:#11998b;}.h{opacity:0.42;}.h,.k,.l{mix-blend-mode:multiply;isolation:isolate;}.i,.k{fill:#0e2d47;}.j{fill:#fff;}.k{opacity:0.37;}.l{fill:#e6e7e8;}</style></defs><g transform="translate(-32.926 -118.861)"><g transform="translate(72.863 214.556)"><g transform="translate(0)"><path class="a" d="M93.1,210.452H71.176V261.2L93.1,245.7,115.014,261.2V210.452Z" transform="translate(-71.172 -210.452)"/><g transform="translate(0 8.051)"><path class="b" d="M115.019,218.155v20.3A86.55,86.55,0,0,1,71.172,237V218.155Z" transform="translate(-71.172 -218.155)"/></g></g><path class="c" d="M93.1,210.452H71.176V261.2L93.1,245.7,115.014,261.2V210.452Z" transform="translate(-71.172 -210.452)"/></g><circle class="d" cx="53.17" cy="53.17" r="53.17" transform="translate(33.787 224.688) rotate(-80.783)"/><circle class="e" cx="48.042" cy="48.042" r="48.042" transform="translate(39.67 220.448) rotate(-80.783)"/><circle class="f" cx="48.042" cy="48.042" r="48.042" transform="translate(39.67 220.448) rotate(-80.783)"/><path class="g" d="M125.136,143.355A48,48,0,0,1,57.42,211.071a48.01,48.01,0,1,0,67.716-67.716Z" transform="translate(1.069 1.069)"/><g class="h" transform="translate(64.997 154.108)"><g transform="translate(0)"><path class="i" d="M127.984,172.563l-3.376-3.407-5.059-5.1V162.6l-3.428-3.46V152.62h-2.979v21.438L96.136,186.7a4.521,4.521,0,0,1-5.383,0L73.59,173.932v-.776a7.7,7.7,0,0,1-3.128.722,7.284,7.284,0,0,1-5.144-2.13c-.065-.079-.124-.163-.189-.244l-1.061,1.068a1.4,1.4,0,0,0-.418,1.1h.031v31.556a7.726,7.726,0,0,0,7.693,7.756h49.293a7.717,7.717,0,0,0,7.682-7.756V173.66h.031A1.363,1.363,0,0,0,127.984,172.563Zm-11.863-.721v-8.466l4.829,4.871Z" transform="translate(-63.646 -152.62)"/><path class="i" d="M73.214,158.79v-6.13a1.51,1.51,0,0,0-1.244,1.463v3.05C72.385,157.712,72.805,158.247,73.214,158.79Z" transform="translate(-63.27 -152.618)"/></g></g><g transform="translate(63.575 143.99)"><g transform="translate(0)"><path class="j" d="M124.314,167.785l-4.7-4.745-3.428-3.46v-9.574a1.5,1.5,0,0,0-1.557-1.453H102.95l-4.683-3.909a7.469,7.469,0,0,0-9.522.021l-4.693,3.888H72.23a1.507,1.507,0,0,0-1.557,1.453v9.742L62.7,167.8a1.341,1.341,0,0,0-.408,1.056h.031v30.427a7.482,7.482,0,0,0,7.421,7.473h47.516a7.439,7.439,0,0,0,7.411-7.473V168.841h.031A1.3,1.3,0,0,0,124.314,167.785ZM90.658,146.943a4.484,4.484,0,0,1,5.717.01l.366.314h.01l1.516,1.286H88.724ZM70.673,163.96v8.205l-3.282-2.435-1.4-1.045ZM113.2,174.5,96.2,187.143a4.507,4.507,0,0,1-1.819.8,5,5,0,0,1-.878.084,4.477,4.477,0,0,1-2.686-.888L73.652,174.37V151.532H113.2Zm2.979-2.216v-8.466l4.829,4.871Z" transform="translate(-62.286 -142.94)"/></g></g><path class="k" d="M108.206,169.031a20.386,20.386,0,0,1-3.366,5.16,51.088,51.088,0,0,1-5.446,5.483q-2.054,1.811-4.233,3.466a.417.417,0,0,1-.606.007,72.031,72.031,0,0,1-6.5-5.535,34.872,34.872,0,0,1-5.688-6.808,11.328,11.328,0,0,1-1.709-7.731,6.578,6.578,0,0,1,3.925-5.282,7.4,7.4,0,0,1,4.149-.594,6.973,6.973,0,0,1,4.7,2.627,8.317,8.317,0,0,1,1.389,2.624,11.479,11.479,0,0,1,.838-1.59,7.3,7.3,0,0,1,7.768-3.59,6.348,6.348,0,0,1,5.431,4.96A10.682,10.682,0,0,1,108.206,169.031Z" transform="translate(2.115 1.692)"/><path class="j" d="M106.127,167.035a20.467,20.467,0,0,1-3.366,5.153,50.935,50.935,0,0,1-5.446,5.487c-1.369,1.2-2.791,2.362-4.233,3.47a.42.42,0,0,1-.606,0c-1.077-.815-2.132-1.651-3.157-2.529-1.15-.962-2.268-1.955-3.345-3a34.869,34.869,0,0,1-5.686-6.815,11.326,11.326,0,0,1-1.714-7.724,6.523,6.523,0,0,1,3.261-4.934,5.106,5.106,0,0,1,.669-.355,7.431,7.431,0,0,1,4.15-.585,6.959,6.959,0,0,1,4.7,2.624,8.393,8.393,0,0,1,1.39,2.624,10.774,10.774,0,0,1,.836-1.589,7.314,7.314,0,0,1,7.766-3.6,6.36,6.36,0,0,1,5.435,4.965A10.738,10.738,0,0,1,106.127,167.035Z" transform="translate(2.02 1.601)"/><path class="l" d="M85.515,205.676H69.743a7.482,7.482,0,0,1-7.421-7.473V167.776H62.29a1.341,1.341,0,0,1,.408-1.056S64.349,204.359,85.515,205.676Z" transform="translate(1.289 2.126)"/></g></svg>