<svg xmlns="http://www.w3.org/2000/svg" viewBox="0 0 34 31" width="64" height="58">
	<style>
		tspan { white-space:pre }
		.shp0 { fill: none;stroke: #285078;stroke-linecap:round;stroke-width: 1.5 } 
		.shp1 { fill: none;stroke: #285078;stroke-width: 1.5 } 
		.shp2 { fill: none } 
		.shp3 { fill: #285078 } 
		.shp4 { fill: #ffffff } 
	</style>
	<g id="Layer">
		<g id="Layer">
			<g id="Layer">
				<path id="Layer" class="shp0" d="M7.86 28.15L7.86 10.77L13.35 4.45L21.16 6.84" />
				<path id="Layer" class="shp1" d="M13.35 4.45L13.35 29.71" />
			</g>
			<g id="Layer">
				<path id="Layer" class="shp2" d="M15.5 31C6.93 31 0 24.07 0 15.5C0 6.93 6.93 0 15.5 0C24.07 0 31 6.93 31 15.5C31 24.07 24.07 31 15.5 31Z" />
				<path id="Layer" class="shp1" d="M15.5 30.25C7.34 30.25 0.75 23.66 0.75 15.5C0.75 7.34 7.34 0.75 15.5 0.75C23.66 0.75 30.25 7.34 30.25 15.5C30.25 23.66 23.66 30.25 15.5 30.25Z" />
			</g>
		</g>
		<g id="Layer">
			<g id="Layer">
				<path id="Layer" class="shp3" d="M15.22 25.04L15.22 23.11L15.22 20.82C15.22 16.06 19.1 12.18 23.86 12.18L24.51 12.18L24.51 8.61L24.51 6.68L25.82 8.11L32.42 15.35L32.88 15.86L32.42 16.36L25.82 23.6L24.51 25.03L24.51 23.1L24.51 19.53C21.71 19.63 19.05 20.85 17.15 22.93L16.53 23.61L15.22 25.04Z" />
				<path id="Layer" fill-rule="evenodd" class="shp4" d="M25.26 7.11C25.68 7.11 26.08 7.28 26.37 7.6L32.98 14.84C33.5 15.42 33.5 16.29 32.98 16.87L26.37 24.11C26.08 24.43 25.68 24.6 25.26 24.6C25.08 24.6 24.9 24.56 24.72 24.5C24.14 24.27 23.76 23.72 23.76 23.1L23.76 20.34C21.45 20.61 19.29 21.7 17.71 23.44L17.08 24.12C16.79 24.44 16.39 24.61 15.97 24.61C15.79 24.61 15.61 24.57 15.43 24.51C14.85 24.28 14.47 23.73 14.47 23.11L14.47 20.82C14.47 15.68 18.63 11.49 23.76 11.43L23.76 8.61C23.76 7.99 24.14 7.44 24.72 7.21C24.9 7.15 25.08 7.11 25.26 7.11ZM25.26 8.61L25.26 12.93L23.86 12.93C19.5 12.93 15.97 16.46 15.97 20.82L15.97 23.11L16.6 22.42C18.72 20.1 21.72 18.78 24.86 18.78L25.26 18.78L25.26 23.1L31.87 15.86L25.26 8.61Z" />
			</g>
		</g>
	</g>
</svg>