<svg xmlns="http://www.w3.org/2000/svg" viewBox="0 0 99 95" width="159" height="153">
	<style>
		tspan { white-space:pre }
		.shp0 { fill: #f0f5f7 } 
		.shp1 { fill: #dce4ea } 
		.shp2 { fill: #6f8ba5;stroke: #6f8ba5 } 
		.shp3 { fill: #6f8ba5;stroke: #6f8ba5;stroke-width: 3 } 
	</style>
	<g id="Layer">
		<path id="Layer" class="shp0" d="M93.9 9.87L91.71 4.12L76.11 1.11L21.66 3.03L9.35 3.03L6.61 6.59L3.88 21.91C3.88 21.91 5.79 49.27 5.52 50.09C5.25 50.91 6.61 58.3 6.61 58.3L21.66 60.21L27.68 60.21L29.6 55.01L35.07 52.82L38.08 56.93L38.08 60.21L59.42 60.21L62.43 55.01L65.99 52.82L71.46 55.01L71.46 60.21L88.15 60.21L93.9 56.93L95.27 48.44L93.9 9.87Z" />
		<path id="Layer" class="shp1" d="M41.64 12.03L93.35 52.28L93.35 59.12L80.22 61.31L71.19 61.31L69.82 56.38L66.81 53.92L62.43 53.92L62.43 56.38L59.97 61.31C59.47 61.34 58.97 61.37 58.47 61.39C57.97 61.41 57.46 61.42 56.96 61.42C56.46 61.42 55.96 61.41 55.45 61.39C54.95 61.37 54.45 61.34 53.95 61.31C51.49 61.03 41.64 61.31 41.64 61.31L37.81 56.38L21.12 41.61L26.59 34.49L32.88 31.48L39.45 29.84L45.19 28.47L45.19 17.25L41.64 12.03Z" />
		<path id="Layer" class="shp0" d="M40 69.29L36.16 76.9L30.97 76.9L28.78 73.62L26.31 69.29L7.71 69.29L5.25 73.62L5.25 78.27L3.33 86.48L3.33 90.31L10.99 92.23L90.89 92.23L96.36 90.31L96.36 73.63C96.36 73.63 94.17 72.53 93.35 72.26C92.53 71.98 85.69 69.29 85.69 69.29L76.39 69.29L70.92 70.61C70.92 70.61 72.56 73.35 70.92 74.99C70.58 75.3 70.24 75.6 69.89 75.89C69.54 76.19 69.18 76.47 68.81 76.74C68.45 77.02 68.08 77.28 67.7 77.54C67.32 77.79 66.93 78.04 66.54 78.28L60.8 74.99L59.7 70.61L51.77 69.29L40 69.29Z" />
		<g id="Layer">
			<g id="Layer">
				<path id="Layer" fill-rule="evenodd" class="shp2" d="M45.7 28.91C46.53 29.29 47.31 29.73 48.07 30.23C48.82 30.72 49.53 31.28 50.19 31.89C50.85 32.5 51.47 33.17 52.02 33.87C52.58 34.58 53.09 35.33 53.53 36.12C53.7 36.45 53.87 36.78 54.04 37.12C54.2 37.46 54.36 37.8 54.51 38.14C54.66 38.48 54.81 38.83 54.95 39.18C55.09 39.52 55.22 39.87 55.35 40.23C55.44 40.48 55.47 40.75 55.44 41.02C55.42 41.29 55.34 41.55 55.21 41.79C55.08 42.03 54.9 42.23 54.68 42.4C54.47 42.56 54.22 42.68 53.96 42.74C53.7 42.81 53.43 42.82 53.16 42.79C52.89 42.75 52.64 42.66 52.41 42.52C52.17 42.38 51.97 42.2 51.82 41.98C51.66 41.76 51.54 41.51 51.48 41.25C51.46 41.17 51.44 41.08 51.42 41C51.4 40.92 51.38 40.83 51.36 40.75C51.33 40.66 51.31 40.58 51.28 40.5C51.26 40.42 51.23 40.33 51.2 40.25C50.45 38.12 49.17 36.22 47.5 34.7C45.82 33.19 43.8 32.11 41.61 31.57C39.42 31.03 37.12 31.04 34.94 31.6C32.75 32.16 30.74 33.26 29.08 34.79C28.59 35.21 28.15 35.67 27.73 36.16C27.32 36.65 26.95 37.18 26.62 37.73C26.29 38.27 26 38.85 25.76 39.44C25.52 40.03 25.32 40.64 25.18 41.27C25.04 41.81 24.69 42.27 24.21 42.54C23.73 42.82 23.15 42.88 22.62 42.71C22.09 42.55 21.65 42.17 21.41 41.67C21.17 41.17 21.14 40.59 21.34 40.07C21.42 39.85 21.53 39.64 21.61 39.41C21.97 38.29 22.45 37.2 23.04 36.16C23.62 35.13 24.31 34.16 25.09 33.27C25.87 32.38 26.74 31.57 27.69 30.85C28.64 30.13 29.65 29.51 30.72 29C30.84 28.94 30.96 28.87 31.09 28.8C30.13 27.85 29.39 26.72 28.89 25.47C28.4 24.22 28.16 22.88 28.21 21.54C28.25 20.19 28.57 18.87 29.15 17.66C29.72 16.44 30.54 15.36 31.55 14.47C32.46 13.68 33.5 13.06 34.63 12.65C35.76 12.23 36.95 12.02 38.15 12.03C39.36 12.03 40.55 12.26 41.67 12.7C42.79 13.13 43.82 13.76 44.72 14.57C45.7 15.45 46.5 16.51 47.05 17.71C47.61 18.9 47.92 20.2 47.97 21.51C48.01 22.83 47.79 24.14 47.32 25.37C46.84 26.6 46.12 27.72 45.2 28.67C45.4 28.76 45.55 28.84 45.7 28.91ZM44.28 22.02C44.29 21.21 44.13 20.42 43.82 19.67C43.52 18.93 43.07 18.25 42.5 17.68C41.93 17.11 41.26 16.66 40.52 16.35C39.77 16.05 38.98 15.89 38.17 15.89C35.7 15.88 33.47 17.37 32.52 19.66C31.57 21.94 32.09 24.57 33.84 26.32C35.58 28.07 38.21 28.6 40.5 27.66C42.78 26.72 44.28 24.49 44.28 22.02L44.28 22.02Z" />
				<path id="Layer" class="shp2" d="M72.18 38.04C69.89 38.04 67.6 38.04 65.31 38.04C65.05 37.99 64.79 38.01 64.54 38.09C64.29 38.17 64.07 38.31 63.88 38.49C63.7 38.67 63.56 38.9 63.48 39.15C63.4 39.39 63.38 39.66 63.42 39.91C63.42 40.09 63.42 40.26 63.42 40.44C63.4 40.65 63.43 40.87 63.51 41.07C63.58 41.27 63.69 41.46 63.84 41.61C63.99 41.77 64.17 41.89 64.37 41.97C64.57 42.06 64.78 42.1 65 42.09C69.78 42.12 74.57 42.12 79.35 42.09C79.57 42.1 79.78 42.05 79.98 41.97C80.18 41.88 80.35 41.76 80.5 41.61C80.65 41.45 80.77 41.27 80.85 41.07C80.92 40.87 80.96 40.65 80.95 40.44C81.08 38.61 80.36 37.97 78.62 38.02C76.48 38.08 74.33 38.04 72.18 38.04Z" />
				<path id="Layer" class="shp2" d="M72.16 26.39L65.53 26.39C63.93 26.39 63.41 26.91 63.42 28.52C63.42 28.59 63.42 28.66 63.42 28.73C63.42 28.8 63.42 28.87 63.43 28.94C63.44 29.01 63.44 29.08 63.46 29.15C63.47 29.22 63.48 29.29 63.5 29.36C63.55 29.53 63.63 29.68 63.74 29.82C63.84 29.96 63.97 30.08 64.12 30.18C64.26 30.28 64.42 30.35 64.59 30.4C64.76 30.45 64.93 30.47 65.11 30.46C66.13 30.47 67.16 30.46 68.19 30.46C71.77 30.46 75.36 30.46 78.94 30.46C80.37 30.46 80.94 29.89 80.94 28.45C80.94 26.95 80.38 26.39 78.89 26.39L72.16 26.39Z" />
				<path id="Layer" class="shp2" d="M72.19 18.71C74.48 18.71 76.77 18.71 79.06 18.71C79.31 18.75 79.58 18.73 79.82 18.65C80.07 18.57 80.3 18.43 80.48 18.25C80.66 18.06 80.8 17.84 80.88 17.59C80.96 17.34 80.98 17.08 80.94 16.82C80.94 16.6 80.95 16.38 80.94 16.16C80.93 15.98 80.89 15.81 80.82 15.64C80.75 15.48 80.66 15.33 80.54 15.19C80.42 15.06 80.28 14.95 80.12 14.87C79.96 14.78 79.79 14.73 79.62 14.7C79.58 14.69 79.54 14.69 79.5 14.68C79.46 14.68 79.42 14.67 79.38 14.67C79.34 14.67 79.3 14.66 79.26 14.66C79.22 14.66 79.19 14.66 79.15 14.66C74.5 14.66 69.86 14.65 65.22 14.67C65.12 14.68 65.01 14.69 64.91 14.71C64.81 14.73 64.7 14.75 64.6 14.78C64.5 14.81 64.4 14.85 64.31 14.89C64.21 14.93 64.11 14.98 64.02 15.03C63.93 15.09 63.84 15.16 63.76 15.24C63.69 15.32 63.62 15.41 63.57 15.5C63.51 15.6 63.47 15.71 63.45 15.82C63.42 15.92 63.41 16.03 63.41 16.15C63.4 16.43 63.41 16.71 63.41 17C63.4 17.23 63.43 17.46 63.51 17.68C63.59 17.89 63.71 18.09 63.88 18.25C64.04 18.41 64.24 18.54 64.46 18.62C64.67 18.7 64.9 18.73 65.13 18.71C67.49 18.72 69.84 18.71 72.19 18.71Z" />
			</g>
		</g>
		<path id="Layer" fill-rule="evenodd" class="shp3" d="M56.53 1.5C66.22 1.5 75.91 1.51 85.6 1.51C86.86 1.46 88.12 1.67 89.29 2.13C90.47 2.59 91.53 3.29 92.43 4.18C93.32 5.07 94.02 6.14 94.48 7.31C94.94 8.48 95.15 9.74 95.1 11C95.12 24.88 95.12 38.75 95.1 52.63C95.14 53.88 94.92 55.12 94.46 56.28C93.99 57.44 93.3 58.5 92.42 59.38C91.53 60.27 90.48 60.96 89.32 61.43C88.16 61.89 86.92 62.11 85.67 62.08C84.06 62.08 82.44 62.08 80.83 62.08C77.61 62.08 73.2 62.08 69.98 62.08C69.98 61.1 69.99 60.25 69.98 59.41C70 59.01 69.97 58.6 69.89 58.2C69.82 57.8 69.69 57.41 69.53 57.04C69.36 56.67 69.16 56.32 68.91 56C68.66 55.67 68.38 55.38 68.06 55.12C67.9 54.98 67.71 54.86 67.52 54.75C67.33 54.64 67.13 54.55 66.93 54.48C66.72 54.4 66.51 54.35 66.29 54.31C66.08 54.27 65.86 54.25 65.64 54.25C65.13 54.27 64.62 54.37 64.15 54.57C63.67 54.76 63.24 55.03 62.86 55.37C62.48 55.71 62.16 56.12 61.92 56.57C61.68 57.02 61.52 57.51 61.44 58.01C61.4 58.34 61.36 58.68 61.33 59.01C61.3 59.34 61.27 59.68 61.25 60.01C61.22 60.35 61.21 60.68 61.19 61.01C61.18 61.35 61.17 61.68 61.17 62.02L37.71 62.02C37.71 61.02 37.74 60.07 37.71 59.12C37.72 58.59 37.65 58.07 37.49 57.57C37.33 57.06 37.1 56.59 36.79 56.16C36.48 55.74 36.1 55.36 35.67 55.06C35.25 54.75 34.77 54.52 34.27 54.36C34.2 54.35 34.12 54.33 34.05 54.32C33.98 54.31 33.9 54.3 33.83 54.29C33.76 54.28 33.68 54.27 33.61 54.27C33.54 54.26 33.46 54.26 33.39 54.26C32.83 54.29 32.29 54.41 31.78 54.63C31.27 54.85 30.81 55.17 30.42 55.56C30.02 55.95 29.71 56.41 29.48 56.91C29.25 57.42 29.12 57.96 29.1 58.52C29 59.65 29.08 60.79 29.08 62C28.62 62.03 28.3 62.08 27.98 62.08C25.21 62.08 22.43 62.08 19.66 62.08C17.6 62.08 15.54 62.08 13.48 62.08C12.2 62.13 10.92 61.92 9.73 61.46C8.54 60.99 7.46 60.29 6.55 59.38C5.65 58.48 4.94 57.4 4.48 56.2C4.02 55.01 3.81 53.74 3.86 52.46C3.85 38.69 3.85 24.93 3.86 11.17C3.87 6.48 6.55 2.87 10.81 1.81C11.03 1.76 11.26 1.72 11.48 1.68C11.71 1.64 11.94 1.61 12.17 1.58C12.39 1.56 12.62 1.54 12.85 1.53C13.08 1.52 13.31 1.51 13.54 1.51C27.88 1.5 42.21 1.5 56.54 1.5L56.53 1.5ZM56.54 3.27C42.06 3.27 27.59 3.28 13.54 3.29C13.35 3.28 13.15 3.29 12.96 3.29C12.77 3.3 12.57 3.32 12.38 3.34C12.19 3.36 11.99 3.39 11.8 3.42C11.61 3.45 11.42 3.49 11.23 3.53C7.78 4.39 5.63 7.32 5.63 11.17C5.62 23.99 5.62 37.5 5.63 52.46C5.57 53.5 5.74 54.55 6.11 55.53C6.48 56.5 7.06 57.39 7.8 58.13C8.54 58.87 9.43 59.45 10.41 59.82C11.38 60.2 12.43 60.36 13.48 60.3C15.54 60.31 17.59 60.31 19.65 60.31L27.28 60.31C27.27 59.67 27.27 59.03 27.33 58.37C27.37 57.6 27.56 56.84 27.89 56.14C28.21 55.44 28.66 54.8 29.22 54.26C29.77 53.72 30.42 53.29 31.13 52.99C31.85 52.68 32.61 52.52 33.38 52.49C33.49 52.49 33.6 52.49 33.71 52.5C33.81 52.51 33.92 52.52 34.03 52.53C34.13 52.54 34.24 52.56 34.35 52.57C34.45 52.59 34.56 52.61 34.66 52.64C35.36 52.83 36.01 53.14 36.61 53.55C37.2 53.96 37.73 54.46 38.16 55.04C38.59 55.61 38.93 56.26 39.15 56.94C39.38 57.63 39.49 58.34 39.48 59.06C39.49 59.46 39.49 59.85 39.49 60.25L59.47 60.25C59.47 60.03 59.48 59.82 59.49 59.6C59.5 59.39 59.52 59.18 59.54 58.96C59.56 58.75 59.58 58.54 59.61 58.32C59.63 58.11 59.66 57.9 59.7 57.69C59.81 56.98 60.05 56.3 60.39 55.67C60.74 55.04 61.19 54.48 61.73 54.01C62.27 53.54 62.88 53.16 63.55 52.9C64.21 52.64 64.92 52.5 65.64 52.48C65.96 52.48 66.27 52.51 66.59 52.56C66.9 52.61 67.21 52.7 67.51 52.8C67.81 52.91 68.1 53.04 68.38 53.2C68.66 53.35 68.92 53.53 69.17 53.74C69.59 54.07 69.97 54.46 70.3 54.88C70.62 55.31 70.9 55.77 71.13 56.26C71.35 56.75 71.52 57.26 71.62 57.79C71.73 58.32 71.77 58.85 71.75 59.39C71.75 59.7 71.75 60 71.75 60.31L80.83 60.31C82.44 60.31 84.05 60.31 85.66 60.31C86.68 60.34 87.69 60.16 88.64 59.79C89.58 59.41 90.44 58.85 91.16 58.13C91.88 57.41 92.44 56.55 92.82 55.6C93.19 54.65 93.36 53.64 93.33 52.62C93.35 36.6 93.35 23.38 93.33 11C93.38 9.97 93.21 8.95 92.84 7.99C92.46 7.03 91.9 6.16 91.17 5.44C90.44 4.71 89.57 4.14 88.61 3.77C87.66 3.4 86.63 3.23 85.6 3.28C75.92 3.27 66.23 3.27 56.53 3.27L56.54 3.27Z" />
		<path id="Layer" fill-rule="evenodd" class="shp3" d="M19.06 69.3C22.16 69.3 25.25 69.31 28.34 69.31C28.4 69.32 28.45 69.32 28.5 69.33C28.55 69.33 28.6 69.34 28.65 69.35C28.7 69.35 28.75 69.36 28.8 69.37C28.85 69.38 28.9 69.39 28.95 69.4C28.95 69.57 28.94 69.75 28.94 69.93C28.93 70.11 28.93 70.29 28.93 70.47C28.93 70.65 28.94 70.83 28.94 71.01C28.95 71.19 28.96 71.37 28.97 71.55C28.98 71.79 29 72.03 29.03 72.26C29.06 72.5 29.1 72.73 29.14 72.97C29.18 73.2 29.23 73.43 29.29 73.66C29.35 73.89 29.42 74.12 29.49 74.35C29.63 74.74 29.83 75.1 30.08 75.43C30.34 75.76 30.64 76.05 30.98 76.29C31.31 76.53 31.69 76.72 32.08 76.84C32.48 76.97 32.89 77.03 33.31 77.04C33.35 77.03 33.38 77.03 33.42 77.03C33.46 77.03 33.5 77.03 33.53 77.03C33.57 77.03 33.61 77.02 33.65 77.02C33.69 77.02 33.72 77.01 33.76 77.01C34.23 76.94 34.68 76.8 35.1 76.59C35.52 76.38 35.91 76.1 36.24 75.77C36.58 75.44 36.85 75.05 37.07 74.63C37.28 74.21 37.42 73.76 37.49 73.3C37.7 72.04 37.68 70.74 37.76 69.38L61.23 69.38C61.23 70.25 61.21 71.02 61.24 71.79C61.24 71.93 61.25 72.07 61.26 72.2C61.27 72.34 61.28 72.48 61.3 72.62C61.31 72.75 61.33 72.89 61.35 73.02C61.37 73.16 61.4 73.3 61.43 73.43C61.52 73.92 61.69 74.39 61.93 74.82C62.18 75.26 62.5 75.64 62.87 75.97C63.25 76.29 63.68 76.55 64.14 76.74C64.6 76.92 65.09 77.02 65.59 77.04C65.67 77.04 65.75 77.04 65.83 77.03C66.35 76.98 66.86 76.83 67.33 76.6C67.81 76.36 68.23 76.05 68.6 75.67C68.96 75.29 69.26 74.85 69.47 74.37C69.69 73.89 69.81 73.37 69.85 72.85C69.95 71.72 69.87 70.58 69.87 69.45C69.91 69.43 69.96 69.42 70.01 69.4C70.06 69.39 70.1 69.38 70.15 69.37C70.2 69.36 70.25 69.35 70.3 69.34C70.34 69.33 70.39 69.32 70.44 69.31C76.38 69.35 82.32 69.3 88.26 69.49C88.68 69.53 89.09 69.59 89.51 69.67C89.92 69.74 90.33 69.83 90.74 69.94C91.15 70.04 91.55 70.17 91.95 70.3C92.35 70.44 92.75 70.59 93.13 70.75C93.42 70.85 93.69 70.99 93.94 71.17C94.18 71.35 94.4 71.57 94.58 71.81C94.76 72.05 94.91 72.32 95.01 72.61C95.11 72.9 95.17 73.2 95.18 73.5C95.8 78.44 96.57 83.35 97.27 88.28C97.55 90.21 97.18 90.93 95.39 91.78C94.84 92.02 94.28 92.23 93.71 92.41C93.14 92.59 92.56 92.74 91.97 92.85C91.38 92.97 90.78 93.05 90.19 93.1C89.59 93.15 88.99 93.16 88.39 93.14L47.66 93.14C35.37 93.14 23.09 93.14 10.8 93.15L10.78 93.15C10.21 93.17 9.64 93.16 9.07 93.12C8.5 93.09 7.94 93.02 7.38 92.93C6.81 92.84 6.26 92.72 5.71 92.57C5.16 92.42 4.61 92.24 4.08 92.04C3.9 91.97 3.73 91.89 3.55 91.81C3.38 91.72 3.21 91.63 3.05 91.52C2.89 91.42 2.73 91.31 2.58 91.19C2.43 91.07 2.28 90.95 2.14 90.82C2.04 90.71 1.95 90.59 1.87 90.46C1.79 90.33 1.72 90.19 1.67 90.05C1.61 89.91 1.57 89.76 1.55 89.62C1.52 89.47 1.52 89.32 1.52 89.16C2.22 83.9 3.03 78.66 3.73 73.4C3.76 73.11 3.83 72.84 3.93 72.57C4.04 72.31 4.17 72.06 4.34 71.83C4.51 71.6 4.71 71.4 4.93 71.22C5.15 71.04 5.4 70.89 5.66 70.78C6.18 70.53 6.72 70.31 7.27 70.12C7.82 69.93 8.38 69.77 8.95 69.65C9.51 69.53 10.09 69.44 10.67 69.39C11.25 69.33 11.83 69.31 12.41 69.33C14.63 69.31 16.85 69.3 19.07 69.3L19.06 69.3ZM19.07 71.07C16.5 71.07 14.39 71.08 12.43 71.1C11.91 71.08 11.4 71.1 10.89 71.14C10.38 71.19 9.88 71.26 9.37 71.37C8.87 71.47 8.38 71.61 7.89 71.77C7.41 71.94 6.93 72.13 6.47 72.35C6.34 72.4 6.21 72.47 6.1 72.55C5.98 72.63 5.88 72.73 5.79 72.84C5.7 72.96 5.63 73.08 5.58 73.22C5.53 73.35 5.5 73.49 5.49 73.63C5.14 76.23 4.76 78.87 4.39 81.42C4.02 84 3.64 86.68 3.29 89.32C3.29 89.34 3.3 89.36 3.31 89.39C3.32 89.41 3.33 89.43 3.34 89.46C3.35 89.48 3.36 89.5 3.38 89.52C3.39 89.54 3.4 89.56 3.42 89.58C3.52 89.67 3.62 89.76 3.72 89.84C3.83 89.92 3.94 89.99 4.05 90.06C4.17 90.13 4.28 90.19 4.4 90.25C4.52 90.31 4.64 90.36 4.77 90.4C5.25 90.58 5.73 90.73 6.23 90.87C6.72 91 7.22 91.1 7.73 91.18C8.23 91.26 8.74 91.32 9.25 91.35C9.76 91.38 10.27 91.39 10.78 91.37L10.8 91.37C20.57 91.37 30.34 91.37 40.11 91.37L88.38 91.37C88.92 91.39 89.45 91.38 89.98 91.34C90.52 91.3 91.05 91.23 91.57 91.13C92.09 91.03 92.61 90.9 93.12 90.74C93.63 90.58 94.13 90.39 94.62 90.18C95.41 89.8 95.52 89.62 95.53 89.6C95.54 89.58 95.63 89.39 95.51 88.53C95.3 87.09 95.09 85.64 94.88 84.19C94.37 80.77 93.86 77.23 93.41 73.73C93.29 72.77 92.91 72.56 92.54 72.43L91.96 72.22C91.66 72.09 91.35 71.98 91.04 71.88C90.74 71.77 90.42 71.68 90.11 71.6C89.79 71.52 89.48 71.45 89.16 71.39C88.84 71.34 88.51 71.29 88.19 71.26C83.84 71.12 79.39 71.11 75.09 71.1C73.96 71.1 72.81 71.09 71.66 71.09C71.66 71.25 71.66 71.41 71.66 71.57C71.66 71.73 71.66 71.89 71.65 72.04C71.65 72.2 71.64 72.36 71.64 72.52C71.63 72.68 71.62 72.84 71.6 73C71.55 73.73 71.36 74.45 71.06 75.12C70.75 75.79 70.33 76.4 69.82 76.93C69.3 77.45 68.7 77.89 68.03 78.21C67.37 78.52 66.66 78.72 65.92 78.8C65.81 78.81 65.69 78.81 65.58 78.81C64.88 78.79 64.2 78.65 63.55 78.4C62.9 78.15 62.3 77.79 61.77 77.35C61.24 76.9 60.79 76.36 60.43 75.76C60.08 75.17 59.83 74.51 59.69 73.83C59.66 73.67 59.63 73.51 59.6 73.34C59.57 73.18 59.55 73.02 59.53 72.85C59.51 72.69 59.49 72.52 59.48 72.35C59.47 72.19 59.46 72.02 59.46 71.86C59.45 71.62 59.44 71.38 59.44 71.14L39.46 71.14C39.45 71.35 39.45 71.55 39.43 71.75C39.42 71.96 39.41 72.16 39.39 72.36C39.37 72.57 39.35 72.77 39.33 72.97C39.3 73.17 39.28 73.38 39.24 73.58C39.14 74.23 38.94 74.87 38.63 75.46C38.33 76.05 37.93 76.58 37.46 77.05C36.98 77.51 36.44 77.9 35.84 78.19C35.25 78.48 34.61 78.68 33.95 78.77C33.9 78.77 33.84 78.78 33.79 78.78C33.74 78.79 33.68 78.79 33.63 78.79C33.58 78.8 33.52 78.8 33.47 78.8C33.42 78.8 33.36 78.8 33.31 78.8C32.72 78.8 32.13 78.71 31.56 78.54C31 78.36 30.46 78.1 29.98 77.76C29.49 77.42 29.06 77.01 28.7 76.54C28.34 76.07 28.05 75.55 27.84 74.99C27.76 74.76 27.69 74.52 27.62 74.28C27.55 74.04 27.49 73.79 27.44 73.55C27.39 73.3 27.35 73.06 27.32 72.81C27.29 72.56 27.26 72.31 27.24 72.06C27.23 71.95 27.22 71.85 27.21 71.74C27.18 71.52 27.17 71.29 27.16 71.08L24.05 71.07C22.39 71.07 20.73 71.06 19.06 71.06L19.07 71.07Z" />
	</g>
</svg>