<svg xmlns="http://www.w3.org/2000/svg" width="122.26" height="146.674" viewBox="0 0 122.26 146.674"><defs><style>.a{fill:#ffdc00;}.b{fill:#373737;}.c{fill:#ffaf37;}.d{fill:#285078;}.e{fill:#19b6a7;}.f{fill:#fff;}.g{fill:#11998b;}.h{opacity:0.42;}.i{fill:#0e2d47;}.j{fill:#e6e7e8;}</style></defs><g transform="translate(-55 -2485)"><g transform="translate(93.378 2579.25)"><path class="a" d="M94.074,298.623H72.108v50.852L94.074,333.95l21.966,15.525V298.623Z" transform="translate(-71.322 -297.837)"/><path class="b" d="M116.075,350.3a.783.783,0,0,1-.454-.145l-21.512-15.2L72.6,350.152a.785.785,0,0,1-1.239-.641V298.659a.786.786,0,0,1,.786-.786h43.931a.786.786,0,0,1,.786.786v50.852a.785.785,0,0,1-.786.786ZM94.11,333.2a.792.792,0,0,1,.454.143l20.726,14.65v-48.55H72.929v48.55l20.727-14.65A.787.787,0,0,1,94.11,333.2Z" transform="translate(-71.358 -297.873)"/><g transform="translate(0.781 8.854)"><path class="c" d="M116.046,306.326v20.34a84.827,84.827,0,0,1-29.91,1.487,85.57,85.57,0,0,1-14.032-2.94V306.326Z" transform="translate(-72.104 -306.326)"/></g><path class="b" d="M116.075,350.3a.783.783,0,0,1-.454-.145l-21.512-15.2L72.6,350.152a.785.785,0,0,1-1.239-.641V298.659a.786.786,0,0,1,.786-.786h43.931a.786.786,0,0,1,.786.786v50.852a.785.785,0,0,1-.786.786ZM94.11,333.2a.792.792,0,0,1,.454.143l20.726,14.65v-48.55H72.929v48.55l20.727-14.65A.787.787,0,0,1,94.11,333.2Z" transform="translate(-71.358 -297.873)"/></g><g transform="translate(55 2485)"><circle class="d" cx="53.283" cy="53.283" r="53.283" transform="translate(0 105.19) rotate(-80.783)"/><path class="b" d="M95.529,322.771A54.069,54.069,0,1,1,149.6,268.7,54.13,54.13,0,0,1,95.529,322.771Zm0-106.566a52.5,52.5,0,1,0,52.5,52.5A52.557,52.557,0,0,0,95.529,216.205Z" transform="translate(-34.399 -207.573)"/></g><g transform="translate(60.896 2490.896)"><circle class="e" cx="48.144" cy="48.144" r="48.144" transform="translate(0 95.045) rotate(-80.783)"/></g><g transform="translate(67.201 2497.2)"><path class="f" d="M95.3,317.4a48.93,48.93,0,1,1,48.93-48.93A48.985,48.985,0,0,1,95.3,317.4Zm0-96.289a47.359,47.359,0,1,0,47.359,47.359A47.412,47.412,0,0,0,95.3,221.111Z" transform="translate(-46.367 -219.54)"/></g><g transform="translate(79.756 2509.755)"><path class="g" d="M126.213,231.526a48.1,48.1,0,0,1-67.86,67.861,48.112,48.112,0,1,0,67.86-67.861Z" transform="translate(-58.353 -231.526)"/></g><g transform="translate(75.081 2520.292)"><g class="h" transform="translate(3.031 3.343)"><circle class="i" cx="7.576" cy="7.576" r="7.576" transform="translate(16.487)"/><path class="i" d="M98.991,249.406s-.216-2.093-1.876-1.227c0,0-2.381,8.946-10.966,12.842s-12.049-.937-12.049-.937-3.319-1.8-8.009,3.463-8.658,8.3-9.308,20.852c0,0,8.441-13.2,12.193-13.637,0,0,10.895,11.327,1.948,25.541,0,0,20.31-4,18.145-28.355C89.071,267.948,97.115,264.629,98.991,249.406Z" transform="translate(-56.784 -244.626)"/><g transform="translate(39.899)"><circle class="i" cx="7.576" cy="7.576" r="7.576" transform="translate(10.57)"/><path class="i" d="M94.875,249.406s.217-2.093,1.876-1.227c0,0,2.381,8.946,10.967,12.842s12.049-.937,12.049-.937,3.318-1.8,8.008,3.463,8.658,8.3,9.308,20.852c0,0-8.441-13.2-12.193-13.637,0,0-10.895,11.327-1.947,25.541,0,0-20.31-4-18.146-28.355C104.8,267.948,96.751,264.629,94.875,249.406Z" transform="translate(-94.875 -244.626)"/></g></g><circle class="f" cx="7.576" cy="7.576" r="7.576" transform="translate(16.482)"/><path class="f" d="M96.092,246.212v.031a39.623,39.623,0,0,1-1.152,5.813c-2.87,10.265-8.767,12.7-8.767,12.7.911,10.192-2.116,16.812-5.95,21.075a24.468,24.468,0,0,1-12.192,7.28c8.945-14.214-1.948-25.537-1.948-25.537-3.75.429-12.192,13.638-12.192,13.638.649-12.559,4.609-15.586,9.3-20.855,2.158-2.42,4.022-3.352,5.415-3.645a4.058,4.058,0,0,1,2.6.189s3.457,4.829,12.046.932a20.991,20.991,0,0,0,10.537-11.585c.178-.461.293-.817.367-1.037v-.01c.042-.136.063-.209.063-.209a1.733,1.733,0,0,1,.377-.147.439.439,0,0,1,.157-.042.808.808,0,0,1,.157-.021,1.016,1.016,0,0,1,.377.063.981.981,0,0,1,.44.356v.01A2.445,2.445,0,0,1,96.092,246.212Z" transform="translate(-53.89 -241.434)"/><g transform="translate(39.895)"><circle class="f" cx="7.576" cy="7.576" r="7.576" transform="translate(10.57)"/><path class="f" d="M91.977,246.214s.217-2.093,1.876-1.227c0,0,2.381,8.946,10.967,12.843s12.049-.939,12.049-.939,3.318-1.8,8.009,3.463,8.657,8.3,9.307,20.852c0,0-8.441-13.2-12.193-13.637,0,0-10.895,11.328-1.947,25.541,0,0-20.31-4-18.146-28.355C101.9,264.756,93.853,261.438,91.977,246.214Z" transform="translate(-91.977 -241.434)"/></g><path class="j" d="M80.223,285.286a24.468,24.468,0,0,1-12.192,7.28c8.945-14.214-1.948-25.537-1.948-25.537-3.75.429-12.192,13.638-12.192,13.638.649-12.559,4.609-15.586,9.3-20.855,2.158-2.42,4.022-3.352,5.415-3.645C69.738,263.74,72.671,275.534,80.223,285.286Z" transform="translate(-53.89 -240.893)"/></g></g></svg>