<svg xmlns="http://www.w3.org/2000/svg" viewBox="0 0 31 31" width="61" height="61">
	<style>
		tspan { white-space:pre }
		.shp0 { fill: #285078 } 
		.shp1 { fill: none;stroke: #285078;stroke-linecap:round;stroke-width: 1.5 } 
		.shp2 { fill: none;stroke: #285078;stroke-width: 1.5 } 
		.shp3 { fill: none } 
	</style>
	<g id="Layer">
		<g id="Layer">
			<g id="Layer">
				<g id="Layer">
					<path id="Layer" class="shp0" d="M20.35 9.42C21.82 9.42 22.46 9.79 22.46 10.58C22.46 11.16 22.34 11.95 22.17 13.42C21.68 17.46 21.36 17.28 20.99 21.74C20.82 22.01 19.81 22.01 19.66 21.74C19.32 17.28 19.03 17.46 18.49 13.42C18.32 11.95 18.19 11.16 18.19 10.58C18.19 9.79 18.85 9.42 20.3 9.42L20.35 9.42ZM22.4 24.92C22.4 25.76 21.9 26.52 21.12 26.84C20.35 27.16 19.45 26.99 18.86 26.39C18.27 25.8 18.09 24.91 18.41 24.13C18.73 23.36 19.49 22.85 20.33 22.85C20.6 22.85 20.87 22.9 21.12 23.01C21.37 23.11 21.6 23.27 21.79 23.46C21.99 23.65 22.14 23.88 22.24 24.13C22.35 24.38 22.4 24.65 22.4 24.92L22.4 24.92Z" />
				</g>
			</g>
		</g>
		<g id="Layer">
			<path id="Layer" class="shp1" d="M7.86 28.15L7.86 10.77L13.35 4.45L21.16 6.84" />
			<path id="Layer" class="shp2" d="M13.35 4.45L13.35 29.71" />
		</g>
		<g id="Layer">
			<path id="Layer" class="shp3" d="M15.5 31C6.93 31 0 24.07 0 15.5C0 6.93 6.93 0 15.5 0C24.07 0 31 6.93 31 15.5C31 24.07 24.07 31 15.5 31Z" />
			<path id="Layer" class="shp2" d="M15.5 30.25C7.34 30.25 0.75 23.66 0.75 15.5C0.75 7.34 7.34 0.75 15.5 0.75C23.66 0.75 30.25 7.34 30.25 15.5C30.25 23.66 23.66 30.25 15.5 30.25Z" />
		</g>
	</g>
</svg>