<svg xmlns="http://www.w3.org/2000/svg" viewBox="0 0 119 98" width="150" height="124">
	<style>
		tspan { white-space:pre }
		.shp0 { fill: #edced0 } 
		.shp1 { fill: #f0f5f7 } 
		.shp2 { fill: #6f8ba5;stroke: #6f8ba5;stroke-width: 1.5 } 
		.shp3 { fill: #e57676 } 
		.shp4 { fill: #dce4ea } 
	</style>
	<g id="Layer">
		<g id="Layer">
			<path id="Layer" class="shp0" d="M66.9 14.45C66.9 12.24 67.54 10.08 68.74 8.23C69.94 6.37 71.65 4.91 73.67 4.01C75.68 3.11 77.92 2.82 80.1 3.16C82.28 3.5 84.31 4.47 85.96 5.95C86.47 5.48 87.03 5.06 87.62 4.69C88.22 4.33 88.84 4.02 89.5 3.77C90.15 3.52 90.82 3.33 91.5 3.2C92.19 3.08 92.89 3.02 93.58 3.02C95.08 3.02 96.57 3.32 97.95 3.89C99.34 4.47 100.6 5.31 101.66 6.38C102.72 7.44 103.56 8.7 104.13 10.08C104.7 11.47 105 12.96 105 14.46C105 23.61 87.25 38.35 86.5 38.97C86.42 39.03 86.34 39.08 86.24 39.11C86.15 39.14 86.06 39.16 85.96 39.16C85.86 39.16 85.76 39.14 85.67 39.11C85.58 39.08 85.49 39.03 85.42 38.97C84.66 38.34 66.9 23.6 66.9 14.45Z" />
			<path id="Layer" class="shp1" d="M114.36 57.65L66.59 92.03C66.18 92.29 65.75 92.52 65.31 92.72C64.87 92.92 64.41 93.09 63.95 93.22C63.48 93.36 63.01 93.46 62.53 93.53C62.05 93.6 61.56 93.63 61.08 93.63C60.72 93.63 60.37 93.62 60.02 93.58C59.66 93.54 59.31 93.49 58.96 93.41C58.62 93.34 58.27 93.25 57.93 93.14C57.6 93.03 57.26 92.9 56.94 92.76L23.92 78.21L23.92 79.84C23.92 80.3 23.83 80.76 23.65 81.18C23.47 81.61 23.22 81.99 22.89 82.32C22.56 82.65 22.18 82.9 21.75 83.08C21.33 83.26 20.87 83.35 20.41 83.35L4.26 83.35C3.8 83.35 3.34 83.26 2.91 83.08C2.49 82.9 2.1 82.65 1.78 82.32C1.45 81.99 1.19 81.61 1.02 81.18C0.84 80.76 0.75 80.3 0.75 79.84L0.75 37.22C0.75 36.76 0.84 36.31 1.02 35.88C1.19 35.46 1.45 35.07 1.78 34.74C2.1 34.42 2.49 34.16 2.92 33.98C3.34 33.81 3.8 33.72 4.26 33.72L20.41 33.72C20.87 33.72 21.33 33.81 21.75 33.98C22.18 34.16 22.56 34.42 22.89 34.74C23.21 35.07 23.47 35.45 23.65 35.88C23.83 36.31 23.92 36.76 23.92 37.22L23.92 38.43C30.17 35.94 40.77 32.57 55.15 42.38L73.55 43.07C74.78 43.11 75.97 43.47 77.03 44.1C78.08 44.73 78.95 45.62 79.57 46.68C80.19 47.74 80.53 48.94 80.56 50.17C80.59 51.39 80.31 52.61 79.74 53.7L106.45 43.15C108.34 42.35 110.47 42.28 112.41 42.96C114.35 43.64 115.97 45.02 116.96 46.82C117.94 48.63 118.22 50.74 117.74 52.74C117.26 54.74 116.05 56.49 114.36 57.65L114.36 57.65Z" />
		</g>
		<path id="Layer" class="shp2" d="M49.97 96.75C49.94 96.75 49.91 96.75 49.88 96.74C49.85 96.74 49.82 96.73 49.79 96.73C49.76 96.72 49.73 96.71 49.71 96.7C49.68 96.69 49.65 96.68 49.62 96.67L48.74 96.26C48.52 96.18 48.35 96.01 48.26 95.8C48.17 95.59 48.17 95.35 48.26 95.14C48.35 94.92 48.53 94.76 48.74 94.68C48.96 94.59 49.2 94.6 49.4 94.7L49.45 94.72L50.33 95.13C50.51 95.21 50.65 95.35 50.73 95.52C50.82 95.69 50.84 95.89 50.8 96.08C50.76 96.27 50.66 96.44 50.51 96.56C50.36 96.68 50.17 96.75 49.98 96.75L49.97 96.75Z" />
		<path id="Layer" class="shp2" d="M44.76 93.8C44.73 93.8 44.7 93.8 44.67 93.79C44.64 93.79 44.61 93.79 44.58 93.78C44.55 93.77 44.52 93.77 44.49 93.76C44.46 93.75 44.43 93.73 44.4 93.72L31.92 87.96C31.71 87.87 31.55 87.7 31.48 87.48C31.4 87.27 31.41 87.04 31.5 86.83C31.6 86.63 31.77 86.47 31.98 86.39C32.19 86.32 32.42 86.33 32.63 86.42L45.11 92.18C45.29 92.26 45.43 92.4 45.52 92.57C45.6 92.75 45.63 92.94 45.59 93.13C45.55 93.32 45.44 93.49 45.29 93.61C45.14 93.73 44.95 93.8 44.76 93.8L44.76 93.8Z" />
		<path id="Layer" class="shp3" d="M92.09 15.06C92.97 23.13 86.41 36.86 86.41 36.86L84.21 37.43L76.64 29.86L70.79 21.72L68.02 16.64L68.02 12.42L69.45 9.07L70.79 6.58L73.19 5.14L75.59 4.56L82.87 4.56C82.87 4.56 91.2 6.98 92.09 15.06Z" />
		<path id="Layer" fill-rule="evenodd" class="shp2" d="M8.39 74.17C7.73 72.57 8.09 70.74 9.31 69.51C10.54 68.29 12.37 67.93 13.97 68.59C15.56 69.25 16.6 70.81 16.6 72.53C16.6 73.09 16.49 73.65 16.28 74.17C16.07 74.69 15.75 75.16 15.35 75.55C14.96 75.95 14.49 76.27 13.97 76.48C13.45 76.69 12.89 76.81 12.33 76.81C10.61 76.81 9.05 75.76 8.39 74.17ZM12.33 69.96C11.29 69.96 10.36 70.59 9.96 71.55C9.56 72.51 9.78 73.62 10.52 74.35C11.25 75.09 12.36 75.31 13.32 74.91C14.28 74.51 14.91 73.57 14.91 72.53C14.9 72.2 14.84 71.86 14.71 71.55C14.58 71.24 14.39 70.96 14.15 70.72C13.91 70.48 13.63 70.29 13.32 70.17C13 70.04 12.67 69.97 12.33 69.97L12.33 69.96Z" />
		<path id="Layer" class="shp2" d="M110.01 16.54C109.89 16.54 109.76 16.52 109.65 16.46C109.54 16.41 109.44 16.33 109.36 16.24C109.28 16.14 109.22 16.03 109.19 15.91C109.16 15.79 109.15 15.66 109.18 15.54C109.21 15.37 109.24 15.19 109.27 15.02C109.29 14.85 109.32 14.67 109.33 14.5C109.35 14.32 109.37 14.15 109.38 13.98C109.39 13.8 109.39 13.63 109.4 13.45C109.39 12.4 109.28 11.36 109.06 10.34C108.84 9.32 108.51 8.32 108.08 7.37C107.65 6.42 107.12 5.51 106.5 4.67C105.88 3.83 105.17 3.06 104.39 2.37C104.21 2.23 104.09 2.03 104.06 1.8C104.03 1.58 104.09 1.35 104.23 1.18C104.37 1 104.57 0.88 104.79 0.85C105.02 0.82 105.24 0.88 105.42 1.02C105.43 1.02 105.44 1.03 105.44 1.04C105.45 1.04 105.46 1.05 105.47 1.05C105.47 1.06 105.48 1.07 105.49 1.08C105.5 1.08 105.5 1.09 105.51 1.1C106.38 1.87 107.17 2.73 107.86 3.67C108.56 4.61 109.15 5.61 109.63 6.68C110.11 7.74 110.47 8.85 110.72 9.99C110.97 11.13 111.09 12.29 111.1 13.45C111.09 13.66 111.09 13.86 111.08 14.06C111.06 14.26 111.05 14.46 111.03 14.66C111.01 14.86 110.98 15.06 110.95 15.26C110.92 15.46 110.89 15.66 110.85 15.85C110.83 15.95 110.79 16.04 110.74 16.13C110.69 16.21 110.63 16.29 110.55 16.35C110.48 16.41 110.39 16.46 110.3 16.49C110.21 16.53 110.11 16.54 110.01 16.54L110.01 16.54Z" />
		<path id="Layer" class="shp2" d="M108.31 22.43C108.16 22.43 108.02 22.39 107.9 22.32C107.77 22.25 107.66 22.15 107.59 22.03C107.51 21.9 107.47 21.76 107.46 21.62C107.45 21.47 107.48 21.33 107.55 21.2C107.66 20.98 107.76 20.76 107.86 20.54C107.95 20.33 108.12 20.17 108.32 20.08C108.53 19.99 108.77 19.99 108.97 20.08C109.18 20.16 109.35 20.33 109.43 20.54C109.52 20.74 109.52 20.98 109.44 21.19C109.43 21.2 109.42 21.22 109.41 21.24C109.31 21.48 109.19 21.72 109.07 21.96C109.04 22.03 108.99 22.1 108.94 22.15C108.89 22.21 108.82 22.26 108.76 22.3C108.69 22.34 108.62 22.38 108.54 22.4C108.47 22.42 108.39 22.43 108.31 22.43L108.31 22.43Z" />
		<path id="Layer" fill-rule="evenodd" class="shp2" d="M85.81 39.15C85.76 39.14 85.72 39.12 85.67 39.11C85.63 39.09 85.58 39.07 85.54 39.05C85.5 39.02 85.46 39 85.42 38.96C84.66 38.34 66.9 23.6 66.9 14.45C66.9 12.24 67.54 10.08 68.74 8.23C69.94 6.38 71.65 4.91 73.67 4.01C75.68 3.11 77.92 2.82 80.1 3.16C82.28 3.51 84.31 4.47 85.96 5.95C86.47 5.48 87.03 5.06 87.62 4.7C88.22 4.33 88.84 4.02 89.5 3.77C90.15 3.52 90.82 3.33 91.51 3.21C92.19 3.08 92.89 3.02 93.58 3.02C95.08 3.03 96.57 3.32 97.95 3.9C99.34 4.47 100.6 5.32 101.66 6.38C102.71 7.44 103.56 8.7 104.13 10.08C104.7 11.47 105 12.95 105 14.45C105 23.61 87.25 38.34 86.5 38.97C86.46 39 86.42 39.03 86.38 39.05C86.34 39.07 86.29 39.09 86.25 39.11C86.2 39.13 86.15 39.14 86.1 39.15C86.06 39.15 86.01 39.16 85.96 39.16C85.91 39.16 85.86 39.15 85.81 39.15ZM78.31 4.72C77.04 4.72 75.77 4.97 74.59 5.46C73.41 5.95 72.34 6.67 71.44 7.58C70.54 8.48 69.82 9.55 69.34 10.73C68.85 11.91 68.6 13.18 68.6 14.45C68.6 21.98 82.97 34.65 85.96 37.2C88.95 34.65 103.3 21.98 103.3 14.45C103.3 13.18 103.05 11.91 102.56 10.73C102.07 9.55 101.36 8.48 100.45 7.58C99.55 6.68 98.48 5.96 97.3 5.47C96.12 4.98 94.86 4.72 93.58 4.72C92.93 4.72 92.28 4.78 91.64 4.91C90.99 5.04 90.37 5.24 89.77 5.5C89.17 5.75 88.59 6.07 88.06 6.45C87.52 6.82 87.02 7.25 86.57 7.72C86.49 7.8 86.4 7.87 86.29 7.91C86.19 7.96 86.07 7.98 85.96 7.98C85.85 7.98 85.73 7.96 85.63 7.91C85.52 7.87 85.43 7.8 85.35 7.72C84.9 7.25 84.4 6.82 83.86 6.45C83.32 6.07 82.74 5.75 82.14 5.5C81.54 5.24 80.91 5.04 80.27 4.91C79.62 4.78 78.97 4.71 78.32 4.72L78.31 4.72Z" />
		<path id="Layer" fill-rule="evenodd" class="shp2" d="M4.26 83.35C3.8 83.35 3.34 83.26 2.91 83.08C2.49 82.9 2.1 82.64 1.78 82.32C1.45 81.99 1.19 81.61 1.02 81.18C0.84 80.76 0.75 80.3 0.75 79.84L0.75 37.22C0.75 36.76 0.84 36.3 1.02 35.88C1.19 35.45 1.45 35.07 1.78 34.74C2.1 34.42 2.49 34.16 2.92 33.98C3.34 33.8 3.8 33.71 4.26 33.71L20.41 33.71C20.87 33.71 21.33 33.8 21.75 33.98C22.18 34.16 22.56 34.42 22.89 34.74C23.22 35.07 23.47 35.45 23.65 35.88C23.83 36.3 23.92 36.76 23.92 37.22L23.92 79.84C23.92 80.3 23.83 80.76 23.65 81.18C23.47 81.61 23.22 81.99 22.89 82.32C22.56 82.64 22.18 82.9 21.75 83.08C21.33 83.26 20.87 83.35 20.41 83.35L4.26 83.35ZM4.26 35.41C4.02 35.41 3.78 35.46 3.56 35.55C3.35 35.64 3.15 35.77 2.98 35.94C2.81 36.11 2.68 36.31 2.59 36.53C2.49 36.75 2.45 36.98 2.45 37.22L2.45 79.84C2.45 80.08 2.49 80.31 2.58 80.53C2.68 80.75 2.81 80.95 2.98 81.12C3.14 81.29 3.34 81.42 3.56 81.51C3.78 81.6 4.02 81.65 4.25 81.65L20.41 81.65C20.65 81.65 20.88 81.6 21.1 81.51C21.32 81.42 21.52 81.29 21.69 81.12C21.86 80.95 21.99 80.75 22.08 80.53C22.17 80.31 22.22 80.08 22.22 79.84L22.22 37.22C22.22 36.98 22.17 36.75 22.08 36.53C21.99 36.31 21.86 36.11 21.69 35.94C21.52 35.77 21.32 35.64 21.1 35.55C20.88 35.46 20.65 35.41 20.41 35.41L4.26 35.41Z" />
		<path id="Layer" class="shp2" d="M8.99 43.21L8.99 56.26C8.99 56.55 8.87 56.83 8.67 57.04C8.46 57.24 8.18 57.36 7.89 57.36C7.6 57.36 7.32 57.24 7.11 57.04C6.9 56.83 6.79 56.55 6.79 56.26L6.78 43.21C6.78 42.97 6.86 42.74 7 42.54C7.15 42.35 7.35 42.21 7.58 42.15C7.81 42.08 8.05 42.09 8.28 42.17C8.5 42.26 8.69 42.41 8.82 42.61C8.85 42.66 8.88 42.7 8.9 42.75C8.92 42.8 8.94 42.85 8.95 42.9C8.97 42.95 8.98 43 8.98 43.05C8.99 43.1 8.99 43.16 8.99 43.21Z" />
		<path id="Layer" class="shp2" d="M8.82 61.69C8.85 61.73 8.87 61.77 8.9 61.82C8.92 61.87 8.93 61.91 8.95 61.96C8.96 62.01 8.97 62.06 8.98 62.11C8.99 62.16 8.99 62.21 8.99 62.26L8.99 62.98C8.99 63.27 8.87 63.55 8.67 63.76C8.46 63.96 8.18 64.08 7.89 64.08C7.6 64.08 7.32 63.96 7.11 63.76C6.9 63.55 6.79 63.27 6.79 62.98L6.78 62.26C6.78 62.12 6.81 61.98 6.87 61.84C6.92 61.71 7 61.59 7.11 61.49C7.21 61.39 7.33 61.3 7.46 61.25C7.6 61.19 7.74 61.16 7.88 61.16L7.88 61.16C7.98 61.16 8.07 61.17 8.16 61.2C8.25 61.22 8.34 61.25 8.42 61.3C8.51 61.35 8.58 61.4 8.65 61.47C8.72 61.53 8.77 61.61 8.82 61.69L8.82 61.69Z" />
		<path id="Layer" class="shp4" d="M23.11 40.6L28.06 37.8L31.74 37.8C31.74 37.8 24.49 58.62 31.74 72.3C38.99 85.97 60.74 92.51 60.74 92.51L23.11 77.43L23.11 40.6Z" />
		<path id="Layer" fill-rule="evenodd" class="shp2" d="M61.08 93.63C60.72 93.63 60.37 93.62 60.02 93.58C59.66 93.54 59.31 93.49 58.96 93.41C58.62 93.34 58.27 93.25 57.93 93.14C57.6 93.03 57.26 92.9 56.94 92.76L22.73 77.68C22.66 77.65 22.59 77.61 22.52 77.55C22.46 77.5 22.41 77.44 22.36 77.37C22.32 77.3 22.28 77.23 22.26 77.15C22.23 77.07 22.22 76.99 22.22 76.9L22.22 39.69C22.22 39.6 22.23 39.52 22.26 39.44C22.28 39.36 22.32 39.28 22.37 39.21C22.41 39.14 22.47 39.08 22.54 39.03C22.6 38.97 22.67 38.93 22.75 38.9C28.8 36.44 39.84 31.93 55.15 42.38L73.55 43.07C74.78 43.11 75.97 43.47 77.03 44.1C78.08 44.73 78.96 45.62 79.58 46.68C80.19 47.74 80.53 48.94 80.56 50.17C80.59 51.39 80.31 52.61 79.74 53.7L106.45 43.15C108.34 42.35 110.47 42.29 112.41 42.97C114.35 43.65 115.97 45.02 116.96 46.83C117.94 48.63 118.22 50.74 117.74 52.74C117.26 54.74 116.05 56.49 114.35 57.65L66.59 92.03C66.18 92.29 65.75 92.52 65.31 92.72C64.87 92.92 64.41 93.09 63.95 93.22C63.48 93.36 63.01 93.46 62.53 93.53C62.05 93.6 61.56 93.63 61.08 93.63ZM23.92 76.35L57.63 91.2C58.27 91.49 58.94 91.69 59.62 91.81C60.31 91.93 61.01 91.97 61.71 91.92C62.4 91.87 63.09 91.73 63.75 91.51C64.42 91.29 65.05 90.99 65.64 90.62L113.38 56.26C114.74 55.34 115.71 53.95 116.1 52.35C116.5 50.76 116.28 49.07 115.49 47.63C114.7 46.19 113.41 45.09 111.85 44.55C110.3 44.01 108.6 44.07 107.09 44.72L76.99 56.61C76.71 56.78 76.42 56.93 76.13 57.05C75.83 57.18 75.52 57.29 75.21 57.37C74.89 57.46 74.57 57.52 74.25 57.57C73.93 57.61 73.6 57.63 73.28 57.63L55.31 57.63C55.08 57.63 54.87 57.54 54.71 57.38C54.55 57.22 54.46 57.01 54.46 56.78C54.46 56.56 54.55 56.34 54.71 56.18C54.87 56.02 55.08 55.93 55.31 55.93L73.28 55.93C73.52 55.93 73.77 55.92 74.01 55.88C74.25 55.85 74.49 55.81 74.73 55.74C74.96 55.68 75.2 55.6 75.42 55.51C75.65 55.41 75.87 55.3 76.08 55.18C76.09 55.17 76.1 55.16 76.11 55.15C76.13 55.14 76.14 55.14 76.15 55.13C76.16 55.12 76.18 55.11 76.19 55.11C76.2 55.1 76.22 55.09 76.23 55.09C77.24 54.46 78.03 53.52 78.47 52.4C78.91 51.29 78.98 50.07 78.68 48.92C78.37 47.76 77.7 46.73 76.77 45.99C75.83 45.24 74.68 44.82 73.49 44.77L54.85 44.06C54.81 44.06 54.77 44.06 54.73 44.05C54.69 44.04 54.65 44.03 54.61 44.02C54.57 44.01 54.54 43.99 54.5 43.98C54.46 43.96 54.43 43.94 54.4 43.91C40.07 34.04 30.04 37.77 23.93 40.26L23.92 76.35Z" />
	</g>
</svg>