<svg xmlns="http://www.w3.org/2000/svg" width="38" height="38" viewBox="0 0 38 38"><defs><style>.a{fill:#0083bf;stroke:#fff;stroke-width:2px;}.b{fill:#fff;}.c{stroke:none;}.d{fill:none;}</style></defs><g transform="translate(-272 -224)"><g class="a" transform="translate(274 226)"><circle class="c" cx="17" cy="17" r="17"/><circle class="d" cx="17" cy="17" r="18"/></g><g transform="translate(-21.867 -272.604)"><path class="b" d="M356.6,534.962q-.007,2.31,0,4.623a1.684,1.684,0,0,1-.619,1.36,1.333,1.333,0,0,1-.864.353c-.828,0-1.655,0-2.483,0v-.008h-2.37a1.47,1.47,0,0,1-.31-.011A1.67,1.67,0,0,1,348.6,539.6c.017-1.559.008-3.119,0-4.677a1.5,1.5,0,0,1,.263-.9,1.569,1.569,0,0,1,1.323-.727c.269,0,.537,0,.806,0h.039c.108,0,.218,0,.327,0,1.2-.006,2.394,0,3.594,0a1.56,1.56,0,0,1,.788.189A1.614,1.614,0,0,1,356.6,534.962Z" transform="translate(-39.287 -24.377)"/><path class="b" d="M342.356,635.306a.33.33,0,0,1-.2.308.758.758,0,0,1-.289.051q-2.273,0-4.544,0h-8.8c-.051,0-.1,0-.155,0a.387.387,0,0,1-.393-.406c0-.429,0-.857,0-1.286a1.417,1.417,0,0,1,.248-.771,1.6,1.6,0,0,1,1.418-.737h11.05c.054,0,.11,0,.166,0a1.57,1.57,0,0,1,1.48,1.376C342.381,634.328,342.358,634.819,342.356,635.306Z" transform="translate(-21.851 -108.206)"/><path class="b" d="M356.622,595.906a.793.793,0,0,1-.254.605,1.754,1.754,0,0,1-1.192.489c-.8.006-1.6,0-2.405,0h-.121v0H352.1c-.649,0-1.3,0-1.946,0a1.927,1.927,0,0,1-1.176-.389.854.854,0,0,1-.362-.733c.008-1,0-2,0-2.992a.7.7,0,0,1,.215-.517,1.811,1.811,0,0,1,1.327-.514l.955,0h.046c.211,0,.419,0,.628,0q1.618,0,3.233,0a1.979,1.979,0,0,1,1.209.365.891.891,0,0,1,.388.775C356.614,593.962,356.619,594.934,356.622,595.906Z" transform="translate(-39.304 -73.873)"/><path class="b" d="M307.715,539.252q0,2.336,0,4.668v.146c-.138,0-.257,0-.375,0a5.213,5.213,0,0,1-5.224-5.137.409.409,0,0,1,.461-.466q2.617,0,5.232,0c.034,0,.068,0,.115.006A1.458,1.458,0,0,0,307.715,539.252Z" transform="translate(0 -28.752)"/><path class="b" d="M408.775,538.467a1.773,1.773,0,0,1,.216,1.006q0,2.217,0,4.434v.143a.262.262,0,0,0,.051.014,5.273,5.273,0,0,0,2.459-.453,5.126,5.126,0,0,0,2.989-3.784,6.3,6.3,0,0,0,.091-.946.389.389,0,0,0-.415-.419q-2.665,0-5.329,0C408.823,538.461,408.809,538.464,408.775,538.467Z" transform="translate(-90.149 -28.751)"/><path class="b" d="M360.1,507.528a.156.156,0,0,1-.011.039c-.009,0-.014,0-.015,0a.306.306,0,0,1-.042-.036,1.147,1.147,0,0,0-.786-.308c-1.183,0-2.368,0-3.552,0h-.249c-.294,0-.59,0-.885,0a1.065,1.065,0,0,0-.594.18c-.082.054-.163.115-.243.172a.277.277,0,0,0-.037,0c.022-.337.025-.676.067-1.012a3.2,3.2,0,0,1,.568-1.518,1.306,1.306,0,0,1,1.136-.59l.344,0c.882.009,1.765,0,2.647,0a1.1,1.1,0,0,1,.707.244,2.24,2.24,0,0,1,.667.963A4.752,4.752,0,0,1,360.1,507.528Z" transform="translate(-43.582 0)"/><path class="b" d="M307.342,544.065a5.213,5.213,0,0,1-5.224-5.137.409.409,0,0,1,.461-.466q2.617,0,5.232,0c.034,0,.068,0,.115.006a1.458,1.458,0,0,0-.211.783q0,2.336,0,4.668v.146C307.579,544.065,307.459,544.067,307.342,544.065Z" transform="translate(0 -28.752)"/><path class="b" d="M394.866,658.908a.394.394,0,0,1-.046-.022Z" transform="translate(-78.354 -130.537)"/></g></g></svg>