<svg xmlns="http://www.w3.org/2000/svg" viewBox="0 0 42 42" width="60" height="60">
	<style>
		tspan { white-space:pre }
		.shp0 { fill: #f0f5f7 } 
		.shp1 { fill: none;stroke: #ffffff;stroke-width: 4 } 
		.shp2 { fill: #03a9f5;stroke: #03a9f5;stroke-width: 0.1 } 
		.shp3 { fill: none } 
		.shp4 { fill: #03a9f5 } 
	</style>
	<g id="Layer">
		<g id="Layer">
			<path id="Layer" class="shp0" d="M21 42C9.39 42 0 32.61 0 21C0 9.39 9.39 0 21 0C32.61 0 42 9.39 42 21C42 32.61 32.61 42 21 42Z" />
			<path id="Layer" class="shp1" d="M21 40C10.49 40 2 31.51 2 21C2 10.49 10.49 2 21 2C31.51 2 40 10.49 40 21C40 31.51 31.51 40 21 40Z" />
		</g>
		<g id="Layer">
			<g id="Layer">
				<path id="Layer" class="shp2" d="M14.9 23.87C12.2 22.1 10.47 20.62 10.96 16.87C10.98 16.4 11.09 15.93 11.29 15.5C11.49 15.07 11.77 14.69 12.11 14.36C12.45 14.03 12.86 13.78 13.29 13.6C13.73 13.43 14.2 13.34 14.68 13.34C14.71 13.34 14.75 13.34 14.79 13.34C14.82 13.34 14.86 13.34 14.9 13.34C14.94 13.35 14.97 13.35 15.01 13.35C15.05 13.35 15.08 13.36 15.12 13.36C15.41 13.4 15.69 13.46 15.97 13.54C16.25 13.62 16.52 13.72 16.79 13.84C17.05 13.96 17.3 14.11 17.54 14.27C17.78 14.43 18.01 14.61 18.23 14.81C18.33 14.9 18.44 15.01 18.54 15.11C18.64 15.21 18.74 15.32 18.84 15.43C18.94 15.54 19.03 15.66 19.12 15.77C19.21 15.89 19.29 16.01 19.37 16.13C19.41 16.19 19.47 16.29 19.54 16.42C19.94 17.15 20.37 17.86 20.83 17.86C21.06 17.86 21.26 17.68 21.41 17.33C22.4 15.1 23.97 13.77 25.84 13.59C25.95 13.58 26.06 13.57 26.17 13.57C26.51 13.57 26.85 13.63 27.18 13.73C27.51 13.84 27.82 14 28.1 14.2C28.38 14.4 28.63 14.65 28.83 14.93C29.03 15.21 29.19 15.52 29.29 15.85C29.81 17.44 28.79 20.36 26.49 22.49C26.62 22.54 26.75 22.58 26.88 22.61C27.01 22.65 27.15 22.68 27.28 22.71C27.42 22.73 27.55 22.75 27.69 22.76C27.82 22.78 27.96 22.79 28.09 22.79C28.42 22.42 28.73 22.05 29.02 21.65C29.71 20.74 31.82 17.53 30.33 14.55C30.12 14.16 29.87 13.8 29.57 13.48C29.26 13.16 28.92 12.89 28.54 12.66C28.16 12.44 27.75 12.27 27.33 12.17C26.9 12.06 26.46 12.01 26.03 12.02C25.84 12.02 25.66 12.03 25.48 12.05C24.98 12.13 24.48 12.27 24.01 12.47C23.54 12.66 23.09 12.91 22.68 13.21C22.27 13.51 21.89 13.86 21.56 14.25C21.23 14.64 20.94 15.07 20.71 15.52C20.4 14.98 20.03 14.48 19.6 14.04C19.17 13.59 18.69 13.2 18.16 12.87C17.63 12.54 17.07 12.28 16.48 12.09C15.89 11.9 15.28 11.78 14.66 11.74C14.53 11.74 14.41 11.74 14.28 11.75C14.16 11.76 14.04 11.78 13.91 11.79C13.79 11.81 13.67 11.83 13.55 11.86C13.43 11.88 13.31 11.92 13.19 11.95C12.81 12.08 12.44 12.25 12.1 12.46C11.75 12.67 11.44 12.92 11.15 13.2C10.87 13.49 10.62 13.8 10.41 14.14C10.2 14.49 10.03 14.85 9.9 15.23C9.73 15.68 9.61 16.15 9.54 16.63C9.46 17.11 9.44 17.59 9.46 18.07C9.49 18.55 9.57 19.03 9.69 19.5C9.82 19.96 9.99 20.41 10.21 20.84C11.41 23.07 13.48 24.44 15.47 25.75C15.72 25.91 15.97 26.08 16.22 26.24C16.47 26.41 16.71 26.58 16.95 26.75C17.2 26.93 17.43 27.11 17.67 27.29C17.91 27.47 18.14 27.66 18.37 27.85C17.71 27.21 15.42 24.22 14.9 23.87Z" />
			</g>
			<g id="Layer">
				<path id="Layer" class="shp3" d="M23.56 19.52L25.43 23.84L29.93 24.36L26.58 27.56L27.5 32.2L23.56 29.86L19.62 32.2L20.54 27.56L17.19 24.36L21.69 23.84L23.56 19.52Z" />
				<path id="Layer" fill-rule="evenodd" class="shp4" d="M23.56 19.52L25.43 23.84L29.93 24.36L26.58 27.56L27.5 32.2L23.56 29.86L19.63 32.2L20.54 27.56L17.19 24.36L21.69 23.84L23.56 19.52ZM23.56 22.54L22.79 24.31C22.62 24.71 22.26 24.98 21.83 25.03L19.87 25.26L21.37 26.69C21.66 26.97 21.8 27.39 21.72 27.79L21.32 29.79L22.95 28.82C23.14 28.71 23.35 28.66 23.56 28.66C23.77 28.66 23.99 28.71 24.18 28.82L25.8 29.79L25.41 27.79C25.33 27.39 25.46 26.97 25.75 26.69L27.25 25.26L25.29 25.03C24.86 24.98 24.5 24.71 24.33 24.31L23.56 22.54Z" />
			</g>
		</g>
	</g>
</svg>