<svg xmlns="http://www.w3.org/2000/svg" width="27.409" height="29.386" viewBox="0 0 27.409 29.386"><defs><style>.a{fill:#0083bf;}</style></defs><g transform="translate(-302.118 -504.445)"><path class="a" d="M358.432,535.345q-.009,2.838,0,5.679a2.068,2.068,0,0,1-.76,1.671,1.638,1.638,0,0,1-1.061.433c-1.017,0-2.032,0-3.049,0v-.009h-2.91a1.81,1.81,0,0,1-.38-.013,2.051,2.051,0,0,1-1.671-2.068c.021-1.914.009-3.83.006-5.745a1.839,1.839,0,0,1,.323-1.1,1.927,1.927,0,0,1,1.625-.893c.331,0,.66-.006.99-.006h.048c.133,0,.268,0,.4,0,1.471-.007,2.941,0,4.414,0a1.915,1.915,0,0,1,.968.232A1.982,1.982,0,0,1,358.432,535.345Z" transform="translate(-37.645 -23.358)"/><path class="a" d="M345.64,635.954a.406.406,0,0,1-.251.378.931.931,0,0,1-.355.063q-2.792.006-5.581,0H328.646c-.063,0-.127,0-.19,0a.476.476,0,0,1-.483-.5c-.006-.527-.006-1.053,0-1.58a1.74,1.74,0,0,1,.3-.947,1.965,1.965,0,0,1,1.741-.9h13.571c.067,0,.135,0,.2,0a1.928,1.928,0,0,1,1.817,1.69C345.67,634.753,345.642,635.356,345.64,635.954Z" transform="translate(-20.937 -103.684)"/><path class="a" d="M358.448,596.832a.974.974,0,0,1-.312.743,2.154,2.154,0,0,1-1.464.6c-.985.008-1.97,0-2.954,0h-.148v0H352.9c-.8,0-1.593,0-2.39,0a2.367,2.367,0,0,1-1.445-.477,1.048,1.048,0,0,1-.445-.9c.009-1.224,0-2.45,0-3.675a.858.858,0,0,1,.264-.635,2.224,2.224,0,0,1,1.629-.631l1.173-.006h.057c.259,0,.515,0,.772,0q1.988,0,3.971.006a2.431,2.431,0,0,1,1.485.449,1.094,1.094,0,0,1,.477.952C358.439,594.445,358.444,595.639,358.448,596.832Z" transform="translate(-37.662 -70.786)"/><path class="a" d="M308.992,539.432q0,2.869,0,5.734v.179c-.169,0-.316,0-.46,0a6.4,6.4,0,0,1-6.416-6.31.5.5,0,0,1,.567-.572q3.214,0,6.425,0c.042,0,.084,0,.141.008A1.791,1.791,0,0,0,308.992,539.432Z" transform="translate(0 -27.55)"/><path class="a" d="M408.775,538.469a2.178,2.178,0,0,1,.266,1.235q0,2.723,0,5.446v.176a.332.332,0,0,0,.063.017,6.476,6.476,0,0,0,3.021-.556,6.3,6.3,0,0,0,3.671-4.647,7.716,7.716,0,0,0,.112-1.162.478.478,0,0,0-.51-.515q-3.273,0-6.545,0C408.834,538.461,408.817,538.464,408.775,538.469Z" transform="translate(-86.381 -27.55)"/><path class="a" d="M361.56,508.232a.191.191,0,0,1-.013.048c-.011,0-.017,0-.019,0a.376.376,0,0,1-.051-.044,1.408,1.408,0,0,0-.966-.378c-1.452,0-2.909,0-4.363,0h-.306c-.361,0-.724,0-1.087,0a1.308,1.308,0,0,0-.73.221c-.1.066-.2.141-.3.211a.338.338,0,0,0-.046,0c.027-.414.03-.831.082-1.243a3.926,3.926,0,0,1,.7-1.865,1.6,1.6,0,0,1,1.4-.724l.422.006c1.084.011,2.167,0,3.251,0a1.345,1.345,0,0,1,.869.3,2.751,2.751,0,0,1,.819,1.183A5.837,5.837,0,0,1,361.56,508.232Z" transform="translate(-41.76)"/><path class="a" d="M308.534,545.344a6.4,6.4,0,0,1-6.416-6.31.5.5,0,0,1,.567-.572q3.214,0,6.425,0c.042,0,.084,0,.141.008a1.791,1.791,0,0,0-.259.962q0,2.869,0,5.734v.179C308.825,545.344,308.679,545.346,308.534,545.344Z" transform="translate(0 -27.55)"/><path class="a" d="M394.877,658.913a.492.492,0,0,1-.057-.027Z" transform="translate(-75.079 -125.081)"/></g></svg>