<svg xmlns="http://www.w3.org/2000/svg" viewBox="0 0 127 28" width="218" height="48">
	<style>
		tspan { white-space:pre }
		.shp0 { fill: #03a9f5 } 
		.txt1 { font-size: 20px;fill: #03a9f5;font-family: "S FPro Display" } 
	</style>
	<g id="Layer">
		<g id="Layer">
			<path id="Layer" class="shp0" d="M19.14 21.41L21.79 6.5L25.93 6.5L23.36 21.41L19.14 21.41Z" />
			<path id="Layer" class="shp0" d="M19.14 21.41L22.54 6.5L25.94 6.5L23.37 21.41L19.14 21.41Z" />
			<path id="Layer" class="shp0" d="M38.36 6.66C38.06 6.55 37.75 6.45 37.43 6.37C37.12 6.28 36.8 6.21 36.48 6.15C36.16 6.1 35.84 6.06 35.52 6.03C35.2 6.01 34.87 6 34.55 6C30.41 6 27.42 8.07 27.42 11.05C27.42 13.29 29.49 14.45 31.15 15.2C32.81 15.94 33.31 16.44 33.31 17.1C33.31 18.1 31.98 18.59 30.82 18.59C30.48 18.6 30.14 18.59 29.8 18.56C29.46 18.53 29.12 18.48 28.78 18.41C28.45 18.34 28.12 18.25 27.79 18.14C27.47 18.03 27.15 17.91 26.84 17.77L26.26 17.52L25.68 20.92C26.06 21.05 26.44 21.18 26.83 21.28C27.22 21.39 27.61 21.47 28.01 21.54C28.4 21.61 28.8 21.66 29.2 21.7C29.6 21.73 30 21.75 30.4 21.75C34.8 21.75 37.69 19.67 37.69 16.53C37.69 14.79 36.62 13.46 34.13 12.38C32.64 11.64 31.73 11.22 31.73 10.48C31.73 9.81 32.48 9.15 34.13 9.15C34.4 9.14 34.67 9.15 34.94 9.17C35.21 9.19 35.47 9.22 35.74 9.27C36 9.32 36.26 9.38 36.52 9.46C36.78 9.54 37.03 9.63 37.28 9.73L37.69 9.9L38.36 6.67L38.36 6.66Z" />
			<path id="Layer" class="shp0" d="M38.36 6.66C38.06 6.55 37.75 6.45 37.43 6.37C37.12 6.28 36.8 6.21 36.48 6.15C36.16 6.1 35.84 6.06 35.52 6.03C35.2 6.01 34.87 6 34.55 6C30.41 6 28.17 8.07 28.17 11.05C28.17 13.29 29.5 14.45 31.15 15.2C32.81 15.94 33.31 16.44 33.31 17.1C33.31 18.1 31.98 18.59 30.82 18.59C30.48 18.6 30.14 18.59 29.8 18.56C29.46 18.53 29.12 18.48 28.78 18.41C28.45 18.34 28.12 18.25 27.8 18.14C27.47 18.03 27.15 17.91 26.84 17.77L26.26 17.52L25.68 20.92C26.06 21.05 26.44 21.18 26.83 21.28C27.22 21.39 27.61 21.47 28.01 21.54C28.4 21.61 28.8 21.66 29.2 21.7C29.6 21.73 30 21.75 30.4 21.75C34.8 21.75 37.7 19.67 37.7 16.53C37.7 14.79 36.62 13.46 34.13 12.38C32.64 11.64 31.73 11.22 31.73 10.48C31.73 9.81 32.48 9.15 34.13 9.15C34.4 9.14 34.67 9.15 34.94 9.17C35.21 9.19 35.47 9.22 35.74 9.27C36 9.32 36.26 9.38 36.52 9.46C36.78 9.54 37.03 9.63 37.28 9.73L37.7 9.9L38.36 6.67L38.36 6.66Z" />
			<path id="Layer" fill-rule="evenodd" class="shp0" d="M48.72 6.5L52.19 21.41L48.22 21.41L47.72 18.92L42.42 18.92L41.59 21.41L37.12 21.41L43.33 7.57C43.74 6.58 44.49 6.5 45.48 6.5L48.72 6.5ZM43.58 16.52L47.06 16.52C46.89 15.69 46.06 11.97 46.06 11.97L45.82 10.56C45.57 11.14 45.24 12.05 45.24 12.05C45.24 12.05 43.83 15.69 43.58 16.44L43.58 16.52Z" />
			<path id="Layer" fill-rule="evenodd" class="shp0" d="M48.72 6.5L52.19 21.41L48.22 21.41L47.72 18.92L42.42 18.92L41.59 21.41L37.12 21.41L44.32 7.57C44.74 6.58 45.48 6.5 46.48 6.5L48.72 6.5ZM43.58 16.52L47.06 16.52C46.89 15.69 46.06 11.97 46.06 11.97L45.82 10.56C45.57 11.14 45.24 12.05 45.24 12.05C45.24 12.05 43.91 15.61 43.58 16.44L43.58 16.52Z" />
			<path id="Layer" class="shp0" d="M11.52 16.94L11.1 14.78C10.84 14.08 10.52 13.4 10.14 12.76C9.76 12.12 9.31 11.52 8.82 10.96C8.32 10.4 7.78 9.89 7.19 9.43C6.6 8.98 5.97 8.58 5.3 8.24L9.03 21.49L13.5 21.49L20.21 6.58L15.74 6.58L11.52 16.94Z" />
			<path id="Layer" class="shp0" d="M11.52 16.94L11.1 14.78C10.84 14.08 10.52 13.4 10.14 12.76C9.76 12.12 9.31 11.52 8.82 10.96C8.32 10.4 7.78 9.89 7.19 9.43C6.6 8.98 5.97 8.58 5.3 8.24L9.03 21.49L13.5 21.49L20.21 6.58L16.57 6.58L11.52 16.94Z" />
			<path id="Layer" class="shp0" d="M0 6.5L0.75 6.66C6.05 7.91 9.69 11.05 11.1 14.78L9.61 7.74C9.36 6.75 8.62 6.5 7.71 6.5L0 6.5Z" />
			<path id="Layer" class="shp0" d="M0 6.5L0 6.5C5.3 7.74 9.69 10.97 11.1 14.7L9.69 8.82C9.64 8.59 9.55 8.38 9.43 8.19C9.31 7.99 9.16 7.82 8.98 7.68C8.8 7.54 8.59 7.43 8.38 7.35C8.16 7.28 7.93 7.24 7.7 7.24L0 6.5Z" />
			<path id="Layer" class="shp0" d="M0 6.5L0 6.5C5.3 7.74 9.69 10.97 11.1 14.7L10.11 11.47C10.08 11.21 10.02 10.95 9.93 10.71C9.84 10.47 9.72 10.24 9.56 10.03C9.41 9.82 9.23 9.63 9.03 9.47C8.83 9.3 8.6 9.17 8.37 9.07L0 6.5Z" />
			<g id="Layer">
				<path id="Layer" class="shp0" d="M15.66 16.44L12.84 13.62L11.52 16.77L11.18 14.7C10.93 14 10.6 13.32 10.22 12.68C9.84 12.04 9.4 11.44 8.9 10.88C8.41 10.32 7.86 9.81 7.27 9.35C6.68 8.9 6.05 8.49 5.39 8.15L9.11 21.41L13.59 21.41L15.66 16.44Z" />
				<path id="Layer" class="shp0" d="M23.36 21.41L19.8 17.77L19.14 21.41L23.36 21.41Z" />
				<path id="Layer" class="shp0" d="M32.89 16.27L32.89 16.27C33.22 16.6 33.39 16.85 33.3 17.18C33.3 18.18 31.98 18.68 30.82 18.68C30.48 18.68 30.14 18.67 29.8 18.64C29.46 18.61 29.12 18.56 28.78 18.49C28.45 18.42 28.12 18.33 27.79 18.22C27.47 18.11 27.15 17.99 26.84 17.85L26.26 17.6L25.68 21C26.06 21.14 26.44 21.26 26.83 21.36C27.22 21.47 27.61 21.55 28.01 21.62C28.4 21.69 28.8 21.74 29.2 21.78C29.6 21.81 30 21.83 30.4 21.83C33.05 21.83 35.21 21.08 36.45 19.75L32.89 16.27Z" />
				<path id="Layer" class="shp0" d="M37.7 21.41L41.59 21.41L42.42 18.92L47.72 18.92L48.22 21.41L52.2 21.41L50.79 15.36L45.82 10.56L46.06 11.88C46.06 11.88 46.89 15.61 47.06 16.44L43.58 16.44C43.91 15.61 45.23 12.05 45.23 12.05C45.23 12.05 45.57 11.14 45.81 10.56" />
			</g>
		</g>
		<g id="Layer">
			<g id="Layer">
				<path id="Layer" fill-rule="evenodd" class="shp0" d="M112.87 0C114.68 0 116.48 0.36 118.15 1.05C119.82 1.74 121.34 2.76 122.62 4.04C123.91 5.32 124.92 6.84 125.61 8.51C126.31 10.18 126.67 11.97 126.67 13.78L126.67 13.79C126.67 16.46 125.89 19.08 124.44 21.32C122.98 23.55 120.91 25.32 118.47 26.41C116.03 27.49 113.33 27.84 110.69 27.42C108.06 26.99 105.6 25.82 103.62 24.02C103.63 24.01 103.65 24.01 103.66 23.99C103.78 23.88 103.91 23.76 104.03 23.64C104.15 23.53 104.27 23.4 104.38 23.28C104.5 23.16 104.62 23.03 104.73 22.9C104.84 22.78 104.95 22.65 105.06 22.52L102.21 22.52C102.32 22.65 102.43 22.78 102.54 22.91C102.65 23.04 102.77 23.17 102.89 23.3C103 23.42 103.12 23.55 103.25 23.67C103.37 23.79 103.49 23.91 103.62 24.02C100.25 27.07 95.61 28.26 91.19 27.22C86.77 26.17 83.15 23.02 81.51 18.79C79.87 14.56 80.41 9.79 82.96 6.04C85.51 2.29 89.75 0.03 94.29 0L94.38 0C95.22 0 96.07 0.08 96.9 0.23C97.73 0.39 98.55 0.62 99.33 0.92C100.12 1.23 100.88 1.6 101.6 2.05C102.32 2.49 103 3 103.63 3.57C104.25 3 104.93 2.49 105.65 2.04C106.37 1.6 107.13 1.22 107.92 0.92C108.71 0.62 109.52 0.38 110.35 0.23C111.18 0.08 112.03 0 112.87 0ZM102.37 4.99C102.02 5.47 101.69 5.97 101.39 6.47L106.06 6.47C105.98 6.34 105.89 6.21 105.81 6.09C105.72 5.96 105.63 5.84 105.55 5.71C105.46 5.59 105.37 5.47 105.27 5.35C105.18 5.23 105.08 5.11 104.99 4.99L102.37 4.99ZM100.57 7.92C100.17 8.68 99.9 9.25 99.83 9.39L107.46 9.39C107.41 9.27 107.37 9.14 107.32 9.02C107.28 8.89 107.23 8.77 107.18 8.65C107.13 8.52 107.08 8.4 107.02 8.28C106.97 8.16 106.92 8.04 106.86 7.92L100.57 7.92L100.57 7.92ZM87.72 17.31L88.88 10.31L86.55 10.31L85.11 14.61L85.03 10.31L82.89 10.31L81.71 17.31L83.13 17.31L84.02 12.04L84.16 17.31L85.17 17.31L87.05 12.04L86.22 17.31L87.72 17.31ZM92.52 17.3L93.09 13.25C93.1 13 93.05 12.74 92.95 12.51C92.85 12.27 92.7 12.06 92.5 11.89C92.31 11.72 92.08 11.6 91.84 11.53C91.59 11.46 91.33 11.44 91.08 11.48C90.92 11.48 90.77 11.49 90.62 11.5C90.47 11.52 90.32 11.54 90.17 11.57C90.02 11.59 89.88 11.63 89.73 11.67C89.58 11.71 89.44 11.75 89.3 11.81L89.09 13.07C89.21 13.03 89.34 12.99 89.47 12.96C89.61 12.92 89.74 12.89 89.87 12.87C90.01 12.85 90.14 12.84 90.28 12.83C90.41 12.82 90.55 12.81 90.69 12.81C91.23 12.81 91.63 12.88 91.63 13.32C91.63 13.35 91.63 13.38 91.63 13.41C91.63 13.44 91.63 13.48 91.63 13.51C91.62 13.54 91.62 13.57 91.61 13.6C91.6 13.63 91.59 13.66 91.58 13.69C91.58 13.69 91.15 13.65 90.95 13.65C89.69 13.65 88.35 14.2 88.35 15.83C88.32 16.03 88.34 16.24 88.4 16.43C88.46 16.62 88.56 16.8 88.7 16.95C88.83 17.1 89 17.22 89.18 17.3C89.37 17.38 89.57 17.42 89.77 17.41C89.91 17.42 90.05 17.4 90.19 17.38C90.33 17.35 90.47 17.31 90.6 17.25C90.73 17.19 90.85 17.12 90.97 17.03C91.08 16.95 91.18 16.85 91.28 16.74L91.23 17.3L92.52 17.3ZM94.94 13.32C94.94 12.96 95.23 12.84 95.75 12.84C95.95 12.84 96.75 12.91 96.75 12.91L96.93 11.61C96.82 11.59 96.71 11.57 96.6 11.55C96.48 11.54 96.37 11.53 96.26 11.52C96.15 11.51 96.03 11.5 95.92 11.5C95.81 11.49 95.69 11.49 95.58 11.49C94.49 11.49 93.39 11.93 93.39 13.41C93.39 15.09 95.23 14.92 95.23 15.63C95.23 16.1 94.72 16.14 94.32 16.14C94.21 16.14 94.1 16.13 93.99 16.12C93.88 16.11 93.77 16.09 93.66 16.07C93.55 16.06 93.44 16.03 93.34 16.01C93.23 15.98 93.12 15.95 93.02 15.92L92.82 17.2C92.95 17.24 93.09 17.28 93.22 17.3C93.36 17.33 93.5 17.35 93.63 17.37C93.77 17.38 93.91 17.39 94.05 17.39C94.19 17.4 94.33 17.39 94.47 17.38C94.8 17.38 96.69 17.47 96.69 15.52C96.69 13.69 94.94 14.05 94.94 13.32ZM98.96 16.03C98.96 16.03 98.96 16.03 98.96 16.03C98.96 16.03 98.96 16.03 98.96 16.03L98.96 16.03ZM98.96 16.03C98.45 16.03 98.39 15.76 98.42 15.55L98.84 13.01L99.61 13.01L99.8 11.62L99.07 11.62L99.22 10.77L97.75 10.77C97.72 10.8 96.88 15.6 96.88 16.18C96.86 16.34 96.87 16.51 96.92 16.66C96.97 16.82 97.05 16.96 97.17 17.08C97.28 17.2 97.42 17.29 97.57 17.35C97.72 17.41 97.89 17.44 98.05 17.42C98.15 17.42 98.24 17.41 98.33 17.4C98.42 17.4 98.52 17.38 98.61 17.37C98.7 17.35 98.79 17.33 98.88 17.31C98.97 17.28 99.06 17.26 99.15 17.23L99.34 15.98C99.24 15.98 99.09 16.03 98.96 16.03ZM99.62 14.85C99.58 15.2 99.61 15.55 99.73 15.87C99.84 16.2 100.02 16.5 100.27 16.75C100.51 16.99 100.81 17.18 101.13 17.3C101.46 17.42 101.81 17.46 102.16 17.42C102.29 17.43 102.42 17.43 102.55 17.42C102.68 17.41 102.81 17.4 102.94 17.38C103.07 17.36 103.2 17.33 103.33 17.3C103.46 17.27 103.58 17.22 103.71 17.18L103.97 15.76C103.84 15.81 103.72 15.86 103.59 15.9C103.46 15.95 103.33 15.98 103.2 16.01C103.07 16.04 102.94 16.07 102.81 16.09C102.67 16.1 102.54 16.12 102.41 16.12C100.83 16.12 101.11 14.95 101.11 14.95L104.09 14.95C104.12 14.84 104.14 14.73 104.16 14.62C104.18 14.51 104.2 14.39 104.21 14.28C104.23 14.17 104.24 14.06 104.25 13.95C104.27 13.83 104.28 13.72 104.29 13.61C104.31 13.33 104.28 13.04 104.18 12.77C104.09 12.5 103.93 12.25 103.73 12.05C103.53 11.85 103.29 11.69 103.03 11.59C102.76 11.49 102.47 11.44 102.19 11.46C100.71 11.46 99.62 13.05 99.62 14.85ZM106.08 21.09C106.15 20.98 106.23 20.86 106.3 20.73C106.37 20.61 106.44 20.49 106.5 20.37C106.57 20.25 106.64 20.12 106.7 20C106.77 19.87 106.83 19.74 106.89 19.62L100.37 19.62C100.43 19.75 100.5 19.87 100.56 20C100.62 20.12 100.69 20.25 100.76 20.37C100.83 20.49 100.89 20.61 100.97 20.74C101.04 20.86 101.11 20.98 101.19 21.09L106.08 21.09ZM105.75 17.32C106.18 14.88 106.26 12.92 107.28 13.27C107.3 13.12 107.33 12.98 107.36 12.83C107.4 12.69 107.44 12.54 107.48 12.4C107.53 12.26 107.58 12.12 107.64 11.98C107.7 11.84 107.76 11.7 107.83 11.57C107.8 11.57 107.78 11.56 107.75 11.56C107.73 11.56 107.71 11.56 107.68 11.56C107.66 11.55 107.64 11.55 107.61 11.55C107.59 11.55 107.56 11.55 107.54 11.55C106.88 11.55 106.4 12.45 106.4 12.45L106.53 11.63L105.16 11.63L104.24 17.32L105.75 17.32L105.75 17.32ZM111.76 15.62C111.66 15.67 111.56 15.71 111.47 15.75C111.37 15.79 111.27 15.83 111.17 15.86C111.06 15.89 110.96 15.91 110.86 15.94C110.75 15.96 110.65 15.97 110.54 15.98C110.33 15.99 110.12 15.95 109.93 15.86C109.74 15.78 109.57 15.65 109.43 15.5C109.29 15.34 109.19 15.16 109.13 14.96C109.06 14.76 109.05 14.55 109.07 14.34C109.07 12.61 109.97 11.65 110.97 11.65C111.09 11.66 111.21 11.67 111.33 11.69C111.45 11.71 111.56 11.73 111.68 11.77C111.79 11.81 111.9 11.85 112.01 11.9C112.12 11.95 112.22 12.01 112.32 12.07L112.56 10.52C112.43 10.46 112.3 10.42 112.16 10.38C112.02 10.34 111.89 10.3 111.75 10.27C111.61 10.24 111.47 10.22 111.33 10.2C111.19 10.18 111.05 10.16 110.91 10.16C109.21 10.16 107.56 11.63 107.56 14.39C107.56 16.22 108.45 17.43 110.21 17.43C110.31 17.42 110.42 17.42 110.53 17.4C110.64 17.39 110.75 17.38 110.85 17.36C110.96 17.35 111.07 17.33 111.17 17.3C111.28 17.28 111.38 17.26 111.49 17.23L111.76 15.62ZM116.33 17.3L116.9 13.26C116.91 13 116.86 12.74 116.76 12.51C116.66 12.27 116.51 12.06 116.31 11.89C116.12 11.72 115.89 11.6 115.65 11.53C115.4 11.46 115.14 11.44 114.89 11.48C114.73 11.48 114.58 11.49 114.43 11.5C114.28 11.52 114.13 11.54 113.98 11.57C113.83 11.59 113.68 11.63 113.53 11.67C113.38 11.71 113.24 11.75 113.1 11.81L112.88 13.07C113.01 13.03 113.14 12.99 113.27 12.96C113.4 12.92 113.54 12.9 113.67 12.87C113.81 12.85 113.94 12.84 114.08 12.83C114.21 12.82 114.35 12.81 114.48 12.81C115.03 12.81 115.43 12.88 115.43 13.32C115.43 13.35 115.43 13.38 115.43 13.41C115.43 13.44 115.43 13.48 115.43 13.51C115.42 13.54 115.42 13.57 115.41 13.6C115.4 13.63 115.39 13.66 115.38 13.69C115.38 13.69 114.95 13.65 114.75 13.65C113.48 13.65 112.15 14.19 112.15 15.83C112.12 16.03 112.14 16.24 112.2 16.43C112.26 16.62 112.36 16.8 112.49 16.95C112.63 17.1 112.79 17.22 112.98 17.3C113.17 17.38 113.37 17.42 113.57 17.41C113.71 17.42 113.85 17.4 113.99 17.38C114.13 17.35 114.27 17.3 114.4 17.25C114.53 17.19 114.65 17.12 114.76 17.03C114.88 16.94 114.98 16.85 115.07 16.74L115.03 17.3L116.33 17.3ZM118.08 17.32C118.51 14.88 118.59 12.92 119.61 13.27C119.63 13.12 119.66 12.98 119.69 12.83C119.73 12.69 119.77 12.54 119.81 12.4C119.86 12.26 119.91 12.12 119.97 11.98C120.03 11.84 120.09 11.7 120.16 11.57C120.13 11.57 120.11 11.56 120.08 11.56C120.06 11.56 120.04 11.56 120.01 11.56C119.99 11.55 119.97 11.55 119.94 11.55C119.92 11.55 119.9 11.55 119.87 11.55C119.21 11.55 118.73 12.45 118.73 12.45L118.86 11.63L117.49 11.63L116.57 17.32L118.08 17.32L118.08 17.32ZM124.01 17.3L125.13 10.32L123.66 10.32L123.34 12.28C123.26 12.17 123.16 12.07 123.05 11.98C122.95 11.89 122.83 11.82 122.71 11.75C122.59 11.68 122.46 11.63 122.33 11.59C122.19 11.56 122.06 11.53 121.92 11.52C120.57 11.52 119.45 13.15 119.45 15.01C119.45 16.22 120.05 17.39 121.27 17.39C121.4 17.39 121.53 17.38 121.66 17.35C121.78 17.33 121.9 17.29 122.02 17.23C122.14 17.18 122.25 17.12 122.35 17.04C122.46 16.96 122.55 16.88 122.64 16.78L122.58 17.3L124.01 17.3ZM125.48 17.1C125.5 17.07 125.51 17.03 125.52 17C125.53 16.96 125.53 16.92 125.53 16.88C125.53 16.84 125.53 16.81 125.52 16.77C125.51 16.73 125.5 16.69 125.48 16.66C125.47 16.64 125.46 16.63 125.44 16.61C125.43 16.59 125.42 16.58 125.4 16.57C125.39 16.55 125.38 16.54 125.36 16.53C125.34 16.51 125.33 16.5 125.31 16.5C125.29 16.49 125.28 16.48 125.26 16.47C125.24 16.46 125.22 16.46 125.2 16.45C125.18 16.45 125.17 16.44 125.15 16.44C125.13 16.44 125.11 16.44 125.09 16.44C125.07 16.44 125.05 16.44 125.03 16.44C125.01 16.44 125 16.45 124.98 16.45C124.96 16.46 124.94 16.46 124.92 16.47C124.91 16.48 124.89 16.49 124.87 16.49C124.85 16.5 124.84 16.52 124.82 16.53C124.81 16.54 124.79 16.55 124.78 16.57C124.76 16.58 124.75 16.6 124.74 16.61C124.73 16.63 124.71 16.64 124.71 16.66C124.7 16.68 124.69 16.7 124.68 16.71C124.67 16.73 124.67 16.75 124.66 16.77C124.66 16.79 124.65 16.81 124.65 16.83C124.65 16.85 124.65 16.86 124.65 16.88C124.65 16.92 124.65 16.96 124.66 17C124.67 17.04 124.69 17.07 124.71 17.11C124.73 17.14 124.75 17.17 124.78 17.2C124.81 17.23 124.84 17.25 124.87 17.27C124.9 17.29 124.94 17.3 124.98 17.31C125.01 17.32 125.05 17.33 125.09 17.33C125.13 17.33 125.17 17.32 125.2 17.31C125.24 17.3 125.28 17.29 125.31 17.27C125.33 17.26 125.34 17.25 125.36 17.24C125.38 17.23 125.39 17.21 125.4 17.2C125.42 17.18 125.43 17.17 125.44 17.15C125.46 17.14 125.47 17.12 125.48 17.1Z" />
			</g>
			<g id="Layer">
				<path id="Layer" class="shp0" d="M125.37 21.31C125.36 21.31 125.36 21.31 125.36 21.31C125.35 21.31 125.35 21.3 125.35 21.3C125.35 21.3 125.34 21.3 125.34 21.3C125.34 21.29 125.34 21.29 125.33 21.29C125.33 21.29 125.32 21.29 125.31 21.29C125.31 21.29 125.3 21.28 125.29 21.28C125.29 21.28 125.28 21.28 125.28 21.28C125.27 21.28 125.26 21.28 125.26 21.28L125.17 21.28L125.17 21.42L125.27 21.42C125.27 21.43 125.28 21.43 125.29 21.43C125.3 21.43 125.31 21.42 125.31 21.42C125.32 21.42 125.33 21.42 125.34 21.42C125.34 21.41 125.35 21.41 125.36 21.4C125.36 21.4 125.37 21.4 125.37 21.39C125.37 21.39 125.37 21.39 125.38 21.38C125.38 21.38 125.38 21.37 125.38 21.37C125.38 21.36 125.38 21.36 125.38 21.35C125.38 21.35 125.38 21.35 125.38 21.34C125.38 21.34 125.38 21.34 125.38 21.33C125.38 21.33 125.37 21.33 125.37 21.32C125.37 21.32 125.37 21.32 125.37 21.31L125.37 21.31Z" />
			</g>
			<g id="Layer">
				<g id="Layer">
					<path id="Layer" fill-rule="evenodd" class="shp0" d="M125.7 21.28C125.71 21.3 125.71 21.32 125.72 21.34C125.72 21.35 125.73 21.37 125.73 21.39C125.73 21.41 125.73 21.43 125.73 21.45C125.73 21.47 125.73 21.49 125.73 21.51C125.73 21.53 125.72 21.55 125.72 21.56C125.71 21.58 125.71 21.6 125.7 21.62C125.69 21.64 125.68 21.65 125.67 21.67C125.67 21.69 125.65 21.71 125.64 21.72C125.63 21.74 125.62 21.75 125.6 21.77C125.59 21.78 125.58 21.79 125.56 21.81C125.54 21.82 125.53 21.83 125.51 21.84C125.49 21.85 125.48 21.86 125.46 21.86C125.44 21.87 125.42 21.88 125.4 21.88C125.39 21.89 125.37 21.89 125.35 21.89C125.33 21.9 125.31 21.9 125.29 21.9C125.27 21.9 125.25 21.9 125.23 21.89C125.21 21.89 125.19 21.89 125.17 21.88C125.16 21.88 125.14 21.87 125.12 21.86C125.1 21.86 125.08 21.85 125.07 21.84C125.05 21.83 125.03 21.82 125.02 21.81C125 21.79 124.99 21.78 124.97 21.77C124.96 21.75 124.95 21.74 124.93 21.72C124.92 21.7 124.91 21.69 124.9 21.67C124.89 21.65 124.88 21.64 124.88 21.62C124.87 21.6 124.86 21.58 124.86 21.56C124.85 21.55 124.85 21.53 124.85 21.51C124.84 21.49 124.84 21.47 124.84 21.45C124.84 21.43 124.84 21.41 124.85 21.39C124.85 21.37 124.85 21.35 124.86 21.34C124.86 21.32 124.87 21.3 124.88 21.28C124.88 21.26 124.89 21.25 124.9 21.23C124.91 21.21 124.92 21.19 124.93 21.18C124.95 21.16 124.96 21.15 124.97 21.13C124.99 21.12 125 21.11 125.02 21.09C125.03 21.08 125.05 21.07 125.07 21.06C125.08 21.05 125.1 21.05 125.12 21.04C125.14 21.03 125.16 21.02 125.17 21.02C125.19 21.01 125.21 21.01 125.23 21.01C125.25 21.01 125.27 21 125.29 21C125.31 21 125.33 21.01 125.34 21.01C125.36 21.01 125.38 21.01 125.4 21.02C125.42 21.02 125.44 21.03 125.45 21.04C125.47 21.05 125.49 21.05 125.51 21.06C125.52 21.07 125.54 21.08 125.56 21.09C125.57 21.11 125.59 21.12 125.6 21.13C125.62 21.15 125.63 21.16 125.64 21.18C125.65 21.19 125.66 21.21 125.67 21.23C125.68 21.25 125.69 21.26 125.7 21.28ZM125.5 21.69L125.44 21.6C125.43 21.59 125.43 21.58 125.42 21.58C125.41 21.57 125.41 21.56 125.4 21.55C125.4 21.54 125.39 21.54 125.38 21.53C125.38 21.52 125.37 21.51 125.37 21.51C125.36 21.5 125.36 21.5 125.36 21.5C125.35 21.5 125.35 21.49 125.35 21.49C125.34 21.49 125.34 21.49 125.34 21.48C125.33 21.48 125.33 21.48 125.32 21.48C125.33 21.48 125.34 21.48 125.35 21.48C125.36 21.47 125.37 21.47 125.38 21.47C125.39 21.46 125.39 21.46 125.4 21.45C125.41 21.45 125.42 21.44 125.42 21.44C125.43 21.43 125.43 21.42 125.44 21.42C125.44 21.41 125.45 21.4 125.45 21.39C125.45 21.39 125.46 21.38 125.46 21.37C125.46 21.36 125.46 21.35 125.46 21.34C125.46 21.34 125.46 21.33 125.46 21.33C125.46 21.32 125.46 21.31 125.46 21.31C125.45 21.3 125.45 21.3 125.45 21.29C125.45 21.28 125.44 21.28 125.44 21.27C125.44 21.27 125.43 21.26 125.43 21.26C125.42 21.25 125.42 21.25 125.41 21.24C125.41 21.24 125.4 21.24 125.4 21.23C125.39 21.23 125.38 21.23 125.38 21.23C125.37 21.22 125.36 21.22 125.35 21.22C125.34 21.22 125.33 21.22 125.32 21.21C125.31 21.21 125.3 21.21 125.29 21.21C125.28 21.21 125.27 21.21 125.26 21.21L125.09 21.21L125.09 21.69L125.17 21.69L125.17 21.49L125.21 21.49C125.22 21.49 125.22 21.49 125.23 21.49C125.24 21.49 125.24 21.49 125.25 21.5C125.25 21.5 125.26 21.5 125.26 21.5C125.27 21.5 125.27 21.51 125.28 21.51C125.28 21.52 125.29 21.53 125.3 21.53C125.31 21.54 125.31 21.55 125.32 21.56C125.33 21.57 125.33 21.58 125.34 21.59C125.35 21.6 125.35 21.61 125.36 21.62L125.4 21.7L125.5 21.69Z" />
				</g>
			</g>
			<g id="Layer">
				<path id="Layer" class="shp0" d="M91.07 14.74C90 14.74 89.78 15.23 89.78 15.63C89.78 15.7 89.79 15.78 89.82 15.85C89.85 15.92 89.89 15.98 89.94 16.04C90 16.09 90.06 16.13 90.13 16.15C90.2 16.18 90.28 16.19 90.36 16.18C91.24 16.18 91.42 15.02 91.39 14.78C91.37 14.77 91.34 14.76 91.32 14.76C91.29 14.75 91.26 14.75 91.24 14.75C91.21 14.74 91.18 14.74 91.15 14.74C91.13 14.74 91.1 14.74 91.07 14.74L91.07 14.74Z" />
			</g>
			<g id="Layer">
				<g id="Layer">
					<path id="Layer" class="shp0" d="M102.2 12.78C101.4 12.78 101.24 13.69 101.24 13.78L102.87 13.78C102.87 13.71 103.03 12.78 102.2 12.78Z" />
				</g>
			</g>
			<g id="Layer">
				<path id="Layer" class="shp0" d="M122.18 12.94C121.53 12.94 121.02 13.69 121.02 14.82C121.02 15.52 121.27 15.96 121.8 15.96C122.6 15.96 122.98 14.93 122.98 14.15C122.98 13.3 122.7 12.94 122.18 12.94Z" />
			</g>
			<g id="Layer">
				<path id="Layer" fill-rule="evenodd" class="shp0" d="M125.42 16.7C125.43 16.71 125.43 16.73 125.44 16.74C125.44 16.76 125.45 16.77 125.45 16.79C125.46 16.81 125.46 16.82 125.46 16.84C125.47 16.85 125.47 16.87 125.47 16.89C125.47 16.9 125.47 16.92 125.46 16.93C125.46 16.95 125.46 16.97 125.46 16.98C125.45 17 125.45 17.01 125.44 17.03C125.43 17.04 125.43 17.06 125.42 17.07C125.41 17.09 125.4 17.1 125.39 17.11C125.38 17.13 125.37 17.14 125.36 17.15C125.35 17.16 125.33 17.17 125.32 17.18C125.31 17.19 125.29 17.2 125.28 17.21C125.27 17.22 125.25 17.23 125.24 17.23C125.22 17.24 125.21 17.24 125.19 17.25C125.18 17.25 125.16 17.26 125.14 17.26C125.13 17.26 125.11 17.26 125.1 17.26C125.08 17.26 125.06 17.26 125.05 17.26C125.03 17.25 125.02 17.25 125 17.25C124.99 17.24 124.97 17.24 124.96 17.23C124.94 17.23 124.93 17.22 124.91 17.21C124.88 17.19 124.86 17.17 124.83 17.15C124.81 17.13 124.79 17.1 124.77 17.07C124.76 17.04 124.75 17.01 124.74 16.98C124.73 16.95 124.72 16.92 124.73 16.89C124.73 16.87 124.73 16.85 124.73 16.84C124.73 16.82 124.73 16.81 124.74 16.79C124.74 16.77 124.75 16.76 124.75 16.74C124.76 16.73 124.77 16.71 124.78 16.7C124.78 16.69 124.79 16.67 124.8 16.66C124.81 16.64 124.82 16.63 124.83 16.62C124.85 16.61 124.86 16.6 124.87 16.59C124.89 16.58 124.9 16.57 124.91 16.56C124.93 16.55 124.94 16.55 124.96 16.54C124.97 16.54 124.99 16.53 125 16.53C125.02 16.52 125.03 16.52 125.05 16.52C125.06 16.51 125.08 16.51 125.1 16.51C125.11 16.51 125.13 16.51 125.14 16.52C125.16 16.52 125.17 16.52 125.19 16.53C125.21 16.53 125.22 16.53 125.24 16.54C125.25 16.55 125.26 16.55 125.28 16.56C125.29 16.57 125.31 16.58 125.32 16.59C125.33 16.6 125.35 16.61 125.36 16.62C125.37 16.63 125.38 16.65 125.39 16.66C125.4 16.67 125.41 16.69 125.42 16.7ZM125.3 17.13L125.25 17.03C125.24 17.02 125.24 17.01 125.23 17.01C125.22 17 125.22 16.99 125.21 16.98C125.21 16.97 125.2 16.97 125.19 16.96C125.19 16.95 125.18 16.94 125.18 16.94C125.17 16.93 125.17 16.93 125.17 16.93C125.16 16.93 125.16 16.92 125.16 16.92C125.15 16.92 125.15 16.92 125.15 16.92C125.14 16.92 125.14 16.91 125.13 16.91C125.14 16.91 125.15 16.91 125.16 16.91C125.17 16.91 125.18 16.9 125.19 16.9C125.2 16.9 125.2 16.89 125.21 16.89C125.22 16.88 125.23 16.87 125.23 16.87C125.24 16.86 125.25 16.86 125.25 16.85C125.25 16.84 125.26 16.83 125.26 16.83C125.27 16.82 125.27 16.81 125.27 16.8C125.27 16.79 125.27 16.79 125.27 16.78C125.27 16.77 125.27 16.76 125.27 16.76C125.27 16.75 125.27 16.75 125.27 16.74C125.27 16.73 125.26 16.73 125.26 16.72C125.26 16.72 125.25 16.71 125.25 16.71C125.25 16.7 125.24 16.7 125.24 16.69C125.23 16.69 125.23 16.68 125.22 16.68C125.22 16.68 125.21 16.67 125.21 16.67C125.2 16.67 125.2 16.66 125.19 16.66C125.18 16.66 125.17 16.66 125.16 16.65C125.15 16.65 125.14 16.65 125.13 16.65C125.12 16.65 125.11 16.65 125.1 16.65C125.09 16.65 125.08 16.65 125.07 16.65L124.9 16.65L124.9 17.13L124.98 17.13L124.98 16.93L125.03 16.93C125.03 16.93 125.04 16.93 125.04 16.93C125.05 16.93 125.05 16.93 125.06 16.93C125.06 16.93 125.07 16.93 125.07 16.94C125.08 16.94 125.08 16.94 125.09 16.94C125.1 16.95 125.1 16.96 125.11 16.97C125.12 16.98 125.13 16.99 125.13 17C125.14 17.01 125.15 17.02 125.15 17.03C125.16 17.04 125.16 17.05 125.17 17.06L125.21 17.13L125.3 17.13Z" />
			</g>
			<g id="Layer">
				<path id="Layer" class="shp0" d="M114.88 14.74C113.8 14.74 113.58 15.23 113.58 15.63C113.58 15.7 113.59 15.78 113.62 15.85C113.65 15.92 113.69 15.98 113.75 16.04C113.8 16.09 113.87 16.13 113.94 16.15C114.01 16.18 114.08 16.19 114.16 16.18C115.04 16.18 115.23 15.02 115.2 14.78C115.17 14.77 115.15 14.76 115.12 14.76C115.09 14.75 115.07 14.75 115.04 14.75C115.01 14.74 114.99 14.74 114.96 14.74C114.93 14.74 114.9 14.74 114.88 14.74Z" />
			</g>
			<g id="Layer">
				<g id="Layer">
					<path id="Layer" class="shp0" d="M125.18 16.75C125.18 16.75 125.17 16.74 125.17 16.74C125.17 16.74 125.17 16.74 125.16 16.73C125.16 16.73 125.16 16.73 125.15 16.73C125.15 16.73 125.15 16.73 125.15 16.72C125.14 16.72 125.13 16.72 125.13 16.72C125.12 16.72 125.11 16.72 125.11 16.72C125.1 16.72 125.09 16.71 125.09 16.71C125.08 16.71 125.07 16.71 125.07 16.71L124.98 16.71L124.98 16.86L125.08 16.86C125.08 16.86 125.09 16.86 125.1 16.86C125.11 16.86 125.11 16.86 125.12 16.86C125.13 16.85 125.14 16.85 125.15 16.85C125.15 16.85 125.16 16.84 125.17 16.84C125.17 16.84 125.17 16.83 125.18 16.83C125.18 16.82 125.18 16.82 125.18 16.81C125.19 16.81 125.19 16.81 125.19 16.8C125.19 16.8 125.19 16.79 125.19 16.79C125.19 16.78 125.19 16.78 125.19 16.78C125.19 16.77 125.19 16.77 125.19 16.77C125.19 16.76 125.18 16.76 125.18 16.76C125.18 16.75 125.18 16.75 125.18 16.75Z" />
				</g>
			</g>
		</g>
		<text id="/" style="transform: matrix(1,0,0,1,63.776,21)" >
			<tspan x="0" y="0" class="txt1">/</tspan>
		</text>
	</g>
</svg>