<svg xmlns="http://www.w3.org/2000/svg" viewBox="0 0 156 156" width="166" height="166">
	<style>
		tspan { white-space:pre }
		.shp0 { fill: #ffffff } 
		.shp1 { fill: #f0f5f7 } 
		.shp2 { fill: #dce4ea } 
		.shp3 { fill: #6f8ba5 } 
	</style>
	<g id="Layer">
		<path id="Layer" class="shp0" d="M78 156C34.87 156 0 121.13 0 78C0 34.87 34.87 0 78 0C121.13 0 156 34.87 156 78C156 121.13 121.13 156 78 156Z" />
		<g id="Layer">
			<g id="Layer">
				<path id="Layer" class="shp1" d="M136.32 86L136.32 100.84C136.32 104.45 135.74 108.03 134.6 111.45C133.45 114.87 131.77 118.09 129.6 120.97C127.43 123.86 124.81 126.37 121.84 128.42C118.86 130.46 115.58 132.02 112.11 133.02C111.96 133.06 111.8 133.1 111.65 133.12C111.49 133.15 111.33 133.16 111.17 133.16C111.01 133.16 110.85 133.15 110.69 133.12C110.53 133.1 110.37 133.06 110.22 133.02C106.82 132.04 103.6 130.53 100.68 128.54C97.75 126.56 95.16 124.12 93 121.32C90.84 118.53 89.13 115.41 87.95 112.08C86.76 108.75 86.11 105.25 86.02 101.72L32.14 101.72C31.73 101.71 31.32 101.63 30.94 101.48C30.56 101.32 30.21 101.09 29.92 100.8C29.63 100.5 29.4 100.16 29.24 99.78C29.08 99.4 29 98.99 29 98.58L29 41.98C29 41.56 29.09 41.16 29.24 40.78C29.4 40.4 29.63 40.05 29.93 39.76C30.22 39.47 30.56 39.24 30.94 39.08C31.32 38.92 31.73 38.84 32.14 38.84L120.6 38.84C121.01 38.84 121.42 38.92 121.8 39.08C122.18 39.24 122.53 39.47 122.82 39.76C123.11 40.05 123.34 40.4 123.5 40.78C123.66 41.16 123.74 41.57 123.74 41.98L123.74 80.04L134.04 82.98C134.37 83.07 134.68 83.22 134.96 83.41C135.24 83.6 135.48 83.84 135.69 84.11C135.89 84.38 136.05 84.68 136.16 85C136.27 85.32 136.32 85.66 136.32 86L136.32 86Z" />
			</g>
			<path id="Layer" class="shp2" d="M118.39 70.87L109.96 67.43L91.49 73.95C91.49 73.95 80.53 77.13 80.69 81.1C80.84 85.07 80.69 97.79 80.69 97.79L89.27 95.4L89.9 85.23L109.96 81.9L119.78 81.9L119.78 76.5L118.39 70.87Z" />
			<path id="Layer" class="shp2" d="M112.96 81.83L112.96 128.98L121.51 124.04L128.93 116.53L132.35 105.5L131.02 94.95L132.35 88.68L126.93 85.73L112.96 81.83Z" />
			<g id="Layer">
				<path id="Layer" fill-rule="evenodd" class="shp3" d="M134.04 82.98C134.37 83.07 134.68 83.22 134.96 83.41C135.24 83.6 135.48 83.84 135.69 84.11C135.89 84.38 136.05 84.68 136.16 85C136.27 85.32 136.32 85.66 136.32 86L136.32 100.84C136.32 104.45 135.74 108.03 134.6 111.45C133.46 114.88 131.77 118.09 129.6 120.98C127.43 123.86 124.81 126.38 121.84 128.42C118.87 130.47 115.59 132.03 112.12 133.03C111.97 133.07 111.81 133.11 111.65 133.13C111.49 133.16 111.33 133.17 111.17 133.17C111.01 133.17 110.85 133.16 110.69 133.13C110.54 133.11 110.38 133.07 110.23 133.03C106.83 132.05 103.61 130.54 100.68 128.55C97.76 126.57 95.17 124.13 93 121.34C90.84 118.54 89.14 115.42 87.95 112.09C86.77 108.76 86.12 105.26 86.03 101.73L32.14 101.73C31.73 101.73 31.32 101.64 30.94 101.49C30.56 101.33 30.21 101.1 29.92 100.8C29.63 100.51 29.4 100.17 29.24 99.78C29.08 99.4 29 98.99 29 98.58L29 41.98C29 41.57 29.08 41.16 29.24 40.78C29.4 40.4 29.63 40.05 29.92 39.76C30.22 39.47 30.56 39.24 30.94 39.08C31.32 38.92 31.73 38.84 32.14 38.84L120.6 38.84C121.01 38.84 121.42 38.92 121.8 39.08C122.18 39.24 122.53 39.47 122.82 39.76C123.11 40.05 123.34 40.4 123.5 40.78C123.66 41.16 123.74 41.57 123.75 41.98L123.75 80.04L134.04 82.98ZM42.03 45.13L76.57 69.57L110.79 45.13L42.03 45.13ZM108.02 83.88L92.3 88.37L92.3 100.84C92.31 103.41 92.68 105.97 93.41 108.45C94.13 110.92 95.2 113.27 96.59 115.44C97.97 117.62 99.66 119.58 101.59 121.28C103.53 122.98 105.69 124.4 108.02 125.49L108.02 83.88ZM117.46 78.24L117.46 48.09L78.41 75.98C78.15 76.17 77.85 76.32 77.55 76.42C77.24 76.52 76.91 76.57 76.59 76.57C76.26 76.57 75.94 76.52 75.63 76.42C75.32 76.32 75.03 76.18 74.77 75.99L35.29 48.06L35.29 95.44L86.02 95.44L86.02 86C86.02 85.66 86.07 85.32 86.18 85C86.29 84.68 86.45 84.38 86.65 84.11C86.86 83.84 87.1 83.6 87.38 83.41C87.66 83.22 87.97 83.07 88.3 82.98L110.3 76.69C110.45 76.65 110.59 76.62 110.73 76.6C110.88 76.58 111.02 76.57 111.17 76.57C111.31 76.57 111.46 76.58 111.6 76.6C111.75 76.62 111.89 76.65 112.03 76.69L117.46 78.24ZM130.03 88.37L114.31 83.88L114.31 125.49C116.64 124.4 118.81 122.98 120.74 121.28C122.68 119.58 124.36 117.62 125.74 115.45C127.13 113.27 128.2 110.92 128.93 108.45C129.65 105.98 130.02 103.42 130.03 100.84L130.03 88.37Z" />
			</g>
		</g>
	</g>
</svg>