<svg xmlns="http://www.w3.org/2000/svg" width="29.065" height="16.858" viewBox="0 0 29.065 16.858"><defs><style>.a{fill:#1a3253;stroke:#1a3253;stroke-width:0.3px;}</style></defs><g transform="translate(0.15 0.15)"><g transform="translate(0 0)"><path class="a" d="M15.948,0H3.113A3.117,3.117,0,0,0,0,3.113V13.445a3.117,3.117,0,0,0,3.113,3.113H15.948a3.117,3.117,0,0,0,3.113-3.113V3.113A3.117,3.117,0,0,0,15.948,0Zm1.868,13.445a1.87,1.87,0,0,1-1.868,1.868H3.113a1.87,1.87,0,0,1-1.868-1.868V3.113A1.87,1.87,0,0,1,3.113,1.245H15.948a1.87,1.87,0,0,1,1.868,1.868Z"/><path class="a" d="M339.252,24.8a.623.623,0,0,0-.625,0l-6.884,4.064a.623.623,0,0,0-.306.536v3.755a.623.623,0,0,0,.241.492L338.562,39a.623.623,0,0,0,1-.492V25.343A.623.623,0,0,0,339.252,24.8Zm-.931,12.433-5.639-4.378V29.763l5.639-3.329Z" transform="translate(-310.801 -23.181)"/></g></g></svg>