<svg xmlns="http://www.w3.org/2000/svg" viewBox="0 0 42 42" width="60" height="60">
	<style>
		tspan { white-space:pre }
		.shp0 { fill: #f0f5f7 } 
		.shp1 { fill: none;stroke: #ffffff;stroke-width: 4 } 
		.shp2 { fill: #03a9f5;stroke: #03a9f5;stroke-width: 0.5 } 
	</style>
	<g id="Layer">
		<g id="Layer">
			<path id="Layer" class="shp0" d="M21 42C9.39 42 0 32.61 0 21C0 9.39 9.39 0 21 0C32.61 0 42 9.39 42 21C42 32.61 32.61 42 21 42Z" />
			<path id="Layer" class="shp1" d="M21 40C10.49 40 2 31.51 2 21C2 10.49 10.49 2 21 2C31.51 2 40 10.49 40 21C40 31.51 31.51 40 21 40Z" />
		</g>
		<g id="Layer">
			<g id="Layer">
				<path id="Layer" fill-rule="evenodd" class="shp2" d="M28.4 14.65C28.69 14.65 28.97 14.71 29.23 14.82C29.49 14.93 29.73 15.09 29.93 15.29C30.14 15.49 30.3 15.73 30.41 15.99C30.52 16.26 30.57 16.54 30.58 16.82L30.58 21.18C30.57 21.21 30.57 21.25 30.57 21.28C30.57 21.32 30.57 21.35 30.56 21.39C30.56 21.42 30.56 21.45 30.55 21.49C30.55 21.52 30.54 21.56 30.53 21.59C30.53 21.61 30.52 21.63 30.52 21.66C30.51 21.68 30.51 21.7 30.5 21.72C30.49 21.74 30.49 21.77 30.48 21.79C30.47 21.81 30.46 21.83 30.46 21.85C30.45 21.89 30.44 21.93 30.42 21.96C30.41 21.99 30.4 22.02 30.39 22.04C30.38 22.07 30.36 22.1 30.35 22.13C30.34 22.15 30.32 22.18 30.31 22.21C30.29 22.23 30.28 22.26 30.26 22.28C30.26 22.29 30.26 22.29 30.26 22.29C30.26 22.29 30.26 22.29 30.26 22.29C30.26 22.29 30.26 22.29 30.26 22.29C30.26 22.29 30.26 22.3 30.26 22.3C30.24 22.32 30.22 22.35 30.2 22.38C30.19 22.4 30.17 22.43 30.15 22.45C30.13 22.48 30.11 22.5 30.09 22.53C30.07 22.55 30.05 22.58 30.03 22.6L30.03 27.7C30.03 27.99 29.97 28.27 29.86 28.53C29.75 28.79 29.59 29.03 29.39 29.23C29.19 29.44 28.95 29.6 28.69 29.7C28.42 29.81 28.14 29.87 27.86 29.87L13.72 29.87C13.43 29.87 13.15 29.81 12.89 29.7C12.62 29.59 12.38 29.43 12.18 29.23C11.98 29.03 11.82 28.79 11.71 28.53C11.6 28.26 11.54 27.98 11.54 27.7L11.54 22.6C11.52 22.57 11.5 22.55 11.48 22.52C11.46 22.5 11.44 22.47 11.43 22.45C11.41 22.42 11.39 22.4 11.37 22.37C11.35 22.34 11.34 22.32 11.32 22.29L11.31 22.28C11.3 22.26 11.28 22.23 11.27 22.2C11.25 22.18 11.24 22.15 11.23 22.12C11.21 22.1 11.2 22.07 11.19 22.04C11.17 22.01 11.16 21.99 11.15 21.96C11.14 21.92 11.13 21.89 11.12 21.85C11.11 21.83 11.1 21.81 11.1 21.79C11.09 21.76 11.08 21.74 11.08 21.72C11.07 21.7 11.06 21.68 11.06 21.65C11.05 21.63 11.05 21.61 11.04 21.59C11.04 21.55 11.03 21.52 11.02 21.49C11.02 21.45 11.01 21.42 11.01 21.38C11.01 21.35 11 21.31 11 21.28C11 21.24 11 21.21 11 21.18L11 16.83C11 16.54 11.06 16.26 11.17 15.99C11.28 15.73 11.44 15.49 11.64 15.29C11.84 15.09 12.08 14.93 12.34 14.82C12.61 14.71 12.89 14.65 13.18 14.65L16.05 14.65C16.05 14.3 16.12 13.94 16.26 13.61C16.4 13.29 16.6 12.99 16.85 12.73C17.1 12.48 17.4 12.28 17.73 12.14C18.05 12.01 18.41 11.93 18.76 11.93L22.81 11.93C23.17 11.93 23.52 12 23.85 12.14C24.18 12.28 24.48 12.48 24.73 12.73C24.99 12.98 25.19 13.28 25.32 13.61C25.46 13.94 25.53 14.29 25.53 14.65L28.4 14.65ZM18.76 13.02C18.55 13.02 18.34 13.06 18.14 13.15C17.94 13.23 17.76 13.35 17.61 13.5C17.46 13.65 17.34 13.83 17.26 14.03C17.18 14.23 17.14 14.44 17.14 14.65L24.44 14.65C24.43 14.44 24.39 14.23 24.31 14.03C24.23 13.83 24.11 13.65 23.96 13.5C23.81 13.35 23.63 13.23 23.43 13.15C23.24 13.06 23.02 13.02 22.81 13.02L18.76 13.02ZM29.85 21.17L29.85 16.82C29.85 16.63 29.82 16.44 29.74 16.27C29.67 16.09 29.56 15.93 29.43 15.8C29.29 15.66 29.13 15.56 28.96 15.48C28.78 15.41 28.59 15.37 28.4 15.37L21.87 15.37L21.87 21.17L19.7 21.17L19.7 15.37L13.18 15.37C12.98 15.37 12.8 15.41 12.62 15.48C12.44 15.55 12.28 15.66 12.15 15.8C12.01 15.93 11.9 16.09 11.83 16.27C11.76 16.44 11.72 16.63 11.72 16.83L11.72 21.17C11.72 21.26 11.73 21.35 11.74 21.43C11.76 21.52 11.78 21.6 11.82 21.68C11.85 21.76 11.89 21.84 11.93 21.91C11.98 21.99 12.03 22.05 12.09 22.12L12.18 22.23C12.25 22.29 12.32 22.35 12.4 22.4C12.48 22.45 12.56 22.49 12.64 22.52C12.73 22.56 12.81 22.58 12.9 22.6C12.99 22.62 13.08 22.63 13.18 22.63L18.61 22.63L18.61 23.35L13.18 23.35C13.1 23.35 13.02 23.35 12.94 23.34C12.86 23.33 12.79 23.31 12.71 23.3C12.63 23.28 12.56 23.26 12.48 23.23C12.41 23.21 12.34 23.18 12.27 23.14L12.27 27.7C12.27 27.89 12.3 28.08 12.38 28.26C12.45 28.43 12.56 28.59 12.69 28.73C12.83 28.86 12.99 28.97 13.16 29.04C13.34 29.12 13.53 29.15 13.72 29.16L27.86 29.16C28.05 29.15 28.24 29.12 28.41 29.04C28.59 28.97 28.75 28.86 28.88 28.73C29.02 28.59 29.13 28.43 29.2 28.26C29.27 28.08 29.31 27.89 29.31 27.7L29.31 23.15C29.24 23.18 29.17 23.21 29.09 23.23C29.02 23.26 28.94 23.28 28.87 23.3C28.79 23.32 28.71 23.33 28.63 23.34C28.56 23.35 28.48 23.35 28.4 23.35L22.96 23.35L22.96 22.63L28.4 22.63C28.49 22.63 28.58 22.62 28.67 22.6C28.76 22.59 28.85 22.56 28.93 22.53C29.01 22.49 29.1 22.45 29.17 22.4C29.25 22.35 29.32 22.29 29.39 22.23L29.49 22.12C29.54 22.06 29.6 21.99 29.64 21.91C29.69 21.84 29.73 21.76 29.76 21.68C29.79 21.6 29.81 21.52 29.83 21.43C29.84 21.35 29.85 21.26 29.85 21.18L29.85 21.17Z" />
				<path id="Layer" class="shp2" d="M19.7 22.26L21.88 22.26L21.88 24.44L19.7 24.44L19.7 22.26Z" />
			</g>
		</g>
	</g>
</svg>