<?xml version="1.0" encoding="UTF-8"?>
<svg xmlns="http://www.w3.org/2000/svg" xmlns:xlink="http://www.w3.org/1999/xlink" width="50pt" height="50pt" viewBox="0 0 50 50" version="1.1">
<defs>
<clipPath id="clip1">
  <path d="M 2.082031 2.082031 L 47.917969 2.082031 L 47.917969 47.917969 L 2.082031 47.917969 Z M 2.082031 2.082031 "/>
</clipPath>
</defs>
<g id="surface1">
<g clip-path="url(#clip1)" clip-rule="nonzero">
<path style="fill-rule:nonzero;fill:rgb(100%,100%,100%);fill-opacity:1;stroke-width:0.2;stroke-linecap:butt;stroke-linejoin:miter;stroke:rgb(100%,100%,100%);stroke-opacity:1;stroke-miterlimit:4;" d="M 7.592 -2.999985 C 1.741988 -2.999985 -2.999985 1.741988 -2.999985 7.592 C -2.999985 13.442012 1.741988 18.183985 7.592 18.183985 C 13.442012 18.183985 18.183985 13.442012 18.183985 7.592 C 18.183985 1.741988 13.442012 -2.999985 7.592 -2.999985 Z M 16.753374 11.300653 L 13.740892 11.820046 C 14.085331 10.555277 14.27122 9.25406 14.294911 7.94373 L 17.469591 7.94373 C 17.429497 9.095508 17.187114 10.230884 16.751552 11.300653 Z M -2.285591 7.945552 L 0.889089 7.945552 C 0.91278 9.255882 1.098669 10.5571 1.443109 11.821869 L -1.569374 11.302475 C -2.003113 10.234529 -2.245497 9.09733 -2.285591 7.945552 Z M -1.567552 3.881525 L 1.443109 3.360309 C 1.098669 4.625078 0.91278 5.928118 0.889089 7.238448 L -2.285591 7.238448 C -2.245497 6.08667 -2.003113 4.949471 -1.569374 3.881525 Z M 7.945552 2.669606 C 9.213966 2.686008 10.478735 2.800822 11.730747 3.015869 L 12.975469 3.229094 C 13.35818 4.532134 13.565938 5.880735 13.58963 7.238448 L 7.945552 7.238448 Z M 11.849205 2.319699 C 10.558922 2.099185 9.25406 1.978904 7.945552 1.962502 L 7.945552 -2.274656 C 9.968454 -2.079656 11.727102 -0.226241 12.723973 2.470961 Z M 7.238448 1.962502 C 5.931763 1.978904 4.6269 2.099185 3.33844 2.319699 L 2.460027 2.469139 C 3.460543 -0.229886 5.215547 -2.081478 7.238448 -2.274656 Z M 3.453253 3.014046 C 4.705265 2.800822 5.970034 2.684186 7.238448 2.667784 L 7.238448 7.238448 L 1.599838 7.238448 C 1.62353 5.880735 1.829465 4.532134 2.212176 3.229094 Z M 1.599838 7.945552 L 7.238448 7.945552 L 7.238448 12.514393 C 5.970034 12.497992 4.705265 12.383178 3.453253 12.168131 L 2.208531 11.954906 C 1.82582 10.650044 1.621707 9.303265 1.599838 7.945552 Z M 3.33844 12.864301 C 4.628723 13.086638 5.933585 13.205096 7.242093 13.22332 L 7.242093 17.460479 C 5.219191 17.265478 3.460543 15.412063 2.463672 12.714861 Z M 7.949197 13.22332 C 9.255882 13.205096 10.560745 13.084815 11.849205 12.864301 L 12.722151 12.714861 C 11.723457 15.413886 9.968454 17.265478 7.94373 17.458656 Z M 11.734392 12.168131 C 10.484202 12.383178 9.217611 12.497992 7.949197 12.514393 L 7.949197 7.945552 L 13.593274 7.945552 C 13.569583 9.303265 13.363648 10.651866 12.979114 11.954906 Z M 14.298556 7.238448 C 14.276687 5.928118 14.088976 4.6269 13.744536 3.362131 L 16.757019 3.881525 C 17.190759 4.951294 17.433142 6.08667 17.473236 7.24027 Z M 16.399822 3.099701 L 13.513087 2.600354 C 12.995516 0.905491 12.024159 -0.616242 10.704717 -1.800823 C 13.17047 -0.975261 15.217063 0.783388 16.399822 3.099701 Z M 4.484751 -1.791711 C 3.167131 -0.608952 2.195774 0.909136 1.67638 2.600354 L -1.210355 3.099701 C -0.0257729 0.787032 2.018998 -0.967971 4.484751 -1.791711 Z M -1.215822 12.080654 L 1.672735 12.581824 C 2.190307 14.276687 3.161664 15.796597 4.481106 16.981179 C 2.015353 16.155616 -0.0275953 14.396968 -1.210355 12.080654 Z M 10.69925 16.975711 C 12.018692 15.791129 12.990049 14.269397 13.509442 12.574534 L 16.396177 12.075187 C 15.211596 14.3915 13.166825 16.150149 10.69925 16.975711 Z M 10.69925 16.975711 " transform="matrix(2.143425,0,0,2.143425,8.727117,8.727117)"/>
</g>
</g>
</svg>
