<svg xmlns="http://www.w3.org/2000/svg" width="16.858" height="16.519" viewBox="0 0 16.858 16.519">
  <g id="Group_201" data-name="Group 201" transform="translate(-171 -556.5)">
    <g id="Group_198" data-name="Group 198" transform="translate(174.404 559.393)">
      <path id="Path_26" data-name="Path 26" d="M58.044,176.894V185a2.88,2.88,0,0,1-2.872,2.872H47.062a2.876,2.876,0,0,1-2.472-1.417h7.578a4.125,4.125,0,0,0,4.121-4.121V174.25A2.879,2.879,0,0,1,58.044,176.894Z" transform="translate(-44.59 -174.25)" fill="#eaf1f4"/>
    </g>
    <g id="Group_200" data-name="Group 200" transform="translate(171 556.5)">
      <g id="Group_199" data-name="Group 199" transform="translate(0 0)">
        <path id="Path_27" data-name="Path 27" d="M31.185,153.952v8.109a2.88,2.88,0,0,1-2.872,2.872H20.2a2.881,2.881,0,0,1-2.872-2.872v-8.109A2.88,2.88,0,0,1,20.2,151.08h8.11a2.879,2.879,0,0,1,2.863,2.665C31.182,153.813,31.185,153.882,31.185,153.952Z" transform="translate(-17.33 -151.08)" fill="#eaf1f4"/>
      </g>
    </g>
  </g>
</svg>
