<svg xmlns="http://www.w3.org/2000/svg" width="114" height="83" viewBox="0 0 114 83">
  <defs>
    <style>
      .cls-1 {
        fill: #f0f5f7;
      }

      .cls-2 {
        fill: #03a9f5;
        font-size: 12px;
        font-family: SFProDisplay-Regular, SF Pro Display;
        letter-spacing: 0.016em;
      }

      .cls-2, .cls-3 {
        opacity: 0.6;
      }

      .cls-4 {
        fill: #62c7f6;
      }
    </style>
  </defs>
  <g id="Group_8727" data-name="Group 8727" transform="translate(-10 -624)">
    <path id="Path_9010" data-name="Path 9010" class="cls-1" d="M22,0H92a22,22,0,0,1,22,22V61A22,22,0,0,1,92,83H22A22,22,0,0,1,0,61V22A22,22,0,0,1,22,0Z" transform="translate(10 624)"/>
    <g id="Group_8533" data-name="Group 8533" transform="translate(-140 352.477)">
      <g id="Group_8531" data-name="Group 8531" transform="translate(0 -8)">
        <text id="Sales_listing" data-name="Sales listing" class="cls-2" transform="translate(207 337.047)"><tspan x="-30.77" y="0">Sales listing</tspan></text>
      </g>
      <g id="Group_8535" data-name="Group 8535" class="cls-3" transform="translate(-722.765 109.39)">
        <g id="Group_244" data-name="Group 244" transform="translate(926.994 189.255)">
          <path id="Path_48" data-name="Path 48" class="cls-4" d="M970.363,212.658v-1.045h1.479v1.045a2.128,2.128,0,0,1,1.94,2.306v.3h-1.709v-.391c0-.674-.329-.93-.9-.93s-.9.256-.9.93.329,1.146,1.545,1.942c1.479.971,1.989,1.713,1.989,2.792a2.153,2.153,0,0,1-1.956,2.32v1.032h-1.479v-1.032a2.142,2.142,0,0,1-1.956-2.32v-.648h1.709v.742c0,.674.362.917.937.917s.937-.243.937-.917-.329-1.16-1.545-1.942c-1.479-.958-1.989-1.713-1.989-2.792A2.13,2.13,0,0,1,970.363,212.658Z" transform="translate(-968.407 -211.613)"/>
        </g>
        <path id="Path_49" data-name="Path 49" class="cls-4" d="M948.551,190.392l-1.039,2.527-1.039,2.529-1.882-1.983-1.88-1.982,2.083-.389a8.6,8.6,0,0,0-15.615.489H927.34a10.316,10.316,0,0,1,19.2-.815Z" transform="translate(-7.41 0)"/>
        <path id="Path_50" data-name="Path 50" class="cls-4" d="M939.449,246.782a10.315,10.315,0,0,1-19.071,1.1l-1.989.461.929-2.57.929-2.57,1.966,1.9,1.964,1.9-2.075.482a8.6,8.6,0,0,0,15.506-.7Z" transform="translate(0 -48.511)"/>
      </g>
    </g>
  </g>
</svg>
