<svg xmlns="http://www.w3.org/2000/svg" width="23.768" height="23.715" viewBox="0 0 23.768 23.715">
  <g id="Group_241" data-name="Group 241" transform="translate(-1156.195 -988.687)">
    <g id="Group_240" data-name="Group 240" transform="translate(1156.599 989.091)">
      <path id="Path_42" data-name="Path 42" d="M1172.934,1003a9.259,9.259,0,0,0-2.3-12.338,8.96,8.96,0,0,0-12.494,12.413,9.278,9.278,0,0,0,12.412,2.408l.2.19.055.051q2.8,2.8,5.6,5.6a1.762,1.762,0,0,0,3.088-.556c.293-.821-.128-1.317-.74-1.933q-1.889-1.9-3.788-3.791l-1.846-1.847C1173.052,1003.129,1172.992,1003.061,1172.934,1003Zm-13.778-4.952a6.391,6.391,0,1,1,6.412,6.37A6.377,6.377,0,0,1,1159.156,998.047Z" transform="translate(-1156.599 -989.091)" fill="#0b1131" stroke="#fff" stroke-width="0.8"/>
      <path id="Path_43" data-name="Path 43" d="M1211.685,1048.995a1.118,1.118,0,0,0,.931,1.076.991.991,0,0,0,1.134-.73,3.135,3.135,0,0,1,2.374-2.37.992.992,0,0,0,.709-1.124.973.973,0,0,0-1.009-.857,2.554,2.554,0,0,0-.874.2,5.819,5.819,0,0,0-2.934,2.8A7.166,7.166,0,0,0,1211.685,1048.995Z" transform="translate(-1207.648 -1040.891)" fill="#0b1131" stroke="#fff" stroke-width="0.8"/>
    </g>
  </g>
</svg>
