<?xml version="1.0" encoding="UTF-8"?>
<svg version="1.1" xmlns="http://www.w3.org/2000/svg" width="140" height="136">
<path d="M0 0 C1.70675903 0.01244751 1.70675903 0.01244751 3.44799805 0.02514648 C23.63495464 0.42925953 39.28664343 8.05799126 53.1875 22.4375 C66.9346889 37.11198664 71.04992381 54.43944099 70.53125 74.015625 C69.56432754 93.83753549 59.7476332 108.60786494 45.71484375 121.75390625 C32.70350805 132.90345733 17.01349633 136.99235032 0.1875 136.8125 C-0.89789063 136.82410156 -1.98328125 136.83570313 -3.1015625 136.84765625 C-13.76351031 136.80948699 -23.47181237 134.69574837 -32.9375 129.75 C-33.95360352 129.22672119 -33.95360352 129.22672119 -34.99023438 128.69287109 C-52.13474194 119.59353403 -63.10042608 104.24481518 -68.8125 85.875 C-73.00210597 65.85799371 -69.6460043 46.65147309 -58.8125 29.4375 C-51.97979997 19.42283571 -43.64159297 12.63745511 -32.9375 7.125 C-32.00260742 6.63652588 -32.00260742 6.63652588 -31.04882812 6.13818359 C-21.12369478 1.27426121 -10.95276625 -0.10372092 0 0 Z " fill="#FDFDFE" transform="translate(69.8125,-0.4375)"/>
<path d="M0 0 C1.70675903 0.01244751 1.70675903 0.01244751 3.44799805 0.02514648 C23.63495464 0.42925953 39.28664343 8.05799126 53.1875 22.4375 C66.9346889 37.11198664 71.04992381 54.43944099 70.53125 74.015625 C69.56432754 93.83753549 59.7476332 108.60786494 45.71484375 121.75390625 C32.70350805 132.90345733 17.01349633 136.99235032 0.1875 136.8125 C-0.89789063 136.82410156 -1.98328125 136.83570313 -3.1015625 136.84765625 C-13.76351031 136.80948699 -23.47181237 134.69574837 -32.9375 129.75 C-33.95360352 129.22672119 -33.95360352 129.22672119 -34.99023438 128.69287109 C-52.13474194 119.59353403 -63.10042608 104.24481518 -68.8125 85.875 C-73.00210597 65.85799371 -69.6460043 46.65147309 -58.8125 29.4375 C-51.97979997 19.42283571 -43.64159297 12.63745511 -32.9375 7.125 C-32.00260742 6.63652588 -32.00260742 6.63652588 -31.04882812 6.13818359 C-21.12369478 1.27426121 -10.95276625 -0.10372092 0 0 Z M-49.8125 28.4375 C-61.94346536 44.19662564 -65.82109017 61.19174114 -63.3125 80.8125 C-59.68669687 97.59121657 -49.66925973 111.65869605 -35.3515625 120.9765625 C-19.07242221 130.34332938 -0.11786614 133.25866639 18.1875 128.4375 C35.51050179 123.00948475 48.57154601 113.55563831 57.1875 97.4375 C64.99336265 80.11178899 66.58443845 63.49590933 60.1875 45.4375 C54.06929297 30.62412374 43.61103515 19.42288922 29.1875 12.4375 C0.94440939 0.89246794 -28.7227861 5.52063027 -49.8125 28.4375 Z " fill="#2B527A" transform="translate(69.8125,-0.4375)"/>
<path d="M0 0 C5.44945667 3.33350712 8.18340349 8.02740789 10.11328125 14.0390625 C11.24861401 21.20958519 10.27252694 27.06611295 6.11328125 33.0390625 C2.24043505 37.77254119 -2.9161387 41.55528869 -9.12695312 42.31201172 C-11.43372694 42.32442975 -13.70936239 42.24327583 -16.01171875 42.1015625 C-23.95900707 41.65709813 -29.21684325 42.94205351 -35.43359375 48.40625 C-40.4819073 54.07881738 -42.43260899 60.53932542 -42.55078125 68.0078125 C-42.66164063 68.678125 -42.7725 69.3484375 -42.88671875 70.0390625 C-45.88671875 72.0390625 -45.88671875 72.0390625 -47.94921875 71.8515625 C-49.88671875 71.0390625 -49.88671875 71.0390625 -51.88671875 68.0390625 C-52.39998576 58.71471174 -48.99471886 50.15376243 -43.01171875 43.1640625 C-39.87946416 39.86233891 -36.87840991 37.22498861 -32.88671875 35.0390625 C-32.22671875 35.0390625 -31.56671875 35.0390625 -30.88671875 35.0390625 C-31.30244141 34.22501953 -31.30244141 34.22501953 -31.7265625 33.39453125 C-32.08878906 32.67910156 -32.45101562 31.96367188 -32.82421875 31.2265625 C-33.18386719 30.51886719 -33.54351562 29.81117187 -33.9140625 29.08203125 C-36.73830972 23.14997785 -36.79428701 16.96861942 -34.63671875 10.7890625 C-31.64550841 3.77710897 -26.93760691 -0.2371553 -19.94921875 -3.2109375 C-12.32162061 -5.07892072 -6.7550515 -3.44046101 0 0 Z " fill="#30567D" transform="translate(83.88671875,29.9609375)"/>
<path d="M0 0 C3.98436207 2.05509201 6.49068266 4.06922772 8.04296875 8.26953125 C8.58033224 12.85604219 8.63160556 16.84441055 6.85546875 21.14453125 C3.19024594 25.44168902 -0.04491639 28.11018834 -5.70703125 28.58203125 C-10.93400987 28.52511315 -13.9087198 26.03531699 -17.76953125 22.70703125 C-21.03829512 18.75010656 -20.36651457 13.09061784 -19.95703125 8.26953125 C-18.40474516 4.06922772 -15.89842457 2.05509201 -11.9140625 0 C-7.81672406 -1.52934588 -4.09733844 -1.52934588 0 0 Z " fill="#FCFDFD" transform="translate(76.95703125,35.73046875)"/>
<path d="M0 0 C2.375 0.8125 2.375 0.8125 3.375 2.8125 C3.50915472 5.4848621 3.41818541 8.13500488 3.375 10.8125 C4.633125 10.750625 5.89125 10.68875 7.1875 10.625 C9.86203401 10.63448416 11.08952998 10.64813847 13.4375 12 C14.7695522 14.57530093 14.22852401 16.10967396 13.375 18.8125 C12.375 19.8125 12.375 19.8125 10.30859375 19.91015625 C9.48488281 19.89855469 8.66117188 19.88695313 7.8125 19.875 C6.98621094 19.86597656 6.15992187 19.85695313 5.30859375 19.84765625 C4.35146484 19.83025391 4.35146484 19.83025391 3.375 19.8125 C3.39820312 20.43898438 3.42140625 21.06546875 3.4453125 21.7109375 C3.47238281 22.93683594 3.47238281 22.93683594 3.5 24.1875 C3.52320312 24.99960938 3.54640625 25.81171875 3.5703125 26.6484375 C3.375 28.8125 3.375 28.8125 1.375 30.8125 C-1.125 31.125 -1.125 31.125 -3.625 30.8125 C-6.30427341 26.79358988 -5.78101248 24.57088077 -5.625 19.8125 C-6.25148438 19.83570312 -6.87796875 19.85890625 -7.5234375 19.8828125 C-8.74933594 19.90988281 -8.74933594 19.90988281 -10 19.9375 C-11.21816406 19.97230469 -11.21816406 19.97230469 -12.4609375 20.0078125 C-14.625 19.8125 -14.625 19.8125 -16.625 17.8125 C-16.29528521 14.51535207 -16.0023161 13.1898161 -13.625 10.8125 C-10.93660615 10.54258094 -8.33358064 10.72512643 -5.625 10.8125 C-5.686875 9.554375 -5.74875 8.29625 -5.8125 7 C-5.80301584 4.32546599 -5.78936153 3.09797002 -4.4375 0.75 C-2.625 -0.1875 -2.625 -0.1875 0 0 Z " fill="#365B81" transform="translate(94.625,67.1875)"/>
</svg>
