<svg xmlns="http://www.w3.org/2000/svg" xmlns:xlink="http://www.w3.org/1999/xlink" width="69" height="69" viewBox="0 0 69 69">
  <defs>
    <filter id="Ellipse_184" x="0" y="0" width="69" height="69" filterUnits="userSpaceOnUse">
      <feOffset dx="2" dy="2" input="SourceAlpha"/>
      <feGaussianBlur stdDeviation="3.5" result="blur"/>
      <feFlood flood-color="#0b1131" flood-opacity="0.341"/>
      <feComposite operator="in" in2="blur"/>
      <feComposite in="SourceGraphic"/>
    </filter>
  </defs>
  <g id="Group_8742" data-name="Group 8742" transform="translate(-342.5 -148.5)">
    <g id="Group_8738" data-name="Group 8738" transform="translate(3 1)">
      <g transform="matrix(1, 0, 0, 1, 339.5, 147.5)" filter="url(#Ellipse_184)">
        <circle id="Ellipse_184-2" data-name="Ellipse 184" cx="24" cy="24" r="24" transform="translate(8.5 8.5)" fill="#fff"/>
      </g>
    </g>
    <g id="Group_8739" data-name="Group 8739" transform="translate(4229.148 -57.605)">
      <g id="Group_266" data-name="Group 266" transform="translate(-3867.295 225.962)">
        <path id="Path_60" data-name="Path 60" d="M851.473,566.432c0-.493-.014-.9,0-1.3a1.843,1.843,0,0,1,1.837-1.811,1.824,1.824,0,0,1,1.829,1.81c.014.4,0,.8,0,1.253h8.2c0-.345,0-.7,0-1.058a1.844,1.844,0,1,1,3.676-.023c0,.343,0,.687,0,1.128.891,0,1.756.043,2.615-.008,2.2-.133,2.632.689,2.616,2.622-.05,5.9-.018,11.8-.018,17.7,0,1.44-.584,2.02-2.035,2.02l-21.9,0c-1.453,0-2.046-.581-2.046-2.013q0-9.093,0-18.185c0-.142,0-.284,0-.426A1.63,1.63,0,0,1,848,566.435C849.127,566.422,850.258,566.432,851.473,566.432Zm-4.165,6.382v.671q0,6.6,0,13.2c0,.939.1,1.035,1.053,1.035H870.2c.866,0,.983-.117.984-.982q0-6.661,0-13.323c0-.194-.022-.389-.036-.6Zm7.836-5.31c0,.445.011.827,0,1.208a1.814,1.814,0,0,1-1.828,1.866,1.834,1.834,0,0,1-1.84-1.865c-.012-.4,0-.8,0-1.232-1.24,0-2.394-.024-3.545.022-.208.008-.572.3-.578.468-.05,1.246-.027,2.494-.027,3.747h23.86c0-1.236.023-2.43-.022-3.622-.008-.206-.3-.569-.469-.576-1.205-.051-2.413-.027-3.669-.027,0,.431.008.793,0,1.154a1.841,1.841,0,0,1-1.837,1.93,1.818,1.818,0,0,1-1.837-1.921c-.007-.376,0-.753,0-1.153Zm-2.621-.574c0,.588-.006,1.176,0,1.765a.776.776,0,0,0,.772.846.79.79,0,0,0,.817-.865q.025-1.734,0-3.468a.787.787,0,0,0-.837-.842.771.771,0,0,0-.752.86C852.52,565.795,852.522,566.363,852.523,566.931Zm11.851.03c0,.545-.008,1.09,0,1.635.011.582.324.947.794.953s.791-.352.8-.938c.01-1.11,0-2.22,0-3.33,0-.52-.216-.863-.755-.911-.481-.043-.823.327-.838.9S864.374,566.4,864.374,566.961Z" transform="translate(-846.256 -563.318)" fill="#1a3253" stroke="#1a3253" stroke-width="1"/>
        <path id="Path_61" data-name="Path 61" d="M926.182,672.757a.9.9,0,0,1-.3.3,2.284,2.284,0,0,0-.944,3,1.658,1.658,0,0,1,.077.478c.026.554-.31.789-.817.55a12.3,12.3,0,0,1-1.448-.769.918.918,0,0,0-1.106.013,14.963,14.963,0,0,1-1.4.738c-.545.263-.886.038-.857-.593.089-.533.15-1.122.295-1.689a.794.794,0,0,0-.3-.893c-.425-.376-.83-.775-1.219-1.188s-.269-.857.306-.965c.6-.113,1.21-.15,1.8-.286a1.075,1.075,0,0,0,.609-.455c.3-.5.521-1.051.8-1.566.293-.539.758-.532,1.047.01s.52,1.1.824,1.625a.909.909,0,0,0,.532.382c.573.123,1.167.153,1.738.28a.918.918,0,0,1,.593.41C926.479,672.283,926.292,672.558,926.182,672.757Z" transform="translate(-909.21 -656.165)" fill="#1a3253" stroke="#1a3253" stroke-width="1"/>
      </g>
    </g>
  </g>
</svg>
