<svg xmlns="http://www.w3.org/2000/svg" xmlns:xlink="http://www.w3.org/1999/xlink" width="69" height="69" viewBox="0 0 69 69">
  <defs>
    <filter id="Ellipse_184" x="0" y="0" width="69" height="69" filterUnits="userSpaceOnUse">
      <feOffset dx="2" dy="2" input="SourceAlpha"/>
      <feGaussianBlur stdDeviation="3.5" result="blur"/>
      <feFlood flood-color="#0b1131" flood-opacity="0.341"/>
      <feComposite operator="in" in2="blur"/>
      <feComposite in="SourceGraphic"/>
    </filter>
  </defs>
  <g id="Group_8743" data-name="Group 8743" transform="translate(-342.5 -209.5)">
    <g id="Group_8740" data-name="Group 8740" transform="translate(3 62)">
      <g transform="matrix(1, 0, 0, 1, 339.5, 147.5)" filter="url(#Ellipse_184)">
        <circle id="Ellipse_184-2" data-name="Ellipse 184" cx="24" cy="24" r="24" transform="translate(8.5 8.5)" fill="#fff"/>
      </g>
    </g>
    <g id="Group_8740-2" data-name="Group 8740" transform="translate(360.668 228.547)">
      <g id="Group_2903" data-name="Group 2903">
        <g id="Path_421" data-name="Path 421" transform="translate(-798.33 -177.057)" fill="#1a3253">
          <path d="M 825.269287109375 183.2384948730469 L 800.0948486328125 183.2384948730469 L 805.3331298828125 177.8070220947266 L 820.2018432617188 177.8070220947266 L 825.269287109375 183.2384948730469 Z" stroke="none"/>
          <path d="M 805.6517944335938 178.5570220947266 L 801.860107421875 182.4884948730469 L 823.5438232421875 182.4884948730469 L 819.8758544921875 178.5570220947266 L 805.6517944335938 178.5570220947266 M 805.2012939453125 177.0570220947266 L 820.3362426757812 177.0570220947266 C 820.4595336914062 177.0570220947266 820.5783081054688 177.1113739013672 820.6702270507812 177.2096099853516 L 826.025634765625 182.9497985839844 C 826.3660888671875 183.3149566650391 826.1499633789062 183.9884948730469 825.6917114257812 183.9884948730469 L 799.6653442382812 183.9884948730469 C 799.2035522460938 183.9884948730469 798.98876953125 183.3047943115234 799.3375854492188 182.9432525634766 L 804.8735961914062 177.2030944824219 C 804.96435546875 177.1087493896484 805.0807495117188 177.0570220947266 805.2012939453125 177.0570220947266 Z" stroke="none" fill="#1a3253"/>
        </g>
        <g id="Rectangle_424" data-name="Rectangle 424" transform="translate(0 7.84)" fill="#1a3253" stroke="#1a3253" stroke-width="1.5">
          <rect width="28.665" height="15.84" rx="2" stroke="none"/>
          <rect x="0.75" y="0.75" width="27.165" height="14.34" rx="1.25" fill="none"/>
        </g>
        <path id="Path_48" data-name="Path 48" d="M970.314,212.632v-1.019h1.443v1.019a2.075,2.075,0,0,1,1.891,2.249v.289h-1.667v-.381c0-.658-.32-.907-.882-.907s-.882.25-.882.907.321,1.118,1.507,1.894c1.443.947,1.939,1.67,1.939,2.722a2.1,2.1,0,0,1-1.907,2.262v1.006h-1.443v-1.006a2.089,2.089,0,0,1-1.907-2.262v-.631h1.667v.723c0,.658.352.894.914.894s.913-.237.913-.894-.321-1.131-1.507-1.894c-1.443-.934-1.939-1.67-1.939-2.722A2.077,2.077,0,0,1,970.314,212.632Z" transform="translate(-956.154 -201.583)" fill="#fff"/>
        <rect id="Rectangle_425" data-name="Rectangle 425" width="7.797" height="1.671" rx="0.835" transform="translate(10.45 2.631)" fill="#fff"/>
      </g>
    </g>
  </g>
</svg>
