<svg xmlns="http://www.w3.org/2000/svg" width="37" height="37" viewBox="0 0 37 37">
  <g id="Group_2192" data-name="Group 2192" transform="translate(-0.103 -0.102)">
    <g id="Group_375" data-name="Group 375" transform="translate(4.257 4.591)">
      <path id="Path_58" data-name="Path 58" d="M633,350.777c.026-.257.05-.515.079-.772a11.419,11.419,0,0,1,1.607-4.7,13.167,13.167,0,0,1,6.135-5.247l.375-.163c-.053-.055-.1-.1-.14-.145a7.941,7.941,0,0,1,4.17-13.406,7.936,7.936,0,0,1,3.228,15.537,7.706,7.706,0,0,1-5.1-.526.471.471,0,0,0-.367-.021A12.138,12.138,0,0,0,638.248,344a9.921,9.921,0,0,0-3.153,5.68,12.267,12.267,0,0,0-.145,2.245.964.964,0,0,1-.689.941.981.981,0,0,1-1.227-.673c-.01-.035-.023-.069-.035-.1Zm13.676-10.636a5.985,5.985,0,1,0-5.99-5.972A6.009,6.009,0,0,0,646.676,340.141Z" transform="translate(-633 -326.211)" fill="#285078"/>
      <path id="Path_109" data-name="Path 109" d="M654.6,350.777c-.026-.257-.05-.515-.079-.772a11.417,11.417,0,0,0-1.606-4.7,13.168,13.168,0,0,0-6.135-5.247l-.375-.163c.053-.055.1-.1.14-.145a7.941,7.941,0,0,0-4.169-13.406,7.936,7.936,0,0,0-3.228,15.537,7.705,7.705,0,0,0,5.1-.526.471.471,0,0,1,.367-.021A12.137,12.137,0,0,1,649.353,344a9.921,9.921,0,0,1,3.153,5.68,12.272,12.272,0,0,1,.145,2.245.964.964,0,0,0,.688.941.981.981,0,0,0,1.227-.673c.01-.035.023-.069.035-.1Zm-13.676-10.636a5.985,5.985,0,1,1,5.99-5.972A6.009,6.009,0,0,1,640.925,340.141Z" transform="translate(-627.706 -326.211)" fill="#285078"/>
    </g>
    <line id="Line_21" data-name="Line 21" x1="24.899" y2="26.144" transform="translate(6.496 5.356)" fill="none" stroke="#c75a5a" stroke-width="3" opacity="0.85"/>
    <g id="Ellipse_18" data-name="Ellipse 18" transform="translate(0.103 0.102)" fill="none" stroke="#285078" stroke-width="1.5">
      <circle cx="18.5" cy="18.5" r="18.5" stroke="none"/>
      <circle cx="18.5" cy="18.5" r="17.75" fill="none"/>
    </g>
    <g id="Ellipse_38" data-name="Ellipse 38" transform="translate(0.103 0.102)" fill="none" stroke="#285078" stroke-width="1.5">
      <circle cx="18.5" cy="18.5" r="18.5" stroke="none"/>
      <circle cx="18.5" cy="18.5" r="17.75" fill="none"/>
    </g>
  </g>
</svg>
