<svg id="Group_302" data-name="Group 302" xmlns="http://www.w3.org/2000/svg" width="20.055" height="17.715" viewBox="0 0 20.055 17.715">
  <g id="Group_270" data-name="Group 270">
    <path id="Path_77" data-name="Path 77" d="M250.3,1643.992h-1.271v-.164q0-3.921,0-7.841a1.424,1.424,0,0,0-1.481-1.5q-1.015-.008-2.03,0a1.426,1.426,0,0,0-1.478,1.491q0,3.92,0,7.841v.169h-1.258c0-.054-.007-.106-.007-.158,0-1.382,0-2.764,0-4.146a1.535,1.535,0,0,0-.378-1.108,1.388,1.388,0,0,0-1.045-.466c-.706-.005-1.412,0-2.118,0a1.424,1.424,0,0,0-1.454,1.44c-.008,1.19,0,2.38,0,3.57,0,.287,0,.574,0,.867a.838.838,0,0,1-.1.012c-.276,0-.551,0-.827,0-.15,0-.179-.034-.182-.187,0-.029,0-.058,0-.088q0-7.672,0-15.344a1.07,1.07,0,0,0-.052-.368.641.641,0,0,0-.74-.4.651.651,0,0,0-.516.653q0,1.659,0,3.319,0,4.259,0,8.518c0,1.261,0,2.522,0,3.783a1.406,1.406,0,0,0,1.331,1.415c.417.023.835.01,1.253.01h16.394a1.523,1.523,0,0,0,.311-.023.808.808,0,0,0,.634-.835q0-1.666,0-3.332,0-1.371,0-2.743a1.436,1.436,0,0,0-1.52-1.516h-1.98a1.428,1.428,0,0,0-1.489,1.48q0,2.743,0,5.487Zm-4.951,0v-.137q0-3.926,0-7.851c0-.18.025-.2.2-.2h1.942c.209,0,.226.016.226.23q0,3.913,0,7.826c0,.044,0,.089-.006.137Zm6.268,0c0-.051-.005-.088-.005-.125q0-2.749,0-5.5c0-.168.027-.194.2-.195h1.955c.19,0,.211.02.211.207q0,2.743,0,5.485c0,.04-.005.08-.008.126Zm-12.515,0c0-.036-.007-.057-.007-.078q0-2.161,0-4.321c0-.142.035-.175.181-.175h1.993c.158,0,.189.032.189.193q0,2.123,0,4.246c0,.044,0,.088-.006.135Z" transform="translate(-235.359 -1627.6)" fill="#79838d"/>
    <path id="Path_78" data-name="Path 78" d="M327.7,1632.781c0,.075,0,.124,0,.173,0,.559,0,1.119.005,1.678a.615.615,0,0,0,.358.574.625.625,0,0,0,.666-.044.6.6,0,0,0,.285-.516c0-1.2,0-2.4-.006-3.594a.648.648,0,0,0-.685-.649c-.342,0-.685,0-1.027,0q-1.234,0-2.469.008a.655.655,0,1,0-.029,1.308c.643,0,1.287,0,1.93,0h.171c-.179.161-.329.3-.48.432q-1.219,1.089-2.437,2.179a.2.2,0,0,1-.212.048q-2.084-.57-4.17-1.13a.337.337,0,0,0-.221.025q-3.746,1.945-7.487,3.9a.66.66,0,0,0-.374.734.628.628,0,0,0,.587.512.885.885,0,0,0,.417-.1c1.155-.593,2.3-1.2,3.456-1.8q1.771-.924,3.542-1.849a.3.3,0,0,1,.237-.026q2.169.591,4.338,1.179a.228.228,0,0,0,.244-.056q1.622-1.456,3.251-2.9C327.612,1632.84,327.642,1632.82,327.7,1632.781Z" transform="translate(-308.955 -1630.306)" fill="#79838d"/>
  </g>
</svg>
