<svg xmlns="http://www.w3.org/2000/svg" width="24.787" height="19.448" viewBox="0 0 24.787 19.448">
  <path id="binoculars" d="M820.964,829.2l.006.008-2.638-5.447q-.056-.119-.119-.235l0-.006h0a4.375,4.375,0,0,0-2.591-2.084l-.957-1.946,0,0a2.449,2.449,0,0,0-4.62,1.136v2.5a.826.826,0,0,1-.826.826h0a.826.826,0,0,1-.826-.826v-2.5a2.449,2.449,0,0,0-4.62-1.136l0,0-.957,1.946a4.374,4.374,0,0,0-2.591,2.084h0l0,.006q-.063.115-.119.235l-2.638,5.447.006-.008a5.782,5.782,0,1,0,10.6,4.546l.01-.024a1.169,1.169,0,0,1,2.279,0l.01.024a5.782,5.782,0,1,0,10.6-4.546Zm-18.372,6.948a4.255,4.255,0,1,1,4.255-4.255A4.255,4.255,0,0,1,802.592,836.149Zm13.233,0a4.255,4.255,0,1,1,4.255-4.255A4.255,4.255,0,0,1,815.825,836.149Z" transform="translate(-796.819 -818.179)" fill="#0b1131"/>
</svg>
