<svg xmlns="http://www.w3.org/2000/svg" width="30.591" height="30.591" viewBox="0 0 30.591 30.591">
  <path id="Path_166" data-name="Path 166" d="M15.3,9.734A5.562,5.562,0,1,0,20.858,15.3,5.56,5.56,0,0,0,15.3,9.734Zm12.431,4.172A12.507,12.507,0,0,0,16.686,2.864V0H13.905V2.864A12.506,12.506,0,0,0,2.864,13.905H0v2.781H2.864A12.507,12.507,0,0,0,13.905,27.727v2.864h2.781V27.727A12.507,12.507,0,0,0,27.727,16.686h2.864V13.905ZM15.3,25.029A9.734,9.734,0,1,1,25.029,15.3,9.735,9.735,0,0,1,15.3,25.029Z" fill="#03a9f5"/>
</svg>
