<svg xmlns="http://www.w3.org/2000/svg" width="26" height="26" viewBox="0 0 26 26">
  <g id="Group_3213" data-name="Group 3213" transform="translate(-308 -589)">
    <circle id="Ellipse_66" data-name="Ellipse 66" cx="13" cy="13" r="13" transform="translate(308 589)" fill="#f0f5f7"/>
    <g id="Group_2567" data-name="Group 2567" transform="translate(314.298 595.58)">
      <g id="Group_1990" data-name="Group 1990" transform="translate(0 0)">
        <g id="Group_1989" data-name="Group 1989" transform="translate(0)">
          <path id="Path_131" data-name="Path 131" d="M175.467,159.668a1.478,1.478,0,1,0,1.478,1.478A1.478,1.478,0,0,0,175.467,159.668Zm0,2.252a.774.774,0,1,1,0-1.549h0a.774.774,0,0,1,0,1.549Z" transform="translate(-168.129 -155.185)" fill="#1a3253"/>
          <path id="Path_132" data-name="Path 132" d="M13.233,27.68,3.625,26.589a1.32,1.32,0,0,0-1.038.3,1.337,1.337,0,0,0-.51.915L1.9,29.246H1.355A1.414,1.414,0,0,0,0,30.707v7.2a1.337,1.337,0,0,0,1.3,1.372h9.714A1.444,1.444,0,0,0,12.494,37.9v-.282a1.76,1.76,0,0,0,.669-.282,1.461,1.461,0,0,0,.51-.95l.809-7.144A1.425,1.425,0,0,0,13.233,27.68ZM11.79,37.9a.741.741,0,0,1-.774.669H1.355A.633.633,0,0,1,.7,37.958q0-.027,0-.054V36.6L3.432,34.6a.845.845,0,0,1,1.091.053l1.918,1.689a1.654,1.654,0,0,0,1.038.387,1.6,1.6,0,0,0,.845-.229L11.79,34.49V37.9Zm0-4.241L7.954,35.9a.9.9,0,0,1-1.038-.088L4.98,34.1a1.566,1.566,0,0,0-1.953-.07L.7,35.722V30.707a.71.71,0,0,1,.651-.757h9.661a.809.809,0,0,1,.774.757v2.956Zm1.989-4.512v.007L12.952,36.3a.6.6,0,0,1-.229.475c-.07.07-.229.106-.229.141V30.707a1.513,1.513,0,0,0-1.478-1.461H2.6l.158-1.373a.81.81,0,0,1,.264-.458.809.809,0,0,1,.528-.141l9.59,1.109A.7.7,0,0,1,13.779,29.151Z" transform="translate(0 -26.576)" fill="#1a3253"/>
        </g>
      </g>
    </g>
  </g>
</svg>
