<svg xmlns="http://www.w3.org/2000/svg" width="26" height="26" viewBox="0 0 26 26">
  <g id="Group_3212" data-name="Group 3212" transform="translate(-272 -589)">
    <circle id="Ellipse_65" data-name="Ellipse 65" cx="13" cy="13" r="13" transform="translate(272 589)" fill="#f0f5f7"/>
    <g id="Group_2566" data-name="Group 2566" transform="translate(277.077 597.738)">
      <g id="Group_1987" data-name="Group 1987" transform="translate(0 0)">
        <path id="Path_129" data-name="Path 129" d="M8.6,0H1.679A1.681,1.681,0,0,0,0,1.679V7.253A1.681,1.681,0,0,0,1.679,8.932H8.6a1.681,1.681,0,0,0,1.679-1.679V1.679A1.681,1.681,0,0,0,8.6,0ZM9.611,7.253A1.009,1.009,0,0,1,8.6,8.261H1.679A1.009,1.009,0,0,1,.672,7.253V1.679A1.009,1.009,0,0,1,1.679.672H8.6A1.009,1.009,0,0,1,9.611,1.679Z" fill="#1a3253" stroke="#1a3253" stroke-width="0.3"/>
        <path id="Path_130" data-name="Path 130" d="M335.653,24.764a.336.336,0,0,0-.337,0L331.6,26.959a.336.336,0,0,0-.165.289v2.025a.336.336,0,0,0,.13.265l3.713,2.883a.336.336,0,0,0,.542-.265v-7.1A.336.336,0,0,0,335.653,24.764Zm-.5,6.707-3.042-2.361V27.44l3.042-1.8Z" transform="translate(-320.305 -23.89)" fill="#1a3253" stroke="#1a3253" stroke-width="0.3"/>
      </g>
    </g>
  </g>
</svg>
