<svg xmlns="http://www.w3.org/2000/svg" width="23.802" height="22.672" viewBox="0 0 23.802 22.672">
  <g id="Group_4408" data-name="Group 4408" transform="translate(-317.897 -674.897)">
    <g id="Group_242" data-name="Group 242" transform="translate(318 675)">
      <path id="Path_44" data-name="Path 44" d="M831.227-107.44v-.178q0-2.012,0-4.024a.262.262,0,0,0-.122-.242,8.41,8.41,0,0,1-3-3.763,7.546,7.546,0,0,1,.865-7.346,9.011,9.011,0,0,1,4.562-3.461,10.72,10.72,0,0,1,9.516.911,8.275,8.275,0,0,1,3.624,4.285,7.545,7.545,0,0,1-1.134,7.506,9.515,9.515,0,0,1-5.339,3.487,10.987,10.987,0,0,1-4.543.236.4.4,0,0,0-.245.05q-2.017,1.22-4.029,2.449C831.341-107.5,831.295-107.478,831.227-107.44Zm1.178-2.182c.061-.034.1-.055.143-.08.875-.527,1.749-1.057,2.627-1.579a.379.379,0,0,1,.245-.043,9.841,9.841,0,0,0,4.3-.089,8.536,8.536,0,0,0,4.776-2.976,6.5,6.5,0,0,0,.664-7.26,7.734,7.734,0,0,0-3.534-3.291,9.618,9.618,0,0,0-6.847-.624,8.224,8.224,0,0,0-4.465,2.833,6.374,6.374,0,0,0-1.076,6.589,7.312,7.312,0,0,0,3.07,3.587.25.25,0,0,1,.135.247c-.016.835-.024,1.67-.034,2.506C832.4-109.751,832.4-109.7,832.4-109.623Z" transform="translate(-827.528 127.161)" fill="#fff" stroke="#fff" stroke-width="0.2"/>
      <path id="Path_45" data-name="Path 45" d="M1161.225,130.531c.562-.015,1.115-.032,1.669-.042a.3.3,0,0,1,.16.055,6.025,6.025,0,0,0,4.541,1.029,7.118,7.118,0,0,0,.712-.115.287.287,0,0,1,.244.055q.927.655,1.858,1.3c.047.033.1.064.175.117v-.184c0-.668,0-1.336,0-2a.24.24,0,0,1,.129-.235,6.161,6.161,0,0,0,2.822-3.724,5.724,5.724,0,0,0-1.062-5.077.432.432,0,0,1-.074-.251c.011-.52.033-1.039.051-1.558,0-.023,0-.045.007-.089.045.035.076.055.1.08a7.185,7.185,0,0,1,2.378,4.531,6.944,6.944,0,0,1-1.455,5.168,7.459,7.459,0,0,1-1.521,1.491.264.264,0,0,0-.122.242c0,1.15,0,2.3,0,3.449v.148c-.062-.037-.105-.061-.147-.088q-1.62-1.049-3.239-2.1a.381.381,0,0,0-.287-.067,8.6,8.6,0,0,1-5.283-.819,5.122,5.122,0,0,1-1.566-1.216C1161.283,130.6,1161.252,130.561,1161.225,130.531Z" transform="translate(-1151.386 -112.528)" fill="#fff" stroke="#fff" stroke-width="0.2"/>
      <path id="Path_46" data-name="Path 46" d="M999.567,104.346q-2.122,0-4.243,0a.617.617,0,1,1-.074-1.232c.039,0,.078,0,.118,0q4.206,0,8.413,0a.668.668,0,0,1,.544.209.614.614,0,0,1-.382,1.019,1.474,1.474,0,0,1-.206.007Z" transform="translate(-989.732 -96.322)" fill="#fff" stroke="#fff" stroke-width="0.2"/>
      <path id="Path_47" data-name="Path 47" d="M1039.871,229.742q-1.517,0-3.035,0a.6.6,0,0,1-.629-.488.611.611,0,0,1,.481-.726,1,1,0,0,1,.176-.013q3.013,0,6.026,0a.617.617,0,0,1,.619.365.606.606,0,0,1-.558.861c-.776.007-1.552,0-2.328,0Z" transform="translate(-1030.04 -218.026)" fill="#fff" stroke="#fff" stroke-width="0.2"/>
    </g>
  </g>
</svg>
