<svg xmlns="http://www.w3.org/2000/svg" width="52" height="52" viewBox="0 0 52 52">
  <g id="Group_7420" data-name="Group 7420" transform="translate(-362 -563)">
    <circle id="Ellipse_175" data-name="Ellipse 175" cx="26" cy="26" r="26" transform="translate(362 563)" fill="#f0f5f7"/>
    <path id="Path_417" data-name="Path 417" d="M301.279,29.027l-23.021-12.91a.791.791,0,0,0-1.059.3,1.255,1.255,0,0,0-.021,1.321L284.748,30l-7.57,12.265a1.259,1.259,0,0,0,.019,1.321.834.834,0,0,0,.689.4.75.75,0,0,0,.37-.1l23.021-12.91a1.185,1.185,0,0,0,0-1.954Z" transform="translate(99.291 560.593)" fill="#285078"/>
  </g>
</svg>
