<svg xmlns="http://www.w3.org/2000/svg" width="13.442" height="13.442" viewBox="0 0 13.442 13.442">
  <g id="Group_179" data-name="Group 179" transform="translate(7.015 3.015)">
    <g id="Group_178" data-name="Group 178" transform="translate(-0.294 -8) rotate(45)">
      <path id="Path_98" data-name="Path 98" d="M.978.573,15.65,0a.857.857,0,0,1,.9.9,1.034,1.034,0,0,1-.977.977L.9,2.454a.857.857,0,0,1-.9-.9A1.034,1.034,0,0,1,.978.573Z" transform="translate(0 7.05)" fill="#285078"/>
      <path id="Path_99" data-name="Path 99" d="M.9,0,15.577.573a1.034,1.034,0,0,1,.977.977.857.857,0,0,1-.9.9L.978,1.882A1.034,1.034,0,0,1,0,.9.857.857,0,0,1,.9,0Z" transform="translate(9.505) rotate(90)" fill="#285078"/>
    </g>
  </g>
</svg>
