<svg xmlns="http://www.w3.org/2000/svg" width="24.86" height="30.821" viewBox="0 0 24.86 30.821">
  <g id="Group_7648" data-name="Group 7648" transform="translate(-361.996 -50)">
    <g id="Group_2143" data-name="Group 2143" transform="translate(344.974 55.862)">
      <g id="Group_2140" data-name="Group 2140" transform="translate(31.015 -6.942)">
        <g id="Group_2141" data-name="Group 2141" transform="translate(0 0.102)">
          <g id="Group_2175" data-name="Group 2175" transform="translate(0 1.063)">
            <rect id="Rectangle_133" data-name="Rectangle 133" width="10.868" height="1.976" rx="0.988" transform="translate(10.868 6.336) rotate(180)" fill="#0b1131"/>
            <rect id="Rectangle_138" data-name="Rectangle 138" width="10.868" height="1.976" rx="0.988" transform="translate(4.446 10.782) rotate(-90)" fill="#0b1131"/>
          </g>
        </g>
      </g>
      <g id="Group_2142" data-name="Group 2142" transform="translate(17.022 2.437)">
        <path id="Path_160" data-name="Path 160" d="M149.763,603.9v1.175a.391.391,0,0,1-.392.392H136.059a.391.391,0,0,1-.392-.392V603.9a1.568,1.568,0,0,1,1.566-1.566H148.2A1.567,1.567,0,0,1,149.763,603.9Z" transform="translate(-131.748 -582.948)" fill="#0b1131"/>
        <path id="Path_161" data-name="Path 161" d="M248.6,59.707v.376a1.216,1.216,0,0,0-.783-.376h-4.7a1.292,1.292,0,0,0-.783.376v-.376c0-1.493.7-2.707,1.566-2.707h3.133C247.9,57,248.6,58.213,248.6,59.707Z" transform="translate(-234.502 -57)" fill="#0b1131"/>
        <path id="Path_162" data-name="Path 162" d="M60.866,135.667a1.246,1.246,0,0,0-.218.783v4.7h-.391a5.1,5.1,0,0,1-5.09-5.09.391.391,0,0,1,.392-.392Z" transform="translate(-55.166 -130.517)" fill="#0b1131"/>
        <path id="Path_163" data-name="Path 163" d="M442.9,135.667a1.246,1.246,0,0,1,.218.783v4.7h.391a5.1,5.1,0,0,0,5.09-5.09.391.391,0,0,0-.392-.392Z" transform="translate(-426.736 -130.517)" fill="#0b1131"/>
        <path id="Path_164" data-name="Path 164" d="M228.828,115.9v4.7a1.557,1.557,0,0,1-.541,1.175,1.336,1.336,0,0,1-.887.4h0a.747.747,0,0,0-.138-.012h-4.7a.745.745,0,0,0-.138.012h0a1.7,1.7,0,0,1-.886-.4A1.556,1.556,0,0,1,221,120.6v-4.7a1.246,1.246,0,0,1,.218-.783,1.563,1.563,0,0,1,.565-.565,1.733,1.733,0,0,1,.783-.218h4.7a1.74,1.74,0,0,1,.783.218,1.566,1.566,0,0,1,.565.565A1.246,1.246,0,0,1,228.828,115.9Z" transform="translate(-213.946 -109.97)" fill="#0b1131"/>
        <path id="Path_165" data-name="Path 165" d="M228.828,351.339v3.025a.917.917,0,0,1-.541.756,1.8,1.8,0,0,1-.887.26h0a1.151,1.151,0,0,0-.138-.008h-4.7a1.148,1.148,0,0,0-.138.008h0a2.158,2.158,0,0,1-.886-.26.917.917,0,0,1-.541-.756v-3.025a.643.643,0,0,1,.218-.5,1.435,1.435,0,0,1,.565-.364,2.468,2.468,0,0,1,.783-.14h4.7a2.539,2.539,0,0,1,.783.14,1.438,1.438,0,0,1,.565.364A.643.643,0,0,1,228.828,351.339Z" transform="translate(-213.946 -337.094)" fill="#0b1131"/>
      </g>
    </g>
  </g>
</svg>
