<svg xmlns="http://www.w3.org/2000/svg" xmlns:xlink="http://www.w3.org/1999/xlink" width="52" height="52" viewBox="0 0 52 52">
  <defs>
    <filter id="Ellipse_41" x="0" y="0" width="52" height="52" filterUnits="userSpaceOnUse">
      <feOffset dy="3" input="SourceAlpha"/>
      <feGaussianBlur stdDeviation="3" result="blur"/>
      <feFlood flood-opacity="0.161"/>
      <feComposite operator="in" in2="blur"/>
      <feComposite in="SourceGraphic"/>
    </filter>
  </defs>
  <g id="Group_3284" data-name="Group 3284" transform="translate(-172 -580)">
    <g id="Group_3274" data-name="Group 3274" transform="translate(113 312)">
      <g transform="matrix(1, 0, 0, 1, 59, 268)" filter="url(#Ellipse_41)">
        <g id="Ellipse_41-2" data-name="Ellipse 41" transform="translate(11 8)" fill="#285078" stroke="#fff" stroke-width="2">
          <circle cx="15" cy="15" r="15" stroke="none"/>
          <circle cx="15" cy="15" r="16" fill="none"/>
        </g>
      </g>
    </g>
    <g id="Group_3275" data-name="Group 3275" transform="translate(36 0.356)">
      <g id="Group_2904" data-name="Group 2904" transform="translate(151 593)">
        <g id="Group_2903" data-name="Group 2903">
          <g id="Path_421" data-name="Path 421" transform="translate(-798.514 -177.057)" fill="none">
            <path d="M815.664,177.057H803.869a.354.354,0,0,0-.255.114l-4.314,4.473c-.272.282-.1.815.255.815h20.283c.357,0,.526-.525.26-.809l-4.174-4.473A.357.357,0,0,0,815.664,177.057Z" stroke="none"/>
            <path d="M 804.1484985351562 178.0570373535156 L 800.86767578125 181.4588470458984 L 818.5525512695312 181.4588470458984 L 815.3787841796875 178.0570373535156 L 804.1484985351562 178.0570373535156 M 803.8692016601562 177.0570373535156 L 815.6641235351562 177.0570373535156 C 815.7601928710938 177.0570373535156 815.8527221679688 177.0993804931641 815.9243774414062 177.1759490966797 L 820.0979614257812 181.6493682861328 C 820.36328125 181.9339447021484 820.19482421875 182.4588470458984 819.8377075195312 182.4588470458984 L 799.554931640625 182.4588470458984 C 799.195068359375 182.4588470458984 799.0277099609375 181.926025390625 799.299560546875 181.6442718505859 L 803.6138305664062 177.1708831787109 C 803.6845703125 177.0973510742188 803.7752685546875 177.0570373535156 803.8692016601562 177.0570373535156 Z" stroke="none" fill="#fff"/>
          </g>
          <g id="Rectangle_424" data-name="Rectangle 424" transform="translate(0 6.11)" fill="none" stroke="#fff" stroke-width="1">
            <rect width="22.339" height="12.345" rx="2" stroke="none"/>
            <rect x="0.5" y="0.5" width="21.339" height="11.345" rx="1.5" fill="none"/>
          </g>
          <path id="Path_48" data-name="Path 48" d="M969.894,212.407v-.794h1.124v.794a1.617,1.617,0,0,1,1.474,1.752v.226h-1.3v-.3c0-.512-.25-.707-.687-.707s-.687.195-.687.707.25.871,1.174,1.476c1.124.738,1.511,1.3,1.511,2.122a1.636,1.636,0,0,1-1.486,1.763v.784h-1.124v-.784a1.628,1.628,0,0,1-1.486-1.763v-.492h1.3v.564c0,.512.275.7.712.7s.712-.184.712-.7-.25-.882-1.174-1.476c-1.124-.728-1.511-1.3-1.511-2.122A1.619,1.619,0,0,1,969.894,212.407Z" transform="translate(-958.858 -203.796)" fill="#fff"/>
          <rect id="Rectangle_425" data-name="Rectangle 425" width="6.076" height="1.302" rx="0.651" transform="translate(8.144 2.05)" fill="#fff"/>
        </g>
      </g>
    </g>
  </g>
</svg>
