<svg xmlns="http://www.w3.org/2000/svg" width="19.7" height="19.7" viewBox="0 0 19.7 19.7">
  <path id="Path_8814" data-name="Path 8814" d="M17.648.992,18.7,2.047a3.421,3.421,0,0,1,0,4.823L15.909,9.664a3.422,3.422,0,0,1-3.886.661L16.97,5.377a1.257,1.257,0,0,0,0-1.775l-.957-.957a1.257,1.257,0,0,0-1.775,0L9.321,7.561a3.42,3.42,0,0,1,.71-3.772l2.8-2.8a3.419,3.419,0,0,1,4.821,0ZM12.813,18.724l1.023-.212-.661-3.189-1.021.215.659,3.186ZM5.831.343,6.842.092l.794,3.152L6.624,3.5,5.831.343ZM16.489,16.959l.726-.749-2.336-2.267-.726.75,2.336,2.265Zm2.366-3.372.269-1.007-3.142-.843-.271,1.008,3.144.842ZM.405,6.486l.29-1,3.126.89L3.538,7.379.405,6.486ZM2.143,2.751l.739-.738,2.3,2.3-.736.739-2.3-2.3ZM.992,17.648,2.047,18.7a3.421,3.421,0,0,0,4.823,0l2.794-2.794a3.422,3.422,0,0,0,.661-3.886L5.377,16.97a1.257,1.257,0,0,1-1.775,0l-.957-.957a1.259,1.259,0,0,1,0-1.776L7.562,9.321a3.421,3.421,0,0,0-3.774.712l-2.8,2.794a3.419,3.419,0,0,0,0,4.821Z" transform="translate(0.003 0.002)" fill="#285078" fill-rule="evenodd"/>
</svg>
