<svg xmlns="http://www.w3.org/2000/svg" xmlns:xlink="http://www.w3.org/1999/xlink" width="52" height="52" viewBox="0 0 52 52">
  <defs>
    <filter id="Ellipse_41" x="0" y="0" width="52" height="52" filterUnits="userSpaceOnUse">
      <feOffset dy="3" input="SourceAlpha"/>
      <feGaussianBlur stdDeviation="3" result="blur"/>
      <feFlood flood-opacity="0.161"/>
      <feComposite operator="in" in2="blur"/>
      <feComposite in="SourceGraphic"/>
    </filter>
  </defs>
  <g id="Group_2277" data-name="Group 2277" transform="translate(-59 -268)">
    <g transform="matrix(1, 0, 0, 1, 59, 268)" filter="url(#Ellipse_41)">
      <g id="Ellipse_41-2" data-name="Ellipse 41" transform="translate(11 8)" fill="#f25e2e" stroke="#fff" stroke-width="2">
        <circle cx="15" cy="15" r="15" stroke="none"/>
        <circle cx="15" cy="15" r="16" fill="none"/>
      </g>
    </g>
    <g id="Group_2273" data-name="Group 2273" transform="translate(75 281)">
      <g id="Group_266" data-name="Group 266" transform="translate(0)">
        <path id="Path_60" data-name="Path 60" d="M850.21,565.644c0-.368-.011-.67,0-.971a1.387,1.387,0,0,1,1.392-1.353,1.373,1.373,0,0,1,1.386,1.352c.011.3,0,.6,0,.936h6.215c0-.258,0-.524,0-.79a1.4,1.4,0,1,1,2.786-.017c0,.256,0,.513,0,.842.675,0,1.331.032,1.982-.006,1.671-.1,1.995.514,1.982,1.958-.038,4.406-.013,8.812-.014,13.218,0,1.076-.443,1.509-1.543,1.509l-16.594,0c-1.1,0-1.551-.434-1.551-1.5q0-6.791,0-13.581c0-.106,0-.212,0-.318a1.227,1.227,0,0,1,1.315-1.274C848.432,565.636,849.289,565.644,850.21,565.644Zm-3.157,4.766v.5q0,4.93,0,9.859c0,.7.073.773.8.773H864.4c.656,0,.745-.088.745-.733q0-4.975,0-9.95c0-.145-.017-.29-.027-.45Zm5.939-3.966c0,.332.008.617,0,.9a1.364,1.364,0,0,1-1.386,1.394,1.38,1.38,0,0,1-1.395-1.393c-.009-.3,0-.594,0-.92-.94,0-1.815-.018-2.687.017-.157.006-.433.222-.438.35-.038.93-.02,1.863-.02,2.8h18.083c0-.923.018-1.815-.017-2.7-.006-.154-.225-.425-.355-.43-.913-.038-1.829-.02-2.781-.02,0,.322.006.592,0,.862a1.384,1.384,0,0,1-1.392,1.441,1.367,1.367,0,0,1-1.392-1.435c-.006-.281,0-.562,0-.861Zm-1.986-.428c0,.439,0,.879,0,1.318a.583.583,0,0,0,.585.632.594.594,0,0,0,.619-.646q.019-1.295,0-2.59a.593.593,0,0,0-.635-.629.579.579,0,0,0-.57.643C851,565.168,851.005,565.592,851.006,566.016Zm8.981.023c0,.407-.006.814,0,1.221.009.435.246.707.6.712s.6-.263.6-.7c.008-.829,0-1.658,0-2.487a.589.589,0,0,0-.572-.68c-.365-.032-.624.244-.635.669S859.987,565.617,859.987,566.039Z" transform="translate(-846.256 -563.318)" fill="#fff" stroke="#fff" stroke-width="0.5"/>
        <path id="Path_61" data-name="Path 61" d="M925.709,672.544a.848.848,0,0,1-.283.28,2.153,2.153,0,0,0-.89,2.829,1.564,1.564,0,0,1,.072.451c.024.522-.293.743-.77.519a11.6,11.6,0,0,1-1.365-.725.865.865,0,0,0-1.043.013,14.118,14.118,0,0,1-1.316.7c-.514.248-.835.036-.808-.559.084-.5.141-1.058.278-1.592a.749.749,0,0,0-.283-.842c-.4-.354-.782-.731-1.15-1.12s-.254-.808.288-.91c.563-.107,1.14-.141,1.7-.27a1.013,1.013,0,0,0,.574-.429c.287-.472.491-.991.757-1.476.276-.508.715-.5.987.009s.49,1.037.777,1.532a.856.856,0,0,0,.5.36c.54.116,1.1.145,1.638.264a.865.865,0,0,1,.559.387C925.989,672.1,925.813,672.356,925.709,672.544Z" transform="translate(-912.107 -660.251)" fill="#fff"/>
      </g>
    </g>
  </g>
</svg>
