<svg xmlns="http://www.w3.org/2000/svg" xmlns:xlink="http://www.w3.org/1999/xlink" width="52" height="52" viewBox="0 0 52 52">
  <defs>
    <filter id="Ellipse_42" x="0" y="0" width="52" height="52" filterUnits="userSpaceOnUse">
      <feOffset dy="3" input="SourceAlpha"/>
      <feGaussianBlur stdDeviation="3" result="blur"/>
      <feFlood flood-opacity="0.161"/>
      <feComposite operator="in" in2="blur"/>
      <feComposite in="SourceGraphic"/>
    </filter>
  </defs>
  <g id="Group_2278" data-name="Group 2278" transform="translate(-59 -213)">
    <g transform="matrix(1, 0, 0, 1, 59, 213)" filter="url(#Ellipse_42)">
      <g id="Ellipse_42-2" data-name="Ellipse 42" transform="translate(11 8)" fill="#f25e2e" stroke="#fff" stroke-width="2">
        <circle cx="15" cy="15" r="15" stroke="none"/>
        <circle cx="15" cy="15" r="16" fill="none"/>
      </g>
    </g>
    <g id="Group_2274" data-name="Group 2274" transform="translate(72 229)">
      <g id="Group_261" data-name="Group 261" transform="translate(0 0)">
        <g id="Group_258" data-name="Group 258" transform="translate(6.48)">
          <path id="Path_62" data-name="Path 62" d="M641.923,330.484q.114.157.211.318Q642.036,330.637,641.923,330.484ZM639.417,330a3.019,3.019,0,0,1-.23,5.955,3.018,3.018,0,0,0,.23-5.955Zm.353-.931.032.007q.079.017.157.037Q639.865,329.091,639.769,329.073Zm-.022,0-.021,0,.029.006Zm-.042-.008-.015,0,.036.007Zm-.027,0-.014,0,.026,0Zm-.017,0-.018,0,.021,0Zm-1.312,7.776a4,4,0,0,1-2.675-4.751,4.08,4.08,0,0,1,.49-1.275,4.182,4.182,0,0,0-.531,2.857,4,4,0,0,0,.989,2.106l.063.072-.169.081a6.381,6.381,0,0,0-1.5,1.009,5.973,5.973,0,0,0-.508.522c-.049.057-.1.114-.143.173h0c-.027.034-.055.069-.081.1a6.276,6.276,0,0,0-.414.615q-.057.1-.111.194-.087.158-.163.32h0q-.064.135-.121.274h0a6.189,6.189,0,0,0-.437,1.746c-.013.128-.024.257-.036.385v.652c.005.017.011.034.016.052a.437.437,0,0,0,.552.336.478.478,0,0,0,.31-.47,6.777,6.777,0,0,1,.065-1.12,5.117,5.117,0,0,1,1.109-2.49q.145-.177.309-.343.1-.1.2-.2a5.375,5.375,0,0,1,1.928-1.129.193.193,0,0,1,.165.01,3.2,3.2,0,0,0,1.495.369A3.261,3.261,0,0,1,638.35,336.829Zm-1.947-6.381-.015.02a3.607,3.607,0,0,1,1.907-1.339A3.434,3.434,0,0,0,636.4,330.448Z" transform="translate(-633 -329.011)" fill="#fff" stroke="#fff" stroke-width="0.5"/>
          <path id="Path_63" data-name="Path 63" d="M885.93,330.8q.1-.162.211-.318Q886.029,330.637,885.93,330.8Zm.3,2.174A2.878,2.878,0,0,1,888.712,330a3.014,3.014,0,0,0,.165,5.961A2.867,2.867,0,0,1,886.226,332.976Zm2.132-3.916-.021,0,.037-.007Zm.027,0-.011,0,.026,0Zm.017,0h0l.021,0Zm-.3.063q.077-.02.156-.037l.033-.007Q888.2,329.092,888.106,329.116Zm.211-.048-.009,0,.029-.006Zm3.345,1.38a3.435,3.435,0,0,0-1.892-1.32,3.609,3.609,0,0,1,1.907,1.339Z" transform="translate(-882.764 -329.011)" fill="#fff" stroke="#fff" stroke-width="0.5"/>
          <path id="Path_64" data-name="Path 64" d="M849.274,338.077a6.115,6.115,0,0,0-.722-2.342q-.1-.184-.211-.358a6.207,6.207,0,0,0-.436-.606q-.131-.161-.271-.31a5.983,5.983,0,0,0-.532-.5,6.462,6.462,0,0,0-1.309-.842l-.169-.081.063-.072a4,4,0,0,0,.989-2.106,4.181,4.181,0,0,0-.531-2.857h0q-.1-.162-.211-.318l-.012-.016a3.608,3.608,0,0,0-1.907-1.339l-.018,0-.028-.008q-.077-.02-.156-.037l-.032-.007h0l-.011,0-.009,0-.021,0-.021,0-.015,0-.012,0-.014,0h0l-.018,0-.025,0-.032,0-.031,0-.038,0-.052-.006-.032,0-.041,0-.041,0-.031,0a3.121,3.121,0,0,0-.345,0l-.031,0-.041,0-.041,0-.032,0-.052.006-.038,0-.031,0-.032,0-.025,0-.018,0h0l-.014,0-.011,0-.015,0-.021,0-.021,0-.009,0-.011,0h0l-.032.007q-.079.017-.157.037l-.028.008-.018,0a3.608,3.608,0,0,0-1.906,1.339l-.012.016q-.114.157-.211.318h0a4.085,4.085,0,0,0-.49,1.275,4,4,0,0,0,2.675,4.751,3.259,3.259,0,0,0,.8.107,3.2,3.2,0,0,0,1.495-.369.192.192,0,0,1,.165-.01,5.43,5.43,0,0,1,1.7.934,5.222,5.222,0,0,1,.427.39q.052.053.1.106c.047.051.093.1.138.155a5.125,5.125,0,0,1,.441.594,5.19,5.19,0,0,1,.738,1.979,6.782,6.782,0,0,1,.065,1.12.478.478,0,0,0,.309.469.437.437,0,0,0,.552-.335c0-.017.01-.034.016-.052v-.652C849.3,338.333,849.287,338.205,849.274,338.077Zm-6.078-4.92h-.073a3.014,3.014,0,0,1-.165-5.962l.067,0h0l.068,0h.134l.068,0h0l.067,0a3.014,3.014,0,0,1-.165,5.962Z" transform="translate(-837.01 -326.209)" fill="#fff" stroke="#fff" stroke-width="0.5"/>
        </g>
        <g id="Group_259" data-name="Group 259" transform="translate(0 2.7)">
          <path id="Path_65" data-name="Path 65" d="M4.541,1.082A2.7,2.7,0,0,0,3.1.057,2.843,2.843,0,0,1,4.552,1.1Zm.6,2.544a3.3,3.3,0,0,0-.414-2.263,3.212,3.212,0,0,1,.385,1.009A3.194,3.194,0,0,1,2.979,6.146a2.583,2.583,0,0,1-.634.087,2.552,2.552,0,0,0,1.186-.3.153.153,0,0,1,.131-.009,4.514,4.514,0,0,1,.652.277,3.323,3.323,0,0,1,.419-.629q-.146-.083-.3-.157L4.3,5.356l.05-.058A3.2,3.2,0,0,0,5.142,3.626ZM1.861,0l-.012,0,.023,0ZM1.9,0H1.9l.015,0ZM.224,3.1A2.321,2.321,0,0,1,2.077.748l-.025,0-.1.019L1.929.776,1.857.795,1.833.8,1.826.8,1.785.816,1.738.831,1.715.839,1.7.846l-.051.02L1.622.875,1.577.894,1.554.9,1.518.921l-.009,0L1.488.936,1.465.948,1.443.959,1.421.972,1.4.983,1.378,1l-.043.025-.021.013-.021.013-.06.04a2.217,2.217,0,0,0-.179.139l-.038.033-.012.011q-.081.074-.155.156l-.017.019-.051.059-.015.019a2.386,2.386,0,0,0-.2.283L.558,1.83l-.012.02q-.056.1-.1.2l-.007.016q-.022.049-.042.1l-.01.025q-.03.078-.054.159l-.007.023q-.012.04-.022.08L.3,2.482q-.015.06-.027.122l0,.025q-.018.1-.029.2l0,.02,0,.028c0,.027,0,.054-.006.081l0,.028s0,.007,0,.01v.022q0,.043,0,.087A2.272,2.272,0,0,0,2.211,5.454,2.268,2.268,0,0,1,.224,3.1ZM0,1.38q.078-.129.168-.253Q.074,1.248,0,1.38Z" transform="matrix(0.999, -0.035, 0.035, 0.999, 2.413, 0.201)" fill="#fff" stroke="#fff" stroke-width="0.5"/>
          <path id="Path_66" data-name="Path 66" d="M329.982,533.79l-.011.016a2.87,2.87,0,0,1,1.457-1.046A2.724,2.724,0,0,0,329.982,533.79Zm2.415-.35a2.4,2.4,0,0,1-.1,4.714,2.4,2.4,0,0,0,.1-4.714Zm-.077-.008.077.008Zm2.039.386q.079.108.148.22Q334.436,533.925,334.358,533.819Z" transform="translate(-327.283 -532.593)" fill="#fff" stroke="#fff" stroke-width="0.5"/>
          <path id="Path_67" data-name="Path 67" d="M122.951,527.3a3.237,3.237,0,0,0-.388-1.011h0l-.02-.033q-.069-.111-.148-.22l-.009-.013a2.871,2.871,0,0,0-1.457-1.046l-.027-.008-.028-.008-.014,0-.023-.006-.031-.008-.031-.007-.031-.007-.031-.007-.02,0-.026-.005-.008,0-.017,0-.017,0h-.013l-.03,0-.014,0h-.009l-.041-.006-.03,0-.041,0-.025,0-.032,0-.032,0-.024,0a2.448,2.448,0,0,0-.273,0l-.024,0-.032,0-.032,0-.026,0-.041,0-.03,0-.041.006h-.009l-.014,0-.03,0h-.011l-.02,0-.015,0h-.007l-.011,0-.024,0-.012,0-.093.021-.031.008-.023.006-.014,0-.028.008-.027.008a2.871,2.871,0,0,0-1.457,1.046l-.009.013q-.09.124-.167.252h0a3.316,3.316,0,0,0-.421,2.265,3.171,3.171,0,0,0,.784,1.67l.05.057-.134.064a4.9,4.9,0,0,0-2.76,3.932c-.011.1-.019.2-.028.305v.517c0,.014.009.027.012.041a.346.346,0,0,0,.437.266.379.379,0,0,0,.245-.372,5.383,5.383,0,0,1,.052-.888,4.054,4.054,0,0,1,1.124-2.246,4.234,4.234,0,0,1,1.689-1.05.153.153,0,0,1,.131.008,2.539,2.539,0,0,0,1.185.292,2.577,2.577,0,0,0,.634-.085A3.17,3.17,0,0,0,122.951,527.3Zm-2.619,3.072-.053,0h-.166l-.053,0a2.292,2.292,0,0,1-2-2.357q0-.044,0-.087v-.06q0-.041.006-.081l0-.028,0-.02q.011-.1.029-.2l0-.025q.012-.062.027-.122l.006-.025q.01-.04.022-.08l.007-.023q.024-.081.054-.159l.01-.025q.02-.051.041-.1l.007-.016q.046-.1.1-.2l.012-.02.013-.023a2.354,2.354,0,0,1,.195-.282l.015-.019.05-.059.017-.019q.074-.082.155-.156l.012-.011.037-.033a2.132,2.132,0,0,1,.178-.138l.06-.04.021-.013.021-.013.042-.025.022-.012.021-.011.023-.012.022-.011.023-.012.022-.01.009,0,.036-.017.023-.01.045-.019.022-.009.051-.019.019-.007.023-.008.047-.015.041-.012.007,0,.024-.007.072-.018.024-.005c.033-.007.065-.013.1-.019l.075-.011h0l.038,0,.039,0,.053,0h0l.054,0h.107l.054,0h0l.053,0,.077.008h0a2.4,2.4,0,0,1-.1,4.714Z" transform="translate(-115.32 -524.808)" fill="#fff" stroke="#fff" stroke-width="0.5"/>
        </g>
        <g id="Group_260" data-name="Group 260" transform="translate(17.551 2.758)">
          <path id="Path_69" data-name="Path 69" d="M1559.439,532.76a2.871,2.871,0,0,1,1.457,1.046l-.012-.016A2.724,2.724,0,0,0,1559.439,532.76Zm-2.868,3.038a2.292,2.292,0,0,0,2,2.357,2.4,2.4,0,0,1-.1-4.714A2.3,2.3,0,0,0,1556.571,535.8Zm1.9-2.357.077-.008Zm-2.109.6q.069-.111.148-.22Q1556.43,533.925,1556.36,534.039Z" transform="translate(-1555.875 -532.65)" fill="#fff" stroke="#fff" stroke-width="0.5"/>
          <g id="Group_264" data-name="Group 264">
            <path id="Path_68" data-name="Path 68" d="M1518.213,528.915a2.87,2.87,0,0,1,1.457-1.046,2.723,2.723,0,0,0-1.446,1.03Zm.186,4.2.05.057-.134.064q-.153.075-.3.158a3.281,3.281,0,0,1,.417.627,4.564,4.564,0,0,1,.653-.28.152.152,0,0,1,.131.008,2.54,2.54,0,0,0,1.185.293,2.577,2.577,0,0,1-.634-.085,3.17,3.17,0,0,1-2.121-3.767,3.237,3.237,0,0,1,.388-1.011,3.315,3.315,0,0,0-.421,2.265A3.174,3.174,0,0,0,1518.4,533.115Zm2.5-5.306.023,0-.012,0Zm-.047-.009.015,0h.007Zm-.312,5.463a2.292,2.292,0,0,0,2-2.357c0-.029,0-.058,0-.087,0-.007,0-.014,0-.022s0-.007,0-.01,0-.019,0-.028c0-.027,0-.054-.006-.081,0-.009,0-.019,0-.028s0-.013,0-.02c-.007-.068-.017-.135-.029-.2l-.005-.025q-.012-.062-.027-.122l-.006-.026c-.007-.027-.014-.054-.022-.08l-.007-.023c-.016-.054-.034-.107-.053-.159l-.01-.025q-.019-.051-.041-.1l-.007-.016q-.046-.1-.1-.2l-.011-.02-.013-.023a2.329,2.329,0,0,0-.195-.282l-.015-.019c-.016-.02-.033-.04-.05-.059l-.017-.019c-.049-.055-.1-.107-.155-.156l-.012-.011-.037-.033a2.163,2.163,0,0,0-.179-.138l-.06-.04-.021-.013-.021-.013-.042-.025-.022-.012-.021-.012-.022-.012-.022-.011-.023-.012-.022-.011-.009,0-.036-.017-.023-.01-.045-.019-.022-.009-.051-.019-.019-.007-.023-.008-.047-.015-.041-.012-.007,0-.024-.007-.072-.018-.024-.005c-.032-.007-.065-.013-.1-.019l-.025,0a2.4,2.4,0,0,1-.151,4.707Zm2.063-4.336q.09.124.167.252Q1522.691,529.049,1522.6,528.928Z" transform="translate(-1517.571 -527.759)" fill="#fff" stroke="#fff" stroke-width="0.5"/>
            <path id="Path_70" data-name="Path 70" d="M1520.239,531.065a2.576,2.576,0,0,0,.634.085,2.538,2.538,0,0,0,1.185-.292.153.153,0,0,1,.131-.008,4.235,4.235,0,0,1,1.689,1.05,4.053,4.053,0,0,1,1.124,2.246,5.394,5.394,0,0,1,.052.888.379.379,0,0,0,.245.372.346.346,0,0,0,.438-.266c0-.014.008-.027.012-.041v-.517c-.009-.1-.018-.2-.028-.305a4.9,4.9,0,0,0-2.76-3.932l-.134-.064.05-.057a3.173,3.173,0,0,0,.784-1.67,3.316,3.316,0,0,0-.421-2.265h0q-.077-.128-.167-.252l-.01-.013a2.871,2.871,0,0,0-1.457-1.046l-.027-.008-.028-.008-.014,0-.022-.006-.031-.008-.093-.021-.012,0-.024,0-.011,0h-.007l-.016,0-.02,0h-.011l-.03,0-.014,0h-.009l-.041-.006-.031,0-.041,0-.026,0-.032,0-.032,0-.024,0a2.451,2.451,0,0,0-.274,0l-.024,0-.032,0-.032,0-.026,0-.041,0-.03,0-.041.006h-.009l-.014,0-.03,0h-.013l-.017,0-.017,0-.008,0-.026.005-.02,0-.031.007-.031.007-.031.007-.031.008-.023.006-.014,0-.028.008-.027.008a2.872,2.872,0,0,0-1.457,1.046l-.009.013q-.079.108-.148.22l-.02.033h0a3.235,3.235,0,0,0-.388,1.011A3.17,3.17,0,0,0,1520.239,531.065Zm-1.5-3.052a2.3,2.3,0,0,1,1.9-2.357h0l.077-.008.053,0h0l.054,0h.106l.054,0h0l.053,0,.039,0,.038,0h0l.075.011c.033.005.066.011.1.019l.024.005.072.018.024.007.007,0,.041.012.047.015.023.008.019.007.051.019.022.009.045.019.023.01.036.017.009,0,.022.01.022.012.022.011.023.012.021.011.021.012.042.025.021.013.021.013.06.04a2.13,2.13,0,0,1,.178.138l.037.033.012.011c.054.049.105.1.155.156l.017.019.05.059.015.019a2.335,2.335,0,0,1,.195.282l.013.023.012.02q.055.1.1.2l.007.016c.015.033.028.066.041.1l.01.025c.02.052.037.105.053.159l.007.023c.008.027.015.053.022.08,0,.008,0,.017.006.025q.015.06.027.122l0,.025q.018.1.029.2c0,.007,0,.014,0,.02l0,.028c0,.027,0,.054.005.081l0,.028s0,.007,0,.01v.022q0,.043,0,.087a2.292,2.292,0,0,1-2,2.357l-.053,0h-.166l-.053,0A2.292,2.292,0,0,1,1518.737,528.014Z" transform="translate(-1518.041 -524.866)" fill="#fff" stroke="#fff" stroke-width="0.5"/>
          </g>
        </g>
        <path id="Path_71" data-name="Path 71" d="M681.28,946.66l-.076.108c-.091.131-.25.365-.407.62-.1.167-.206.344-.287.5q.077-.162.163-.32.054-.1.111-.194a6.272,6.272,0,0,1,.414-.615Q681.239,946.711,681.28,946.66Z" transform="translate(-673.436 -938.047)" fill="#fff" stroke="#fff" stroke-width="0.5"/>
      </g>
    </g>
  </g>
</svg>
