<svg xmlns="http://www.w3.org/2000/svg" xmlns:xlink="http://www.w3.org/1999/xlink" width="71" height="61" viewBox="0 0 71 61">
  <defs>
    <filter id="Rectangle_76" x="0" y="0" width="71" height="61" filterUnits="userSpaceOnUse">
      <feOffset dx="2" dy="2" input="SourceAlpha"/>
      <feGaussianBlur stdDeviation="3.5" result="blur"/>
      <feFlood flood-color="#0b1131" flood-opacity="0.341"/>
      <feComposite operator="in" in2="blur"/>
      <feComposite in="SourceGraphic"/>
    </filter>
  </defs>
  <g id="Group_3678" data-name="Group 3678" transform="translate(-261.5 -41.5)">
    <g transform="matrix(1, 0, 0, 1, 261.5, 41.5)" filter="url(#Rectangle_76)">
      <rect id="Rectangle_76-2" data-name="Rectangle 76" width="50" height="40" rx="20" transform="translate(8.5 8.5)" fill="#fff"/>
    </g>
    <g id="Group_2135" data-name="Group 2135" transform="translate(282.486 61.754)">
      <g id="Group_2138" data-name="Group 2138" transform="translate(0 0)">
        <g id="Group_2137" data-name="Group 2137">
          <g id="Group_2136" data-name="Group 2136">
            <g id="Group_2135-2" data-name="Group 2135">
              <path id="Path_154" data-name="Path 154" d="M12.624,64.05a13.42,13.42,0,0,0-4.573.8s-.95.433-1.941.97a17.308,17.308,0,0,0-2,1.247l0,0-.158.13A13.575,13.575,0,0,0,0,72.657a13.557,13.557,0,0,0,17.656,7.638,16.536,16.536,0,0,0,1.955-.961,9.138,9.138,0,0,0,1.7-1.225,13.632,13.632,0,0,0,3.942-5.451A13.58,13.58,0,0,0,12.624,64.05Zm4.217,12.512a5.742,5.742,0,0,1-3.964,1.827l-.144,0h-.107a5.822,5.822,0,0,1-.877-.066c-.093-.015-.185-.031-.276-.049l-.148-.032A5.762,5.762,0,0,1,8.7,68.419a5.948,5.948,0,0,1,1.787-1.135,5.764,5.764,0,0,1,7.49,7.49A11.3,11.3,0,0,1,16.841,76.562Z" transform="translate(0 -64.05)" fill="#0b1131"/>
            </g>
          </g>
        </g>
        <circle id="Ellipse_28" data-name="Ellipse 28" cx="3.064" cy="3.064" r="3.064" transform="translate(9.562 5.518)" fill="#0b1131"/>
        <path id="Path_155" data-name="Path 155" d="M73.551,120.26l-.141.116C73.45,120.34,73.5,120.3,73.551,120.26Z" transform="translate(-69.871 -117.55)" fill="#0b1131"/>
      </g>
    </g>
  </g>
</svg>
