<svg xmlns="http://www.w3.org/2000/svg" xmlns:xlink="http://www.w3.org/1999/xlink" width="52" height="52" viewBox="0 0 52 52">
  <defs>
    <filter id="Ellipse_35" x="0" y="0" width="52" height="52" filterUnits="userSpaceOnUse">
      <feOffset dy="3" input="SourceAlpha"/>
      <feGaussianBlur stdDeviation="3" result="blur"/>
      <feFlood flood-opacity="0.161"/>
      <feComposite operator="in" in2="blur"/>
      <feComposite in="SourceGraphic"/>
    </filter>
  </defs>
  <g id="Group_7465" data-name="Group 7465" transform="translate(3734 -8407)">
    <g id="Group_7458" data-name="Group 7458" transform="translate(-3785 8113)">
      <g id="Group_2181" data-name="Group 2181" transform="translate(3.147 46.591)">
        <g id="Group_2180" data-name="Group 2180" transform="translate(58.853 255.751)">
          <g transform="matrix(1, 0, 0, 1, -11, -8.34)" filter="url(#Ellipse_35)">
            <g id="Ellipse_35-2" data-name="Ellipse 35" transform="translate(11 8)" fill="#285078" stroke="#fff" stroke-width="2">
              <circle cx="15" cy="15" r="15" stroke="none"/>
              <circle cx="15" cy="15" r="16" fill="none"/>
            </g>
          </g>
          <g id="Group_2177" data-name="Group 2177" transform="translate(6.32 3.463)">
            <path id="Path_204" data-name="Path 204" d="M5.719,1.126.25,6.407-.026,22.824l.584.991a8.479,8.479,0,0,1,.813.533c.127.127,2.362.813,2.515.914s1.9.508,2.032.559a3.633,3.633,0,0,0,.533.1l.178-6.908.178-10.87-.178-3.5.129-2.4.048-.9S6.883.042,6.628.169A5.87,5.87,0,0,0,5.719,1.126Z" fill="#396b9e"/>
            <path id="Path_201" data-name="Path 201" d="M320.594-500.85v-18.2l6.515-6.619,9.26,2.5v22.318" transform="translate(-320.594 525.67)" fill="none" stroke="#fff" stroke-miterlimit="10" stroke-width="1.5"/>
            <path id="Path_203" data-name="Path 203" d="M0,0V26.661" transform="translate(6.515)" fill="none" stroke="#fff" stroke-width="1.5"/>
          </g>
        </g>
      </g>
    </g>
    <g id="Group_7463" data-name="Group 7463" transform="translate(1.22 5.733)">
      <g id="Group_2182" data-name="Group 2182" transform="translate(-3706.5 8424.5)">
        <circle id="Ellipse_36" data-name="Ellipse 36" cx="7.981" cy="7.981" r="7.981" transform="translate(0)" fill="#285078" stroke="#fff" stroke-width="1"/>
      </g>
      <g id="Group_7459" data-name="Group 7459" transform="translate(-3702.48 8428.128)">
        <path id="Path_8864" data-name="Path 8864" d="M0,0V8.407" transform="translate(4.204)" fill="none" stroke="#fff" stroke-linecap="round" stroke-width="1.5"/>
        <path id="Path_8865" data-name="Path 8865" d="M0,0V8.407" transform="translate(8.407 4.353) rotate(90)" fill="none" stroke="#fff" stroke-linecap="round" stroke-width="1.5"/>
      </g>
    </g>
  </g>
</svg>
