<svg xmlns="http://www.w3.org/2000/svg" xmlns:xlink="http://www.w3.org/1999/xlink" width="51.23" height="47.8" viewBox="0 0 51.23 47.8">
  <defs>
    <filter id="Path_228" x="0" y="0" width="51.23" height="47.8" filterUnits="userSpaceOnUse">
      <feOffset dy="3" input="SourceAlpha"/>
      <feGaussianBlur stdDeviation="3" result="blur"/>
      <feFlood flood-opacity="0.161"/>
      <feComposite operator="in" in2="blur"/>
      <feComposite in="SourceGraphic"/>
    </filter>
  </defs>
  <g id="Group_3807" data-name="Group 3807" transform="translate(-26.666 -683.069)">
    <g id="Group_3795" data-name="Group 3795" transform="translate(-201.644 336.758)">
      <g id="Group_2237" data-name="Group 2237" transform="translate(237.31 352.311)">
        <g transform="matrix(1, 0, 0, 1, -9, -6)" filter="url(#Path_228)">
          <path id="Path_228-2" data-name="Path 228" d="M951.243-112.459c-.424.447-.873.871-1.324,1.32a2.37,2.37,0,0,1,.556,3.123,2.355,2.355,0,0,1-2.521,1.16,2.428,2.428,0,0,1-.68,2.154,2.436,2.436,0,0,1-2.154.679,2.4,2.4,0,0,1-1.062,2.46,2.378,2.378,0,0,1-2.669.012,2.44,2.44,0,0,1-4.111,1.622,7.089,7.089,0,0,1-.639-.494c-.554-.458-1.4-1.188-2.383-2.055l-.617-.544c-.753-.666-1.567-1.39-2.384-2.121l-.583-.522c-.817-.731-1.625-1.457-2.369-2.127l-.585-.527c-1-.9-1.835-1.658-2.361-2.135l-.592-.537-.16-.17c-.549-.577-1.144-1.118-1.639-1.739a9.449,9.449,0,0,1-2.069-6.974,9.923,9.923,0,0,1,8.326-8.915,9.62,9.62,0,0,1,8.156,2.385c.041.036.084.07.133.11.177-.155.345-.31.52-.454a9.754,9.754,0,0,1,6.956-2.293,9.583,9.583,0,0,1,8.965,8.133A9.648,9.648,0,0,1,951.243-112.459Z" transform="translate(-911.85 135.06)" fill="#285078"/>
        </g>
      </g>
      <g id="Group_2236" data-name="Group 2236" transform="translate(236.5 351.717)">
        <g id="Group_2235" data-name="Group 2235" transform="translate(0 0)">
          <path id="Path_227" data-name="Path 227" d="M955.038-120.641a9.9,9.9,0,0,0-9.259-8.4,10.073,10.073,0,0,0-7.184,2.368c-.181.149-.354.309-.537.469-.052-.042-.1-.077-.138-.114a9.935,9.935,0,0,0-8.423-2.463,10.248,10.248,0,0,0-8.6,9.207,9.758,9.758,0,0,0,2.136,7.2c.511.642,1.125,1.2,1.692,1.8l.165.176.612.555c.544.493,1.41,1.277,2.439,2.2l.6.544c.768.692,1.6,1.442,2.446,2.2l.6.539c.845.755,1.685,1.5,2.463,2.191l.637.562c1.019.9,1.889,1.649,2.461,2.122a7.311,7.311,0,0,0,.66.51,2.519,2.519,0,0,0,4.246-1.675,2.456,2.456,0,0,0,2.757-.013,2.474,2.474,0,0,0,1.1-2.54,2.516,2.516,0,0,0,2.224-.7,2.507,2.507,0,0,0,.7-2.225,2.433,2.433,0,0,0,2.6-1.2,2.447,2.447,0,0,0-.574-3.225c.466-.463.929-.9,1.367-1.363A9.964,9.964,0,0,0,955.038-120.641Zm-4.459,13.152a1.655,1.655,0,0,1-2.231.26,2.541,2.541,0,0,1-.271-.244l-3.376-3.369a1.324,1.324,0,0,0-.174-.159.4.4,0,0,0-.527.061.4.4,0,0,0-.03.512,1.649,1.649,0,0,0,.161.173q1.717,1.716,3.434,3.432a1.563,1.563,0,0,1,.421,1.638,1.584,1.584,0,0,1-1.239,1.156,1.6,1.6,0,0,1-1.552-.467q-1.709-1.709-3.42-3.416a1.689,1.689,0,0,0-.157-.147.411.411,0,0,0-.531.027.408.408,0,0,0-.037.546,1.881,1.881,0,0,0,.163.171q1.709,1.708,3.419,3.417a1.564,1.564,0,0,1,.43,1.617,1.588,1.588,0,0,1-1.222,1.174,1.591,1.591,0,0,1-1.573-.46q-1.726-1.723-3.452-3.445a.7.7,0,0,0-.257-.184.373.373,0,0,0-.464.172.384.384,0,0,0,.052.494c.228.238.464.468.7.7.643.643,1.294,1.279,1.928,1.931a1.634,1.634,0,0,1,.063,2.209,1.661,1.661,0,0,1-2.175.324c-.048-.031-.092-.068-.139-.1h0a.5.5,0,0,1-.107-.094l-.761-.669-2.261-1.99-.68-.6L932.23-105l-.6-.531-2.475-2.184-.6-.529c-1.04-.92-1.917-1.7-2.469-2.193-.322-.289-.533-.48-.6-.547-.422-.42-.848-.822-1.25-1.247a9.028,9.028,0,0,1-2.549-7.1,9.418,9.418,0,0,1,7.746-8.615,9.1,9.1,0,0,1,7.854,2.16c.059.05.112.106.233.221a1.271,1.271,0,0,0-.233.145q-2.815,2.805-5.625,5.617a3.448,3.448,0,0,0-.6,4.134,3.437,3.437,0,0,0,5.427.723c1.041-1.025,2.065-2.067,3.1-3.094a1.784,1.784,0,0,1,1.938-.444,1.447,1.447,0,0,1,.544.327q4.228,4.2,8.439,8.423A1.635,1.635,0,0,1,950.58-107.489Zm1.135-5.051c-.447.483-.926.936-1.445,1.458a1.677,1.677,0,0,0-.169-.248q-3.63-3.631-7.264-7.257a2.64,2.64,0,0,0-3.839-.006c-1.031,1.025-2.051,2.06-3.088,3.08a2.619,2.619,0,0,1-4.243-.77,2.627,2.627,0,0,1,.571-2.951q3.142-3.146,6.292-6.286a9.121,9.121,0,0,1,2-1.513,9.206,9.206,0,0,1,13.557,5.786A9.082,9.082,0,0,1,951.714-112.54Z" transform="translate(-920.851 129.058)" fill="#fff" stroke="#fff" stroke-width="1"/>
        </g>
      </g>
    </g>
    <g id="Group_3794" data-name="Group 3794" transform="translate(-159.058 101.475)">
      <g id="Group_3786" data-name="Group 3786" transform="translate(23.594 3.57)">
        <g id="Group_3785" data-name="Group 3785" transform="translate(169.463 598.818)">
          <g id="Group_3750" data-name="Group 3750" transform="translate(0 0)">
            <g id="Component_17_167" data-name="Component 17 – 167" transform="translate(0 0)">
              <g id="Path_123" data-name="Path 123" transform="translate(-130.456 -85.334)" fill="#f25e2e">
                <path d="M 137.3267211914062 104.3932876586914 L 137.3127288818359 104.3932800292969 L 137.2848815917969 104.3932266235352 L 137.2811889648438 104.3930130004883 C 137.1088714599609 104.3921737670898 136.9349517822266 104.3816680908203 136.7633972167969 104.3617401123047 C 135.5769195556641 104.2848052978516 134.4036102294922 103.9445419311523 133.3683013916016 103.3769378662109 C 132.3210754394531 102.8027648925781 131.4064331054688 101.9913330078125 130.7232818603516 101.0303497314453 L 130.7122039794922 101.0147705078125 L 130.7017364501953 100.998779296875 C 129.8290100097656 99.66603851318359 129.4001159667969 98.12735748291016 129.4613952636719 96.54906463623047 C 129.5226593017578 94.97139739990234 130.0693206787109 93.46891784667969 131.0422668457031 92.20405578613281 L 131.0476837158203 92.19700622558594 L 131.0532379150391 92.19004821777344 C 131.3359832763672 91.83570861816406 131.7599334716797 91.63248443603516 132.2164001464844 91.63248443603516 C 132.2793884277344 91.63248443603516 132.3423614501953 91.63648223876953 132.4048461914062 91.6444091796875 C 132.5019378662109 90.95525360107422 132.6615753173828 90.27313232421875 132.8833618164062 89.60133361816406 C 133.56201171875 87.528076171875 134.9755249023438 85.73558044433594 136.8627471923828 84.55643463134766 L 136.8696594238281 84.55211639404297 L 136.8766479492188 84.54790496826172 C 137.1089630126953 84.40796661376953 137.3755340576172 84.33400726318359 137.6475524902344 84.33400726318359 C 137.9505920410156 84.33400726318359 138.2424163818359 84.42420959472656 138.4914855957031 84.59485626220703 C 138.9919281005859 84.93772888183594 139.2278442382812 85.53874969482422 139.0925140380859 86.12601470947266 L 139.0914611816406 86.13060760498047 L 139.0903625488281 86.13517761230469 C 138.8800048828125 87.01024627685547 138.9921417236328 87.93251800537109 139.4058074951172 88.73750305175781 C 139.8478546142578 89.40184783935547 140.4630889892578 89.94841766357422 141.1876220703125 90.31991577148438 L 141.219970703125 90.33649444580078 L 141.2510223388672 90.35538482666016 C 143.7339630126953 91.86557006835938 145.1688537597656 94.56792449951172 144.9957275390625 97.40789031982422 L 144.9945373535156 97.42731475830078 L 144.9925994873047 97.44667816162109 C 144.8352966308594 99.01749420166016 144.1983337402344 100.4854736328125 143.1505889892578 101.6919174194336 C 142.1078796386719 102.8925247192383 140.7325439453125 103.7480392456055 139.1732330322266 104.1659698486328 L 139.1638946533203 104.1684646606445 L 139.1545104980469 104.1707992553711 C 138.5577239990234 104.3184280395508 137.9427642822266 104.3932876586914 137.3267211914062 104.3932876586914 Z" stroke="none"/>
                <path d="M 137.6475372314453 85.33399963378906 C 137.5592498779297 85.33399963378906 137.4708251953125 85.35739898681641 137.3926239013672 85.40451049804688 C 135.6997833251953 86.46219635009766 134.4410552978516 88.05707550048828 133.8329467773438 89.91484832763672 C 133.3565979003906 91.35764312744141 133.1927185058594 92.87977600097656 133.3516082763672 94.386474609375 C 133.0072631835938 93.99940490722656 132.7792816162109 93.52845001220703 132.6923370361328 93.02487945556641 C 132.6620025634766 92.84132385253906 132.5216827392578 92.69281005859375 132.3353881835938 92.64692687988281 C 132.1490173339844 92.60101318359375 131.9523010253906 92.66657257080078 131.8348999023438 92.81375885009766 C 130.1109313964844 95.05495452880859 129.9930419921875 98.09113311767578 131.538330078125 100.4509429931641 C 132.7533264160156 102.1600799560547 134.7133178710938 103.2346496582031 136.8542175292969 103.365478515625 C 137.0018920898438 103.383659362793 137.1506195068359 103.3928985595703 137.2994537353516 103.39306640625 L 137.30517578125 103.3927383422852 L 137.3145599365234 103.3932800292969 C 137.851806640625 103.3936767578125 138.3916015625 103.3293762207031 138.9143524169922 103.2000579833984 C 141.6983489990234 102.4538879394531 143.7191925048828 100.126953125 143.9975738525391 97.34703826904297 C 144.1480712890625 94.87850952148438 142.8963775634766 92.52656555175781 140.7313690185547 91.20977020263672 C 139.8366851806641 90.75103759765625 139.0820770263672 90.07354736328125 138.5426483154297 89.24494934082031 C 137.9973297119141 88.2138671875 137.8469085693359 87.02947998046875 138.1180572509766 85.90145874023438 C 138.1602783203125 85.71824645996094 138.084716796875 85.52835845947266 137.92626953125 85.4197998046875 C 137.8429870605469 85.36273193359375 137.7453460693359 85.33400726318359 137.6475372314453 85.33399963378906 M 137.6475372314453 83.33399963378906 L 137.6477355957031 83.33399963378906 C 138.1533508300781 83.33404541015625 138.6405639648438 83.48478698730469 139.0567016601562 83.76990509033203 C 139.8987274169922 84.34681701660156 140.2953033447266 85.35979461669922 140.0669708251953 86.35057830810547 L 140.0626678466797 86.368896484375 C 139.9126281738281 86.99308013916016 139.9866027832031 87.65074920654297 140.2703857421875 88.23087310791016 C 140.6154479980469 88.73189544677734 141.0885925292969 89.14535522460938 141.6438751220703 89.43006896972656 L 141.7085571289062 89.46323394775391 L 141.7706604003906 89.50100708007812 C 144.5713958740234 91.2044677734375 146.1896362304688 94.25753021240234 145.9938659667969 97.46873474121094 L 145.9876251220703 97.54631805419922 C 145.8096008300781 99.323974609375 145.0896606445312 100.984245300293 143.9055938720703 102.3476181030273 C 142.7316589355469 103.6993560791016 141.1847534179688 104.6621246337891 139.43212890625 105.1318740844727 L 139.3946533203125 105.1415252685547 C 138.7193908691406 105.3085861206055 138.0236206054688 105.3932876586914 137.3267211914062 105.3932876586914 L 137.2487640380859 105.3927993774414 C 137.0573120117188 105.3909301757812 136.8643951416016 105.3792419433594 136.6737976074219 105.3579940795898 C 135.3508911132812 105.2685165405273 134.0429229736328 104.8872299194336 132.8875579833984 104.2537841796875 C 131.7086334228516 103.6074295043945 130.6784057617188 102.6931381225586 129.9082489013672 101.6097564697266 L 129.8651428222656 101.5466003417969 C 128.8778991699219 100.0389785766602 128.3927612304688 98.29743957519531 128.4621429443359 96.51026916503906 C 128.531494140625 94.72431945800781 129.1496124267578 93.0244140625 130.2496337890625 91.59434509277344 L 130.2715148925781 91.56642913818359 C 130.6031494140625 91.15076446533203 131.0501556396484 90.85926055908203 131.5502014160156 90.72186279296875 C 131.6493988037109 90.24039459228516 131.7770690917969 89.76271057128906 131.9331359863281 89.28974914550781 C 132.6857299804688 86.99300384521484 134.2481536865234 85.01090240478516 136.3328704833984 83.70835876464844 L 136.3604736328125 83.69141387939453 C 136.7485656738281 83.45758819580078 137.1936340332031 83.33399963378906 137.6475372314453 83.33399963378906 Z" stroke="none" fill="#fff"/>
              </g>
            </g>
          </g>
          <g id="Group_3784" data-name="Group 3784" transform="translate(3.391 8.772)">
            <path id="Path_561" data-name="Path 561" d="M885.6,286.97c-.068.252-.182.492-.277.744a4,4,0,0,1-1.262,1.712,7.212,7.212,0,0,1-.781.2,6.519,6.519,0,0,1-1.871.06q-.191-.018-.378-.045a3.453,3.453,0,0,1-2.322-1.944.31.31,0,0,0-.027-.085h0a3.763,3.763,0,0,1,.313-3.744c.223-.344.4-.389.777-.238.05-.286.089-.575.153-.858a4.663,4.663,0,0,1,2.015-2.958.493.493,0,0,1,.578-.01.482.482,0,0,1,.211.525,2.473,2.473,0,0,0,.009,1.073,2.17,2.17,0,0,0,1.1,1.374,3.74,3.74,0,0,1,1.094.964A3.621,3.621,0,0,1,885.6,286.97Z" transform="translate(-878.328 -279.715)" fill="none" stroke="#fff" stroke-width="1.5"/>
          </g>
        </g>
      </g>
    </g>
  </g>
</svg>
