<svg xmlns="http://www.w3.org/2000/svg" xmlns:xlink="http://www.w3.org/1999/xlink" width="71" height="61" viewBox="0 0 71 61">
  <defs>
    <filter id="Rectangle_76" x="0" y="0" width="71" height="61" filterUnits="userSpaceOnUse">
      <feOffset dx="2" dy="2" input="SourceAlpha"/>
      <feGaussianBlur stdDeviation="3.5" result="blur"/>
      <feFlood flood-color="#0b1131" flood-opacity="0.341"/>
      <feComposite operator="in" in2="blur"/>
      <feComposite in="SourceGraphic"/>
    </filter>
  </defs>
  <g id="Group_3813" data-name="Group 3813" transform="translate(-339.5 -153.5)">
    <g transform="matrix(1, 0, 0, 1, 339.5, 153.5)" filter="url(#Rectangle_76)">
      <rect id="Rectangle_76-2" data-name="Rectangle 76" width="50" height="40" rx="20" transform="translate(8.5 8.5)" fill="#fff"/>
    </g>
    <g id="Group_3809" data-name="Group 3809" transform="translate(-6.239 -7.98)">
      <g id="Component_17_226" data-name="Component 17 – 226" transform="translate(368.239 174.98)">
        <path id="Path_124" data-name="Path 124" d="M864.02,109.079a10.548,10.548,0,0,1-7.72,9.133,9.776,9.776,0,0,1-2.43.3h-.023a5.592,5.592,0,0,1-.676-.043,10.626,10.626,0,0,1-8.074-4.548,10.472,10.472,0,0,1,.451-11.917.734.734,0,0,1,1.3.33,4.354,4.354,0,0,0,1,2.124,17.109,17.109,0,0,1,.731-6.977,13.091,13.091,0,0,1,5.407-7.038.739.739,0,0,1,.811.024.726.726,0,0,1,.291.752,7.605,7.605,0,0,0,.645,5.217,8.777,8.777,0,0,0,3.324,3.066A10.556,10.556,0,0,1,864.02,109.079Z" transform="translate(-843.453 -88.439)" fill="#f25e2e"/>
        <path id="Path_125" data-name="Path 125" d="M927.866,289.136a4.744,4.744,0,0,1-3.513,3.914,4.512,4.512,0,0,1-1.429.126h-.036a4.7,4.7,0,0,1-4.22-6.184,3.835,3.835,0,0,0,1.215.987.89.89,0,0,0,1.281-.953,9.216,9.216,0,0,1,.238-4.544,6.844,6.844,0,0,1,1.2-2.2,5.491,5.491,0,0,0,.584,1.793,6.42,6.42,0,0,0,2.422,2.312A4.745,4.745,0,0,1,927.866,289.136Z" transform="translate(-912.053 -263.475)" fill="#ffc8b7"/>
        <path id="Path_123" data-name="Path 123" d="M147.1,95.119a9.364,9.364,0,0,1-3.546-3.272,8.122,8.122,0,0,1-.688-5.568.774.774,0,0,0-.311-.8.785.785,0,0,0-.865-.025,13.968,13.968,0,0,0-5.768,7.511,18.253,18.253,0,0,0-.78,7.447,4.639,4.639,0,0,1-1.068-2.268.782.782,0,0,0-1.389-.352,11.181,11.181,0,0,0-.48,12.718,11.333,11.333,0,0,0,8.613,4.854,5.8,5.8,0,0,0,.721.046h.024a10.438,10.438,0,0,0,2.592-.322A10.918,10.918,0,0,0,147.1,95.119Zm-1.521,15.208a4.145,4.145,0,0,1-3.082,3.412,4,4,0,0,1-1.253.11h-.032a4.291,4.291,0,0,1-3.232-1.84,4.227,4.227,0,0,1-.469-3.549,3.377,3.377,0,0,0,1.065.86.785.785,0,0,0,.822-.067.773.773,0,0,0,.3-.763,7.992,7.992,0,0,1,.208-3.961,5.973,5.973,0,0,1,1.054-1.919,4.769,4.769,0,0,0,.513,1.563,5.615,5.615,0,0,0,2.124,2.015A4.126,4.126,0,0,1,145.584,110.327Zm5.256-5.108a9.654,9.654,0,0,1-4.352,7.155,5.488,5.488,0,0,0,.684-2.2,5.854,5.854,0,0,0-2.746-5.31,4.178,4.178,0,0,1-1.57-1.429,3.566,3.566,0,0,1-.294-2.413.774.774,0,0,0-.311-.8.785.785,0,0,0-.865-.025,7.149,7.149,0,0,0-2.956,3.842,8.656,8.656,0,0,0-.411,2.069.783.783,0,0,0-1.089.144,5.814,5.814,0,0,0-.494,6.163,9.19,9.19,0,0,1-2.921-2.761,9.639,9.639,0,0,1-.439-9.585,6.275,6.275,0,0,0,2.752,2.822.785.785,0,0,0,.822-.067.773.773,0,0,0,.3-.763A18.04,18.04,0,0,1,137,94.986a.762.762,0,0,0,.081-.332c0-.007,0-.012,0-.019.1-.4.205-.8.334-1.184a12.8,12.8,0,0,1,3.7-5.641,9.431,9.431,0,0,0,1.075,4.771,10.717,10.717,0,0,0,4.1,3.858A9.684,9.684,0,0,1,150.839,105.218Z" transform="translate(-130.456 -85.334)" fill="#1a3253"/>
      </g>
    </g>
  </g>
</svg>
