<svg id="Group_2014" data-name="Group 2014" xmlns="http://www.w3.org/2000/svg" width="33.126" height="32.82" viewBox="0 0 33.126 32.82">
  <g id="Group_2013" data-name="Group 2013" transform="translate(0 0)">
    <g id="Group_2012" data-name="Group 2012" transform="translate(0 0)">
      <g id="Group_2011" data-name="Group 2011">
        <path id="Path_138" data-name="Path 138" d="M20.154,24.731a.578.578,0,0,1,.688.092l6.843,6.78c1.365,1.352,3.274,1.674,4.484.475l.208-.206c1.21-1.2.886-3.09-.479-4.443L25.04,20.634a.556.556,0,0,1-.078-.667A12.968,12.968,0,0,0,22.94,3.894a13.546,13.546,0,0,0-19.009,0A13.3,13.3,0,0,0,20.154,24.731ZM6.413,20.269a9.787,9.787,0,0,1,0-13.916,10.009,10.009,0,0,1,14.046,0,9.787,9.787,0,0,1,0,13.916A10.009,10.009,0,0,1,6.413,20.269Z" transform="translate(-0.001 0)" fill="#fff"/>
        <g id="Group_2010" data-name="Group 2010" transform="translate(8.565 5.33)">
          <path id="Path_139" data-name="Path 139" d="M90.213,56.761a6.016,6.016,0,0,0-7.838-3.136,1.4,1.4,0,0,1-1.825-.73,1.368,1.368,0,0,1,.74-1.8,8.817,8.817,0,0,1,11.488,4.6,1.368,1.368,0,0,1-.74,1.8,1.4,1.4,0,0,1-1.825-.73Z" transform="translate(-80.439 -50.409)" fill="#fff"/>
        </g>
      </g>
    </g>
  </g>
</svg>
