<svg xmlns="http://www.w3.org/2000/svg" width="155.849" height="160.369" viewBox="0 0 155.849 160.369">
  <g id="map-maps-and-location-svgrepo-com" transform="translate(0 -16.572)">
    <path id="Path_8858" data-name="Path 8858" d="M159.052,96.577l-50.3,9.482L58.486,96.577l-50.3,9.482v98.068l50.3-9.482,50.265,9.482,50.3-9.482Z" transform="translate(-5.694 -29.677)" fill="#6f8ba5"/>
    <path id="Path_8859" data-name="Path 8859" d="M77.469,205.508l-42,7.916V132.261l41.994-7.916,50.265,9.482,42-7.916v81.163l-41.994,7.916Z" transform="translate(-24.676 -48.993)" fill="#f0f5f7"/>
    <path id="Path_8860" data-name="Path 8860" d="M35.474,258.194c11.839,0,17.171-8.949,22.816-18.424,2.929-4.917,5.959-10,9.953-13.515,4.734-4.163,10.2-5.6,16.7-4.387,11.391,2.12,18.147,10.73,24.68,19.057,8.821,11.242,16.441,20.951,34.249,15.1a2.492,2.492,0,0,1,1.555,4.735c-9.462,3.108-17.485,2.595-24.527-1.568-6.112-3.613-10.731-9.5-15.2-15.194-6.237-7.949-12.128-15.458-21.671-17.234-10.976-2.043-15.6,5.722-21.46,15.553-5.825,9.776-12.426,20.857-27.1,20.857v-4.984h0Z" transform="translate(-24.676 -116.542)" fill="#6f8ba5"/>
    <path id="Path_8861" data-name="Path 8861" d="M173.393,96.577l-.018,0v98.067l.018,0,50.265,9.482V106.059Z" transform="translate(-120.601 -29.677)" fill="#001b34" opacity="0.15"/>
    <path id="Path_8862" data-name="Path 8862" d="M366.526,97.388a35.286,35.286,0,1,0-70.573,0c0,19.488,29.261,53.051,35.287,53.051S366.526,116.876,366.526,97.388Z" transform="translate(-213.168 -45.529)" fill="#6f8ba5"/>
    <ellipse id="Ellipse_178" data-name="Ellipse 178" cx="15.243" cy="15.243" rx="15.243" ry="15.243" transform="translate(102.827 36.616)" fill="#fff"/>
    <path id="Path_8863" data-name="Path 8863" d="M154.948,64.981a2.492,2.492,0,0,0-2.052-.531l-7.778,1.466a32.357,32.357,0,0,0-53.992,5.678L53.254,64.451a2.478,2.478,0,0,0-.923,0L2.03,73.933A2.492,2.492,0,0,0,0,76.381v98.068A2.491,2.491,0,0,0,2.953,176.9L52.792,167.5l49.8,9.395a2.467,2.467,0,0,0,.924,0l19.551-3.685,30.75-5.8a2.492,2.492,0,0,0,2.03-2.449V66.9A2.491,2.491,0,0,0,154.948,64.981ZM119.974,58.9a27.427,27.427,0,0,1,27.4,27.4c0,6.414-4.4,16.083-12.062,26.527-7.1,9.675-13.5,15.265-15.334,15.887-1.832-.622-8.233-6.211-15.334-15.886-7.665-10.444-12.062-20.112-12.062-26.527A27.427,27.427,0,0,1,119.974,58.9Zm-18.856,57.542a99.444,99.444,0,0,0,10.306,11.885c5.613,5.395,7.747,5.395,8.55,5.395s2.937,0,8.55-5.395a99.47,99.47,0,0,0,10.306-11.885c1.378-1.849,2.614-3.613,3.73-5.3v44.876l-39.5,7.446-49.8-9.395a2.478,2.478,0,0,0-.923,0L13.29,161.425V85.334l39.5-7.446,34.855,6.575c-.034.606-.053,1.216-.053,1.83C87.594,90.774,89.351,100.65,101.118,116.439ZM150.866,162.9l-47.809,9.012-49.8-9.395a2.477,2.477,0,0,0-.923,0L4.984,171.443v-93l47.809-9.012L89.175,76.3a32.185,32.185,0,0,0-.865,3.218L53.254,72.9a2.491,2.491,0,0,0-.923,0L10.337,80.819a2.492,2.492,0,0,0-2.03,2.449V164.43a2.492,2.492,0,0,0,2.953,2.449l41.533-7.829,49.8,9.395a2.49,2.49,0,0,0,.924,0l41.994-7.916a2.492,2.492,0,0,0,2.03-2.449V102.639a53.812,53.812,0,0,0,3.322-7.981V162.9Zm0-86.315a32.229,32.229,0,0,0-2.684-6.175l2.684-.506ZM119.974,101.7a15.4,15.4,0,1,0-15.4-15.4A15.42,15.42,0,0,0,119.974,101.7Zm0-25.821a10.419,10.419,0,1,1-10.419,10.418A10.43,10.43,0,0,1,119.974,75.875Z" transform="translate(0 0)" fill="none"/>
  </g>
</svg>
