<svg xmlns="http://www.w3.org/2000/svg" xmlns:xlink="http://www.w3.org/1999/xlink" width="69" height="69" viewBox="0 0 69 69">
  <defs>
    <filter id="Ellipse_29" x="0" y="0" width="69" height="69" filterUnits="userSpaceOnUse">
      <feOffset dx="2" dy="2" input="SourceAlpha"/>
      <feGaussianBlur stdDeviation="3.5" result="blur"/>
      <feFlood flood-color="#0b1131" flood-opacity="0.341"/>
      <feComposite operator="in" in2="blur"/>
      <feComposite in="SourceGraphic"/>
    </filter>
  </defs>
  <g id="Group_7528" data-name="Group 7528" transform="translate(3516.5 -11420.5)">
    <g id="Group_7525" data-name="Group 7525" transform="translate(-3851 10742)">
      <g transform="matrix(1, 0, 0, 1, 334.5, 678.5)" filter="url(#Ellipse_29)">
        <circle id="Ellipse_29-2" data-name="Ellipse 29" cx="24" cy="24" r="24" transform="translate(8.5 8.5)" fill="#fff"/>
      </g>
    </g>
    <g id="Group_7527" data-name="Group 7527" transform="translate(119.927 0.089)">
      <path id="eye" d="M24.38,12.538C22.11,7.269,17.841,4,13.235,4S4.36,7.269,2.09,12.538a1.123,1.123,0,0,0,0,.9c2.269,5.269,6.539,8.538,11.145,8.538s8.875-3.269,11.145-8.538A1.123,1.123,0,0,0,24.38,12.538Zm-11.145,7.19c-3.561,0-6.932-2.573-8.875-6.741C6.3,8.82,9.674,6.247,13.235,6.247s6.932,2.573,8.875,6.741C20.167,17.156,16.8,19.728,13.235,19.728Zm0-11.235a4.494,4.494,0,1,0,4.494,4.494A4.494,4.494,0,0,0,13.235,8.494Z" transform="translate(-3617.162 11436.791)" fill="#03a9f5"/>
      <g id="Layer_2" data-name="Layer 2" transform="translate(-3619.36 11433.269)">
        <path id="Path_8867" data-name="Path 8867" d="M20.433,41.285a1.4,1.4,0,0,0,.87-.309c.533-.477,14.564-11.786,14.564-23.543A15.433,15.433,0,0,0,5,17.433C5,29.191,19.03,40.5,19.564,40.976A1.4,1.4,0,0,0,20.433,41.285ZM7.806,17.433a12.627,12.627,0,0,1,25.255,0c0,8.839-9.639,17.973-12.627,20.611C17.445,35.406,7.806,26.273,7.806,17.433Z" transform="translate(-5 -2)" fill="#03a9f5"/>
      </g>
    </g>
  </g>
</svg>
