<svg id="Group_2134" data-name="Group 2134" xmlns="http://www.w3.org/2000/svg" width="26.214" height="22.634" viewBox="0 0 26.214 22.634">
  <g id="Group_2133" data-name="Group 2133">
    <g id="Group_2132" data-name="Group 2132">
      <path id="Path_151" data-name="Path 151" d="M231.147,160.071l3.753,3.753.018-.2a3.577,3.577,0,0,0-3.574-3.574Z" transform="translate(-218.24 -152.905)" fill="#0b1131"/>
      <path id="Path_152" data-name="Path 152" d="M154.4,67.032a5.959,5.959,0,0,1,5.956,5.956,5.864,5.864,0,0,1-.423,2.174l3.484,3.484a14.147,14.147,0,0,0,4.092-5.659,14.1,14.1,0,0,0-13.11-8.935,13.932,13.932,0,0,0-4.747.834l2.573,2.567A5.986,5.986,0,0,1,154.4,67.032Z" transform="translate(-141.298 -62.267)" fill="#0b1131"/>
      <path id="Path_153" data-name="Path 153" d="M1.191,33.572l2.716,2.716.542.542A14.11,14.11,0,0,0,0,42.774,14.072,14.072,0,0,0,18.328,50.7l.506.506,3.473,3.478,1.519-1.513L2.71,32.053Zm6.588,6.582L9.62,41.994a3.775,3.775,0,0,0-.089.78A3.577,3.577,0,0,0,13.1,46.348a3.672,3.672,0,0,0,.774-.089L15.719,48.1a5.86,5.86,0,0,1-2.615.631,5.917,5.917,0,0,1-5.325-8.577Z" transform="translate(0 -32.053)" fill="#0b1131"/>
    </g>
  </g>
</svg>
