<svg xmlns="http://www.w3.org/2000/svg" width="16.929" height="18.017" viewBox="0 0 16.929 18.017">
  <g id="Group_344" data-name="Group 344" transform="translate(0 0)">
    <g id="Group_343" data-name="Group 343" transform="translate(0 0)">
      <g id="Group_342" data-name="Group 342" transform="translate(0 0)">
        <g id="Group_341" data-name="Group 341">
          <path id="Path_93" data-name="Path 93" d="M595.4,89.145c0,1.707.017,3.414-.006,5.121a2.184,2.184,0,0,0,2.19,2.2c1.919.01,3.839,0,5.759,0,1.076,0,2.153.012,3.228,0a2.168,2.168,0,0,0,1.817-.962,1.944,1.944,0,0,0,.357-1.09c0-.137,0-.275,0-.413.01-1.593.025-3.187.03-4.78.005-1.795,0-3.59,0-5.385a.683.683,0,0,0-.827-.71.665.665,0,0,0-.544.673c0,.589,0,1.178,0,1.767q0,3.692,0,7.385c0,.422.02.845.03,1.267,0,.077,0,.155,0,.233a.729.729,0,0,1-.8.769c-.681.006-1.362,0-2.043,0l-5.515-.016-1.376,0a1.877,1.877,0,0,1-.232-.013.689.689,0,0,1-.684-.759c-.007-.525,0-1.051,0-1.576q0-3.174,0-6.348,0-1.058,0-2.116c0-.2,0-.395-.006-.592a.684.684,0,0,0-1.368.005c-.005.515-.005,1.03-.006,1.544q0,1.9,0,3.8Z" transform="translate(-593.614 -78.46)" fill="#e60000"/>
          <path id="Path_94" data-name="Path 94" d="M544.859-79.18v-.128c0-.356-.011-.713,0-1.068a1.215,1.215,0,0,0-1.139-1.351,6.474,6.474,0,0,0-1.256-.059q-1.932,0-3.864,0a2.775,2.775,0,0,0-1.079.175,1.109,1.109,0,0,0-.729,1.1c0,.4,0,.8,0,1.2v.137h-3.715a.673.673,0,0,0-.691.5.68.68,0,0,0,.677.876c.889,0,1.778,0,2.667,0h7.2q2.826,0,5.653,0a.668.668,0,0,0,.694-.558.67.67,0,0,0-.413-.762.907.907,0,0,0-.31-.05q-1.763,0-3.525,0Zm-6.826,0c0-.282.009-.547,0-.81a.569.569,0,0,1,.625-.626c1.407.018,2.815.017,4.222.024a1.682,1.682,0,0,1,.243.011.52.52,0,0,1,.469.544q0,.36,0,.719c0,.136,0,.136-.139.136h-5.422Z" transform="translate(-532.358 81.789)" fill="#e60000"/>
          <path id="Path_95" data-name="Path 95" d="M808.609,171.512q0-1.734,0-3.469a.653.653,0,1,0-1.306-.021c0,.539,0,1.079,0,1.618q0,2.67,0,5.341a.66.66,0,0,0,.4.65.651.651,0,0,0,.9-.619c0-.8,0-1.607,0-2.411q0-.545,0-1.089Z" transform="translate(-799.54 -160.326)" fill="#e60000"/>
          <path id="Path_96" data-name="Path 96" d="M703.463,171.39q0,1.734,0,3.469a.652.652,0,0,0,1.3.1c0-.042.005-.084.005-.127q0-3.448,0-6.9a.673.673,0,0,0-.238-.563.621.621,0,0,0-.685-.092.608.608,0,0,0-.381.575c-.007.529,0,1.057,0,1.586q0,.973,0,1.946Z" transform="translate(-698.632 -160.191)" fill="#e60000"/>
          <path id="Path_97" data-name="Path 97" d="M912.559,171.516q0-1.729,0-3.458a.652.652,0,1,0-1.3-.054c-.007.416,0,.832,0,1.248q0,2.871,0,5.742a.652.652,0,0,0,1.3.1c0-.053,0-.106,0-.159Q912.559,173.224,912.559,171.516Z" transform="translate(-900.558 -160.329)" fill="#e60000"/>
        </g>
      </g>
    </g>
  </g>
</svg>
