<svg xmlns="http://www.w3.org/2000/svg" width="21.533" height="14.422" viewBox="0 0 21.533 14.422">
  <g id="Group_2341" data-name="Group 2341" transform="translate(0.1 0.1)">
    <path id="Path_241" data-name="Path 241" d="M1.239,66.333H-17.906A1.1,1.1,0,0,0-19,67.427V79.461a1.1,1.1,0,0,0,1.094,1.094H1.239a1.1,1.1,0,0,0,1.094-1.094V67.427A1.1,1.1,0,0,0,1.239,66.333Zm-.411.82-8.533,6.4a1.066,1.066,0,0,1-.629.189,1.067,1.067,0,0,1-.629-.189l-8.533-6.4ZM-3.73,73.976.92,79.719c0,.006.01.01.015.015H-17.6c0-.005.011-.01.015-.015l4.649-5.743A.41.41,0,0,0-13,73.4a.41.41,0,0,0-.577.061l-4.6,5.687V67.666l8.725,6.543a1.876,1.876,0,0,0,1.121.353,1.874,1.874,0,0,0,1.121-.353l8.725-6.543v11.48l-4.6-5.687a.41.41,0,0,0-.577-.061A.41.41,0,0,0-3.73,73.976Z" transform="translate(19 -66.333)" fill="#fff" stroke="#fff" stroke-width="0.2"/>
  </g>
</svg>
