<svg id="Group_8786" data-name="Group 8786" xmlns="http://www.w3.org/2000/svg" width="20.47" height="19.959" viewBox="0 0 20.47 19.959">
  <path id="Path_112" data-name="Path 112" d="M11.559,5.767,6.755.5V3.643H5.734A5.734,5.734,0,0,0,0,9.376v1.665l.454-.5A8.14,8.14,0,0,1,6.466,7.892h.289v3.143Z" transform="translate(8.911 8.917)" fill="rgba(255,255,255,0.3)"/>
  <path id="Path_58" data-name="Path 58" d="M633,343.3c.018-.179.035-.358.055-.537a7.938,7.938,0,0,1,1.117-3.266,9.159,9.159,0,0,1,4.267-3.65l.261-.113-.1-.1a5.524,5.524,0,0,1,2.9-9.324,5.52,5.52,0,0,1,2.245,10.807,5.359,5.359,0,0,1-3.549-.366.328.328,0,0,0-.256-.014,8.445,8.445,0,0,0-3.295,1.847,6.9,6.9,0,0,0-2.193,3.951,8.538,8.538,0,0,0-.1,1.562.67.67,0,0,1-.479.655.682.682,0,0,1-.853-.468c-.007-.024-.016-.048-.024-.072Zm9.512-7.4a4.163,4.163,0,1,0-4.166-4.154A4.18,4.18,0,0,0,642.512,335.9Z" transform="translate(-633 -326.211)" fill="rgba(255,255,255,0.3)"/>
</svg>
