<svg xmlns="http://www.w3.org/2000/svg" width="13.087" height="13.929" viewBox="0 0 13.087 13.929">
  <g id="Group_2389" data-name="Group 2389" transform="translate(-385 -230)">
    <g id="Group_343" data-name="Group 343" transform="translate(385 230)">
      <g id="Group_342" data-name="Group 342" transform="translate(0 0)">
        <g id="Group_341" data-name="Group 341" transform="translate(0 0)">
          <path id="Path_93" data-name="Path 93" d="M595.4,87.776c0,1.32.013,2.639,0,3.959a1.688,1.688,0,0,0,1.693,1.7c1.484.008,2.968,0,4.452,0,.832,0,1.664.009,2.5,0a1.676,1.676,0,0,0,1.4-.744,1.5,1.5,0,0,0,.276-.843c0-.106,0-.213,0-.319.008-1.232.02-2.463.023-3.7,0-1.388,0-2.775,0-4.163a.528.528,0,0,0-.639-.549.514.514,0,0,0-.421.52c0,.455,0,.911,0,1.366q0,2.854,0,5.709c0,.327.016.653.023.98,0,.06,0,.12,0,.18a.563.563,0,0,1-.617.595c-.526,0-1.053,0-1.579,0l-4.264-.013-1.064,0a1.453,1.453,0,0,1-.179-.01.533.533,0,0,1-.529-.587c-.005-.406,0-.812,0-1.219q0-2.454,0-4.907,0-.818,0-1.636c0-.153,0-.305,0-.458a.529.529,0,0,0-1.057,0c0,.4,0,.8,0,1.194q0,1.468,0,2.936Z" transform="translate(-594.017 -79.516)" fill="#782828"/>
          <path id="Path_94" data-name="Path 94" d="M542.023-79.772v-.1c0-.275-.008-.551,0-.826a.939.939,0,0,0-.881-1.044,5,5,0,0,0-.971-.046q-1.494,0-2.987,0a2.145,2.145,0,0,0-.834.135.858.858,0,0,0-.564.848c0,.308,0,.616,0,.924v.106h-2.872a.52.52,0,0,0-.534.384.525.525,0,0,0,.524.677c.687,0,1.375,0,2.062,0H544.9a.516.516,0,0,0,.536-.432.518.518,0,0,0-.319-.589.7.7,0,0,0-.24-.039q-1.363,0-2.725,0Zm-5.277,0c0-.218.007-.423,0-.626a.439.439,0,0,1,.483-.484c1.088.014,2.176.013,3.264.019a1.3,1.3,0,0,1,.188.009.4.4,0,0,1,.363.421q0,.278,0,.556c0,.105,0,.105-.107.105h-4.192Z" transform="translate(-532.358 81.789)" fill="#782828"/>
          <path id="Path_95" data-name="Path 95" d="M808.312,170.57q0-1.341,0-2.682a.505.505,0,1,0-1.01-.016c0,.417,0,.834,0,1.251q0,2.064,0,4.129a.51.51,0,0,0,.31.5.5.5,0,0,0,.7-.478c0-.621,0-1.243,0-1.864q0-.421,0-.842Z" transform="translate(-801.301 -161.922)" fill="#782828"/>
          <path id="Path_96" data-name="Path 96" d="M703.462,170.444q0,1.341,0,2.682a.5.5,0,0,0,1,.078c0-.033,0-.065,0-.1q0-2.665,0-5.33a.52.52,0,0,0-.184-.435.48.48,0,0,0-.529-.071.47.47,0,0,0-.295.444c-.005.409,0,.818,0,1.226q0,.752,0,1.5Z" transform="translate(-699.728 -161.786)" fill="#782828"/>
          <path id="Path_97" data-name="Path 97" d="M912.262,170.574q0-1.337,0-2.673a.5.5,0,1,0-1.007-.042c-.005.321,0,.643,0,.965q0,2.22,0,4.439a.5.5,0,0,0,1.006.075c0-.041,0-.082,0-.123Q912.263,171.894,912.262,170.574Z" transform="translate(-902.985 -161.925)" fill="#782828"/>
        </g>
      </g>
    </g>
  </g>
</svg>
