<svg xmlns="http://www.w3.org/2000/svg" width="21.384" height="21.384" viewBox="0 0 21.384 21.384">
  <path id="Path_240" data-name="Path 240" d="M7.592-3A10.592,10.592,0,1,0,18.184,7.592,10.592,10.592,0,0,0,7.592-3Zm9.161,14.3-3.012.52a15.8,15.8,0,0,0,.554-3.877h3.174A9.821,9.821,0,0,1,16.752,11.3ZM-2.285,7.945H.889a15.8,15.8,0,0,0,.554,3.877l-3.012-.52A9.821,9.821,0,0,1-2.285,7.945Zm.717-4.064,3.012-.52A15.8,15.8,0,0,0,.889,7.239H-2.285A9.821,9.821,0,0,1-1.569,3.881ZM7.945,2.669a24.292,24.292,0,0,1,3.785.346l1.246.215a15.155,15.155,0,0,1,.613,4.009H7.945Zm3.905-.35a25.026,25.026,0,0,0-3.905-.356V-2.274c2.024.194,3.782,2.048,4.779,4.745ZM7.239,1.963a25.021,25.021,0,0,0-3.9.356L2.46,2.47c1-2.7,2.755-4.552,4.779-4.745ZM3.454,3.014a24.285,24.285,0,0,1,3.785-.346v4.57H1.6a15.154,15.154,0,0,1,.613-4.009ZM1.6,7.945H7.239v4.57a24.292,24.292,0,0,1-3.785-.346l-1.246-.215A15.154,15.154,0,0,1,1.6,7.945Zm1.738,4.92a25.112,25.112,0,0,0,3.905.358V17.46c-2.024-.195-3.782-2.048-4.779-4.745Zm4.611.358a25.109,25.109,0,0,0,3.9-.358l.874-.151c-1,2.7-2.755,4.552-4.779,4.745Zm3.785-1.054a24.285,24.285,0,0,1-3.785.346V7.945h5.644a15.155,15.155,0,0,1-.613,4.009Zm2.565-4.93a15.8,15.8,0,0,0-.554-3.877l3.012.52a9.821,9.821,0,0,1,.717,3.358ZM16.4,3.1l-2.887-.5a9.736,9.736,0,0,0-2.809-4.4A9.933,9.933,0,0,1,16.4,3.1ZM4.485-1.791A9.736,9.736,0,0,0,1.676,2.6l-2.887.5A9.933,9.933,0,0,1,4.485-1.791Zm-5.7,13.872,2.887.5a9.736,9.736,0,0,0,2.809,4.4A9.933,9.933,0,0,1-1.211,12.081ZM10.7,16.975a9.736,9.736,0,0,0,2.809-4.4l2.887-.5A9.933,9.933,0,0,1,10.7,16.975Z" transform="translate(3.1 3.1)" fill="pink" stroke="#fff" stroke-width="0.2"/>
</svg>
