<svg xmlns="http://www.w3.org/2000/svg" width="20.797" height="25.889" viewBox="0 0 20.797 25.889">
  <g id="Group_232" data-name="Group 232" transform="translate(-617.9 288.1)">
    <path id="Path_39" data-name="Path 39"
          d="M628.432-288a1.915,1.915,0,0,1,.292.14.714.714,0,0,1,.3.62c0,.323,0,.646,0,.99h8.718a1.3,1.3,0,0,1,.286.02.722.722,0,0,1,.562.688c0,.039,0,.079,0,.118q0,6.933,0,13.865a1.179,1.179,0,0,1-.035.311.716.716,0,0,1-.72.519h-3.288l2.88,8.407c-.049,0-.086.009-.123.009-.432,0-.865,0-1.3,0a.16.16,0,0,1-.185-.13q-.888-2.634-1.784-5.266l-1.022-3.016h-3.993v8.145H627.58v-8.142h-3.862l-.344,1.014q-1.233,3.636-2.464,7.272a.145.145,0,0,1-.166.119c-.471-.005-.943,0-1.438,0l2.882-8.413H618.9a.77.77,0,0,1-.9-.627v-14.285a1.852,1.852,0,0,1,.086-.215.761.761,0,0,1,.739-.4q4.288.006,8.576,0h.172c0-.345,0-.668,0-.991a.71.71,0,0,1,.316-.627,2.021,2.021,0,0,1,.281-.133Zm-8.966,15.811h17.667v-12.6H619.466Z"
          stroke="#0b1131" stroke-width="0.2"/>
  </g>
</svg>
