<svg xmlns="http://www.w3.org/2000/svg" width="23.56" height="28.839" viewBox="0 0 23.56 28.839">
  <g id="Group_2691" data-name="Group 2691" transform="translate(-605.411 -133.588)">
    <g id="Group_2690" data-name="Group 2690" transform="translate(605.411 133.588)">
      <path id="Path_384" data-name="Path 384" d="M628.971,149.866q0-4.777,0-9.554a3,3,0,0,0-2.01-2.873,3.781,3.781,0,0,0-1.381-.156c-.284,0-.287,0-.285-.279a3.777,3.777,0,0,0-.185-1.5,2.9,2.9,0,0,0-2.537-1.9,4.665,4.665,0,0,0-.512-.018q-6.785,0-13.57,0a2.943,2.943,0,0,0-2.528,1.249,3.026,3.026,0,0,0-.551,1.818q0,6.869,0,13.739c0,1.777,0,3.553,0,5.33a2.916,2.916,0,0,0,1.029,2.3,2.851,2.851,0,0,0,1.759.7,6.687,6.687,0,0,0,.67,0c.17-.008.228.047.23.222a7.152,7.152,0,0,0,.063,1.119,2.878,2.878,0,0,0,2.42,2.3,5.467,5.467,0,0,0,.726.051q6.795,0,13.59,0a2.968,2.968,0,0,0,2.333-1,2.876,2.876,0,0,0,.736-1.967Q628.971,154.662,628.971,149.866Zm-5.211-3.707q0,2.971,0,5.942c0,1.2,0,2.408,0,3.612a1.348,1.348,0,0,1-1.391,1.439q-6.953.005-13.906,0a1.419,1.419,0,0,1-.984-.39,1.474,1.474,0,0,1-.446-1.158q0-9.436,0-18.872c0-.046,0-.092,0-.138a1.355,1.355,0,0,1,1.429-1.406q6.933-.007,13.867,0a1.614,1.614,0,0,1,.665.138,1.342,1.342,0,0,1,.767,1.334Q623.76,141.411,623.761,146.159Zm1.457,1.357v-8.331c0-.059,0-.119,0-.178-.009-.121.048-.164.164-.161.177.005.356-.007.532.006a1.509,1.509,0,0,1,.865.287,1.456,1.456,0,0,1,.536,1.232q-.007,9.377,0,18.755a.84.84,0,0,0,.007.236.882.882,0,0,1-.1.664,1.358,1.358,0,0,1-1.334.771H615.8q-1.854,0-3.709,0a1.357,1.357,0,0,1-1.325-.787,2.23,2.23,0,0,1-.129-1.007c0-.311,0-.312.314-.312q5.662,0,11.323,0a2.922,2.922,0,0,0,2.944-2.941Q625.219,151.631,625.217,147.515Z" transform="translate(-605.411 -133.588)" fill="#03a9f5"/>
      <path id="Path_385" data-name="Path 385" d="M680.973,208.331q0-1.431,0-2.861a.772.772,0,0,0-.845-.843q-2.356,0-4.713,0a.789.789,0,0,0-.851.849q0,2.832,0,5.663a.812.812,0,0,0,.906.9c1.551,0,3.1-.009,4.653.005a.841.841,0,0,0,.856-.85C680.958,210.239,680.973,209.285,680.973,208.331Zm-4.824-.013c0-.638,0-1.276,0-1.913,0-.166.055-.212.216-.21q1.419.01,2.838,0c.169,0,.209.06.208.217q-.008,1.913,0,3.827c0,.17-.051.231-.225.23q-1.4-.01-2.8,0c-.18,0-.241-.055-.239-.237C676.154,209.595,676.149,208.957,676.149,208.319Z" transform="translate(-670.925 -200.888)" fill="#03a9f5"/>
      <path id="Path_386" data-name="Path 386" d="M680.909,499.378q-2.672,0-5.345,0a1.449,1.449,0,0,0-.463.067.771.771,0,0,0-.5.789.783.783,0,0,0,.685.708,1.493,1.493,0,0,0,.2.011q5.424,0,10.847-.006a1.12,1.12,0,0,0,.554-.155.752.752,0,0,0,.288-.857.805.805,0,0,0-.7-.554c-.124-.009-.25-.006-.375-.006Z" transform="translate(-670.955 -480.132)" fill="#03a9f5"/>
      <path id="Path_387" data-name="Path 387" d="M680.9,422.642q2.732,0,5.464,0a.782.782,0,0,0,.121-1.559c-.131-.01-.262-.017-.394-.017h-10.4c-.125,0-.25.006-.374.016a.781.781,0,0,0,.035,1.559c.164.006.329,0,.493,0Z" transform="translate(-670.967 -405.939)" fill="#03a9f5"/>
      <path id="Path_388" data-name="Path 388" d="M822.23,265.082c.539,0,1.078,0,1.617,0a.79.79,0,0,0,.842-.714.767.767,0,0,0-.71-.857,2.03,2.03,0,0,0-.314-.024q-1.45,0-2.9,0a2.317,2.317,0,0,0-.353.029.785.785,0,0,0-.685.826.8.8,0,0,0,.805.739C821.1,265.086,821.664,265.082,822.23,265.082Z" transform="translate(-808.449 -256.651)" fill="#03a9f5"/>
      <path id="Path_389" data-name="Path 389" d="M822.28,342.649c-.525,0-1.05,0-1.576,0a.82.82,0,0,0-.855.534.79.79,0,0,0,.772,1.054c.6.008,1.195,0,1.792,0,.519,0,1.037,0,1.556,0a.793.793,0,0,0,.784-.622.765.765,0,0,0-.456-.886,1.356,1.356,0,0,0-.461-.078C823.317,342.643,822.8,342.649,822.28,342.649Z" transform="translate(-808.523 -331.648)" fill="#03a9f5"/>
    </g>
  </g>
</svg>
