<svg xmlns="http://www.w3.org/2000/svg" width="10.458" height="14.688" viewBox="0 0 10.458 14.688">
  <g id="Group_8417" data-name="Group 8417" transform="translate(15546 -18793.15)">
    <g id="Group_8413" data-name="Group 8413" transform="translate(-15530.598 18795.43)">
      <g id="Group_8415" data-name="Group 8415">
        <g id="Group_2783" data-name="Group 2783" transform="translate(-7.71 5.59) rotate(45)">
          <g id="Path_9004" data-name="Path 9004" transform="translate(0.416 0) rotate(45)" fill="#fff">
            <path d="M 4.88232421875 0.6882445216178894 L 0.29412442445755 0.6882445216178894 C 0.07680441439151764 0.6882445216178894 -0.09999559074640274 0.5114445686340332 -0.09999559074640274 0.2941245436668396 C -0.09999559074640274 0.07680454105138779 0.07680441439151764 -0.099995456635952 0.29412442445755 -0.099995456635952 L 4.88232421875 -0.099995456635952 C 5.099644184112549 -0.099995456635952 5.276444435119629 0.07680454105138779 5.276444435119629 0.2941245436668396 C 5.276444435119629 0.5114445686340332 5.099644184112549 0.6882445216178894 4.88232421875 0.6882445216178894 Z" stroke="none"/>
            <path d="M 0.2941246032714844 4.529953002929688e-06 C 0.1316843032836914 4.529953002929688e-06 4.291534423828125e-06 0.1316845417022705 4.291534423828125e-06 0.2941245436668396 C 4.291534423828125e-06 0.4565645456314087 0.1316843032836914 0.5882445573806763 0.2941246032714844 0.5882445573806763 L 4.88232421875 0.5882445573806763 C 5.044764518737793 0.5882445573806763 5.176444530487061 0.4565645456314087 5.176444530487061 0.2941245436668396 C 5.176444530487061 0.1316845417022705 5.044764518737793 4.529953002929688e-06 4.88232421875 4.529953002929688e-06 L 0.2941246032714844 4.529953002929688e-06 M 0.2941246032714844 -0.1999954581260681 L 4.88232421875 -0.1999954581260681 C 5.154784202575684 -0.1999954581260681 5.376444339752197 0.02166455984115601 5.376444339752197 0.2941245436668396 C 5.376444339752197 0.5665845274925232 5.154784202575684 0.7882445454597473 4.88232421875 0.7882445454597473 L 0.2941246032714844 0.7882445454597473 C 0.02166461944580078 0.7882445454597473 -0.1999955177307129 0.5665845274925232 -0.1999955177307129 0.2941245436668396 C -0.1999955177307129 0.02166455984115601 0.02166461944580078 -0.1999954581260681 0.2941246032714844 -0.1999954581260681 Z" stroke="none" fill="#fff"/>
          </g>
          <g id="Path_9005" data-name="Path 9005" transform="translate(4.059 0.43) rotate(135)" fill="#fff">
            <path d="M 4.839910507202148 0.6831022500991821 L 0.2915505766868591 0.6831022500991821 C 0.07565057277679443 0.6831022500991821 -0.09999942779541016 0.5074522495269775 -0.09999942779541016 0.2915522754192352 C -0.09999942779541016 0.07565227895975113 0.07565057277679443 -0.09999772161245346 0.2915505766868591 -0.09999772161245346 L 4.839910507202148 -0.09999772161245346 C 5.055810451507568 -0.09999772161245346 5.231460571289062 0.07565227895975113 5.231460571289062 0.2915522754192352 C 5.231460571289062 0.5074522495269775 5.055810451507568 0.6831022500991821 4.839910507202148 0.6831022500991821 Z" stroke="none"/>
            <path d="M 0.2915506362915039 2.264976501464844e-06 C 0.1305303573608398 2.264976501464844e-06 4.76837158203125e-07 0.1305322647094727 4.76837158203125e-07 0.2915522754192352 C 4.76837158203125e-07 0.4525722861289978 0.1305303573608398 0.583102285861969 0.2915506362915039 0.583102285861969 L 4.839910507202148 0.583102285861969 C 5.000930786132812 0.583102285861969 5.131460666656494 0.4525722861289978 5.131460666656494 0.2915522754192352 C 5.131460666656494 0.1305322647094727 5.000930786132812 2.264976501464844e-06 4.839910507202148 2.264976501464844e-06 L 0.2915506362915039 2.264976501464844e-06 M 0.2915506362915039 -0.1999977231025696 L 4.839910507202148 -0.1999977231025696 C 5.110950469970703 -0.1999977231025696 5.331460475921631 0.02051228284835815 5.331460475921631 0.2915522754192352 C 5.331460475921631 0.5625922679901123 5.110950469970703 0.78310227394104 4.839910507202148 0.78310227394104 L 0.2915506362915039 0.78310227394104 C 0.02051067352294922 0.78310227394104 -0.1999993324279785 0.5625922679901123 -0.1999993324279785 0.2915522754192352 C -0.1999993324279785 0.02051228284835815 0.02051067352294922 -0.1999977231025696 0.2915506362915039 -0.1999977231025696 Z" stroke="none" fill="#fff"/>
          </g>
        </g>
      </g>
    </g>
    <path id="Path_9003" data-name="Path 9003" d="M0,0H1.19V10.4A.6.6,0,1,1,0,10.4Z" transform="translate(-15546 18796.838)" fill="#fff"/>
    <path id="Path_9000" data-name="Path 9000" d="M0,0H1.19V4.95H0Z" transform="translate(-15542.688 18793.15) rotate(42)" fill="#fff"/>
    <path id="Path_9001" data-name="Path 9001" d="M0,0H1.19V5.185H0Z" transform="translate(-15537.713 18794.666) rotate(107)" fill="#fff"/>
    <path id="Path_8999" data-name="Path 8999" d="M0,0H1.19V13.4A.6.6,0,1,1,0,13.4Z" transform="translate(-15542.8 18793.838)" fill="#fff"/>
    <path id="Path_9002" data-name="Path 9002" d="M.6,0a.6.6,0,0,1,.6.6V4.95H0V.6A.6.6,0,0,1,.6,0Z" transform="translate(-15537.713 18799.648) rotate(-180)" fill="#fff"/>
  </g>
</svg>
