<svg xmlns="http://www.w3.org/2000/svg" width="33.367" height="31" viewBox="0 0 33.367 31">
  <g id="Group_2775" data-name="Group 2775" transform="translate(-21 -653)">
    <g id="Group_2774" data-name="Group 2774" transform="translate(0 -58)">
      <g id="Group_2772" data-name="Group 2772" transform="translate(28.858 715.453)">
        <path id="Path_201" data-name="Path 201" d="M320.594-501.969v-17.381l5.494-6.321,7.808,2.389" transform="translate(-320.594 525.67)" fill="none" stroke="#285078" stroke-linecap="round" stroke-miterlimit="10" stroke-width="1.5"/>
        <path id="Path_203" data-name="Path 203" d="M0,0V25.254" transform="translate(5.494)" fill="none" stroke="#285078" stroke-width="1.5"/>
      </g>
      <g id="Ellipse_80" data-name="Ellipse 80" transform="translate(21 711)" fill="none" stroke="#285078" stroke-width="1.5">
        <circle cx="15.5" cy="15.5" r="15.5" stroke="none"/>
        <circle cx="15.5" cy="15.5" r="14.75" fill="none"/>
      </g>
    </g>
    <g id="Group_396" data-name="Group 396" transform="translate(25.537 650.81)">
      <g id="Path_112" data-name="Path 112" transform="translate(11.437 10.303)" fill="#285078" stroke-linejoin="round">
        <path d="M -0.7499998211860657 16.92922973632812 L -0.7499998211860657 14.99467945098877 L -0.7499998211860657 12.70479965209961 C -0.7499998211860657 7.944079875946045 3.123120069503784 4.070959568023682 7.883830070495605 4.070959568023682 L 8.538080215454102 4.070959568023682 L 8.538080215454102 0.4999997317790985 L 8.538080215454102 -1.435450315475464 L 9.842249870300293 -0.005370274651795626 L 16.44699096679688 7.237049579620361 L 16.90785980224609 7.742419719696045 L 16.44699096679688 8.24778938293457 L 9.842249870300293 15.4902400970459 L 8.538080215454102 16.92033004760742 L 8.538080215454102 14.98486995697021 L 8.538080215454102 11.41987323760986 C 5.738080978393555 11.51514148712158 3.072070837020874 12.74116325378418 1.177690148353577 14.81676006317139 L 0.5540101528167725 15.50022983551025 L -0.7499998211860657 16.92922973632812 Z" stroke="none"/>
        <path d="M 9.288080215454102 0.5 L 9.288080215454102 4.82096004486084 L 7.883830070495605 4.82096004486084 C 3.529660224914551 4.82096004486084 0 8.350629806518555 0 12.70479965209961 L 0 14.99467945098877 L 0.6237297058105469 14.31116008758545 C 2.74429988861084 11.98773002624512 5.744820594787598 10.66387939453125 8.890600204467773 10.66387939453125 L 9.288080215454102 10.66387939453125 L 9.288080215454102 14.98486995697021 L 15.89282035827637 7.742419719696045 L 9.288080215454102 0.5 M 9.28774356842041 -1.000060081481934 C 9.701589584350586 -1.000060081481934 10.10649299621582 -0.8286504745483398 10.39640998840332 -0.5107393264770508 L 17.00115013122559 6.731679916381836 C 17.52338027954102 7.304319381713867 17.52338027954102 8.180519104003906 17.00115013122559 8.753159523010254 L 10.39640998840332 15.99560928344727 C 9.979120254516602 16.45318984985352 9.323530197143555 16.60729026794434 8.746089935302734 16.38352966308594 C 8.168649673461914 16.15976905822754 7.788080215454102 15.60414981842041 7.788080215454102 14.98486995697021 L 7.788080215454102 12.22718048095703 C 5.476713180541992 12.49328231811523 3.314188003540039 13.5884256362915 1.731650352478027 15.32234954833984 L 1.108010292053223 16.00576972961426 C 0.6906414031982422 16.46315002441406 0.03511905670166016 16.61708068847656 -0.5422096252441406 16.39324951171875 C -1.119529724121094 16.16942977905273 -1.5 15.61386966705322 -1.5 14.99467945098877 L -1.5 12.70479965209961 C -1.5 7.562426567077637 2.657660484313965 3.372899055480957 7.788080215454102 3.321441650390625 L 7.788080215454102 0.5 C 7.788080215454102 -0.1192798614501953 8.168649673461914 -0.674901008605957 8.746089935302734 -0.8986597061157227 C 8.922346115112305 -0.9669599533081055 9.105924606323242 -1.000060081481934 9.28774356842041 -1.000060081481934 Z" stroke="none" fill="#fff"/>
      </g>
    </g>
  </g>
</svg>
