<svg xmlns="http://www.w3.org/2000/svg" width="33.201" height="20.787" viewBox="0 0 33.201 20.787">
  <g id="Group_7936" data-name="Group 7936" transform="translate(-545.514 274.943)">
    <path id="Path_402" data-name="Path 402" d="M547.617-266.79c.252-.072.492-.138.73-.21q1.419-.428,2.837-.859,1.849-.558,3.7-1.112,2.75-.823,5.5-1.645c1.6-.48,3.193-.968,4.79-1.451.7-.213,1.407-.425,2.113-.63.1-.03.14-.071.14-.177,0-.319.019-.638.009-.957a1.034,1.034,0,0,1,.535-.968.963.963,0,0,1,1.052.027.974.974,0,0,1,.482.863c-.007,1.426-.025,2.852-.038,4.278q-.018,2.01-.034,4.02-.045,4.924-.094,9.849a3.962,3.962,0,0,1-.062.877,1.015,1.015,0,0,1-1.109.719,1.051,1.051,0,0,1-.893-1c-.005-.331-.006-.663.009-.994a.232.232,0,0,0-.2-.273q-1.694-.526-3.384-1.065-2.367-.755-4.732-1.516c-.391-.125-.788-.235-1.175-.371-.135-.047-.176,0-.218.106a3.842,3.842,0,0,1-.957,1.409,4.013,4.013,0,0,1-4.336.76,3.949,3.949,0,0,1-1.842-1.616,3.9,3.9,0,0,1-.468-2.959c.033-.152-.022-.2-.138-.239-.7-.223-1.4-.444-2.1-.669-.123-.04-.172-.012-.164.123s0,.245-.005.368a1.007,1.007,0,0,1-.727.943.988.988,0,0,1-1.14-.381,1.214,1.214,0,0,1-.185-.6c0-1.713.019-3.426.037-5.139a1.029,1.029,0,0,1,1.349-1.034,1.032,1.032,0,0,1,.707.864C547.623-267.243,547.614-267.029,547.617-266.79Zm8.036,6.752a1.243,1.243,0,0,0-.159-.079c-1.122-.357-2.245-.71-3.365-1.073-.128-.042-.162-.013-.18.107a1.918,1.918,0,0,0,.387,1.492,1.927,1.927,0,0,0,2.082.662A1.948,1.948,0,0,0,555.653-260.038Z" fill="#03a9f5"/>
    <path id="Path_403" data-name="Path 403" d="M1264.118-7.19a1.613,1.613,0,0,1,.387-.089q2.589.012,5.177.041a.514.514,0,0,1,.508.764.532.532,0,0,1-.545.267c-.578,0-1.156-.014-1.735-.02l-3.4-.029a.52.52,0,0,1-.526-.722A1.581,1.581,0,0,1,1264.118-7.19Z" transform="translate(-691.797 -257.74)" fill="#03a9f5" stroke="#03a9f5" stroke-width="0.5"/>
    <path id="Path_404" data-name="Path 404" d="M1270.343-245.614c-.252.141-.5.282-.745.415-.466.248-.934.491-1.4.736-.625.329-1.244.667-1.875.984a.5.5,0,0,1-.757-.43.471.471,0,0,1,.249-.461c.629-.333,1.263-.657,1.893-.991q.977-.517,1.948-1.045a.558.558,0,0,1,.639,0,.511.511,0,0,1,.164.582A1.223,1.223,0,0,1,1270.343-245.614Z" transform="translate(-693.353 -27.385)" fill="#03a9f5" stroke="#03a9f5" stroke-width="0.5"/>
    <path id="Path_405" data-name="Path 405" d="M1267.008,178.239a.523.523,0,0,1,.083.667.5.5,0,0,1-.625.165c-.419-.218-.831-.452-1.245-.679q-1.267-.694-2.534-1.389c-.217-.119-.408-.262-.4-.545a.482.482,0,0,1,.264-.437.494.494,0,0,1,.507,0c.644.357,1.292.7,1.937,1.06q.944.52,1.883,1.048A.9.9,0,0,1,1267.008,178.239Z" transform="translate(-690.193 -434.178)" fill="#03a9f5" stroke="#03a9f5" stroke-width="0.5"/>
  </g>
</svg>
