<svg xmlns="http://www.w3.org/2000/svg" width="11.537" height="14.688" viewBox="0 0 11.537 14.688">
  <g id="Group_8419" data-name="Group 8419" transform="translate(15546 -18793.15)">
    <path id="Path_9003" data-name="Path 9003" d="M0,0H1.19V10.4A.6.6,0,1,1,0,10.4Z" transform="translate(-15546 18796.838)" fill="#fff"/>
    <path id="Path_9000" data-name="Path 9000" d="M0,0H1.19V4.95H0Z" transform="translate(-15542.688 18793.15) rotate(42)" fill="#fff"/>
    <path id="Path_9001" data-name="Path 9001" d="M0,0H1.19V5.185H0Z" transform="translate(-15537.713 18794.666) rotate(107)" fill="#fff"/>
    <path id="Path_8999" data-name="Path 8999" d="M0,0H1.19V13.4A.6.6,0,1,1,0,13.4Z" transform="translate(-15542.8 18793.838)" fill="#fff"/>
    <path id="Path_9002" data-name="Path 9002" d="M.6,0a.6.6,0,0,1,.6.6V4.95H0V.6A.6.6,0,0,1,.6,0Z" transform="translate(-15537.713 18799.648) rotate(-180)" fill="#fff"/>
    <g id="clock" transform="translate(-15551.662 18790.834)">
      <path id="Path_8922" data-name="Path 8922" d="M0,1.567V0" transform="translate(13.758 12.063)" fill="none" stroke="#fff" stroke-linecap="round" stroke-width="1"/>
      <path id="Path_8923" data-name="Path 8923" d="M.129,1.289l.92.389" transform="translate(13.677 12.412)" fill="none" stroke="#fff" stroke-linecap="round" stroke-width="1"/>
      <g id="Path_9006" data-name="Path 9006" transform="translate(10.699 10.003)" fill="none">
        <path d="M3.25,0A3.25,3.25,0,1,1,0,3.25,3.25,3.25,0,0,1,3.25,0Z" stroke="none"/>
        <path d="M 3.25 1 C 2.009349822998047 1 1 2.009349822998047 1 3.25 C 1 4.490650177001953 2.009349822998047 5.5 3.25 5.5 C 4.490650177001953 5.5 5.5 4.490650177001953 5.5 3.25 C 5.5 2.009349822998047 4.490650177001953 1 3.25 1 M 3.25 0 C 5.044929981231689 0 6.5 1.455070018768311 6.5 3.25 C 6.5 5.044929981231689 5.044929981231689 6.5 3.25 6.5 C 1.455070018768311 6.5 0 5.044929981231689 0 3.25 C 0 1.455070018768311 1.455070018768311 0 3.25 0 Z" stroke="none" fill="#fff"/>
      </g>
    </g>
  </g>
</svg>
