<svg xmlns="http://www.w3.org/2000/svg" width="21.128" height="23.158" viewBox="0 0 21.128 23.158">
  <g id="Group_3169" data-name="Group 3169" transform="translate(-239.5 -230.5)">
    <g id="Group_267" data-name="Group 267" transform="translate(240 231)">
      <g id="Path_74" data-name="Path 74" transform="translate(-481.658 -1731.62)" fill="#285078">
        <path d="M 491.7653198242188 1754.027465820312 C 491.7506713867188 1754.027465820312 491.7359924316406 1754.02734375 491.7213439941406 1754.026977539062 C 491.7066955566406 1754.02734375 491.6920471191406 1754.027465820312 491.6773681640625 1754.027465820312 C 491.478515625 1754.027465820312 491.2790832519531 1754.002319335938 491.1007080078125 1753.954711914062 C 488.2879333496094 1753.203491210938 485.872314453125 1751.596313476562 484.1148986816406 1749.307006835938 C 482.3589477539062 1747.01953125 481.4255676269531 1744.266967773438 481.4157104492188 1741.347045898438 C 481.4137573242188 1740.698852539062 481.4144287109375 1740.040283203125 481.4150695800781 1739.403442382812 C 481.4153747558594 1739.079833984375 481.4157104492188 1738.756225585938 481.4157104492188 1738.432495117188 C 481.4154052734375 1738.044067382812 481.4165344238281 1737.6552734375 481.4176635742188 1737.266357421875 C 481.4202575683594 1736.38720703125 481.4229125976562 1735.478149414062 481.4078063964844 1734.585571289062 C 481.3980407714844 1733.987060546875 481.6576232910156 1733.659057617188 482.24951171875 1733.521850585938 C 483.8356323242188 1733.155517578125 485.447021484375 1732.775634765625 487.00537109375 1732.408203125 C 488.3899230957031 1732.081909179688 489.8216247558594 1731.744384765625 491.2311096191406 1731.417358398438 C 491.3658752441406 1731.3857421875 491.5107727050781 1731.36962890625 491.6611328125 1731.36962890625 C 491.6812133789062 1731.36962890625 491.7012939453125 1731.369873046875 491.7213439941406 1731.370483398438 C 491.7413940429688 1731.369873046875 491.761474609375 1731.36962890625 491.7815551757812 1731.36962890625 C 491.9319152832031 1731.36962890625 492.0768127441406 1731.3857421875 492.2122497558594 1731.41748046875 C 493.6188659667969 1731.743774414062 495.0483093261719 1732.080810546875 496.4306945800781 1732.40673828125 C 497.9912414550781 1732.774536132812 499.6048889160156 1733.154907226562 501.1931457519531 1733.521850585938 C 501.7850952148438 1733.659057617188 502.0446166992188 1733.987060546875 502.0348510742188 1734.585327148438 C 502.0197143554688 1735.479736328125 502.0223693847656 1736.390502929688 502.0249633789062 1737.271240234375 C 502.0260925292969 1737.658447265625 502.0272521972656 1738.045654296875 502.0269470214844 1738.432739257812 C 502.0269470214844 1738.756225585938 502.0272827148438 1739.079833984375 502.027587890625 1739.403442382812 C 502.0282287597656 1740.040283203125 502.0289001464844 1740.698852539062 502.0269470214844 1741.346923828125 C 502.01708984375 1744.266967773438 501.0837097167969 1747.01953125 499.3277587890625 1749.307006835938 C 497.5703430175781 1751.596313476562 495.1547546386719 1753.203491210938 492.3421325683594 1753.954711914062 C 492.16357421875 1754.002319335938 491.9641723632812 1754.027465820312 491.7653198242188 1754.027465820312 Z M 491.7213439941406 1752.454223632812 L 491.7235412597656 1752.454223632812 L 491.7348022460938 1752.454223632812 C 491.8751831054688 1752.454223632812 492.0350952148438 1752.4306640625 492.18505859375 1752.3876953125 C 497.0890808105469 1750.963623046875 500.423583984375 1746.562377929688 500.4816284179688 1741.436279296875 C 500.4946594238281 1740.300170898438 500.4924926757812 1739.14404296875 500.4903869628906 1738.026123046875 C 500.4886474609375 1737.105712890625 500.4868774414062 1736.154174804688 500.4935607910156 1735.2177734375 C 500.4949645996094 1734.978881835938 500.4708251953125 1734.945922851562 500.2588500976562 1734.897216796875 C 498.6255187988281 1734.5224609375 496.967529296875 1734.132568359375 495.3641662597656 1733.755493164062 C 494.260986328125 1733.49609375 493.1202697753906 1733.227783203125 491.9976806640625 1732.966918945312 C 491.9268798828125 1732.950073242188 491.8515319824219 1732.941650390625 491.7724914550781 1732.941650390625 C 491.7586059570312 1732.941650390625 491.7446594238281 1732.94189453125 491.7307434082031 1732.942504882812 L 491.7213439941406 1732.94287109375 L 491.7119445800781 1732.942504882812 C 491.697998046875 1732.94189453125 491.6841125488281 1732.941650390625 491.6701965332031 1732.941650390625 C 491.5911560058594 1732.941650390625 491.5157775878906 1732.950073242188 491.4462280273438 1732.966552734375 C 490.3208618164062 1733.228149414062 489.1786193847656 1733.496826171875 488.0740051269531 1733.756591796875 C 486.4721069335938 1734.13330078125 484.8157043457031 1734.522827148438 483.1838684082031 1734.897216796875 C 482.9718017578125 1734.945922851562 482.9476623535156 1734.978881835938 482.9490966796875 1735.218139648438 C 482.9557800292969 1736.154296875 482.9539794921875 1737.10595703125 482.9522094726562 1738.0263671875 C 482.9501037597656 1739.144287109375 482.9479370117188 1740.30029296875 482.9609375 1741.436157226562 C 483.0191955566406 1746.5625 486.3537292480469 1750.963623046875 491.258544921875 1752.387939453125 C 491.4075927734375 1752.4306640625 491.5675048828125 1752.454223632812 491.7078857421875 1752.454223632812 L 491.7191467285156 1752.454223632812 L 491.7213439941406 1752.454223632812 Z" stroke="none"/>
        <path d="M 491.6611328125 1731.61962890625 C 491.5337219238281 1731.61962890625 491.4062194824219 1731.633056640625 491.2876281738281 1731.660888671875 C 488.2919921875 1732.355834960938 485.3014526367188 1733.073486328125 482.3059387207031 1733.765380859375 C 481.8355712890625 1733.874389648438 481.64990234375 1734.099487304688 481.6577758789062 1734.581298828125 C 481.6795043945312 1735.864868164062 481.6646728515625 1737.149291992188 481.6657104492188 1738.432495117188 C 481.6657104492188 1739.40380859375 481.6627807617188 1740.374755859375 481.6657104492188 1741.34619140625 C 481.6854248046875 1747.182250976562 485.53955078125 1752.210693359375 491.1651306152344 1753.713134765625 C 491.3389892578125 1753.759521484375 491.531494140625 1753.779052734375 491.7213439941406 1753.776977539062 C 491.9114379882812 1753.77978515625 492.1036682128906 1753.759521484375 492.2776184082031 1753.713134765625 C 497.9031066894531 1752.210693359375 501.7572326660156 1747.182250976562 501.7769470214844 1741.34619140625 C 501.7798767089844 1740.374755859375 501.7769470214844 1739.40380859375 501.7769470214844 1738.432495117188 C 501.7779235839844 1737.149291992188 501.7631530761719 1735.864868164062 501.7848815917969 1734.581298828125 C 501.7927551269531 1734.099487304688 501.6071472167969 1733.874389648438 501.1368713378906 1733.765380859375 C 498.1412048339844 1733.073486328125 495.1506042480469 1732.355834960938 492.1551208496094 1731.660888671875 C 492.017822265625 1731.628662109375 491.8686218261719 1731.616333007812 491.7213439941406 1731.62060546875 C 491.7013244628906 1731.619995117188 491.6812133789062 1731.61962890625 491.6611328125 1731.61962890625 M 491.7213439941406 1732.692626953125 C 491.8349609375 1732.688720703125 491.9485473632812 1732.6982421875 492.0542907714844 1732.723388671875 C 494.8086853027344 1733.363647460938 497.5583801269531 1734.021118164062 500.3147888183594 1734.653564453125 C 500.6625671386719 1734.7333984375 500.7455139160156 1734.883666992188 500.7435607910156 1735.219604492188 C 500.7287292480469 1737.292358398438 500.7554016113281 1739.366088867188 500.7315979003906 1741.439086914062 C 500.6725158691406 1746.65869140625 497.2451477050781 1751.178588867188 492.2538757324219 1752.628051757812 C 492.0888061523438 1752.67529296875 491.9009704589844 1752.7041015625 491.7213439941406 1752.704223632812 C 491.5407104492188 1752.704345703125 491.3538208007812 1752.67529296875 491.1888122558594 1752.628051757812 C 486.1976013183594 1751.178588867188 482.770263671875 1746.65869140625 482.7109680175781 1741.439086914062 C 482.6871948242188 1739.366088867188 482.7138977050781 1737.292358398438 482.6990966796875 1735.219604492188 C 482.6970825195312 1734.883666992188 482.7801208496094 1734.7333984375 483.1279602050781 1734.653564453125 C 485.8843078613281 1734.021118164062 488.6338806152344 1733.363647460938 491.3883666992188 1732.723388671875 C 491.4940795898438 1732.6982421875 491.6077880859375 1732.688598632812 491.7213439941406 1732.692626953125 M 491.6611328125 1731.11962890625 C 491.7012634277344 1731.11962890625 491.7413635253906 1731.11962890625 491.7815551757812 1731.11962890625 C 491.9510803222656 1731.11962890625 492.115234375 1731.137939453125 492.2693786621094 1731.174072265625 C 493.67578125 1731.500366210938 495.1054382324219 1731.83740234375 496.4880676269531 1732.163330078125 C 498.0483093261719 1732.531127929688 499.6617126464844 1732.911499023438 501.2493896484375 1733.278198242188 C 501.9579772949219 1733.442504882812 502.2965393066406 1733.871337890625 502.2848205566406 1734.589477539062 C 502.2697143554688 1735.4814453125 502.2723693847656 1736.390991210938 502.2749633789062 1737.2705078125 C 502.2760925292969 1737.657958984375 502.2772521972656 1738.045532226562 502.2769470214844 1738.432861328125 C 502.2769470214844 1738.756103515625 502.2772827148438 1739.079711914062 502.277587890625 1739.403198242188 C 502.2782287597656 1740.040283203125 502.2789001464844 1740.699096679688 502.2769470214844 1741.34765625 C 502.2669067382812 1744.323120117188 501.3156433105469 1747.1279296875 499.5260620117188 1749.459228515625 C 497.7348327636719 1751.792602539062 495.27294921875 1753.4306640625 492.4066467285156 1754.196166992188 C 492.1940612792969 1754.2529296875 491.9565124511719 1754.282592773438 491.7213439941406 1754.277099609375 C 491.4866333007812 1754.28125 491.2486267089844 1754.2529296875 491.0362548828125 1754.1962890625 C 488.1697387695312 1753.4306640625 485.7078552246094 1751.792602539062 483.9165954589844 1749.459228515625 C 482.1270141601562 1747.1279296875 481.1757507324219 1744.323120117188 481.1657104492188 1741.347900390625 C 481.1637573242188 1740.699096679688 481.1644287109375 1740.040283203125 481.1650695800781 1739.403198242188 C 481.1653747558594 1739.079711914062 481.1657104492188 1738.756103515625 481.1657104492188 1738.432495117188 C 481.1654052734375 1738.0439453125 481.1665344238281 1737.65478515625 481.1676940917969 1737.265625 C 481.1702575683594 1736.3876953125 481.1729125976562 1735.479858398438 481.1578369140625 1734.589721679688 C 481.1461181640625 1733.871337890625 481.4847412109375 1733.442504882812 482.1930541992188 1733.2783203125 C 483.7788696289062 1732.911987304688 485.3900756835938 1732.5322265625 486.9482116699219 1732.164916992188 C 488.3329162597656 1731.83837890625 489.7647705078125 1731.500854492188 491.1746215820312 1731.173828125 C 491.3274536132812 1731.137939453125 491.4915771484375 1731.11962890625 491.6611328125 1731.11962890625 Z M 491.7213439941406 1733.192993164062 L 491.7025756835938 1733.192260742188 C 491.6327819824219 1733.190185546875 491.5631713867188 1733.19580078125 491.5040893554688 1733.209838867188 C 490.3772888183594 1733.4716796875 489.2347412109375 1733.740478515625 488.1297912597656 1734.000244140625 C 486.528076171875 1734.376953125 484.8717956542969 1734.766479492188 483.2397766113281 1735.140869140625 C 483.2243957519531 1735.144409179688 483.2113952636719 1735.147827148438 483.2005004882812 1735.15087890625 C 483.1995544433594 1735.167724609375 483.1989135742188 1735.189331054688 483.1990966796875 1735.216552734375 C 483.2057800292969 1736.153564453125 483.2039794921875 1737.10595703125 483.2022094726562 1738.02685546875 C 483.2001037597656 1739.143920898438 483.1979370117188 1740.299072265625 483.2109375 1741.433349609375 C 483.2679138183594 1746.448608398438 486.5299987792969 1750.754516601562 491.3282470703125 1752.14794921875 C 491.4546508789062 1752.18408203125 491.5901489257812 1752.204223632812 491.7078857421875 1752.204223632812 L 491.7348022460938 1752.204223632812 C 491.8525390625 1752.204223632812 491.988037109375 1752.18408203125 492.1162719726562 1752.147338867188 C 496.9128112792969 1750.75439453125 500.1748657226562 1746.448608398438 500.2316284179688 1741.433471679688 C 500.2446594238281 1740.298950195312 500.2424926757812 1739.143798828125 500.2403869628906 1738.026489257812 C 500.2386474609375 1737.105712890625 500.2368774414062 1736.153442382812 500.2435607910156 1735.216064453125 C 500.2437438964844 1735.18896484375 500.2431030273438 1735.167602539062 500.2421569824219 1735.15087890625 C 500.2312622070312 1735.147827148438 500.2182922363281 1735.144409179688 500.2029113769531 1735.140869140625 C 498.5694274902344 1734.76611328125 496.9115905761719 1734.376220703125 495.308349609375 1733.999267578125 C 494.2048645019531 1733.73974609375 493.0638122558594 1733.471435546875 491.9410705566406 1733.21044921875 C 491.8790283203125 1733.195556640625 491.8095703125 1733.189575195312 491.7401123046875 1733.192260742188 L 491.7213439941406 1733.192993164062 Z" stroke="none" fill="#285078"/>
      </g>
      <path id="Path_75" data-name="Path 75" d="M541.206,1775.082c0-.57-.161-.726-.738-.732-.506-.006-1.012,0-1.566,0a3.151,3.151,0,0,0-1.016-2.795,2.746,2.746,0,0,0-1.812-.673h-.152a2.746,2.746,0,0,0-1.812.673,3.15,3.15,0,0,0-1.016,2.795c-.554,0-1.06,0-1.566,0-.577.006-.737.162-.738.732q0,3.606,0,7.211c0,.541.163.707.71.708q2.248,0,4.5,0t4.5,0c.547,0,.711-.167.711-.708Q541.211,1778.687,541.206,1775.082Zm-6.213-2.865a1.859,1.859,0,0,1,2.011,0,1.92,1.92,0,0,1,.8,2.095H534.19A1.92,1.92,0,0,1,534.993,1772.217Zm5.134,9.692H531.87v-6.461h8.258Z" transform="translate(-525.934 -1767.001)" fill="#285078" stroke="#285078" stroke-width="0.5"/>
      <path id="Path_76" data-name="Path 76" d="M570.3,1828.013a1.341,1.341,0,0,0-.542,1.384c0,.082.027.2-.015.24-.154.162-.331.415-.5.416a.231.231,0,0,0-.109,0c-.17,0-.347-.254-.5-.416-.042-.044-.019-.158-.015-.24a1.341,1.341,0,0,0-.542-1.384,1.356,1.356,0,0,1-.227-1.795,1.591,1.591,0,0,1,2.679,0A1.356,1.356,0,0,1,570.3,1828.013Z" transform="translate(-559.125 -1816.211)" fill="#285078" stroke="#285078" stroke-width="0.5"/>
    </g>
  </g>
</svg>
