<svg xmlns="http://www.w3.org/2000/svg" width="18.937" height="18.005" viewBox="0 0 18.937 18.005">
  <g id="Group_255" data-name="Group 255" transform="translate(0 0)">
    <g id="Group_8037" data-name="Group 8037">
      <path id="Path_58" data-name="Path 58" d="M633,342.782c.018-.174.034-.348.054-.521a7.7,7.7,0,0,1,1.084-3.167,8.883,8.883,0,0,1,4.139-3.539l.253-.11-.094-.1a5.357,5.357,0,0,1,2.813-9.043,5.353,5.353,0,0,1,2.178,10.481,5.2,5.2,0,0,1-3.442-.355.318.318,0,0,0-.248-.014,8.189,8.189,0,0,0-3.2,1.791,6.692,6.692,0,0,0-2.127,3.831,8.273,8.273,0,0,0-.1,1.515.65.65,0,0,1-.464.635.662.662,0,0,1-.828-.454c-.007-.023-.016-.046-.024-.07Zm9.225-7.174a4.037,4.037,0,1,0-4.041-4.029A4.054,4.054,0,0,0,642.225,335.608Z" transform="translate(-633 -326.211)" fill="#fff"/>
      <path id="Path_8924" data-name="Path 8924" d="M10.54,14.459l2.335,2.655,5.179-4.91" transform="translate(0 -0.656)" fill="none" stroke="#fff" stroke-linecap="round" stroke-width="1.25"/>
    </g>
  </g>
</svg>
