<svg id="Group_2349" data-name="Group 2349" xmlns="http://www.w3.org/2000/svg" width="20.17" height="22.948" viewBox="0 0 20.17 22.948">
  <g id="Group_2344" data-name="Group 2344" transform="translate(0 0)">
    <g id="Group_2343" data-name="Group 2343" transform="translate(0)">
      <path id="Path_242" data-name="Path 242" d="M24.916-3.838c2.442-3.832,2.135-3.354,2.205-3.454A7.34,7.34,0,0,0,28.48-11.56a7.437,7.437,0,0,0-7.4-7.44,7.441,7.441,0,0,0-7.4,7.44,7.379,7.379,0,0,0,1.4,4.323l2.166,3.4C14.937-3.482,11-2.421,11-.085c0,.851.556,2.065,3.2,3.01a21.221,21.221,0,0,0,6.882,1.024c4.842,0,10.085-1.366,10.085-4.034C31.17-2.421,27.237-3.481,24.916-3.838ZM16.21-7.976l-.023-.034a6.033,6.033,0,0,1-1.153-3.549,6.075,6.075,0,0,1,6.051-6.1,6.08,6.08,0,0,1,6.051,6.1,6,6,0,0,1-1.1,3.481c-.065.085.273-.44-4.946,7.75ZM21.085,2.6c-5.289,0-8.74-1.555-8.74-2.689,0-.763,1.773-2.017,5.7-2.506l2.47,3.875a.672.672,0,0,0,1.134,0l2.47-3.875c3.93.489,5.7,1.743,5.7,2.506C29.825,1.04,26.4,2.6,21.085,2.6Z" transform="translate(-11 19)" fill="#285078"/>
    </g>
  </g>
  <g id="Group_2346" data-name="Group 2346" transform="translate(6.723 4.079)">
    <g id="Group_2345" data-name="Group 2345">
      <path id="Path_243" data-name="Path 243" d="M164.362,72a3.362,3.362,0,1,0,3.362,3.362A3.365,3.365,0,0,0,164.362,72Zm0,5.379a2.017,2.017,0,1,1,2.017-2.017A2.019,2.019,0,0,1,164.362,77.379Z" transform="translate(-161 -72)" fill="#285078"/>
    </g>
  </g>
</svg>
