<svg xmlns="http://www.w3.org/2000/svg" width="17.396" height="14.635" viewBox="0 0 17.396 14.635">
  <g id="Group_7935" data-name="Group 7935" transform="translate(0.5 0.5)">
    <g id="Group_8033" data-name="Group 8033">
      <path id="Path_227" data-name="Path 227" d="M934.16-125.782a3.853,3.853,0,0,0-3.6-3.27,3.922,3.922,0,0,0-2.8.922c-.07.058-.138.12-.209.183l-.054-.044a3.868,3.868,0,0,0-3.279-.959,3.989,3.989,0,0,0-3.348,3.584,3.8,3.8,0,0,0,.832,2.8c.2.25.438.467.659.7l.064.068.238.216.949.858.235.212c.3.269.624.561.952.855l.234.21c.329.294.656.585.959.853l.248.219c.4.349.735.642.958.826a2.836,2.836,0,0,0,.257.2.981.981,0,0,0,1.653-.652.956.956,0,0,0,1.073-.005.963.963,0,0,0,.427-.989.979.979,0,0,0,.866-.273.976.976,0,0,0,.273-.866.947.947,0,0,0,1.014-.466.953.953,0,0,0-.223-1.255c.181-.18.362-.351.532-.531A3.879,3.879,0,0,0,934.16-125.782Zm-1.736,5.12a.644.644,0,0,1-.869.1.993.993,0,0,1-.106-.095l-1.314-1.312a.514.514,0,0,0-.068-.062.156.156,0,0,0-.205.024.154.154,0,0,0-.012.2.645.645,0,0,0,.063.067q.668.668,1.337,1.336a.608.608,0,0,1,.164.638.617.617,0,0,1-.482.45.621.621,0,0,1-.6-.182L929-120.826a.642.642,0,0,0-.061-.057.16.16,0,0,0-.207.011.159.159,0,0,0-.015.213.749.749,0,0,0,.063.067q.665.665,1.331,1.33a.609.609,0,0,1,.167.629.618.618,0,0,1-.476.457.619.619,0,0,1-.612-.179q-.672-.671-1.344-1.341a.274.274,0,0,0-.1-.072.145.145,0,0,0-.181.067.15.15,0,0,0,.02.192c.089.093.181.182.271.273.25.25.5.5.751.752a.636.636,0,0,1,.025.86.647.647,0,0,1-.847.126c-.019-.012-.036-.027-.054-.039h0a.2.2,0,0,1-.042-.037l-.3-.26-.88-.775-.265-.233-.966-.851-.234-.207-.964-.85-.233-.206c-.4-.358-.747-.661-.961-.854-.125-.112-.208-.187-.234-.213-.164-.163-.33-.32-.486-.485a3.514,3.514,0,0,1-.992-2.763,3.666,3.666,0,0,1,3.015-3.354,3.543,3.543,0,0,1,3.057.841c.023.019.044.041.091.086a.5.5,0,0,0-.091.057q-1.1,1.092-2.19,2.186a1.342,1.342,0,0,0-.234,1.609,1.338,1.338,0,0,0,2.113.282c.405-.4.8-.8,1.208-1.2a.7.7,0,0,1,.755-.173.563.563,0,0,1,.212.127q1.646,1.636,3.285,3.279A.636.636,0,0,1,932.424-120.662Zm.442-1.966c-.174.188-.36.365-.562.568a.661.661,0,0,0-.066-.1q-1.413-1.413-2.828-2.825a1.028,1.028,0,0,0-1.494,0c-.4.4-.8.8-1.2,1.2a1.02,1.02,0,0,1-1.652-.3,1.022,1.022,0,0,1,.222-1.149q1.223-1.225,2.449-2.447a3.551,3.551,0,0,1,.777-.589,3.584,3.584,0,0,1,5.278,2.253A3.536,3.536,0,0,1,932.866-122.628Z" transform="translate(-920.851 129.059)" fill="#fff" stroke="#fff" stroke-width="1"/>
      <g id="Rectangle_1264" data-name="Rectangle 1264" transform="translate(14.225 8.559) rotate(90)" fill="#fff" stroke="#fff" stroke-width="0.4">
        <rect width="5.176" height="0.588" rx="0.294" stroke="none"/>
        <rect x="-0.2" y="-0.2" width="5.576" height="0.988" rx="0.494" fill="none"/>
      </g>
      <g id="Rectangle_1265" data-name="Rectangle 1265" transform="translate(16.496 11.438) rotate(180)" fill="#fff" stroke="#fff" stroke-width="0.4">
        <rect width="5.131" height="0.583" rx="0.292" stroke="none"/>
        <rect x="-0.2" y="-0.2" width="5.531" height="0.983" rx="0.492" fill="none"/>
      </g>
    </g>
  </g>
</svg>
