<svg xmlns="http://www.w3.org/2000/svg" width="23.447" height="25.138" viewBox="0 0 23.447 25.138">
  <g id="Group_3856" data-name="Group 3856" transform="translate(-179.709 -455)">
    <g id="Group_3206" data-name="Group 3206" transform="translate(179.709 455)">
      <path id="Path_189" data-name="Path 189" d="M357.01,535.047q-.007,2.428,0,4.858a1.769,1.769,0,0,1-.651,1.43,1.4,1.4,0,0,1-.907.371c-.87,0-1.738,0-2.608,0V541.7h-2.49a1.548,1.548,0,0,1-.325-.011,1.754,1.754,0,0,1-1.429-1.769c.018-1.638.008-3.277,0-4.914a1.573,1.573,0,0,1,.276-.943,1.648,1.648,0,0,1,1.39-.764c.283,0,.564-.005.847-.005h.041c.114,0,.229,0,.343,0,1.259-.006,2.516,0,3.776,0a1.638,1.638,0,0,1,.828.2A1.7,1.7,0,0,1,357.01,535.047Z" transform="translate(-341.041 -528.596)" fill="#0083bf"/>
      <path id="Path_190" data-name="Path 190" d="M343.085,635.45a.347.347,0,0,1-.215.324.8.8,0,0,1-.3.054q-2.388,0-4.775,0h-9.243c-.054,0-.109,0-.163,0a.407.407,0,0,1-.413-.426c0-.451,0-.9,0-1.351a1.488,1.488,0,0,1,.26-.81,1.681,1.681,0,0,1,1.49-.774h11.609c.057,0,.116,0,.174,0a1.65,1.65,0,0,1,1.555,1.446C343.111,634.422,343.087,634.938,343.085,635.45Z" transform="translate(-323.765 -611.647)" fill="#0083bf"/>
      <path id="Path_191" data-name="Path 191" d="M357.027,596.112a.833.833,0,0,1-.267.636,1.842,1.842,0,0,1-1.252.514c-.842.006-1.685,0-2.527,0h-.127v0h-.574c-.681,0-1.363,0-2.044,0A2.026,2.026,0,0,1,349,596.85a.9.9,0,0,1-.381-.771c.008-1.047,0-2.1,0-3.144a.734.734,0,0,1,.226-.543,1.9,1.9,0,0,1,1.394-.54l1,0h.049c.221,0,.441,0,.66,0q1.7,0,3.4,0a2.079,2.079,0,0,1,1.27.384.936.936,0,0,1,.408.815C357.019,594.069,357.024,595.09,357.027,596.112Z" transform="translate(-341.057 -577.633)" fill="#0083bf"/>
      <path id="Path_192" data-name="Path 192" d="M308,539.292q0,2.454,0,4.9v.153c-.145,0-.27,0-.394,0a5.477,5.477,0,0,1-5.488-5.4.43.43,0,0,1,.485-.49q2.749,0,5.5,0c.036,0,.072,0,.12.006A1.533,1.533,0,0,0,308,539.292Z" transform="translate(-302.118 -532.93)" fill="#0083bf"/>
      <path id="Path_193" data-name="Path 193" d="M408.775,538.467a1.863,1.863,0,0,1,.227,1.056q0,2.33,0,4.659v.15a.284.284,0,0,0,.054.015,5.541,5.541,0,0,0,2.584-.475,5.385,5.385,0,0,0,3.141-3.976,6.6,6.6,0,0,0,.1-.994.409.409,0,0,0-.436-.441q-2.8,0-5.6,0C408.826,538.461,408.811,538.464,408.775,538.467Z" transform="translate(-391.43 -532.929)" fill="#0083bf"/>
      <path id="Path_194" data-name="Path 194" d="M360.421,507.684a.163.163,0,0,1-.011.041c-.01,0-.015,0-.016,0a.318.318,0,0,1-.044-.038,1.2,1.2,0,0,0-.826-.323c-1.242,0-2.488,0-3.732,0h-.262c-.309,0-.62,0-.93,0a1.118,1.118,0,0,0-.624.189c-.086.057-.171.12-.255.181a.281.281,0,0,0-.039,0c.023-.355.026-.711.07-1.064a3.359,3.359,0,0,1,.6-1.6,1.373,1.373,0,0,1,1.194-.62l.361,0c.927.01,1.854,0,2.781,0a1.151,1.151,0,0,1,.743.257,2.354,2.354,0,0,1,.7,1.012A4.993,4.993,0,0,1,360.421,507.684Z" transform="translate(-345.295 -504.445)" fill="#0083bf"/>
      <path id="Path_195" data-name="Path 195" d="M307.606,544.349a5.477,5.477,0,0,1-5.488-5.4.43.43,0,0,1,.485-.49q2.749,0,5.5,0c.036,0,.072,0,.12.006a1.533,1.533,0,0,0-.221.823q0,2.454,0,4.9v.153C307.855,544.349,307.73,544.351,307.606,544.349Z" transform="translate(-302.118 -532.93)" fill="#0083bf"/>
      <path id="Path_196" data-name="Path 196" d="M394.869,658.909a.4.4,0,0,1-.049-.023Z" transform="translate(-379.745 -633.771)" fill="#0083bf"/>
    </g>
  </g>
</svg>
